<?xml version="1.0" encoding="UTF-8" standalone="no"?>
<!DOCTYPE svg PUBLIC "-//W3C//DTD SVG 1.1//EN" "http://www.w3.org/Graphics/SVG/1.1/DTD/svg11.dtd">
<!-- Generated by Microsoft Visio, SVG Export FacDEMFlowchart.svg Page-1 -->
<svg xmlns="http://www.w3.org/2000/svg" xmlns:xlink="http://www.w3.org/1999/xlink" xmlns:ev="http://www.w3.org/2001/xml-events"
		xmlns:v="http://schemas.microsoft.com/visio/2003/SVGExtensions/" width="5.93118in" height="4.77648in"
		viewBox="0 0 427.045 343.907" xml:space="preserve" color-interpolation-filters="sRGB" class="st16">
	<v:documentProperties v:langID="1033" v:metric="true" v:viewMarkup="false"/>

	<style type="text/css">
	<![CDATA[
		.st1 {fill:#f2f2f2;stroke:#3ea853;stroke-width:1.5}
		.st2 {fill:#3ea853;fill-opacity:1;stroke:#3ea853;stroke-opacity:1;stroke-width:0.37313432835821}
		.st3 {fill:#000000;font-family:Segoe UI;font-size:0.75em}
		.st4 {fill:#f2f2f2;stroke:#ea4d35;stroke-width:1.5}
		.st5 {fill:#ea4d35;fill-opacity:1;stroke:#ea4d35;stroke-opacity:1;stroke-width:0.37313432835821}
		.st6 {fill:#f2f2f2;stroke:#696368;stroke-width:1.5}
		.st7 {fill:#696368;fill-opacity:1;stroke:#696368;stroke-opacity:1;stroke-width:0.37313432835821}
		.st8 {marker-end:url(#mrkr6-41);stroke:#7f7f7f;stroke-linecap:round;stroke-linejoin:round;stroke-width:0.5}
		.st9 {fill:#7f7f7f;fill-opacity:1;stroke:#7f7f7f;stroke-opacity:1;stroke-width:0.25773195876289}
		.st10 {marker-end:url(#mrkr6-52);stroke:#7f7f7f;stroke-linecap:round;stroke-linejoin:round;stroke-width:0.5}
		.st11 {marker-end:url(#mrkr6-41);stroke:#7f7f7f;stroke-dasharray:3.5,2.5;stroke-linecap:round;stroke-linejoin:round;stroke-width:0.5}
		.st12 {marker-end:url(#mrkr6-52);stroke:#7f7f7f;stroke-dasharray:3.5,2.5;stroke-linecap:round;stroke-linejoin:round;stroke-width:0.5}
		.st13 {fill:#f2f2f2;stroke:#4c85f4;stroke-width:1.5}
		.st14 {fill:#4c85f4;fill-opacity:1;stroke:#4c85f4;stroke-opacity:1;stroke-width:0.37313432835821}
		.st15 {font-size:1em}
		.st16 {fill:none;fill-rule:evenodd;font-size:12px;overflow:visible;stroke-linecap:square;stroke-miterlimit:3}
	]]>
	</style>

	<defs id="Markers">
		<g id="lend6">
			<path d="M 2 1 L 0 0 L 2.01237 -1.00641 C 2.32921 -0.372876 2.32921 0.372869 2.01238 1.0064 " style="stroke:none"/>
		</g>
		<marker id="mrkr6-4" class="st2" v:arrowType="6" v:arrowSize="2" v:setback="6.03" refX="6.03" orient="auto"
				markerUnits="strokeWidth" overflow="visible">
			<use xlink:href="#lend6" transform="scale(2.68) "/>
		</marker>
		<marker id="mrkr6-17" class="st5" v:arrowType="6" v:arrowSize="2" v:setback="6.03" refX="6.03" orient="auto"
				markerUnits="strokeWidth" overflow="visible">
			<use xlink:href="#lend6" transform="scale(2.68) "/>
		</marker>
		<marker id="mrkr6-34" class="st7" v:arrowType="6" v:arrowSize="2" v:setback="6.03" refX="6.03" orient="auto"
				markerUnits="strokeWidth" overflow="visible">
			<use xlink:href="#lend6" transform="scale(2.68) "/>
		</marker>
		<marker id="mrkr6-41" class="st9" v:arrowType="6" v:arrowSize="0" v:setback="8.01" refX="-8.01" orient="auto"
				markerUnits="strokeWidth" overflow="visible">
			<use xlink:href="#lend6" transform="scale(-3.88,-3.88) "/>
		</marker>
		<marker id="mrkr6-52" class="st9" v:arrowType="6" v:arrowSize="0" v:setback="8.73" refX="-8.73" orient="auto"
				markerUnits="strokeWidth" overflow="visible">
			<use xlink:href="#lend6" transform="scale(-3.88,-3.88) "/>
		</marker>
		<marker id="mrkr6-90" class="st14" v:arrowType="6" v:arrowSize="2" v:setback="6.03" refX="6.03" orient="auto"
				markerUnits="strokeWidth" overflow="visible">
			<use xlink:href="#lend6" transform="scale(2.68) "/>
		</marker>
	</defs>
	<g v:mID="0" v:index="1" v:groupContext="foregroundPage">
		<title>Page-1</title>
		<v:pageProperties v:drawingScale="0.0393701" v:pageScale="0.0393701" v:drawingUnits="24" v:shadowOffsetX="8.50394"
				v:shadowOffsetY="-8.50394"/>
		<v:layer v:name="Connector" v:index="0"/>
		<g id="shape216-1" v:mID="216" v:groupContext="shape" transform="translate(25.6299,-311.383)">
			<title>Rounded Rectangle.216</title>
			<desc>ASTER FdrDEM</desc>
			<v:userDefs>
				<v:ud v:nameU="CTypeTopLeftSnip" v:prompt="" v:val="VT0(0):5"/>
				<v:ud v:nameU="CTypeTopRightSnip" v:prompt="" v:val="VT0(0):5"/>
				<v:ud v:nameU="CTypeBotLeftSnip" v:prompt="" v:val="VT0(0):5"/>
				<v:ud v:nameU="CTypeBotRightSnip" v:prompt="" v:val="VT0(0):5"/>
				<v:ud v:nameU="CornerLockHoriz" v:prompt="" v:val="VT0(1):5"/>
				<v:ud v:nameU="CornerLockVert" v:prompt="" v:val="VT0(1):5"/>
				<v:ud v:nameU="CornerLockDiag" v:prompt="" v:val="VT0(0):5"/>
				<v:ud v:nameU="TopLeftOffset" v:prompt="" v:val="VT0(0.15748031496063):24"/>
				<v:ud v:nameU="TopRightOffset" v:prompt="" v:val="VT0(0.15748031496063):24"/>
				<v:ud v:nameU="BotLeftOffset" v:prompt="" v:val="VT0(0.15748031496063):24"/>
				<v:ud v:nameU="BotRightOffset" v:prompt="" v:val="VT0(0.15748031496063):24"/>
				<v:ud v:nameU="visVersion" v:prompt="" v:val="VT0(15):26"/>
			</v:userDefs>
			<v:textBlock v:margins="rect(4,4,4,4)" v:tabSpace="42.5197"/>
			<v:textRect cx="62.3622" cy="332.568" width="124.73" height="22.6772"/>
			<path d="M11.34 343.91 L113.39 343.91 A11.3384 11.3384 -180 0 0 124.72 332.57 A11.3384 11.3384 -180 0 0 113.39 321.23
						 L11.34 321.23 A11.3384 11.3384 -180 0 0 0 332.57 A11.3384 11.3384 -180 0 0 11.34 343.91 Z" class="st1"/>
			<text x="32.63" y="335.27" class="st3" v:langID="1033"><v:paragraph v:horizAlign="1"/><v:tabList/>ASTER FdrDEM</text>		</g>
		<g id="shape217-6" v:mID="217" v:groupContext="shape" transform="translate(158.858,-311.383)">
			<title>Rounded Rectangle.217</title>
			<desc>SRTM FdrDEM</desc>
			<v:userDefs>
				<v:ud v:nameU="CTypeTopLeftSnip" v:prompt="" v:val="VT0(0):5"/>
				<v:ud v:nameU="CTypeTopRightSnip" v:prompt="" v:val="VT0(0):5"/>
				<v:ud v:nameU="CTypeBotLeftSnip" v:prompt="" v:val="VT0(0):5"/>
				<v:ud v:nameU="CTypeBotRightSnip" v:prompt="" v:val="VT0(0):5"/>
				<v:ud v:nameU="CornerLockHoriz" v:prompt="" v:val="VT0(1):5"/>
				<v:ud v:nameU="CornerLockVert" v:prompt="" v:val="VT0(1):5"/>
				<v:ud v:nameU="CornerLockDiag" v:prompt="" v:val="VT0(0):5"/>
				<v:ud v:nameU="TopLeftOffset" v:prompt="" v:val="VT0(0.15748031496063):24"/>
				<v:ud v:nameU="TopRightOffset" v:prompt="" v:val="VT0(0.15748031496063):24"/>
				<v:ud v:nameU="BotLeftOffset" v:prompt="" v:val="VT0(0.15748031496063):24"/>
				<v:ud v:nameU="BotRightOffset" v:prompt="" v:val="VT0(0.15748031496063):24"/>
				<v:ud v:nameU="visVersion" v:prompt="" v:val="VT0(15):26"/>
			</v:userDefs>
			<v:textBlock v:margins="rect(4,4,4,4)" v:tabSpace="42.5197"/>
			<v:textRect cx="62.3622" cy="332.568" width="124.73" height="22.6772"/>
			<path d="M11.34 343.91 L113.39 343.91 A11.3384 11.3384 -180 0 0 124.72 332.57 A11.3384 11.3384 -180 0 0 113.39 321.23
						 L11.34 321.23 A11.3384 11.3384 -180 0 0 0 332.57 A11.3384 11.3384 -180 0 0 11.34 343.91 Z" class="st1"/>
			<text x="33.76" y="335.27" class="st3" v:langID="1033"><v:paragraph v:horizAlign="1"/><v:tabList/>SRTM FdrDEM</text>		</g>
		<g id="shape218-10" v:mID="218" v:groupContext="shape" transform="translate(292.087,-311.383)">
			<title>Rounded Rectangle.218</title>
			<desc>ALOS FdrlDEM</desc>
			<v:userDefs>
				<v:ud v:nameU="CTypeTopLeftSnip" v:prompt="" v:val="VT0(0):5"/>
				<v:ud v:nameU="CTypeTopRightSnip" v:prompt="" v:val="VT0(0):5"/>
				<v:ud v:nameU="CTypeBotLeftSnip" v:prompt="" v:val="VT0(0):5"/>
				<v:ud v:nameU="CTypeBotRightSnip" v:prompt="" v:val="VT0(0):5"/>
				<v:ud v:nameU="CornerLockHoriz" v:prompt="" v:val="VT0(1):5"/>
				<v:ud v:nameU="CornerLockVert" v:prompt="" v:val="VT0(1):5"/>
				<v:ud v:nameU="CornerLockDiag" v:prompt="" v:val="VT0(0):5"/>
				<v:ud v:nameU="TopLeftOffset" v:prompt="" v:val="VT0(0.15748031496063):24"/>
				<v:ud v:nameU="TopRightOffset" v:prompt="" v:val="VT0(0.15748031496063):24"/>
				<v:ud v:nameU="BotLeftOffset" v:prompt="" v:val="VT0(0.15748031496063):24"/>
				<v:ud v:nameU="BotRightOffset" v:prompt="" v:val="VT0(0.15748031496063):24"/>
				<v:ud v:nameU="visVersion" v:prompt="" v:val="VT0(15):26"/>
			</v:userDefs>
			<v:textBlock v:margins="rect(4,4,4,4)" v:tabSpace="42.5197"/>
			<v:textRect cx="62.3622" cy="332.568" width="124.73" height="22.6772"/>
			<path d="M11.34 343.91 L113.39 343.91 A11.3384 11.3384 -180 0 0 124.72 332.57 A11.3384 11.3384 -180 0 0 113.39 321.23
						 L11.34 321.23 A11.3384 11.3384 -180 0 0 0 332.57 A11.3384 11.3384 -180 0 0 11.34 343.91 Z" class="st1"/>
			<text x="33.35" y="335.27" class="st3" v:langID="1033"><v:paragraph v:horizAlign="1"/><v:tabList/>ALOS FdrlDEM</text>		</g>
		<g id="shape219-14" v:mID="219" v:groupContext="shape" transform="translate(158.858,-259.827)">
			<title>Rounded Rectangle.219</title>
			<desc>Flow direction DEM</desc>
			<v:userDefs>
				<v:ud v:nameU="CTypeTopLeftSnip" v:prompt="" v:val="VT0(0):5"/>
				<v:ud v:nameU="CTypeTopRightSnip" v:prompt="" v:val="VT0(0):5"/>
				<v:ud v:nameU="CTypeBotLeftSnip" v:prompt="" v:val="VT0(0):5"/>
				<v:ud v:nameU="CTypeBotRightSnip" v:prompt="" v:val="VT0(0):5"/>
				<v:ud v:nameU="CornerLockHoriz" v:prompt="" v:val="VT0(1):5"/>
				<v:ud v:nameU="CornerLockVert" v:prompt="" v:val="VT0(1):5"/>
				<v:ud v:nameU="CornerLockDiag" v:prompt="" v:val="VT0(0):5"/>
				<v:ud v:nameU="TopLeftOffset" v:prompt="" v:val="VT0(0.15748031496063):24"/>
				<v:ud v:nameU="TopRightOffset" v:prompt="" v:val="VT0(0.15748031496063):24"/>
				<v:ud v:nameU="BotLeftOffset" v:prompt="" v:val="VT0(0.15748031496063):24"/>
				<v:ud v:nameU="BotRightOffset" v:prompt="" v:val="VT0(0.15748031496063):24"/>
				<v:ud v:nameU="visVersion" v:prompt="" v:val="VT0(15):26"/>
			</v:userDefs>
			<v:textBlock v:margins="rect(4,4,4,4)" v:tabSpace="42.5197"/>
			<v:textRect cx="62.3622" cy="332.568" width="124.73" height="22.6772"/>
			<path d="M11.34 343.91 L113.39 343.91 A11.3384 11.3384 -180 0 0 124.72 332.57 A11.3384 11.3384 -180 0 0 113.39 321.23
						 L11.34 321.23 A11.3384 11.3384 -180 0 0 0 332.57 A11.3384 11.3384 -180 0 0 11.34 343.91 Z" class="st4"/>
			<text x="23.71" y="335.27" class="st3" v:langID="1033"><v:paragraph v:horizAlign="1"/><v:tabList/>Flow direction DEM</text>		</g>
		<g id="shape220-19" v:mID="220" v:groupContext="shape" transform="translate(25.6299,-213.587)">
			<title>Rounded Rectangle.220</title>
			<desc>ASTER FacDEM</desc>
			<v:userDefs>
				<v:ud v:nameU="CTypeTopLeftSnip" v:prompt="" v:val="VT0(0):5"/>
				<v:ud v:nameU="CTypeTopRightSnip" v:prompt="" v:val="VT0(0):5"/>
				<v:ud v:nameU="CTypeBotLeftSnip" v:prompt="" v:val="VT0(0):5"/>
				<v:ud v:nameU="CTypeBotRightSnip" v:prompt="" v:val="VT0(0):5"/>
				<v:ud v:nameU="CornerLockHoriz" v:prompt="" v:val="VT0(1):5"/>
				<v:ud v:nameU="CornerLockVert" v:prompt="" v:val="VT0(1):5"/>
				<v:ud v:nameU="CornerLockDiag" v:prompt="" v:val="VT0(0):5"/>
				<v:ud v:nameU="TopLeftOffset" v:prompt="" v:val="VT0(0.15748031496063):24"/>
				<v:ud v:nameU="TopRightOffset" v:prompt="" v:val="VT0(0.15748031496063):24"/>
				<v:ud v:nameU="BotLeftOffset" v:prompt="" v:val="VT0(0.15748031496063):24"/>
				<v:ud v:nameU="BotRightOffset" v:prompt="" v:val="VT0(0.15748031496063):24"/>
				<v:ud v:nameU="visVersion" v:prompt="" v:val="VT0(15):26"/>
			</v:userDefs>
			<v:textBlock v:margins="rect(4,4,4,4)" v:tabSpace="42.5197"/>
			<v:textRect cx="62.3622" cy="332.568" width="124.73" height="22.6772"/>
			<path d="M11.34 343.91 L113.39 343.91 A11.3384 11.3384 -180 0 0 124.72 332.57 A11.3384 11.3384 -180 0 0 113.39 321.23
						 L11.34 321.23 A11.3384 11.3384 -180 0 0 0 332.57 A11.3384 11.3384 -180 0 0 11.34 343.91 Z" class="st1"/>
			<text x="32.47" y="335.27" class="st3" v:langID="1033"><v:paragraph v:horizAlign="1"/><v:tabList/>ASTER FacDEM</text>		</g>
		<g id="shape221-23" v:mID="221" v:groupContext="shape" transform="translate(158.858,-213.587)">
			<title>Rounded Rectangle.221</title>
			<desc>SRTM FacDEM</desc>
			<v:userDefs>
				<v:ud v:nameU="CTypeTopLeftSnip" v:prompt="" v:val="VT0(0):5"/>
				<v:ud v:nameU="CTypeTopRightSnip" v:prompt="" v:val="VT0(0):5"/>
				<v:ud v:nameU="CTypeBotLeftSnip" v:prompt="" v:val="VT0(0):5"/>
				<v:ud v:nameU="CTypeBotRightSnip" v:prompt="" v:val="VT0(0):5"/>
				<v:ud v:nameU="CornerLockHoriz" v:prompt="" v:val="VT0(1):5"/>
				<v:ud v:nameU="CornerLockVert" v:prompt="" v:val="VT0(1):5"/>
				<v:ud v:nameU="CornerLockDiag" v:prompt="" v:val="VT0(0):5"/>
				<v:ud v:nameU="TopLeftOffset" v:prompt="" v:val="VT0(0.15748031496063):24"/>
				<v:ud v:nameU="TopRightOffset" v:prompt="" v:val="VT0(0.15748031496063):24"/>
				<v:ud v:nameU="BotLeftOffset" v:prompt="" v:val="VT0(0.15748031496063):24"/>
				<v:ud v:nameU="BotRightOffset" v:prompt="" v:val="VT0(0.15748031496063):24"/>
				<v:ud v:nameU="visVersion" v:prompt="" v:val="VT0(15):26"/>
			</v:userDefs>
			<v:textBlock v:margins="rect(4,4,4,4)" v:tabSpace="42.5197"/>
			<v:textRect cx="62.3622" cy="332.568" width="124.73" height="22.6772"/>
			<path d="M11.34 343.91 L113.39 343.91 A11.3384 11.3384 -180 0 0 124.72 332.57 A11.3384 11.3384 -180 0 0 113.39 321.23
						 L11.34 321.23 A11.3384 11.3384 -180 0 0 0 332.57 A11.3384 11.3384 -180 0 0 11.34 343.91 Z" class="st1"/>
			<text x="33.61" y="335.27" class="st3" v:langID="1033"><v:paragraph v:horizAlign="1"/><v:tabList/>SRTM FacDEM</text>		</g>
		<g id="shape222-27" v:mID="222" v:groupContext="shape" transform="translate(292.473,-213.587)">
			<title>Rounded Rectangle.222</title>
			<desc>ALOS FacDEM</desc>
			<v:userDefs>
				<v:ud v:nameU="CTypeTopLeftSnip" v:prompt="" v:val="VT0(0):5"/>
				<v:ud v:nameU="CTypeTopRightSnip" v:prompt="" v:val="VT0(0):5"/>
				<v:ud v:nameU="CTypeBotLeftSnip" v:prompt="" v:val="VT0(0):5"/>
				<v:ud v:nameU="CTypeBotRightSnip" v:prompt="" v:val="VT0(0):5"/>
				<v:ud v:nameU="CornerLockHoriz" v:prompt="" v:val="VT0(1):5"/>
				<v:ud v:nameU="CornerLockVert" v:prompt="" v:val="VT0(1):5"/>
				<v:ud v:nameU="CornerLockDiag" v:prompt="" v:val="VT0(0):5"/>
				<v:ud v:nameU="TopLeftOffset" v:prompt="" v:val="VT0(0.15748031496063):24"/>
				<v:ud v:nameU="TopRightOffset" v:prompt="" v:val="VT0(0.15748031496063):24"/>
				<v:ud v:nameU="BotLeftOffset" v:prompt="" v:val="VT0(0.15748031496063):24"/>
				<v:ud v:nameU="BotRightOffset" v:prompt="" v:val="VT0(0.15748031496063):24"/>
				<v:ud v:nameU="visVersion" v:prompt="" v:val="VT0(15):26"/>
			</v:userDefs>
			<v:textBlock v:margins="rect(4,4,4,4)" v:tabSpace="42.5197"/>
			<v:textRect cx="62.3622" cy="332.568" width="124.73" height="22.6772"/>
			<path d="M11.34 343.91 L113.39 343.91 A11.3384 11.3384 -180 0 0 124.72 332.57 A11.3384 11.3384 -180 0 0 113.39 321.23
						 L11.34 321.23 A11.3384 11.3384 -180 0 0 0 332.57 A11.3384 11.3384 -180 0 0 11.34 343.91 Z" class="st1"/>
			<text x="34.29" y="335.27" class="st3" v:langID="1033"><v:paragraph v:horizAlign="1"/><v:tabList/>ALOS FacDEM</text>		</g>
		<g id="shape223-31" v:mID="223" v:groupContext="shape" transform="translate(25.6299,-179.631)">
			<title>Rounded Rectangle.223</title>
			<desc>Crear tabla puntos muestreo</desc>
			<v:userDefs>
				<v:ud v:nameU="CTypeTopLeftSnip" v:prompt="" v:val="VT0(0):5"/>
				<v:ud v:nameU="CTypeTopRightSnip" v:prompt="" v:val="VT0(0):5"/>
				<v:ud v:nameU="CTypeBotLeftSnip" v:prompt="" v:val="VT0(0):5"/>
				<v:ud v:nameU="CTypeBotRightSnip" v:prompt="" v:val="VT0(0):5"/>
				<v:ud v:nameU="CornerLockHoriz" v:prompt="" v:val="VT0(1):5"/>
				<v:ud v:nameU="CornerLockVert" v:prompt="" v:val="VT0(1):5"/>
				<v:ud v:nameU="CornerLockDiag" v:prompt="" v:val="VT0(0):5"/>
				<v:ud v:nameU="TopLeftOffset" v:prompt="" v:val="VT0(0.15748031496063):24"/>
				<v:ud v:nameU="TopRightOffset" v:prompt="" v:val="VT0(0.15748031496063):24"/>
				<v:ud v:nameU="BotLeftOffset" v:prompt="" v:val="VT0(0.15748031496063):24"/>
				<v:ud v:nameU="BotRightOffset" v:prompt="" v:val="VT0(0.15748031496063):24"/>
				<v:ud v:nameU="visVersion" v:prompt="" v:val="VT0(15):26"/>
			</v:userDefs>
			<v:textBlock v:margins="rect(4,4,4,4)" v:tabSpace="42.5197"/>
			<v:textRect cx="62.3622" cy="332.568" width="124.73" height="22.6772"/>
			<path d="M11.34 343.91 L113.39 343.91 A11.3384 11.3384 -180 0 0 124.72 332.57 A11.3384 11.3384 -180 0 0 113.39 321.23
						 L11.34 321.23 A11.3384 11.3384 -180 0 0 0 332.57 A11.3384 11.3384 -180 0 0 11.34 343.91 Z" class="st6"/>
			<text x="5.69" y="335.27" class="st3" v:langID="1033"><v:paragraph v:horizAlign="1"/><v:tabList/>Crear tabla puntos muestreo</text>		</g>
		<g id="shape226-36" v:mID="226" v:groupContext="shape" v:layerMember="0" transform="translate(87.9921,-311.383)">
			<title>Dynamic connector.226</title>
			<v:userDefs>
				<v:ud v:nameU="visVersion" v:val="VT0(15):26"/>
			</v:userDefs>
			<path d="M0 343.91 C-0 354.54 11.2 354.54 21.13 354.54 C40.74 354.54 55.42 354.54 83.22 354.54 C102.59 354.54 128.32
						 354.54 132.61 368.46 L132.66 368.82" class="st8"/>
		</g>
		<g id="shape227-42" v:mID="227" v:groupContext="shape" v:layerMember="0" transform="translate(354.449,-311.383)">
			<title>Dynamic connector.227</title>
			<v:userDefs>
				<v:ud v:nameU="visVersion" v:val="VT0(15):26"/>
			</v:userDefs>
			<path d="M0 343.91 C-0 354.54 -11.2 354.54 -21.13 354.54 C-40.74 354.54 -55.42 354.54 -83.22 354.54 C-102.59 354.54 -128.32
						 354.54 -132.61 368.46 L-132.66 368.82" class="st8"/>
		</g>
		<g id="shape228-47" v:mID="228" v:groupContext="shape" v:layerMember="0" transform="translate(228.307,-311.383)">
			<title>Dynamic connector.228</title>
			<v:userDefs>
				<v:ud v:nameU="visVersion" v:val="VT0(15):26"/>
			</v:userDefs>
			<path d="M-7.09 343.91 C-7.09 349.87 -7.09 360.74 -7.09 368.42" class="st10"/>
		</g>
		<g id="shape229-53" v:mID="229" v:groupContext="shape" v:layerMember="0" transform="translate(221.22,-259.827)">
			<title>Dynamic connector.229</title>
			<v:userDefs>
				<v:ud v:nameU="visVersion" v:val="VT0(15):26"/>
			</v:userDefs>
			<path d="M0 343.91 C-0 354.54 -13.42 354.54 -24.82 354.54 C-41.71 354.54 -54.16 354.54 -66.6 354.54 C-79.05 354.54 -91.48
						 354.54 -108.32 354.54 C-118.31 354.54 -129.85 354.54 -132.61 363.15 L-132.66 363.51" class="st8"/>
		</g>
		<g id="shape230-58" v:mID="230" v:groupContext="shape" v:layerMember="0" transform="translate(221.22,-259.827)">
			<title>Dynamic connector.230</title>
			<v:userDefs>
				<v:ud v:nameU="visVersion" v:val="VT0(15):26"/>
			</v:userDefs>
			<path d="M0 343.91 C-0 354.54 13.46 354.54 24.9 354.54 C41.83 354.54 54.32 354.54 66.8 354.54 C79.28 354.54 91.74 354.54
						 108.64 354.54 C118.65 354.54 130.22 354.54 133 363.15 L133.05 363.51" class="st8"/>
		</g>
		<g id="shape231-63" v:mID="231" v:groupContext="shape" v:layerMember="0" transform="translate(214.134,-259.827)">
			<title>Dynamic connector.231</title>
			<v:userDefs>
				<v:ud v:nameU="visVersion" v:val="VT0(15):26"/>
			</v:userDefs>
			<path d="M7.09 343.91 C7.09 348.56 7.09 356.91 7.09 363.1" class="st10"/>
		</g>
		<g id="shape233-68" v:mID="233" v:groupContext="shape" v:layerMember="0" transform="translate(18.5433,-224.926)">
			<title>Dynamic connector.233</title>
			<v:userDefs>
				<v:ud v:nameU="visVersion" v:val="VT0(15):26"/>
			</v:userDefs>
			<path d="M7.09 343.91 C-3.54 343.91 -3.54 357.59 -3.54 369.21 C-3.54 386.43 -3.54 399.13 -3.54 411.82 C-3.54 424.52 -3.54
						 437.21 -3.54 454.43 C-3.54 464.23 -3.54 475.49 2.83 478.78 L3.18 478.86" class="st11"/>
		</g>
		<g id="shape234-73" v:mID="234" v:groupContext="shape" transform="translate(158.858,-179.821)">
			<title>Rounded Rectangle.234</title>
			<desc>Make XY Event Layer</desc>
			<v:userDefs>
				<v:ud v:nameU="CTypeTopLeftSnip" v:prompt="" v:val="VT0(0):5"/>
				<v:ud v:nameU="CTypeTopRightSnip" v:prompt="" v:val="VT0(0):5"/>
				<v:ud v:nameU="CTypeBotLeftSnip" v:prompt="" v:val="VT0(0):5"/>
				<v:ud v:nameU="CTypeBotRightSnip" v:prompt="" v:val="VT0(0):5"/>
				<v:ud v:nameU="CornerLockHoriz" v:prompt="" v:val="VT0(1):5"/>
				<v:ud v:nameU="CornerLockVert" v:prompt="" v:val="VT0(1):5"/>
				<v:ud v:nameU="CornerLockDiag" v:prompt="" v:val="VT0(0):5"/>
				<v:ud v:nameU="TopLeftOffset" v:prompt="" v:val="VT0(0.15748031496063):24"/>
				<v:ud v:nameU="TopRightOffset" v:prompt="" v:val="VT0(0.15748031496063):24"/>
				<v:ud v:nameU="BotLeftOffset" v:prompt="" v:val="VT0(0.15748031496063):24"/>
				<v:ud v:nameU="BotRightOffset" v:prompt="" v:val="VT0(0.15748031496063):24"/>
				<v:ud v:nameU="visVersion" v:prompt="" v:val="VT0(15):26"/>
			</v:userDefs>
			<v:textBlock v:margins="rect(4,4,4,4)" v:tabSpace="42.5197"/>
			<v:textRect cx="62.3622" cy="332.568" width="124.73" height="22.6772"/>
			<path d="M11.34 343.91 L113.39 343.91 A11.3384 11.3384 -180 0 0 124.72 332.57 A11.3384 11.3384 -180 0 0 113.39 321.23
						 L11.34 321.23 A11.3384 11.3384 -180 0 0 0 332.57 A11.3384 11.3384 -180 0 0 11.34 343.91 Z" class="st4"/>
			<text x="21.24" y="335.27" class="st3" v:langID="1033"><v:paragraph v:horizAlign="1"/><v:tabList/>Make XY Event Layer</text>		</g>
		<g id="shape235-77" v:mID="235" v:groupContext="shape" v:layerMember="0" transform="translate(147.52,-183.978)">
			<title>Dynamic connector.235</title>
			<v:userDefs>
				<v:ud v:nameU="visVersion" v:val="VT0(15):26"/>
			</v:userDefs>
			<path d="M2.83 336.92 C4.16 336.92 4.6 336.92 4.94 336.92 C5.12 336.92 5.26 336.92 5.35 336.9 C5.49 336.88 5.49 336.81
						 5.61 336.78 C5.78 336.72 6.17 336.72 6.59 336.72 C6.72 336.72 6.84 336.72 6.97 336.72" class="st12"/>
		</g>
		<g id="shape237-82" v:mID="237" v:groupContext="shape" v:layerMember="0" transform="translate(214.134,-180.991)">
			<title>Dynamic connector.237</title>
			<v:userDefs>
				<v:ud v:nameU="visVersion" v:val="VT0(15):26"/>
			</v:userDefs>
			<path d="M7.09 345.08 C7.09 346.9 7.09 349.86 7.09 352.55" class="st12"/>
		</g>
		<g id="shape238-87" v:mID="238" v:groupContext="shape" transform="translate(158.858,-145.31)">
			<title>Rounded Rectangle.238</title>
			<desc>Puntos muestreo Event</desc>
			<v:userDefs>
				<v:ud v:nameU="CTypeTopLeftSnip" v:prompt="" v:val="VT0(0):5"/>
				<v:ud v:nameU="CTypeTopRightSnip" v:prompt="" v:val="VT0(0):5"/>
				<v:ud v:nameU="CTypeBotLeftSnip" v:prompt="" v:val="VT0(0):5"/>
				<v:ud v:nameU="CTypeBotRightSnip" v:prompt="" v:val="VT0(0):5"/>
				<v:ud v:nameU="CornerLockHoriz" v:prompt="" v:val="VT0(1):5"/>
				<v:ud v:nameU="CornerLockVert" v:prompt="" v:val="VT0(1):5"/>
				<v:ud v:nameU="CornerLockDiag" v:prompt="" v:val="VT0(0):5"/>
				<v:ud v:nameU="TopLeftOffset" v:prompt="" v:val="VT0(0.15748031496063):24"/>
				<v:ud v:nameU="TopRightOffset" v:prompt="" v:val="VT0(0.15748031496063):24"/>
				<v:ud v:nameU="BotLeftOffset" v:prompt="" v:val="VT0(0.15748031496063):24"/>
				<v:ud v:nameU="BotRightOffset" v:prompt="" v:val="VT0(0.15748031496063):24"/>
				<v:ud v:nameU="visVersion" v:prompt="" v:val="VT0(15):26"/>
			</v:userDefs>
			<v:textBlock v:margins="rect(4,4,4,4)" v:tabSpace="42.5197"/>
			<v:textRect cx="62.3622" cy="332.568" width="124.73" height="22.6772"/>
			<path d="M11.34 343.91 L113.39 343.91 A11.3384 11.3384 -180 0 0 124.72 332.57 A11.3384 11.3384 -180 0 0 113.39 321.23
						 L11.34 321.23 A11.3384 11.3384 -180 0 0 0 332.57 A11.3384 11.3384 -180 0 0 11.34 343.91 Z" class="st13"/>
			<text x="16.59" y="335.27" class="st3" v:langID="1033"><v:paragraph v:horizAlign="1"/><v:tabList/>Puntos muestreo Event</text>		</g>
		<g id="shape241-92" v:mID="241" v:groupContext="shape" transform="translate(25.6299,-145.674)">
			<title>Rounded Rectangle.241</title>
			<desc>Feature Class to Feature Class</desc>
			<v:userDefs>
				<v:ud v:nameU="CTypeTopLeftSnip" v:prompt="" v:val="VT0(0):5"/>
				<v:ud v:nameU="CTypeTopRightSnip" v:prompt="" v:val="VT0(0):5"/>
				<v:ud v:nameU="CTypeBotLeftSnip" v:prompt="" v:val="VT0(0):5"/>
				<v:ud v:nameU="CTypeBotRightSnip" v:prompt="" v:val="VT0(0):5"/>
				<v:ud v:nameU="CornerLockHoriz" v:prompt="" v:val="VT0(1):5"/>
				<v:ud v:nameU="CornerLockVert" v:prompt="" v:val="VT0(1):5"/>
				<v:ud v:nameU="CornerLockDiag" v:prompt="" v:val="VT0(0):5"/>
				<v:ud v:nameU="TopLeftOffset" v:prompt="" v:val="VT0(0.15748031496063):24"/>
				<v:ud v:nameU="TopRightOffset" v:prompt="" v:val="VT0(0.15748031496063):24"/>
				<v:ud v:nameU="BotLeftOffset" v:prompt="" v:val="VT0(0.15748031496063):24"/>
				<v:ud v:nameU="BotRightOffset" v:prompt="" v:val="VT0(0.15748031496063):24"/>
				<v:ud v:nameU="visVersion" v:prompt="" v:val="VT0(15):26"/>
			</v:userDefs>
			<v:textBlock v:margins="rect(4,4,4,4)" v:tabSpace="42.5197"/>
			<v:textRect cx="62.3622" cy="332.568" width="124.73" height="22.6772"/>
			<path d="M11.34 343.91 L113.39 343.91 A11.3384 11.3384 -180 0 0 124.72 332.57 A11.3384 11.3384 -180 0 0 113.39 321.23
						 L11.34 321.23 A11.3384 11.3384 -180 0 0 0 332.57 A11.3384 11.3384 -180 0 0 11.34 343.91 Z" class="st4"/>
			<text x="14.86" y="329.87" class="st3" v:langID="1033"><v:paragraph v:horizAlign="1"/><v:tabList/>Feature Class to Feature <tspan
						x="52.38" dy="1.2em" class="st15">Class</tspan></text>		</g>
		<g id="shape242-97" v:mID="242" v:groupContext="shape" transform="translate(158.858,-110.052)">
			<title>Rounded Rectangle.242</title>
			<desc>Delete</desc>
			<v:userDefs>
				<v:ud v:nameU="CTypeTopLeftSnip" v:prompt="" v:val="VT0(0):5"/>
				<v:ud v:nameU="CTypeTopRightSnip" v:prompt="" v:val="VT0(0):5"/>
				<v:ud v:nameU="CTypeBotLeftSnip" v:prompt="" v:val="VT0(0):5"/>
				<v:ud v:nameU="CTypeBotRightSnip" v:prompt="" v:val="VT0(0):5"/>
				<v:ud v:nameU="CornerLockHoriz" v:prompt="" v:val="VT0(1):5"/>
				<v:ud v:nameU="CornerLockVert" v:prompt="" v:val="VT0(1):5"/>
				<v:ud v:nameU="CornerLockDiag" v:prompt="" v:val="VT0(0):5"/>
				<v:ud v:nameU="TopLeftOffset" v:prompt="" v:val="VT0(0.15748031496063):24"/>
				<v:ud v:nameU="TopRightOffset" v:prompt="" v:val="VT0(0.15748031496063):24"/>
				<v:ud v:nameU="BotLeftOffset" v:prompt="" v:val="VT0(0.15748031496063):24"/>
				<v:ud v:nameU="BotRightOffset" v:prompt="" v:val="VT0(0.15748031496063):24"/>
				<v:ud v:nameU="visVersion" v:prompt="" v:val="VT0(15):26"/>
			</v:userDefs>
			<v:textBlock v:margins="rect(4,4,4,4)" v:tabSpace="42.5197"/>
			<v:textRect cx="62.3622" cy="332.568" width="124.73" height="22.6772"/>
			<path d="M11.34 343.91 L113.39 343.91 A11.3384 11.3384 -180 0 0 124.72 332.57 A11.3384 11.3384 -180 0 0 113.39 321.23
						 L11.34 321.23 A11.3384 11.3384 -180 0 0 0 332.57 A11.3384 11.3384 -180 0 0 11.34 343.91 Z" class="st4"/>
			<text x="49.53" y="335.27" class="st3" v:langID="1033"><v:paragraph v:horizAlign="1"/><v:tabList/>Delete</text>		</g>
		<g id="shape243-101" v:mID="243" v:groupContext="shape" v:layerMember="0" transform="translate(161.693,-149.744)">
			<title>Dynamic connector.243</title>
			<v:userDefs>
				<v:ud v:nameU="visVersion" v:val="VT0(15):26"/>
			</v:userDefs>
			<path d="M-2.83 337 C-4.16 337 -4.81 337 -5.14 336.95 C-5.49 336.89 -5.49 336.77 -5.67 336.7 C-5.85 336.64 -6.22 336.64
						 -6.63 336.64 C-6.74 336.64 -6.85 336.64 -6.97 336.64" class="st12"/>
		</g>
		<g id="shape245-106" v:mID="245" v:groupContext="shape" v:layerMember="0" transform="translate(276.496,-191.16)">
			<title>Dynamic connector.245</title>
			<v:userDefs>
				<v:ud v:nameU="visVersion" v:val="VT0(15):26"/>
			</v:userDefs>
			<path d="M7.09 343.91 C17.72 343.91 17.72 361.35 17.72 378.79 C17.72 393.54 17.72 408.29 11.29 412.49 L10.94 412.59"
					class="st11"/>
		</g>
		<g id="shape256-111" v:mID="256" v:groupContext="shape" transform="translate(25.6299,-111.717)">
			<title>Rounded Rectangle.256</title>
			<desc>Puntos muestreo Feature class</desc>
			<v:userDefs>
				<v:ud v:nameU="CTypeTopLeftSnip" v:prompt="" v:val="VT0(0):5"/>
				<v:ud v:nameU="CTypeTopRightSnip" v:prompt="" v:val="VT0(0):5"/>
				<v:ud v:nameU="CTypeBotLeftSnip" v:prompt="" v:val="VT0(0):5"/>
				<v:ud v:nameU="CTypeBotRightSnip" v:prompt="" v:val="VT0(0):5"/>
				<v:ud v:nameU="CornerLockHoriz" v:prompt="" v:val="VT0(1):5"/>
				<v:ud v:nameU="CornerLockVert" v:prompt="" v:val="VT0(1):5"/>
				<v:ud v:nameU="CornerLockDiag" v:prompt="" v:val="VT0(0):5"/>
				<v:ud v:nameU="TopLeftOffset" v:prompt="" v:val="VT0(0.15748031496063):24"/>
				<v:ud v:nameU="TopRightOffset" v:prompt="" v:val="VT0(0.15748031496063):24"/>
				<v:ud v:nameU="BotLeftOffset" v:prompt="" v:val="VT0(0.15748031496063):24"/>
				<v:ud v:nameU="BotRightOffset" v:prompt="" v:val="VT0(0.15748031496063):24"/>
				<v:ud v:nameU="visVersion" v:prompt="" v:val="VT0(15):26"/>
			</v:userDefs>
			<v:textBlock v:margins="rect(4,4,4,4)" v:tabSpace="42.5197"/>
			<v:textRect cx="62.3622" cy="332.568" width="124.73" height="22.6772"/>
			<path d="M11.34 343.91 L113.39 343.91 A11.3384 11.3384 -180 0 0 124.72 332.57 A11.3384 11.3384 -180 0 0 113.39 321.23
						 L11.34 321.23 A11.3384 11.3384 -180 0 0 0 332.57 A11.3384 11.3384 -180 0 0 11.34 343.91 Z" class="st13"/>
			<text x="28.68" y="329.87" class="st3" v:langID="1033"><v:paragraph v:horizAlign="1"/><v:tabList/>Puntos muestreo<v:newlineChar/><tspan
						x="37.02" dy="1.2em" class="st15">Feature class</tspan></text>		</g>
		<g id="shape257-116" v:mID="257" v:groupContext="shape" v:layerMember="0" transform="translate(80.9055,-147.121)">
			<title>Dynamic connector.257</title>
			<v:userDefs>
				<v:ud v:nameU="visVersion" v:val="VT0(15):26"/>
			</v:userDefs>
			<path d="M7.09 345.35 C7.09 347.05 7.09 349.76 7.09 352.27" class="st12"/>
		</g>
		<g id="shape258-121" v:mID="258" v:groupContext="shape" transform="translate(25.6299,-77.7605)">
			<title>Rounded Rectangle.258</title>
			<desc>Extract Multi Values to Points</desc>
			<v:userDefs>
				<v:ud v:nameU="CTypeTopLeftSnip" v:prompt="" v:val="VT0(0):5"/>
				<v:ud v:nameU="CTypeTopRightSnip" v:prompt="" v:val="VT0(0):5"/>
				<v:ud v:nameU="CTypeBotLeftSnip" v:prompt="" v:val="VT0(0):5"/>
				<v:ud v:nameU="CTypeBotRightSnip" v:prompt="" v:val="VT0(0):5"/>
				<v:ud v:nameU="CornerLockHoriz" v:prompt="" v:val="VT0(1):5"/>
				<v:ud v:nameU="CornerLockVert" v:prompt="" v:val="VT0(1):5"/>
				<v:ud v:nameU="CornerLockDiag" v:prompt="" v:val="VT0(0):5"/>
				<v:ud v:nameU="TopLeftOffset" v:prompt="" v:val="VT0(0.15748031496063):24"/>
				<v:ud v:nameU="TopRightOffset" v:prompt="" v:val="VT0(0.15748031496063):24"/>
				<v:ud v:nameU="BotLeftOffset" v:prompt="" v:val="VT0(0.15748031496063):24"/>
				<v:ud v:nameU="BotRightOffset" v:prompt="" v:val="VT0(0.15748031496063):24"/>
				<v:ud v:nameU="visVersion" v:prompt="" v:val="VT0(15):26"/>
			</v:userDefs>
			<v:textBlock v:margins="rect(4,4,4,4)" v:tabSpace="42.5197"/>
			<v:textRect cx="62.3622" cy="332.568" width="124.73" height="22.6772"/>
			<path d="M11.34 343.91 L113.39 343.91 A11.3384 11.3384 -180 0 0 124.72 332.57 A11.3384 11.3384 -180 0 0 113.39 321.23
						 L11.34 321.23 A11.3384 11.3384 -180 0 0 0 332.57 A11.3384 11.3384 -180 0 0 11.34 343.91 Z" class="st4"/>
			<text x="4.44" y="335.27" class="st3" v:langID="1033"><v:paragraph v:horizAlign="1"/><v:tabList/>Extract Multi Values to Points</text>		</g>
		<g id="shape260-125" v:mID="260" v:groupContext="shape" v:layerMember="0" transform="translate(80.9055,-113.164)">
			<title>Dynamic connector.260</title>
			<v:userDefs>
				<v:ud v:nameU="visVersion" v:val="VT0(15):26"/>
			</v:userDefs>
			<path d="M7.09 345.35 C7.09 347.05 7.09 349.76 7.09 352.27" class="st12"/>
		</g>
		<g id="shape261-130" v:mID="261" v:groupContext="shape" transform="translate(158.858,-77.4049)">
			<title>Rounded Rectangle.261</title>
			<desc>Puntos muestreo ASTERFac values</desc>
			<v:userDefs>
				<v:ud v:nameU="CTypeTopLeftSnip" v:prompt="" v:val="VT0(0):5"/>
				<v:ud v:nameU="CTypeTopRightSnip" v:prompt="" v:val="VT0(0):5"/>
				<v:ud v:nameU="CTypeBotLeftSnip" v:prompt="" v:val="VT0(0):5"/>
				<v:ud v:nameU="CTypeBotRightSnip" v:prompt="" v:val="VT0(0):5"/>
				<v:ud v:nameU="CornerLockHoriz" v:prompt="" v:val="VT0(1):5"/>
				<v:ud v:nameU="CornerLockVert" v:prompt="" v:val="VT0(1):5"/>
				<v:ud v:nameU="CornerLockDiag" v:prompt="" v:val="VT0(0):5"/>
				<v:ud v:nameU="TopLeftOffset" v:prompt="" v:val="VT0(0.15748031496063):24"/>
				<v:ud v:nameU="TopRightOffset" v:prompt="" v:val="VT0(0.15748031496063):24"/>
				<v:ud v:nameU="BotLeftOffset" v:prompt="" v:val="VT0(0.15748031496063):24"/>
				<v:ud v:nameU="BotRightOffset" v:prompt="" v:val="VT0(0.15748031496063):24"/>
				<v:ud v:nameU="visVersion" v:prompt="" v:val="VT0(15):26"/>
			</v:userDefs>
			<v:textBlock v:margins="rect(4,4,4,4)" v:tabSpace="42.5197"/>
			<v:textRect cx="62.3622" cy="332.568" width="124.73" height="22.6772"/>
			<path d="M11.34 343.91 L113.39 343.91 A11.3384 11.3384 -180 0 0 124.72 332.57 A11.3384 11.3384 -180 0 0 113.39 321.23
						 L11.34 321.23 A11.3384 11.3384 -180 0 0 0 332.57 A11.3384 11.3384 -180 0 0 11.34 343.91 Z" class="st13"/>
			<text x="28.68" y="329.87" class="st3" v:langID="1033"><v:paragraph v:horizAlign="1"/><v:tabList/>Puntos muestreo<v:newlineChar/><tspan
						x="29.6" dy="1.2em" class="st15">ASTERFac values</tspan></text>		</g>
		<g id="shape262-135" v:mID="262" v:groupContext="shape" transform="translate(158.858,-43.639)">
			<title>Rounded Rectangle.262</title>
			<desc>Add Field Akm²</desc>
			<v:userDefs>
				<v:ud v:nameU="CTypeTopLeftSnip" v:prompt="" v:val="VT0(0):5"/>
				<v:ud v:nameU="CTypeTopRightSnip" v:prompt="" v:val="VT0(0):5"/>
				<v:ud v:nameU="CTypeBotLeftSnip" v:prompt="" v:val="VT0(0):5"/>
				<v:ud v:nameU="CTypeBotRightSnip" v:prompt="" v:val="VT0(0):5"/>
				<v:ud v:nameU="CornerLockHoriz" v:prompt="" v:val="VT0(1):5"/>
				<v:ud v:nameU="CornerLockVert" v:prompt="" v:val="VT0(1):5"/>
				<v:ud v:nameU="CornerLockDiag" v:prompt="" v:val="VT0(0):5"/>
				<v:ud v:nameU="TopLeftOffset" v:prompt="" v:val="VT0(0.15748031496063):24"/>
				<v:ud v:nameU="TopRightOffset" v:prompt="" v:val="VT0(0.15748031496063):24"/>
				<v:ud v:nameU="BotLeftOffset" v:prompt="" v:val="VT0(0.15748031496063):24"/>
				<v:ud v:nameU="BotRightOffset" v:prompt="" v:val="VT0(0.15748031496063):24"/>
				<v:ud v:nameU="visVersion" v:prompt="" v:val="VT0(15):26"/>
			</v:userDefs>
			<v:textBlock v:margins="rect(4,4,4,4)" v:tabSpace="42.5197"/>
			<v:textRect cx="62.3622" cy="332.568" width="124.73" height="22.6772"/>
			<path d="M11.34 343.91 L113.39 343.91 A11.3384 11.3384 -180 0 0 124.72 332.57 A11.3384 11.3384 -180 0 0 113.39 321.23
						 L11.34 321.23 A11.3384 11.3384 -180 0 0 0 332.57 A11.3384 11.3384 -180 0 0 11.34 343.91 Z" class="st4"/>
			<text x="31.65" y="335.27" class="st3" v:langID="1033"><v:paragraph v:horizAlign="1"/><v:tabList/>Add Field Akm²</text>		</g>
		<g id="shape263-139" v:mID="263" v:groupContext="shape" v:layerMember="0" transform="translate(147.52,-96.0079)">
			<title>Dynamic connector.263</title>
			<v:userDefs>
				<v:ud v:nameU="visVersion" v:val="VT0(15):26"/>
			</v:userDefs>
			<path d="M2.83 350.82 C4.16 350.82 4.81 350.82 5.14 350.87 C5.49 350.93 5.49 351.05 5.67 351.11 C5.85 351.17 6.22 351.17
						 6.63 351.17 C6.74 351.17 6.85 351.17 6.97 351.17" class="st12"/>
		</g>
		<g id="shape264-144" v:mID="264" v:groupContext="shape" v:layerMember="0" transform="translate(214.134,-78.9472)">
			<title>Dynamic connector.264</title>
			<v:userDefs>
				<v:ud v:nameU="visVersion" v:val="VT0(15):26"/>
			</v:userDefs>
			<path d="M7.09 345.45 C7.09 347.1 7.09 349.73 7.09 352.17" class="st12"/>
		</g>
		<g id="shape265-149" v:mID="265" v:groupContext="shape" transform="translate(25.6299,-43.8038)">
			<title>Rounded Rectangle.265</title>
			<desc>Field Calculator Akm² = FAC * resolution</desc>
			<v:userDefs>
				<v:ud v:nameU="CTypeTopLeftSnip" v:prompt="" v:val="VT0(0):5"/>
				<v:ud v:nameU="CTypeTopRightSnip" v:prompt="" v:val="VT0(0):5"/>
				<v:ud v:nameU="CTypeBotLeftSnip" v:prompt="" v:val="VT0(0):5"/>
				<v:ud v:nameU="CTypeBotRightSnip" v:prompt="" v:val="VT0(0):5"/>
				<v:ud v:nameU="CornerLockHoriz" v:prompt="" v:val="VT0(1):5"/>
				<v:ud v:nameU="CornerLockVert" v:prompt="" v:val="VT0(1):5"/>
				<v:ud v:nameU="CornerLockDiag" v:prompt="" v:val="VT0(0):5"/>
				<v:ud v:nameU="TopLeftOffset" v:prompt="" v:val="VT0(0.15748031496063):24"/>
				<v:ud v:nameU="TopRightOffset" v:prompt="" v:val="VT0(0.15748031496063):24"/>
				<v:ud v:nameU="BotLeftOffset" v:prompt="" v:val="VT0(0.15748031496063):24"/>
				<v:ud v:nameU="BotRightOffset" v:prompt="" v:val="VT0(0.15748031496063):24"/>
				<v:ud v:nameU="visVersion" v:prompt="" v:val="VT0(15):26"/>
			</v:userDefs>
			<v:textBlock v:margins="rect(4,4,4,4)" v:tabSpace="42.5197"/>
			<v:textRect cx="62.3622" cy="332.568" width="124.73" height="22.6772"/>
			<path d="M11.34 343.91 L113.39 343.91 A11.3384 11.3384 -180 0 0 124.72 332.57 A11.3384 11.3384 -180 0 0 113.39 321.23
						 L11.34 321.23 A11.3384 11.3384 -180 0 0 0 332.57 A11.3384 11.3384 -180 0 0 11.34 343.91 Z" class="st4"/>
			<text x="31.85" y="329.87" class="st3" v:langID="1033"><v:paragraph v:horizAlign="1"/><v:tabList/>Field Calculator<v:newlineChar/><tspan
						x="14.03" dy="1.2em" class="st15">Akm</tspan>² = FAC * resolution</text>		</g>
		<g id="shape266-154" v:mID="266" v:groupContext="shape" transform="translate(25.6299,-9.84707)">
			<title>Rounded Rectangle.266</title>
			<desc>Puntos muestreo Atributos extendidos</desc>
			<v:userDefs>
				<v:ud v:nameU="CTypeTopLeftSnip" v:prompt="" v:val="VT0(0):5"/>
				<v:ud v:nameU="CTypeTopRightSnip" v:prompt="" v:val="VT0(0):5"/>
				<v:ud v:nameU="CTypeBotLeftSnip" v:prompt="" v:val="VT0(0):5"/>
				<v:ud v:nameU="CTypeBotRightSnip" v:prompt="" v:val="VT0(0):5"/>
				<v:ud v:nameU="CornerLockHoriz" v:prompt="" v:val="VT0(1):5"/>
				<v:ud v:nameU="CornerLockVert" v:prompt="" v:val="VT0(1):5"/>
				<v:ud v:nameU="CornerLockDiag" v:prompt="" v:val="VT0(0):5"/>
				<v:ud v:nameU="TopLeftOffset" v:prompt="" v:val="VT0(0.15748031496063):24"/>
				<v:ud v:nameU="TopRightOffset" v:prompt="" v:val="VT0(0.15748031496063):24"/>
				<v:ud v:nameU="BotLeftOffset" v:prompt="" v:val="VT0(0.15748031496063):24"/>
				<v:ud v:nameU="BotRightOffset" v:prompt="" v:val="VT0(0.15748031496063):24"/>
				<v:ud v:nameU="visVersion" v:prompt="" v:val="VT0(15):26"/>
			</v:userDefs>
			<v:textBlock v:margins="rect(4,4,4,4)" v:tabSpace="42.5197"/>
			<v:textRect cx="62.3622" cy="332.568" width="124.73" height="22.6772"/>
			<path d="M11.34 343.91 L113.39 343.91 A11.3384 11.3384 -180 0 0 124.72 332.57 A11.3384 11.3384 -180 0 0 113.39 321.23
						 L11.34 321.23 A11.3384 11.3384 -180 0 0 0 332.57 A11.3384 11.3384 -180 0 0 11.34 343.91 Z" class="st13"/>
			<text x="28.68" y="329.87" class="st3" v:langID="1033"><v:paragraph v:horizAlign="1"/><v:tabList/>Puntos muestreo<v:newlineChar/><tspan
						x="21.01" dy="1.2em" class="st15">Atributos extendidos</tspan></text>		</g>
		<g id="shape267-159" v:mID="267" v:groupContext="shape" v:layerMember="0" transform="translate(161.693,-47.9734)">
			<title>Dynamic connector.267</title>
			<v:userDefs>
				<v:ud v:nameU="visVersion" v:val="VT0(15):26"/>
			</v:userDefs>
			<path d="M-2.83 336.9 C-4.16 336.9 -4.61 336.9 -4.94 336.9 C-5.12 336.9 -5.26 336.9 -5.35 336.89 C-5.49 336.87 -5.49
						 336.81 -5.61 336.78 C-5.78 336.74 -6.17 336.74 -6.59 336.74 C-6.72 336.74 -6.84 336.74 -6.97 336.74"
					class="st12"/>
		</g>
		<g id="shape268-164" v:mID="268" v:groupContext="shape" v:layerMember="0" transform="translate(80.9055,-45.2506)">
			<title>Dynamic connector.268</title>
			<v:userDefs>
				<v:ud v:nameU="visVersion" v:val="VT0(15):26"/>
			</v:userDefs>
			<path d="M7.09 345.35 C7.09 347.05 7.09 349.76 7.09 352.27" class="st12"/>
		</g>
	</g>
</svg>
