<?xml version="1.0" encoding="UTF-8" standalone="no"?>
<!DOCTYPE svg PUBLIC "-//W3C//DTD SVG 1.1//EN" "http://www.w3.org/Graphics/SVG/1.1/DTD/svg11.dtd">
<!-- Generated by Microsoft Visio, SVG Export FlowPoint.svg Page-1 -->
<svg xmlns="http://www.w3.org/2000/svg" xmlns:xlink="http://www.w3.org/1999/xlink" xmlns:ev="http://www.w3.org/2001/xml-events"
		xmlns:v="http://schemas.microsoft.com/visio/2003/SVGExtensions/" width="3.81684in" height="4.62174in"
		viewBox="0 0 274.812 332.765" xml:space="preserve" color-interpolation-filters="sRGB" class="st15">
	<v:documentProperties v:langID="1033" v:metric="true" v:viewMarkup="false"/>

	<style type="text/css">
	<![CDATA[
		.st1 {fill:#f2f2f2;stroke:none;stroke-width:1.5}
		.st2 {fill:#fbbc0e;fill-opacity:1;stroke:#fbbc0e;stroke-opacity:1;stroke-width:0.37313432835821}
		.st3 {fill:#000000;font-family:Segoe UI;font-size:0.75em}
		.st4 {marker-end:url(#mrkr6-15);stroke:#7f7f7f;stroke-linecap:round;stroke-linejoin:round;stroke-width:0.5}
		.st5 {fill:#7f7f7f;fill-opacity:1;stroke:#7f7f7f;stroke-opacity:1;stroke-width:0.25773195876289}
		.st6 {fill:#f2f2f2;stroke:#ea4d35;stroke-width:1.5}
		.st7 {fill:#ea4d35;fill-opacity:1;stroke:#ea4d35;stroke-opacity:1;stroke-width:0.37313432835821}
		.st8 {font-size:1em}
		.st9 {fill:#f2f2f2;stroke:#3ea853;stroke-width:1.5}
		.st10 {fill:#3ea853;fill-opacity:1;stroke:#3ea853;stroke-opacity:1;stroke-width:0.37313432835821}
		.st11 {fill:#f2f2f2;stroke:#4c85f4;stroke-width:1.5}
		.st12 {fill:#4c85f4;fill-opacity:1;stroke:#4c85f4;stroke-opacity:1;stroke-width:0.37313432835821}
		.st13 {marker-end:url(#mrkr6-43);stroke:#7f7f7f;stroke-linecap:round;stroke-linejoin:round;stroke-width:0.5}
		.st14 {fill:#f2f2f2;stroke:#ea4d35;stroke-dasharray:0.01,4.5;stroke-width:1.5}
		.st15 {fill:none;fill-rule:evenodd;font-size:12px;overflow:visible;stroke-linecap:square;stroke-miterlimit:3}
	]]>
	</style>

	<defs id="Markers">
		<g id="lend6">
			<path d="M 2 1 L 0 0 L 2.01237 -1.00641 C 2.32921 -0.372876 2.32921 0.372869 2.01238 1.0064 " style="stroke:none"/>
		</g>
		<marker id="mrkr6-4" class="st2" v:arrowType="6" v:arrowSize="2" v:setback="6.03" refX="6.03" orient="auto"
				markerUnits="strokeWidth" overflow="visible">
			<use xlink:href="#lend6" transform="scale(2.68) "/>
		</marker>
		<marker id="mrkr6-15" class="st5" v:arrowType="6" v:arrowSize="0" v:setback="8.01" refX="-8.01" orient="auto"
				markerUnits="strokeWidth" overflow="visible">
			<use xlink:href="#lend6" transform="scale(-3.88,-3.88) "/>
		</marker>
		<marker id="mrkr6-19" class="st7" v:arrowType="6" v:arrowSize="2" v:setback="6.03" refX="6.03" orient="auto"
				markerUnits="strokeWidth" overflow="visible">
			<use xlink:href="#lend6" transform="scale(2.68) "/>
		</marker>
		<marker id="mrkr6-30" class="st10" v:arrowType="6" v:arrowSize="2" v:setback="6.03" refX="6.03" orient="auto"
				markerUnits="strokeWidth" overflow="visible">
			<use xlink:href="#lend6" transform="scale(2.68) "/>
		</marker>
		<marker id="mrkr6-35" class="st12" v:arrowType="6" v:arrowSize="2" v:setback="6.03" refX="6.03" orient="auto"
				markerUnits="strokeWidth" overflow="visible">
			<use xlink:href="#lend6" transform="scale(2.68) "/>
		</marker>
		<marker id="mrkr6-43" class="st5" v:arrowType="6" v:arrowSize="0" v:setback="8.73" refX="-8.73" orient="auto"
				markerUnits="strokeWidth" overflow="visible">
			<use xlink:href="#lend6" transform="scale(-3.88,-3.88) "/>
		</marker>
	</defs>
	<g v:mID="0" v:index="1" v:groupContext="foregroundPage">
		<title>Page-1</title>
		<v:pageProperties v:drawingScale="0.0393701" v:pageScale="0.0393701" v:drawingUnits="24" v:shadowOffsetX="8.50394"
				v:shadowOffsetY="-8.50394"/>
		<v:layer v:name="Connector" v:index="0"/>
		<g id="shape577-1" v:mID="577" v:groupContext="shape" transform="translate(82.6197,-300.241)">
			<title>Rounded Rectangle.577</title>
			<desc>Start</desc>
			<v:userDefs>
				<v:ud v:nameU="CTypeTopLeftSnip" v:prompt="" v:val="VT0(0):5"/>
				<v:ud v:nameU="CTypeTopRightSnip" v:prompt="" v:val="VT0(0):5"/>
				<v:ud v:nameU="CTypeBotLeftSnip" v:prompt="" v:val="VT0(0):5"/>
				<v:ud v:nameU="CTypeBotRightSnip" v:prompt="" v:val="VT0(0):5"/>
				<v:ud v:nameU="CornerLockHoriz" v:prompt="" v:val="VT0(1):5"/>
				<v:ud v:nameU="CornerLockVert" v:prompt="" v:val="VT0(1):5"/>
				<v:ud v:nameU="CornerLockDiag" v:prompt="" v:val="VT0(0):5"/>
				<v:ud v:nameU="TopLeftOffset" v:prompt="" v:val="VT0(0.15748031496063):24"/>
				<v:ud v:nameU="TopRightOffset" v:prompt="" v:val="VT0(0.15748031496063):24"/>
				<v:ud v:nameU="BotLeftOffset" v:prompt="" v:val="VT0(0.15748031496063):24"/>
				<v:ud v:nameU="BotRightOffset" v:prompt="" v:val="VT0(0.15748031496063):24"/>
				<v:ud v:nameU="visVersion" v:prompt="" v:val="VT0(15):26"/>
			</v:userDefs>
			<v:textBlock v:margins="rect(4,4,4,4)" v:tabSpace="42.5197"/>
			<v:textRect cx="56.6929" cy="321.426" width="113.39" height="22.6772"/>
			<path d="M11.34 332.76 L102.05 332.76 A11.3384 11.3384 -180 0 0 113.39 321.43 A11.3384 11.3384 -180 0 0 102.05 310.09
						 L11.34 310.09 A11.3384 11.3384 -180 0 0 0 321.43 A11.3384 11.3384 -180 0 0 11.34 332.76 Z" class="st1"/>
			<text x="47.4" y="324.13" class="st3" v:langID="1033"><v:paragraph v:horizAlign="1"/><v:tabList/>Start</text>		</g>
		<g id="shape742-6" v:mID="742" v:groupContext="shape" transform="translate(80.7132,-9.84707)">
			<title>Rounded Rectangle.742</title>
			<desc>End</desc>
			<v:userDefs>
				<v:ud v:nameU="CTypeTopLeftSnip" v:prompt="" v:val="VT0(0):5"/>
				<v:ud v:nameU="CTypeTopRightSnip" v:prompt="" v:val="VT0(0):5"/>
				<v:ud v:nameU="CTypeBotLeftSnip" v:prompt="" v:val="VT0(0):5"/>
				<v:ud v:nameU="CTypeBotRightSnip" v:prompt="" v:val="VT0(0):5"/>
				<v:ud v:nameU="CornerLockHoriz" v:prompt="" v:val="VT0(1):5"/>
				<v:ud v:nameU="CornerLockVert" v:prompt="" v:val="VT0(1):5"/>
				<v:ud v:nameU="CornerLockDiag" v:prompt="" v:val="VT0(0):5"/>
				<v:ud v:nameU="TopLeftOffset" v:prompt="" v:val="VT0(0.15748031496063):24"/>
				<v:ud v:nameU="TopRightOffset" v:prompt="" v:val="VT0(0.15748031496063):24"/>
				<v:ud v:nameU="BotLeftOffset" v:prompt="" v:val="VT0(0.15748031496063):24"/>
				<v:ud v:nameU="BotRightOffset" v:prompt="" v:val="VT0(0.15748031496063):24"/>
				<v:ud v:nameU="visVersion" v:prompt="" v:val="VT0(15):26"/>
			</v:userDefs>
			<v:textBlock v:margins="rect(4,4,4,4)" v:tabSpace="42.5197"/>
			<v:textRect cx="56.6929" cy="321.426" width="113.39" height="22.6772"/>
			<path d="M11.34 332.76 L102.05 332.76 A11.3384 11.3384 -180 0 0 113.39 321.43 A11.3384 11.3384 -180 0 0 102.05 310.09
						 L11.34 310.09 A11.3384 11.3384 -180 0 0 0 321.43 A11.3384 11.3384 -180 0 0 11.34 332.76 Z" class="st1"/>
			<text x="49.22" y="324.13" class="st3" v:langID="1033"><v:paragraph v:horizAlign="1"/><v:tabList/>End</text>		</g>
		<g id="shape997-10" v:mID="997" v:groupContext="shape" v:layerMember="0" transform="translate(139.313,-300.241)">
			<title>Dynamic connector.997</title>
			<v:userDefs>
				<v:ud v:nameU="visVersion" v:val="VT0(15):26"/>
			</v:userDefs>
			<path d="M0 332.76 C0 338.08 -5.26 338.08 -9.92 338.08 C-19.11 338.08 -25.97 338.08 -38.96 338.08 C-47.29 338.08 -58.13
						 338.08 -61.47 344.03 L-61.55 344.38" class="st4"/>
		</g>
		<g id="shape1035-16" v:mID="1035" v:groupContext="shape" transform="translate(82.6197,-223.863)">
			<title>Rounded Rectangle.1035</title>
			<desc>Export to GDB Feature Class</desc>
			<v:userDefs>
				<v:ud v:nameU="CTypeTopLeftSnip" v:prompt="" v:val="VT0(0):5"/>
				<v:ud v:nameU="CTypeTopRightSnip" v:prompt="" v:val="VT0(0):5"/>
				<v:ud v:nameU="CTypeBotLeftSnip" v:prompt="" v:val="VT0(0):5"/>
				<v:ud v:nameU="CTypeBotRightSnip" v:prompt="" v:val="VT0(0):5"/>
				<v:ud v:nameU="CornerLockHoriz" v:prompt="" v:val="VT0(1):5"/>
				<v:ud v:nameU="CornerLockVert" v:prompt="" v:val="VT0(1):5"/>
				<v:ud v:nameU="CornerLockDiag" v:prompt="" v:val="VT0(0):5"/>
				<v:ud v:nameU="TopLeftOffset" v:prompt="" v:val="VT0(0.15748031496063):24"/>
				<v:ud v:nameU="TopRightOffset" v:prompt="" v:val="VT0(0.15748031496063):24"/>
				<v:ud v:nameU="BotLeftOffset" v:prompt="" v:val="VT0(0.15748031496063):24"/>
				<v:ud v:nameU="BotRightOffset" v:prompt="" v:val="VT0(0.15748031496063):24"/>
				<v:ud v:nameU="visVersion" v:prompt="" v:val="VT0(15):26"/>
				<v:ud v:nameU="TopLeftOffset" v:prompt="" v:val="VT0(0.15748031969087):24"/>
				<v:ud v:nameU="TopRightOffset" v:prompt="" v:val="VT0(0.15748031969087):24"/>
				<v:ud v:nameU="BotLeftOffset" v:prompt="" v:val="VT0(0.15748031969087):24"/>
				<v:ud v:nameU="BotRightOffset" v:prompt="" v:val="VT0(0.15748031969087):24"/>
			</v:userDefs>
			<v:textBlock v:margins="rect(4,4,4,4)" v:tabSpace="42.5197"/>
			<v:textRect cx="56.6929" cy="321.426" width="113.39" height="22.6772"/>
			<path d="M11.34 332.76 L102.05 332.76 A11.3384 11.3384 -180 0 0 113.39 321.43 A11.3384 11.3384 -180 0 0 102.05 310.09
						 L11.34 310.09 A11.3384 11.3384 -180 0 0 -0 321.43 A11.3384 11.3384 -180 0 0 11.34 332.76 Z" class="st6"/>
			<text x="28.53" y="318.73" class="st3" v:langID="1033"><v:paragraph v:horizAlign="1"/><v:tabList/>Export to GDB<v:newlineChar/><tspan
						x="30.65" dy="1.2em" class="st8">Feature Class</tspan></text>		</g>
		<g id="shape1042-22" v:mID="1042" v:groupContext="shape" v:layerMember="0" transform="translate(139.313,-118.154)">
			<title>Dynamic connector.1042</title>
			<v:userDefs>
				<v:ud v:nameU="visVersion" v:val="VT0(15):26"/>
			</v:userDefs>
			<path d="M0 332.76 C-0 338.08 -6.11 338.08 -11.53 338.08 C-22.25 338.08 -30.28 338.08 -45.48 338.08 C-55.02 338.08 -67.38
						 338.08 -71.43 343.38 L-71.54 343.72" class="st4"/>
		</g>
		<g id="shape1071-27" v:mID="1071" v:groupContext="shape" transform="translate(20.1296,-262.052)">
			<title>Rounded Rectangle.1071</title>
			<desc>LTWB flow grids</desc>
			<v:userDefs>
				<v:ud v:nameU="CTypeTopLeftSnip" v:prompt="" v:val="VT0(0):5"/>
				<v:ud v:nameU="CTypeTopRightSnip" v:prompt="" v:val="VT0(0):5"/>
				<v:ud v:nameU="CTypeBotLeftSnip" v:prompt="" v:val="VT0(0):5"/>
				<v:ud v:nameU="CTypeBotRightSnip" v:prompt="" v:val="VT0(0):5"/>
				<v:ud v:nameU="CornerLockHoriz" v:prompt="" v:val="VT0(1):5"/>
				<v:ud v:nameU="CornerLockVert" v:prompt="" v:val="VT0(1):5"/>
				<v:ud v:nameU="CornerLockDiag" v:prompt="" v:val="VT0(0):5"/>
				<v:ud v:nameU="TopLeftOffset" v:prompt="" v:val="VT0(0.15748031496063):24"/>
				<v:ud v:nameU="TopRightOffset" v:prompt="" v:val="VT0(0.15748031496063):24"/>
				<v:ud v:nameU="BotLeftOffset" v:prompt="" v:val="VT0(0.15748031496063):24"/>
				<v:ud v:nameU="BotRightOffset" v:prompt="" v:val="VT0(0.15748031496063):24"/>
				<v:ud v:nameU="visVersion" v:prompt="" v:val="VT0(15):26"/>
			</v:userDefs>
			<v:textBlock v:margins="rect(4,4,4,4)" v:tabSpace="42.5197"/>
			<v:textRect cx="56.6929" cy="321.426" width="113.39" height="22.6772"/>
			<path d="M11.34 332.76 L102.05 332.76 A11.3384 11.3384 -180 0 0 113.39 321.43 A11.3384 11.3384 -180 0 0 102.05 310.09
						 L11.34 310.09 A11.3384 11.3384 -180 0 0 0 321.43 A11.3384 11.3384 -180 0 0 11.34 332.76 Z" class="st9"/>
			<text x="24.72" y="324.13" class="st3" v:langID="1033"><v:paragraph v:horizAlign="1"/><v:tabList/>LTWB flow grids</text>		</g>
		<g id="shape1072-32" v:mID="1072" v:groupContext="shape" transform="translate(82.6197,-118.154)">
			<title>Rounded Rectangle.1072</title>
			<desc>GDB drainage nodes with flow values</desc>
			<v:userDefs>
				<v:ud v:nameU="CTypeTopLeftSnip" v:prompt="" v:val="VT0(0):5"/>
				<v:ud v:nameU="CTypeTopRightSnip" v:prompt="" v:val="VT0(0):5"/>
				<v:ud v:nameU="CTypeBotLeftSnip" v:prompt="" v:val="VT0(0):5"/>
				<v:ud v:nameU="CTypeBotRightSnip" v:prompt="" v:val="VT0(0):5"/>
				<v:ud v:nameU="CornerLockHoriz" v:prompt="" v:val="VT0(1):5"/>
				<v:ud v:nameU="CornerLockVert" v:prompt="" v:val="VT0(1):5"/>
				<v:ud v:nameU="CornerLockDiag" v:prompt="" v:val="VT0(0):5"/>
				<v:ud v:nameU="TopLeftOffset" v:prompt="" v:val="VT0(0.15748031496063):24"/>
				<v:ud v:nameU="TopRightOffset" v:prompt="" v:val="VT0(0.15748031496063):24"/>
				<v:ud v:nameU="BotLeftOffset" v:prompt="" v:val="VT0(0.15748031496063):24"/>
				<v:ud v:nameU="BotRightOffset" v:prompt="" v:val="VT0(0.15748031496063):24"/>
				<v:ud v:nameU="visVersion" v:prompt="" v:val="VT0(15):26"/>
			</v:userDefs>
			<v:textBlock v:margins="rect(4,4,4,4)" v:tabSpace="42.5197"/>
			<v:textRect cx="56.6929" cy="321.426" width="113.39" height="22.6772"/>
			<path d="M11.34 332.76 L102.05 332.76 A11.3384 11.3384 -180 0 0 113.39 321.43 A11.3384 11.3384 -180 0 0 102.05 310.09
						 L11.34 310.09 A11.3384 11.3384 -180 0 0 0 321.43 A11.3384 11.3384 -180 0 0 11.34 332.76 Z" class="st11"/>
			<text x="15.88" y="318.73" class="st3" v:langID="1033"><v:paragraph v:horizAlign="1"/><v:tabList/>GDB drainage nodes<v:newlineChar/><tspan
						x="25.08" dy="1.2em" class="st8">with flow values</tspan></text>		</g>
		<g id="shape1074-38" v:mID="1074" v:groupContext="shape" v:layerMember="0" transform="translate(132.226,-224.945)">
			<title>Dynamic connector.1074</title>
			<v:userDefs>
				<v:ud v:nameU="visVersion" v:val="VT0(15):26"/>
			</v:userDefs>
			<path d="M7.09 333.85 C7.09 335.72 7.09 338.74 7.09 341.49" class="st13"/>
		</g>
		<g id="shape1075-44" v:mID="1075" v:groupContext="shape" transform="translate(144.493,-262.052)">
			<title>Rounded Rectangle.1075</title>
			<desc>Drainage nodes</desc>
			<v:userDefs>
				<v:ud v:nameU="CTypeTopLeftSnip" v:prompt="" v:val="VT0(0):5"/>
				<v:ud v:nameU="CTypeTopRightSnip" v:prompt="" v:val="VT0(0):5"/>
				<v:ud v:nameU="CTypeBotLeftSnip" v:prompt="" v:val="VT0(0):5"/>
				<v:ud v:nameU="CTypeBotRightSnip" v:prompt="" v:val="VT0(0):5"/>
				<v:ud v:nameU="CornerLockHoriz" v:prompt="" v:val="VT0(1):5"/>
				<v:ud v:nameU="CornerLockVert" v:prompt="" v:val="VT0(1):5"/>
				<v:ud v:nameU="CornerLockDiag" v:prompt="" v:val="VT0(0):5"/>
				<v:ud v:nameU="TopLeftOffset" v:prompt="" v:val="VT0(0.15748031496063):24"/>
				<v:ud v:nameU="TopRightOffset" v:prompt="" v:val="VT0(0.15748031496063):24"/>
				<v:ud v:nameU="BotLeftOffset" v:prompt="" v:val="VT0(0.15748031496063):24"/>
				<v:ud v:nameU="BotRightOffset" v:prompt="" v:val="VT0(0.15748031496063):24"/>
				<v:ud v:nameU="visVersion" v:prompt="" v:val="VT0(15):26"/>
			</v:userDefs>
			<v:textBlock v:margins="rect(4,4,4,4)" v:tabSpace="42.5197"/>
			<v:textRect cx="56.6929" cy="321.426" width="113.39" height="22.6772"/>
			<path d="M11.34 332.76 L102.05 332.76 A11.3384 11.3384 -180 0 0 113.39 321.43 A11.3384 11.3384 -180 0 0 102.05 310.09
						 L11.34 310.09 A11.3384 11.3384 -180 0 0 0 321.43 A11.3384 11.3384 -180 0 0 11.34 332.76 Z" class="st11"/>
			<text x="25.43" y="324.13" class="st3" v:langID="1033"><v:paragraph v:horizAlign="1"/><v:tabList/>Drainage nodes</text>		</g>
		<g id="shape1076-48" v:mID="1076" v:groupContext="shape" v:layerMember="0" transform="translate(139.313,-300.241)">
			<title>Dynamic connector.1076</title>
			<v:userDefs>
				<v:ud v:nameU="visVersion" v:val="VT0(15):26"/>
			</v:userDefs>
			<path d="M0 332.76 C0 338.08 5.21 338.08 9.82 338.08 C18.92 338.08 25.72 338.08 38.57 338.08 C46.81 338.08 57.55 338.08
						 60.86 344.03 L60.94 344.38" class="st4"/>
		</g>
		<g id="shape1077-53" v:mID="1077" v:groupContext="shape" v:layerMember="0" transform="translate(201.186,-262.052)">
			<title>Dynamic connector.1077</title>
			<v:userDefs>
				<v:ud v:nameU="visVersion" v:val="VT0(15):26"/>
			</v:userDefs>
			<path d="M0 332.76 C-0 338.08 -5.21 338.08 -9.82 338.08 C-18.92 338.08 -25.72 338.08 -38.57 338.08 C-46.81 338.08 -57.55
						 338.08 -60.86 344.03 L-60.94 344.38" class="st4"/>
		</g>
		<g id="shape1134-58" v:mID="1134" v:groupContext="shape" transform="translate(82.6197,-153.666)">
			<title>Rounded Rectangle.1134</title>
			<desc>Extract Multi Values to Points</desc>
			<v:userDefs>
				<v:ud v:nameU="CTypeTopLeftSnip" v:prompt="" v:val="VT0(0):5"/>
				<v:ud v:nameU="CTypeTopRightSnip" v:prompt="" v:val="VT0(0):5"/>
				<v:ud v:nameU="CTypeBotLeftSnip" v:prompt="" v:val="VT0(0):5"/>
				<v:ud v:nameU="CTypeBotRightSnip" v:prompt="" v:val="VT0(0):5"/>
				<v:ud v:nameU="CornerLockHoriz" v:prompt="" v:val="VT0(1):5"/>
				<v:ud v:nameU="CornerLockVert" v:prompt="" v:val="VT0(1):5"/>
				<v:ud v:nameU="CornerLockDiag" v:prompt="" v:val="VT0(0):5"/>
				<v:ud v:nameU="TopLeftOffset" v:prompt="" v:val="VT0(0.15748031496063):24"/>
				<v:ud v:nameU="TopRightOffset" v:prompt="" v:val="VT0(0.15748031496063):24"/>
				<v:ud v:nameU="BotLeftOffset" v:prompt="" v:val="VT0(0.15748031496063):24"/>
				<v:ud v:nameU="BotRightOffset" v:prompt="" v:val="VT0(0.15748031496063):24"/>
				<v:ud v:nameU="visVersion" v:prompt="" v:val="VT0(15):26"/>
				<v:ud v:nameU="TopLeftOffset" v:prompt="" v:val="VT0(0.15748031969087):24"/>
				<v:ud v:nameU="TopRightOffset" v:prompt="" v:val="VT0(0.15748031969087):24"/>
				<v:ud v:nameU="BotLeftOffset" v:prompt="" v:val="VT0(0.15748031969087):24"/>
				<v:ud v:nameU="BotRightOffset" v:prompt="" v:val="VT0(0.15748031969087):24"/>
			</v:userDefs>
			<v:textBlock v:margins="rect(4,4,4,4)" v:tabSpace="42.5197"/>
			<v:textRect cx="56.6929" cy="321.426" width="113.39" height="22.6772"/>
			<path d="M11.34 332.76 L102.05 332.76 A11.3384 11.3384 -180 0 0 113.39 321.43 A11.3384 11.3384 -180 0 0 102.05 310.09
						 L11.34 310.09 A11.3384 11.3384 -180 0 0 -0 321.43 A11.3384 11.3384 -180 0 0 11.34 332.76 Z" class="st6"/>
			<text x="31.84" y="318.73" class="st3" v:langID="1033"><v:paragraph v:horizAlign="1"/><v:tabList/>Extract Multi <v:newlineChar/><tspan
						x="24.85" dy="1.2em" class="st8">Values to Points</tspan></text>		</g>
		<g id="shape1136-63" v:mID="1136" v:groupContext="shape" transform="translate(82.6197,-189.178)">
			<title>Rounded Rectangle.1136</title>
			<desc>GDB drainage nodes</desc>
			<v:userDefs>
				<v:ud v:nameU="CTypeTopLeftSnip" v:prompt="" v:val="VT0(0):5"/>
				<v:ud v:nameU="CTypeTopRightSnip" v:prompt="" v:val="VT0(0):5"/>
				<v:ud v:nameU="CTypeBotLeftSnip" v:prompt="" v:val="VT0(0):5"/>
				<v:ud v:nameU="CTypeBotRightSnip" v:prompt="" v:val="VT0(0):5"/>
				<v:ud v:nameU="CornerLockHoriz" v:prompt="" v:val="VT0(1):5"/>
				<v:ud v:nameU="CornerLockVert" v:prompt="" v:val="VT0(1):5"/>
				<v:ud v:nameU="CornerLockDiag" v:prompt="" v:val="VT0(0):5"/>
				<v:ud v:nameU="TopLeftOffset" v:prompt="" v:val="VT0(0.15748031496063):24"/>
				<v:ud v:nameU="TopRightOffset" v:prompt="" v:val="VT0(0.15748031496063):24"/>
				<v:ud v:nameU="BotLeftOffset" v:prompt="" v:val="VT0(0.15748031496063):24"/>
				<v:ud v:nameU="BotRightOffset" v:prompt="" v:val="VT0(0.15748031496063):24"/>
				<v:ud v:nameU="visVersion" v:prompt="" v:val="VT0(15):26"/>
			</v:userDefs>
			<v:textBlock v:margins="rect(4,4,4,4)" v:tabSpace="42.5197"/>
			<v:textRect cx="56.6929" cy="321.426" width="113.39" height="22.6772"/>
			<path d="M11.34 332.76 L102.05 332.76 A11.3384 11.3384 -180 0 0 113.39 321.43 A11.3384 11.3384 -180 0 0 102.05 310.09
						 L11.34 310.09 A11.3384 11.3384 -180 0 0 0 321.43 A11.3384 11.3384 -180 0 0 11.34 332.76 Z" class="st11"/>
			<text x="15.88" y="324.13" class="st3" v:langID="1033"><v:paragraph v:horizAlign="1"/><v:tabList/>GDB drainage nodes</text>		</g>
		<g id="shape1137-67" v:mID="1137" v:groupContext="shape" v:layerMember="0" transform="translate(132.226,-189.847)">
			<title>Dynamic connector.1137</title>
			<v:userDefs>
				<v:ud v:nameU="visVersion" v:val="VT0(15):26"/>
			</v:userDefs>
			<path d="M7.09 333.43 C7.09 335.5 7.09 338.89 7.09 341.9" class="st13"/>
		</g>
		<g id="shape1139-72" v:mID="1139" v:groupContext="shape" v:layerMember="0" transform="translate(132.226,-154.335)">
			<title>Dynamic connector.1139</title>
			<v:userDefs>
				<v:ud v:nameU="visVersion" v:val="VT0(15):26"/>
			</v:userDefs>
			<path d="M7.09 333.43 C7.09 335.5 7.09 338.89 7.09 341.9" class="st13"/>
		</g>
		<g id="shape1141-77" v:mID="1141" v:groupContext="shape" v:layerMember="0" transform="translate(72.6345,-262.052)">
			<title>Dynamic connector.1141</title>
			<v:userDefs>
				<v:ud v:nameU="visVersion" v:val="VT0(15):26"/>
			</v:userDefs>
			<path d="M4.19 332.76 C4.19 357.03 4.19 377.81 4.19 396.47 C4.19 410.5 4.19 423.33 6.11 427.64 C6.12 427.67 6.13 427.7
						 6.15 427.73 L6.47 427.9" class="st4"/>
		</g>
		<g id="shape1144-82" v:mID="1144" v:groupContext="shape" transform="translate(9.84707,-80.7132)">
			<title>Rounded Rectangle.1144</title>
			<desc>Histogram Area vs. LTWB flow</desc>
			<v:userDefs>
				<v:ud v:nameU="CTypeTopLeftSnip" v:prompt="" v:val="VT0(0):5"/>
				<v:ud v:nameU="CTypeTopRightSnip" v:prompt="" v:val="VT0(0):5"/>
				<v:ud v:nameU="CTypeBotLeftSnip" v:prompt="" v:val="VT0(0):5"/>
				<v:ud v:nameU="CTypeBotRightSnip" v:prompt="" v:val="VT0(0):5"/>
				<v:ud v:nameU="CornerLockHoriz" v:prompt="" v:val="VT0(1):5"/>
				<v:ud v:nameU="CornerLockVert" v:prompt="" v:val="VT0(1):5"/>
				<v:ud v:nameU="CornerLockDiag" v:prompt="" v:val="VT0(0):5"/>
				<v:ud v:nameU="TopLeftOffset" v:prompt="" v:val="VT0(0.15748031496063):24"/>
				<v:ud v:nameU="TopRightOffset" v:prompt="" v:val="VT0(0.15748031496063):24"/>
				<v:ud v:nameU="BotLeftOffset" v:prompt="" v:val="VT0(0.15748031496063):24"/>
				<v:ud v:nameU="BotRightOffset" v:prompt="" v:val="VT0(0.15748031496063):24"/>
				<v:ud v:nameU="visVersion" v:prompt="" v:val="VT0(15):26"/>
			</v:userDefs>
			<v:textBlock v:margins="rect(4,4,4,4)" v:tabSpace="42.5197"/>
			<v:textRect cx="56.6929" cy="321.426" width="113.39" height="22.6772"/>
			<path d="M11.34 332.76 L102.05 332.76 A11.3384 11.3384 -180 0 0 113.39 321.43 A11.3384 11.3384 -180 0 0 102.05 310.09
						 L11.34 310.09 A11.3384 11.3384 -180 0 0 0 321.43 A11.3384 11.3384 -180 0 0 11.34 332.76 Z" class="st14"/>
			<text x="35.96" y="318.73" class="st3" v:langID="1033"><v:paragraph v:horizAlign="1"/><v:tabList/>Histogram<v:newlineChar/><tspan
						x="19.2" dy="1.2em" class="st8">Area vs. LTWB flow</tspan></text>		</g>
		<g id="shape1145-87" v:mID="1145" v:groupContext="shape" transform="translate(151.579,-80.7132)">
			<title>Rounded Rectangle.1145</title>
			<desc>Scatter plot Area vs. LTWB flow</desc>
			<v:userDefs>
				<v:ud v:nameU="CTypeTopLeftSnip" v:prompt="" v:val="VT0(0):5"/>
				<v:ud v:nameU="CTypeTopRightSnip" v:prompt="" v:val="VT0(0):5"/>
				<v:ud v:nameU="CTypeBotLeftSnip" v:prompt="" v:val="VT0(0):5"/>
				<v:ud v:nameU="CTypeBotRightSnip" v:prompt="" v:val="VT0(0):5"/>
				<v:ud v:nameU="CornerLockHoriz" v:prompt="" v:val="VT0(1):5"/>
				<v:ud v:nameU="CornerLockVert" v:prompt="" v:val="VT0(1):5"/>
				<v:ud v:nameU="CornerLockDiag" v:prompt="" v:val="VT0(0):5"/>
				<v:ud v:nameU="TopLeftOffset" v:prompt="" v:val="VT0(0.15748031496063):24"/>
				<v:ud v:nameU="TopRightOffset" v:prompt="" v:val="VT0(0.15748031496063):24"/>
				<v:ud v:nameU="BotLeftOffset" v:prompt="" v:val="VT0(0.15748031496063):24"/>
				<v:ud v:nameU="BotRightOffset" v:prompt="" v:val="VT0(0.15748031496063):24"/>
				<v:ud v:nameU="visVersion" v:prompt="" v:val="VT0(15):26"/>
			</v:userDefs>
			<v:textBlock v:margins="rect(4,4,4,4)" v:tabSpace="42.5197"/>
			<v:textRect cx="56.6929" cy="321.426" width="113.39" height="22.6772"/>
			<path d="M11.34 332.76 L102.05 332.76 A11.3384 11.3384 -180 0 0 113.39 321.43 A11.3384 11.3384 -180 0 0 102.05 310.09
						 L11.34 310.09 A11.3384 11.3384 -180 0 0 0 321.43 A11.3384 11.3384 -180 0 0 11.34 332.76 Z" class="st14"/>
			<text x="33.84" y="318.73" class="st3" v:langID="1033"><v:paragraph v:horizAlign="1"/><v:tabList/>Scatter plot<v:newlineChar/><tspan
						x="19.2" dy="1.2em" class="st8">Area vs. LTWB flow</tspan></text>		</g>
		<g id="shape1146-92" v:mID="1146" v:groupContext="shape" transform="translate(151.579,-49.5321)">
			<title>Rounded Rectangle.1146</title>
			<desc>Linear trend equations</desc>
			<v:userDefs>
				<v:ud v:nameU="CTypeTopLeftSnip" v:prompt="" v:val="VT0(0):5"/>
				<v:ud v:nameU="CTypeTopRightSnip" v:prompt="" v:val="VT0(0):5"/>
				<v:ud v:nameU="CTypeBotLeftSnip" v:prompt="" v:val="VT0(0):5"/>
				<v:ud v:nameU="CTypeBotRightSnip" v:prompt="" v:val="VT0(0):5"/>
				<v:ud v:nameU="CornerLockHoriz" v:prompt="" v:val="VT0(1):5"/>
				<v:ud v:nameU="CornerLockVert" v:prompt="" v:val="VT0(1):5"/>
				<v:ud v:nameU="CornerLockDiag" v:prompt="" v:val="VT0(0):5"/>
				<v:ud v:nameU="TopLeftOffset" v:prompt="" v:val="VT0(0.15748031496063):24"/>
				<v:ud v:nameU="TopRightOffset" v:prompt="" v:val="VT0(0.15748031496063):24"/>
				<v:ud v:nameU="BotLeftOffset" v:prompt="" v:val="VT0(0.15748031496063):24"/>
				<v:ud v:nameU="BotRightOffset" v:prompt="" v:val="VT0(0.15748031496063):24"/>
				<v:ud v:nameU="visVersion" v:prompt="" v:val="VT0(15):26"/>
			</v:userDefs>
			<v:textBlock v:margins="rect(4,4,4,4)" v:tabSpace="42.5197"/>
			<v:textRect cx="56.6929" cy="321.426" width="113.39" height="22.6772"/>
			<path d="M11.34 332.76 L102.05 332.76 A11.3384 11.3384 -180 0 0 113.39 321.43 A11.3384 11.3384 -180 0 0 102.05 310.09
						 L11.34 310.09 A11.3384 11.3384 -180 0 0 0 321.43 A11.3384 11.3384 -180 0 0 11.34 332.76 Z" class="st14"/>
			<text x="12.08" y="324.13" class="st3" v:langID="1033"><v:paragraph v:horizAlign="1"/><v:tabList/>Linear trend equations</text>		</g>
		<g id="shape1147-96" v:mID="1147" v:groupContext="shape" v:layerMember="0" transform="translate(139.313,-118.154)">
			<title>Dynamic connector.1147</title>
			<v:userDefs>
				<v:ud v:nameU="visVersion" v:val="VT0(15):26"/>
			</v:userDefs>
			<path d="M0 332.76 C-0 338.08 5.79 338.08 10.93 338.08 C21.08 338.08 28.69 338.08 43.07 338.08 C52.11 338.08 63.82 338.08
						 67.67 343.36 L67.78 343.7" class="st4"/>
		</g>
		<g id="shape1148-101" v:mID="1148" v:groupContext="shape" v:layerMember="0" transform="translate(201.186,-83.5479)">
			<title>Dynamic connector.1148</title>
			<v:userDefs>
				<v:ud v:nameU="visVersion" v:val="VT0(15):26"/>
			</v:userDefs>
			<path d="M7.09 335.6 C7.09 336.64 7.09 338.18 7.09 339.74" class="st13"/>
		</g>
		<g id="shape1149-106" v:mID="1149" v:groupContext="shape" v:layerMember="0" transform="translate(208.272,-49.5321)">
			<title>Dynamic connector.1149</title>
			<v:userDefs>
				<v:ud v:nameU="visVersion" v:val="VT0(15):26"/>
			</v:userDefs>
			<path d="M0 332.76 C-0 338.08 -5.95 338.08 -11.22 338.08 C-21.66 338.08 -29.45 338.08 -44.17 338.08 C-53.88 338.08 -66.61
						 338.08 -70 345.49 L-70.08 345.85" class="st4"/>
		</g>
		<g id="shape1150-111" v:mID="1150" v:groupContext="shape" v:layerMember="0" transform="translate(66.54,-80.7132)">
			<title>Dynamic connector.1150</title>
			<v:userDefs>
				<v:ud v:nameU="visVersion" v:val="VT0(15):26"/>
			</v:userDefs>
			<path d="M0 332.76 C0 343.39 16.72 343.39 33.44 343.39 C51.4 343.39 69.36 343.39 70.78 376.59 L70.78 376.95"
					class="st4"/>
		</g>
	</g>
</svg>
