<?xml version="1.0" encoding="UTF-8" standalone="no"?>
<!DOCTYPE svg PUBLIC "-//W3C//DTD SVG 1.1//EN" "http://www.w3.org/Graphics/SVG/1.1/DTD/svg11.dtd">
<!-- Generated by Microsoft Visio, SVG Export DEMAlosFlowchart.svg Page-1 -->
<svg xmlns="http://www.w3.org/2000/svg" xmlns:xlink="http://www.w3.org/1999/xlink" xmlns:ev="http://www.w3.org/2001/xml-events"
		xmlns:v="http://schemas.microsoft.com/visio/2003/SVGExtensions/" width="6.32872in" height="5.58849in"
		viewBox="0 0 455.668 402.371" xml:space="preserve" color-interpolation-filters="sRGB" class="st16">
	<v:documentProperties v:langID="1033" v:metric="true" v:viewMarkup="false"/>

	<style type="text/css">
	<![CDATA[
		.st1 {fill:#f2f2f2;stroke:#fbbc0e;stroke-width:1.5}
		.st2 {fill:#fbbc0e;fill-opacity:1;stroke:#fbbc0e;stroke-opacity:1;stroke-width:0.37313432835821}
		.st3 {fill:#000000;font-family:Segoe UI;font-size:0.75em}
		.st4 {fill:#f2f2f2;stroke:#4c85f4;stroke-width:1.5}
		.st5 {fill:#4c85f4;fill-opacity:1;stroke:#4c85f4;stroke-opacity:1;stroke-width:0.37313432835821}
		.st6 {font-size:1em}
		.st7 {marker-end:url(#mrkr6-37);stroke:#7f7f7f;stroke-linecap:round;stroke-linejoin:round;stroke-width:0.5}
		.st8 {fill:#7f7f7f;fill-opacity:1;stroke:#7f7f7f;stroke-opacity:1;stroke-width:0.25773195876289}
		.st9 {marker-end:url(#mrkr6-43);stroke:#7f7f7f;stroke-dasharray:3.5,2.5;stroke-linecap:round;stroke-linejoin:round;stroke-width:0.5}
		.st10 {marker-end:url(#mrkr6-43);stroke:#7f7f7f;stroke-linecap:round;stroke-linejoin:round;stroke-width:0.5}
		.st11 {fill:#f2f2f2;stroke:#ea4d35;stroke-width:1.5}
		.st12 {fill:#ea4d35;fill-opacity:1;stroke:#ea4d35;stroke-opacity:1;stroke-width:0.37313432835821}
		.st13 {marker-end:url(#mrkr6-190);stroke:#7f7f7f;stroke-linecap:round;stroke-linejoin:round;stroke-width:0.5}
		.st14 {fill:#f2f2f2;stroke:#ea4d35;stroke-dasharray:10.5,7.5;stroke-width:1.5}
		.st15 {marker-end:url(#mrkr6-37);stroke:#7f7f7f;stroke-dasharray:3.5,2.5;stroke-linecap:round;stroke-linejoin:round;stroke-width:0.5}
		.st16 {fill:none;fill-rule:evenodd;font-size:12px;overflow:visible;stroke-linecap:square;stroke-miterlimit:3}
	]]>
	</style>

	<defs id="Markers">
		<g id="lend6">
			<path d="M 2 1 L 0 0 L 2.01237 -1.00641 C 2.32921 -0.372876 2.32921 0.372869 2.01238 1.0064 " style="stroke:none"/>
		</g>
		<marker id="mrkr6-4" class="st2" v:arrowType="6" v:arrowSize="2" v:setback="6.03" refX="6.03" orient="auto"
				markerUnits="strokeWidth" overflow="visible">
			<use xlink:href="#lend6" transform="scale(2.68) "/>
		</marker>
		<marker id="mrkr6-29" class="st5" v:arrowType="6" v:arrowSize="2" v:setback="6.03" refX="6.03" orient="auto"
				markerUnits="strokeWidth" overflow="visible">
			<use xlink:href="#lend6" transform="scale(2.68) "/>
		</marker>
		<marker id="mrkr6-37" class="st8" v:arrowType="6" v:arrowSize="0" v:setback="8.73" refX="-8.73" orient="auto"
				markerUnits="strokeWidth" overflow="visible">
			<use xlink:href="#lend6" transform="scale(-3.88,-3.88) "/>
		</marker>
		<marker id="mrkr6-43" class="st8" v:arrowType="6" v:arrowSize="0" v:setback="8.01" refX="-8.01" orient="auto"
				markerUnits="strokeWidth" overflow="visible">
			<use xlink:href="#lend6" transform="scale(-3.88,-3.88) "/>
		</marker>
		<marker id="mrkr6-135" class="st12" v:arrowType="6" v:arrowSize="2" v:setback="6.03" refX="6.03" orient="auto"
				markerUnits="strokeWidth" overflow="visible">
			<use xlink:href="#lend6" transform="scale(2.68) "/>
		</marker>
		<marker id="mrkr6-190" class="st8" v:arrowType="6" v:arrowSize="0" v:setback="0" refX="-0" orient="auto"
				markerUnits="strokeWidth" overflow="visible">
			<use xlink:href="#lend6" transform="scale(-3.88,-3.88) "/>
		</marker>
	</defs>
	<g v:mID="0" v:index="1" v:groupContext="foregroundPage">
		<title>Page-1</title>
		<v:pageProperties v:drawingScale="0.0393701" v:pageScale="0.0393701" v:drawingUnits="24" v:shadowOffsetX="8.50394"
				v:shadowOffsetY="-8.50394"/>
		<v:layer v:name="Connector" v:index="0"/>
		<g id="shape129-1" v:mID="129" v:groupContext="shape" transform="translate(154.66,-369.847)">
			<title>Rounded Rectangle.129</title>
			<desc>NASA Earthdata Login</desc>
			<v:userDefs>
				<v:ud v:nameU="CTypeTopLeftSnip" v:prompt="" v:val="VT0(0):5"/>
				<v:ud v:nameU="CTypeTopRightSnip" v:prompt="" v:val="VT0(0):5"/>
				<v:ud v:nameU="CTypeBotLeftSnip" v:prompt="" v:val="VT0(0):5"/>
				<v:ud v:nameU="CTypeBotRightSnip" v:prompt="" v:val="VT0(0):5"/>
				<v:ud v:nameU="CornerLockHoriz" v:prompt="" v:val="VT0(1):5"/>
				<v:ud v:nameU="CornerLockVert" v:prompt="" v:val="VT0(1):5"/>
				<v:ud v:nameU="CornerLockDiag" v:prompt="" v:val="VT0(0):5"/>
				<v:ud v:nameU="TopLeftOffset" v:prompt="" v:val="VT0(0.15748031496063):24"/>
				<v:ud v:nameU="TopRightOffset" v:prompt="" v:val="VT0(0.15748031496063):24"/>
				<v:ud v:nameU="BotLeftOffset" v:prompt="" v:val="VT0(0.15748031496063):24"/>
				<v:ud v:nameU="BotRightOffset" v:prompt="" v:val="VT0(0.15748031496063):24"/>
				<v:ud v:nameU="visVersion" v:prompt="" v:val="VT0(15):26"/>
			</v:userDefs>
			<v:textBlock v:margins="rect(4,4,4,4)" v:tabSpace="42.5197"/>
			<v:textRect cx="58.9117" cy="391.033" width="117.83" height="22.6772"/>
			<path d="M11.34 402.37 L106.48 402.37 A11.3384 11.3384 -180 0 0 117.82 391.03 A11.3384 11.3384 -180 0 0 106.48 379.69
						 L11.34 379.69 A11.3384 11.3384 -180 0 0 0 391.03 A11.3384 11.3384 -180 0 0 11.34 402.37 Z" class="st1"/>
			<text x="14.89" y="393.73" class="st3" v:langID="1033"><v:paragraph v:horizAlign="1"/><v:tabList/>NASA Earthdata Login</text>		</g>
		<g id="shape130-6" v:mID="130" v:groupContext="shape" transform="translate(154.56,-334.414)">
			<title>Rounded Rectangle.130</title>
			<desc>Delimitar zona descarga</desc>
			<v:userDefs>
				<v:ud v:nameU="CTypeTopLeftSnip" v:prompt="" v:val="VT0(0):5"/>
				<v:ud v:nameU="CTypeTopRightSnip" v:prompt="" v:val="VT0(0):5"/>
				<v:ud v:nameU="CTypeBotLeftSnip" v:prompt="" v:val="VT0(0):5"/>
				<v:ud v:nameU="CTypeBotRightSnip" v:prompt="" v:val="VT0(0):5"/>
				<v:ud v:nameU="CornerLockHoriz" v:prompt="" v:val="VT0(1):5"/>
				<v:ud v:nameU="CornerLockVert" v:prompt="" v:val="VT0(1):5"/>
				<v:ud v:nameU="CornerLockDiag" v:prompt="" v:val="VT0(0):5"/>
				<v:ud v:nameU="TopLeftOffset" v:prompt="" v:val="VT0(0.15748031496063):24"/>
				<v:ud v:nameU="TopRightOffset" v:prompt="" v:val="VT0(0.15748031496063):24"/>
				<v:ud v:nameU="BotLeftOffset" v:prompt="" v:val="VT0(0.15748031496063):24"/>
				<v:ud v:nameU="BotRightOffset" v:prompt="" v:val="VT0(0.15748031496063):24"/>
				<v:ud v:nameU="visVersion" v:prompt="" v:val="VT0(15):26"/>
			</v:userDefs>
			<v:textBlock v:margins="rect(4,4,4,4)" v:tabSpace="42.5197"/>
			<v:textRect cx="58.9117" cy="391.033" width="117.83" height="22.6772"/>
			<path d="M11.34 402.37 L106.48 402.37 A11.3384 11.3384 -180 0 0 117.82 391.03 A11.3384 11.3384 -180 0 0 106.48 379.69
						 L11.34 379.69 A11.3384 11.3384 -180 0 0 0 391.03 A11.3384 11.3384 -180 0 0 11.34 402.37 Z" class="st1"/>
			<text x="11.12" y="393.73" class="st3" v:langID="1033"><v:paragraph v:horizAlign="1"/><v:tabList/>Delimitar zona descarga</text>		</g>
		<g id="shape131-10" v:mID="131" v:groupContext="shape" transform="translate(9.84707,-290.477)">
			<title>Rounded Rectangle.131</title>
			<desc>Polygon</desc>
			<v:userDefs>
				<v:ud v:nameU="CTypeTopLeftSnip" v:prompt="" v:val="VT0(0):5"/>
				<v:ud v:nameU="CTypeTopRightSnip" v:prompt="" v:val="VT0(0):5"/>
				<v:ud v:nameU="CTypeBotLeftSnip" v:prompt="" v:val="VT0(0):5"/>
				<v:ud v:nameU="CTypeBotRightSnip" v:prompt="" v:val="VT0(0):5"/>
				<v:ud v:nameU="CornerLockHoriz" v:prompt="" v:val="VT0(1):5"/>
				<v:ud v:nameU="CornerLockVert" v:prompt="" v:val="VT0(1):5"/>
				<v:ud v:nameU="CornerLockDiag" v:prompt="" v:val="VT0(0):5"/>
				<v:ud v:nameU="TopLeftOffset" v:prompt="" v:val="VT0(0.15748031496063):24"/>
				<v:ud v:nameU="TopRightOffset" v:prompt="" v:val="VT0(0.15748031496063):24"/>
				<v:ud v:nameU="BotLeftOffset" v:prompt="" v:val="VT0(0.15748031496063):24"/>
				<v:ud v:nameU="BotRightOffset" v:prompt="" v:val="VT0(0.15748031496063):24"/>
				<v:ud v:nameU="visVersion" v:prompt="" v:val="VT0(15):26"/>
			</v:userDefs>
			<v:textBlock v:margins="rect(4,4,4,4)" v:tabSpace="42.5197"/>
			<v:textRect cx="28.3465" cy="391.033" width="56.7" height="22.6772"/>
			<path d="M11.34 402.37 L45.35 402.37 A11.3384 11.3384 -180 0 0 56.69 391.03 A11.3384 11.3384 -180 0 0 45.35 379.69 L11.34
						 379.69 A11.3384 11.3384 -180 0 0 0 391.03 A11.3384 11.3384 -180 0 0 11.34 402.37 Z" class="st1"/>
			<text x="12.09" y="393.73" class="st3" v:langID="1033"><v:paragraph v:horizAlign="1"/><v:tabList/>Polygon</text>		</g>
		<g id="shape132-14" v:mID="132" v:groupContext="shape" transform="translate(79.073,-290.477)">
			<title>Rounded Rectangle.132</title>
			<desc>Rectangle</desc>
			<v:userDefs>
				<v:ud v:nameU="CTypeTopLeftSnip" v:prompt="" v:val="VT0(0):5"/>
				<v:ud v:nameU="CTypeTopRightSnip" v:prompt="" v:val="VT0(0):5"/>
				<v:ud v:nameU="CTypeBotLeftSnip" v:prompt="" v:val="VT0(0):5"/>
				<v:ud v:nameU="CTypeBotRightSnip" v:prompt="" v:val="VT0(0):5"/>
				<v:ud v:nameU="CornerLockHoriz" v:prompt="" v:val="VT0(1):5"/>
				<v:ud v:nameU="CornerLockVert" v:prompt="" v:val="VT0(1):5"/>
				<v:ud v:nameU="CornerLockDiag" v:prompt="" v:val="VT0(0):5"/>
				<v:ud v:nameU="TopLeftOffset" v:prompt="" v:val="VT0(0.15748031496063):24"/>
				<v:ud v:nameU="TopRightOffset" v:prompt="" v:val="VT0(0.15748031496063):24"/>
				<v:ud v:nameU="BotLeftOffset" v:prompt="" v:val="VT0(0.15748031496063):24"/>
				<v:ud v:nameU="BotRightOffset" v:prompt="" v:val="VT0(0.15748031496063):24"/>
				<v:ud v:nameU="visVersion" v:prompt="" v:val="VT0(15):26"/>
			</v:userDefs>
			<v:textBlock v:margins="rect(4,4,4,4)" v:tabSpace="42.5197"/>
			<v:textRect cx="28.3465" cy="391.033" width="56.7" height="22.6772"/>
			<path d="M11.34 402.37 L45.35 402.37 A11.3384 11.3384 -180 0 0 56.69 391.03 A11.3384 11.3384 -180 0 0 45.35 379.69 L11.34
						 379.69 A11.3384 11.3384 -180 0 0 0 391.03 A11.3384 11.3384 -180 0 0 11.34 402.37 Z" class="st1"/>
			<text x="8.77" y="393.73" class="st3" v:langID="1033"><v:paragraph v:horizAlign="1"/><v:tabList/>Rectangle</text>		</g>
		<g id="shape133-18" v:mID="133" v:groupContext="shape" transform="translate(148.299,-290.477)">
			<title>Rounded Rectangle.133</title>
			<desc>Point</desc>
			<v:userDefs>
				<v:ud v:nameU="CTypeTopLeftSnip" v:prompt="" v:val="VT0(0):5"/>
				<v:ud v:nameU="CTypeTopRightSnip" v:prompt="" v:val="VT0(0):5"/>
				<v:ud v:nameU="CTypeBotLeftSnip" v:prompt="" v:val="VT0(0):5"/>
				<v:ud v:nameU="CTypeBotRightSnip" v:prompt="" v:val="VT0(0):5"/>
				<v:ud v:nameU="CornerLockHoriz" v:prompt="" v:val="VT0(1):5"/>
				<v:ud v:nameU="CornerLockVert" v:prompt="" v:val="VT0(1):5"/>
				<v:ud v:nameU="CornerLockDiag" v:prompt="" v:val="VT0(0):5"/>
				<v:ud v:nameU="TopLeftOffset" v:prompt="" v:val="VT0(0.15748031496063):24"/>
				<v:ud v:nameU="TopRightOffset" v:prompt="" v:val="VT0(0.15748031496063):24"/>
				<v:ud v:nameU="BotLeftOffset" v:prompt="" v:val="VT0(0.15748031496063):24"/>
				<v:ud v:nameU="BotRightOffset" v:prompt="" v:val="VT0(0.15748031496063):24"/>
				<v:ud v:nameU="visVersion" v:prompt="" v:val="VT0(15):26"/>
			</v:userDefs>
			<v:textBlock v:margins="rect(4,4,4,4)" v:tabSpace="42.5197"/>
			<v:textRect cx="28.3465" cy="391.033" width="56.7" height="22.6772"/>
			<path d="M11.34 402.37 L45.35 402.37 A11.3384 11.3384 -180 0 0 56.69 391.03 A11.3384 11.3384 -180 0 0 45.35 379.69 L11.34
						 379.69 A11.3384 11.3384 -180 0 0 0 391.03 A11.3384 11.3384 -180 0 0 11.34 402.37 Z" class="st1"/>
			<text x="18.03" y="393.73" class="st3" v:langID="1033"><v:paragraph v:horizAlign="1"/><v:tabList/>Point</text>		</g>
		<g id="shape134-22" v:mID="134" v:groupContext="shape" transform="translate(217.525,-290.477)">
			<title>Rounded Rectangle.134</title>
			<desc>Circle</desc>
			<v:userDefs>
				<v:ud v:nameU="CTypeTopLeftSnip" v:prompt="" v:val="VT0(0):5"/>
				<v:ud v:nameU="CTypeTopRightSnip" v:prompt="" v:val="VT0(0):5"/>
				<v:ud v:nameU="CTypeBotLeftSnip" v:prompt="" v:val="VT0(0):5"/>
				<v:ud v:nameU="CTypeBotRightSnip" v:prompt="" v:val="VT0(0):5"/>
				<v:ud v:nameU="CornerLockHoriz" v:prompt="" v:val="VT0(1):5"/>
				<v:ud v:nameU="CornerLockVert" v:prompt="" v:val="VT0(1):5"/>
				<v:ud v:nameU="CornerLockDiag" v:prompt="" v:val="VT0(0):5"/>
				<v:ud v:nameU="TopLeftOffset" v:prompt="" v:val="VT0(0.15748031496063):24"/>
				<v:ud v:nameU="TopRightOffset" v:prompt="" v:val="VT0(0.15748031496063):24"/>
				<v:ud v:nameU="BotLeftOffset" v:prompt="" v:val="VT0(0.15748031496063):24"/>
				<v:ud v:nameU="BotRightOffset" v:prompt="" v:val="VT0(0.15748031496063):24"/>
				<v:ud v:nameU="visVersion" v:prompt="" v:val="VT0(15):26"/>
			</v:userDefs>
			<v:textBlock v:margins="rect(4,4,4,4)" v:tabSpace="42.5197"/>
			<v:textRect cx="28.3465" cy="391.033" width="56.7" height="22.6772"/>
			<path d="M11.34 402.37 L45.35 402.37 A11.3384 11.3384 -180 0 0 56.69 391.03 A11.3384 11.3384 -180 0 0 45.35 379.69 L11.34
						 379.69 A11.3384 11.3384 -180 0 0 0 391.03 A11.3384 11.3384 -180 0 0 11.34 402.37 Z" class="st1"/>
			<text x="17.38" y="393.73" class="st3" v:langID="1033"><v:paragraph v:horizAlign="1"/><v:tabList/>Circle</text>		</g>
		<g id="shape135-26" v:mID="135" v:groupContext="shape" transform="translate(286.751,-290.477)">
			<title>Rounded Rectangle.135</title>
			<desc>File (.shp, .kml, .kmz, GeoJSON, Geo RSS)</desc>
			<v:userDefs>
				<v:ud v:nameU="CTypeTopLeftSnip" v:prompt="" v:val="VT0(0):5"/>
				<v:ud v:nameU="CTypeTopRightSnip" v:prompt="" v:val="VT0(0):5"/>
				<v:ud v:nameU="CTypeBotLeftSnip" v:prompt="" v:val="VT0(0):5"/>
				<v:ud v:nameU="CTypeBotRightSnip" v:prompt="" v:val="VT0(0):5"/>
				<v:ud v:nameU="CornerLockHoriz" v:prompt="" v:val="VT0(1):5"/>
				<v:ud v:nameU="CornerLockVert" v:prompt="" v:val="VT0(1):5"/>
				<v:ud v:nameU="CornerLockDiag" v:prompt="" v:val="VT0(0):5"/>
				<v:ud v:nameU="TopLeftOffset" v:prompt="" v:val="VT0(0.15748031496063):24"/>
				<v:ud v:nameU="TopRightOffset" v:prompt="" v:val="VT0(0.15748031496063):24"/>
				<v:ud v:nameU="BotLeftOffset" v:prompt="" v:val="VT0(0.15748031496063):24"/>
				<v:ud v:nameU="BotRightOffset" v:prompt="" v:val="VT0(0.15748031496063):24"/>
				<v:ud v:nameU="visVersion" v:prompt="" v:val="VT0(15):26"/>
			</v:userDefs>
			<v:textBlock v:margins="rect(4,4,4,4)" v:tabSpace="42.5197"/>
			<v:textRect cx="58.9117" cy="391.033" width="117.83" height="22.6772"/>
			<path d="M11.34 402.37 L106.48 402.37 A11.3384 11.3384 -180 0 0 117.82 391.03 A11.3384 11.3384 -180 0 0 106.48 379.69
						 L11.34 379.69 A11.3384 11.3384 -180 0 0 0 391.03 A11.3384 11.3384 -180 0 0 11.34 402.37 Z" class="st4"/>
			<text x="18.82" y="388.33" class="st3" v:langID="1033"><v:paragraph v:horizAlign="1"/><v:tabList/>File (.shp, .kml, .kmz, <tspan
						x="19.73" dy="1.2em" class="st6">GeoJSON, Geo RSS)</tspan></text>		</g>
		<g id="shape136-32" v:mID="136" v:groupContext="shape" v:layerMember="0" transform="translate(220.608,-370.556)">
			<title>Dynamic connector.136</title>
			<v:userDefs>
				<v:ud v:nameU="visVersion" v:val="VT0(15):26"/>
			</v:userDefs>
			<path d="M-7.04 403.08 C-7.04 405.74 -7.04 406.62 -7.04 407.34 C-7.04 407.7 -7.04 408.02 -7.05 408.19 C-7.06 408.39 -7.1
						 408.39 -7.12 408.59 C-7.14 408.81 -7.14 409.29 -7.14 409.82 C-7.14 410.27 -7.14 410.76 -7.14 411.47"
					class="st7"/>
		</g>
		<g id="shape137-38" v:mID="137" v:groupContext="shape" v:layerMember="0" transform="translate(154.56,-345.753)">
			<title>Dynamic connector.137</title>
			<v:userDefs>
				<v:ud v:nameU="visVersion" v:val="VT0(15):26"/>
			</v:userDefs>
			<path d="M0 402.37 C-29.09 402.37 -78.03 402.37 -99.52 410.06 C-113.49 415.05 -115.88 423.29 -116.28 430.61 L-116.29
						 430.97" class="st9"/>
		</g>
		<g id="shape138-44" v:mID="138" v:groupContext="shape" v:layerMember="0" transform="translate(154.56,-345.753)">
			<title>Dynamic connector.138</title>
			<v:userDefs>
				<v:ud v:nameU="visVersion" v:val="VT0(15):26"/>
			</v:userDefs>
			<path d="M0 402.37 C-11.79 402.37 -30.34 402.37 -39.16 409.1 C-45.8 414.18 -46.91 423.07 -47.1 430.6 L-47.11 430.96"
					class="st9"/>
		</g>
		<g id="shape139-49" v:mID="139" v:groupContext="shape" v:layerMember="0" transform="translate(213.471,-334.414)">
			<title>Dynamic connector.139</title>
			<v:userDefs>
				<v:ud v:nameU="visVersion" v:val="VT0(15):26"/>
			</v:userDefs>
			<path d="M0 402.37 C0 411.51 -27.24 412.79 -34.86 419.73 L-35.02 420.05" class="st9"/>
		</g>
		<g id="shape140-54" v:mID="140" v:groupContext="shape" v:layerMember="0" transform="translate(213.471,-334.414)">
			<title>Dynamic connector.140</title>
			<v:userDefs>
				<v:ud v:nameU="visVersion" v:val="VT0(15):26"/>
			</v:userDefs>
			<path d="M0 402.37 C0 411.48 23.78 412.78 30.6 419.66 L30.75 419.98" class="st9"/>
		</g>
		<g id="shape141-59" v:mID="141" v:groupContext="shape" v:layerMember="0" transform="translate(272.383,-345.753)">
			<title>Dynamic connector.141</title>
			<v:userDefs>
				<v:ud v:nameU="visVersion" v:val="VT0(15):26"/>
			</v:userDefs>
			<path d="M0 402.37 C18.32 402.37 48.4 402.37 62.02 409.69 C71.37 414.72 72.95 423.21 73.22 430.61 L73.23 430.97"
					class="st10"/>
		</g>
		<g id="shape142-64" v:mID="142" v:groupContext="shape" transform="translate(114.876,-233.784)">
			<title>Rounded Rectangle.142</title>
			<desc>Buscar: ALOS_PALSAR_RTC_HIGH_RES</desc>
			<v:userDefs>
				<v:ud v:nameU="CTypeTopLeftSnip" v:prompt="" v:val="VT0(0):5"/>
				<v:ud v:nameU="CTypeTopRightSnip" v:prompt="" v:val="VT0(0):5"/>
				<v:ud v:nameU="CTypeBotLeftSnip" v:prompt="" v:val="VT0(0):5"/>
				<v:ud v:nameU="CTypeBotRightSnip" v:prompt="" v:val="VT0(0):5"/>
				<v:ud v:nameU="CornerLockHoriz" v:prompt="" v:val="VT0(1):5"/>
				<v:ud v:nameU="CornerLockVert" v:prompt="" v:val="VT0(1):5"/>
				<v:ud v:nameU="CornerLockDiag" v:prompt="" v:val="VT0(0):5"/>
				<v:ud v:nameU="TopLeftOffset" v:prompt="" v:val="VT0(0.15748031496063):24"/>
				<v:ud v:nameU="TopRightOffset" v:prompt="" v:val="VT0(0.15748031496063):24"/>
				<v:ud v:nameU="BotLeftOffset" v:prompt="" v:val="VT0(0.15748031496063):24"/>
				<v:ud v:nameU="BotRightOffset" v:prompt="" v:val="VT0(0.15748031496063):24"/>
				<v:ud v:nameU="visVersion" v:prompt="" v:val="VT0(15):26"/>
			</v:userDefs>
			<v:textBlock v:margins="rect(4,4,4,4)" v:tabSpace="42.5197"/>
			<v:textRect cx="95.6693" cy="391.033" width="191.34" height="22.6772"/>
			<path d="M11.34 402.37 L180 402.37 A11.3384 11.3384 -180 0 0 191.34 391.03 A11.3384 11.3384 -180 0 0 180 379.69 L11.34
						 379.69 A11.3384 11.3384 -180 0 0 -0 391.03 A11.3384 11.3384 -180 0 0 11.34 402.37 Z" class="st1"/>
			<text x="20.82" y="393.73" class="st3" v:langID="1033"><v:paragraph v:horizAlign="1"/><v:tabList/>Buscar: ALOS_PALSAR_RTC_HIGH_RES</text>		</g>
		<g id="shape143-68" v:mID="143" v:groupContext="shape" v:layerMember="0" transform="translate(38.1935,-290.477)">
			<title>Dynamic connector.143</title>
			<v:userDefs>
				<v:ud v:nameU="visVersion" v:val="VT0(15):26"/>
			</v:userDefs>
			<path d="M0 402.37 C0 413.71 -0 429.57 12.5 438.03 C25.76 447.02 53.12 447.67 72.32 447.72 L72.68 447.72" class="st9"/>
		</g>
		<g id="shape144-73" v:mID="144" v:groupContext="shape" v:layerMember="0" transform="translate(345.662,-290.477)">
			<title>Dynamic connector.144</title>
			<v:userDefs>
				<v:ud v:nameU="visVersion" v:val="VT0(15):26"/>
			</v:userDefs>
			<path d="M0 402.37 C-0 413.71 0 431.05 -7.69 439.55 C-14.05 446.59 -25.68 447.57 -35.08 447.7 L-35.44 447.71"
					class="st10"/>
		</g>
		<g id="shape145-78" v:mID="145" v:groupContext="shape" v:layerMember="0" transform="translate(104.061,-290.477)">
			<title>Dynamic connector.145</title>
			<v:userDefs>
				<v:ud v:nameU="visVersion" v:val="VT0(15):26"/>
			</v:userDefs>
			<path d="M3.36 402.37 C3.36 413.71 3.36 423.37 3.36 432 C3.36 438.56 3.36 444.52 5.72 446.6 C5.96 446.81 6.21 446.98
						 6.49 447.12 L6.85 447.17" class="st9"/>
		</g>
		<g id="shape146-83" v:mID="146" v:groupContext="shape" v:layerMember="0" transform="translate(176.645,-290.477)">
			<title>Dynamic connector.146</title>
			<v:userDefs>
				<v:ud v:nameU="visVersion" v:val="VT0(15):26"/>
			</v:userDefs>
			<path d="M0 402.37 C-0 412.3 29.56 412.95 33.47 432.04 L33.51 432.4" class="st9"/>
		</g>
		<g id="shape147-88" v:mID="147" v:groupContext="shape" v:layerMember="0" transform="translate(245.871,-290.477)">
			<title>Dynamic connector.147</title>
			<v:userDefs>
				<v:ud v:nameU="visVersion" v:val="VT0(15):26"/>
			</v:userDefs>
			<path d="M0 402.37 C0 412.3 -30.81 412.95 -34.88 432.04 L-34.92 432.4" class="st9"/>
		</g>
		<g id="shape148-93" v:mID="148" v:groupContext="shape" transform="translate(68.8618,-194.099)">
			<title>Rounded Rectangle.148</title>
			<desc>Verificar matching granules / Identificar secuencias</desc>
			<v:userDefs>
				<v:ud v:nameU="CTypeTopLeftSnip" v:prompt="" v:val="VT0(0):5"/>
				<v:ud v:nameU="CTypeTopRightSnip" v:prompt="" v:val="VT0(0):5"/>
				<v:ud v:nameU="CTypeBotLeftSnip" v:prompt="" v:val="VT0(0):5"/>
				<v:ud v:nameU="CTypeBotRightSnip" v:prompt="" v:val="VT0(0):5"/>
				<v:ud v:nameU="CornerLockHoriz" v:prompt="" v:val="VT0(1):5"/>
				<v:ud v:nameU="CornerLockVert" v:prompt="" v:val="VT0(1):5"/>
				<v:ud v:nameU="CornerLockDiag" v:prompt="" v:val="VT0(0):5"/>
				<v:ud v:nameU="TopLeftOffset" v:prompt="" v:val="VT0(0.15748031496063):24"/>
				<v:ud v:nameU="TopRightOffset" v:prompt="" v:val="VT0(0.15748031496063):24"/>
				<v:ud v:nameU="BotLeftOffset" v:prompt="" v:val="VT0(0.15748031496063):24"/>
				<v:ud v:nameU="BotRightOffset" v:prompt="" v:val="VT0(0.15748031496063):24"/>
				<v:ud v:nameU="visVersion" v:prompt="" v:val="VT0(15):26"/>
			</v:userDefs>
			<v:textBlock v:margins="rect(4,4,4,4)" v:tabSpace="42.5197"/>
			<v:textRect cx="65.1724" cy="391.033" width="130.35" height="22.6772"/>
			<path d="M11.34 402.37 L119.01 402.37 A11.3384 11.3384 -180 0 0 130.34 391.03 A11.3384 11.3384 -180 0 0 119.01 379.69
						 L11.34 379.69 A11.3384 11.3384 -180 0 0 0 391.03 A11.3384 11.3384 -180 0 0 11.34 402.37 Z" class="st1"/>
			<text x="7.94" y="388.33" class="st3" v:langID="1033"><v:paragraph v:horizAlign="1"/><v:tabList/>Verificar matching granules / <tspan
						x="22.99" dy="1.2em" class="st6">Identificar secuencias</tspan></text>		</g>
		<g id="shape149-98" v:mID="149" v:groupContext="shape" v:layerMember="0" transform="translate(210.545,-233.784)">
			<title>Dynamic connector.149</title>
			<v:userDefs>
				<v:ud v:nameU="visVersion" v:val="VT0(15):26"/>
			</v:userDefs>
			<path d="M0 402.37 C-0 407.69 -6.42 407.69 -12.11 407.69 C-23.38 407.69 -31.81 407.69 -47.73 407.69 C-58.21 407.69 -71.94
						 407.69 -75.59 415.11 L-75.66 415.46" class="st10"/>
		</g>
		<g id="shape150-103" v:mID="150" v:groupContext="shape" transform="translate(227.602,-194.099)">
			<title>Rounded Rectangle.150</title>
			<desc>Download All / Done / Download Data / _RT1.zip</desc>
			<v:userDefs>
				<v:ud v:nameU="CTypeTopLeftSnip" v:prompt="" v:val="VT0(0):5"/>
				<v:ud v:nameU="CTypeTopRightSnip" v:prompt="" v:val="VT0(0):5"/>
				<v:ud v:nameU="CTypeBotLeftSnip" v:prompt="" v:val="VT0(0):5"/>
				<v:ud v:nameU="CTypeBotRightSnip" v:prompt="" v:val="VT0(0):5"/>
				<v:ud v:nameU="CornerLockHoriz" v:prompt="" v:val="VT0(1):5"/>
				<v:ud v:nameU="CornerLockVert" v:prompt="" v:val="VT0(1):5"/>
				<v:ud v:nameU="CornerLockDiag" v:prompt="" v:val="VT0(0):5"/>
				<v:ud v:nameU="TopLeftOffset" v:prompt="" v:val="VT0(0.15748031496063):24"/>
				<v:ud v:nameU="TopRightOffset" v:prompt="" v:val="VT0(0.15748031496063):24"/>
				<v:ud v:nameU="BotLeftOffset" v:prompt="" v:val="VT0(0.15748031496063):24"/>
				<v:ud v:nameU="BotRightOffset" v:prompt="" v:val="VT0(0.15748031496063):24"/>
				<v:ud v:nameU="visVersion" v:prompt="" v:val="VT0(15):26"/>
			</v:userDefs>
			<v:textBlock v:margins="rect(4,4,4,4)" v:tabSpace="42.5197"/>
			<v:textRect cx="65.1724" cy="391.033" width="130.35" height="22.6772"/>
			<path d="M11.34 402.37 L119.01 402.37 A11.3384 11.3384 -180 0 0 130.34 391.03 A11.3384 11.3384 -180 0 0 119.01 379.69
						 L11.34 379.69 A11.3384 11.3384 -180 0 0 0 391.03 A11.3384 11.3384 -180 0 0 11.34 402.37 Z" class="st1"/>
			<text x="20.7" y="388.33" class="st3" v:langID="1033"><v:paragraph v:horizAlign="1"/><v:tabList/>Download All / Done / <tspan
						x="14.12" dy="1.2em" class="st6">Download Data / _RT1.zip</tspan></text>		</g>
		<g id="shape151-108" v:mID="151" v:groupContext="shape" v:layerMember="0" transform="translate(199.206,-198.351)">
			<title>Dynamic connector.151</title>
			<v:userDefs>
				<v:ud v:nameU="visVersion" v:val="VT0(15):26"/>
			</v:userDefs>
			<path d="M0 395.28 C5.84 395.28 16.49 395.28 24.03 395.28" class="st7"/>
		</g>
		<g id="shape152-113" v:mID="152" v:groupContext="shape" transform="translate(227.602,-111.894)">
			<title>Rounded Rectangle.152</title>
			<desc>Cargar grillas .dem.tif</desc>
			<v:userDefs>
				<v:ud v:nameU="CTypeTopLeftSnip" v:prompt="" v:val="VT0(0):5"/>
				<v:ud v:nameU="CTypeTopRightSnip" v:prompt="" v:val="VT0(0):5"/>
				<v:ud v:nameU="CTypeBotLeftSnip" v:prompt="" v:val="VT0(0):5"/>
				<v:ud v:nameU="CTypeBotRightSnip" v:prompt="" v:val="VT0(0):5"/>
				<v:ud v:nameU="CornerLockHoriz" v:prompt="" v:val="VT0(1):5"/>
				<v:ud v:nameU="CornerLockVert" v:prompt="" v:val="VT0(1):5"/>
				<v:ud v:nameU="CornerLockDiag" v:prompt="" v:val="VT0(0):5"/>
				<v:ud v:nameU="TopLeftOffset" v:prompt="" v:val="VT0(0.15748031496063):24"/>
				<v:ud v:nameU="TopRightOffset" v:prompt="" v:val="VT0(0.15748031496063):24"/>
				<v:ud v:nameU="BotLeftOffset" v:prompt="" v:val="VT0(0.15748031496063):24"/>
				<v:ud v:nameU="BotRightOffset" v:prompt="" v:val="VT0(0.15748031496063):24"/>
				<v:ud v:nameU="visVersion" v:prompt="" v:val="VT0(15):26"/>
			</v:userDefs>
			<v:textBlock v:margins="rect(4,4,4,4)" v:tabSpace="42.5197"/>
			<v:textRect cx="65.1724" cy="391.033" width="130.35" height="22.6772"/>
			<path d="M11.34 402.37 L119.01 402.37 A11.3384 11.3384 -180 0 0 130.34 391.03 A11.3384 11.3384 -180 0 0 119.01 379.69
						 L11.34 379.69 A11.3384 11.3384 -180 0 0 0 391.03 A11.3384 11.3384 -180 0 0 11.34 402.37 Z" class="st1"/>
			<text x="23.03" y="393.73" class="st3" v:langID="1033"><v:paragraph v:horizAlign="1"/><v:tabList/>Cargar grillas .dem.tif</text>		</g>
		<g id="shape153-117" v:mID="153" v:groupContext="shape" v:layerMember="0" transform="translate(292.774,-194.099)">
			<title>Dynamic connector.153</title>
			<v:userDefs>
				<v:ud v:nameU="visVersion" v:val="VT0(15):26"/>
			</v:userDefs>
			<path d="M0 402.37 C0 407.69 -15.9 407.69 -29.4 407.69 C-49.62 407.69 -64.5 407.69 -79.35 407.69 C-94.21 407.69 -109.05
						 407.69 -129.19 407.69 C-140.86 407.69 -154.29 407.69 -157.84 415.11 L-157.92 415.46" class="st10"/>
		</g>
		<g id="shape154-122" v:mID="154" v:groupContext="shape" transform="translate(68.8618,-111.894)">
			<title>Rounded Rectangle.154</title>
			<desc>Asignar CRS proyectado al mapa</desc>
			<v:userDefs>
				<v:ud v:nameU="CTypeTopLeftSnip" v:prompt="" v:val="VT0(0):5"/>
				<v:ud v:nameU="CTypeTopRightSnip" v:prompt="" v:val="VT0(0):5"/>
				<v:ud v:nameU="CTypeBotLeftSnip" v:prompt="" v:val="VT0(0):5"/>
				<v:ud v:nameU="CTypeBotRightSnip" v:prompt="" v:val="VT0(0):5"/>
				<v:ud v:nameU="CornerLockHoriz" v:prompt="" v:val="VT0(1):5"/>
				<v:ud v:nameU="CornerLockVert" v:prompt="" v:val="VT0(1):5"/>
				<v:ud v:nameU="CornerLockDiag" v:prompt="" v:val="VT0(0):5"/>
				<v:ud v:nameU="TopLeftOffset" v:prompt="" v:val="VT0(0.15748031496063):24"/>
				<v:ud v:nameU="TopRightOffset" v:prompt="" v:val="VT0(0.15748031496063):24"/>
				<v:ud v:nameU="BotLeftOffset" v:prompt="" v:val="VT0(0.15748031496063):24"/>
				<v:ud v:nameU="BotRightOffset" v:prompt="" v:val="VT0(0.15748031496063):24"/>
				<v:ud v:nameU="visVersion" v:prompt="" v:val="VT0(15):26"/>
			</v:userDefs>
			<v:textBlock v:margins="rect(4,4,4,4)" v:tabSpace="42.5197"/>
			<v:textRect cx="65.1724" cy="391.033" width="130.35" height="22.6772"/>
			<path d="M11.34 402.37 L119.01 402.37 A11.3384 11.3384 -180 0 0 130.34 391.03 A11.3384 11.3384 -180 0 0 119.01 379.69
						 L11.34 379.69 A11.3384 11.3384 -180 0 0 0 391.03 A11.3384 11.3384 -180 0 0 11.34 402.37 Z" class="st1"/>
			<text x="12.72" y="388.33" class="st3" v:langID="1033"><v:paragraph v:horizAlign="1"/><v:tabList/>Asignar CRS proyectado al <tspan
						x="54.07" dy="1.2em" class="st6">mapa</tspan></text>		</g>
		<g id="shape156-127" v:mID="156" v:groupContext="shape" v:layerMember="0" transform="translate(227.602,-116.146)">
			<title>Dynamic connector.156</title>
			<v:userDefs>
				<v:ud v:nameU="visVersion" v:val="VT0(15):26"/>
			</v:userDefs>
			<path d="M0 395.28 C-5.84 395.28 -16.49 395.28 -24.03 395.28" class="st7"/>
		</g>
		<g id="shape157-132" v:mID="157" v:groupContext="shape" transform="translate(68.8618,-77.535)">
			<title>Rounded Rectangle.157</title>
			<desc>Mosaic to New Raster / Reproyección</desc>
			<v:userDefs>
				<v:ud v:nameU="CTypeTopLeftSnip" v:prompt="" v:val="VT0(0):5"/>
				<v:ud v:nameU="CTypeTopRightSnip" v:prompt="" v:val="VT0(0):5"/>
				<v:ud v:nameU="CTypeBotLeftSnip" v:prompt="" v:val="VT0(0):5"/>
				<v:ud v:nameU="CTypeBotRightSnip" v:prompt="" v:val="VT0(0):5"/>
				<v:ud v:nameU="CornerLockHoriz" v:prompt="" v:val="VT0(1):5"/>
				<v:ud v:nameU="CornerLockVert" v:prompt="" v:val="VT0(1):5"/>
				<v:ud v:nameU="CornerLockDiag" v:prompt="" v:val="VT0(0):5"/>
				<v:ud v:nameU="TopLeftOffset" v:prompt="" v:val="VT0(0.15748031496063):24"/>
				<v:ud v:nameU="TopRightOffset" v:prompt="" v:val="VT0(0.15748031496063):24"/>
				<v:ud v:nameU="BotLeftOffset" v:prompt="" v:val="VT0(0.15748031496063):24"/>
				<v:ud v:nameU="BotRightOffset" v:prompt="" v:val="VT0(0.15748031496063):24"/>
				<v:ud v:nameU="visVersion" v:prompt="" v:val="VT0(15):26"/>
			</v:userDefs>
			<v:textBlock v:margins="rect(4,4,4,4)" v:tabSpace="42.5197"/>
			<v:textRect cx="65.1724" cy="391.033" width="130.35" height="22.6772"/>
			<path d="M11.34 402.37 L119.01 402.37 A11.3384 11.3384 -180 0 0 130.34 391.03 A11.3384 11.3384 -180 0 0 119.01 379.69
						 L11.34 379.69 A11.3384 11.3384 -180 0 0 0 391.03 A11.3384 11.3384 -180 0 0 11.34 402.37 Z" class="st11"/>
			<text x="18.98" y="388.33" class="st3" v:langID="1033"><v:paragraph v:horizAlign="1"/><v:tabList/>Mosaic to New Raster / <tspan
						x="38.32" dy="1.2em" class="st6">Reproyección</tspan></text>		</g>
		<g id="shape158-138" v:mID="158" v:groupContext="shape" v:layerMember="0" transform="translate(61.7752,-123.233)">
			<title>Dynamic connector.158</title>
			<v:userDefs>
				<v:ud v:nameU="visVersion" v:val="VT0(15):26"/>
			</v:userDefs>
			<path d="M7.09 402.37 C-2.02 402.37 -3.32 427.58 3.17 434.81 L3.49 434.97" class="st10"/>
		</g>
		<g id="shape159-143" v:mID="159" v:groupContext="shape" transform="translate(227.602,-77.535)">
			<title>Rounded Rectangle.159</title>
			<desc>Grilla mosaico</desc>
			<v:userDefs>
				<v:ud v:nameU="CTypeTopLeftSnip" v:prompt="" v:val="VT0(0):5"/>
				<v:ud v:nameU="CTypeTopRightSnip" v:prompt="" v:val="VT0(0):5"/>
				<v:ud v:nameU="CTypeBotLeftSnip" v:prompt="" v:val="VT0(0):5"/>
				<v:ud v:nameU="CTypeBotRightSnip" v:prompt="" v:val="VT0(0):5"/>
				<v:ud v:nameU="CornerLockHoriz" v:prompt="" v:val="VT0(1):5"/>
				<v:ud v:nameU="CornerLockVert" v:prompt="" v:val="VT0(1):5"/>
				<v:ud v:nameU="CornerLockDiag" v:prompt="" v:val="VT0(0):5"/>
				<v:ud v:nameU="TopLeftOffset" v:prompt="" v:val="VT0(0.15748031496063):24"/>
				<v:ud v:nameU="TopRightOffset" v:prompt="" v:val="VT0(0.15748031496063):24"/>
				<v:ud v:nameU="BotLeftOffset" v:prompt="" v:val="VT0(0.15748031496063):24"/>
				<v:ud v:nameU="BotRightOffset" v:prompt="" v:val="VT0(0.15748031496063):24"/>
				<v:ud v:nameU="visVersion" v:prompt="" v:val="VT0(15):26"/>
			</v:userDefs>
			<v:textBlock v:margins="rect(4,4,4,4)" v:tabSpace="42.5197"/>
			<v:textRect cx="65.1724" cy="391.033" width="130.35" height="22.6772"/>
			<path d="M11.34 402.37 L119.01 402.37 A11.3384 11.3384 -180 0 0 130.34 391.03 A11.3384 11.3384 -180 0 0 119.01 379.69
						 L11.34 379.69 A11.3384 11.3384 -180 0 0 0 391.03 A11.3384 11.3384 -180 0 0 11.34 402.37 Z" class="st1"/>
			<text x="37.21" y="393.73" class="st3" v:langID="1033"><v:paragraph v:horizAlign="1"/><v:tabList/>Grilla mosaico</text>		</g>
		<g id="shape160-147" v:mID="160" v:groupContext="shape" transform="translate(227.602,-43.1756)">
			<title>Rounded Rectangle.160</title>
			<desc>Evaluar por simbología Stretched / Histogram Equalize</desc>
			<v:userDefs>
				<v:ud v:nameU="CTypeTopLeftSnip" v:prompt="" v:val="VT0(0):5"/>
				<v:ud v:nameU="CTypeTopRightSnip" v:prompt="" v:val="VT0(0):5"/>
				<v:ud v:nameU="CTypeBotLeftSnip" v:prompt="" v:val="VT0(0):5"/>
				<v:ud v:nameU="CTypeBotRightSnip" v:prompt="" v:val="VT0(0):5"/>
				<v:ud v:nameU="CornerLockHoriz" v:prompt="" v:val="VT0(1):5"/>
				<v:ud v:nameU="CornerLockVert" v:prompt="" v:val="VT0(1):5"/>
				<v:ud v:nameU="CornerLockDiag" v:prompt="" v:val="VT0(0):5"/>
				<v:ud v:nameU="TopLeftOffset" v:prompt="" v:val="VT0(0.15748031496063):24"/>
				<v:ud v:nameU="TopRightOffset" v:prompt="" v:val="VT0(0.15748031496063):24"/>
				<v:ud v:nameU="BotLeftOffset" v:prompt="" v:val="VT0(0.15748031496063):24"/>
				<v:ud v:nameU="BotRightOffset" v:prompt="" v:val="VT0(0.15748031496063):24"/>
				<v:ud v:nameU="visVersion" v:prompt="" v:val="VT0(15):26"/>
			</v:userDefs>
			<v:textBlock v:margins="rect(4,4,4,4)" v:tabSpace="42.5197"/>
			<v:textRect cx="65.1724" cy="391.033" width="130.35" height="22.6772"/>
			<path d="M11.34 402.37 L119.01 402.37 A11.3384 11.3384 -180 0 0 130.34 391.03 A11.3384 11.3384 -180 0 0 119.01 379.69
						 L11.34 379.69 A11.3384 11.3384 -180 0 0 0 391.03 A11.3384 11.3384 -180 0 0 11.34 402.37 Z" class="st1"/>
			<text x="19.74" y="382.93" class="st3" v:langID="1033"><v:paragraph v:horizAlign="1"/><v:tabList/>Evaluar por simbología <tspan
						x="21.23" dy="1.2em" class="st6">Stretched / Histogram </tspan><tspan x="48.84" dy="1.2em" class="st6">Equalize</tspan></text>		</g>
		<g id="shape161-153" v:mID="161" v:groupContext="shape" v:layerMember="0" transform="translate(199.206,-81.7869)">
			<title>Dynamic connector.161</title>
			<v:userDefs>
				<v:ud v:nameU="visVersion" v:val="VT0(15):26"/>
			</v:userDefs>
			<path d="M0 395.28 C5.84 395.28 16.49 395.28 24.03 395.28" class="st7"/>
		</g>
		<g id="shape162-158" v:mID="162" v:groupContext="shape" v:layerMember="0" transform="translate(350.86,-88.8735)">
			<title>Dynamic connector.162</title>
			<v:userDefs>
				<v:ud v:nameU="visVersion" v:val="VT0(15):26"/>
			</v:userDefs>
			<path d="M7.09 402.37 C16.19 402.37 17.5 427.58 11.01 434.81 L10.68 434.97" class="st10"/>
		</g>
		<g id="shape163-163" v:mID="163" v:groupContext="shape" transform="translate(68.8618,-43.1756)">
			<title>Rounded Rectangle.163</title>
			<desc>Visualizar perfil</desc>
			<v:userDefs>
				<v:ud v:nameU="CTypeTopLeftSnip" v:prompt="" v:val="VT0(0):5"/>
				<v:ud v:nameU="CTypeTopRightSnip" v:prompt="" v:val="VT0(0):5"/>
				<v:ud v:nameU="CTypeBotLeftSnip" v:prompt="" v:val="VT0(0):5"/>
				<v:ud v:nameU="CTypeBotRightSnip" v:prompt="" v:val="VT0(0):5"/>
				<v:ud v:nameU="CornerLockHoriz" v:prompt="" v:val="VT0(1):5"/>
				<v:ud v:nameU="CornerLockVert" v:prompt="" v:val="VT0(1):5"/>
				<v:ud v:nameU="CornerLockDiag" v:prompt="" v:val="VT0(0):5"/>
				<v:ud v:nameU="TopLeftOffset" v:prompt="" v:val="VT0(0.15748031496063):24"/>
				<v:ud v:nameU="TopRightOffset" v:prompt="" v:val="VT0(0.15748031496063):24"/>
				<v:ud v:nameU="BotLeftOffset" v:prompt="" v:val="VT0(0.15748031496063):24"/>
				<v:ud v:nameU="BotRightOffset" v:prompt="" v:val="VT0(0.15748031496063):24"/>
				<v:ud v:nameU="visVersion" v:prompt="" v:val="VT0(15):26"/>
			</v:userDefs>
			<v:textBlock v:margins="rect(4,4,4,4)" v:tabSpace="42.5197"/>
			<v:textRect cx="65.1724" cy="391.033" width="130.35" height="22.6772"/>
			<path d="M11.34 402.37 L119.01 402.37 A11.3384 11.3384 -180 0 0 130.34 391.03 A11.3384 11.3384 -180 0 0 119.01 379.69
						 L11.34 379.69 A11.3384 11.3384 -180 0 0 0 391.03 A11.3384 11.3384 -180 0 0 11.34 402.37 Z" class="st1"/>
			<text x="35.09" y="393.73" class="st3" v:langID="1033"><v:paragraph v:horizAlign="1"/><v:tabList/>Visualizar perfil</text>		</g>
		<g id="shape164-167" v:mID="164" v:groupContext="shape" transform="translate(148.232,-9.84707)">
			<title>Rounded Rectangle.164</title>
			<desc>Representar en escena 3D</desc>
			<v:userDefs>
				<v:ud v:nameU="CTypeTopLeftSnip" v:prompt="" v:val="VT0(0):5"/>
				<v:ud v:nameU="CTypeTopRightSnip" v:prompt="" v:val="VT0(0):5"/>
				<v:ud v:nameU="CTypeBotLeftSnip" v:prompt="" v:val="VT0(0):5"/>
				<v:ud v:nameU="CTypeBotRightSnip" v:prompt="" v:val="VT0(0):5"/>
				<v:ud v:nameU="CornerLockHoriz" v:prompt="" v:val="VT0(1):5"/>
				<v:ud v:nameU="CornerLockVert" v:prompt="" v:val="VT0(1):5"/>
				<v:ud v:nameU="CornerLockDiag" v:prompt="" v:val="VT0(0):5"/>
				<v:ud v:nameU="TopLeftOffset" v:prompt="" v:val="VT0(0.15748031496063):24"/>
				<v:ud v:nameU="TopRightOffset" v:prompt="" v:val="VT0(0.15748031496063):24"/>
				<v:ud v:nameU="BotLeftOffset" v:prompt="" v:val="VT0(0.15748031496063):24"/>
				<v:ud v:nameU="BotRightOffset" v:prompt="" v:val="VT0(0.15748031496063):24"/>
				<v:ud v:nameU="visVersion" v:prompt="" v:val="VT0(15):26"/>
			</v:userDefs>
			<v:textBlock v:margins="rect(4,4,4,4)" v:tabSpace="42.5197"/>
			<v:textRect cx="65.1724" cy="391.033" width="130.35" height="22.6772"/>
			<path d="M11.34 402.37 L119.01 402.37 A11.3384 11.3384 -180 0 0 130.34 391.03 A11.3384 11.3384 -180 0 0 119.01 379.69
						 L11.34 379.69 A11.3384 11.3384 -180 0 0 0 391.03 A11.3384 11.3384 -180 0 0 11.34 402.37 Z" class="st1"/>
			<text x="13.67" y="393.73" class="st3" v:langID="1033"><v:paragraph v:horizAlign="1"/><v:tabList/>Representar en escena 3D</text>		</g>
		<g id="shape165-171" v:mID="165" v:groupContext="shape" transform="translate(386.342,-43.1756)">
			<title>Rounded Rectangle.165</title>
			<desc>Hillshade</desc>
			<v:userDefs>
				<v:ud v:nameU="CTypeTopLeftSnip" v:prompt="" v:val="VT0(0):5"/>
				<v:ud v:nameU="CTypeTopRightSnip" v:prompt="" v:val="VT0(0):5"/>
				<v:ud v:nameU="CTypeBotLeftSnip" v:prompt="" v:val="VT0(0):5"/>
				<v:ud v:nameU="CTypeBotRightSnip" v:prompt="" v:val="VT0(0):5"/>
				<v:ud v:nameU="CornerLockHoriz" v:prompt="" v:val="VT0(1):5"/>
				<v:ud v:nameU="CornerLockVert" v:prompt="" v:val="VT0(1):5"/>
				<v:ud v:nameU="CornerLockDiag" v:prompt="" v:val="VT0(0):5"/>
				<v:ud v:nameU="TopLeftOffset" v:prompt="" v:val="VT0(0.15748031496063):24"/>
				<v:ud v:nameU="TopRightOffset" v:prompt="" v:val="VT0(0.15748031496063):24"/>
				<v:ud v:nameU="BotLeftOffset" v:prompt="" v:val="VT0(0.15748031496063):24"/>
				<v:ud v:nameU="BotRightOffset" v:prompt="" v:val="VT0(0.15748031496063):24"/>
				<v:ud v:nameU="visVersion" v:prompt="" v:val="VT0(15):26"/>
			</v:userDefs>
			<v:textBlock v:margins="rect(4,4,4,4)" v:tabSpace="42.5197"/>
			<v:textRect cx="29.7393" cy="391.033" width="59.48" height="22.6772"/>
			<path d="M11.34 402.37 L48.14 402.37 A11.3384 11.3384 -180 0 0 59.48 391.03 A11.3384 11.3384 -180 0 0 48.14 379.69 L11.34
						 379.69 A11.3384 11.3384 -180 0 0 0 391.03 A11.3384 11.3384 -180 0 0 11.34 402.37 Z" class="st11"/>
			<text x="11.53" y="393.73" class="st3" v:langID="1033"><v:paragraph v:horizAlign="1"/><v:tabList/>Hillshade</text>		</g>
		<g id="shape166-175" v:mID="166" v:groupContext="shape" v:layerMember="0" transform="translate(357.947,-88.8735)">
			<title>Dynamic connector.166</title>
			<v:userDefs>
				<v:ud v:nameU="visVersion" v:val="VT0(15):26"/>
			</v:userDefs>
			<path d="M0 402.37 C14.53 402.37 38.58 402.37 49.37 407.62 C56.05 410.88 57.64 416.16 58.02 421.03 L58.03 421.39"
					class="st10"/>
		</g>
		<g id="shape167-180" v:mID="167" v:groupContext="shape" v:layerMember="0" transform="translate(227.602,-47.4276)">
			<title>Dynamic connector.167</title>
			<v:userDefs>
				<v:ud v:nameU="visVersion" v:val="VT0(15):26"/>
			</v:userDefs>
			<path d="M0 395.28 C-5.84 395.28 -16.49 395.28 -24.03 395.28" class="st7"/>
		</g>
		<g id="shape169-185" v:mID="169" v:groupContext="shape" v:layerMember="0" transform="translate(68.8618,-54.5142)">
			<title>Dynamic connector.169</title>
			<v:userDefs>
				<v:ud v:nameU="visVersion" v:val="VT0(15):26"/>
			</v:userDefs>
			<path d="M0 402.37 C-10.63 402.37 -10.63 435.7 79.37 435.7" class="st13"/>
		</g>
		<g id="shape173-191" v:mID="173" v:groupContext="shape" transform="translate(68.8618,-154.414)">
			<title>Rounded Rectangle.173</title>
			<desc>Descomprimir</desc>
			<v:userDefs>
				<v:ud v:nameU="CTypeTopLeftSnip" v:prompt="" v:val="VT0(0):5"/>
				<v:ud v:nameU="CTypeTopRightSnip" v:prompt="" v:val="VT0(0):5"/>
				<v:ud v:nameU="CTypeBotLeftSnip" v:prompt="" v:val="VT0(0):5"/>
				<v:ud v:nameU="CTypeBotRightSnip" v:prompt="" v:val="VT0(0):5"/>
				<v:ud v:nameU="CornerLockHoriz" v:prompt="" v:val="VT0(1):5"/>
				<v:ud v:nameU="CornerLockVert" v:prompt="" v:val="VT0(1):5"/>
				<v:ud v:nameU="CornerLockDiag" v:prompt="" v:val="VT0(0):5"/>
				<v:ud v:nameU="TopLeftOffset" v:prompt="" v:val="VT0(0.15748031496063):24"/>
				<v:ud v:nameU="TopRightOffset" v:prompt="" v:val="VT0(0.15748031496063):24"/>
				<v:ud v:nameU="BotLeftOffset" v:prompt="" v:val="VT0(0.15748031496063):24"/>
				<v:ud v:nameU="BotRightOffset" v:prompt="" v:val="VT0(0.15748031496063):24"/>
				<v:ud v:nameU="visVersion" v:prompt="" v:val="VT0(15):26"/>
			</v:userDefs>
			<v:textBlock v:margins="rect(4,4,4,4)" v:tabSpace="42.5197"/>
			<v:textRect cx="65.1724" cy="391.033" width="130.35" height="22.6772"/>
			<path d="M11.34 402.37 L119.01 402.37 A11.3384 11.3384 -180 0 0 130.34 391.03 A11.3384 11.3384 -180 0 0 119.01 379.69
						 L11.34 379.69 A11.3384 11.3384 -180 0 0 0 391.03 A11.3384 11.3384 -180 0 0 11.34 402.37 Z" class="st1"/>
			<text x="37.33" y="393.73" class="st3" v:langID="1033"><v:paragraph v:horizAlign="1"/><v:tabList/>Descomprimir</text>		</g>
		<g id="shape174-195" v:mID="174" v:groupContext="shape" v:layerMember="0" transform="translate(134.034,-154.414)">
			<title>Dynamic connector.174</title>
			<v:userDefs>
				<v:ud v:nameU="visVersion" v:val="VT0(15):26"/>
			</v:userDefs>
			<path d="M0 402.37 C0 413 15.96 413 29.52 413 C49.67 413 64.52 413 79.37 413 C94.23 413 109.08 413 129.26 413 C140.37
						 413 153.1 413 157.31 418.09 L157.42 418.43" class="st10"/>
		</g>
		<g id="shape175-200" v:mID="175" v:groupContext="shape" transform="translate(227.602,-154.414)">
			<title>Rounded Rectangle.175</title>
			<desc>Descarga mediante script .sh</desc>
			<v:userDefs>
				<v:ud v:nameU="CTypeTopLeftSnip" v:prompt="" v:val="VT0(0):5"/>
				<v:ud v:nameU="CTypeTopRightSnip" v:prompt="" v:val="VT0(0):5"/>
				<v:ud v:nameU="CTypeBotLeftSnip" v:prompt="" v:val="VT0(0):5"/>
				<v:ud v:nameU="CTypeBotRightSnip" v:prompt="" v:val="VT0(0):5"/>
				<v:ud v:nameU="CornerLockHoriz" v:prompt="" v:val="VT0(1):5"/>
				<v:ud v:nameU="CornerLockVert" v:prompt="" v:val="VT0(1):5"/>
				<v:ud v:nameU="CornerLockDiag" v:prompt="" v:val="VT0(0):5"/>
				<v:ud v:nameU="TopLeftOffset" v:prompt="" v:val="VT0(0.15748031496063):24"/>
				<v:ud v:nameU="TopRightOffset" v:prompt="" v:val="VT0(0.15748031496063):24"/>
				<v:ud v:nameU="BotLeftOffset" v:prompt="" v:val="VT0(0.15748031496063):24"/>
				<v:ud v:nameU="BotRightOffset" v:prompt="" v:val="VT0(0.15748031496063):24"/>
				<v:ud v:nameU="visVersion" v:prompt="" v:val="VT0(15):26"/>
			</v:userDefs>
			<v:textBlock v:margins="rect(4,4,4,4)" v:tabSpace="42.5197"/>
			<v:textRect cx="65.1724" cy="391.033" width="130.35" height="22.6772"/>
			<path d="M11.34 402.37 L119.01 402.37 A11.3384 11.3384 -180 0 0 130.34 391.03 A11.3384 11.3384 -180 0 0 119.01 379.69
						 L11.34 379.69 A11.3384 11.3384 -180 0 0 0 391.03 A11.3384 11.3384 -180 0 0 11.34 402.37 Z" class="st14"/>
			<text x="8.26" y="393.73" class="st3" v:langID="1033"><v:paragraph v:horizAlign="1"/><v:tabList/>Descarga mediante script .sh</text>		</g>
		<g id="shape176-204" v:mID="176" v:groupContext="shape" v:layerMember="0" transform="translate(350.86,-205.438)">
			<title>Dynamic connector.176</title>
			<v:userDefs>
				<v:ud v:nameU="visVersion" v:val="VT0(15):26"/>
			</v:userDefs>
			<path d="M7.09 402.37 C16.23 402.37 17.51 431.76 10.91 439.96 L10.6 440.13" class="st9"/>
		</g>
		<g id="shape177-209" v:mID="177" v:groupContext="shape" v:layerMember="0" transform="translate(227.602,-158.666)">
			<title>Dynamic connector.177</title>
			<v:userDefs>
				<v:ud v:nameU="visVersion" v:val="VT0(15):26"/>
			</v:userDefs>
			<path d="M0 395.28 C-5.84 395.28 -16.49 395.28 -24.03 395.28" class="st15"/>
		</g>
	</g>
</svg>
