<?xml version="1.0" encoding="UTF-8" standalone="no"?>
<!DOCTYPE svg PUBLIC "-//W3C//DTD SVG 1.1//EN" "http://www.w3.org/Graphics/SVG/1.1/DTD/svg11.dtd">
<!-- Generated by Microsoft Visio, SVG Export LTWBBasin.svg Page-1 -->
<svg xmlns="http://www.w3.org/2000/svg" xmlns:xlink="http://www.w3.org/1999/xlink" xmlns:ev="http://www.w3.org/2001/xml-events"
		xmlns:v="http://schemas.microsoft.com/visio/2003/SVGExtensions/" width="7.01743in" height="3.41056in"
		viewBox="0 0 505.255 245.56" xml:space="preserve" color-interpolation-filters="sRGB" class="st17">
	<v:documentProperties v:langID="1033" v:metric="true" v:viewMarkup="false"/>

	<style type="text/css">
	<![CDATA[
		.st1 {fill:#f2f2f2;stroke:none;stroke-width:1.5}
		.st2 {fill:#fbbc0e;fill-opacity:1;stroke:#fbbc0e;stroke-opacity:1;stroke-width:0.37313432835821}
		.st3 {fill:#000000;font-family:Segoe UI;font-size:0.75em}
		.st4 {marker-end:url(#mrkr6-15);stroke:#7f7f7f;stroke-linecap:round;stroke-linejoin:round;stroke-width:0.5}
		.st5 {fill:#7f7f7f;fill-opacity:1;stroke:#7f7f7f;stroke-opacity:1;stroke-width:0.25773195876289}
		.st6 {fill:#f2f2f2;stroke:#ea4d35;stroke-width:1.5}
		.st7 {fill:#ea4d35;fill-opacity:1;stroke:#ea4d35;stroke-opacity:1;stroke-width:0.37313432835821}
		.st8 {fill:#f2f2f2;stroke:#3ea853;stroke-width:1.5}
		.st9 {fill:#3ea853;fill-opacity:1;stroke:#3ea853;stroke-opacity:1;stroke-width:0.37313432835821}
		.st10 {fill:#f2f2f2;stroke:#4c85f4;stroke-width:1.5}
		.st11 {fill:#4c85f4;fill-opacity:1;stroke:#4c85f4;stroke-opacity:1;stroke-width:0.37313432835821}
		.st12 {marker-end:url(#mrkr6-46);stroke:#7f7f7f;stroke-linecap:round;stroke-linejoin:round;stroke-width:0.5}
		.st13 {fill:#f2f2f2;stroke:#696368;stroke-width:1.5}
		.st14 {fill:#696368;fill-opacity:1;stroke:#696368;stroke-opacity:1;stroke-width:0.37313432835821}
		.st15 {fill:#f2f2f2;stroke:#ea4d35;stroke-dasharray:0.01,4.5;stroke-width:1.5}
		.st16 {font-size:1em}
		.st17 {fill:none;fill-rule:evenodd;font-size:12px;overflow:visible;stroke-linecap:square;stroke-miterlimit:3}
	]]>
	</style>

	<defs id="Markers">
		<g id="lend6">
			<path d="M 2 1 L 0 0 L 2.01237 -1.00641 C 2.32921 -0.372876 2.32921 0.372869 2.01238 1.0064 " style="stroke:none"/>
		</g>
		<marker id="mrkr6-4" class="st2" v:arrowType="6" v:arrowSize="2" v:setback="6.03" refX="6.03" orient="auto"
				markerUnits="strokeWidth" overflow="visible">
			<use xlink:href="#lend6" transform="scale(2.68) "/>
		</marker>
		<marker id="mrkr6-15" class="st5" v:arrowType="6" v:arrowSize="0" v:setback="8.01" refX="-8.01" orient="auto"
				markerUnits="strokeWidth" overflow="visible">
			<use xlink:href="#lend6" transform="scale(-3.88,-3.88) "/>
		</marker>
		<marker id="mrkr6-19" class="st7" v:arrowType="6" v:arrowSize="2" v:setback="6.03" refX="6.03" orient="auto"
				markerUnits="strokeWidth" overflow="visible">
			<use xlink:href="#lend6" transform="scale(2.68) "/>
		</marker>
		<marker id="mrkr6-24" class="st9" v:arrowType="6" v:arrowSize="2" v:setback="6.03" refX="6.03" orient="auto"
				markerUnits="strokeWidth" overflow="visible">
			<use xlink:href="#lend6" transform="scale(2.68) "/>
		</marker>
		<marker id="mrkr6-29" class="st11" v:arrowType="6" v:arrowSize="2" v:setback="6.03" refX="6.03" orient="auto"
				markerUnits="strokeWidth" overflow="visible">
			<use xlink:href="#lend6" transform="scale(2.68) "/>
		</marker>
		<marker id="mrkr6-46" class="st5" v:arrowType="6" v:arrowSize="0" v:setback="8.73" refX="-8.73" orient="auto"
				markerUnits="strokeWidth" overflow="visible">
			<use xlink:href="#lend6" transform="scale(-3.88,-3.88) "/>
		</marker>
		<marker id="mrkr6-73" class="st14" v:arrowType="6" v:arrowSize="2" v:setback="6.03" refX="6.03" orient="auto"
				markerUnits="strokeWidth" overflow="visible">
			<use xlink:href="#lend6" transform="scale(2.68) "/>
		</marker>
	</defs>
	<g v:mID="0" v:index="1" v:groupContext="foregroundPage">
		<title>Page-1</title>
		<v:pageProperties v:drawingScale="0.0393701" v:pageScale="0.0393701" v:drawingUnits="24" v:shadowOffsetX="8.50394"
				v:shadowOffsetY="-8.50394"/>
		<v:layer v:name="Connector" v:index="0"/>
		<g id="shape577-1" v:mID="577" v:groupContext="shape" transform="translate(195.713,-213.036)">
			<title>Rounded Rectangle.577</title>
			<desc>Start</desc>
			<v:userDefs>
				<v:ud v:nameU="CTypeTopLeftSnip" v:prompt="" v:val="VT0(0):5"/>
				<v:ud v:nameU="CTypeTopRightSnip" v:prompt="" v:val="VT0(0):5"/>
				<v:ud v:nameU="CTypeBotLeftSnip" v:prompt="" v:val="VT0(0):5"/>
				<v:ud v:nameU="CTypeBotRightSnip" v:prompt="" v:val="VT0(0):5"/>
				<v:ud v:nameU="CornerLockHoriz" v:prompt="" v:val="VT0(1):5"/>
				<v:ud v:nameU="CornerLockVert" v:prompt="" v:val="VT0(1):5"/>
				<v:ud v:nameU="CornerLockDiag" v:prompt="" v:val="VT0(0):5"/>
				<v:ud v:nameU="TopLeftOffset" v:prompt="" v:val="VT0(0.15748031496063):24"/>
				<v:ud v:nameU="TopRightOffset" v:prompt="" v:val="VT0(0.15748031496063):24"/>
				<v:ud v:nameU="BotLeftOffset" v:prompt="" v:val="VT0(0.15748031496063):24"/>
				<v:ud v:nameU="BotRightOffset" v:prompt="" v:val="VT0(0.15748031496063):24"/>
				<v:ud v:nameU="visVersion" v:prompt="" v:val="VT0(15):26"/>
			</v:userDefs>
			<v:textBlock v:margins="rect(4,4,4,4)" v:tabSpace="42.5197"/>
			<v:textRect cx="56.6929" cy="234.222" width="113.39" height="22.6772"/>
			<path d="M11.34 245.56 L102.05 245.56 A11.3384 11.3384 -180 0 0 113.39 234.22 A11.3384 11.3384 -180 0 0 102.05 222.88
						 L11.34 222.88 A11.3384 11.3384 -180 0 0 0 234.22 A11.3384 11.3384 -180 0 0 11.34 245.56 Z" class="st1"/>
			<text x="47.4" y="236.92" class="st3" v:langID="1033"><v:paragraph v:horizAlign="1"/><v:tabList/>Start</text>		</g>
		<g id="shape742-6" v:mID="742" v:groupContext="shape" transform="translate(194.433,-9.84707)">
			<title>Rounded Rectangle.742</title>
			<desc>End</desc>
			<v:userDefs>
				<v:ud v:nameU="CTypeTopLeftSnip" v:prompt="" v:val="VT0(0):5"/>
				<v:ud v:nameU="CTypeTopRightSnip" v:prompt="" v:val="VT0(0):5"/>
				<v:ud v:nameU="CTypeBotLeftSnip" v:prompt="" v:val="VT0(0):5"/>
				<v:ud v:nameU="CTypeBotRightSnip" v:prompt="" v:val="VT0(0):5"/>
				<v:ud v:nameU="CornerLockHoriz" v:prompt="" v:val="VT0(1):5"/>
				<v:ud v:nameU="CornerLockVert" v:prompt="" v:val="VT0(1):5"/>
				<v:ud v:nameU="CornerLockDiag" v:prompt="" v:val="VT0(0):5"/>
				<v:ud v:nameU="TopLeftOffset" v:prompt="" v:val="VT0(0.15748031496063):24"/>
				<v:ud v:nameU="TopRightOffset" v:prompt="" v:val="VT0(0.15748031496063):24"/>
				<v:ud v:nameU="BotLeftOffset" v:prompt="" v:val="VT0(0.15748031496063):24"/>
				<v:ud v:nameU="BotRightOffset" v:prompt="" v:val="VT0(0.15748031496063):24"/>
				<v:ud v:nameU="visVersion" v:prompt="" v:val="VT0(15):26"/>
			</v:userDefs>
			<v:textBlock v:margins="rect(4,4,4,4)" v:tabSpace="42.5197"/>
			<v:textRect cx="56.6929" cy="234.222" width="113.39" height="22.6772"/>
			<path d="M11.34 245.56 L102.05 245.56 A11.3384 11.3384 -180 0 0 113.39 234.22 A11.3384 11.3384 -180 0 0 102.05 222.88
						 L11.34 222.88 A11.3384 11.3384 -180 0 0 0 234.22 A11.3384 11.3384 -180 0 0 11.34 245.56 Z" class="st1"/>
			<text x="49.22" y="236.92" class="st3" v:langID="1033"><v:paragraph v:horizAlign="1"/><v:tabList/>End</text>		</g>
		<g id="shape997-10" v:mID="997" v:groupContext="shape" v:layerMember="0" transform="translate(252.406,-213.036)">
			<title>Dynamic connector.997</title>
			<v:userDefs>
				<v:ud v:nameU="visVersion" v:val="VT0(15):26"/>
			</v:userDefs>
			<path d="M0 245.56 C0 256.19 15.76 256.19 31.51 256.19 C44.14 256.19 56.77 256.19 61.2 260.62 L61.34 260.95"
					class="st4"/>
		</g>
		<g id="shape1035-16" v:mID="1035" v:groupContext="shape" transform="translate(320.071,-125.91)">
			<title>Rounded Rectangle.1035</title>
			<desc>Zonal statistics as table</desc>
			<v:userDefs>
				<v:ud v:nameU="CTypeTopLeftSnip" v:prompt="" v:val="VT0(0):5"/>
				<v:ud v:nameU="CTypeTopRightSnip" v:prompt="" v:val="VT0(0):5"/>
				<v:ud v:nameU="CTypeBotLeftSnip" v:prompt="" v:val="VT0(0):5"/>
				<v:ud v:nameU="CTypeBotRightSnip" v:prompt="" v:val="VT0(0):5"/>
				<v:ud v:nameU="CornerLockHoriz" v:prompt="" v:val="VT0(1):5"/>
				<v:ud v:nameU="CornerLockVert" v:prompt="" v:val="VT0(1):5"/>
				<v:ud v:nameU="CornerLockDiag" v:prompt="" v:val="VT0(0):5"/>
				<v:ud v:nameU="TopLeftOffset" v:prompt="" v:val="VT0(0.15748031496063):24"/>
				<v:ud v:nameU="TopRightOffset" v:prompt="" v:val="VT0(0.15748031496063):24"/>
				<v:ud v:nameU="BotLeftOffset" v:prompt="" v:val="VT0(0.15748031496063):24"/>
				<v:ud v:nameU="BotRightOffset" v:prompt="" v:val="VT0(0.15748031496063):24"/>
				<v:ud v:nameU="visVersion" v:prompt="" v:val="VT0(15):26"/>
				<v:ud v:nameU="TopLeftOffset" v:prompt="" v:val="VT0(0.15748031969087):24"/>
				<v:ud v:nameU="TopRightOffset" v:prompt="" v:val="VT0(0.15748031969087):24"/>
				<v:ud v:nameU="BotLeftOffset" v:prompt="" v:val="VT0(0.15748031969087):24"/>
				<v:ud v:nameU="BotRightOffset" v:prompt="" v:val="VT0(0.15748031969087):24"/>
			</v:userDefs>
			<v:textBlock v:margins="rect(4,4,4,4)" v:tabSpace="42.5197"/>
			<v:textRect cx="56.6929" cy="234.222" width="113.39" height="22.6772"/>
			<path d="M11.34 245.56 L102.05 245.56 A11.3384 11.3384 -180 0 0 113.39 234.22 A11.3384 11.3384 -180 0 0 102.05 222.88
						 L11.34 222.88 A11.3384 11.3384 -180 0 0 -0 234.22 A11.3384 11.3384 -180 0 0 11.34 245.56 Z" class="st6"/>
			<text x="10.91" y="236.92" class="st3" v:langID="1033"><v:paragraph v:horizAlign="1"/><v:tabList/>Zonal statistics as table</text>		</g>
		<g id="shape1071-21" v:mID="1071" v:groupContext="shape" transform="translate(258.573,-171.264)">
			<title>Rounded Rectangle.1071</title>
			<desc>ETR grid</desc>
			<v:userDefs>
				<v:ud v:nameU="CTypeTopLeftSnip" v:prompt="" v:val="VT0(0):5"/>
				<v:ud v:nameU="CTypeTopRightSnip" v:prompt="" v:val="VT0(0):5"/>
				<v:ud v:nameU="CTypeBotLeftSnip" v:prompt="" v:val="VT0(0):5"/>
				<v:ud v:nameU="CTypeBotRightSnip" v:prompt="" v:val="VT0(0):5"/>
				<v:ud v:nameU="CornerLockHoriz" v:prompt="" v:val="VT0(1):5"/>
				<v:ud v:nameU="CornerLockVert" v:prompt="" v:val="VT0(1):5"/>
				<v:ud v:nameU="CornerLockDiag" v:prompt="" v:val="VT0(0):5"/>
				<v:ud v:nameU="TopLeftOffset" v:prompt="" v:val="VT0(0.15748031496063):24"/>
				<v:ud v:nameU="TopRightOffset" v:prompt="" v:val="VT0(0.15748031496063):24"/>
				<v:ud v:nameU="BotLeftOffset" v:prompt="" v:val="VT0(0.15748031496063):24"/>
				<v:ud v:nameU="BotRightOffset" v:prompt="" v:val="VT0(0.15748031496063):24"/>
				<v:ud v:nameU="visVersion" v:prompt="" v:val="VT0(15):26"/>
			</v:userDefs>
			<v:textBlock v:margins="rect(4,4,4,4)" v:tabSpace="42.5197"/>
			<v:textRect cx="56.6929" cy="234.222" width="113.39" height="22.6772"/>
			<path d="M11.34 245.56 L102.05 245.56 A11.3384 11.3384 -180 0 0 113.39 234.22 A11.3384 11.3384 -180 0 0 102.05 222.88
						 L11.34 222.88 A11.3384 11.3384 -180 0 0 0 234.22 A11.3384 11.3384 -180 0 0 11.34 245.56 Z" class="st8"/>
			<text x="40.18" y="236.92" class="st3" v:langID="1033"><v:paragraph v:horizAlign="1"/><v:tabList/>ETR grid</text>		</g>
		<g id="shape1075-26" v:mID="1075" v:groupContext="shape" transform="translate(382.022,-171.264)">
			<title>Rounded Rectangle.1075</title>
			<desc>SZH polygons</desc>
			<v:userDefs>
				<v:ud v:nameU="CTypeTopLeftSnip" v:prompt="" v:val="VT0(0):5"/>
				<v:ud v:nameU="CTypeTopRightSnip" v:prompt="" v:val="VT0(0):5"/>
				<v:ud v:nameU="CTypeBotLeftSnip" v:prompt="" v:val="VT0(0):5"/>
				<v:ud v:nameU="CTypeBotRightSnip" v:prompt="" v:val="VT0(0):5"/>
				<v:ud v:nameU="CornerLockHoriz" v:prompt="" v:val="VT0(1):5"/>
				<v:ud v:nameU="CornerLockVert" v:prompt="" v:val="VT0(1):5"/>
				<v:ud v:nameU="CornerLockDiag" v:prompt="" v:val="VT0(0):5"/>
				<v:ud v:nameU="TopLeftOffset" v:prompt="" v:val="VT0(0.15748031496063):24"/>
				<v:ud v:nameU="TopRightOffset" v:prompt="" v:val="VT0(0.15748031496063):24"/>
				<v:ud v:nameU="BotLeftOffset" v:prompt="" v:val="VT0(0.15748031496063):24"/>
				<v:ud v:nameU="BotRightOffset" v:prompt="" v:val="VT0(0.15748031496063):24"/>
				<v:ud v:nameU="visVersion" v:prompt="" v:val="VT0(15):26"/>
			</v:userDefs>
			<v:textBlock v:margins="rect(4,4,4,4)" v:tabSpace="42.5197"/>
			<v:textRect cx="56.6929" cy="234.222" width="113.39" height="22.6772"/>
			<path d="M11.34 245.56 L102.05 245.56 A11.3384 11.3384 -180 0 0 113.39 234.22 A11.3384 11.3384 -180 0 0 102.05 222.88
						 L11.34 222.88 A11.3384 11.3384 -180 0 0 0 234.22 A11.3384 11.3384 -180 0 0 11.34 245.56 Z" class="st10"/>
			<text x="29.02" y="236.92" class="st3" v:langID="1033"><v:paragraph v:horizAlign="1"/><v:tabList/>SZH polygons</text>		</g>
		<g id="shape1076-31" v:mID="1076" v:groupContext="shape" v:layerMember="0" transform="translate(252.406,-213.036)">
			<title>Dynamic connector.1076</title>
			<v:userDefs>
				<v:ud v:nameU="visVersion" v:val="VT0(15):26"/>
			</v:userDefs>
			<path d="M0 245.56 C0 256.19 18.7 256.19 34.59 256.19 C58.28 256.19 75.72 256.19 93.16 256.19 C110.6 256.19 128.05 256.19
						 151.76 256.19 C164.63 256.19 179.35 256.19 184.45 260.7 L184.61 261.03" class="st4"/>
		</g>
		<g id="shape1077-36" v:mID="1077" v:groupContext="shape" v:layerMember="0" transform="translate(438.715,-171.264)">
			<title>Dynamic connector.1077</title>
			<v:userDefs>
				<v:ud v:nameU="visVersion" v:val="VT0(15):26"/>
			</v:userDefs>
			<path d="M0 245.56 C-0 256.19 -15.46 256.19 -30.91 256.19 C-44.32 256.19 -57.72 256.19 -61.12 263.95 L-61.19 264.3"
					class="st4"/>
		</g>
		<g id="shape1150-41" v:mID="1150" v:groupContext="shape" v:layerMember="0" transform="translate(383.714,-126.658)">
			<title>Dynamic connector.1150</title>
			<v:userDefs>
				<v:ud v:nameU="visVersion" v:val="VT0(15):26"/>
			</v:userDefs>
			<path d="M-6.95 246.31 C-6.95 248.97 -6.95 249.85 -6.95 250.57 C-6.95 250.93 -6.95 251.24 -6.98 251.42 C-7.03 251.62
						 -7.12 251.62 -7.17 251.81 C-7.22 252.03 -7.22 252.51 -7.22 253.04 C-7.22 253.47 -7.22 253.95 -7.22 254.62"
					class="st12"/>
		</g>
		<g id="shape1151-47" v:mID="1151" v:groupContext="shape" transform="translate(134.21,-171.264)">
			<title>Rounded Rectangle.1151</title>
			<desc>Rain grid</desc>
			<v:userDefs>
				<v:ud v:nameU="CTypeTopLeftSnip" v:prompt="" v:val="VT0(0):5"/>
				<v:ud v:nameU="CTypeTopRightSnip" v:prompt="" v:val="VT0(0):5"/>
				<v:ud v:nameU="CTypeBotLeftSnip" v:prompt="" v:val="VT0(0):5"/>
				<v:ud v:nameU="CTypeBotRightSnip" v:prompt="" v:val="VT0(0):5"/>
				<v:ud v:nameU="CornerLockHoriz" v:prompt="" v:val="VT0(1):5"/>
				<v:ud v:nameU="CornerLockVert" v:prompt="" v:val="VT0(1):5"/>
				<v:ud v:nameU="CornerLockDiag" v:prompt="" v:val="VT0(0):5"/>
				<v:ud v:nameU="TopLeftOffset" v:prompt="" v:val="VT0(0.15748031496063):24"/>
				<v:ud v:nameU="TopRightOffset" v:prompt="" v:val="VT0(0.15748031496063):24"/>
				<v:ud v:nameU="BotLeftOffset" v:prompt="" v:val="VT0(0.15748031496063):24"/>
				<v:ud v:nameU="BotRightOffset" v:prompt="" v:val="VT0(0.15748031496063):24"/>
				<v:ud v:nameU="visVersion" v:prompt="" v:val="VT0(15):26"/>
			</v:userDefs>
			<v:textBlock v:margins="rect(4,4,4,4)" v:tabSpace="42.5197"/>
			<v:textRect cx="56.6929" cy="234.222" width="113.39" height="22.6772"/>
			<path d="M11.34 245.56 L102.05 245.56 A11.3384 11.3384 -180 0 0 113.39 234.22 A11.3384 11.3384 -180 0 0 102.05 222.88
						 L11.34 222.88 A11.3384 11.3384 -180 0 0 0 234.22 A11.3384 11.3384 -180 0 0 11.34 245.56 Z" class="st8"/>
			<text x="38.89" y="236.92" class="st3" v:langID="1033"><v:paragraph v:horizAlign="1"/><v:tabList/>Rain grid</text>		</g>
		<g id="shape1152-51" v:mID="1152" v:groupContext="shape" transform="translate(72.0368,-125.91)">
			<title>Rounded Rectangle.1152</title>
			<desc>Zonal statistics as table</desc>
			<v:userDefs>
				<v:ud v:nameU="CTypeTopLeftSnip" v:prompt="" v:val="VT0(0):5"/>
				<v:ud v:nameU="CTypeTopRightSnip" v:prompt="" v:val="VT0(0):5"/>
				<v:ud v:nameU="CTypeBotLeftSnip" v:prompt="" v:val="VT0(0):5"/>
				<v:ud v:nameU="CTypeBotRightSnip" v:prompt="" v:val="VT0(0):5"/>
				<v:ud v:nameU="CornerLockHoriz" v:prompt="" v:val="VT0(1):5"/>
				<v:ud v:nameU="CornerLockVert" v:prompt="" v:val="VT0(1):5"/>
				<v:ud v:nameU="CornerLockDiag" v:prompt="" v:val="VT0(0):5"/>
				<v:ud v:nameU="TopLeftOffset" v:prompt="" v:val="VT0(0.15748031496063):24"/>
				<v:ud v:nameU="TopRightOffset" v:prompt="" v:val="VT0(0.15748031496063):24"/>
				<v:ud v:nameU="BotLeftOffset" v:prompt="" v:val="VT0(0.15748031496063):24"/>
				<v:ud v:nameU="BotRightOffset" v:prompt="" v:val="VT0(0.15748031496063):24"/>
				<v:ud v:nameU="visVersion" v:prompt="" v:val="VT0(15):26"/>
				<v:ud v:nameU="TopLeftOffset" v:prompt="" v:val="VT0(0.15748031969087):24"/>
				<v:ud v:nameU="TopRightOffset" v:prompt="" v:val="VT0(0.15748031969087):24"/>
				<v:ud v:nameU="BotLeftOffset" v:prompt="" v:val="VT0(0.15748031969087):24"/>
				<v:ud v:nameU="BotRightOffset" v:prompt="" v:val="VT0(0.15748031969087):24"/>
			</v:userDefs>
			<v:textBlock v:margins="rect(4,4,4,4)" v:tabSpace="42.5197"/>
			<v:textRect cx="56.6929" cy="234.222" width="113.39" height="22.6772"/>
			<path d="M11.34 245.56 L102.05 245.56 A11.3384 11.3384 -180 0 0 113.39 234.22 A11.3384 11.3384 -180 0 0 102.05 222.88
						 L11.34 222.88 A11.3384 11.3384 -180 0 0 -0 234.22 A11.3384 11.3384 -180 0 0 11.34 245.56 Z" class="st6"/>
			<text x="10.91" y="236.92" class="st3" v:langID="1033"><v:paragraph v:horizAlign="1"/><v:tabList/>Zonal statistics as table</text>		</g>
		<g id="shape1153-55" v:mID="1153" v:groupContext="shape" v:layerMember="0" transform="translate(252.406,-213.036)">
			<title>Dynamic connector.1153</title>
			<v:userDefs>
				<v:ud v:nameU="visVersion" v:val="VT0(15):26"/>
			</v:userDefs>
			<path d="M0 245.56 C0 256.19 -15.42 256.19 -30.83 256.19 C-43.18 256.19 -55.52 256.19 -59.87 260.61 L-60 260.94"
					class="st4"/>
		</g>
		<g id="shape1154-60" v:mID="1154" v:groupContext="shape" v:layerMember="0" transform="translate(190.903,-171.264)">
			<title>Dynamic connector.1154</title>
			<v:userDefs>
				<v:ud v:nameU="visVersion" v:val="VT0(15):26"/>
			</v:userDefs>
			<path d="M0 245.56 C-0 256.19 -15.51 256.19 -31.02 256.19 C-44.48 256.19 -57.93 256.19 -61.34 263.95 L-61.41 264.31"
					class="st4"/>
		</g>
		<g id="shape1155-65" v:mID="1155" v:groupContext="shape" v:layerMember="0" transform="translate(315.266,-171.264)">
			<title>Dynamic connector.1155</title>
			<v:userDefs>
				<v:ud v:nameU="visVersion" v:val="VT0(15):26"/>
			</v:userDefs>
			<path d="M0 245.56 C-0 256.19 -18.73 256.19 -34.64 256.19 C-58.35 256.19 -75.81 256.19 -93.26 256.19 C-110.72 256.19
						 -128.17 256.19 -151.86 256.19 C-165.64 256.19 -181.52 256.19 -185.56 263.98 L-185.64 264.33" class="st4"/>
		</g>
		<g id="shape1156-70" v:mID="1156" v:groupContext="shape" transform="translate(72.0368,-90.5557)">
			<title>Rounded Rectangle.1156</title>
			<desc>ZE zonal statistics</desc>
			<v:userDefs>
				<v:ud v:nameU="CTypeTopLeftSnip" v:prompt="" v:val="VT0(0):5"/>
				<v:ud v:nameU="CTypeTopRightSnip" v:prompt="" v:val="VT0(0):5"/>
				<v:ud v:nameU="CTypeBotLeftSnip" v:prompt="" v:val="VT0(0):5"/>
				<v:ud v:nameU="CTypeBotRightSnip" v:prompt="" v:val="VT0(0):5"/>
				<v:ud v:nameU="CornerLockHoriz" v:prompt="" v:val="VT0(1):5"/>
				<v:ud v:nameU="CornerLockVert" v:prompt="" v:val="VT0(1):5"/>
				<v:ud v:nameU="CornerLockDiag" v:prompt="" v:val="VT0(0):5"/>
				<v:ud v:nameU="TopLeftOffset" v:prompt="" v:val="VT0(0.15748031496063):24"/>
				<v:ud v:nameU="TopRightOffset" v:prompt="" v:val="VT0(0.15748031496063):24"/>
				<v:ud v:nameU="BotLeftOffset" v:prompt="" v:val="VT0(0.15748031496063):24"/>
				<v:ud v:nameU="BotRightOffset" v:prompt="" v:val="VT0(0.15748031496063):24"/>
				<v:ud v:nameU="visVersion" v:prompt="" v:val="VT0(15):26"/>
			</v:userDefs>
			<v:textBlock v:margins="rect(4,4,4,4)" v:tabSpace="42.5197"/>
			<v:textRect cx="56.6929" cy="234.222" width="113.39" height="22.6772"/>
			<path d="M11.34 245.56 L102.05 245.56 A11.3384 11.3384 -180 0 0 113.39 234.22 A11.3384 11.3384 -180 0 0 102.05 222.88
						 L11.34 222.88 A11.3384 11.3384 -180 0 0 0 234.22 A11.3384 11.3384 -180 0 0 11.34 245.56 Z" class="st13"/>
			<text x="21.94" y="236.92" class="st3" v:langID="1033"><v:paragraph v:horizAlign="1"/><v:tabList/>ZE zonal statistics</text>		</g>
		<g id="shape1157-75" v:mID="1157" v:groupContext="shape" v:layerMember="0" transform="translate(121.643,-126.658)">
			<title>Dynamic connector.1157</title>
			<v:userDefs>
				<v:ud v:nameU="visVersion" v:val="VT0(15):26"/>
			</v:userDefs>
			<path d="M7.09 246.31 C7.09 248.34 7.09 251.66 7.09 254.62" class="st12"/>
		</g>
		<g id="shape1162-80" v:mID="1162" v:groupContext="shape" transform="translate(9.84707,-171.264)">
			<title>Rounded Rectangle.1162</title>
			<desc>ZE polygon</desc>
			<v:userDefs>
				<v:ud v:nameU="CTypeTopLeftSnip" v:prompt="" v:val="VT0(0):5"/>
				<v:ud v:nameU="CTypeTopRightSnip" v:prompt="" v:val="VT0(0):5"/>
				<v:ud v:nameU="CTypeBotLeftSnip" v:prompt="" v:val="VT0(0):5"/>
				<v:ud v:nameU="CTypeBotRightSnip" v:prompt="" v:val="VT0(0):5"/>
				<v:ud v:nameU="CornerLockHoriz" v:prompt="" v:val="VT0(1):5"/>
				<v:ud v:nameU="CornerLockVert" v:prompt="" v:val="VT0(1):5"/>
				<v:ud v:nameU="CornerLockDiag" v:prompt="" v:val="VT0(0):5"/>
				<v:ud v:nameU="TopLeftOffset" v:prompt="" v:val="VT0(0.15748031496063):24"/>
				<v:ud v:nameU="TopRightOffset" v:prompt="" v:val="VT0(0.15748031496063):24"/>
				<v:ud v:nameU="BotLeftOffset" v:prompt="" v:val="VT0(0.15748031496063):24"/>
				<v:ud v:nameU="BotRightOffset" v:prompt="" v:val="VT0(0.15748031496063):24"/>
				<v:ud v:nameU="visVersion" v:prompt="" v:val="VT0(15):26"/>
			</v:userDefs>
			<v:textBlock v:margins="rect(4,4,4,4)" v:tabSpace="42.5197"/>
			<v:textRect cx="56.6929" cy="234.222" width="113.39" height="22.6772"/>
			<path d="M11.34 245.56 L102.05 245.56 A11.3384 11.3384 -180 0 0 113.39 234.22 A11.3384 11.3384 -180 0 0 102.05 222.88
						 L11.34 222.88 A11.3384 11.3384 -180 0 0 0 234.22 A11.3384 11.3384 -180 0 0 11.34 245.56 Z" class="st10"/>
			<text x="34.23" y="236.92" class="st3" v:langID="1033"><v:paragraph v:horizAlign="1"/><v:tabList/>ZE polygon</text>		</g>
		<g id="shape1163-84" v:mID="1163" v:groupContext="shape" v:layerMember="0" transform="translate(252.406,-213.036)">
			<title>Dynamic connector.1163</title>
			<v:userDefs>
				<v:ud v:nameU="visVersion" v:val="VT0(15):26"/>
			</v:userDefs>
			<path d="M0 245.56 C-0 256.19 -18.66 256.19 -34.51 256.19 C-58.14 256.19 -75.54 256.19 -92.94 256.19 C-110.34 256.19
						 -127.75 256.19 -151.4 256.19 C-164.24 256.19 -178.92 256.19 -184.01 260.7 L-184.16 261.03" class="st4"/>
		</g>
		<g id="shape1165-89" v:mID="1165" v:groupContext="shape" v:layerMember="0" transform="translate(66.54,-171.264)">
			<title>Dynamic connector.1165</title>
			<v:userDefs>
				<v:ud v:nameU="visVersion" v:val="VT0(15):26"/>
			</v:userDefs>
			<path d="M0 245.56 C0 256.19 15.52 256.19 31.03 256.19 C44.49 256.19 57.94 256.19 61.36 263.95 L61.43 264.31"
					class="st4"/>
		</g>
		<g id="shape1176-94" v:mID="1176" v:groupContext="shape" transform="translate(319.797,-90.5557)">
			<title>Rounded Rectangle.1176</title>
			<desc>SZH zonal statistics</desc>
			<v:userDefs>
				<v:ud v:nameU="CTypeTopLeftSnip" v:prompt="" v:val="VT0(0):5"/>
				<v:ud v:nameU="CTypeTopRightSnip" v:prompt="" v:val="VT0(0):5"/>
				<v:ud v:nameU="CTypeBotLeftSnip" v:prompt="" v:val="VT0(0):5"/>
				<v:ud v:nameU="CTypeBotRightSnip" v:prompt="" v:val="VT0(0):5"/>
				<v:ud v:nameU="CornerLockHoriz" v:prompt="" v:val="VT0(1):5"/>
				<v:ud v:nameU="CornerLockVert" v:prompt="" v:val="VT0(1):5"/>
				<v:ud v:nameU="CornerLockDiag" v:prompt="" v:val="VT0(0):5"/>
				<v:ud v:nameU="TopLeftOffset" v:prompt="" v:val="VT0(0.15748031496063):24"/>
				<v:ud v:nameU="TopRightOffset" v:prompt="" v:val="VT0(0.15748031496063):24"/>
				<v:ud v:nameU="BotLeftOffset" v:prompt="" v:val="VT0(0.15748031496063):24"/>
				<v:ud v:nameU="BotRightOffset" v:prompt="" v:val="VT0(0.15748031496063):24"/>
				<v:ud v:nameU="visVersion" v:prompt="" v:val="VT0(15):26"/>
			</v:userDefs>
			<v:textBlock v:margins="rect(4,4,4,4)" v:tabSpace="42.5197"/>
			<v:textRect cx="56.6929" cy="234.222" width="113.39" height="22.6772"/>
			<path d="M11.34 245.56 L102.05 245.56 A11.3384 11.3384 -180 0 0 113.39 234.22 A11.3384 11.3384 -180 0 0 102.05 222.88
						 L11.34 222.88 A11.3384 11.3384 -180 0 0 0 234.22 A11.3384 11.3384 -180 0 0 11.34 245.56 Z" class="st13"/>
			<text x="18.63" y="236.92" class="st3" v:langID="1033"><v:paragraph v:horizAlign="1"/><v:tabList/>SZH zonal statistics</text>		</g>
		<g id="shape1177-98" v:mID="1177" v:groupContext="shape" v:layerMember="0" transform="translate(315.266,-171.264)">
			<title>Dynamic connector.1177</title>
			<v:userDefs>
				<v:ud v:nameU="visVersion" v:val="VT0(15):26"/>
			</v:userDefs>
			<path d="M0 245.56 C-0 256.19 15.34 256.19 30.69 256.19 C43.99 256.19 57.3 256.19 60.68 263.95 L60.75 264.3"
					class="st4"/>
		</g>
		<g id="shape1178-103" v:mID="1178" v:groupContext="shape" v:layerMember="0" transform="translate(190.903,-171.264)">
			<title>Dynamic connector.1178</title>
			<v:userDefs>
				<v:ud v:nameU="visVersion" v:val="VT0(15):26"/>
			</v:userDefs>
			<path d="M0 245.56 C0 252.65 18.62 252.65 34.44 252.65 C58.11 252.65 75.52 252.65 92.91 252.65 C110.29 252.65 127.66
						 252.65 151.2 252.65 C165.49 252.65 182.04 252.65 185.29 263.91 L185.34 264.27" class="st4"/>
		</g>
		<g id="shape1179-108" v:mID="1179" v:groupContext="shape" transform="translate(72.0368,-55.2014)">
			<title>Rounded Rectangle.1179</title>
			<desc>ZE LTWB Flow = (( P – E ) * A) / t</desc>
			<v:userDefs>
				<v:ud v:nameU="CTypeTopLeftSnip" v:prompt="" v:val="VT0(0):5"/>
				<v:ud v:nameU="CTypeTopRightSnip" v:prompt="" v:val="VT0(0):5"/>
				<v:ud v:nameU="CTypeBotLeftSnip" v:prompt="" v:val="VT0(0):5"/>
				<v:ud v:nameU="CTypeBotRightSnip" v:prompt="" v:val="VT0(0):5"/>
				<v:ud v:nameU="CornerLockHoriz" v:prompt="" v:val="VT0(1):5"/>
				<v:ud v:nameU="CornerLockVert" v:prompt="" v:val="VT0(1):5"/>
				<v:ud v:nameU="CornerLockDiag" v:prompt="" v:val="VT0(0):5"/>
				<v:ud v:nameU="TopLeftOffset" v:prompt="" v:val="VT0(0.15748031496063):24"/>
				<v:ud v:nameU="TopRightOffset" v:prompt="" v:val="VT0(0.15748031496063):24"/>
				<v:ud v:nameU="BotLeftOffset" v:prompt="" v:val="VT0(0.15748031496063):24"/>
				<v:ud v:nameU="BotRightOffset" v:prompt="" v:val="VT0(0.15748031496063):24"/>
				<v:ud v:nameU="visVersion" v:prompt="" v:val="VT0(15):26"/>
			</v:userDefs>
			<v:textBlock v:margins="rect(4,4,4,4)" v:tabSpace="42.5197"/>
			<v:textRect cx="56.6929" cy="234.222" width="113.39" height="22.6772"/>
			<path d="M11.34 245.56 L102.05 245.56 A11.3384 11.3384 -180 0 0 113.39 234.22 A11.3384 11.3384 -180 0 0 102.05 222.88
						 L11.34 222.88 A11.3384 11.3384 -180 0 0 0 234.22 A11.3384 11.3384 -180 0 0 11.34 245.56 Z" class="st15"/>
			<text x="39.36" y="231.52" class="st3" v:langID="1033"><v:paragraph v:horizAlign="1"/><v:tabList/>ZE LTWB<v:newlineChar/><tspan
						x="11.58" dy="1.2em" class="st16">Flow = (( P </tspan>– E ) * A) / t</text>		</g>
		<g id="shape1182-113" v:mID="1182" v:groupContext="shape" transform="translate(319.797,-55.2014)">
			<title>Rounded Rectangle.1182</title>
			<desc>SZH LTWB Flow = (( P – E ) * A) / t</desc>
			<v:userDefs>
				<v:ud v:nameU="CTypeTopLeftSnip" v:prompt="" v:val="VT0(0):5"/>
				<v:ud v:nameU="CTypeTopRightSnip" v:prompt="" v:val="VT0(0):5"/>
				<v:ud v:nameU="CTypeBotLeftSnip" v:prompt="" v:val="VT0(0):5"/>
				<v:ud v:nameU="CTypeBotRightSnip" v:prompt="" v:val="VT0(0):5"/>
				<v:ud v:nameU="CornerLockHoriz" v:prompt="" v:val="VT0(1):5"/>
				<v:ud v:nameU="CornerLockVert" v:prompt="" v:val="VT0(1):5"/>
				<v:ud v:nameU="CornerLockDiag" v:prompt="" v:val="VT0(0):5"/>
				<v:ud v:nameU="TopLeftOffset" v:prompt="" v:val="VT0(0.15748031496063):24"/>
				<v:ud v:nameU="TopRightOffset" v:prompt="" v:val="VT0(0.15748031496063):24"/>
				<v:ud v:nameU="BotLeftOffset" v:prompt="" v:val="VT0(0.15748031496063):24"/>
				<v:ud v:nameU="BotRightOffset" v:prompt="" v:val="VT0(0.15748031496063):24"/>
				<v:ud v:nameU="visVersion" v:prompt="" v:val="VT0(15):26"/>
			</v:userDefs>
			<v:textBlock v:margins="rect(4,4,4,4)" v:tabSpace="42.5197"/>
			<v:textRect cx="56.6929" cy="234.222" width="113.39" height="22.6772"/>
			<path d="M11.34 245.56 L102.05 245.56 A11.3384 11.3384 -180 0 0 113.39 234.22 A11.3384 11.3384 -180 0 0 102.05 222.88
						 L11.34 222.88 A11.3384 11.3384 -180 0 0 0 234.22 A11.3384 11.3384 -180 0 0 11.34 245.56 Z" class="st15"/>
			<text x="36.05" y="231.52" class="st3" v:langID="1033"><v:paragraph v:horizAlign="1"/><v:tabList/>SZH LTWB<v:newlineChar/><tspan
						x="11.58" dy="1.2em" class="st16">Flow = (( P </tspan>– E ) * A) / t</text>		</g>
		<g id="shape1183-118" v:mID="1183" v:groupContext="shape" v:layerMember="0" transform="translate(121.643,-91.3038)">
			<title>Dynamic connector.1183</title>
			<v:userDefs>
				<v:ud v:nameU="visVersion" v:val="VT0(15):26"/>
			</v:userDefs>
			<path d="M7.09 246.31 C7.09 248.34 7.09 251.66 7.09 254.62" class="st12"/>
		</g>
		<g id="shape1184-123" v:mID="1184" v:groupContext="shape" v:layerMember="0" transform="translate(369.403,-91.3038)">
			<title>Dynamic connector.1184</title>
			<v:userDefs>
				<v:ud v:nameU="visVersion" v:val="VT0(15):26"/>
			</v:userDefs>
			<path d="M7.09 246.31 C7.09 248.34 7.09 251.66 7.09 254.62" class="st12"/>
		</g>
		<g id="shape1185-128" v:mID="1185" v:groupContext="shape" v:layerMember="0" transform="translate(128.73,-55.2014)">
			<title>Dynamic connector.1185</title>
			<v:userDefs>
				<v:ud v:nameU="visVersion" v:val="VT0(15):26"/>
			</v:userDefs>
			<path d="M0 245.56 C-0 256.19 12.35 256.19 22.84 256.19 C38.33 256.19 49.77 256.19 61.19 256.19 C72.62 256.19 84.04 256.19
						 99.51 256.19 C108.57 256.19 119.03 256.19 121.73 263.92 L121.79 264.28" class="st4"/>
		</g>
		<g id="shape1186-133" v:mID="1186" v:groupContext="shape" v:layerMember="0" transform="translate(376.49,-55.2014)">
			<title>Dynamic connector.1186</title>
			<v:userDefs>
				<v:ud v:nameU="visVersion" v:val="VT0(15):26"/>
			</v:userDefs>
			<path d="M0 245.56 C0 256.19 -12.64 256.19 -23.38 256.19 C-39.26 256.19 -50.97 256.19 -62.68 256.19 C-74.38 256.19 -86.08
						 256.19 -101.93 256.19 C-111.21 256.19 -121.92 256.19 -124.69 263.93 L-124.74 264.28" class="st4"/>
		</g>
	</g>
</svg>
