<?xml version="1.0" encoding="UTF-8" standalone="no"?>
<!DOCTYPE svg PUBLIC "-//W3C//DTD SVG 1.1//EN" "http://www.w3.org/Graphics/SVG/1.1/DTD/svg11.dtd">
<!-- Generated by Microsoft Visio, SVG Export Outlier.svg Page-1 -->
<svg xmlns="http://www.w3.org/2000/svg" xmlns:xlink="http://www.w3.org/1999/xlink" xmlns:ev="http://www.w3.org/2001/xml-events"
		xmlns:v="http://schemas.microsoft.com/visio/2003/SVGExtensions/" width="8.16536in" height="5.85787in"
		viewBox="0 0 587.906 421.766" xml:space="preserve" color-interpolation-filters="sRGB" class="st17">
	<v:documentProperties v:langID="1033" v:metric="true" v:viewMarkup="false"/>

	<style type="text/css">
	<![CDATA[
		.st1 {fill:#f2f2f2;stroke:none;stroke-width:1.5}
		.st2 {fill:#fbbc0e;fill-opacity:1;stroke:#fbbc0e;stroke-opacity:1;stroke-width:0.37313432835821}
		.st3 {fill:#000000;font-family:Segoe UI;font-size:0.75em}
		.st4 {marker-end:url(#mrkr6-11);stroke:#7f7f7f;stroke-linecap:round;stroke-linejoin:round;stroke-width:0.5}
		.st5 {fill:#7f7f7f;fill-opacity:1;stroke:#7f7f7f;stroke-opacity:1;stroke-width:0.25773195876289}
		.st6 {fill:#f2f2f2;stroke:#696368;stroke-width:1.5}
		.st7 {fill:#696368;fill-opacity:1;stroke:#696368;stroke-opacity:1;stroke-width:0.37313432835821}
		.st8 {fill:#f2f2f2;stroke:#ea4d35;stroke-dasharray:0.01,4.5;stroke-width:1.5}
		.st9 {fill:#ea4d35;fill-opacity:1;stroke:#ea4d35;stroke-opacity:1;stroke-width:0.37313432835821}
		.st10 {font-size:1em}
		.st11 {fill:#f2f2f2;stroke:#fbbc0e;stroke-width:1.5}
		.st12 {fill:#080808;font-family:Calibri;font-size:0.75em}
		.st13 {marker-end:url(#mrkr6-46);stroke:#7f7f7f;stroke-linecap:round;stroke-linejoin:round;stroke-width:0.5}
		.st14 {fill:#080808;font-family:Calibri;font-size:1em}
		.st15 {fill:#1750eb;font-family:Calibri;font-size:1em}
		.st16 {marker-end:url(#mrkr6-230);stroke:#7f7f7f;stroke-linecap:round;stroke-linejoin:round;stroke-width:0.5}
		.st17 {fill:none;fill-rule:evenodd;font-size:12px;overflow:visible;stroke-linecap:square;stroke-miterlimit:3}
	]]>
	</style>

	<defs id="Markers">
		<g id="lend6">
			<path d="M 2 1 L 0 0 L 2.01237 -1.00641 C 2.32921 -0.372876 2.32921 0.372869 2.01238 1.0064 " style="stroke:none"/>
		</g>
		<marker id="mrkr6-4" class="st2" v:arrowType="6" v:arrowSize="2" v:setback="6.03" refX="6.03" orient="auto"
				markerUnits="strokeWidth" overflow="visible">
			<use xlink:href="#lend6" transform="scale(2.68) "/>
		</marker>
		<marker id="mrkr6-11" class="st5" v:arrowType="6" v:arrowSize="0" v:setback="8.73" refX="-8.73" orient="auto"
				markerUnits="strokeWidth" overflow="visible">
			<use xlink:href="#lend6" transform="scale(-3.88,-3.88) "/>
		</marker>
		<marker id="mrkr6-15" class="st7" v:arrowType="6" v:arrowSize="2" v:setback="6.03" refX="6.03" orient="auto"
				markerUnits="strokeWidth" overflow="visible">
			<use xlink:href="#lend6" transform="scale(2.68) "/>
		</marker>
		<marker id="mrkr6-20" class="st9" v:arrowType="6" v:arrowSize="2" v:setback="6.03" refX="6.03" orient="auto"
				markerUnits="strokeWidth" overflow="visible">
			<use xlink:href="#lend6" transform="scale(2.68) "/>
		</marker>
		<marker id="mrkr6-46" class="st5" v:arrowType="6" v:arrowSize="0" v:setback="8.01" refX="-8.01" orient="auto"
				markerUnits="strokeWidth" overflow="visible">
			<use xlink:href="#lend6" transform="scale(-3.88,-3.88) "/>
		</marker>
		<marker id="mrkr6-230" class="st5" v:arrowType="6" v:arrowSize="0" v:setback="0" refX="-0" orient="auto"
				markerUnits="strokeWidth" overflow="visible">
			<use xlink:href="#lend6" transform="scale(-3.88,-3.88) "/>
		</marker>
	</defs>
	<g v:mID="0" v:index="1" v:groupContext="foregroundPage">
		<title>Page-1</title>
		<v:pageProperties v:drawingScale="0.0393701" v:pageScale="0.0393701" v:drawingUnits="24" v:shadowOffsetX="8.50394"
				v:shadowOffsetY="-8.50394"/>
		<v:layer v:name="Connector" v:index="0"/>
		<g id="shape577-1" v:mID="577" v:groupContext="shape" transform="translate(215.224,-389.242)">
			<title>Rounded Rectangle.577</title>
			<desc>Start</desc>
			<v:userDefs>
				<v:ud v:nameU="CTypeTopLeftSnip" v:prompt="" v:val="VT0(0):5"/>
				<v:ud v:nameU="CTypeTopRightSnip" v:prompt="" v:val="VT0(0):5"/>
				<v:ud v:nameU="CTypeBotLeftSnip" v:prompt="" v:val="VT0(0):5"/>
				<v:ud v:nameU="CTypeBotRightSnip" v:prompt="" v:val="VT0(0):5"/>
				<v:ud v:nameU="CornerLockHoriz" v:prompt="" v:val="VT0(1):5"/>
				<v:ud v:nameU="CornerLockVert" v:prompt="" v:val="VT0(1):5"/>
				<v:ud v:nameU="CornerLockDiag" v:prompt="" v:val="VT0(0):5"/>
				<v:ud v:nameU="TopLeftOffset" v:prompt="" v:val="VT0(0.15748031496063):24"/>
				<v:ud v:nameU="TopRightOffset" v:prompt="" v:val="VT0(0.15748031496063):24"/>
				<v:ud v:nameU="BotLeftOffset" v:prompt="" v:val="VT0(0.15748031496063):24"/>
				<v:ud v:nameU="BotRightOffset" v:prompt="" v:val="VT0(0.15748031496063):24"/>
				<v:ud v:nameU="visVersion" v:prompt="" v:val="VT0(15):26"/>
			</v:userDefs>
			<v:textBlock v:margins="rect(4,4,4,4)" v:tabSpace="42.5197"/>
			<v:textRect cx="62.3622" cy="410.428" width="124.73" height="22.6772"/>
			<path d="M11.34 421.77 L113.39 421.77 A11.3384 11.3384 -180 0 0 124.72 410.43 A11.3384 11.3384 -180 0 0 113.39 399.09
						 L11.34 399.09 A11.3384 11.3384 -180 0 0 0 410.43 A11.3384 11.3384 -180 0 0 11.34 421.77 Z" class="st1"/>
			<text x="53.07" y="413.13" class="st3" v:langID="1033"><v:paragraph v:horizAlign="1"/><v:tabList/>Start</text>		</g>
		<g id="shape578-6" v:mID="578" v:groupContext="shape" v:layerMember="0" transform="translate(270.5,-389.242)">
			<title>Dynamic connector.578</title>
			<v:userDefs>
				<v:ud v:nameU="visVersion" v:val="VT0(15):26"/>
			</v:userDefs>
			<path d="M7.09 421.77 C7.09 424.36 7.09 428.73 7.09 432.43" class="st4"/>
		</g>
		<g id="shape589-12" v:mID="589" v:groupContext="shape" transform="translate(215.224,-351.538)">
			<title>Rounded Rectangle.589</title>
			<desc>Parameter pivot table</desc>
			<v:userDefs>
				<v:ud v:nameU="CTypeTopLeftSnip" v:prompt="" v:val="VT0(0):5"/>
				<v:ud v:nameU="CTypeTopRightSnip" v:prompt="" v:val="VT0(0):5"/>
				<v:ud v:nameU="CTypeBotLeftSnip" v:prompt="" v:val="VT0(0):5"/>
				<v:ud v:nameU="CTypeBotRightSnip" v:prompt="" v:val="VT0(0):5"/>
				<v:ud v:nameU="CornerLockHoriz" v:prompt="" v:val="VT0(1):5"/>
				<v:ud v:nameU="CornerLockVert" v:prompt="" v:val="VT0(1):5"/>
				<v:ud v:nameU="CornerLockDiag" v:prompt="" v:val="VT0(0):5"/>
				<v:ud v:nameU="TopLeftOffset" v:prompt="" v:val="VT0(0.15748031496063):24"/>
				<v:ud v:nameU="TopRightOffset" v:prompt="" v:val="VT0(0.15748031496063):24"/>
				<v:ud v:nameU="BotLeftOffset" v:prompt="" v:val="VT0(0.15748031496063):24"/>
				<v:ud v:nameU="BotRightOffset" v:prompt="" v:val="VT0(0.15748031496063):24"/>
				<v:ud v:nameU="visVersion" v:prompt="" v:val="VT0(15):26"/>
			</v:userDefs>
			<v:textBlock v:margins="rect(4,4,4,4)" v:tabSpace="42.5197"/>
			<v:textRect cx="62.3622" cy="410.428" width="124.73" height="22.6772"/>
			<path d="M11.34 421.77 L113.39 421.77 A11.3384 11.3384 -180 0 0 124.72 410.43 A11.3384 11.3384 -180 0 0 113.39 399.09
						 L11.34 399.09 A11.3384 11.3384 -180 0 0 0 410.43 A11.3384 11.3384 -180 0 0 11.34 421.77 Z" class="st6"/>
			<text x="19.61" y="413.13" class="st3" v:langID="1033"><v:paragraph v:horizAlign="1"/><v:tabList/>Parameter pivot table</text>		</g>
		<g id="shape685-17" v:mID="685" v:groupContext="shape" transform="translate(214.658,-280.688)">
			<title>Rounded Rectangle.685</title>
			<desc>Pandas: dtypes, isnull, describe, statistics</desc>
			<v:userDefs>
				<v:ud v:nameU="CTypeTopLeftSnip" v:prompt="" v:val="VT0(0):5"/>
				<v:ud v:nameU="CTypeTopRightSnip" v:prompt="" v:val="VT0(0):5"/>
				<v:ud v:nameU="CTypeBotLeftSnip" v:prompt="" v:val="VT0(0):5"/>
				<v:ud v:nameU="CTypeBotRightSnip" v:prompt="" v:val="VT0(0):5"/>
				<v:ud v:nameU="CornerLockHoriz" v:prompt="" v:val="VT0(1):5"/>
				<v:ud v:nameU="CornerLockVert" v:prompt="" v:val="VT0(1):5"/>
				<v:ud v:nameU="CornerLockDiag" v:prompt="" v:val="VT0(0):5"/>
				<v:ud v:nameU="TopLeftOffset" v:prompt="" v:val="VT0(0.15748031496063):24"/>
				<v:ud v:nameU="TopRightOffset" v:prompt="" v:val="VT0(0.15748031496063):24"/>
				<v:ud v:nameU="BotLeftOffset" v:prompt="" v:val="VT0(0.15748031496063):24"/>
				<v:ud v:nameU="BotRightOffset" v:prompt="" v:val="VT0(0.15748031496063):24"/>
				<v:ud v:nameU="visVersion" v:prompt="" v:val="VT0(15):26"/>
			</v:userDefs>
			<v:textBlock v:margins="rect(4,4,4,4)" v:tabSpace="42.5197"/>
			<v:textRect cx="62.3622" cy="410.428" width="124.73" height="22.6772"/>
			<path d="M11.34 421.77 L113.39 421.77 A11.3384 11.3384 -180 0 0 124.72 410.43 A11.3384 11.3384 -180 0 0 113.39 399.09
						 L11.34 399.09 A11.3384 11.3384 -180 0 0 0 410.43 A11.3384 11.3384 -180 0 0 11.34 421.77 Z" class="st8"/>
			<text x="19.23" y="407.73" class="st3" v:langID="1033"><v:paragraph v:horizAlign="1"/><v:tabList/>Pandas: dtypes, isnull, <tspan
						x="26.66" dy="1.2em" class="st10">describe, statistics</tspan></text>		</g>
		<g id="shape686-23" v:mID="686" v:groupContext="shape" transform="translate(214.941,-315.541)">
			<title>Rounded Rectangle.686</title>
			<desc>pandas exclude stations</desc>
			<v:userDefs>
				<v:ud v:nameU="CTypeTopLeftSnip" v:prompt="" v:val="VT0(0):5"/>
				<v:ud v:nameU="CTypeTopRightSnip" v:prompt="" v:val="VT0(0):5"/>
				<v:ud v:nameU="CTypeBotLeftSnip" v:prompt="" v:val="VT0(0):5"/>
				<v:ud v:nameU="CTypeBotRightSnip" v:prompt="" v:val="VT0(0):5"/>
				<v:ud v:nameU="CornerLockHoriz" v:prompt="" v:val="VT0(1):5"/>
				<v:ud v:nameU="CornerLockVert" v:prompt="" v:val="VT0(1):5"/>
				<v:ud v:nameU="CornerLockDiag" v:prompt="" v:val="VT0(0):5"/>
				<v:ud v:nameU="TopLeftOffset" v:prompt="" v:val="VT0(0.15748031496063):24"/>
				<v:ud v:nameU="TopRightOffset" v:prompt="" v:val="VT0(0.15748031496063):24"/>
				<v:ud v:nameU="BotLeftOffset" v:prompt="" v:val="VT0(0.15748031496063):24"/>
				<v:ud v:nameU="BotRightOffset" v:prompt="" v:val="VT0(0.15748031496063):24"/>
				<v:ud v:nameU="visVersion" v:prompt="" v:val="VT0(15):26"/>
			</v:userDefs>
			<v:textBlock v:margins="rect(4,4,4,4)" v:tabSpace="42.5197"/>
			<v:textRect cx="62.3622" cy="410.428" width="124.73" height="22.6772"/>
			<path d="M11.34 421.77 L113.39 421.77 A11.3384 11.3384 -180 0 0 124.72 410.43 A11.3384 11.3384 -180 0 0 113.39 399.09
						 L11.34 399.09 A11.3384 11.3384 -180 0 0 0 410.43 A11.3384 11.3384 -180 0 0 11.34 421.77 Z" class="st8"/>
			<text x="15" y="413.13" class="st3" v:langID="1033"><v:paragraph v:horizAlign="1"/><v:tabList/>pandas exclude stations</text>		</g>
		<g id="shape702-27" v:mID="702" v:groupContext="shape" v:layerMember="0" transform="translate(284.248,-316.54)">
			<title>Dynamic connector.702</title>
			<v:userDefs>
				<v:ud v:nameU="visVersion" v:val="VT0(15):26"/>
			</v:userDefs>
			<path d="M-6.95 422.77 C-6.95 425.42 -6.95 426.31 -6.95 427.03 C-6.95 427.39 -6.95 427.71 -6.98 427.88 C-7.03 428.08
						 -7.12 428.08 -7.17 428.26 C-7.23 428.47 -7.23 428.91 -7.23 429.4 C-7.23 429.74 -7.23 430.1 -7.23 430.58"
					class="st4"/>
		</g>
		<g id="shape703-32" v:mID="703" v:groupContext="shape" v:layerMember="0" transform="translate(284.531,-351.965)">
			<title>Dynamic connector.703</title>
			<v:userDefs>
				<v:ud v:nameU="visVersion" v:val="VT0(15):26"/>
			</v:userDefs>
			<path d="M-6.94 422.19 C-6.94 424.85 -6.94 425.73 -6.94 426.45 C-6.94 426.8 -6.94 427.12 -6.98 427.29 C-7.02 427.51 -7.11
						 427.51 -7.17 427.71 C-7.23 427.94 -7.23 428.47 -7.23 429.04 C-7.23 429.6 -7.23 430.2 -7.23 431.15"
					class="st4"/>
		</g>
		<g id="shape704-37" v:mID="704" v:groupContext="shape" transform="translate(351.287,-350.395)">
			<title>Rounded Rectangle.592</title>
			<desc>station_exclude</desc>
			<v:userDefs>
				<v:ud v:nameU="CTypeTopLeftSnip" v:prompt="" v:val="VT0(0):5"/>
				<v:ud v:nameU="CTypeTopRightSnip" v:prompt="" v:val="VT0(0):5"/>
				<v:ud v:nameU="CTypeBotLeftSnip" v:prompt="" v:val="VT0(0):5"/>
				<v:ud v:nameU="CTypeBotRightSnip" v:prompt="" v:val="VT0(0):5"/>
				<v:ud v:nameU="CornerLockHoriz" v:prompt="" v:val="VT0(1):5"/>
				<v:ud v:nameU="CornerLockVert" v:prompt="" v:val="VT0(1):5"/>
				<v:ud v:nameU="CornerLockDiag" v:prompt="" v:val="VT0(0):5"/>
				<v:ud v:nameU="TopLeftOffset" v:prompt="" v:val="VT0(0.15748031496063):24"/>
				<v:ud v:nameU="TopRightOffset" v:prompt="" v:val="VT0(0.15748031496063):24"/>
				<v:ud v:nameU="BotLeftOffset" v:prompt="" v:val="VT0(0.15748031496063):24"/>
				<v:ud v:nameU="BotRightOffset" v:prompt="" v:val="VT0(0.15748031496063):24"/>
				<v:ud v:nameU="visVersion" v:prompt="" v:val="VT0(15):26"/>
			</v:userDefs>
			<v:textBlock v:margins="rect(4,4,4,4)" v:tabSpace="42.5197"/>
			<v:textRect cx="39.685" cy="410.428" width="79.38" height="22.6772"/>
			<path d="M11.34 421.77 L68.03 421.77 A11.3384 11.3384 -180 0 0 79.37 410.43 A11.3384 11.3384 -180 0 0 68.03 399.09 L11.34
						 399.09 A11.3384 11.3384 -180 0 0 0 410.43 A11.3384 11.3384 -180 0 0 11.34 421.77 Z" class="st11"/>
			<text x="10.65" y="413.2" class="st12" v:langID="1033"><v:paragraph v:horizAlign="1" v:bulletSize="0.166667"/><v:tabList/>station_exclude</text>		</g>
		<g id="shape705-41" v:mID="705" v:groupContext="shape" v:layerMember="0" transform="translate(277.587,-389.242)">
			<title>Dynamic connector.705</title>
			<v:userDefs>
				<v:ud v:nameU="visVersion" v:val="VT0(15):26"/>
			</v:userDefs>
			<path d="M0 421.77 C-0 427.08 11.37 427.08 21.03 427.08 C35.46 427.08 46.07 427.08 56.67 427.08 C67.27 427.08 77.86 427.08
						 92.19 427.08 C100.42 427.08 109.88 427.08 112.61 433.64 L112.68 434" class="st13"/>
		</g>
		<g id="shape706-47" v:mID="706" v:groupContext="shape" v:layerMember="0" transform="translate(390.973,-350.395)">
			<title>Dynamic connector.706</title>
			<v:userDefs>
				<v:ud v:nameU="visVersion" v:val="VT0(15):26"/>
			</v:userDefs>
			<path d="M0 421.77 C-0 427.65 0 435.65 -7.93 440.02 C-16.45 444.72 -34.12 445.22 -46.94 445.27 L-47.3 445.28"
					class="st13"/>
		</g>
		<g id="shape710-52" v:mID="710" v:groupContext="shape" transform="translate(214.658,-245.835)">
			<title>Rounded Rectangle.710</title>
			<desc>Method 1 – IQR = q3-q1</desc>
			<v:userDefs>
				<v:ud v:nameU="CTypeTopLeftSnip" v:prompt="" v:val="VT0(0):5"/>
				<v:ud v:nameU="CTypeTopRightSnip" v:prompt="" v:val="VT0(0):5"/>
				<v:ud v:nameU="CTypeBotLeftSnip" v:prompt="" v:val="VT0(0):5"/>
				<v:ud v:nameU="CTypeBotRightSnip" v:prompt="" v:val="VT0(0):5"/>
				<v:ud v:nameU="CornerLockHoriz" v:prompt="" v:val="VT0(1):5"/>
				<v:ud v:nameU="CornerLockVert" v:prompt="" v:val="VT0(1):5"/>
				<v:ud v:nameU="CornerLockDiag" v:prompt="" v:val="VT0(0):5"/>
				<v:ud v:nameU="TopLeftOffset" v:prompt="" v:val="VT0(0.15748031496063):24"/>
				<v:ud v:nameU="TopRightOffset" v:prompt="" v:val="VT0(0.15748031496063):24"/>
				<v:ud v:nameU="BotLeftOffset" v:prompt="" v:val="VT0(0.15748031496063):24"/>
				<v:ud v:nameU="BotRightOffset" v:prompt="" v:val="VT0(0.15748031496063):24"/>
				<v:ud v:nameU="visVersion" v:prompt="" v:val="VT0(15):26"/>
			</v:userDefs>
			<v:textBlock v:margins="rect(4,4,4,4)" v:tabSpace="42.5197"/>
			<v:textRect cx="62.3622" cy="410.428" width="124.73" height="22.6772"/>
			<path d="M11.34 421.77 L113.39 421.77 A11.3384 11.3384 -180 0 0 124.72 410.43 A11.3384 11.3384 -180 0 0 113.39 399.09
						 L11.34 399.09 A11.3384 11.3384 -180 0 0 0 410.43 A11.3384 11.3384 -180 0 0 11.34 421.77 Z" class="st8"/>
			<text x="13.46" y="413.13" class="st3" v:langID="1033"><v:paragraph v:horizAlign="1"/><v:tabList/>Method 1 – IQR = q3-q1</text>		</g>
		<g id="shape711-56" v:mID="711" v:groupContext="shape" transform="translate(441.996,-350.395)">
			<title>Rounded Rectangle.711</title>
			<desc>q1, q3</desc>
			<v:userDefs>
				<v:ud v:nameU="CTypeTopLeftSnip" v:prompt="" v:val="VT0(0):5"/>
				<v:ud v:nameU="CTypeTopRightSnip" v:prompt="" v:val="VT0(0):5"/>
				<v:ud v:nameU="CTypeBotLeftSnip" v:prompt="" v:val="VT0(0):5"/>
				<v:ud v:nameU="CTypeBotRightSnip" v:prompt="" v:val="VT0(0):5"/>
				<v:ud v:nameU="CornerLockHoriz" v:prompt="" v:val="VT0(1):5"/>
				<v:ud v:nameU="CornerLockVert" v:prompt="" v:val="VT0(1):5"/>
				<v:ud v:nameU="CornerLockDiag" v:prompt="" v:val="VT0(0):5"/>
				<v:ud v:nameU="TopLeftOffset" v:prompt="" v:val="VT0(0.15748031496063):24"/>
				<v:ud v:nameU="TopRightOffset" v:prompt="" v:val="VT0(0.15748031496063):24"/>
				<v:ud v:nameU="BotLeftOffset" v:prompt="" v:val="VT0(0.15748031496063):24"/>
				<v:ud v:nameU="BotRightOffset" v:prompt="" v:val="VT0(0.15748031496063):24"/>
				<v:ud v:nameU="visVersion" v:prompt="" v:val="VT0(15):26"/>
			</v:userDefs>
			<v:textBlock v:margins="rect(4,4,4,4)" v:tabSpace="42.5197"/>
			<v:textRect cx="38.9764" cy="410.428" width="77.96" height="22.6772"/>
			<path d="M11.34 421.77 L66.61 421.77 A11.3384 11.3384 -180 0 0 77.95 410.43 A11.3384 11.3384 -180 0 0 66.61 399.09 L11.34
						 399.09 A11.3384 11.3384 -180 0 0 0 410.43 A11.3384 11.3384 -180 0 0 11.34 421.77 Z" class="st11"/>
			<text x="26.62" y="413.13" class="st3" v:langID="1033"><v:paragraph v:horizAlign="1" v:bulletSize="0.166667"/><v:tabList/>q1, q3</text>		</g>
		<g id="shape712-60" v:mID="712" v:groupContext="shape" transform="translate(441.996,-315.541)">
			<title>Rounded Rectangle.712</title>
			<desc>cap_multiplier</desc>
			<v:userDefs>
				<v:ud v:nameU="CTypeTopLeftSnip" v:prompt="" v:val="VT0(0):5"/>
				<v:ud v:nameU="CTypeTopRightSnip" v:prompt="" v:val="VT0(0):5"/>
				<v:ud v:nameU="CTypeBotLeftSnip" v:prompt="" v:val="VT0(0):5"/>
				<v:ud v:nameU="CTypeBotRightSnip" v:prompt="" v:val="VT0(0):5"/>
				<v:ud v:nameU="CornerLockHoriz" v:prompt="" v:val="VT0(1):5"/>
				<v:ud v:nameU="CornerLockVert" v:prompt="" v:val="VT0(1):5"/>
				<v:ud v:nameU="CornerLockDiag" v:prompt="" v:val="VT0(0):5"/>
				<v:ud v:nameU="TopLeftOffset" v:prompt="" v:val="VT0(0.15748031496063):24"/>
				<v:ud v:nameU="TopRightOffset" v:prompt="" v:val="VT0(0.15748031496063):24"/>
				<v:ud v:nameU="BotLeftOffset" v:prompt="" v:val="VT0(0.15748031496063):24"/>
				<v:ud v:nameU="BotRightOffset" v:prompt="" v:val="VT0(0.15748031496063):24"/>
				<v:ud v:nameU="visVersion" v:prompt="" v:val="VT0(15):26"/>
			</v:userDefs>
			<v:textBlock v:margins="rect(4,4,4,4)" v:tabSpace="42.5197"/>
			<v:textRect cx="38.9764" cy="410.428" width="77.96" height="22.6772"/>
			<path d="M11.34 421.77 L66.61 421.77 A11.3384 11.3384 -180 0 0 77.95 410.43 A11.3384 11.3384 -180 0 0 66.61 399.09 L11.34
						 399.09 A11.3384 11.3384 -180 0 0 0 410.43 A11.3384 11.3384 -180 0 0 11.34 421.77 Z" class="st11"/>
			<text x="12.54" y="413.2" class="st12" v:langID="1033"><v:paragraph v:horizAlign="1" v:bulletSize="0.166667"/><v:tabList/>cap_multiplier</text>		</g>
		<g id="shape714-64" v:mID="714" v:groupContext="shape" v:layerMember="0" transform="translate(480.973,-350.395)">
			<title>Dynamic connector.714</title>
			<v:userDefs>
				<v:ud v:nameU="visVersion" v:val="VT0(15):26"/>
			</v:userDefs>
			<path d="M0 421.77 C-0 428.63 -4.8 428.63 -9.98 428.63 C-16.73 428.63 -24.13 428.63 -29.39 428.63 C-35.86 428.63 -39.1
						 428.63 -41.1 432.39 C-44.29 438.4 -44.29 454.02 -44.29 468.35 C-44.29 484.65 -44.29 499.28 -55.6 506.85
						 C-67.38 514.74 -91.42 514.98 -137.23 514.99 L-137.59 514.99" class="st13"/>
		</g>
		<g id="shape715-69" v:mID="715" v:groupContext="shape" transform="translate(15.382,-153.967)">
			<title>Rounded Rectangle.715</title>
			<desc>Find outliers df &#60; (q1-1.5*IQR)) or df &#62; (q3+1.5*IQR)</desc>
			<v:userDefs>
				<v:ud v:nameU="CTypeTopLeftSnip" v:prompt="" v:val="VT0(0):5"/>
				<v:ud v:nameU="CTypeTopRightSnip" v:prompt="" v:val="VT0(0):5"/>
				<v:ud v:nameU="CTypeBotLeftSnip" v:prompt="" v:val="VT0(0):5"/>
				<v:ud v:nameU="CTypeBotRightSnip" v:prompt="" v:val="VT0(0):5"/>
				<v:ud v:nameU="CornerLockHoriz" v:prompt="" v:val="VT0(1):5"/>
				<v:ud v:nameU="CornerLockVert" v:prompt="" v:val="VT0(1):5"/>
				<v:ud v:nameU="CornerLockDiag" v:prompt="" v:val="VT0(0):5"/>
				<v:ud v:nameU="TopLeftOffset" v:prompt="" v:val="VT0(0.15748031496063):24"/>
				<v:ud v:nameU="TopRightOffset" v:prompt="" v:val="VT0(0.15748031496063):24"/>
				<v:ud v:nameU="BotLeftOffset" v:prompt="" v:val="VT0(0.15748031496063):24"/>
				<v:ud v:nameU="BotRightOffset" v:prompt="" v:val="VT0(0.15748031496063):24"/>
				<v:ud v:nameU="visVersion" v:prompt="" v:val="VT0(15):26"/>
				<v:ud v:nameU="TopLeftOffset" v:prompt="" v:val="VT0(0.27559056418925):1"/>
				<v:ud v:nameU="TopRightOffset" v:prompt="" v:val="VT0(0.27559056418925):1"/>
				<v:ud v:nameU="BotLeftOffset" v:prompt="" v:val="VT0(0.27559056418925):1"/>
				<v:ud v:nameU="BotRightOffset" v:prompt="" v:val="VT0(0.27559056418925):1"/>
			</v:userDefs>
			<v:textBlock v:margins="rect(4,4,4,4)" v:tabSpace="42.5197"/>
			<v:textRect cx="62.3622" cy="401.924" width="124.73" height="39.685"/>
			<path d="M19.84 421.77 L104.88 421.77 A19.8422 19.8422 -180 0 0 124.72 401.92 A19.8422 19.8422 -180 0 0 104.88 382.08
						 L19.84 382.08 A19.8422 19.8422 -180 0 0 0 401.92 A19.8422 19.8422 -180 0 0 19.84 421.77 Z" class="st8"/>
			<text x="37.93" y="393.55" class="st3" v:langID="1033"><v:paragraph v:horizAlign="1" v:bulletSize="0.166667"/><v:tabList/>Find outliers<v:lf/><tspan
						x="16.4" dy="1.223em" class="st10">df</tspan><tspan class="st14"> </tspan><tspan class="st14">&#60; (q1</tspan><tspan
						class="st14">-</tspan><tspan class="st15">1.5</tspan><tspan class="st14">*IQR)) or df &#62; </tspan><tspan
						x="38.2" dy="1.231em" class="st14">(q3+</tspan><tspan class="st15">1.5</tspan><tspan class="st14">*IQR)</tspan></text>		</g>
		<g id="shape719-82" v:mID="719" v:groupContext="shape" v:layerMember="0" transform="translate(277.02,-245.835)">
			<title>Dynamic connector.719</title>
			<v:userDefs>
				<v:ud v:nameU="visVersion" v:val="VT0(15):26"/>
			</v:userDefs>
			<path d="M0 421.77 C-0 432.4 -16.67 432.4 -31.43 432.4 C-60.8 432.4 -82.64 432.4 -123.7 432.4 C-154.5 432.4 -196.13 432.4
						 -199.11 469.59 L-199.12 469.95" class="st13"/>
		</g>
		<g id="shape720-87" v:mID="720" v:groupContext="shape" transform="translate(161.366,-153.967)">
			<title>Rounded Rectangle.720</title>
			<desc>Drop outliers not (df &#60; (q1-1.5*IQR)) or df &#62; (q3+1.5*IQR))</desc>
			<v:userDefs>
				<v:ud v:nameU="CTypeTopLeftSnip" v:prompt="" v:val="VT0(0):5"/>
				<v:ud v:nameU="CTypeTopRightSnip" v:prompt="" v:val="VT0(0):5"/>
				<v:ud v:nameU="CTypeBotLeftSnip" v:prompt="" v:val="VT0(0):5"/>
				<v:ud v:nameU="CTypeBotRightSnip" v:prompt="" v:val="VT0(0):5"/>
				<v:ud v:nameU="CornerLockHoriz" v:prompt="" v:val="VT0(1):5"/>
				<v:ud v:nameU="CornerLockVert" v:prompt="" v:val="VT0(1):5"/>
				<v:ud v:nameU="CornerLockDiag" v:prompt="" v:val="VT0(0):5"/>
				<v:ud v:nameU="TopLeftOffset" v:prompt="" v:val="VT0(0.15748031496063):24"/>
				<v:ud v:nameU="TopRightOffset" v:prompt="" v:val="VT0(0.15748031496063):24"/>
				<v:ud v:nameU="BotLeftOffset" v:prompt="" v:val="VT0(0.15748031496063):24"/>
				<v:ud v:nameU="BotRightOffset" v:prompt="" v:val="VT0(0.15748031496063):24"/>
				<v:ud v:nameU="visVersion" v:prompt="" v:val="VT0(15):26"/>
				<v:ud v:nameU="TopLeftOffset" v:prompt="" v:val="VT0(0.27559056418925):1"/>
				<v:ud v:nameU="TopRightOffset" v:prompt="" v:val="VT0(0.27559056418925):1"/>
				<v:ud v:nameU="BotLeftOffset" v:prompt="" v:val="VT0(0.27559056418925):1"/>
				<v:ud v:nameU="BotRightOffset" v:prompt="" v:val="VT0(0.27559056418925):1"/>
			</v:userDefs>
			<v:textBlock v:margins="rect(4,4,4,4)" v:tabSpace="42.5197"/>
			<v:textRect cx="62.3622" cy="401.924" width="124.73" height="39.685"/>
			<path d="M19.84 421.77 L104.88 421.77 A19.8422 19.8422 -180 0 0 124.72 401.92 A19.8422 19.8422 -180 0 0 104.88 382.08
						 L19.84 382.08 A19.8422 19.8422 -180 0 0 0 401.92 A19.8422 19.8422 -180 0 0 19.84 421.77 Z" class="st8"/>
			<text x="36.41" y="393.55" class="st3" v:langID="1033"><v:paragraph v:horizAlign="1" v:bulletSize="0.166667"/><v:tabList/>Drop outliers<v:lf/><tspan
						x="7.1" dy="1.223em" class="st10">not (df</tspan><tspan class="st14"> </tspan><tspan class="st14">&#60; (q1</tspan><tspan
						class="st14">-</tspan><tspan class="st15">1.5</tspan><tspan class="st14">*IQR)) or df &#62; </tspan><tspan
						x="36.84" dy="1.231em" class="st14">(q3+</tspan><tspan class="st15">1.5</tspan><tspan class="st14">*IQR))</tspan></text>		</g>
		<g id="shape721-100" v:mID="721" v:groupContext="shape" v:layerMember="0" transform="translate(277.02,-245.835)">
			<title>Dynamic connector.721</title>
			<v:userDefs>
				<v:ud v:nameU="visVersion" v:val="VT0(15):26"/>
			</v:userDefs>
			<path d="M0 421.77 C0 432.4 -11.88 432.4 -23.75 432.4 C-37.99 432.4 -52.22 432.4 -53.23 469.59 L-53.24 469.94"
					class="st13"/>
		</g>
		<g id="shape722-105" v:mID="722" v:groupContext="shape" transform="translate(307.35,-153.967)">
			<title>Rounded Rectangle.722</title>
			<desc>Cap outliers Limit: q3+-1.5*IQR Cap: mean +- k * std</desc>
			<v:userDefs>
				<v:ud v:nameU="CTypeTopLeftSnip" v:prompt="" v:val="VT0(0):5"/>
				<v:ud v:nameU="CTypeTopRightSnip" v:prompt="" v:val="VT0(0):5"/>
				<v:ud v:nameU="CTypeBotLeftSnip" v:prompt="" v:val="VT0(0):5"/>
				<v:ud v:nameU="CTypeBotRightSnip" v:prompt="" v:val="VT0(0):5"/>
				<v:ud v:nameU="CornerLockHoriz" v:prompt="" v:val="VT0(1):5"/>
				<v:ud v:nameU="CornerLockVert" v:prompt="" v:val="VT0(1):5"/>
				<v:ud v:nameU="CornerLockDiag" v:prompt="" v:val="VT0(0):5"/>
				<v:ud v:nameU="TopLeftOffset" v:prompt="" v:val="VT0(0.15748031496063):24"/>
				<v:ud v:nameU="TopRightOffset" v:prompt="" v:val="VT0(0.15748031496063):24"/>
				<v:ud v:nameU="BotLeftOffset" v:prompt="" v:val="VT0(0.15748031496063):24"/>
				<v:ud v:nameU="BotRightOffset" v:prompt="" v:val="VT0(0.15748031496063):24"/>
				<v:ud v:nameU="visVersion" v:prompt="" v:val="VT0(15):26"/>
				<v:ud v:nameU="TopLeftOffset" v:prompt="" v:val="VT0(0.27559056418925):1"/>
				<v:ud v:nameU="TopRightOffset" v:prompt="" v:val="VT0(0.27559056418925):1"/>
				<v:ud v:nameU="BotLeftOffset" v:prompt="" v:val="VT0(0.27559056418925):1"/>
				<v:ud v:nameU="BotRightOffset" v:prompt="" v:val="VT0(0.27559056418925):1"/>
			</v:userDefs>
			<v:textBlock v:margins="rect(4,4,4,4)" v:tabSpace="42.5197"/>
			<v:textRect cx="62.3622" cy="401.924" width="124.73" height="39.685"/>
			<path d="M19.84 421.77 L104.88 421.77 A19.8422 19.8422 -180 0 0 124.72 401.92 A19.8422 19.8422 -180 0 0 104.88 382.08
						 L19.84 382.08 A19.8422 19.8422 -180 0 0 0 401.92 A19.8422 19.8422 -180 0 0 19.84 421.77 Z" class="st8"/>
			<text x="38.69" y="393.68" class="st3" v:langID="1033"><v:paragraph v:horizAlign="1" v:bulletSize="0.166667"/><v:tabList/>Cap outliers<v:newlineChar/><tspan
						x="28.27" dy="1.2em" class="st14">Limit: q3+</tspan><tspan class="st14">-</tspan><tspan class="st15">1.5</tspan><tspan
						class="st14">*IQR<v:newlineChar/></tspan><tspan x="24.47" dy="1.223em" class="st10">Cap: </tspan><tspan
						class="st14">mean +</tspan><tspan class="st14">-</tspan><tspan class="st14"> </tspan><tspan class="st14">k * std</tspan></text>		</g>
		<g id="shape723-118" v:mID="723" v:groupContext="shape" v:layerMember="0" transform="translate(269.933,-281.687)">
			<title>Dynamic connector.723</title>
			<v:userDefs>
				<v:ud v:nameU="visVersion" v:val="VT0(15):26"/>
			</v:userDefs>
			<path d="M7.09 422.77 C7.09 424.67 7.09 427.78 7.09 430.58" class="st4"/>
		</g>
		<g id="shape725-123" v:mID="725" v:groupContext="shape" transform="translate(453.335,-153.967)">
			<title>Rounded Rectangle.725</title>
			<desc>Impute outliers Limit: q3+-1.5*IQR Cap: mean</desc>
			<v:userDefs>
				<v:ud v:nameU="CTypeTopLeftSnip" v:prompt="" v:val="VT0(0):5"/>
				<v:ud v:nameU="CTypeTopRightSnip" v:prompt="" v:val="VT0(0):5"/>
				<v:ud v:nameU="CTypeBotLeftSnip" v:prompt="" v:val="VT0(0):5"/>
				<v:ud v:nameU="CTypeBotRightSnip" v:prompt="" v:val="VT0(0):5"/>
				<v:ud v:nameU="CornerLockHoriz" v:prompt="" v:val="VT0(1):5"/>
				<v:ud v:nameU="CornerLockVert" v:prompt="" v:val="VT0(1):5"/>
				<v:ud v:nameU="CornerLockDiag" v:prompt="" v:val="VT0(0):5"/>
				<v:ud v:nameU="TopLeftOffset" v:prompt="" v:val="VT0(0.15748031496063):24"/>
				<v:ud v:nameU="TopRightOffset" v:prompt="" v:val="VT0(0.15748031496063):24"/>
				<v:ud v:nameU="BotLeftOffset" v:prompt="" v:val="VT0(0.15748031496063):24"/>
				<v:ud v:nameU="BotRightOffset" v:prompt="" v:val="VT0(0.15748031496063):24"/>
				<v:ud v:nameU="visVersion" v:prompt="" v:val="VT0(15):26"/>
				<v:ud v:nameU="TopLeftOffset" v:prompt="" v:val="VT0(0.27559056418925):1"/>
				<v:ud v:nameU="TopRightOffset" v:prompt="" v:val="VT0(0.27559056418925):1"/>
				<v:ud v:nameU="BotLeftOffset" v:prompt="" v:val="VT0(0.27559056418925):1"/>
				<v:ud v:nameU="BotRightOffset" v:prompt="" v:val="VT0(0.27559056418925):1"/>
			</v:userDefs>
			<v:textBlock v:margins="rect(4,4,4,4)" v:tabSpace="42.5197"/>
			<v:textRect cx="62.3622" cy="401.924" width="124.73" height="39.685"/>
			<path d="M19.84 421.77 L104.88 421.77 A19.8422 19.8422 -180 0 0 124.72 401.92 A19.8422 19.8422 -180 0 0 104.88 382.08
						 L19.84 382.08 A19.8422 19.8422 -180 0 0 0 401.92 A19.8422 19.8422 -180 0 0 19.84 421.77 Z" class="st8"/>
			<text x="32.27" y="393.68" class="st3" v:langID="1033"><v:paragraph v:horizAlign="1" v:bulletSize="0.166667"/><v:tabList/>Impute outliers<v:newlineChar/><v:paragraph
						v:horizAlign="1" v:bulletSize="0.166667"/><tspan x="28.27" dy="1.2em" class="st14">Limit: q3+</tspan><tspan
						class="st14">-</tspan><tspan class="st15">1.5</tspan><tspan class="st14">*IQR<v:newlineChar/><v:paragraph
							v:horizAlign="1" v:bulletSize="0.166667"/></tspan><tspan x="42.08" dy="1.223em" class="st10">Cap: </tspan><tspan
						class="st14">mean</tspan></text>		</g>
		<g id="shape729-133" v:mID="729" v:groupContext="shape" v:layerMember="0" transform="translate(277.02,-245.835)">
			<title>Dynamic connector.729</title>
			<v:userDefs>
				<v:ud v:nameU="visVersion" v:val="VT0(15):26"/>
			</v:userDefs>
			<path d="M0 421.77 C0 432.4 22.19 432.4 44.38 432.4 C67.66 432.4 90.94 432.4 92.6 469.59 L92.61 469.95" class="st13"/>
		</g>
		<g id="shape730-138" v:mID="730" v:groupContext="shape" v:layerMember="0" transform="translate(277.02,-245.835)">
			<title>Dynamic connector.730</title>
			<v:userDefs>
				<v:ud v:nameU="visVersion" v:val="VT0(15):26"/>
			</v:userDefs>
			<path d="M0 421.77 C0 432.4 19.94 432.4 37.63 432.4 C72.85 432.4 99.12 432.4 148.64 432.4 C185.38 432.4 234.93 432.4
						 238.48 469.59 L238.49 469.95" class="st13"/>
		</g>
		<g id="shape731-143" v:mID="731" v:groupContext="shape" v:layerMember="0" transform="translate(480.973,-315.541)">
			<title>Dynamic connector.731</title>
			<v:userDefs>
				<v:ud v:nameU="visVersion" v:val="VT0(15):26"/>
			</v:userDefs>
			<path d="M0 421.77 C0 533.03 -30.91 533.03 -51.64 533.03 C-68.23 533.03 -78.31 533.03 -93.93 533.03 C-100.61 533.03 -108.31
						 533.03 -110.59 539.34 L-110.64 539.7" class="st13"/>
		</g>
		<g id="shape733-148" v:mID="733" v:groupContext="shape" transform="translate(161.366,-110.03)">
			<title>Rounded Rectangle.733</title>
			<desc>drop.csv</desc>
			<v:userDefs>
				<v:ud v:nameU="CTypeTopLeftSnip" v:prompt="" v:val="VT0(0):5"/>
				<v:ud v:nameU="CTypeTopRightSnip" v:prompt="" v:val="VT0(0):5"/>
				<v:ud v:nameU="CTypeBotLeftSnip" v:prompt="" v:val="VT0(0):5"/>
				<v:ud v:nameU="CTypeBotRightSnip" v:prompt="" v:val="VT0(0):5"/>
				<v:ud v:nameU="CornerLockHoriz" v:prompt="" v:val="VT0(1):5"/>
				<v:ud v:nameU="CornerLockVert" v:prompt="" v:val="VT0(1):5"/>
				<v:ud v:nameU="CornerLockDiag" v:prompt="" v:val="VT0(0):5"/>
				<v:ud v:nameU="TopLeftOffset" v:prompt="" v:val="VT0(0.15748031496063):24"/>
				<v:ud v:nameU="TopRightOffset" v:prompt="" v:val="VT0(0.15748031496063):24"/>
				<v:ud v:nameU="BotLeftOffset" v:prompt="" v:val="VT0(0.15748031496063):24"/>
				<v:ud v:nameU="BotRightOffset" v:prompt="" v:val="VT0(0.15748031496063):24"/>
				<v:ud v:nameU="visVersion" v:prompt="" v:val="VT0(15):26"/>
			</v:userDefs>
			<v:textBlock v:margins="rect(4,4,4,4)" v:tabSpace="42.5197"/>
			<v:textRect cx="62.3622" cy="410.428" width="124.73" height="22.6772"/>
			<path d="M11.34 421.77 L113.39 421.77 A11.3384 11.3384 -180 0 0 124.72 410.43 A11.3384 11.3384 -180 0 0 113.39 399.09
						 L11.34 399.09 A11.3384 11.3384 -180 0 0 0 410.43 A11.3384 11.3384 -180 0 0 11.34 421.77 Z" class="st6"/>
			<text x="45.75" y="413.13" class="st3" v:langID="1033"><v:paragraph v:horizAlign="1"/><v:tabList/>drop.csv</text>		</g>
		<g id="shape734-152" v:mID="734" v:groupContext="shape" transform="translate(15.382,-110.03)">
			<title>Rounded Rectangle.734</title>
			<desc>outliers.csv</desc>
			<v:userDefs>
				<v:ud v:nameU="CTypeTopLeftSnip" v:prompt="" v:val="VT0(0):5"/>
				<v:ud v:nameU="CTypeTopRightSnip" v:prompt="" v:val="VT0(0):5"/>
				<v:ud v:nameU="CTypeBotLeftSnip" v:prompt="" v:val="VT0(0):5"/>
				<v:ud v:nameU="CTypeBotRightSnip" v:prompt="" v:val="VT0(0):5"/>
				<v:ud v:nameU="CornerLockHoriz" v:prompt="" v:val="VT0(1):5"/>
				<v:ud v:nameU="CornerLockVert" v:prompt="" v:val="VT0(1):5"/>
				<v:ud v:nameU="CornerLockDiag" v:prompt="" v:val="VT0(0):5"/>
				<v:ud v:nameU="TopLeftOffset" v:prompt="" v:val="VT0(0.15748031496063):24"/>
				<v:ud v:nameU="TopRightOffset" v:prompt="" v:val="VT0(0.15748031496063):24"/>
				<v:ud v:nameU="BotLeftOffset" v:prompt="" v:val="VT0(0.15748031496063):24"/>
				<v:ud v:nameU="BotRightOffset" v:prompt="" v:val="VT0(0.15748031496063):24"/>
				<v:ud v:nameU="visVersion" v:prompt="" v:val="VT0(15):26"/>
			</v:userDefs>
			<v:textBlock v:margins="rect(4,4,4,4)" v:tabSpace="42.5197"/>
			<v:textRect cx="62.3622" cy="410.428" width="124.73" height="22.6772"/>
			<path d="M11.34 421.77 L113.39 421.77 A11.3384 11.3384 -180 0 0 124.72 410.43 A11.3384 11.3384 -180 0 0 113.39 399.09
						 L11.34 399.09 A11.3384 11.3384 -180 0 0 0 410.43 A11.3384 11.3384 -180 0 0 11.34 421.77 Z" class="st6"/>
			<text x="40.53" y="413.13" class="st3" v:langID="1033"><v:paragraph v:horizAlign="1"/><v:tabList/>outliers.csv</text>		</g>
		<g id="shape735-156" v:mID="735" v:groupContext="shape" transform="translate(307.35,-110.03)">
			<title>Rounded Rectangle.735</title>
			<desc>cap.csv</desc>
			<v:userDefs>
				<v:ud v:nameU="CTypeTopLeftSnip" v:prompt="" v:val="VT0(0):5"/>
				<v:ud v:nameU="CTypeTopRightSnip" v:prompt="" v:val="VT0(0):5"/>
				<v:ud v:nameU="CTypeBotLeftSnip" v:prompt="" v:val="VT0(0):5"/>
				<v:ud v:nameU="CTypeBotRightSnip" v:prompt="" v:val="VT0(0):5"/>
				<v:ud v:nameU="CornerLockHoriz" v:prompt="" v:val="VT0(1):5"/>
				<v:ud v:nameU="CornerLockVert" v:prompt="" v:val="VT0(1):5"/>
				<v:ud v:nameU="CornerLockDiag" v:prompt="" v:val="VT0(0):5"/>
				<v:ud v:nameU="TopLeftOffset" v:prompt="" v:val="VT0(0.15748031496063):24"/>
				<v:ud v:nameU="TopRightOffset" v:prompt="" v:val="VT0(0.15748031496063):24"/>
				<v:ud v:nameU="BotLeftOffset" v:prompt="" v:val="VT0(0.15748031496063):24"/>
				<v:ud v:nameU="BotRightOffset" v:prompt="" v:val="VT0(0.15748031496063):24"/>
				<v:ud v:nameU="visVersion" v:prompt="" v:val="VT0(15):26"/>
			</v:userDefs>
			<v:textBlock v:margins="rect(4,4,4,4)" v:tabSpace="42.5197"/>
			<v:textRect cx="62.3622" cy="410.428" width="124.73" height="22.6772"/>
			<path d="M11.34 421.77 L113.39 421.77 A11.3384 11.3384 -180 0 0 124.72 410.43 A11.3384 11.3384 -180 0 0 113.39 399.09
						 L11.34 399.09 A11.3384 11.3384 -180 0 0 0 410.43 A11.3384 11.3384 -180 0 0 11.34 421.77 Z" class="st6"/>
			<text x="48.23" y="413.13" class="st3" v:langID="1033"><v:paragraph v:horizAlign="1"/><v:tabList/>cap.csv</text>		</g>
		<g id="shape736-160" v:mID="736" v:groupContext="shape" transform="translate(453.335,-110.03)">
			<title>Rounded Rectangle.736</title>
			<desc>impute.csv</desc>
			<v:userDefs>
				<v:ud v:nameU="CTypeTopLeftSnip" v:prompt="" v:val="VT0(0):5"/>
				<v:ud v:nameU="CTypeTopRightSnip" v:prompt="" v:val="VT0(0):5"/>
				<v:ud v:nameU="CTypeBotLeftSnip" v:prompt="" v:val="VT0(0):5"/>
				<v:ud v:nameU="CTypeBotRightSnip" v:prompt="" v:val="VT0(0):5"/>
				<v:ud v:nameU="CornerLockHoriz" v:prompt="" v:val="VT0(1):5"/>
				<v:ud v:nameU="CornerLockVert" v:prompt="" v:val="VT0(1):5"/>
				<v:ud v:nameU="CornerLockDiag" v:prompt="" v:val="VT0(0):5"/>
				<v:ud v:nameU="TopLeftOffset" v:prompt="" v:val="VT0(0.15748031496063):24"/>
				<v:ud v:nameU="TopRightOffset" v:prompt="" v:val="VT0(0.15748031496063):24"/>
				<v:ud v:nameU="BotLeftOffset" v:prompt="" v:val="VT0(0.15748031496063):24"/>
				<v:ud v:nameU="BotRightOffset" v:prompt="" v:val="VT0(0.15748031496063):24"/>
				<v:ud v:nameU="visVersion" v:prompt="" v:val="VT0(15):26"/>
			</v:userDefs>
			<v:textBlock v:margins="rect(4,4,4,4)" v:tabSpace="42.5197"/>
			<v:textRect cx="62.3622" cy="410.428" width="124.73" height="22.6772"/>
			<path d="M11.34 421.77 L113.39 421.77 A11.3384 11.3384 -180 0 0 124.72 410.43 A11.3384 11.3384 -180 0 0 113.39 399.09
						 L11.34 399.09 A11.3384 11.3384 -180 0 0 0 410.43 A11.3384 11.3384 -180 0 0 11.34 421.77 Z" class="st6"/>
			<text x="41.21" y="413.13" class="st3" v:langID="1033"><v:paragraph v:horizAlign="1"/><v:tabList/>impute.csv</text>		</g>
		<g id="shape737-164" v:mID="737" v:groupContext="shape" v:layerMember="0" transform="translate(70.6576,-153.967)">
			<title>Dynamic connector.737</title>
			<v:userDefs>
				<v:ud v:nameU="visVersion" v:val="VT0(15):26"/>
			</v:userDefs>
			<path d="M7.09 421.77 C7.09 425.86 7.09 433.12 7.09 438.66" class="st4"/>
		</g>
		<g id="shape738-169" v:mID="738" v:groupContext="shape" v:layerMember="0" transform="translate(216.642,-153.967)">
			<title>Dynamic connector.738</title>
			<v:userDefs>
				<v:ud v:nameU="visVersion" v:val="VT0(15):26"/>
			</v:userDefs>
			<path d="M7.09 421.77 C7.09 425.86 7.09 433.12 7.09 438.66" class="st4"/>
		</g>
		<g id="shape739-174" v:mID="739" v:groupContext="shape" v:layerMember="0" transform="translate(362.626,-153.967)">
			<title>Dynamic connector.739</title>
			<v:userDefs>
				<v:ud v:nameU="visVersion" v:val="VT0(15):26"/>
			</v:userDefs>
			<path d="M7.09 421.77 C7.09 425.86 7.09 433.12 7.09 438.66" class="st4"/>
		</g>
		<g id="shape740-179" v:mID="740" v:groupContext="shape" transform="translate(15.382,-66.0926)">
			<title>Rounded Rectangle.740</title>
			<desc>Plot graph</desc>
			<v:userDefs>
				<v:ud v:nameU="CTypeTopLeftSnip" v:prompt="" v:val="VT0(0):5"/>
				<v:ud v:nameU="CTypeTopRightSnip" v:prompt="" v:val="VT0(0):5"/>
				<v:ud v:nameU="CTypeBotLeftSnip" v:prompt="" v:val="VT0(0):5"/>
				<v:ud v:nameU="CTypeBotRightSnip" v:prompt="" v:val="VT0(0):5"/>
				<v:ud v:nameU="CornerLockHoriz" v:prompt="" v:val="VT0(1):5"/>
				<v:ud v:nameU="CornerLockVert" v:prompt="" v:val="VT0(1):5"/>
				<v:ud v:nameU="CornerLockDiag" v:prompt="" v:val="VT0(0):5"/>
				<v:ud v:nameU="TopLeftOffset" v:prompt="" v:val="VT0(0.15748031496063):24"/>
				<v:ud v:nameU="TopRightOffset" v:prompt="" v:val="VT0(0.15748031496063):24"/>
				<v:ud v:nameU="BotLeftOffset" v:prompt="" v:val="VT0(0.15748031496063):24"/>
				<v:ud v:nameU="BotRightOffset" v:prompt="" v:val="VT0(0.15748031496063):24"/>
				<v:ud v:nameU="visVersion" v:prompt="" v:val="VT0(15):26"/>
			</v:userDefs>
			<v:textBlock v:margins="rect(4,4,4,4)" v:tabSpace="42.5197"/>
			<v:textRect cx="62.3622" cy="410.428" width="124.73" height="22.6772"/>
			<path d="M11.34 421.77 L113.39 421.77 A11.3384 11.3384 -180 0 0 124.72 410.43 A11.3384 11.3384 -180 0 0 113.39 399.09
						 L11.34 399.09 A11.3384 11.3384 -180 0 0 -0 410.43 A11.3384 11.3384 -180 0 0 11.34 421.77 Z" class="st8"/>
			<text x="41.66" y="413.13" class="st3" v:langID="1033"><v:paragraph v:horizAlign="1" v:bulletSize="0.166667"/><v:tabList/>Plot graph</text>		</g>
		<g id="shape741-183" v:mID="741" v:groupContext="shape" v:layerMember="0" transform="translate(70.6576,-110.03)">
			<title>Dynamic connector.741</title>
			<v:userDefs>
				<v:ud v:nameU="visVersion" v:val="VT0(15):26"/>
			</v:userDefs>
			<path d="M7.09 421.77 C7.09 425.86 7.09 433.12 7.09 438.66" class="st4"/>
		</g>
		<g id="shape742-188" v:mID="742" v:groupContext="shape" transform="translate(215.225,-9.84707)">
			<title>Rounded Rectangle.742</title>
			<desc>End</desc>
			<v:userDefs>
				<v:ud v:nameU="CTypeTopLeftSnip" v:prompt="" v:val="VT0(0):5"/>
				<v:ud v:nameU="CTypeTopRightSnip" v:prompt="" v:val="VT0(0):5"/>
				<v:ud v:nameU="CTypeBotLeftSnip" v:prompt="" v:val="VT0(0):5"/>
				<v:ud v:nameU="CTypeBotRightSnip" v:prompt="" v:val="VT0(0):5"/>
				<v:ud v:nameU="CornerLockHoriz" v:prompt="" v:val="VT0(1):5"/>
				<v:ud v:nameU="CornerLockVert" v:prompt="" v:val="VT0(1):5"/>
				<v:ud v:nameU="CornerLockDiag" v:prompt="" v:val="VT0(0):5"/>
				<v:ud v:nameU="TopLeftOffset" v:prompt="" v:val="VT0(0.15748031496063):24"/>
				<v:ud v:nameU="TopRightOffset" v:prompt="" v:val="VT0(0.15748031496063):24"/>
				<v:ud v:nameU="BotLeftOffset" v:prompt="" v:val="VT0(0.15748031496063):24"/>
				<v:ud v:nameU="BotRightOffset" v:prompt="" v:val="VT0(0.15748031496063):24"/>
				<v:ud v:nameU="visVersion" v:prompt="" v:val="VT0(15):26"/>
			</v:userDefs>
			<v:textBlock v:margins="rect(4,4,4,4)" v:tabSpace="42.5197"/>
			<v:textRect cx="62.3622" cy="410.428" width="124.73" height="22.6772"/>
			<path d="M11.34 421.77 L113.39 421.77 A11.3384 11.3384 -180 0 0 124.72 410.43 A11.3384 11.3384 -180 0 0 113.39 399.09
						 L11.34 399.09 A11.3384 11.3384 -180 0 0 0 410.43 A11.3384 11.3384 -180 0 0 11.34 421.77 Z" class="st1"/>
			<text x="54.89" y="413.13" class="st3" v:langID="1033"><v:paragraph v:horizAlign="1"/><v:tabList/>End</text>		</g>
		<g id="shape743-192" v:mID="743" v:groupContext="shape" transform="translate(307.35,-66.0926)">
			<title>Rounded Rectangle.743</title>
			<desc>statistics</desc>
			<v:userDefs>
				<v:ud v:nameU="CTypeTopLeftSnip" v:prompt="" v:val="VT0(0):5"/>
				<v:ud v:nameU="CTypeTopRightSnip" v:prompt="" v:val="VT0(0):5"/>
				<v:ud v:nameU="CTypeBotLeftSnip" v:prompt="" v:val="VT0(0):5"/>
				<v:ud v:nameU="CTypeBotRightSnip" v:prompt="" v:val="VT0(0):5"/>
				<v:ud v:nameU="CornerLockHoriz" v:prompt="" v:val="VT0(1):5"/>
				<v:ud v:nameU="CornerLockVert" v:prompt="" v:val="VT0(1):5"/>
				<v:ud v:nameU="CornerLockDiag" v:prompt="" v:val="VT0(0):5"/>
				<v:ud v:nameU="TopLeftOffset" v:prompt="" v:val="VT0(0.15748031496063):24"/>
				<v:ud v:nameU="TopRightOffset" v:prompt="" v:val="VT0(0.15748031496063):24"/>
				<v:ud v:nameU="BotLeftOffset" v:prompt="" v:val="VT0(0.15748031496063):24"/>
				<v:ud v:nameU="BotRightOffset" v:prompt="" v:val="VT0(0.15748031496063):24"/>
				<v:ud v:nameU="visVersion" v:prompt="" v:val="VT0(15):26"/>
			</v:userDefs>
			<v:textBlock v:margins="rect(4,4,4,4)" v:tabSpace="42.5197"/>
			<v:textRect cx="62.3622" cy="410.428" width="124.73" height="22.6772"/>
			<path d="M11.34 421.77 L113.39 421.77 A11.3384 11.3384 -180 0 0 124.72 410.43 A11.3384 11.3384 -180 0 0 113.39 399.09
						 L11.34 399.09 A11.3384 11.3384 -180 0 0 -0 410.43 A11.3384 11.3384 -180 0 0 11.34 421.77 Z" class="st8"/>
			<text x="45.51" y="413.13" class="st3" v:langID="1033"><v:paragraph v:horizAlign="1" v:bulletSize="0.166667"/><v:tabList/>statistics</text>		</g>
		<g id="shape744-196" v:mID="744" v:groupContext="shape" transform="translate(453.335,-66.0926)">
			<title>Rounded Rectangle.744</title>
			<desc>statistics</desc>
			<v:userDefs>
				<v:ud v:nameU="CTypeTopLeftSnip" v:prompt="" v:val="VT0(0):5"/>
				<v:ud v:nameU="CTypeTopRightSnip" v:prompt="" v:val="VT0(0):5"/>
				<v:ud v:nameU="CTypeBotLeftSnip" v:prompt="" v:val="VT0(0):5"/>
				<v:ud v:nameU="CTypeBotRightSnip" v:prompt="" v:val="VT0(0):5"/>
				<v:ud v:nameU="CornerLockHoriz" v:prompt="" v:val="VT0(1):5"/>
				<v:ud v:nameU="CornerLockVert" v:prompt="" v:val="VT0(1):5"/>
				<v:ud v:nameU="CornerLockDiag" v:prompt="" v:val="VT0(0):5"/>
				<v:ud v:nameU="TopLeftOffset" v:prompt="" v:val="VT0(0.15748031496063):24"/>
				<v:ud v:nameU="TopRightOffset" v:prompt="" v:val="VT0(0.15748031496063):24"/>
				<v:ud v:nameU="BotLeftOffset" v:prompt="" v:val="VT0(0.15748031496063):24"/>
				<v:ud v:nameU="BotRightOffset" v:prompt="" v:val="VT0(0.15748031496063):24"/>
				<v:ud v:nameU="visVersion" v:prompt="" v:val="VT0(15):26"/>
			</v:userDefs>
			<v:textBlock v:margins="rect(4,4,4,4)" v:tabSpace="42.5197"/>
			<v:textRect cx="62.3622" cy="410.428" width="124.73" height="22.6772"/>
			<path d="M11.34 421.77 L113.39 421.77 A11.3384 11.3384 -180 0 0 124.72 410.43 A11.3384 11.3384 -180 0 0 113.39 399.09
						 L11.34 399.09 A11.3384 11.3384 -180 0 0 -0 410.43 A11.3384 11.3384 -180 0 0 11.34 421.77 Z" class="st8"/>
			<text x="45.51" y="413.13" class="st3" v:langID="1033"><v:paragraph v:horizAlign="1" v:bulletSize="0.166667"/><v:tabList/>statistics</text>		</g>
		<g id="shape745-200" v:mID="745" v:groupContext="shape" v:layerMember="0" transform="translate(362.626,-110.03)">
			<title>Dynamic connector.745</title>
			<v:userDefs>
				<v:ud v:nameU="visVersion" v:val="VT0(15):26"/>
			</v:userDefs>
			<path d="M7.09 421.77 C7.09 425.86 7.09 433.12 7.09 438.66" class="st4"/>
		</g>
		<g id="shape746-205" v:mID="746" v:groupContext="shape" v:layerMember="0" transform="translate(508.61,-110.03)">
			<title>Dynamic connector.746</title>
			<v:userDefs>
				<v:ud v:nameU="visVersion" v:val="VT0(15):26"/>
			</v:userDefs>
			<path d="M7.09 421.77 C7.09 425.86 7.09 433.12 7.09 438.66" class="st4"/>
		</g>
		<g id="shape747-210" v:mID="747" v:groupContext="shape" v:layerMember="0" transform="translate(508.61,-153.967)">
			<title>Dynamic connector.747</title>
			<v:userDefs>
				<v:ud v:nameU="visVersion" v:val="VT0(15):26"/>
			</v:userDefs>
			<path d="M7.09 421.77 C7.09 425.86 7.09 433.12 7.09 438.66" class="st4"/>
		</g>
		<g id="shape748-215" v:mID="748" v:groupContext="shape" v:layerMember="0" transform="translate(214.941,-326.88)">
			<title>Dynamic connector.748</title>
			<v:userDefs>
				<v:ud v:nameU="visVersion" v:val="VT0(15):26"/>
			</v:userDefs>
			<path d="M0 421.77 C-210.19 421.77 -210.19 487.88 -210.19 533.13 C-210.19 573.24 -210.19 596.95 -210.19 632.53 C-210.19
						 647.66 -210.19 664.95 -203.71 669.85 L-203.36 669.97" class="st13"/>
		</g>
		<g id="shape749-220" v:mID="749" v:groupContext="shape" v:layerMember="0" transform="translate(77.7442,-66.0926)">
			<title>Dynamic connector.749</title>
			<v:userDefs>
				<v:ud v:nameU="visVersion" v:val="VT0(15):26"/>
			</v:userDefs>
			<path d="M0 421.77 C0 432.4 16.72 432.4 31.56 432.4 C61.07 432.4 83.16 432.4 124.99 432.4 C154.6 432.4 194.09 432.4 199.27
						 451.01 L199.32 451.36" class="st13"/>
		</g>
		<g id="shape750-225" v:mID="750" v:groupContext="shape" v:layerMember="0" transform="translate(223.728,-110.03)">
			<title>Dynamic connector.750</title>
			<v:userDefs>
				<v:ud v:nameU="visVersion" v:val="VT0(15):26"/>
			</v:userDefs>
			<path d="M0 421.77 C0 432.4 10.5 432.4 21 432.4 C37.43 432.4 53.86 432.4 53.86 499.27" class="st16"/>
		</g>
		<g id="shape751-231" v:mID="751" v:groupContext="shape" v:layerMember="0" transform="translate(369.713,-66.0926)">
			<title>Dynamic connector.751</title>
			<v:userDefs>
				<v:ud v:nameU="visVersion" v:val="VT0(15):26"/>
			</v:userDefs>
			<path d="M0 421.77 C-0 432.4 -22.76 432.4 -45.52 432.4 C-67.25 432.4 -88.97 432.4 -91.81 450.98 L-91.84 451.34"
					class="st13"/>
		</g>
		<g id="shape752-236" v:mID="752" v:groupContext="shape" v:layerMember="0" transform="translate(515.697,-66.0926)">
			<title>Dynamic connector.752</title>
			<v:userDefs>
				<v:ud v:nameU="visVersion" v:val="VT0(15):26"/>
			</v:userDefs>
			<path d="M0 421.77 C-0 432.4 -23.87 432.4 -44.15 432.4 C-74.45 432.4 -96.75 432.4 -119.02 432.4 C-141.28 432.4 -163.5
						 432.4 -193.6 432.4 C-212.65 432.4 -234.87 432.4 -237.79 450.98 L-237.81 451.34" class="st13"/>
		</g>
	</g>
</svg>
