<?xml version="1.0" encoding="UTF-8" standalone="no"?>
<!DOCTYPE svg PUBLIC "-//W3C//DTD SVG 1.1//EN" "http://www.w3.org/Graphics/SVG/1.1/DTD/svg11.dtd">
<!-- Generated by Microsoft Visio, SVG Export AgreeDEMFlowchart.svg Page-1 -->
<svg xmlns="http://www.w3.org/2000/svg" xmlns:xlink="http://www.w3.org/1999/xlink" xmlns:ev="http://www.w3.org/2001/xml-events"
		xmlns:v="http://schemas.microsoft.com/visio/2003/SVGExtensions/" width="6.51732in" height="4.98989in"
		viewBox="0 0 469.247 359.272" xml:space="preserve" color-interpolation-filters="sRGB" class="st11">
	<v:documentProperties v:langID="1033" v:metric="true" v:viewMarkup="false"/>

	<style type="text/css">
	<![CDATA[
		.st1 {fill:#f2f2f2;stroke:#4c85f4;stroke-width:1.5}
		.st2 {fill:#4c85f4;fill-opacity:1;stroke:#4c85f4;stroke-opacity:1;stroke-width:0.37313432835821}
		.st3 {fill:#000000;font-family:Segoe UI;font-size:0.75em}
		.st4 {fill:#f2f2f2;stroke:#f3718b;stroke-width:1.5}
		.st5 {fill:#f3718b;fill-opacity:1;stroke:#f3718b;stroke-opacity:1;stroke-width:0.37313432835821}
		.st6 {fill:#f2f2f2;stroke:#3ea853;stroke-width:1.5}
		.st7 {fill:#3ea853;fill-opacity:1;stroke:#3ea853;stroke-opacity:1;stroke-width:0.37313432835821}
		.st8 {marker-end:url(#mrkr6-57);stroke:#7f7f7f;stroke-linecap:round;stroke-linejoin:round;stroke-width:0.5}
		.st9 {fill:#7f7f7f;fill-opacity:1;stroke:#7f7f7f;stroke-opacity:1;stroke-width:0.25773195876289}
		.st10 {marker-end:url(#mrkr6-78);stroke:#7f7f7f;stroke-linecap:round;stroke-linejoin:round;stroke-width:0.5}
		.st11 {fill:none;fill-rule:evenodd;font-size:12px;overflow:visible;stroke-linecap:square;stroke-miterlimit:3}
	]]>
	</style>

	<defs id="Markers">
		<g id="lend6">
			<path d="M 2 1 L 0 0 L 2.01237 -1.00641 C 2.32921 -0.372876 2.32921 0.372869 2.01238 1.0064 " style="stroke:none"/>
		</g>
		<marker id="mrkr6-4" class="st2" v:arrowType="6" v:arrowSize="2" v:setback="6.03" refX="6.03" orient="auto"
				markerUnits="strokeWidth" overflow="visible">
			<use xlink:href="#lend6" transform="scale(2.68) "/>
		</marker>
		<marker id="mrkr6-13" class="st5" v:arrowType="6" v:arrowSize="2" v:setback="6.03" refX="6.03" orient="auto"
				markerUnits="strokeWidth" overflow="visible">
			<use xlink:href="#lend6" transform="scale(2.68) "/>
		</marker>
		<marker id="mrkr6-22" class="st7" v:arrowType="6" v:arrowSize="2" v:setback="6.03" refX="6.03" orient="auto"
				markerUnits="strokeWidth" overflow="visible">
			<use xlink:href="#lend6" transform="scale(2.68) "/>
		</marker>
		<marker id="mrkr6-57" class="st9" v:arrowType="6" v:arrowSize="0" v:setback="8.73" refX="-8.73" orient="auto"
				markerUnits="strokeWidth" overflow="visible">
			<use xlink:href="#lend6" transform="scale(-3.88,-3.88) "/>
		</marker>
		<marker id="mrkr6-78" class="st9" v:arrowType="6" v:arrowSize="0" v:setback="8.01" refX="-8.01" orient="auto"
				markerUnits="strokeWidth" overflow="visible">
			<use xlink:href="#lend6" transform="scale(-3.88,-3.88) "/>
		</marker>
	</defs>
	<g v:mID="0" v:index="1" v:groupContext="foregroundPage">
		<title>Page-1</title>
		<v:pageProperties v:drawingScale="0.0393701" v:pageScale="0.0393701" v:drawingUnits="24" v:shadowOffsetX="8.50394"
				v:shadowOffsetY="-8.50394"/>
		<v:layer v:name="Connector" v:index="0"/>
		<g id="shape178-1" v:mID="178" v:groupContext="shape" transform="translate(140.694,-253.047)">
			<title>Rounded Rectangle.178</title>
			<desc>Buffer zona estudio</desc>
			<v:userDefs>
				<v:ud v:nameU="CTypeTopLeftSnip" v:prompt="" v:val="VT0(0):5"/>
				<v:ud v:nameU="CTypeTopRightSnip" v:prompt="" v:val="VT0(0):5"/>
				<v:ud v:nameU="CTypeBotLeftSnip" v:prompt="" v:val="VT0(0):5"/>
				<v:ud v:nameU="CTypeBotRightSnip" v:prompt="" v:val="VT0(0):5"/>
				<v:ud v:nameU="CornerLockHoriz" v:prompt="" v:val="VT0(1):5"/>
				<v:ud v:nameU="CornerLockVert" v:prompt="" v:val="VT0(1):5"/>
				<v:ud v:nameU="CornerLockDiag" v:prompt="" v:val="VT0(0):5"/>
				<v:ud v:nameU="TopLeftOffset" v:prompt="" v:val="VT0(0.15748031496063):24"/>
				<v:ud v:nameU="TopRightOffset" v:prompt="" v:val="VT0(0.15748031496063):24"/>
				<v:ud v:nameU="BotLeftOffset" v:prompt="" v:val="VT0(0.15748031496063):24"/>
				<v:ud v:nameU="BotRightOffset" v:prompt="" v:val="VT0(0.15748031496063):24"/>
				<v:ud v:nameU="visVersion" v:prompt="" v:val="VT0(15):26"/>
			</v:userDefs>
			<v:textBlock v:margins="rect(4,4,4,4)" v:tabSpace="42.5197"/>
			<v:textRect cx="70.8661" cy="347.933" width="141.74" height="22.6772"/>
			<path d="M11.34 359.27 L130.39 359.27 A11.3384 11.3384 -180 0 0 141.73 347.93 A11.3384 11.3384 -180 0 0 130.39 336.59
						 L11.34 336.59 A11.3384 11.3384 -180 0 0 0 347.93 A11.3384 11.3384 -180 0 0 11.34 359.27 Z" class="st1"/>
			<text x="32.32" y="350.63" class="st3" v:langID="1033"><v:paragraph v:horizAlign="1"/><v:tabList/>Buffer zona estudio</text>		</g>
		<g id="shape179-6" v:mID="179" v:groupContext="shape" transform="translate(14.8834,-178.959)">
			<title>Rounded Rectangle.179</title>
			<desc>Buffer zona estudio envelope</desc>
			<v:userDefs>
				<v:ud v:nameU="CTypeTopLeftSnip" v:prompt="" v:val="VT0(0):5"/>
				<v:ud v:nameU="CTypeTopRightSnip" v:prompt="" v:val="VT0(0):5"/>
				<v:ud v:nameU="CTypeBotLeftSnip" v:prompt="" v:val="VT0(0):5"/>
				<v:ud v:nameU="CTypeBotRightSnip" v:prompt="" v:val="VT0(0):5"/>
				<v:ud v:nameU="CornerLockHoriz" v:prompt="" v:val="VT0(1):5"/>
				<v:ud v:nameU="CornerLockVert" v:prompt="" v:val="VT0(1):5"/>
				<v:ud v:nameU="CornerLockDiag" v:prompt="" v:val="VT0(0):5"/>
				<v:ud v:nameU="TopLeftOffset" v:prompt="" v:val="VT0(0.15748031496063):24"/>
				<v:ud v:nameU="TopRightOffset" v:prompt="" v:val="VT0(0.15748031496063):24"/>
				<v:ud v:nameU="BotLeftOffset" v:prompt="" v:val="VT0(0.15748031496063):24"/>
				<v:ud v:nameU="BotRightOffset" v:prompt="" v:val="VT0(0.15748031496063):24"/>
				<v:ud v:nameU="visVersion" v:prompt="" v:val="VT0(15):26"/>
			</v:userDefs>
			<v:textBlock v:margins="rect(4,4,4,4)" v:tabSpace="42.5197"/>
			<v:textRect cx="70.8661" cy="347.933" width="141.74" height="22.6772"/>
			<path d="M11.34 359.27 L130.39 359.27 A11.3384 11.3384 -180 0 0 141.73 347.93 A11.3384 11.3384 -180 0 0 130.39 336.59
						 L11.34 336.59 A11.3384 11.3384 -180 0 0 0 347.93 A11.3384 11.3384 -180 0 0 11.34 359.27 Z" class="st1"/>
			<text x="12.96" y="350.63" class="st3" v:langID="1033"><v:paragraph v:horizAlign="1"/><v:tabList/>Buffer zona estudio envelope</text>		</g>
		<g id="shape180-10" v:mID="180" v:groupContext="shape" transform="translate(140.694,-143.913)">
			<title>Rounded Rectangle.180</title>
			<desc>MDE Clip raster</desc>
			<v:userDefs>
				<v:ud v:nameU="CTypeTopLeftSnip" v:prompt="" v:val="VT0(0):5"/>
				<v:ud v:nameU="CTypeTopRightSnip" v:prompt="" v:val="VT0(0):5"/>
				<v:ud v:nameU="CTypeBotLeftSnip" v:prompt="" v:val="VT0(0):5"/>
				<v:ud v:nameU="CTypeBotRightSnip" v:prompt="" v:val="VT0(0):5"/>
				<v:ud v:nameU="CornerLockHoriz" v:prompt="" v:val="VT0(1):5"/>
				<v:ud v:nameU="CornerLockVert" v:prompt="" v:val="VT0(1):5"/>
				<v:ud v:nameU="CornerLockDiag" v:prompt="" v:val="VT0(0):5"/>
				<v:ud v:nameU="TopLeftOffset" v:prompt="" v:val="VT0(0.15748031496063):24"/>
				<v:ud v:nameU="TopRightOffset" v:prompt="" v:val="VT0(0.15748031496063):24"/>
				<v:ud v:nameU="BotLeftOffset" v:prompt="" v:val="VT0(0.15748031496063):24"/>
				<v:ud v:nameU="BotRightOffset" v:prompt="" v:val="VT0(0.15748031496063):24"/>
				<v:ud v:nameU="visVersion" v:prompt="" v:val="VT0(15):26"/>
			</v:userDefs>
			<v:textBlock v:margins="rect(4,4,4,4)" v:tabSpace="42.5197"/>
			<v:textRect cx="70.8661" cy="347.933" width="141.74" height="22.6772"/>
			<path d="M11.34 359.27 L130.39 359.27 A11.3384 11.3384 -180 0 0 141.73 347.93 A11.3384 11.3384 -180 0 0 130.39 336.59
						 L11.34 336.59 A11.3384 11.3384 -180 0 0 0 347.93 A11.3384 11.3384 -180 0 0 11.34 359.27 Z" class="st4"/>
			<text x="40.11" y="350.63" class="st3" v:langID="1033"><v:paragraph v:horizAlign="1"/><v:tabList/>MDE Clip raster</text>		</g>
		<g id="shape181-15" v:mID="181" v:groupContext="shape" transform="translate(140.694,-326.748)">
			<title>Rounded Rectangle.181</title>
			<desc>Zona estudio envelope</desc>
			<v:userDefs>
				<v:ud v:nameU="CTypeTopLeftSnip" v:prompt="" v:val="VT0(0):5"/>
				<v:ud v:nameU="CTypeTopRightSnip" v:prompt="" v:val="VT0(0):5"/>
				<v:ud v:nameU="CTypeBotLeftSnip" v:prompt="" v:val="VT0(0):5"/>
				<v:ud v:nameU="CTypeBotRightSnip" v:prompt="" v:val="VT0(0):5"/>
				<v:ud v:nameU="CornerLockHoriz" v:prompt="" v:val="VT0(1):5"/>
				<v:ud v:nameU="CornerLockVert" v:prompt="" v:val="VT0(1):5"/>
				<v:ud v:nameU="CornerLockDiag" v:prompt="" v:val="VT0(0):5"/>
				<v:ud v:nameU="TopLeftOffset" v:prompt="" v:val="VT0(0.15748031496063):24"/>
				<v:ud v:nameU="TopRightOffset" v:prompt="" v:val="VT0(0.15748031496063):24"/>
				<v:ud v:nameU="BotLeftOffset" v:prompt="" v:val="VT0(0.15748031496063):24"/>
				<v:ud v:nameU="BotRightOffset" v:prompt="" v:val="VT0(0.15748031496063):24"/>
				<v:ud v:nameU="visVersion" v:prompt="" v:val="VT0(15):26"/>
			</v:userDefs>
			<v:textBlock v:margins="rect(4,4,4,4)" v:tabSpace="42.5197"/>
			<v:textRect cx="70.8661" cy="347.933" width="141.74" height="22.6772"/>
			<path d="M11.34 359.27 L130.39 359.27 A11.3384 11.3384 -180 0 0 141.73 347.93 A11.3384 11.3384 -180 0 0 130.39 336.59
						 L11.34 336.59 A11.3384 11.3384 -180 0 0 0 347.93 A11.3384 11.3384 -180 0 0 11.34 359.27 Z" class="st1"/>
			<text x="25.52" y="350.63" class="st3" v:langID="1033"><v:paragraph v:horizAlign="1"/><v:tabList/>Zona estudio envelope</text>		</g>
		<g id="shape182-19" v:mID="182" v:groupContext="shape" transform="translate(9.84707,-99.9759)">
			<title>Rounded Rectangle.182</title>
			<desc>DEM ASTER ZE</desc>
			<v:userDefs>
				<v:ud v:nameU="CTypeTopLeftSnip" v:prompt="" v:val="VT0(0):5"/>
				<v:ud v:nameU="CTypeTopRightSnip" v:prompt="" v:val="VT0(0):5"/>
				<v:ud v:nameU="CTypeBotLeftSnip" v:prompt="" v:val="VT0(0):5"/>
				<v:ud v:nameU="CTypeBotRightSnip" v:prompt="" v:val="VT0(0):5"/>
				<v:ud v:nameU="CornerLockHoriz" v:prompt="" v:val="VT0(1):5"/>
				<v:ud v:nameU="CornerLockVert" v:prompt="" v:val="VT0(1):5"/>
				<v:ud v:nameU="CornerLockDiag" v:prompt="" v:val="VT0(0):5"/>
				<v:ud v:nameU="TopLeftOffset" v:prompt="" v:val="VT0(0.15748031496063):24"/>
				<v:ud v:nameU="TopRightOffset" v:prompt="" v:val="VT0(0.15748031496063):24"/>
				<v:ud v:nameU="BotLeftOffset" v:prompt="" v:val="VT0(0.15748031496063):24"/>
				<v:ud v:nameU="BotRightOffset" v:prompt="" v:val="VT0(0.15748031496063):24"/>
				<v:ud v:nameU="visVersion" v:prompt="" v:val="VT0(15):26"/>
			</v:userDefs>
			<v:textBlock v:margins="rect(4,4,4,4)" v:tabSpace="42.5197"/>
			<v:textRect cx="51.0236" cy="347.933" width="102.05" height="22.6772"/>
			<path d="M11.34 359.27 L90.71 359.27 A11.3384 11.3384 -180 0 0 102.05 347.93 A11.3384 11.3384 -180 0 0 90.71 336.59 L11.34
						 336.59 A11.3384 11.3384 -180 0 0 0 347.93 A11.3384 11.3384 -180 0 0 11.34 359.27 Z" class="st6"/>
			<text x="21.62" y="350.63" class="st3" v:langID="1033"><v:paragraph v:horizAlign="1"/><v:tabList/>DEM ASTER ZE</text>		</g>
		<g id="shape183-24" v:mID="183" v:groupContext="shape" transform="translate(125.682,-99.9759)">
			<title>Rounded Rectangle.183</title>
			<desc>DEM SRTM ZE</desc>
			<v:userDefs>
				<v:ud v:nameU="CTypeTopLeftSnip" v:prompt="" v:val="VT0(0):5"/>
				<v:ud v:nameU="CTypeTopRightSnip" v:prompt="" v:val="VT0(0):5"/>
				<v:ud v:nameU="CTypeBotLeftSnip" v:prompt="" v:val="VT0(0):5"/>
				<v:ud v:nameU="CTypeBotRightSnip" v:prompt="" v:val="VT0(0):5"/>
				<v:ud v:nameU="CornerLockHoriz" v:prompt="" v:val="VT0(1):5"/>
				<v:ud v:nameU="CornerLockVert" v:prompt="" v:val="VT0(1):5"/>
				<v:ud v:nameU="CornerLockDiag" v:prompt="" v:val="VT0(0):5"/>
				<v:ud v:nameU="TopLeftOffset" v:prompt="" v:val="VT0(0.15748031496063):24"/>
				<v:ud v:nameU="TopRightOffset" v:prompt="" v:val="VT0(0.15748031496063):24"/>
				<v:ud v:nameU="BotLeftOffset" v:prompt="" v:val="VT0(0.15748031496063):24"/>
				<v:ud v:nameU="BotRightOffset" v:prompt="" v:val="VT0(0.15748031496063):24"/>
				<v:ud v:nameU="visVersion" v:prompt="" v:val="VT0(15):26"/>
			</v:userDefs>
			<v:textBlock v:margins="rect(4,4,4,4)" v:tabSpace="42.5197"/>
			<v:textRect cx="51.0236" cy="347.933" width="102.05" height="22.6772"/>
			<path d="M11.34 359.27 L90.71 359.27 A11.3384 11.3384 -180 0 0 102.05 347.93 A11.3384 11.3384 -180 0 0 90.71 336.59 L11.34
						 336.59 A11.3384 11.3384 -180 0 0 0 347.93 A11.3384 11.3384 -180 0 0 11.34 359.27 Z" class="st6"/>
			<text x="22.76" y="350.63" class="st3" v:langID="1033"><v:paragraph v:horizAlign="1"/><v:tabList/>DEM SRTM ZE</text>		</g>
		<g id="shape184-28" v:mID="184" v:groupContext="shape" transform="translate(241.517,-99.9759)">
			<title>Rounded Rectangle.184</title>
			<desc>DEM ALOS PALSAR ZE</desc>
			<v:userDefs>
				<v:ud v:nameU="CTypeTopLeftSnip" v:prompt="" v:val="VT0(0):5"/>
				<v:ud v:nameU="CTypeTopRightSnip" v:prompt="" v:val="VT0(0):5"/>
				<v:ud v:nameU="CTypeBotLeftSnip" v:prompt="" v:val="VT0(0):5"/>
				<v:ud v:nameU="CTypeBotRightSnip" v:prompt="" v:val="VT0(0):5"/>
				<v:ud v:nameU="CornerLockHoriz" v:prompt="" v:val="VT0(1):5"/>
				<v:ud v:nameU="CornerLockVert" v:prompt="" v:val="VT0(1):5"/>
				<v:ud v:nameU="CornerLockDiag" v:prompt="" v:val="VT0(0):5"/>
				<v:ud v:nameU="TopLeftOffset" v:prompt="" v:val="VT0(0.15748031496063):24"/>
				<v:ud v:nameU="TopRightOffset" v:prompt="" v:val="VT0(0.15748031496063):24"/>
				<v:ud v:nameU="BotLeftOffset" v:prompt="" v:val="VT0(0.15748031496063):24"/>
				<v:ud v:nameU="BotRightOffset" v:prompt="" v:val="VT0(0.15748031496063):24"/>
				<v:ud v:nameU="visVersion" v:prompt="" v:val="VT0(15):26"/>
			</v:userDefs>
			<v:textBlock v:margins="rect(4,4,4,4)" v:tabSpace="42.5197"/>
			<v:textRect cx="51.0236" cy="347.933" width="102.05" height="22.6772"/>
			<path d="M11.34 359.27 L90.71 359.27 A11.3384 11.3384 -180 0 0 102.05 347.93 A11.3384 11.3384 -180 0 0 90.71 336.59 L11.34
						 336.59 A11.3384 11.3384 -180 0 0 0 347.93 A11.3384 11.3384 -180 0 0 11.34 359.27 Z" class="st6"/>
			<text x="6.68" y="350.63" class="st3" v:langID="1033"><v:paragraph v:horizAlign="1"/><v:tabList/>DEM ALOS PALSAR ZE</text>		</g>
		<g id="shape186-32" v:mID="186" v:groupContext="shape" transform="translate(140.694,-289.897)">
			<title>Rounded Rectangle.186</title>
			<desc>Buffer</desc>
			<v:userDefs>
				<v:ud v:nameU="CTypeTopLeftSnip" v:prompt="" v:val="VT0(0):5"/>
				<v:ud v:nameU="CTypeTopRightSnip" v:prompt="" v:val="VT0(0):5"/>
				<v:ud v:nameU="CTypeBotLeftSnip" v:prompt="" v:val="VT0(0):5"/>
				<v:ud v:nameU="CTypeBotRightSnip" v:prompt="" v:val="VT0(0):5"/>
				<v:ud v:nameU="CornerLockHoriz" v:prompt="" v:val="VT0(1):5"/>
				<v:ud v:nameU="CornerLockVert" v:prompt="" v:val="VT0(1):5"/>
				<v:ud v:nameU="CornerLockDiag" v:prompt="" v:val="VT0(0):5"/>
				<v:ud v:nameU="TopLeftOffset" v:prompt="" v:val="VT0(0.15748031496063):24"/>
				<v:ud v:nameU="TopRightOffset" v:prompt="" v:val="VT0(0.15748031496063):24"/>
				<v:ud v:nameU="BotLeftOffset" v:prompt="" v:val="VT0(0.15748031496063):24"/>
				<v:ud v:nameU="BotRightOffset" v:prompt="" v:val="VT0(0.15748031496063):24"/>
				<v:ud v:nameU="visVersion" v:prompt="" v:val="VT0(15):26"/>
			</v:userDefs>
			<v:textBlock v:margins="rect(4,4,4,4)" v:tabSpace="42.5197"/>
			<v:textRect cx="70.8661" cy="347.933" width="141.74" height="22.6772"/>
			<path d="M11.34 359.27 L130.39 359.27 A11.3384 11.3384 -180 0 0 141.73 347.93 A11.3384 11.3384 -180 0 0 130.39 336.59
						 L11.34 336.59 A11.3384 11.3384 -180 0 0 0 347.93 A11.3384 11.3384 -180 0 0 11.34 359.27 Z" class="st4"/>
			<text x="59.01" y="350.63" class="st3" v:langID="1033"><v:paragraph v:horizAlign="1"/><v:tabList/>Buffer</text>		</g>
		<g id="shape187-36" v:mID="187" v:groupContext="shape" transform="translate(140.694,-216.196)">
			<title>Rounded Rectangle.187</title>
			<desc>Feature Envelope To Polygon</desc>
			<v:userDefs>
				<v:ud v:nameU="CTypeTopLeftSnip" v:prompt="" v:val="VT0(0):5"/>
				<v:ud v:nameU="CTypeTopRightSnip" v:prompt="" v:val="VT0(0):5"/>
				<v:ud v:nameU="CTypeBotLeftSnip" v:prompt="" v:val="VT0(0):5"/>
				<v:ud v:nameU="CTypeBotRightSnip" v:prompt="" v:val="VT0(0):5"/>
				<v:ud v:nameU="CornerLockHoriz" v:prompt="" v:val="VT0(1):5"/>
				<v:ud v:nameU="CornerLockVert" v:prompt="" v:val="VT0(1):5"/>
				<v:ud v:nameU="CornerLockDiag" v:prompt="" v:val="VT0(0):5"/>
				<v:ud v:nameU="TopLeftOffset" v:prompt="" v:val="VT0(0.15748031496063):24"/>
				<v:ud v:nameU="TopRightOffset" v:prompt="" v:val="VT0(0.15748031496063):24"/>
				<v:ud v:nameU="BotLeftOffset" v:prompt="" v:val="VT0(0.15748031496063):24"/>
				<v:ud v:nameU="BotRightOffset" v:prompt="" v:val="VT0(0.15748031496063):24"/>
				<v:ud v:nameU="visVersion" v:prompt="" v:val="VT0(15):26"/>
			</v:userDefs>
			<v:textBlock v:margins="rect(4,4,4,4)" v:tabSpace="42.5197"/>
			<v:textRect cx="70.8661" cy="347.933" width="141.74" height="22.6772"/>
			<path d="M11.34 359.27 L130.39 359.27 A11.3384 11.3384 -180 0 0 141.73 347.93 A11.3384 11.3384 -180 0 0 130.39 336.59
						 L11.34 336.59 A11.3384 11.3384 -180 0 0 0 347.93 A11.3384 11.3384 -180 0 0 11.34 359.27 Z" class="st4"/>
			<text x="13.03" y="350.63" class="st3" v:langID="1033"><v:paragraph v:horizAlign="1"/><v:tabList/>Feature Envelope To Polygon</text>		</g>
		<g id="shape188-40" v:mID="188" v:groupContext="shape" transform="translate(165.89,-178.959)">
			<title>Rounded Rectangle.188</title>
			<desc>DEM ASTER</desc>
			<v:userDefs>
				<v:ud v:nameU="CTypeTopLeftSnip" v:prompt="" v:val="VT0(0):5"/>
				<v:ud v:nameU="CTypeTopRightSnip" v:prompt="" v:val="VT0(0):5"/>
				<v:ud v:nameU="CTypeBotLeftSnip" v:prompt="" v:val="VT0(0):5"/>
				<v:ud v:nameU="CTypeBotRightSnip" v:prompt="" v:val="VT0(0):5"/>
				<v:ud v:nameU="CornerLockHoriz" v:prompt="" v:val="VT0(1):5"/>
				<v:ud v:nameU="CornerLockVert" v:prompt="" v:val="VT0(1):5"/>
				<v:ud v:nameU="CornerLockDiag" v:prompt="" v:val="VT0(0):5"/>
				<v:ud v:nameU="TopLeftOffset" v:prompt="" v:val="VT0(0.15748031496063):24"/>
				<v:ud v:nameU="TopRightOffset" v:prompt="" v:val="VT0(0.15748031496063):24"/>
				<v:ud v:nameU="BotLeftOffset" v:prompt="" v:val="VT0(0.15748031496063):24"/>
				<v:ud v:nameU="BotRightOffset" v:prompt="" v:val="VT0(0.15748031496063):24"/>
				<v:ud v:nameU="visVersion" v:prompt="" v:val="VT0(15):26"/>
			</v:userDefs>
			<v:textBlock v:margins="rect(4,4,4,4)" v:tabSpace="42.5197"/>
			<v:textRect cx="45.5891" cy="347.933" width="91.18" height="22.6772"/>
			<path d="M11.34 359.27 L79.84 359.27 A11.3384 11.3384 -180 0 0 91.18 347.93 A11.3384 11.3384 -180 0 0 79.84 336.59 L11.34
						 336.59 A11.3384 11.3384 -180 0 0 0 347.93 A11.3384 11.3384 -180 0 0 11.34 359.27 Z" class="st6"/>
			<text x="22.27" y="350.63" class="st3" v:langID="1033"><v:paragraph v:horizAlign="1"/><v:tabList/>DEM ASTER</text>		</g>
		<g id="shape189-44" v:mID="189" v:groupContext="shape" transform="translate(265.355,-178.959)">
			<title>Rounded Rectangle.189</title>
			<desc>DEM SRTM</desc>
			<v:userDefs>
				<v:ud v:nameU="CTypeTopLeftSnip" v:prompt="" v:val="VT0(0):5"/>
				<v:ud v:nameU="CTypeTopRightSnip" v:prompt="" v:val="VT0(0):5"/>
				<v:ud v:nameU="CTypeBotLeftSnip" v:prompt="" v:val="VT0(0):5"/>
				<v:ud v:nameU="CTypeBotRightSnip" v:prompt="" v:val="VT0(0):5"/>
				<v:ud v:nameU="CornerLockHoriz" v:prompt="" v:val="VT0(1):5"/>
				<v:ud v:nameU="CornerLockVert" v:prompt="" v:val="VT0(1):5"/>
				<v:ud v:nameU="CornerLockDiag" v:prompt="" v:val="VT0(0):5"/>
				<v:ud v:nameU="TopLeftOffset" v:prompt="" v:val="VT0(0.15748031496063):24"/>
				<v:ud v:nameU="TopRightOffset" v:prompt="" v:val="VT0(0.15748031496063):24"/>
				<v:ud v:nameU="BotLeftOffset" v:prompt="" v:val="VT0(0.15748031496063):24"/>
				<v:ud v:nameU="BotRightOffset" v:prompt="" v:val="VT0(0.15748031496063):24"/>
				<v:ud v:nameU="visVersion" v:prompt="" v:val="VT0(15):26"/>
			</v:userDefs>
			<v:textBlock v:margins="rect(4,4,4,4)" v:tabSpace="42.5197"/>
			<v:textRect cx="45.5891" cy="347.933" width="91.18" height="22.6772"/>
			<path d="M11.34 359.27 L79.84 359.27 A11.3384 11.3384 -180 0 0 91.18 347.93 A11.3384 11.3384 -180 0 0 79.84 336.59 L11.34
						 336.59 A11.3384 11.3384 -180 0 0 0 347.93 A11.3384 11.3384 -180 0 0 11.34 359.27 Z" class="st6"/>
			<text x="23.4" y="350.63" class="st3" v:langID="1033"><v:paragraph v:horizAlign="1"/><v:tabList/>DEM SRTM</text>		</g>
		<g id="shape190-48" v:mID="190" v:groupContext="shape" transform="translate(364.82,-178.959)">
			<title>Rounded Rectangle.190</title>
			<desc>DEM ALOS PALSAR</desc>
			<v:userDefs>
				<v:ud v:nameU="CTypeTopLeftSnip" v:prompt="" v:val="VT0(0):5"/>
				<v:ud v:nameU="CTypeTopRightSnip" v:prompt="" v:val="VT0(0):5"/>
				<v:ud v:nameU="CTypeBotLeftSnip" v:prompt="" v:val="VT0(0):5"/>
				<v:ud v:nameU="CTypeBotRightSnip" v:prompt="" v:val="VT0(0):5"/>
				<v:ud v:nameU="CornerLockHoriz" v:prompt="" v:val="VT0(1):5"/>
				<v:ud v:nameU="CornerLockVert" v:prompt="" v:val="VT0(1):5"/>
				<v:ud v:nameU="CornerLockDiag" v:prompt="" v:val="VT0(0):5"/>
				<v:ud v:nameU="TopLeftOffset" v:prompt="" v:val="VT0(0.15748031496063):24"/>
				<v:ud v:nameU="TopRightOffset" v:prompt="" v:val="VT0(0.15748031496063):24"/>
				<v:ud v:nameU="BotLeftOffset" v:prompt="" v:val="VT0(0.15748031496063):24"/>
				<v:ud v:nameU="BotRightOffset" v:prompt="" v:val="VT0(0.15748031496063):24"/>
				<v:ud v:nameU="visVersion" v:prompt="" v:val="VT0(15):26"/>
			</v:userDefs>
			<v:textBlock v:margins="rect(4,4,4,4)" v:tabSpace="42.5197"/>
			<v:textRect cx="45.5891" cy="347.933" width="91.18" height="22.6772"/>
			<path d="M11.34 359.27 L79.84 359.27 A11.3384 11.3384 -180 0 0 91.18 347.93 A11.3384 11.3384 -180 0 0 79.84 336.59 L11.34
						 336.59 A11.3384 11.3384 -180 0 0 0 347.93 A11.3384 11.3384 -180 0 0 11.34 359.27 Z" class="st6"/>
			<text x="7.32" y="350.63" class="st3" v:langID="1033"><v:paragraph v:horizAlign="1"/><v:tabList/>DEM ALOS PALSAR</text>		</g>
		<g id="shape191-52" v:mID="191" v:groupContext="shape" v:layerMember="0" transform="translate(204.474,-326.748)">
			<title>Dynamic connector.191</title>
			<v:userDefs>
				<v:ud v:nameU="visVersion" v:val="VT0(15):26"/>
			</v:userDefs>
			<path d="M7.09 359.27 C7.09 361.66 7.09 365.65 7.09 369.08" class="st8"/>
		</g>
		<g id="shape192-58" v:mID="192" v:groupContext="shape" v:layerMember="0" transform="translate(204.474,-289.897)">
			<title>Dynamic connector.192</title>
			<v:userDefs>
				<v:ud v:nameU="visVersion" v:val="VT0(15):26"/>
			</v:userDefs>
			<path d="M7.09 359.27 C7.09 361.66 7.09 365.65 7.09 369.08" class="st8"/>
		</g>
		<g id="shape193-63" v:mID="193" v:groupContext="shape" v:layerMember="0" transform="translate(204.474,-253.047)">
			<title>Dynamic connector.193</title>
			<v:userDefs>
				<v:ud v:nameU="visVersion" v:val="VT0(15):26"/>
			</v:userDefs>
			<path d="M7.09 359.27 C7.09 361.66 7.09 365.65 7.09 369.08" class="st8"/>
		</g>
		<g id="shape194-68" v:mID="194" v:groupContext="shape" v:layerMember="0" transform="translate(140.694,-227.535)">
			<title>Dynamic connector.194</title>
			<v:userDefs>
				<v:ud v:nameU="visVersion" v:val="VT0(15):26"/>
			</v:userDefs>
			<path d="M0 359.27 L-42 359.27 A12.9492 12.9492 -180 0 0 -54.94 372.22 L-54.94 380.81" class="st8"/>
		</g>
		<g id="shape195-73" v:mID="195" v:groupContext="shape" v:layerMember="0" transform="translate(85.7495,-178.959)">
			<title>Dynamic connector.195</title>
			<v:userDefs>
				<v:ud v:nameU="visVersion" v:val="VT0(15):26"/>
			</v:userDefs>
			<path d="M0 359.27 C-0 365.2 0 373.23 8.4 377.63 C17.59 382.44 36.81 382.93 50.58 382.97 L50.94 382.97" class="st10"/>
		</g>
		<g id="shape196-79" v:mID="196" v:groupContext="shape" v:layerMember="0" transform="translate(204.433,-179.861)">
			<title>Dynamic connector.196</title>
			<v:userDefs>
				<v:ud v:nameU="visVersion" v:val="VT0(15):26"/>
			</v:userDefs>
			<path d="M7.05 360.17 C7.05 362.83 7.05 363.72 7.05 364.44 C7.05 364.8 7.05 365.12 7.06 365.29 C7.07 365.49 7.1 365.49
						 7.11 365.68 C7.13 365.89 7.13 366.34 7.13 366.84 C7.13 367.22 7.13 367.63 7.13 368.18" class="st8"/>
		</g>
		<g id="shape197-84" v:mID="197" v:groupContext="shape" v:layerMember="0" transform="translate(310.944,-178.959)">
			<title>Dynamic connector.197</title>
			<v:userDefs>
				<v:ud v:nameU="visVersion" v:val="VT0(15):26"/>
			</v:userDefs>
			<path d="M0 359.27 C0 365.2 -0 373.86 -5.08 378.3 C-9.42 382.1 -17.46 382.81 -24.15 382.95 L-24.51 382.95" class="st10"/>
		</g>
		<g id="shape198-89" v:mID="198" v:groupContext="shape" v:layerMember="0" transform="translate(410.409,-178.959)">
			<title>Dynamic connector.198</title>
			<v:userDefs>
				<v:ud v:nameU="visVersion" v:val="VT0(15):26"/>
			</v:userDefs>
			<path d="M0 359.27 C-0 365.2 0 371.5 -3.26 375.56 C-9.2 382.98 -25.99 382.98 -44.5 382.98 C-67.65 382.98 -93.5 382.98
						 -123.62 382.98" class="st8"/>
		</g>
		<g id="shape199-94" v:mID="199" v:groupContext="shape" v:layerMember="0" transform="translate(211.56,-143.913)">
			<title>Dynamic connector.199</title>
			<v:userDefs>
				<v:ud v:nameU="visVersion" v:val="VT0(15):26"/>
			</v:userDefs>
			<path d="M0 359.27 C0 369.9 -15.16 369.9 -28.03 369.9 C-47.16 369.9 -61.25 369.9 -75.34 369.9 C-89.44 369.9 -103.53 369.9
						 -122.65 369.9 C-133.52 369.9 -146.02 369.9 -149.65 376.29 L-149.73 376.64" class="st10"/>
		</g>
		<g id="shape200-99" v:mID="200" v:groupContext="shape" v:layerMember="0" transform="translate(211.56,-143.913)">
			<title>Dynamic connector.200</title>
			<v:userDefs>
				<v:ud v:nameU="visVersion" v:val="VT0(15):26"/>
			</v:userDefs>
			<path d="M0 359.27 C-0 368.4 -25.69 369.69 -32.96 376.6 L-33.12 376.92" class="st10"/>
		</g>
		<g id="shape201-104" v:mID="201" v:groupContext="shape" v:layerMember="0" transform="translate(211.56,-143.913)">
			<title>Dynamic connector.201</title>
			<v:userDefs>
				<v:ud v:nameU="visVersion" v:val="VT0(15):26"/>
			</v:userDefs>
			<path d="M0 359.27 C-0 369.9 20.25 369.9 40.49 369.9 C57.65 369.9 74.81 369.9 79.64 376.38 L79.75 376.72" class="st10"/>
		</g>
		<g id="shape202-109" v:mID="202" v:groupContext="shape" transform="translate(357.353,-99.9759)">
			<title>Rounded Rectangle.202</title>
			<desc>Red de drenaje</desc>
			<v:userDefs>
				<v:ud v:nameU="CTypeTopLeftSnip" v:prompt="" v:val="VT0(0):5"/>
				<v:ud v:nameU="CTypeTopRightSnip" v:prompt="" v:val="VT0(0):5"/>
				<v:ud v:nameU="CTypeBotLeftSnip" v:prompt="" v:val="VT0(0):5"/>
				<v:ud v:nameU="CTypeBotRightSnip" v:prompt="" v:val="VT0(0):5"/>
				<v:ud v:nameU="CornerLockHoriz" v:prompt="" v:val="VT0(1):5"/>
				<v:ud v:nameU="CornerLockVert" v:prompt="" v:val="VT0(1):5"/>
				<v:ud v:nameU="CornerLockDiag" v:prompt="" v:val="VT0(0):5"/>
				<v:ud v:nameU="TopLeftOffset" v:prompt="" v:val="VT0(0.15748031496063):24"/>
				<v:ud v:nameU="TopRightOffset" v:prompt="" v:val="VT0(0.15748031496063):24"/>
				<v:ud v:nameU="BotLeftOffset" v:prompt="" v:val="VT0(0.15748031496063):24"/>
				<v:ud v:nameU="BotRightOffset" v:prompt="" v:val="VT0(0.15748031496063):24"/>
				<v:ud v:nameU="visVersion" v:prompt="" v:val="VT0(15):26"/>
			</v:userDefs>
			<v:textBlock v:margins="rect(4,4,4,4)" v:tabSpace="42.5197"/>
			<v:textRect cx="51.0236" cy="347.933" width="102.05" height="22.6772"/>
			<path d="M11.34 359.27 L90.71 359.27 A11.3384 11.3384 -180 0 0 102.05 347.93 A11.3384 11.3384 -180 0 0 90.71 336.59 L11.34
						 336.59 A11.3384 11.3384 -180 0 0 0 347.93 A11.3384 11.3384 -180 0 0 11.34 359.27 Z" class="st1"/>
			<text x="21.01" y="350.63" class="st3" v:langID="1033"><v:paragraph v:horizAlign="1"/><v:tabList/>Red de drenaje</text>		</g>
		<g id="shape203-113" v:mID="203" v:groupContext="shape" transform="translate(140.694,-57.4562)">
			<title>Rounded Rectangle.203</title>
			<desc>DEM Reconditioning</desc>
			<v:userDefs>
				<v:ud v:nameU="CTypeTopLeftSnip" v:prompt="" v:val="VT0(0):5"/>
				<v:ud v:nameU="CTypeTopRightSnip" v:prompt="" v:val="VT0(0):5"/>
				<v:ud v:nameU="CTypeBotLeftSnip" v:prompt="" v:val="VT0(0):5"/>
				<v:ud v:nameU="CTypeBotRightSnip" v:prompt="" v:val="VT0(0):5"/>
				<v:ud v:nameU="CornerLockHoriz" v:prompt="" v:val="VT0(1):5"/>
				<v:ud v:nameU="CornerLockVert" v:prompt="" v:val="VT0(1):5"/>
				<v:ud v:nameU="CornerLockDiag" v:prompt="" v:val="VT0(0):5"/>
				<v:ud v:nameU="TopLeftOffset" v:prompt="" v:val="VT0(0.15748031496063):24"/>
				<v:ud v:nameU="TopRightOffset" v:prompt="" v:val="VT0(0.15748031496063):24"/>
				<v:ud v:nameU="BotLeftOffset" v:prompt="" v:val="VT0(0.15748031496063):24"/>
				<v:ud v:nameU="BotRightOffset" v:prompt="" v:val="VT0(0.15748031496063):24"/>
				<v:ud v:nameU="visVersion" v:prompt="" v:val="VT0(15):26"/>
			</v:userDefs>
			<v:textBlock v:margins="rect(4,4,4,4)" v:tabSpace="42.5197"/>
			<v:textRect cx="70.8661" cy="347.933" width="141.74" height="22.6772"/>
			<path d="M11.34 359.27 L130.39 359.27 A11.3384 11.3384 -180 0 0 141.73 347.93 A11.3384 11.3384 -180 0 0 130.39 336.59
						 L11.34 336.59 A11.3384 11.3384 -180 0 0 0 347.93 A11.3384 11.3384 -180 0 0 11.34 359.27 Z" class="st4"/>
			<text x="30.03" y="350.63" class="st3" v:langID="1033"><v:paragraph v:horizAlign="1"/><v:tabList/>DEM Reconditioning</text>		</g>
		<g id="shape204-117" v:mID="204" v:groupContext="shape" v:layerMember="0" transform="translate(60.8707,-99.9759)">
			<title>Dynamic connector.204</title>
			<v:userDefs>
				<v:ud v:nameU="visVersion" v:val="VT0(15):26"/>
			</v:userDefs>
			<path d="M0 359.27 C0 367.07 -0 377.54 12.01 383.33 C25.78 389.95 55.34 390.42 75.46 390.45 L75.82 390.45" class="st10"/>
		</g>
		<g id="shape205-122" v:mID="205" v:groupContext="shape" v:layerMember="0" transform="translate(176.706,-99.9759)">
			<title>Dynamic connector.205</title>
			<v:userDefs>
				<v:ud v:nameU="visVersion" v:val="VT0(15):26"/>
			</v:userDefs>
			<path d="M0 359.27 C0 368.24 24.82 369.64 32.57 375.4 L32.76 375.7" class="st10"/>
		</g>
		<g id="shape206-127" v:mID="206" v:groupContext="shape" v:layerMember="0" transform="translate(292.541,-99.9759)">
			<title>Dynamic connector.206</title>
			<v:userDefs>
				<v:ud v:nameU="visVersion" v:val="VT0(15):26"/>
			</v:userDefs>
			<path d="M0 359.27 C0 369.9 -20.27 369.9 -40.53 369.9 C-57.25 369.9 -73.96 369.9 -79.26 375.1 L-79.4 375.43"
					class="st10"/>
		</g>
		<g id="shape207-132" v:mID="207" v:groupContext="shape" v:layerMember="0" transform="translate(408.376,-99.9759)">
			<title>Dynamic connector.207</title>
			<v:userDefs>
				<v:ud v:nameU="visVersion" v:val="VT0(15):26"/>
			</v:userDefs>
			<path d="M0 359.27 C-0 367.07 0 377.29 -18.05 383.04 C-40.25 390.12 -89.75 390.44 -121.58 390.45 L-121.94 390.45"
					class="st10"/>
		</g>
		<g id="shape208-137" v:mID="208" v:groupContext="shape" transform="translate(48.7615,-9.84707)">
			<title>Rounded Rectangle.208</title>
			<desc>ASTER AgreeDEM</desc>
			<v:userDefs>
				<v:ud v:nameU="CTypeTopLeftSnip" v:prompt="" v:val="VT0(0):5"/>
				<v:ud v:nameU="CTypeTopRightSnip" v:prompt="" v:val="VT0(0):5"/>
				<v:ud v:nameU="CTypeBotLeftSnip" v:prompt="" v:val="VT0(0):5"/>
				<v:ud v:nameU="CTypeBotRightSnip" v:prompt="" v:val="VT0(0):5"/>
				<v:ud v:nameU="CornerLockHoriz" v:prompt="" v:val="VT0(1):5"/>
				<v:ud v:nameU="CornerLockVert" v:prompt="" v:val="VT0(1):5"/>
				<v:ud v:nameU="CornerLockDiag" v:prompt="" v:val="VT0(0):5"/>
				<v:ud v:nameU="TopLeftOffset" v:prompt="" v:val="VT0(0.15748031496063):24"/>
				<v:ud v:nameU="TopRightOffset" v:prompt="" v:val="VT0(0.15748031496063):24"/>
				<v:ud v:nameU="BotLeftOffset" v:prompt="" v:val="VT0(0.15748031496063):24"/>
				<v:ud v:nameU="BotRightOffset" v:prompt="" v:val="VT0(0.15748031496063):24"/>
				<v:ud v:nameU="visVersion" v:prompt="" v:val="VT0(15):26"/>
			</v:userDefs>
			<v:textBlock v:margins="rect(4,4,4,4)" v:tabSpace="42.5197"/>
			<v:textRect cx="51.0236" cy="347.933" width="102.05" height="22.6772"/>
			<path d="M11.34 359.27 L90.71 359.27 A11.3384 11.3384 -180 0 0 102.05 347.93 A11.3384 11.3384 -180 0 0 90.71 336.59 L11.34
						 336.59 A11.3384 11.3384 -180 0 0 0 347.93 A11.3384 11.3384 -180 0 0 11.34 359.27 Z" class="st6"/>
			<text x="15.88" y="350.63" class="st3" v:langID="1033"><v:paragraph v:horizAlign="1"/><v:tabList/>ASTER AgreeDEM</text>		</g>
		<g id="shape209-141" v:mID="209" v:groupContext="shape" transform="translate(160.537,-9.84707)">
			<title>Rounded Rectangle.209</title>
			<desc>SRTM AgreeDEM</desc>
			<v:userDefs>
				<v:ud v:nameU="CTypeTopLeftSnip" v:prompt="" v:val="VT0(0):5"/>
				<v:ud v:nameU="CTypeTopRightSnip" v:prompt="" v:val="VT0(0):5"/>
				<v:ud v:nameU="CTypeBotLeftSnip" v:prompt="" v:val="VT0(0):5"/>
				<v:ud v:nameU="CTypeBotRightSnip" v:prompt="" v:val="VT0(0):5"/>
				<v:ud v:nameU="CornerLockHoriz" v:prompt="" v:val="VT0(1):5"/>
				<v:ud v:nameU="CornerLockVert" v:prompt="" v:val="VT0(1):5"/>
				<v:ud v:nameU="CornerLockDiag" v:prompt="" v:val="VT0(0):5"/>
				<v:ud v:nameU="TopLeftOffset" v:prompt="" v:val="VT0(0.15748031496063):24"/>
				<v:ud v:nameU="TopRightOffset" v:prompt="" v:val="VT0(0.15748031496063):24"/>
				<v:ud v:nameU="BotLeftOffset" v:prompt="" v:val="VT0(0.15748031496063):24"/>
				<v:ud v:nameU="BotRightOffset" v:prompt="" v:val="VT0(0.15748031496063):24"/>
				<v:ud v:nameU="visVersion" v:prompt="" v:val="VT0(15):26"/>
			</v:userDefs>
			<v:textBlock v:margins="rect(4,4,4,4)" v:tabSpace="42.5197"/>
			<v:textRect cx="51.0236" cy="347.933" width="102.05" height="22.6772"/>
			<path d="M11.34 359.27 L90.71 359.27 A11.3384 11.3384 -180 0 0 102.05 347.93 A11.3384 11.3384 -180 0 0 90.71 336.59 L11.34
						 336.59 A11.3384 11.3384 -180 0 0 0 347.93 A11.3384 11.3384 -180 0 0 11.34 359.27 Z" class="st6"/>
			<text x="17.01" y="350.63" class="st3" v:langID="1033"><v:paragraph v:horizAlign="1"/><v:tabList/>SRTM AgreeDEM</text>		</g>
		<g id="shape210-145" v:mID="210" v:groupContext="shape" transform="translate(272.312,-9.84707)">
			<title>Rounded Rectangle.210</title>
			<desc>ALOS AgreeDEM</desc>
			<v:userDefs>
				<v:ud v:nameU="CTypeTopLeftSnip" v:prompt="" v:val="VT0(0):5"/>
				<v:ud v:nameU="CTypeTopRightSnip" v:prompt="" v:val="VT0(0):5"/>
				<v:ud v:nameU="CTypeBotLeftSnip" v:prompt="" v:val="VT0(0):5"/>
				<v:ud v:nameU="CTypeBotRightSnip" v:prompt="" v:val="VT0(0):5"/>
				<v:ud v:nameU="CornerLockHoriz" v:prompt="" v:val="VT0(1):5"/>
				<v:ud v:nameU="CornerLockVert" v:prompt="" v:val="VT0(1):5"/>
				<v:ud v:nameU="CornerLockDiag" v:prompt="" v:val="VT0(0):5"/>
				<v:ud v:nameU="TopLeftOffset" v:prompt="" v:val="VT0(0.15748031496063):24"/>
				<v:ud v:nameU="TopRightOffset" v:prompt="" v:val="VT0(0.15748031496063):24"/>
				<v:ud v:nameU="BotLeftOffset" v:prompt="" v:val="VT0(0.15748031496063):24"/>
				<v:ud v:nameU="BotRightOffset" v:prompt="" v:val="VT0(0.15748031496063):24"/>
				<v:ud v:nameU="visVersion" v:prompt="" v:val="VT0(15):26"/>
			</v:userDefs>
			<v:textBlock v:margins="rect(4,4,4,4)" v:tabSpace="42.5197"/>
			<v:textRect cx="51.0236" cy="347.933" width="102.05" height="22.6772"/>
			<path d="M11.34 359.27 L90.71 359.27 A11.3384 11.3384 -180 0 0 102.05 347.93 A11.3384 11.3384 -180 0 0 90.71 336.59 L11.34
						 336.59 A11.3384 11.3384 -180 0 0 0 347.93 A11.3384 11.3384 -180 0 0 11.34 359.27 Z" class="st6"/>
			<text x="17.69" y="350.63" class="st3" v:langID="1033"><v:paragraph v:horizAlign="1"/><v:tabList/>ALOS AgreeDEM</text>		</g>
		<g id="shape213-149" v:mID="213" v:groupContext="shape" v:layerMember="0" transform="translate(211.56,-57.4562)">
			<title>Dynamic connector.213</title>
			<v:userDefs>
				<v:ud v:nameU="visVersion" v:val="VT0(15):26"/>
			</v:userDefs>
			<path d="M0 359.27 C0 369.9 9.43 369.9 17.78 369.9 C34.21 369.9 46.52 369.9 69.87 369.9 C85.64 369.9 106.46 369.9 110.91
						 379.92 L110.98 380.28" class="st10"/>
		</g>
		<g id="shape214-154" v:mID="214" v:groupContext="shape" v:layerMember="0" transform="translate(204.474,-57.4562)">
			<title>Dynamic connector.214</title>
			<v:userDefs>
				<v:ud v:nameU="visVersion" v:val="VT0(15):26"/>
			</v:userDefs>
			<path d="M7.09 359.27 C7.09 364.26 7.09 373.25 7.09 379.84" class="st8"/>
		</g>
		<g id="shape215-159" v:mID="215" v:groupContext="shape" v:layerMember="0" transform="translate(211.56,-57.4562)">
			<title>Dynamic connector.215</title>
			<v:userDefs>
				<v:ud v:nameU="visVersion" v:val="VT0(15):26"/>
			</v:userDefs>
			<path d="M0 359.27 C-0 369.9 -9.43 369.9 -17.78 369.9 C-34.21 369.9 -46.52 369.9 -69.87 369.9 C-85.64 369.9 -106.46 369.9
						 -110.91 379.92 L-110.98 380.28" class="st10"/>
		</g>
	</g>
</svg>
