<?xml version="1.0" encoding="UTF-8" standalone="no"?>
<!DOCTYPE svg PUBLIC "-//W3C//DTD SVG 1.1//EN" "http://www.w3.org/Graphics/SVG/1.1/DTD/svg11.dtd">
<!-- Generated by Microsoft Visio, SVG Export EDA.svg Page-1 -->
<svg xmlns="http://www.w3.org/2000/svg" xmlns:xlink="http://www.w3.org/1999/xlink" xmlns:ev="http://www.w3.org/2001/xml-events"
		xmlns:v="http://schemas.microsoft.com/visio/2003/SVGExtensions/" width="4.37965in" height="6.89934in"
		viewBox="0 0 315.335 496.752" xml:space="preserve" color-interpolation-filters="sRGB" class="st16">
	<v:documentProperties v:langID="1033" v:metric="true" v:viewMarkup="false"/>

	<style type="text/css">
	<![CDATA[
		.st1 {fill:#f2f2f2;stroke:#ea4d35;stroke-dasharray:0.01,4.5;stroke-width:1.5}
		.st2 {fill:#ea4d35;fill-opacity:1;stroke:#ea4d35;stroke-opacity:1;stroke-width:0.37313432835821}
		.st3 {fill:#000000;font-family:Segoe UI;font-size:0.75em}
		.st4 {marker-end:url(#mrkr6-11);stroke:#7f7f7f;stroke-linecap:round;stroke-linejoin:round;stroke-width:0.5}
		.st5 {fill:#7f7f7f;fill-opacity:1;stroke:#7f7f7f;stroke-opacity:1;stroke-width:0.25773195876289}
		.st6 {fill:#ffffff;stroke:none;stroke-linecap:butt;stroke-width:7.2}
		.st7 {fill:#3d64ac;font-family:Segoe UI;font-size:0.499992em}
		.st8 {marker-end:url(#mrkr6-19);stroke:#7f7f7f;stroke-linecap:round;stroke-linejoin:round;stroke-width:0.5}
		.st9 {fill:#f2f2f2;stroke:none;stroke-width:1.5}
		.st10 {fill:#fbbc0e;fill-opacity:1;stroke:#fbbc0e;stroke-opacity:1;stroke-width:0.37313432835821}
		.st11 {fill:#f2f2f2;stroke:#696368;stroke-width:1.5}
		.st12 {fill:#696368;fill-opacity:1;stroke:#696368;stroke-opacity:1;stroke-width:0.37313432835821}
		.st13 {font-size:1em}
		.st14 {fill:#ffffff;stroke:none;stroke-linecap:butt}
		.st15 {fill:#f2f2f2;stroke:#fbbc0e;stroke-width:1.5}
		.st16 {fill:none;fill-rule:evenodd;font-size:12px;overflow:visible;stroke-linecap:square;stroke-miterlimit:3}
	]]>
	</style>

	<defs id="Markers">
		<g id="lend6">
			<path d="M 2 1 L 0 0 L 2.01237 -1.00641 C 2.32921 -0.372876 2.32921 0.372869 2.01238 1.0064 " style="stroke:none"/>
		</g>
		<marker id="mrkr6-4" class="st2" v:arrowType="6" v:arrowSize="2" v:setback="6.03" refX="6.03" orient="auto"
				markerUnits="strokeWidth" overflow="visible">
			<use xlink:href="#lend6" transform="scale(2.68) "/>
		</marker>
		<marker id="mrkr6-11" class="st5" v:arrowType="6" v:arrowSize="0" v:setback="8.73" refX="-8.73" orient="auto"
				markerUnits="strokeWidth" overflow="visible">
			<use xlink:href="#lend6" transform="scale(-3.88,-3.88) "/>
		</marker>
		<marker id="mrkr6-19" class="st5" v:arrowType="6" v:arrowSize="0" v:setback="8.01" refX="-8.01" orient="auto"
				markerUnits="strokeWidth" overflow="visible">
			<use xlink:href="#lend6" transform="scale(-3.88,-3.88) "/>
		</marker>
		<marker id="mrkr6-25" class="st10" v:arrowType="6" v:arrowSize="2" v:setback="6.03" refX="6.03" orient="auto"
				markerUnits="strokeWidth" overflow="visible">
			<use xlink:href="#lend6" transform="scale(2.68) "/>
		</marker>
		<marker id="mrkr6-35" class="st12" v:arrowType="6" v:arrowSize="2" v:setback="6.03" refX="6.03" orient="auto"
				markerUnits="strokeWidth" overflow="visible">
			<use xlink:href="#lend6" transform="scale(2.68) "/>
		</marker>
	</defs>
	<g v:mID="0" v:index="1" v:groupContext="foregroundPage">
		<title>Page-1</title>
		<v:pageProperties v:drawingScale="0.0393701" v:pageScale="0.0393701" v:drawingUnits="24" v:shadowOffsetX="8.50394"
				v:shadowOffsetY="-8.50394"/>
		<v:layer v:name="Flowchart" v:index="0"/>
		<v:layer v:name="Connector" v:index="1"/>
		<g id="shape555-1" v:mID="555" v:groupContext="shape" v:layerMember="0" transform="translate(35.3031,-272.968)">
			<title>Decision 2.555</title>
			<desc>for parameter</desc>
			<v:custProps>
				<v:cp v:nameU="Cost" v:lbl="Cost" v:type="7" v:format="@" v:langID="1033"/>
				<v:cp v:nameU="Duration" v:lbl="Duration" v:type="2" v:langID="1033"/>
				<v:cp v:nameU="Resources" v:lbl="Resources" v:langID="1033"/>
			</v:custProps>
			<v:userDefs>
				<v:ud v:nameU="visVersion" v:val="VT0(15):26"/>
			</v:userDefs>
			<v:textBlock v:margins="rect(4,4,4,4)" v:tabSpace="42.5197"/>
			<v:textRect cx="52.689" cy="464.62" width="79.04" height="56.2314"/>
			<path d="M0 464.62 L52.69 432.49 L105.38 464.62 L52.69 496.75 L0 464.62 Z" class="st1"/>
			<text x="25.39" y="467.32" class="st3" v:langID="1033"><v:paragraph v:horizAlign="1"/><v:tabList/>for parameter</text>		</g>
		<g id="shape558-6" v:mID="558" v:groupContext="shape" v:layerMember="1" transform="translate(80.9054,-272.968)">
			<title>Dynamic connector.558</title>
			<desc>S</desc>
			<v:userDefs>
				<v:ud v:nameU="visVersion" v:val="VT0(15):26"/>
			</v:userDefs>
			<v:textBlock v:margins="rect(4,4,4,4)" v:tabSpace="42.5197"/>
			<v:textRect cx="7.08661" cy="507.062" width="30" height="15.2035"/>
			<path d="M7.09 496.75 C7.09 500.69 7.09 507.65 7.09 513.01" class="st4"/>
			<rect v:rectContext="textBkgnd" x="5.49296" y="503.463" width="3.18741" height="7.20016" class="st6"/>
			<text x="5.49" y="508.86" class="st7" v:langID="1033"><v:paragraph v:horizAlign="1"/><v:tabList/>S</text>		</g>
		<g id="shape560-14" v:mID="560" v:groupContext="shape" v:layerMember="1" transform="translate(39.2136,-305.1)">
			<title>Dynamic connector.560</title>
			<desc>N</desc>
			<v:userDefs>
				<v:ud v:nameU="visVersion" v:val="VT0(15):26"/>
			</v:userDefs>
			<v:textBlock v:margins="rect(4,4,4,4)" v:tabSpace="42.5197"/>
			<v:textRect cx="-24.2137" cy="632.637" width="30" height="15.2035"/>
			<path d="M-3.91 496.75 C-24.21 496.75 -24.21 524.52 -24.21 548.11 C-24.21 583.11 -24.21 608.9 -24.21 634.72 C-24.21 660.53
						 -24.21 686.37 -24.21 721.46 C-24.21 742.3 -24.21 766.4 -14.5 771.62 L-14.15 771.71" class="st8"/>
			<rect v:rectContext="textBkgnd" x="-26.4577" y="629.038" width="4.48819" height="7.20016" class="st6"/>
			<text x="-26.46" y="634.44" class="st7" v:langID="1033"><v:paragraph v:horizAlign="1"/><v:tabList/>N</text>		</g>
		<g id="shape577-22" v:mID="577" v:groupContext="shape" transform="translate(25.6298,-464.228)">
			<title>Rounded Rectangle.577</title>
			<desc>Start</desc>
			<v:userDefs>
				<v:ud v:nameU="CTypeTopLeftSnip" v:prompt="" v:val="VT0(0):5"/>
				<v:ud v:nameU="CTypeTopRightSnip" v:prompt="" v:val="VT0(0):5"/>
				<v:ud v:nameU="CTypeBotLeftSnip" v:prompt="" v:val="VT0(0):5"/>
				<v:ud v:nameU="CTypeBotRightSnip" v:prompt="" v:val="VT0(0):5"/>
				<v:ud v:nameU="CornerLockHoriz" v:prompt="" v:val="VT0(1):5"/>
				<v:ud v:nameU="CornerLockVert" v:prompt="" v:val="VT0(1):5"/>
				<v:ud v:nameU="CornerLockDiag" v:prompt="" v:val="VT0(0):5"/>
				<v:ud v:nameU="TopLeftOffset" v:prompt="" v:val="VT0(0.15748031496063):24"/>
				<v:ud v:nameU="TopRightOffset" v:prompt="" v:val="VT0(0.15748031496063):24"/>
				<v:ud v:nameU="BotLeftOffset" v:prompt="" v:val="VT0(0.15748031496063):24"/>
				<v:ud v:nameU="BotRightOffset" v:prompt="" v:val="VT0(0.15748031496063):24"/>
				<v:ud v:nameU="visVersion" v:prompt="" v:val="VT0(15):26"/>
			</v:userDefs>
			<v:textBlock v:margins="rect(4,4,4,4)" v:tabSpace="42.5197"/>
			<v:textRect cx="62.3622" cy="485.414" width="124.73" height="22.6772"/>
			<path d="M11.34 496.75 L113.39 496.75 A11.3384 11.3384 -180 0 0 124.72 485.41 A11.3384 11.3384 -180 0 0 113.39 474.08
						 L11.34 474.08 A11.3384 11.3384 -180 0 0 0 485.41 A11.3384 11.3384 -180 0 0 11.34 496.75 Z" class="st9"/>
			<text x="53.07" y="488.11" class="st3" v:langID="1033"><v:paragraph v:horizAlign="1"/><v:tabList/>Start</text>		</g>
		<g id="shape578-27" v:mID="578" v:groupContext="shape" v:layerMember="1" transform="translate(80.9054,-464.228)">
			<title>Dynamic connector.578</title>
			<v:userDefs>
				<v:ud v:nameU="visVersion" v:val="VT0(15):26"/>
			</v:userDefs>
			<path d="M7.09 496.75 C7.09 499.34 7.09 503.72 7.09 507.41" class="st4"/>
		</g>
		<g id="shape589-32" v:mID="589" v:groupContext="shape" transform="translate(25.6298,-426.524)">
			<title>Rounded Rectangle.589</title>
			<desc>IDEAMJoined.csv</desc>
			<v:userDefs>
				<v:ud v:nameU="CTypeTopLeftSnip" v:prompt="" v:val="VT0(0):5"/>
				<v:ud v:nameU="CTypeTopRightSnip" v:prompt="" v:val="VT0(0):5"/>
				<v:ud v:nameU="CTypeBotLeftSnip" v:prompt="" v:val="VT0(0):5"/>
				<v:ud v:nameU="CTypeBotRightSnip" v:prompt="" v:val="VT0(0):5"/>
				<v:ud v:nameU="CornerLockHoriz" v:prompt="" v:val="VT0(1):5"/>
				<v:ud v:nameU="CornerLockVert" v:prompt="" v:val="VT0(1):5"/>
				<v:ud v:nameU="CornerLockDiag" v:prompt="" v:val="VT0(0):5"/>
				<v:ud v:nameU="TopLeftOffset" v:prompt="" v:val="VT0(0.15748031496063):24"/>
				<v:ud v:nameU="TopRightOffset" v:prompt="" v:val="VT0(0.15748031496063):24"/>
				<v:ud v:nameU="BotLeftOffset" v:prompt="" v:val="VT0(0.15748031496063):24"/>
				<v:ud v:nameU="BotRightOffset" v:prompt="" v:val="VT0(0.15748031496063):24"/>
				<v:ud v:nameU="visVersion" v:prompt="" v:val="VT0(15):26"/>
			</v:userDefs>
			<v:textBlock v:margins="rect(4,4,4,4)" v:tabSpace="42.5197"/>
			<v:textRect cx="62.3622" cy="485.414" width="124.73" height="22.6772"/>
			<path d="M11.34 496.75 L113.39 496.75 A11.3384 11.3384 -180 0 0 124.72 485.41 A11.3384 11.3384 -180 0 0 113.39 474.08
						 L11.34 474.08 A11.3384 11.3384 -180 0 0 0 485.41 A11.3384 11.3384 -180 0 0 11.34 496.75 Z" class="st11"/>
			<text x="28.79" y="488.11" class="st3" v:langID="1033"><v:paragraph v:horizAlign="1"/><v:tabList/>IDEAMJoined.csv</text>		</g>
		<g id="shape594-37" v:mID="594" v:groupContext="shape" v:layerMember="0" transform="translate(35.3031,-144.786)">
			<title>Decision 2.594</title>
			<desc>for stations in parameter</desc>
			<v:custProps>
				<v:cp v:nameU="Cost" v:lbl="Cost" v:type="7" v:format="@" v:langID="1033"/>
				<v:cp v:nameU="Duration" v:lbl="Duration" v:type="2" v:langID="1033"/>
				<v:cp v:nameU="Resources" v:lbl="Resources" v:langID="1033"/>
			</v:custProps>
			<v:userDefs>
				<v:ud v:nameU="visVersion" v:val="VT0(15):26"/>
			</v:userDefs>
			<v:textBlock v:margins="rect(4,4,4,4)" v:tabSpace="42.5197"/>
			<v:textRect cx="52.689" cy="464.62" width="79.04" height="56.2314"/>
			<path d="M0 464.62 L52.69 432.49 L105.38 464.62 L52.69 496.75 L0 464.62 Z" class="st1"/>
			<text x="25.55" y="461.92" class="st3" v:langID="1033"><v:paragraph v:horizAlign="1"/><v:tabList/>for stations in <tspan
						x="32.23" dy="1.2em" class="st13">parameter</tspan></text>		</g>
		<g id="shape596-42" v:mID="596" v:groupContext="shape" transform="translate(25.6299,-102.071)">
			<title>Rounded Rectangle.596</title>
			<desc>print head(1) &#38; map location</desc>
			<v:userDefs>
				<v:ud v:nameU="CTypeTopLeftSnip" v:prompt="" v:val="VT0(0):5"/>
				<v:ud v:nameU="CTypeTopRightSnip" v:prompt="" v:val="VT0(0):5"/>
				<v:ud v:nameU="CTypeBotLeftSnip" v:prompt="" v:val="VT0(0):5"/>
				<v:ud v:nameU="CTypeBotRightSnip" v:prompt="" v:val="VT0(0):5"/>
				<v:ud v:nameU="CornerLockHoriz" v:prompt="" v:val="VT0(1):5"/>
				<v:ud v:nameU="CornerLockVert" v:prompt="" v:val="VT0(1):5"/>
				<v:ud v:nameU="CornerLockDiag" v:prompt="" v:val="VT0(0):5"/>
				<v:ud v:nameU="TopLeftOffset" v:prompt="" v:val="VT0(0.15748031496063):24"/>
				<v:ud v:nameU="TopRightOffset" v:prompt="" v:val="VT0(0.15748031496063):24"/>
				<v:ud v:nameU="BotLeftOffset" v:prompt="" v:val="VT0(0.15748031496063):24"/>
				<v:ud v:nameU="BotRightOffset" v:prompt="" v:val="VT0(0.15748031496063):24"/>
				<v:ud v:nameU="visVersion" v:prompt="" v:val="VT0(15):26"/>
			</v:userDefs>
			<v:textBlock v:margins="rect(4,4,4,4)" v:tabSpace="42.5197"/>
			<v:textRect cx="62.3622" cy="485.414" width="124.73" height="22.6772"/>
			<path d="M11.34 496.75 L113.39 496.75 A11.3384 11.3384 -180 0 0 124.72 485.41 A11.3384 11.3384 -180 0 0 113.39 474.08
						 L11.34 474.08 A11.3384 11.3384 -180 0 0 0 485.41 A11.3384 11.3384 -180 0 0 11.34 496.75 Z" class="st1"/>
			<text x="4.77" y="488.11" class="st3" v:langID="1033"><v:paragraph v:horizAlign="1"/><v:tabList/>print head(1) &#38; map location</text>		</g>
		<g id="shape599-46" v:mID="599" v:groupContext="shape" v:layerMember="1" transform="translate(80.9055,-144.786)">
			<title>Dynamic connector.599</title>
			<desc>S</desc>
			<v:userDefs>
				<v:ud v:nameU="visVersion" v:val="VT0(15):26"/>
			</v:userDefs>
			<v:textBlock v:margins="rect(4,4,4,4)" v:tabSpace="42.5197"/>
			<v:textRect cx="7.08658" cy="506.771" width="30" height="15.2035"/>
			<path d="M7.09 496.75 C7.09 502.07 7.09 503.84 7.09 505.33 C7.09 506.07 7.09 506.75 7.09 507.07 C7.09 507.38 7.09 507.38
						 7.09 507.7 C7.09 508 7.09 508.58 7.09 509.22 C7.09 509.99 7.09 510.86 7.09 512.42" class="st4"/>
			<rect v:rectContext="textBkgnd" x="5.49292" y="503.171" width="3.18741" height="7.20016" class="st14"/>
			<text x="5.49" y="508.57" class="st7" v:langID="1033"><v:paragraph v:horizAlign="1"/><v:tabList/>S</text>		</g>
		<g id="shape600-53" v:mID="600" v:groupContext="shape" transform="translate(25.6299,-71.33)">
			<title>Rounded Rectangle.600</title>
			<desc>pandas describe stats</desc>
			<v:userDefs>
				<v:ud v:nameU="CTypeTopLeftSnip" v:prompt="" v:val="VT0(0):5"/>
				<v:ud v:nameU="CTypeTopRightSnip" v:prompt="" v:val="VT0(0):5"/>
				<v:ud v:nameU="CTypeBotLeftSnip" v:prompt="" v:val="VT0(0):5"/>
				<v:ud v:nameU="CTypeBotRightSnip" v:prompt="" v:val="VT0(0):5"/>
				<v:ud v:nameU="CornerLockHoriz" v:prompt="" v:val="VT0(1):5"/>
				<v:ud v:nameU="CornerLockVert" v:prompt="" v:val="VT0(1):5"/>
				<v:ud v:nameU="CornerLockDiag" v:prompt="" v:val="VT0(0):5"/>
				<v:ud v:nameU="TopLeftOffset" v:prompt="" v:val="VT0(0.15748031496063):24"/>
				<v:ud v:nameU="TopRightOffset" v:prompt="" v:val="VT0(0.15748031496063):24"/>
				<v:ud v:nameU="BotLeftOffset" v:prompt="" v:val="VT0(0.15748031496063):24"/>
				<v:ud v:nameU="BotRightOffset" v:prompt="" v:val="VT0(0.15748031496063):24"/>
				<v:ud v:nameU="visVersion" v:prompt="" v:val="VT0(15):26"/>
			</v:userDefs>
			<v:textBlock v:margins="rect(4,4,4,4)" v:tabSpace="42.5197"/>
			<v:textRect cx="62.3622" cy="485.414" width="124.73" height="22.6772"/>
			<path d="M11.34 496.75 L113.39 496.75 A11.3384 11.3384 -180 0 0 124.72 485.41 A11.3384 11.3384 -180 0 0 113.39 474.08
						 L11.34 474.08 A11.3384 11.3384 -180 0 0 0 485.41 A11.3384 11.3384 -180 0 0 11.34 496.75 Z" class="st1"/>
			<text x="19.76" y="488.11" class="st3" v:langID="1033"><v:paragraph v:horizAlign="1"/><v:tabList/>pandas describe stats</text>		</g>
		<g id="shape601-57" v:mID="601" v:groupContext="shape" v:layerMember="1" transform="translate(80.9055,-105.126)">
			<title>Dynamic connector.601</title>
			<v:userDefs>
				<v:ud v:nameU="visVersion" v:val="VT0(15):26"/>
			</v:userDefs>
			<path d="M7.09 499.81 C7.09 500.74 7.09 502.11 7.09 503.51" class="st4"/>
		</g>
		<g id="shape607-62" v:mID="607" v:groupContext="shape" v:layerMember="1" transform="translate(140.681,-176.918)">
			<title>Dynamic connector.607</title>
			<desc>N</desc>
			<v:userDefs>
				<v:ud v:nameU="visVersion" v:val="VT0(15):26"/>
			</v:userDefs>
			<v:textBlock v:margins="rect(4,4,4,4)" v:tabSpace="42.5197"/>
			<v:textRect cx="66.9474" cy="492.181" width="30" height="15.2035"/>
			<path d="M0 496.75 C25.61 496.75 67.17 496.75 86.25 485.18 C100.72 476.4 102.26 460.96 102.42 448.36 L102.43 448"
					class="st8"/>
			<rect v:rectContext="textBkgnd" x="64.7033" y="488.581" width="4.48819" height="7.20016" class="st6"/>
			<text x="64.7" y="493.98" class="st7" v:langID="1033"><v:paragraph v:horizAlign="1"/><v:tabList/>N</text>		</g>
		<g id="shape613-69" v:mID="613" v:groupContext="shape" transform="translate(25.6299,-9.84707)">
			<title>Rounded Rectangle.613</title>
			<desc>End</desc>
			<v:userDefs>
				<v:ud v:nameU="CTypeTopLeftSnip" v:prompt="" v:val="VT0(0):5"/>
				<v:ud v:nameU="CTypeTopRightSnip" v:prompt="" v:val="VT0(0):5"/>
				<v:ud v:nameU="CTypeBotLeftSnip" v:prompt="" v:val="VT0(0):5"/>
				<v:ud v:nameU="CTypeBotRightSnip" v:prompt="" v:val="VT0(0):5"/>
				<v:ud v:nameU="CornerLockHoriz" v:prompt="" v:val="VT0(1):5"/>
				<v:ud v:nameU="CornerLockVert" v:prompt="" v:val="VT0(1):5"/>
				<v:ud v:nameU="CornerLockDiag" v:prompt="" v:val="VT0(0):5"/>
				<v:ud v:nameU="TopLeftOffset" v:prompt="" v:val="VT0(0.15748031496063):24"/>
				<v:ud v:nameU="TopRightOffset" v:prompt="" v:val="VT0(0.15748031496063):24"/>
				<v:ud v:nameU="BotLeftOffset" v:prompt="" v:val="VT0(0.15748031496063):24"/>
				<v:ud v:nameU="BotRightOffset" v:prompt="" v:val="VT0(0.15748031496063):24"/>
				<v:ud v:nameU="visVersion" v:prompt="" v:val="VT0(15):26"/>
			</v:userDefs>
			<v:textBlock v:margins="rect(4,4,4,4)" v:tabSpace="42.5197"/>
			<v:textRect cx="62.3622" cy="485.414" width="124.73" height="22.6772"/>
			<path d="M11.34 496.75 L113.39 496.75 A11.3384 11.3384 -180 0 0 124.72 485.41 A11.3384 11.3384 -180 0 0 113.39 474.08
						 L11.34 474.08 A11.3384 11.3384 -180 0 0 0 485.41 A11.3384 11.3384 -180 0 0 11.34 496.75 Z" class="st9"/>
			<text x="54.89" y="488.11" class="st3" v:langID="1033"><v:paragraph v:horizAlign="1"/><v:tabList/>End</text>		</g>
		<g id="shape685-73" v:mID="685" v:groupContext="shape" transform="translate(25.6298,-388.82)">
			<title>Rounded Rectangle.685</title>
			<desc>Pandas: dtypes, isnull, describe, unique, size</desc>
			<v:userDefs>
				<v:ud v:nameU="CTypeTopLeftSnip" v:prompt="" v:val="VT0(0):5"/>
				<v:ud v:nameU="CTypeTopRightSnip" v:prompt="" v:val="VT0(0):5"/>
				<v:ud v:nameU="CTypeBotLeftSnip" v:prompt="" v:val="VT0(0):5"/>
				<v:ud v:nameU="CTypeBotRightSnip" v:prompt="" v:val="VT0(0):5"/>
				<v:ud v:nameU="CornerLockHoriz" v:prompt="" v:val="VT0(1):5"/>
				<v:ud v:nameU="CornerLockVert" v:prompt="" v:val="VT0(1):5"/>
				<v:ud v:nameU="CornerLockDiag" v:prompt="" v:val="VT0(0):5"/>
				<v:ud v:nameU="TopLeftOffset" v:prompt="" v:val="VT0(0.15748031496063):24"/>
				<v:ud v:nameU="TopRightOffset" v:prompt="" v:val="VT0(0.15748031496063):24"/>
				<v:ud v:nameU="BotLeftOffset" v:prompt="" v:val="VT0(0.15748031496063):24"/>
				<v:ud v:nameU="BotRightOffset" v:prompt="" v:val="VT0(0.15748031496063):24"/>
				<v:ud v:nameU="visVersion" v:prompt="" v:val="VT0(15):26"/>
			</v:userDefs>
			<v:textBlock v:margins="rect(4,4,4,4)" v:tabSpace="42.5197"/>
			<v:textRect cx="62.3622" cy="485.414" width="124.73" height="22.6772"/>
			<path d="M11.34 496.75 L113.39 496.75 A11.3384 11.3384 -180 0 0 124.72 485.41 A11.3384 11.3384 -180 0 0 113.39 474.08
						 L11.34 474.08 A11.3384 11.3384 -180 0 0 0 485.41 A11.3384 11.3384 -180 0 0 11.34 496.75 Z" class="st1"/>
			<text x="19.23" y="482.71" class="st3" v:langID="1033"><v:paragraph v:horizAlign="1"/><v:tabList/>Pandas: dtypes, isnull, <tspan
						x="20.18" dy="1.2em" class="st13">describe, unique, size</tspan></text>		</g>
		<g id="shape686-78" v:mID="686" v:groupContext="shape" transform="translate(25.6298,-352.259)">
			<title>Rounded Rectangle.686</title>
			<desc>pandas filter by year range</desc>
			<v:userDefs>
				<v:ud v:nameU="CTypeTopLeftSnip" v:prompt="" v:val="VT0(0):5"/>
				<v:ud v:nameU="CTypeTopRightSnip" v:prompt="" v:val="VT0(0):5"/>
				<v:ud v:nameU="CTypeBotLeftSnip" v:prompt="" v:val="VT0(0):5"/>
				<v:ud v:nameU="CTypeBotRightSnip" v:prompt="" v:val="VT0(0):5"/>
				<v:ud v:nameU="CornerLockHoriz" v:prompt="" v:val="VT0(1):5"/>
				<v:ud v:nameU="CornerLockVert" v:prompt="" v:val="VT0(1):5"/>
				<v:ud v:nameU="CornerLockDiag" v:prompt="" v:val="VT0(0):5"/>
				<v:ud v:nameU="TopLeftOffset" v:prompt="" v:val="VT0(0.15748031496063):24"/>
				<v:ud v:nameU="TopRightOffset" v:prompt="" v:val="VT0(0.15748031496063):24"/>
				<v:ud v:nameU="BotLeftOffset" v:prompt="" v:val="VT0(0.15748031496063):24"/>
				<v:ud v:nameU="BotRightOffset" v:prompt="" v:val="VT0(0.15748031496063):24"/>
				<v:ud v:nameU="visVersion" v:prompt="" v:val="VT0(15):26"/>
			</v:userDefs>
			<v:textBlock v:margins="rect(4,4,4,4)" v:tabSpace="42.5197"/>
			<v:textRect cx="62.3622" cy="485.414" width="124.73" height="22.6772"/>
			<path d="M11.34 496.75 L113.39 496.75 A11.3384 11.3384 -180 0 0 124.72 485.41 A11.3384 11.3384 -180 0 0 113.39 474.08
						 L11.34 474.08 A11.3384 11.3384 -180 0 0 0 485.41 A11.3384 11.3384 -180 0 0 11.34 496.75 Z" class="st1"/>
			<text x="9.46" y="488.11" class="st3" v:langID="1033"><v:paragraph v:horizAlign="1"/><v:tabList/>pandas filter by year range</text>		</g>
		<g id="shape688-82" v:mID="688" v:groupContext="shape" v:layerMember="1" transform="translate(80.9054,-352.259)">
			<title>Dynamic connector.688</title>
			<v:userDefs>
				<v:ud v:nameU="visVersion" v:val="VT0(15):26"/>
			</v:userDefs>
			<path d="M7.09 496.75 C7.09 499.34 7.09 503.72 7.09 507.41" class="st4"/>
		</g>
		<g id="shape689-87" v:mID="689" v:groupContext="shape" transform="translate(25.6298,-229.671)">
			<title>Rounded Rectangle.689</title>
			<desc>pandas filter by parameter &#38; general plots</desc>
			<v:userDefs>
				<v:ud v:nameU="CTypeTopLeftSnip" v:prompt="" v:val="VT0(0):5"/>
				<v:ud v:nameU="CTypeTopRightSnip" v:prompt="" v:val="VT0(0):5"/>
				<v:ud v:nameU="CTypeBotLeftSnip" v:prompt="" v:val="VT0(0):5"/>
				<v:ud v:nameU="CTypeBotRightSnip" v:prompt="" v:val="VT0(0):5"/>
				<v:ud v:nameU="CornerLockHoriz" v:prompt="" v:val="VT0(1):5"/>
				<v:ud v:nameU="CornerLockVert" v:prompt="" v:val="VT0(1):5"/>
				<v:ud v:nameU="CornerLockDiag" v:prompt="" v:val="VT0(0):5"/>
				<v:ud v:nameU="TopLeftOffset" v:prompt="" v:val="VT0(0.15748031496063):24"/>
				<v:ud v:nameU="TopRightOffset" v:prompt="" v:val="VT0(0.15748031496063):24"/>
				<v:ud v:nameU="BotLeftOffset" v:prompt="" v:val="VT0(0.15748031496063):24"/>
				<v:ud v:nameU="BotRightOffset" v:prompt="" v:val="VT0(0.15748031496063):24"/>
				<v:ud v:nameU="visVersion" v:prompt="" v:val="VT0(15):26"/>
			</v:userDefs>
			<v:textBlock v:margins="rect(4,4,4,4)" v:tabSpace="42.5197"/>
			<v:textRect cx="62.3622" cy="485.414" width="124.73" height="22.6772"/>
			<path d="M11.34 496.75 L113.39 496.75 A11.3384 11.3384 -180 0 0 124.72 485.41 A11.3384 11.3384 -180 0 0 113.39 474.08
						 L11.34 474.08 A11.3384 11.3384 -180 0 0 0 485.41 A11.3384 11.3384 -180 0 0 11.34 496.75 Z" class="st1"/>
			<text x="5.18" y="482.71" class="st3" v:langID="1033"><v:paragraph v:horizAlign="1"/><v:tabList/>pandas filter by parameter &#38; <tspan
						x="36.48" dy="1.2em" class="st13">general plots</tspan></text>		</g>
		<g id="shape694-92" v:mID="694" v:groupContext="shape" v:layerMember="1" transform="translate(80.9054,-229.671)">
			<title>Dynamic connector.694</title>
			<v:userDefs>
				<v:ud v:nameU="visVersion" v:val="VT0(15):26"/>
			</v:userDefs>
			<path d="M7.09 496.75 C7.09 500.69 7.09 507.65 7.09 513.01" class="st4"/>
		</g>
		<g id="shape695-97" v:mID="695" v:groupContext="shape" transform="translate(180.763,-229.671)">
			<title>Rounded Rectangle.695</title>
			<desc>Pivot table, general stats, correlation analysis table</desc>
			<v:userDefs>
				<v:ud v:nameU="CTypeTopLeftSnip" v:prompt="" v:val="VT0(0):5"/>
				<v:ud v:nameU="CTypeTopRightSnip" v:prompt="" v:val="VT0(0):5"/>
				<v:ud v:nameU="CTypeBotLeftSnip" v:prompt="" v:val="VT0(0):5"/>
				<v:ud v:nameU="CTypeBotRightSnip" v:prompt="" v:val="VT0(0):5"/>
				<v:ud v:nameU="CornerLockHoriz" v:prompt="" v:val="VT0(1):5"/>
				<v:ud v:nameU="CornerLockVert" v:prompt="" v:val="VT0(1):5"/>
				<v:ud v:nameU="CornerLockDiag" v:prompt="" v:val="VT0(0):5"/>
				<v:ud v:nameU="TopLeftOffset" v:prompt="" v:val="VT0(0.15748031496063):24"/>
				<v:ud v:nameU="TopRightOffset" v:prompt="" v:val="VT0(0.15748031496063):24"/>
				<v:ud v:nameU="BotLeftOffset" v:prompt="" v:val="VT0(0.15748031496063):24"/>
				<v:ud v:nameU="BotRightOffset" v:prompt="" v:val="VT0(0.15748031496063):24"/>
				<v:ud v:nameU="visVersion" v:prompt="" v:val="VT0(15):26"/>
			</v:userDefs>
			<v:textBlock v:margins="rect(4,4,4,4)" v:tabSpace="42.5197"/>
			<v:textRect cx="62.3622" cy="485.414" width="124.73" height="22.6772"/>
			<path d="M11.34 496.75 L113.39 496.75 A11.3384 11.3384 -180 0 0 124.72 485.41 A11.3384 11.3384 -180 0 0 113.39 474.08
						 L11.34 474.08 A11.3384 11.3384 -180 0 0 0 485.41 A11.3384 11.3384 -180 0 0 11.34 496.75 Z" class="st1"/>
			<text x="12.88" y="482.71" class="st3" v:langID="1033"><v:paragraph v:horizAlign="1"/><v:tabList/>Pivot table, general stats, <tspan
						x="13.32" dy="1.2em" class="st13">correlation analysis table</tspan></text>		</g>
		<g id="shape696-102" v:mID="696" v:groupContext="shape" v:layerMember="1" transform="translate(23.3799,-51.9271)">
			<title>Dynamic connector.696</title>
			<v:userDefs>
				<v:ud v:nameU="visVersion" v:val="VT0(15):26"/>
			</v:userDefs>
			<path d="M2.25 496.75 C-4.84 496.75 -4.84 486.29 -4.84 477.01 C-4.84 458.56 -4.84 444.77 -4.84 418.67 C-4.84 400.66 -4.84
						 376.8 7.61 372.45 L7.97 372.4" class="st8"/>
		</g>
		<g id="shape697-107" v:mID="697" v:groupContext="shape" transform="translate(25.6299,-40.5885)">
			<title>Rounded Rectangle.697</title>
			<desc>Station plots</desc>
			<v:userDefs>
				<v:ud v:nameU="CTypeTopLeftSnip" v:prompt="" v:val="VT0(0):5"/>
				<v:ud v:nameU="CTypeTopRightSnip" v:prompt="" v:val="VT0(0):5"/>
				<v:ud v:nameU="CTypeBotLeftSnip" v:prompt="" v:val="VT0(0):5"/>
				<v:ud v:nameU="CTypeBotRightSnip" v:prompt="" v:val="VT0(0):5"/>
				<v:ud v:nameU="CornerLockHoriz" v:prompt="" v:val="VT0(1):5"/>
				<v:ud v:nameU="CornerLockVert" v:prompt="" v:val="VT0(1):5"/>
				<v:ud v:nameU="CornerLockDiag" v:prompt="" v:val="VT0(0):5"/>
				<v:ud v:nameU="TopLeftOffset" v:prompt="" v:val="VT0(0.15748031496063):24"/>
				<v:ud v:nameU="TopRightOffset" v:prompt="" v:val="VT0(0.15748031496063):24"/>
				<v:ud v:nameU="BotLeftOffset" v:prompt="" v:val="VT0(0.15748031496063):24"/>
				<v:ud v:nameU="BotRightOffset" v:prompt="" v:val="VT0(0.15748031496063):24"/>
				<v:ud v:nameU="visVersion" v:prompt="" v:val="VT0(15):26"/>
			</v:userDefs>
			<v:textBlock v:margins="rect(4,4,4,4)" v:tabSpace="42.5197"/>
			<v:textRect cx="62.3622" cy="485.414" width="124.73" height="22.6772"/>
			<path d="M11.34 496.75 L113.39 496.75 A11.3384 11.3384 -180 0 0 124.72 485.41 A11.3384 11.3384 -180 0 0 113.39 474.08
						 L11.34 474.08 A11.3384 11.3384 -180 0 0 0 485.41 A11.3384 11.3384 -180 0 0 11.34 496.75 Z" class="st1"/>
			<text x="37.32" y="488.11" class="st3" v:langID="1033"><v:paragraph v:horizAlign="1"/><v:tabList/>Station plots</text>		</g>
		<g id="shape698-111" v:mID="698" v:groupContext="shape" v:layerMember="1" transform="translate(80.9055,-74.3845)">
			<title>Dynamic connector.698</title>
			<v:userDefs>
				<v:ud v:nameU="visVersion" v:val="VT0(15):26"/>
			</v:userDefs>
			<path d="M7.09 499.81 C7.09 500.74 7.09 502.11 7.09 503.51" class="st4"/>
		</g>
		<g id="shape699-116" v:mID="699" v:groupContext="shape" transform="translate(180.763,-263.686)">
			<title>Rounded Rectangle.699</title>
			<desc>Time series, KDE density, correlation map plots</desc>
			<v:userDefs>
				<v:ud v:nameU="CTypeTopLeftSnip" v:prompt="" v:val="VT0(0):5"/>
				<v:ud v:nameU="CTypeTopRightSnip" v:prompt="" v:val="VT0(0):5"/>
				<v:ud v:nameU="CTypeBotLeftSnip" v:prompt="" v:val="VT0(0):5"/>
				<v:ud v:nameU="CTypeBotRightSnip" v:prompt="" v:val="VT0(0):5"/>
				<v:ud v:nameU="CornerLockHoriz" v:prompt="" v:val="VT0(1):5"/>
				<v:ud v:nameU="CornerLockVert" v:prompt="" v:val="VT0(1):5"/>
				<v:ud v:nameU="CornerLockDiag" v:prompt="" v:val="VT0(0):5"/>
				<v:ud v:nameU="TopLeftOffset" v:prompt="" v:val="VT0(0.15748031496063):24"/>
				<v:ud v:nameU="TopRightOffset" v:prompt="" v:val="VT0(0.15748031496063):24"/>
				<v:ud v:nameU="BotLeftOffset" v:prompt="" v:val="VT0(0.15748031496063):24"/>
				<v:ud v:nameU="BotRightOffset" v:prompt="" v:val="VT0(0.15748031496063):24"/>
				<v:ud v:nameU="visVersion" v:prompt="" v:val="VT0(15):26"/>
			</v:userDefs>
			<v:textBlock v:margins="rect(4,4,4,4)" v:tabSpace="42.5197"/>
			<v:textRect cx="62.3622" cy="485.414" width="124.73" height="22.6772"/>
			<path d="M11.34 496.75 L113.39 496.75 A11.3384 11.3384 -180 0 0 124.72 485.41 A11.3384 11.3384 -180 0 0 113.39 474.08
						 L11.34 474.08 A11.3384 11.3384 -180 0 0 0 485.41 A11.3384 11.3384 -180 0 0 11.34 496.75 Z" class="st1"/>
			<text x="13.56" y="482.71" class="st3" v:langID="1033"><v:paragraph v:horizAlign="1"/><v:tabList/>Time series, KDE density, <tspan
						x="19.9" dy="1.2em" class="st13">correlation map plots</tspan></text>		</g>
		<g id="shape700-121" v:mID="700" v:groupContext="shape" v:layerMember="1" transform="translate(236.039,-250.93)">
			<title>Dynamic connector.700</title>
			<v:userDefs>
				<v:ud v:nameU="visVersion" v:val="VT0(15):26"/>
			</v:userDefs>
			<path d="M7.09 495.33 C7.09 493.63 7.09 490.89 7.09 488.36" class="st4"/>
		</g>
		<g id="shape701-126" v:mID="701" v:groupContext="shape" v:layerMember="1" transform="translate(243.126,-286.364)">
			<title>Dynamic connector.701</title>
			<v:userDefs>
				<v:ud v:nameU="visVersion" v:val="VT0(15):26"/>
			</v:userDefs>
			<path d="M0 496.75 C0 492.07 -0 487.1 -2.6 483.89 C-7.35 478.02 -20.79 478.02 -35.61 478.02 C-53.92 478.02 -74.34 478.02
						 -98.08 478.02" class="st4"/>
		</g>
		<g id="shape702-131" v:mID="702" v:groupContext="shape" v:layerMember="1" transform="translate(80.9054,-388.965)">
			<title>Dynamic connector.702</title>
			<v:userDefs>
				<v:ud v:nameU="visVersion" v:val="VT0(15):26"/>
			</v:userDefs>
			<path d="M7.09 496.9 C7.09 499.21 7.09 503.07 7.09 506.42" class="st4"/>
		</g>
		<g id="shape703-136" v:mID="703" v:groupContext="shape" v:layerMember="1" transform="translate(80.9054,-426.524)">
			<title>Dynamic connector.703</title>
			<v:userDefs>
				<v:ud v:nameU="visVersion" v:val="VT0(15):26"/>
			</v:userDefs>
			<path d="M7.09 496.75 C7.09 499.34 7.09 503.72 7.09 507.41" class="st4"/>
		</g>
		<g id="shape704-141" v:mID="704" v:groupContext="shape" transform="translate(161.693,-426.524)">
			<title>Rounded Rectangle.592</title>
			<desc>Year start Year end</desc>
			<v:userDefs>
				<v:ud v:nameU="CTypeTopLeftSnip" v:prompt="" v:val="VT0(0):5"/>
				<v:ud v:nameU="CTypeTopRightSnip" v:prompt="" v:val="VT0(0):5"/>
				<v:ud v:nameU="CTypeBotLeftSnip" v:prompt="" v:val="VT0(0):5"/>
				<v:ud v:nameU="CTypeBotRightSnip" v:prompt="" v:val="VT0(0):5"/>
				<v:ud v:nameU="CornerLockHoriz" v:prompt="" v:val="VT0(1):5"/>
				<v:ud v:nameU="CornerLockVert" v:prompt="" v:val="VT0(1):5"/>
				<v:ud v:nameU="CornerLockDiag" v:prompt="" v:val="VT0(0):5"/>
				<v:ud v:nameU="TopLeftOffset" v:prompt="" v:val="VT0(0.15748031496063):24"/>
				<v:ud v:nameU="TopRightOffset" v:prompt="" v:val="VT0(0.15748031496063):24"/>
				<v:ud v:nameU="BotLeftOffset" v:prompt="" v:val="VT0(0.15748031496063):24"/>
				<v:ud v:nameU="BotRightOffset" v:prompt="" v:val="VT0(0.15748031496063):24"/>
				<v:ud v:nameU="visVersion" v:prompt="" v:val="VT0(15):26"/>
			</v:userDefs>
			<v:textBlock v:margins="rect(4,4,4,4)" v:tabSpace="42.5197"/>
			<v:textRect cx="62.3622" cy="485.414" width="124.73" height="22.6772"/>
			<path d="M11.34 496.75 L113.39 496.75 A11.3384 11.3384 -180 0 0 124.72 485.41 A11.3384 11.3384 -180 0 0 113.39 474.08
						 L11.34 474.08 A11.3384 11.3384 -180 0 0 0 485.41 A11.3384 11.3384 -180 0 0 11.34 496.75 Z" class="st15"/>
			<text x="43.62" y="482.71" class="st3" v:langID="1033"><v:paragraph v:horizAlign="1"/><v:tabList/>Year start<v:newlineChar/><tspan
						x="44.89" dy="1.2em" class="st13">Year end</tspan></text>		</g>
		<g id="shape705-146" v:mID="705" v:groupContext="shape" v:layerMember="1" transform="translate(87.992,-464.228)">
			<title>Dynamic connector.705</title>
			<v:userDefs>
				<v:ud v:nameU="visVersion" v:val="VT0(15):26"/>
			</v:userDefs>
			<path d="M0 496.75 C-0 502.07 13.63 502.07 25.22 502.07 C42.54 502.07 55.29 502.07 68.02 502.07 C80.76 502.07 93.48 502.07
						 110.75 502.07 C120.37 502.07 131.4 502.07 134.92 507.57 L135.01 507.91" class="st8"/>
		</g>
		<g id="shape706-151" v:mID="706" v:groupContext="shape" v:layerMember="1" transform="translate(224.055,-426.524)">
			<title>Dynamic connector.706</title>
			<v:userDefs>
				<v:ud v:nameU="visVersion" v:val="VT0(15):26"/>
			</v:userDefs>
			<path d="M0 496.75 C0 512.48 0 535.56 -13.22 547.36 C-25.98 558.74 -51.06 559.61 -69.34 559.67 L-69.7 559.67"
					class="st8"/>
		</g>
	</g>
</svg>
