<?xml version="1.0" encoding="UTF-8" standalone="no"?>
<!DOCTYPE svg PUBLIC "-//W3C//DTD SVG 1.1//EN" "http://www.w3.org/Graphics/SVG/1.1/DTD/svg11.dtd">
<!-- Generated by Microsoft Visio, SVG Export DEMSrtmFlowchart.svg Page-1 -->
<svg xmlns="http://www.w3.org/2000/svg" xmlns:xlink="http://www.w3.org/1999/xlink" xmlns:ev="http://www.w3.org/2001/xml-events"
		xmlns:v="http://schemas.microsoft.com/visio/2003/SVGExtensions/" width="6.43594in" height="5.80503in"
		viewBox="0 0 463.387 417.962" xml:space="preserve" color-interpolation-filters="sRGB" class="st18">
	<v:documentProperties v:langID="1033" v:metric="true" v:viewMarkup="false"/>

	<style type="text/css">
	<![CDATA[
		.st1 {fill:#f2f2f2;stroke:#fbbc0e;stroke-width:1.5}
		.st2 {fill:#fbbc0e;fill-opacity:1;stroke:#fbbc0e;stroke-opacity:1;stroke-width:0.37313432835821}
		.st3 {fill:#000000;font-family:Segoe UI;font-size:0.75em}
		.st4 {fill:#f2f2f2;stroke:#4c85f4;stroke-width:1.5}
		.st5 {fill:#4c85f4;fill-opacity:1;stroke:#4c85f4;stroke-opacity:1;stroke-width:0.37313432835821}
		.st6 {font-size:1em}
		.st7 {marker-end:url(#mrkr6-37);stroke:#000000;stroke-linecap:round;stroke-linejoin:round;stroke-width:0.5}
		.st8 {fill:#000000;fill-opacity:1;stroke:#000000;stroke-opacity:1;stroke-width:0.25773195876289}
		.st9 {marker-end:url(#mrkr6-43);stroke:#7f7f7f;stroke-dasharray:3.5,2.5;stroke-linecap:round;stroke-linejoin:round;stroke-width:0.5}
		.st10 {fill:#7f7f7f;fill-opacity:1;stroke:#7f7f7f;stroke-opacity:1;stroke-width:0.25773195876289}
		.st11 {marker-end:url(#mrkr6-43);stroke:#7f7f7f;stroke-linecap:round;stroke-linejoin:round;stroke-width:0.5}
		.st12 {marker-end:url(#mrkr6-113);stroke:#7f7f7f;stroke-linecap:round;stroke-linejoin:round;stroke-width:0.5}
		.st13 {fill:#f2f2f2;stroke:#ea4d35;stroke-width:1.5}
		.st14 {fill:#ea4d35;fill-opacity:1;stroke:#ea4d35;stroke-opacity:1;stroke-width:0.37313432835821}
		.st15 {marker-end:url(#mrkr6-190);stroke:#7f7f7f;stroke-linecap:round;stroke-linejoin:round;stroke-width:0.5}
		.st16 {fill:#f2f2f2;stroke:#ea4d35;stroke-dasharray:10.5,7.5;stroke-width:1.5}
		.st17 {marker-end:url(#mrkr6-113);stroke:#7f7f7f;stroke-dasharray:3.5,2.5;stroke-linecap:round;stroke-linejoin:round;stroke-width:0.5}
		.st18 {fill:none;fill-rule:evenodd;font-size:12px;overflow:visible;stroke-linecap:square;stroke-miterlimit:3}
	]]>
	</style>

	<defs id="Markers">
		<g id="lend6">
			<path d="M 2 1 L 0 0 L 2.01237 -1.00641 C 2.32921 -0.372876 2.32921 0.372869 2.01238 1.0064 " style="stroke:none"/>
		</g>
		<marker id="mrkr6-4" class="st2" v:arrowType="6" v:arrowSize="2" v:setback="6.03" refX="6.03" orient="auto"
				markerUnits="strokeWidth" overflow="visible">
			<use xlink:href="#lend6" transform="scale(2.68) "/>
		</marker>
		<marker id="mrkr6-29" class="st5" v:arrowType="6" v:arrowSize="2" v:setback="6.03" refX="6.03" orient="auto"
				markerUnits="strokeWidth" overflow="visible">
			<use xlink:href="#lend6" transform="scale(2.68) "/>
		</marker>
		<marker id="mrkr6-37" class="st8" v:arrowType="6" v:arrowSize="0" v:setback="8.73" refX="-8.73" orient="auto"
				markerUnits="strokeWidth" overflow="visible">
			<use xlink:href="#lend6" transform="scale(-3.88,-3.88) "/>
		</marker>
		<marker id="mrkr6-43" class="st10" v:arrowType="6" v:arrowSize="0" v:setback="8.01" refX="-8.01" orient="auto"
				markerUnits="strokeWidth" overflow="visible">
			<use xlink:href="#lend6" transform="scale(-3.88,-3.88) "/>
		</marker>
		<marker id="mrkr6-113" class="st10" v:arrowType="6" v:arrowSize="0" v:setback="8.73" refX="-8.73" orient="auto"
				markerUnits="strokeWidth" overflow="visible">
			<use xlink:href="#lend6" transform="scale(-3.88,-3.88) "/>
		</marker>
		<marker id="mrkr6-136" class="st14" v:arrowType="6" v:arrowSize="2" v:setback="6.03" refX="6.03" orient="auto"
				markerUnits="strokeWidth" overflow="visible">
			<use xlink:href="#lend6" transform="scale(2.68) "/>
		</marker>
		<marker id="mrkr6-190" class="st10" v:arrowType="6" v:arrowSize="0" v:setback="0" refX="-0" orient="auto"
				markerUnits="strokeWidth" overflow="visible">
			<use xlink:href="#lend6" transform="scale(-3.88,-3.88) "/>
		</marker>
	</defs>
	<g v:mID="0" v:index="1" v:groupContext="foregroundPage">
		<title>Page-1</title>
		<v:pageProperties v:drawingScale="0.0393701" v:pageScale="0.0393701" v:drawingUnits="24" v:shadowOffsetX="8.50394"
				v:shadowOffsetY="-8.50394"/>
		<v:layer v:name="Connector" v:index="0"/>
		<g id="shape129-1" v:mID="129" v:groupContext="shape" transform="translate(162.38,-385.438)">
			<title>Rounded Rectangle.129</title>
			<desc>NASA Earthdata Login</desc>
			<v:userDefs>
				<v:ud v:nameU="CTypeTopLeftSnip" v:prompt="" v:val="VT0(0):5"/>
				<v:ud v:nameU="CTypeTopRightSnip" v:prompt="" v:val="VT0(0):5"/>
				<v:ud v:nameU="CTypeBotLeftSnip" v:prompt="" v:val="VT0(0):5"/>
				<v:ud v:nameU="CTypeBotRightSnip" v:prompt="" v:val="VT0(0):5"/>
				<v:ud v:nameU="CornerLockHoriz" v:prompt="" v:val="VT0(1):5"/>
				<v:ud v:nameU="CornerLockVert" v:prompt="" v:val="VT0(1):5"/>
				<v:ud v:nameU="CornerLockDiag" v:prompt="" v:val="VT0(0):5"/>
				<v:ud v:nameU="TopLeftOffset" v:prompt="" v:val="VT0(0.15748031496063):24"/>
				<v:ud v:nameU="TopRightOffset" v:prompt="" v:val="VT0(0.15748031496063):24"/>
				<v:ud v:nameU="BotLeftOffset" v:prompt="" v:val="VT0(0.15748031496063):24"/>
				<v:ud v:nameU="BotRightOffset" v:prompt="" v:val="VT0(0.15748031496063):24"/>
				<v:ud v:nameU="visVersion" v:prompt="" v:val="VT0(15):26"/>
			</v:userDefs>
			<v:textBlock v:margins="rect(4,4,4,4)" v:tabSpace="42.5197"/>
			<v:textRect cx="58.9117" cy="406.623" width="117.83" height="22.6772"/>
			<path d="M11.34 417.96 L106.48 417.96 A11.3384 11.3384 -180 0 0 117.82 406.62 A11.3384 11.3384 -180 0 0 106.48 395.28
						 L11.34 395.28 A11.3384 11.3384 -180 0 0 0 406.62 A11.3384 11.3384 -180 0 0 11.34 417.96 Z" class="st1"/>
			<text x="14.89" y="409.32" class="st3" v:langID="1033"><v:paragraph v:horizAlign="1"/><v:tabList/>NASA Earthdata Login</text>		</g>
		<g id="shape130-6" v:mID="130" v:groupContext="shape" transform="translate(162.279,-350.005)">
			<title>Rounded Rectangle.130</title>
			<desc>Delimitar zona descarga</desc>
			<v:userDefs>
				<v:ud v:nameU="CTypeTopLeftSnip" v:prompt="" v:val="VT0(0):5"/>
				<v:ud v:nameU="CTypeTopRightSnip" v:prompt="" v:val="VT0(0):5"/>
				<v:ud v:nameU="CTypeBotLeftSnip" v:prompt="" v:val="VT0(0):5"/>
				<v:ud v:nameU="CTypeBotRightSnip" v:prompt="" v:val="VT0(0):5"/>
				<v:ud v:nameU="CornerLockHoriz" v:prompt="" v:val="VT0(1):5"/>
				<v:ud v:nameU="CornerLockVert" v:prompt="" v:val="VT0(1):5"/>
				<v:ud v:nameU="CornerLockDiag" v:prompt="" v:val="VT0(0):5"/>
				<v:ud v:nameU="TopLeftOffset" v:prompt="" v:val="VT0(0.15748031496063):24"/>
				<v:ud v:nameU="TopRightOffset" v:prompt="" v:val="VT0(0.15748031496063):24"/>
				<v:ud v:nameU="BotLeftOffset" v:prompt="" v:val="VT0(0.15748031496063):24"/>
				<v:ud v:nameU="BotRightOffset" v:prompt="" v:val="VT0(0.15748031496063):24"/>
				<v:ud v:nameU="visVersion" v:prompt="" v:val="VT0(15):26"/>
			</v:userDefs>
			<v:textBlock v:margins="rect(4,4,4,4)" v:tabSpace="42.5197"/>
			<v:textRect cx="58.9117" cy="406.623" width="117.83" height="22.6772"/>
			<path d="M11.34 417.96 L106.48 417.96 A11.3384 11.3384 -180 0 0 117.82 406.62 A11.3384 11.3384 -180 0 0 106.48 395.28
						 L11.34 395.28 A11.3384 11.3384 -180 0 0 0 406.62 A11.3384 11.3384 -180 0 0 11.34 417.96 Z" class="st1"/>
			<text x="11.12" y="409.32" class="st3" v:langID="1033"><v:paragraph v:horizAlign="1"/><v:tabList/>Delimitar zona descarga</text>		</g>
		<g id="shape131-10" v:mID="131" v:groupContext="shape" transform="translate(17.5668,-306.068)">
			<title>Rounded Rectangle.131</title>
			<desc>Polygon</desc>
			<v:userDefs>
				<v:ud v:nameU="CTypeTopLeftSnip" v:prompt="" v:val="VT0(0):5"/>
				<v:ud v:nameU="CTypeTopRightSnip" v:prompt="" v:val="VT0(0):5"/>
				<v:ud v:nameU="CTypeBotLeftSnip" v:prompt="" v:val="VT0(0):5"/>
				<v:ud v:nameU="CTypeBotRightSnip" v:prompt="" v:val="VT0(0):5"/>
				<v:ud v:nameU="CornerLockHoriz" v:prompt="" v:val="VT0(1):5"/>
				<v:ud v:nameU="CornerLockVert" v:prompt="" v:val="VT0(1):5"/>
				<v:ud v:nameU="CornerLockDiag" v:prompt="" v:val="VT0(0):5"/>
				<v:ud v:nameU="TopLeftOffset" v:prompt="" v:val="VT0(0.15748031496063):24"/>
				<v:ud v:nameU="TopRightOffset" v:prompt="" v:val="VT0(0.15748031496063):24"/>
				<v:ud v:nameU="BotLeftOffset" v:prompt="" v:val="VT0(0.15748031496063):24"/>
				<v:ud v:nameU="BotRightOffset" v:prompt="" v:val="VT0(0.15748031496063):24"/>
				<v:ud v:nameU="visVersion" v:prompt="" v:val="VT0(15):26"/>
			</v:userDefs>
			<v:textBlock v:margins="rect(4,4,4,4)" v:tabSpace="42.5197"/>
			<v:textRect cx="28.3465" cy="406.623" width="56.7" height="22.6772"/>
			<path d="M11.34 417.96 L45.35 417.96 A11.3384 11.3384 -180 0 0 56.69 406.62 A11.3384 11.3384 -180 0 0 45.35 395.28 L11.34
						 395.28 A11.3384 11.3384 -180 0 0 0 406.62 A11.3384 11.3384 -180 0 0 11.34 417.96 Z" class="st1"/>
			<text x="12.09" y="409.32" class="st3" v:langID="1033"><v:paragraph v:horizAlign="1"/><v:tabList/>Polygon</text>		</g>
		<g id="shape132-14" v:mID="132" v:groupContext="shape" transform="translate(86.7927,-306.068)">
			<title>Rounded Rectangle.132</title>
			<desc>Rectangle</desc>
			<v:userDefs>
				<v:ud v:nameU="CTypeTopLeftSnip" v:prompt="" v:val="VT0(0):5"/>
				<v:ud v:nameU="CTypeTopRightSnip" v:prompt="" v:val="VT0(0):5"/>
				<v:ud v:nameU="CTypeBotLeftSnip" v:prompt="" v:val="VT0(0):5"/>
				<v:ud v:nameU="CTypeBotRightSnip" v:prompt="" v:val="VT0(0):5"/>
				<v:ud v:nameU="CornerLockHoriz" v:prompt="" v:val="VT0(1):5"/>
				<v:ud v:nameU="CornerLockVert" v:prompt="" v:val="VT0(1):5"/>
				<v:ud v:nameU="CornerLockDiag" v:prompt="" v:val="VT0(0):5"/>
				<v:ud v:nameU="TopLeftOffset" v:prompt="" v:val="VT0(0.15748031496063):24"/>
				<v:ud v:nameU="TopRightOffset" v:prompt="" v:val="VT0(0.15748031496063):24"/>
				<v:ud v:nameU="BotLeftOffset" v:prompt="" v:val="VT0(0.15748031496063):24"/>
				<v:ud v:nameU="BotRightOffset" v:prompt="" v:val="VT0(0.15748031496063):24"/>
				<v:ud v:nameU="visVersion" v:prompt="" v:val="VT0(15):26"/>
			</v:userDefs>
			<v:textBlock v:margins="rect(4,4,4,4)" v:tabSpace="42.5197"/>
			<v:textRect cx="28.3465" cy="406.623" width="56.7" height="22.6772"/>
			<path d="M11.34 417.96 L45.35 417.96 A11.3384 11.3384 -180 0 0 56.69 406.62 A11.3384 11.3384 -180 0 0 45.35 395.28 L11.34
						 395.28 A11.3384 11.3384 -180 0 0 0 406.62 A11.3384 11.3384 -180 0 0 11.34 417.96 Z" class="st1"/>
			<text x="8.77" y="409.32" class="st3" v:langID="1033"><v:paragraph v:horizAlign="1"/><v:tabList/>Rectangle</text>		</g>
		<g id="shape133-18" v:mID="133" v:groupContext="shape" transform="translate(156.019,-306.068)">
			<title>Rounded Rectangle.133</title>
			<desc>Point</desc>
			<v:userDefs>
				<v:ud v:nameU="CTypeTopLeftSnip" v:prompt="" v:val="VT0(0):5"/>
				<v:ud v:nameU="CTypeTopRightSnip" v:prompt="" v:val="VT0(0):5"/>
				<v:ud v:nameU="CTypeBotLeftSnip" v:prompt="" v:val="VT0(0):5"/>
				<v:ud v:nameU="CTypeBotRightSnip" v:prompt="" v:val="VT0(0):5"/>
				<v:ud v:nameU="CornerLockHoriz" v:prompt="" v:val="VT0(1):5"/>
				<v:ud v:nameU="CornerLockVert" v:prompt="" v:val="VT0(1):5"/>
				<v:ud v:nameU="CornerLockDiag" v:prompt="" v:val="VT0(0):5"/>
				<v:ud v:nameU="TopLeftOffset" v:prompt="" v:val="VT0(0.15748031496063):24"/>
				<v:ud v:nameU="TopRightOffset" v:prompt="" v:val="VT0(0.15748031496063):24"/>
				<v:ud v:nameU="BotLeftOffset" v:prompt="" v:val="VT0(0.15748031496063):24"/>
				<v:ud v:nameU="BotRightOffset" v:prompt="" v:val="VT0(0.15748031496063):24"/>
				<v:ud v:nameU="visVersion" v:prompt="" v:val="VT0(15):26"/>
			</v:userDefs>
			<v:textBlock v:margins="rect(4,4,4,4)" v:tabSpace="42.5197"/>
			<v:textRect cx="28.3465" cy="406.623" width="56.7" height="22.6772"/>
			<path d="M11.34 417.96 L45.35 417.96 A11.3384 11.3384 -180 0 0 56.69 406.62 A11.3384 11.3384 -180 0 0 45.35 395.28 L11.34
						 395.28 A11.3384 11.3384 -180 0 0 0 406.62 A11.3384 11.3384 -180 0 0 11.34 417.96 Z" class="st1"/>
			<text x="18.03" y="409.32" class="st3" v:langID="1033"><v:paragraph v:horizAlign="1"/><v:tabList/>Point</text>		</g>
		<g id="shape134-22" v:mID="134" v:groupContext="shape" transform="translate(225.244,-306.068)">
			<title>Rounded Rectangle.134</title>
			<desc>Circle</desc>
			<v:userDefs>
				<v:ud v:nameU="CTypeTopLeftSnip" v:prompt="" v:val="VT0(0):5"/>
				<v:ud v:nameU="CTypeTopRightSnip" v:prompt="" v:val="VT0(0):5"/>
				<v:ud v:nameU="CTypeBotLeftSnip" v:prompt="" v:val="VT0(0):5"/>
				<v:ud v:nameU="CTypeBotRightSnip" v:prompt="" v:val="VT0(0):5"/>
				<v:ud v:nameU="CornerLockHoriz" v:prompt="" v:val="VT0(1):5"/>
				<v:ud v:nameU="CornerLockVert" v:prompt="" v:val="VT0(1):5"/>
				<v:ud v:nameU="CornerLockDiag" v:prompt="" v:val="VT0(0):5"/>
				<v:ud v:nameU="TopLeftOffset" v:prompt="" v:val="VT0(0.15748031496063):24"/>
				<v:ud v:nameU="TopRightOffset" v:prompt="" v:val="VT0(0.15748031496063):24"/>
				<v:ud v:nameU="BotLeftOffset" v:prompt="" v:val="VT0(0.15748031496063):24"/>
				<v:ud v:nameU="BotRightOffset" v:prompt="" v:val="VT0(0.15748031496063):24"/>
				<v:ud v:nameU="visVersion" v:prompt="" v:val="VT0(15):26"/>
			</v:userDefs>
			<v:textBlock v:margins="rect(4,4,4,4)" v:tabSpace="42.5197"/>
			<v:textRect cx="28.3465" cy="406.623" width="56.7" height="22.6772"/>
			<path d="M11.34 417.96 L45.35 417.96 A11.3384 11.3384 -180 0 0 56.69 406.62 A11.3384 11.3384 -180 0 0 45.35 395.28 L11.34
						 395.28 A11.3384 11.3384 -180 0 0 0 406.62 A11.3384 11.3384 -180 0 0 11.34 417.96 Z" class="st1"/>
			<text x="17.38" y="409.32" class="st3" v:langID="1033"><v:paragraph v:horizAlign="1"/><v:tabList/>Circle</text>		</g>
		<g id="shape135-26" v:mID="135" v:groupContext="shape" transform="translate(294.47,-306.068)">
			<title>Rounded Rectangle.135</title>
			<desc>File (.shp, .kml, .kmz, GeoJSON, Geo RSS)</desc>
			<v:userDefs>
				<v:ud v:nameU="CTypeTopLeftSnip" v:prompt="" v:val="VT0(0):5"/>
				<v:ud v:nameU="CTypeTopRightSnip" v:prompt="" v:val="VT0(0):5"/>
				<v:ud v:nameU="CTypeBotLeftSnip" v:prompt="" v:val="VT0(0):5"/>
				<v:ud v:nameU="CTypeBotRightSnip" v:prompt="" v:val="VT0(0):5"/>
				<v:ud v:nameU="CornerLockHoriz" v:prompt="" v:val="VT0(1):5"/>
				<v:ud v:nameU="CornerLockVert" v:prompt="" v:val="VT0(1):5"/>
				<v:ud v:nameU="CornerLockDiag" v:prompt="" v:val="VT0(0):5"/>
				<v:ud v:nameU="TopLeftOffset" v:prompt="" v:val="VT0(0.15748031496063):24"/>
				<v:ud v:nameU="TopRightOffset" v:prompt="" v:val="VT0(0.15748031496063):24"/>
				<v:ud v:nameU="BotLeftOffset" v:prompt="" v:val="VT0(0.15748031496063):24"/>
				<v:ud v:nameU="BotRightOffset" v:prompt="" v:val="VT0(0.15748031496063):24"/>
				<v:ud v:nameU="visVersion" v:prompt="" v:val="VT0(15):26"/>
			</v:userDefs>
			<v:textBlock v:margins="rect(4,4,4,4)" v:tabSpace="42.5197"/>
			<v:textRect cx="58.9117" cy="406.623" width="117.83" height="22.6772"/>
			<path d="M11.34 417.96 L106.48 417.96 A11.3384 11.3384 -180 0 0 117.82 406.62 A11.3384 11.3384 -180 0 0 106.48 395.28
						 L11.34 395.28 A11.3384 11.3384 -180 0 0 0 406.62 A11.3384 11.3384 -180 0 0 11.34 417.96 Z" class="st4"/>
			<text x="18.82" y="403.92" class="st3" v:langID="1033"><v:paragraph v:horizAlign="1"/><v:tabList/>File (.shp, .kml, .kmz, <tspan
						x="19.73" dy="1.2em" class="st6">GeoJSON, Geo RSS)</tspan></text>		</g>
		<g id="shape136-32" v:mID="136" v:groupContext="shape" v:layerMember="0" transform="translate(228.328,-386.146)">
			<title>Dynamic connector.136</title>
			<v:userDefs>
				<v:ud v:nameU="visVersion" v:val="VT0(15):26"/>
			</v:userDefs>
			<path d="M-7.04 418.67 C-7.04 421.33 -7.04 422.21 -7.04 422.93 C-7.04 423.29 -7.04 423.61 -7.05 423.78 C-7.06 423.99
						 -7.1 423.99 -7.12 424.18 C-7.14 424.4 -7.14 424.88 -7.14 425.41 C-7.14 425.86 -7.14 426.35 -7.14 427.06"
					class="st7"/>
		</g>
		<g id="shape137-38" v:mID="137" v:groupContext="shape" v:layerMember="0" transform="translate(162.279,-361.343)">
			<title>Dynamic connector.137</title>
			<v:userDefs>
				<v:ud v:nameU="visVersion" v:val="VT0(15):26"/>
			</v:userDefs>
			<path d="M0 417.96 C-29.09 417.96 -78.03 417.96 -99.52 425.65 C-113.49 430.64 -115.88 438.88 -116.28 446.2 L-116.29 446.56"
					class="st9"/>
		</g>
		<g id="shape138-44" v:mID="138" v:groupContext="shape" v:layerMember="0" transform="translate(162.279,-361.343)">
			<title>Dynamic connector.138</title>
			<v:userDefs>
				<v:ud v:nameU="visVersion" v:val="VT0(15):26"/>
			</v:userDefs>
			<path d="M0 417.96 C-11.79 417.96 -30.34 417.96 -39.16 424.69 C-45.8 429.77 -46.91 438.66 -47.1 446.2 L-47.11 446.56"
					class="st9"/>
		</g>
		<g id="shape139-49" v:mID="139" v:groupContext="shape" v:layerMember="0" transform="translate(221.191,-350.005)">
			<title>Dynamic connector.139</title>
			<v:userDefs>
				<v:ud v:nameU="visVersion" v:val="VT0(15):26"/>
			</v:userDefs>
			<path d="M0 417.96 C0 427.1 -27.24 428.38 -34.86 435.32 L-35.02 435.64" class="st9"/>
		</g>
		<g id="shape140-54" v:mID="140" v:groupContext="shape" v:layerMember="0" transform="translate(221.191,-350.005)">
			<title>Dynamic connector.140</title>
			<v:userDefs>
				<v:ud v:nameU="visVersion" v:val="VT0(15):26"/>
			</v:userDefs>
			<path d="M0 417.96 C0 427.07 23.78 428.37 30.6 435.25 L30.75 435.57" class="st9"/>
		</g>
		<g id="shape141-59" v:mID="141" v:groupContext="shape" v:layerMember="0" transform="translate(280.103,-361.343)">
			<title>Dynamic connector.141</title>
			<v:userDefs>
				<v:ud v:nameU="visVersion" v:val="VT0(15):26"/>
			</v:userDefs>
			<path d="M0 417.96 C18.32 417.96 48.4 417.96 62.02 425.28 C71.37 430.31 72.95 438.8 73.22 446.2 L73.23 446.56"
					class="st11"/>
		</g>
		<g id="shape142-64" v:mID="142" v:groupContext="shape" transform="translate(9.84707,-246.54)">
			<title>Rounded Rectangle.142</title>
			<desc>Buscar (30m): NASA Shuttle Radar Topography Mission Global 1 ...</desc>
			<v:userDefs>
				<v:ud v:nameU="CTypeTopLeftSnip" v:prompt="" v:val="VT0(0):5"/>
				<v:ud v:nameU="CTypeTopRightSnip" v:prompt="" v:val="VT0(0):5"/>
				<v:ud v:nameU="CTypeBotLeftSnip" v:prompt="" v:val="VT0(0):5"/>
				<v:ud v:nameU="CTypeBotRightSnip" v:prompt="" v:val="VT0(0):5"/>
				<v:ud v:nameU="CornerLockHoriz" v:prompt="" v:val="VT0(1):5"/>
				<v:ud v:nameU="CornerLockVert" v:prompt="" v:val="VT0(1):5"/>
				<v:ud v:nameU="CornerLockDiag" v:prompt="" v:val="VT0(0):5"/>
				<v:ud v:nameU="TopLeftOffset" v:prompt="" v:val="VT0(0.15748031496063):24"/>
				<v:ud v:nameU="TopRightOffset" v:prompt="" v:val="VT0(0.15748031496063):24"/>
				<v:ud v:nameU="BotLeftOffset" v:prompt="" v:val="VT0(0.15748031496063):24"/>
				<v:ud v:nameU="BotRightOffset" v:prompt="" v:val="VT0(0.15748031496063):24"/>
				<v:ud v:nameU="visVersion" v:prompt="" v:val="VT0(15):26"/>
			</v:userDefs>
			<v:textBlock v:margins="rect(4,4,4,4)" v:tabSpace="42.5197"/>
			<v:textRect cx="98.5396" cy="406.623" width="197.08" height="22.6772"/>
			<path d="M11.34 417.96 L185.74 417.96 A11.3384 11.3384 -180 0 0 197.08 406.62 A11.3384 11.3384 -180 0 0 185.74 395.28
						 L11.34 395.28 A11.3384 11.3384 -180 0 0 0 406.62 A11.3384 11.3384 -180 0 0 11.34 417.96 Z" class="st1"/>
			<text x="5.82" y="403.92" class="st3" v:langID="1033"><v:paragraph v:horizAlign="1"/><v:tabList/>Buscar (30m): NASA Shuttle Radar Topography <tspan
						x="31.71" dy="1.2em" class="st6">Mission Global 1 arc second V003</tspan></text>		</g>
		<g id="shape143-69" v:mID="143" v:groupContext="shape" v:layerMember="0" transform="translate(45.9132,-306.068)">
			<title>Dynamic connector.143</title>
			<v:userDefs>
				<v:ud v:nameU="visVersion" v:val="VT0(15):26"/>
			</v:userDefs>
			<path d="M0 417.96 C0 428.59 15.1 428.59 30.19 428.59 C45.38 428.59 60.57 428.59 62.31 450.45 L62.32 450.81"
					class="st9"/>
		</g>
		<g id="shape144-74" v:mID="144" v:groupContext="shape" v:layerMember="0" transform="translate(353.382,-306.068)">
			<title>Dynamic connector.144</title>
			<v:userDefs>
				<v:ud v:nameU="visVersion" v:val="VT0(15):26"/>
			</v:userDefs>
			<path d="M0 417.96 C0 444.18 -32.97 444.18 -62 444.18 C-90.87 444.18 -115.84 444.18 -125.46 452.48 C-130.85 457.12 -131.43
						 464.36 -142.1 465.87 L-142.46 465.89" class="st11"/>
		</g>
		<g id="shape145-79" v:mID="145" v:groupContext="shape" v:layerMember="0" transform="translate(118.849,-306.068)">
			<title>Dynamic connector.145</title>
			<v:userDefs>
				<v:ud v:nameU="visVersion" v:val="VT0(15):26"/>
			</v:userDefs>
			<path d="M-3.71 417.96 C-3.71 427.97 -9.69 428.55 -10.4 450.45 L-10.4 450.81" class="st9"/>
		</g>
		<g id="shape146-84" v:mID="146" v:groupContext="shape" v:layerMember="0" transform="translate(184.365,-306.068)">
			<title>Dynamic connector.146</title>
			<v:userDefs>
				<v:ud v:nameU="visVersion" v:val="VT0(15):26"/>
			</v:userDefs>
			<path d="M0 417.96 C-0 428.59 -18.55 428.59 -37.1 428.59 C-55.4 428.59 -73.69 428.59 -75.78 450.45 L-75.8 450.81"
					class="st9"/>
		</g>
		<g id="shape147-89" v:mID="147" v:groupContext="shape" v:layerMember="0" transform="translate(253.591,-306.068)">
			<title>Dynamic connector.147</title>
			<v:userDefs>
				<v:ud v:nameU="visVersion" v:val="VT0(15):26"/>
			</v:userDefs>
			<path d="M0 417.96 C-0 444.18 -31.62 444.18 -54.82 444.18 C-84.9 444.18 -100.85 444.18 -122.22 444.18 C-131.31 444.18
						 -141.39 444.18 -144.35 450.53 L-144.42 450.89" class="st9"/>
		</g>
		<g id="shape148-94" v:mID="148" v:groupContext="shape" transform="translate(76.5815,-194.099)">
			<title>Rounded Rectangle.148</title>
			<desc>Verificar matching granules</desc>
			<v:userDefs>
				<v:ud v:nameU="CTypeTopLeftSnip" v:prompt="" v:val="VT0(0):5"/>
				<v:ud v:nameU="CTypeTopRightSnip" v:prompt="" v:val="VT0(0):5"/>
				<v:ud v:nameU="CTypeBotLeftSnip" v:prompt="" v:val="VT0(0):5"/>
				<v:ud v:nameU="CTypeBotRightSnip" v:prompt="" v:val="VT0(0):5"/>
				<v:ud v:nameU="CornerLockHoriz" v:prompt="" v:val="VT0(1):5"/>
				<v:ud v:nameU="CornerLockVert" v:prompt="" v:val="VT0(1):5"/>
				<v:ud v:nameU="CornerLockDiag" v:prompt="" v:val="VT0(0):5"/>
				<v:ud v:nameU="TopLeftOffset" v:prompt="" v:val="VT0(0.15748031496063):24"/>
				<v:ud v:nameU="TopRightOffset" v:prompt="" v:val="VT0(0.15748031496063):24"/>
				<v:ud v:nameU="BotLeftOffset" v:prompt="" v:val="VT0(0.15748031496063):24"/>
				<v:ud v:nameU="BotRightOffset" v:prompt="" v:val="VT0(0.15748031496063):24"/>
				<v:ud v:nameU="visVersion" v:prompt="" v:val="VT0(15):26"/>
			</v:userDefs>
			<v:textBlock v:margins="rect(4,4,4,4)" v:tabSpace="42.5197"/>
			<v:textRect cx="65.1724" cy="406.623" width="130.35" height="22.6772"/>
			<path d="M11.34 417.96 L119.01 417.96 A11.3384 11.3384 -180 0 0 130.34 406.62 A11.3384 11.3384 -180 0 0 119.01 395.28
						 L11.34 395.28 A11.3384 11.3384 -180 0 0 0 406.62 A11.3384 11.3384 -180 0 0 11.34 417.96 Z" class="st1"/>
			<text x="10.92" y="409.32" class="st3" v:langID="1033"><v:paragraph v:horizAlign="1"/><v:tabList/>Verificar matching granules</text>		</g>
		<g id="shape149-98" v:mID="149" v:groupContext="shape" v:layerMember="0" transform="translate(108.387,-246.54)">
			<title>Dynamic connector.149</title>
			<v:userDefs>
				<v:ud v:nameU="visVersion" v:val="VT0(15):26"/>
			</v:userDefs>
			<path d="M0 417.96 C-0 427.72 28.14 428.52 32.74 443.41 L32.79 443.76" class="st11"/>
		</g>
		<g id="shape150-103" v:mID="150" v:groupContext="shape" transform="translate(235.322,-194.099)">
			<title>Rounded Rectangle.150</title>
			<desc>Download All / Done / Download Data / .hgt.zip</desc>
			<v:userDefs>
				<v:ud v:nameU="CTypeTopLeftSnip" v:prompt="" v:val="VT0(0):5"/>
				<v:ud v:nameU="CTypeTopRightSnip" v:prompt="" v:val="VT0(0):5"/>
				<v:ud v:nameU="CTypeBotLeftSnip" v:prompt="" v:val="VT0(0):5"/>
				<v:ud v:nameU="CTypeBotRightSnip" v:prompt="" v:val="VT0(0):5"/>
				<v:ud v:nameU="CornerLockHoriz" v:prompt="" v:val="VT0(1):5"/>
				<v:ud v:nameU="CornerLockVert" v:prompt="" v:val="VT0(1):5"/>
				<v:ud v:nameU="CornerLockDiag" v:prompt="" v:val="VT0(0):5"/>
				<v:ud v:nameU="TopLeftOffset" v:prompt="" v:val="VT0(0.15748031496063):24"/>
				<v:ud v:nameU="TopRightOffset" v:prompt="" v:val="VT0(0.15748031496063):24"/>
				<v:ud v:nameU="BotLeftOffset" v:prompt="" v:val="VT0(0.15748031496063):24"/>
				<v:ud v:nameU="BotRightOffset" v:prompt="" v:val="VT0(0.15748031496063):24"/>
				<v:ud v:nameU="visVersion" v:prompt="" v:val="VT0(15):26"/>
			</v:userDefs>
			<v:textBlock v:margins="rect(4,4,4,4)" v:tabSpace="42.5197"/>
			<v:textRect cx="65.1724" cy="406.623" width="130.35" height="22.6772"/>
			<path d="M11.34 417.96 L119.01 417.96 A11.3384 11.3384 -180 0 0 130.34 406.62 A11.3384 11.3384 -180 0 0 119.01 395.28
						 L11.34 395.28 A11.3384 11.3384 -180 0 0 0 406.62 A11.3384 11.3384 -180 0 0 11.34 417.96 Z" class="st1"/>
			<text x="20.7" y="403.92" class="st3" v:langID="1033"><v:paragraph v:horizAlign="1"/><v:tabList/>Download All / Done / <tspan
						x="15.76" dy="1.2em" class="st6">Download Data / .hgt.zip</tspan></text>		</g>
		<g id="shape151-108" v:mID="151" v:groupContext="shape" v:layerMember="0" transform="translate(206.926,-198.351)">
			<title>Dynamic connector.151</title>
			<v:userDefs>
				<v:ud v:nameU="visVersion" v:val="VT0(15):26"/>
			</v:userDefs>
			<path d="M0 410.88 C5.84 410.88 16.49 410.88 24.03 410.88" class="st12"/>
		</g>
		<g id="shape152-114" v:mID="152" v:groupContext="shape" transform="translate(235.322,-111.894)">
			<title>Rounded Rectangle.152</title>
			<desc>Cargar grillas .hgt</desc>
			<v:userDefs>
				<v:ud v:nameU="CTypeTopLeftSnip" v:prompt="" v:val="VT0(0):5"/>
				<v:ud v:nameU="CTypeTopRightSnip" v:prompt="" v:val="VT0(0):5"/>
				<v:ud v:nameU="CTypeBotLeftSnip" v:prompt="" v:val="VT0(0):5"/>
				<v:ud v:nameU="CTypeBotRightSnip" v:prompt="" v:val="VT0(0):5"/>
				<v:ud v:nameU="CornerLockHoriz" v:prompt="" v:val="VT0(1):5"/>
				<v:ud v:nameU="CornerLockVert" v:prompt="" v:val="VT0(1):5"/>
				<v:ud v:nameU="CornerLockDiag" v:prompt="" v:val="VT0(0):5"/>
				<v:ud v:nameU="TopLeftOffset" v:prompt="" v:val="VT0(0.15748031496063):24"/>
				<v:ud v:nameU="TopRightOffset" v:prompt="" v:val="VT0(0.15748031496063):24"/>
				<v:ud v:nameU="BotLeftOffset" v:prompt="" v:val="VT0(0.15748031496063):24"/>
				<v:ud v:nameU="BotRightOffset" v:prompt="" v:val="VT0(0.15748031496063):24"/>
				<v:ud v:nameU="visVersion" v:prompt="" v:val="VT0(15):26"/>
			</v:userDefs>
			<v:textBlock v:margins="rect(4,4,4,4)" v:tabSpace="42.5197"/>
			<v:textRect cx="65.1724" cy="406.623" width="130.35" height="22.6772"/>
			<path d="M11.34 417.96 L119.01 417.96 A11.3384 11.3384 -180 0 0 130.34 406.62 A11.3384 11.3384 -180 0 0 119.01 395.28
						 L11.34 395.28 A11.3384 11.3384 -180 0 0 0 406.62 A11.3384 11.3384 -180 0 0 11.34 417.96 Z" class="st1"/>
			<text x="30.18" y="409.32" class="st3" v:langID="1033"><v:paragraph v:horizAlign="1"/><v:tabList/>Cargar grillas .hgt</text>		</g>
		<g id="shape153-118" v:mID="153" v:groupContext="shape" v:layerMember="0" transform="translate(300.494,-194.099)">
			<title>Dynamic connector.153</title>
			<v:userDefs>
				<v:ud v:nameU="visVersion" v:val="VT0(15):26"/>
			</v:userDefs>
			<path d="M0 417.96 C0 423.28 -15.9 423.28 -29.4 423.28 C-49.62 423.28 -64.5 423.28 -79.35 423.28 C-94.21 423.28 -109.05
						 423.28 -129.19 423.28 C-140.86 423.28 -154.29 423.28 -157.84 430.7 L-157.92 431.05" class="st11"/>
		</g>
		<g id="shape154-123" v:mID="154" v:groupContext="shape" transform="translate(76.5815,-111.894)">
			<title>Rounded Rectangle.154</title>
			<desc>Asignar CRS proyectado al mapa</desc>
			<v:userDefs>
				<v:ud v:nameU="CTypeTopLeftSnip" v:prompt="" v:val="VT0(0):5"/>
				<v:ud v:nameU="CTypeTopRightSnip" v:prompt="" v:val="VT0(0):5"/>
				<v:ud v:nameU="CTypeBotLeftSnip" v:prompt="" v:val="VT0(0):5"/>
				<v:ud v:nameU="CTypeBotRightSnip" v:prompt="" v:val="VT0(0):5"/>
				<v:ud v:nameU="CornerLockHoriz" v:prompt="" v:val="VT0(1):5"/>
				<v:ud v:nameU="CornerLockVert" v:prompt="" v:val="VT0(1):5"/>
				<v:ud v:nameU="CornerLockDiag" v:prompt="" v:val="VT0(0):5"/>
				<v:ud v:nameU="TopLeftOffset" v:prompt="" v:val="VT0(0.15748031496063):24"/>
				<v:ud v:nameU="TopRightOffset" v:prompt="" v:val="VT0(0.15748031496063):24"/>
				<v:ud v:nameU="BotLeftOffset" v:prompt="" v:val="VT0(0.15748031496063):24"/>
				<v:ud v:nameU="BotRightOffset" v:prompt="" v:val="VT0(0.15748031496063):24"/>
				<v:ud v:nameU="visVersion" v:prompt="" v:val="VT0(15):26"/>
			</v:userDefs>
			<v:textBlock v:margins="rect(4,4,4,4)" v:tabSpace="42.5197"/>
			<v:textRect cx="65.1724" cy="406.623" width="130.35" height="22.6772"/>
			<path d="M11.34 417.96 L119.01 417.96 A11.3384 11.3384 -180 0 0 130.34 406.62 A11.3384 11.3384 -180 0 0 119.01 395.28
						 L11.34 395.28 A11.3384 11.3384 -180 0 0 0 406.62 A11.3384 11.3384 -180 0 0 11.34 417.96 Z" class="st1"/>
			<text x="12.72" y="403.92" class="st3" v:langID="1033"><v:paragraph v:horizAlign="1"/><v:tabList/>Asignar CRS proyectado al <tspan
						x="54.07" dy="1.2em" class="st6">mapa</tspan></text>		</g>
		<g id="shape156-128" v:mID="156" v:groupContext="shape" v:layerMember="0" transform="translate(235.322,-116.146)">
			<title>Dynamic connector.156</title>
			<v:userDefs>
				<v:ud v:nameU="visVersion" v:val="VT0(15):26"/>
			</v:userDefs>
			<path d="M0 410.88 C-5.84 410.88 -16.49 410.88 -24.03 410.88" class="st12"/>
		</g>
		<g id="shape157-133" v:mID="157" v:groupContext="shape" transform="translate(76.5815,-77.535)">
			<title>Rounded Rectangle.157</title>
			<desc>Mosaic to New Raster / Reproyección</desc>
			<v:userDefs>
				<v:ud v:nameU="CTypeTopLeftSnip" v:prompt="" v:val="VT0(0):5"/>
				<v:ud v:nameU="CTypeTopRightSnip" v:prompt="" v:val="VT0(0):5"/>
				<v:ud v:nameU="CTypeBotLeftSnip" v:prompt="" v:val="VT0(0):5"/>
				<v:ud v:nameU="CTypeBotRightSnip" v:prompt="" v:val="VT0(0):5"/>
				<v:ud v:nameU="CornerLockHoriz" v:prompt="" v:val="VT0(1):5"/>
				<v:ud v:nameU="CornerLockVert" v:prompt="" v:val="VT0(1):5"/>
				<v:ud v:nameU="CornerLockDiag" v:prompt="" v:val="VT0(0):5"/>
				<v:ud v:nameU="TopLeftOffset" v:prompt="" v:val="VT0(0.15748031496063):24"/>
				<v:ud v:nameU="TopRightOffset" v:prompt="" v:val="VT0(0.15748031496063):24"/>
				<v:ud v:nameU="BotLeftOffset" v:prompt="" v:val="VT0(0.15748031496063):24"/>
				<v:ud v:nameU="BotRightOffset" v:prompt="" v:val="VT0(0.15748031496063):24"/>
				<v:ud v:nameU="visVersion" v:prompt="" v:val="VT0(15):26"/>
			</v:userDefs>
			<v:textBlock v:margins="rect(4,4,4,4)" v:tabSpace="42.5197"/>
			<v:textRect cx="65.1724" cy="406.623" width="130.35" height="22.6772"/>
			<path d="M11.34 417.96 L119.01 417.96 A11.3384 11.3384 -180 0 0 130.34 406.62 A11.3384 11.3384 -180 0 0 119.01 395.28
						 L11.34 395.28 A11.3384 11.3384 -180 0 0 0 406.62 A11.3384 11.3384 -180 0 0 11.34 417.96 Z" class="st13"/>
			<text x="18.98" y="403.92" class="st3" v:langID="1033"><v:paragraph v:horizAlign="1"/><v:tabList/>Mosaic to New Raster / <tspan
						x="38.32" dy="1.2em" class="st6">Reproyección</tspan></text>		</g>
		<g id="shape158-139" v:mID="158" v:groupContext="shape" v:layerMember="0" transform="translate(69.4948,-123.233)">
			<title>Dynamic connector.158</title>
			<v:userDefs>
				<v:ud v:nameU="visVersion" v:val="VT0(15):26"/>
			</v:userDefs>
			<path d="M7.09 417.96 C-2.02 417.96 -3.32 443.17 3.17 450.4 L3.49 450.56" class="st11"/>
		</g>
		<g id="shape159-144" v:mID="159" v:groupContext="shape" transform="translate(235.322,-77.535)">
			<title>Rounded Rectangle.159</title>
			<desc>Grilla mosaico</desc>
			<v:userDefs>
				<v:ud v:nameU="CTypeTopLeftSnip" v:prompt="" v:val="VT0(0):5"/>
				<v:ud v:nameU="CTypeTopRightSnip" v:prompt="" v:val="VT0(0):5"/>
				<v:ud v:nameU="CTypeBotLeftSnip" v:prompt="" v:val="VT0(0):5"/>
				<v:ud v:nameU="CTypeBotRightSnip" v:prompt="" v:val="VT0(0):5"/>
				<v:ud v:nameU="CornerLockHoriz" v:prompt="" v:val="VT0(1):5"/>
				<v:ud v:nameU="CornerLockVert" v:prompt="" v:val="VT0(1):5"/>
				<v:ud v:nameU="CornerLockDiag" v:prompt="" v:val="VT0(0):5"/>
				<v:ud v:nameU="TopLeftOffset" v:prompt="" v:val="VT0(0.15748031496063):24"/>
				<v:ud v:nameU="TopRightOffset" v:prompt="" v:val="VT0(0.15748031496063):24"/>
				<v:ud v:nameU="BotLeftOffset" v:prompt="" v:val="VT0(0.15748031496063):24"/>
				<v:ud v:nameU="BotRightOffset" v:prompt="" v:val="VT0(0.15748031496063):24"/>
				<v:ud v:nameU="visVersion" v:prompt="" v:val="VT0(15):26"/>
			</v:userDefs>
			<v:textBlock v:margins="rect(4,4,4,4)" v:tabSpace="42.5197"/>
			<v:textRect cx="65.1724" cy="406.623" width="130.35" height="22.6772"/>
			<path d="M11.34 417.96 L119.01 417.96 A11.3384 11.3384 -180 0 0 130.34 406.62 A11.3384 11.3384 -180 0 0 119.01 395.28
						 L11.34 395.28 A11.3384 11.3384 -180 0 0 0 406.62 A11.3384 11.3384 -180 0 0 11.34 417.96 Z" class="st1"/>
			<text x="37.21" y="409.32" class="st3" v:langID="1033"><v:paragraph v:horizAlign="1"/><v:tabList/>Grilla mosaico</text>		</g>
		<g id="shape160-148" v:mID="160" v:groupContext="shape" transform="translate(235.322,-43.1756)">
			<title>Rounded Rectangle.160</title>
			<desc>Evaluar por simbología Stretched / Histogram Eq.</desc>
			<v:userDefs>
				<v:ud v:nameU="CTypeTopLeftSnip" v:prompt="" v:val="VT0(0):5"/>
				<v:ud v:nameU="CTypeTopRightSnip" v:prompt="" v:val="VT0(0):5"/>
				<v:ud v:nameU="CTypeBotLeftSnip" v:prompt="" v:val="VT0(0):5"/>
				<v:ud v:nameU="CTypeBotRightSnip" v:prompt="" v:val="VT0(0):5"/>
				<v:ud v:nameU="CornerLockHoriz" v:prompt="" v:val="VT0(1):5"/>
				<v:ud v:nameU="CornerLockVert" v:prompt="" v:val="VT0(1):5"/>
				<v:ud v:nameU="CornerLockDiag" v:prompt="" v:val="VT0(0):5"/>
				<v:ud v:nameU="TopLeftOffset" v:prompt="" v:val="VT0(0.15748031496063):24"/>
				<v:ud v:nameU="TopRightOffset" v:prompt="" v:val="VT0(0.15748031496063):24"/>
				<v:ud v:nameU="BotLeftOffset" v:prompt="" v:val="VT0(0.15748031496063):24"/>
				<v:ud v:nameU="BotRightOffset" v:prompt="" v:val="VT0(0.15748031496063):24"/>
				<v:ud v:nameU="visVersion" v:prompt="" v:val="VT0(15):26"/>
			</v:userDefs>
			<v:textBlock v:margins="rect(4,4,4,4)" v:tabSpace="42.5197"/>
			<v:textRect cx="65.1724" cy="406.623" width="130.35" height="22.6772"/>
			<path d="M11.34 417.96 L119.01 417.96 A11.3384 11.3384 -180 0 0 130.34 406.62 A11.3384 11.3384 -180 0 0 119.01 395.28
						 L11.34 395.28 A11.3384 11.3384 -180 0 0 0 406.62 A11.3384 11.3384 -180 0 0 11.34 417.96 Z" class="st1"/>
			<text x="19.74" y="403.92" class="st3" v:langID="1033"><v:paragraph v:horizAlign="1"/><v:tabList/>Evaluar por simbología <tspan
						x="14.1" dy="1.2em" class="st6">Stretched / Histogram Eq.</tspan></text>		</g>
		<g id="shape161-153" v:mID="161" v:groupContext="shape" v:layerMember="0" transform="translate(206.926,-81.7869)">
			<title>Dynamic connector.161</title>
			<v:userDefs>
				<v:ud v:nameU="visVersion" v:val="VT0(15):26"/>
			</v:userDefs>
			<path d="M0 410.88 C5.84 410.88 16.49 410.88 24.03 410.88" class="st12"/>
		</g>
		<g id="shape162-158" v:mID="162" v:groupContext="shape" v:layerMember="0" transform="translate(358.58,-88.8735)">
			<title>Dynamic connector.162</title>
			<v:userDefs>
				<v:ud v:nameU="visVersion" v:val="VT0(15):26"/>
			</v:userDefs>
			<path d="M7.09 417.96 C16.19 417.96 17.5 443.17 11.01 450.4 L10.68 450.56" class="st11"/>
		</g>
		<g id="shape163-163" v:mID="163" v:groupContext="shape" transform="translate(76.5815,-43.1756)">
			<title>Rounded Rectangle.163</title>
			<desc>Visualizar perfil</desc>
			<v:userDefs>
				<v:ud v:nameU="CTypeTopLeftSnip" v:prompt="" v:val="VT0(0):5"/>
				<v:ud v:nameU="CTypeTopRightSnip" v:prompt="" v:val="VT0(0):5"/>
				<v:ud v:nameU="CTypeBotLeftSnip" v:prompt="" v:val="VT0(0):5"/>
				<v:ud v:nameU="CTypeBotRightSnip" v:prompt="" v:val="VT0(0):5"/>
				<v:ud v:nameU="CornerLockHoriz" v:prompt="" v:val="VT0(1):5"/>
				<v:ud v:nameU="CornerLockVert" v:prompt="" v:val="VT0(1):5"/>
				<v:ud v:nameU="CornerLockDiag" v:prompt="" v:val="VT0(0):5"/>
				<v:ud v:nameU="TopLeftOffset" v:prompt="" v:val="VT0(0.15748031496063):24"/>
				<v:ud v:nameU="TopRightOffset" v:prompt="" v:val="VT0(0.15748031496063):24"/>
				<v:ud v:nameU="BotLeftOffset" v:prompt="" v:val="VT0(0.15748031496063):24"/>
				<v:ud v:nameU="BotRightOffset" v:prompt="" v:val="VT0(0.15748031496063):24"/>
				<v:ud v:nameU="visVersion" v:prompt="" v:val="VT0(15):26"/>
			</v:userDefs>
			<v:textBlock v:margins="rect(4,4,4,4)" v:tabSpace="42.5197"/>
			<v:textRect cx="65.1724" cy="406.623" width="130.35" height="22.6772"/>
			<path d="M11.34 417.96 L119.01 417.96 A11.3384 11.3384 -180 0 0 130.34 406.62 A11.3384 11.3384 -180 0 0 119.01 395.28
						 L11.34 395.28 A11.3384 11.3384 -180 0 0 0 406.62 A11.3384 11.3384 -180 0 0 11.34 417.96 Z" class="st1"/>
			<text x="35.09" y="409.32" class="st3" v:langID="1033"><v:paragraph v:horizAlign="1"/><v:tabList/>Visualizar perfil</text>		</g>
		<g id="shape164-167" v:mID="164" v:groupContext="shape" transform="translate(155.952,-9.84707)">
			<title>Rounded Rectangle.164</title>
			<desc>Representar en escena 3D</desc>
			<v:userDefs>
				<v:ud v:nameU="CTypeTopLeftSnip" v:prompt="" v:val="VT0(0):5"/>
				<v:ud v:nameU="CTypeTopRightSnip" v:prompt="" v:val="VT0(0):5"/>
				<v:ud v:nameU="CTypeBotLeftSnip" v:prompt="" v:val="VT0(0):5"/>
				<v:ud v:nameU="CTypeBotRightSnip" v:prompt="" v:val="VT0(0):5"/>
				<v:ud v:nameU="CornerLockHoriz" v:prompt="" v:val="VT0(1):5"/>
				<v:ud v:nameU="CornerLockVert" v:prompt="" v:val="VT0(1):5"/>
				<v:ud v:nameU="CornerLockDiag" v:prompt="" v:val="VT0(0):5"/>
				<v:ud v:nameU="TopLeftOffset" v:prompt="" v:val="VT0(0.15748031496063):24"/>
				<v:ud v:nameU="TopRightOffset" v:prompt="" v:val="VT0(0.15748031496063):24"/>
				<v:ud v:nameU="BotLeftOffset" v:prompt="" v:val="VT0(0.15748031496063):24"/>
				<v:ud v:nameU="BotRightOffset" v:prompt="" v:val="VT0(0.15748031496063):24"/>
				<v:ud v:nameU="visVersion" v:prompt="" v:val="VT0(15):26"/>
			</v:userDefs>
			<v:textBlock v:margins="rect(4,4,4,4)" v:tabSpace="42.5197"/>
			<v:textRect cx="65.1724" cy="406.623" width="130.35" height="22.6772"/>
			<path d="M11.34 417.96 L119.01 417.96 A11.3384 11.3384 -180 0 0 130.34 406.62 A11.3384 11.3384 -180 0 0 119.01 395.28
						 L11.34 395.28 A11.3384 11.3384 -180 0 0 0 406.62 A11.3384 11.3384 -180 0 0 11.34 417.96 Z" class="st1"/>
			<text x="13.67" y="409.32" class="st3" v:langID="1033"><v:paragraph v:horizAlign="1"/><v:tabList/>Representar en escena 3D</text>		</g>
		<g id="shape165-171" v:mID="165" v:groupContext="shape" transform="translate(394.062,-43.1756)">
			<title>Rounded Rectangle.165</title>
			<desc>Hillshade</desc>
			<v:userDefs>
				<v:ud v:nameU="CTypeTopLeftSnip" v:prompt="" v:val="VT0(0):5"/>
				<v:ud v:nameU="CTypeTopRightSnip" v:prompt="" v:val="VT0(0):5"/>
				<v:ud v:nameU="CTypeBotLeftSnip" v:prompt="" v:val="VT0(0):5"/>
				<v:ud v:nameU="CTypeBotRightSnip" v:prompt="" v:val="VT0(0):5"/>
				<v:ud v:nameU="CornerLockHoriz" v:prompt="" v:val="VT0(1):5"/>
				<v:ud v:nameU="CornerLockVert" v:prompt="" v:val="VT0(1):5"/>
				<v:ud v:nameU="CornerLockDiag" v:prompt="" v:val="VT0(0):5"/>
				<v:ud v:nameU="TopLeftOffset" v:prompt="" v:val="VT0(0.15748031496063):24"/>
				<v:ud v:nameU="TopRightOffset" v:prompt="" v:val="VT0(0.15748031496063):24"/>
				<v:ud v:nameU="BotLeftOffset" v:prompt="" v:val="VT0(0.15748031496063):24"/>
				<v:ud v:nameU="BotRightOffset" v:prompt="" v:val="VT0(0.15748031496063):24"/>
				<v:ud v:nameU="visVersion" v:prompt="" v:val="VT0(15):26"/>
			</v:userDefs>
			<v:textBlock v:margins="rect(4,4,4,4)" v:tabSpace="42.5197"/>
			<v:textRect cx="29.7393" cy="406.623" width="59.48" height="22.6772"/>
			<path d="M11.34 417.96 L48.14 417.96 A11.3384 11.3384 -180 0 0 59.48 406.62 A11.3384 11.3384 -180 0 0 48.14 395.28 L11.34
						 395.28 A11.3384 11.3384 -180 0 0 0 406.62 A11.3384 11.3384 -180 0 0 11.34 417.96 Z" class="st13"/>
			<text x="11.53" y="409.32" class="st3" v:langID="1033"><v:paragraph v:horizAlign="1"/><v:tabList/>Hillshade</text>		</g>
		<g id="shape166-175" v:mID="166" v:groupContext="shape" v:layerMember="0" transform="translate(365.666,-88.8735)">
			<title>Dynamic connector.166</title>
			<v:userDefs>
				<v:ud v:nameU="visVersion" v:val="VT0(15):26"/>
			</v:userDefs>
			<path d="M0 417.96 C14.53 417.96 38.58 417.96 49.37 423.21 C56.05 426.47 57.64 431.75 58.02 436.62 L58.03 436.98"
					class="st11"/>
		</g>
		<g id="shape167-180" v:mID="167" v:groupContext="shape" v:layerMember="0" transform="translate(235.322,-47.4276)">
			<title>Dynamic connector.167</title>
			<v:userDefs>
				<v:ud v:nameU="visVersion" v:val="VT0(15):26"/>
			</v:userDefs>
			<path d="M0 410.88 C-5.84 410.88 -16.49 410.88 -24.03 410.88" class="st12"/>
		</g>
		<g id="shape169-185" v:mID="169" v:groupContext="shape" v:layerMember="0" transform="translate(76.5815,-54.5142)">
			<title>Dynamic connector.169</title>
			<v:userDefs>
				<v:ud v:nameU="visVersion" v:val="VT0(15):26"/>
			</v:userDefs>
			<path d="M0 417.96 C-10.63 417.96 -10.63 451.29 79.37 451.29" class="st15"/>
		</g>
		<g id="shape170-191" v:mID="170" v:groupContext="shape" transform="translate(232.509,-246.54)">
			<title>Rounded Rectangle.170</title>
			<desc>Buscar (90m): NASA Shuttle Radar Topography Mission Global 3 ...</desc>
			<v:userDefs>
				<v:ud v:nameU="CTypeTopLeftSnip" v:prompt="" v:val="VT0(0):5"/>
				<v:ud v:nameU="CTypeTopRightSnip" v:prompt="" v:val="VT0(0):5"/>
				<v:ud v:nameU="CTypeBotLeftSnip" v:prompt="" v:val="VT0(0):5"/>
				<v:ud v:nameU="CTypeBotRightSnip" v:prompt="" v:val="VT0(0):5"/>
				<v:ud v:nameU="CornerLockHoriz" v:prompt="" v:val="VT0(1):5"/>
				<v:ud v:nameU="CornerLockVert" v:prompt="" v:val="VT0(1):5"/>
				<v:ud v:nameU="CornerLockDiag" v:prompt="" v:val="VT0(0):5"/>
				<v:ud v:nameU="TopLeftOffset" v:prompt="" v:val="VT0(0.15748031496063):24"/>
				<v:ud v:nameU="TopRightOffset" v:prompt="" v:val="VT0(0.15748031496063):24"/>
				<v:ud v:nameU="BotLeftOffset" v:prompt="" v:val="VT0(0.15748031496063):24"/>
				<v:ud v:nameU="BotRightOffset" v:prompt="" v:val="VT0(0.15748031496063):24"/>
				<v:ud v:nameU="visVersion" v:prompt="" v:val="VT0(15):26"/>
			</v:userDefs>
			<v:textBlock v:margins="rect(4,4,4,4)" v:tabSpace="42.5197"/>
			<v:textRect cx="98.5396" cy="406.623" width="197.08" height="22.6772"/>
			<path d="M11.34 417.96 L185.74 417.96 A11.3384 11.3384 -180 0 0 197.08 406.62 A11.3384 11.3384 -180 0 0 185.74 395.28
						 L11.34 395.28 A11.3384 11.3384 -180 0 0 0 406.62 A11.3384 11.3384 -180 0 0 11.34 417.96 Z" class="st1"/>
			<text x="5.82" y="403.92" class="st3" v:langID="1033"><v:paragraph v:horizAlign="1"/><v:tabList/>Buscar (90m): NASA Shuttle Radar Topography <tspan
						x="31.71" dy="1.2em" class="st6">Mission Global 3 arc second V003</tspan></text>		</g>
		<g id="shape171-196" v:mID="171" v:groupContext="shape" v:layerMember="0" transform="translate(412.294,-317.406)">
			<title>Dynamic connector.171</title>
			<v:userDefs>
				<v:ud v:nameU="visVersion" v:val="VT0(15):26"/>
			</v:userDefs>
			<path d="M0 417.96 C27.92 417.96 27.92 433.47 27.92 448.97 C27.92 461 27.92 473.03 21.55 476.5 L21.19 476.58"
					class="st9"/>
		</g>
		<g id="shape172-201" v:mID="172" v:groupContext="shape" v:layerMember="0" transform="translate(331.049,-246.54)">
			<title>Dynamic connector.172</title>
			<v:userDefs>
				<v:ud v:nameU="visVersion" v:val="VT0(15):26"/>
			</v:userDefs>
			<path d="M0 417.96 C0 428.59 -15.84 428.59 -29.91 428.59 C-57.86 428.59 -78.8 428.59 -118.49 428.59 C-146.08 428.59 -182.74
						 428.59 -188.52 443.43 L-188.58 443.79" class="st9"/>
		</g>
		<g id="shape173-206" v:mID="173" v:groupContext="shape" transform="translate(76.5815,-154.414)">
			<title>Rounded Rectangle.173</title>
			<desc>Descomprimir</desc>
			<v:userDefs>
				<v:ud v:nameU="CTypeTopLeftSnip" v:prompt="" v:val="VT0(0):5"/>
				<v:ud v:nameU="CTypeTopRightSnip" v:prompt="" v:val="VT0(0):5"/>
				<v:ud v:nameU="CTypeBotLeftSnip" v:prompt="" v:val="VT0(0):5"/>
				<v:ud v:nameU="CTypeBotRightSnip" v:prompt="" v:val="VT0(0):5"/>
				<v:ud v:nameU="CornerLockHoriz" v:prompt="" v:val="VT0(1):5"/>
				<v:ud v:nameU="CornerLockVert" v:prompt="" v:val="VT0(1):5"/>
				<v:ud v:nameU="CornerLockDiag" v:prompt="" v:val="VT0(0):5"/>
				<v:ud v:nameU="TopLeftOffset" v:prompt="" v:val="VT0(0.15748031496063):24"/>
				<v:ud v:nameU="TopRightOffset" v:prompt="" v:val="VT0(0.15748031496063):24"/>
				<v:ud v:nameU="BotLeftOffset" v:prompt="" v:val="VT0(0.15748031496063):24"/>
				<v:ud v:nameU="BotRightOffset" v:prompt="" v:val="VT0(0.15748031496063):24"/>
				<v:ud v:nameU="visVersion" v:prompt="" v:val="VT0(15):26"/>
			</v:userDefs>
			<v:textBlock v:margins="rect(4,4,4,4)" v:tabSpace="42.5197"/>
			<v:textRect cx="65.1724" cy="406.623" width="130.35" height="22.6772"/>
			<path d="M11.34 417.96 L119.01 417.96 A11.3384 11.3384 -180 0 0 130.34 406.62 A11.3384 11.3384 -180 0 0 119.01 395.28
						 L11.34 395.28 A11.3384 11.3384 -180 0 0 0 406.62 A11.3384 11.3384 -180 0 0 11.34 417.96 Z" class="st1"/>
			<text x="37.33" y="409.32" class="st3" v:langID="1033"><v:paragraph v:horizAlign="1"/><v:tabList/>Descomprimir</text>		</g>
		<g id="shape174-210" v:mID="174" v:groupContext="shape" v:layerMember="0" transform="translate(141.754,-154.414)">
			<title>Dynamic connector.174</title>
			<v:userDefs>
				<v:ud v:nameU="visVersion" v:val="VT0(15):26"/>
			</v:userDefs>
			<path d="M0 417.96 C0 428.59 15.96 428.59 29.52 428.59 C49.67 428.59 64.52 428.59 79.37 428.59 C94.23 428.59 109.08 428.59
						 129.26 428.59 C140.37 428.59 153.1 428.59 157.31 433.68 L157.42 434.02" class="st11"/>
		</g>
		<g id="shape175-215" v:mID="175" v:groupContext="shape" transform="translate(235.322,-154.414)">
			<title>Rounded Rectangle.175</title>
			<desc>Descarga mediante script .sh</desc>
			<v:userDefs>
				<v:ud v:nameU="CTypeTopLeftSnip" v:prompt="" v:val="VT0(0):5"/>
				<v:ud v:nameU="CTypeTopRightSnip" v:prompt="" v:val="VT0(0):5"/>
				<v:ud v:nameU="CTypeBotLeftSnip" v:prompt="" v:val="VT0(0):5"/>
				<v:ud v:nameU="CTypeBotRightSnip" v:prompt="" v:val="VT0(0):5"/>
				<v:ud v:nameU="CornerLockHoriz" v:prompt="" v:val="VT0(1):5"/>
				<v:ud v:nameU="CornerLockVert" v:prompt="" v:val="VT0(1):5"/>
				<v:ud v:nameU="CornerLockDiag" v:prompt="" v:val="VT0(0):5"/>
				<v:ud v:nameU="TopLeftOffset" v:prompt="" v:val="VT0(0.15748031496063):24"/>
				<v:ud v:nameU="TopRightOffset" v:prompt="" v:val="VT0(0.15748031496063):24"/>
				<v:ud v:nameU="BotLeftOffset" v:prompt="" v:val="VT0(0.15748031496063):24"/>
				<v:ud v:nameU="BotRightOffset" v:prompt="" v:val="VT0(0.15748031496063):24"/>
				<v:ud v:nameU="visVersion" v:prompt="" v:val="VT0(15):26"/>
			</v:userDefs>
			<v:textBlock v:margins="rect(4,4,4,4)" v:tabSpace="42.5197"/>
			<v:textRect cx="65.1724" cy="406.623" width="130.35" height="22.6772"/>
			<path d="M11.34 417.96 L119.01 417.96 A11.3384 11.3384 -180 0 0 130.34 406.62 A11.3384 11.3384 -180 0 0 119.01 395.28
						 L11.34 395.28 A11.3384 11.3384 -180 0 0 0 406.62 A11.3384 11.3384 -180 0 0 11.34 417.96 Z" class="st16"/>
			<text x="8.26" y="409.32" class="st3" v:langID="1033"><v:paragraph v:horizAlign="1"/><v:tabList/>Descarga mediante script .sh</text>		</g>
		<g id="shape176-219" v:mID="176" v:groupContext="shape" v:layerMember="0" transform="translate(358.58,-205.438)">
			<title>Dynamic connector.176</title>
			<v:userDefs>
				<v:ud v:nameU="visVersion" v:val="VT0(15):26"/>
			</v:userDefs>
			<path d="M7.09 417.96 C16.23 417.96 17.51 447.35 10.91 455.55 L10.6 455.72" class="st9"/>
		</g>
		<g id="shape177-224" v:mID="177" v:groupContext="shape" v:layerMember="0" transform="translate(235.322,-158.666)">
			<title>Dynamic connector.177</title>
			<v:userDefs>
				<v:ud v:nameU="visVersion" v:val="VT0(15):26"/>
			</v:userDefs>
			<path d="M0 410.88 C-5.84 410.88 -16.49 410.88 -24.03 410.88" class="st17"/>
		</g>
	</g>
</svg>
