<?xml version="1.0" encoding="UTF-8"?>
<!DOCTYPE svg PUBLIC "-//W3C//DTD SVG 1.1//EN" "http://www.w3.org/Graphics/SVG/1.1/DTD/svg11.dtd">
<!-- Creator: CorelDRAW -->
<svg xmlns="http://www.w3.org/2000/svg" xml:space="preserve" width="102.877mm" height="31.7074mm" version="1.1" style="shape-rendering:geometricPrecision; text-rendering:geometricPrecision; image-rendering:optimizeQuality; fill-rule:evenodd; clip-rule:evenodd"
viewBox="0 0 39818.8 12272.43"
 xmlns:xlink="http://www.w3.org/1999/xlink"
 xmlns:xodm="http://www.corel.com/coreldraw/odm/2003">
 <defs>
  <style type="text/css">
   <![CDATA[
    .fil0 {fill:#1A1A1A}
    .fil1 {fill:white}
    .fil3 {fill:#373435;fill-rule:nonzero}
    .fil2 {fill:black;fill-rule:nonzero}
   ]]>
  </style>
 </defs>
 <g id="Capa_x0020_1">
  <metadata id="CorelCorpID_0Corel-Layer"/>
  <g id="_2318132422560">
   <path class="fil0" d="M6136.21 0c3388.95,0 6136.21,2747.26 6136.21,6136.21 0,3388.95 -2747.26,6136.21 -6136.21,6136.21 -3388.95,0 -6136.21,-2747.26 -6136.21,-6136.21 0,-3388.95 2747.26,-6136.21 6136.21,-6136.21z"/>
   <path class="fil1" d="M8038.11 4091.07c87.44,-126.14 255.57,100.56 89.25,-508.39 -167.56,-613.52 -734.7,-328.72 -677.65,-1225.06 56.59,-888.48 431.29,-1031.88 -924.47,-1253.51 -1877.94,-306.89 -2715.56,529.1 -3713.38,1247.04 136.86,356.78 459.08,757.69 333.25,1229.47 -151.72,568.81 -552.01,464.85 -803.4,815.09 -492.18,685.78 219.3,602.76 -432.53,1173.31 -466.67,408.46 -616.19,9.56 -717.52,880.74 526.62,604.61 1540.58,708 2173.14,1268.49 90.65,1028.4 -401.49,1005.06 -457.46,2099.06 1910.53,1052.12 3722.9,1906.47 6002.06,264.86 727.58,-524.03 1384.06,-1284.59 1753.08,-2192.03 781.34,-1921.44 634.34,-2586.17 -782.5,-2676.7 141.66,817.49 182.73,958.38 -229.56,1505.05 -634.57,841.49 -919.17,2715.75 -2366.98,2797.85 -441.12,-1189.45 49.04,-1596.32 -126.06,-2496.88 -810.37,-396.65 -951.76,48.27 -1523.28,-545.51 -388.14,-866.15 -33.98,-1423.81 471.66,-1833.97 944.87,-766.44 1266.24,-137.56 1932.36,-548.92z"/>
  </g>
  <path class="fil2" d="M14400.56 7948.55l1390.45 -3624.67 527.36 0 1475.68 3624.67 -545.9 0 -419.33 -1098.53 -1526.3 0 -393.17 1098.53 -508.78 0zm1042.84 -1488.33l1235.24 0 -378 -1004.9c-113.91,-305.42 -199.99,-557.7 -259.87,-756.8 -49.77,236.26 -116.43,468.26 -199.99,697.78l-397.39 1063.93z"/>
  <path id="_1" class="fil2" d="M18113.82 7948.55l0 -2627.39 399.9 0 0 402.46c102.1,-186.44 196.58,-309.64 283.52,-368.71 86.89,-59.88 182.22,-89.41 285.99,-89.41 150.22,0 302.91,47.22 458.15,140.89l-158.61 410.89c-107.99,-60.73 -216.01,-91.11 -324,-91.11 -97.03,0 -183.93,29.53 -260.72,87.74 -76.75,58.21 -131.6,139.22 -164.5,242.99 -49.81,157.76 -74.28,330.74 -74.28,518.88l0 1372.76 -445.46 0z"/>
  <path id="_2" class="fil2" d="M21520.78 6986.68l435.36 60.77c-48.07,299.5 -169.57,533.24 -366.15,702.81 -196.58,169.61 -438.76,253.98 -724.79,253.98 -358.57,0 -647.11,-117.28 -864.79,-351.83 -218.53,-234.55 -327.37,-570.36 -327.37,-1007.42 0,-283.52 47.22,-530.73 140.89,-743.33 93.67,-211.76 236.26,-371.22 428.62,-476.69 191.51,-106.32 399.94,-159.47 626.06,-159.47 284.33,0 518.03,71.72 698.59,215.98 181.41,144.29 297.84,349.31 348.46,614.25l-430.29 65.8c-41.38,-176.34 -113.91,-308.79 -219.38,-398.24 -104.62,-88.6 -231.19,-133.3 -379.7,-133.3 -224.41,0 -406.68,80.16 -547.56,240.44 -140.07,161.17 -210.09,414.3 -210.09,761.91 0,352.68 67.5,608.33 202.51,767.8 135.82,159.47 312.16,239.62 529.02,239.62 175.49,0 321.45,-53.18 437.87,-160.32 117.28,-106.32 191.55,-270.86 222.75,-492.76z"/>
  <path id="_3" class="fil2" d="M24087.44 6526.01l0 -425.22 1533.89 0 0 1343.19c-235.41,187.33 -478.4,329.07 -728.97,423.55 -250.58,94.52 -507.93,141.78 -771.16,141.78 -356.05,0 -679.2,-75.94 -970.3,-228.67 -290.25,-151.88 -510.44,-372.93 -658.11,-660.62 -148.51,-288.59 -222.75,-610.88 -222.75,-966.08 0,-352.68 73.42,-681.75 221.05,-988.03 147.66,-305.42 359.46,-532.39 636.2,-680.01 276.74,-148.51 595.67,-222.75 956.79,-222.75 261.53,0 498.64,42.19 710.4,127.38 211.8,85.23 378,203.36 497.79,354.39 120.68,151.88 211.8,350.13 274.23,593.97l-432.84 118.13c-54.85,-183.93 -122.35,-329.07 -202.47,-435.36 -81.01,-105.47 -195.77,-189.85 -345.95,-253.13 -149.32,-63.28 -315.56,-95.33 -498.64,-95.33 -218.53,0 -407.53,33.75 -567.84,100.4 -159.47,66.65 -287.7,154.4 -386.43,264.09 -97.85,108.84 -173.79,228.67 -227.78,358.6 -91.96,225.26 -138.37,468.26 -138.37,730.64 0,324 55.66,594.82 166.2,813.35 111.39,217.68 273.38,379.7 485.13,485.17 212.65,105.47 437.91,158.61 676.68,158.61 207.58,0 410.04,-40.49 607.48,-120.64 197.44,-81.01 346.8,-166.24 448.86,-258.2l0 -679.2 -1063.08 0z"/>
  <polygon id="_4" class="fil2" points="26410.22,7948.55 26410.22,4323.88 26891.13,4323.88 26891.13,7948.55 "/>
  <path id="_5" class="fil2" d="M27578.77 6784.22l450.57 -40.52c21.09,182.26 70.87,331.59 149.32,448.86 78.49,116.43 199.99,210.94 364.53,283.52 164.5,71.72 350.13,107.99 556,107.99 183.08,0 344.24,-27.02 484.32,-81.86 140.04,-54.85 243.8,-129.93 312.16,-225.26 68.35,-95.33 102.96,-199.1 102.96,-310.49 0,-113.06 -32.94,-211.76 -98.74,-296.99 -65.8,-84.38 -174.64,-155.25 -326.52,-213.46 -97.03,-37.12 -312.2,-96.18 -645.45,-176.34 -333.29,-80.16 -566.14,-155.25 -699.44,-226.12 -172.97,-91.11 -301.24,-204.17 -385.58,-338.36 -85.23,-134.15 -127.42,-285.18 -127.42,-451.38 0,-183.93 52.29,-355.2 156.1,-513.81 103.77,-159.47 254.8,-280.15 454.75,-362.82 199.14,-82.67 421.04,-124.01 664.88,-124.01 268.3,0 505.37,43 710.4,129.93 205.02,86.04 362.82,213.46 473.33,382.21 110.54,167.9 169.61,358.57 178.04,571.17l-460.67 35.45c-24.46,-228.67 -107.99,-401.61 -250.58,-518.07 -142.59,-117.28 -353.53,-175.49 -631.98,-175.49 -290.21,0 -502.01,53.18 -634.46,159.47 -132.49,106.32 -199.14,234.55 -199.14,384.77 0,129.93 47.26,237.07 140.89,321.45 92.82,83.53 333.29,170.42 723.09,258.16 389.8,88.6 657.25,165.39 802.4,231.19 210.09,97.03 366.15,219.38 466.59,368.71 100.4,148.51 150.18,319.78 150.18,513.85 0,193.22 -54.85,373.78 -165.39,544.2 -110.54,170.42 -268.3,302.91 -475.03,397.39 -206.69,94.52 -438.72,141.78 -697.74,141.78 -327.37,0 -601.6,-48.11 -822.64,-143.44 -221.9,-95.37 -394.87,-238.77 -520.59,-431.14 -126.57,-191.55 -192.37,-408.38 -199.14,-650.52z"/>
  <path id="_6" class="fil2" d="M32518.83 7948.55l0 -3624.67 1368.54 0c240.44,0 424.4,11.81 551.78,34.6 178.04,29.53 327.37,86.04 448.01,168.75 120.68,83.53 217.68,199.95 291.1,349.28 73.39,149.36 109.69,313.9 109.69,493.61 0,307.13 -97.89,567.81 -294.47,780.45 -195.73,213.46 -550.97,319.74 -1063.93,319.74l-929.82 0 0 1478.23 -480.91 0zm480.91 -1903.45l936.55 0c310.49,0 529.87,-57.36 660.66,-172.97 129.93,-115.57 194.88,-277.59 194.88,-487.69 0,-151.03 -37.97,-280.96 -114.76,-388.95 -76.75,-107.99 -178.01,-179.71 -302.87,-214.31 -81.01,-21.09 -230.33,-32.05 -447.2,-32.05l-927.26 0 0 1295.97z"/>
  <path id="_7" class="fil2" d="M35834.71 7948.55l0 -2627.39 399.9 0 0 402.46c102.1,-186.44 196.58,-309.64 283.52,-368.71 86.89,-59.88 182.22,-89.41 285.99,-89.41 150.22,0 302.91,47.22 458.15,140.89l-158.61 410.89c-107.99,-60.73 -216.01,-91.11 -324,-91.11 -97.03,0 -183.93,29.53 -260.72,87.74 -76.75,58.21 -131.6,139.22 -164.5,242.99 -49.81,157.76 -74.28,330.74 -74.28,518.88l0 1372.76 -445.46 0z"/>
  <path id="_8" class="fil2" d="M37358.46 6634.85c0,-485.13 135,-844.55 405.82,-1078.29 225.3,-194.03 501.19,-291.06 826.01,-291.06 360.31,0 655.59,118.13 885.07,354.35 228.67,235.41 343.43,561.92 343.43,977.89 0,337.51 -50.63,602.41 -151.88,795.63 -101.25,193.22 -248.91,343.39 -442.98,450.57 -193.22,107.14 -404.97,160.32 -633.64,160.32 -367.85,0 -664.84,-117.28 -891.81,-352.68 -226.97,-235.41 -340.03,-574.58 -340.03,-1016.71zm455.64 0.85c0,335.81 73.39,587.24 220.19,753.44 147.66,167.09 332.44,250.62 556,250.62 221.08,0 405.01,-83.53 552.67,-251.43 146.81,-167.9 220.19,-423.55 220.19,-766.98 0,-323.96 -74.24,-569.51 -221.9,-735.71 -147.66,-167.05 -331.59,-250.58 -550.97,-250.58 -223.56,0 -408.34,82.67 -556,248.87 -146.81,166.24 -220.19,416.82 -220.19,751.77z"/>
  <path class="fil3" d="M30902.15 4383.76c61.5,0 121.5,15.71 180.17,47.38 58.52,31.51 104.27,76.75 136.94,135.47 32.63,58.83 49.04,120.18 49.04,183.81 0,63.17 -16.06,124.01 -48.38,182.19 -32.16,58.37 -77.26,103.61 -135.43,135.78 -58.21,32.32 -119.02,48.38 -182.34,48.38 -63.52,0 -124.36,-16.06 -182.53,-48.38 -58.17,-32.16 -103.42,-77.41 -135.74,-135.78 -32.36,-58.17 -48.58,-119.02 -48.58,-182.19 0,-63.63 16.41,-124.98 49.23,-183.81 32.98,-58.72 78.73,-103.96 137.25,-135.47 58.68,-31.66 118.67,-47.38 180.37,-47.38zm0 60.65c-51.56,0 -101.79,13.28 -150.52,39.63 -48.73,26.36 -86.85,64.13 -114.37,113.21 -27.52,49.08 -41.3,100.13 -41.3,153.16 0,52.87 13.59,103.46 40.64,151.84 27.02,48.42 64.79,86.2 113.37,113.21 48.58,27.05 99.28,40.64 152.19,40.64 52.72,0 103.42,-13.59 152,-40.64 48.58,-27.02 86.35,-64.79 113.21,-113.21 26.86,-48.38 40.29,-98.97 40.29,-151.84 0,-53.03 -13.78,-104.08 -41.1,-153.16 -27.36,-49.08 -65.49,-86.85 -114.37,-113.21 -48.92,-26.36 -98.97,-39.63 -150.02,-39.63zm-160.98 508.24l0 -393.86 135.58 0c46.45,0 79.93,3.64 100.63,10.95 20.9,7.28 37.31,19.89 49.74,38.12 12.27,18.08 18.38,37.31 18.38,57.67 0,28.68 -10.26,53.88 -31,75.13 -20.55,21.37 -47.88,33.29 -82.06,35.96 13.93,5.81 25.2,12.77 33.48,20.9 15.95,15.4 35.34,41.41 58.37,78.07l48.07 77.06 -77.26 0 -35.14 -62.01c-27.52,-48.88 -49.89,-79.54 -66.81,-91.81 -11.57,-8.94 -28.49,-13.43 -50.86,-13.28l-37.47 0 0 167.09 -63.67 0zm63.67 -221.78l77.22 0c36.96,0 62.16,-5.46 75.59,-16.41 13.43,-10.95 20.24,-25.55 20.24,-43.43 0,-11.61 -3.33,-22.06 -9.79,-31.16 -6.46,-9.29 -15.4,-16.1 -26.86,-20.59 -11.57,-4.45 -32.82,-6.77 -63.98,-6.77l-72.42 0 0 118.36z"/>
 </g>
</svg>
