<?xml version="1.0" encoding="UTF-8"?>
<!DOCTYPE svg PUBLIC "-//W3C//DTD SVG 1.1//EN" "http://www.w3.org/Graphics/SVG/1.1/DTD/svg11.dtd">
<!-- Creator: CorelDRAW -->
<svg xmlns="http://www.w3.org/2000/svg" xml:space="preserve" width="51.6494mm" height="12.192mm" version="1.1" style="shape-rendering:geometricPrecision; text-rendering:geometricPrecision; image-rendering:optimizeQuality; fill-rule:evenodd; clip-rule:evenodd"
viewBox="0 0 3225.14 761.3"
 xmlns:xlink="http://www.w3.org/1999/xlink"
 xmlns:xodm="http://www.corel.com/coreldraw/odm/2003">
 <defs>
  <style type="text/css">
   <![CDATA[
    .str0 {stroke:white;stroke-width:12.49;stroke-miterlimit:22.9256}
    .fil2 {fill:#231F20}
    .fil0 {fill:#F0F0F0}
    .fil1 {fill:white}
    .fil3 {fill:black;fill-rule:nonzero}
   ]]>
  </style>
 </defs>
 <g id="Capa_x0020_1">
  <metadata id="CorelCorpID_0Corel-Layer"/>
  <rect class="fil0" width="3225.14" height="761.3" rx="138.88" ry="380.65"/>
  <circle class="fil1 str0" cx="387.49" cy="380.65" r="259.83"/>
  <path class="fil2" d="M274.92 561.31l0 -363.15c0,-11.46 7.95,-21.79 20.34,-21.79 10.65,0 30.78,16.16 40.09,22.37 39.75,26.5 92.65,63.6 130.84,87.05l56.84 37.58c12.88,8.59 24.45,16.3 37.48,24.99 13.24,8.83 32.54,18.05 32.54,31.38 0,12.05 -5.83,15.59 -13.07,20.34 -7.07,4.63 -13.48,8.97 -20.92,13.93l-246.94 164.15c-8.03,5.4 -13.2,10.43 -24.61,5.48 -8.79,-3.81 -12.57,-10.43 -12.57,-22.33zm-222.25 -188.83c0,84.02 18.64,136.84 59.56,199.01 11.74,17.83 16.55,21.16 27.17,33.84 3.95,4.71 5.05,6.41 9.5,10.83 6.9,6.84 13.22,12.28 20.33,18.9 33.51,31.23 91.22,59.28 133.58,69.79 82.02,20.34 151.56,11.72 228.19,-21.09 25.89,-11.08 51.12,-30.38 73.05,-47.51 4.3,-3.37 6.62,-5.84 11,-9.34 3.85,-3.07 6.7,-6.43 10.32,-10.02l18.52 -20.7c3.19,-4.13 5.67,-6.54 9.14,-11.2 47.31,-63.66 69.31,-125.71 69.31,-212.5 0,-63.4 -19.71,-112.68 -45.03,-159.79 -8.41,-15.65 -22.92,-34.71 -34.42,-48.39 -30.5,-36.3 -74.59,-70.44 -118.51,-89.21 -90.26,-38.58 -182.43,-40.04 -272.73,-0.44 -58.45,25.63 -121.08,78.73 -152.94,136.13 -25.63,46.2 -46.02,99.5 -46.02,161.7z"/>
  <path class="fil3" d="M1007.09 323.95l-68.55 185.08 -23.88 0 -67.09 -185.08 24.14 0 51.24 146.75c1.63,4.71 2.87,10.18 3.75,16.39l0.48 0c0.71,-5.15 2.12,-10.7 4.28,-16.65l52.29 -146.48 23.35 0z"/>
  <path id="_1" class="fil3" d="M1120.28 448.23l-93.31 0c0.36,14.72 4.32,26.08 11.9,34.1 7.58,7.97 17.98,11.98 31.24,11.98 14.89,0 28.55,-4.89 41.06,-14.71l0 19.87c-11.63,8.46 -27.01,12.64 -46.08,12.64 -18.68,0 -33.35,-5.99 -44.01,-17.98 -10.71,-12.03 -16.04,-28.9 -16.04,-50.67 0,-20.57 5.86,-37.32 17.49,-50.27 11.67,-12.95 26.17,-19.43 43.44,-19.43 17.32,0 30.67,5.59 40.14,16.78 9.47,11.15 14.19,26.69 14.19,46.56l0 11.1zm-21.68 -17.93c-0.09,-12.21 -3.03,-21.72 -8.81,-28.55 -5.81,-6.79 -13.87,-10.18 -24.23,-10.18 -9.96,0 -18.46,3.57 -25.42,10.71 -6.96,7.14 -11.28,16.47 -12.91,28.02l71.37 0z"/>
  <path id="_2" class="fil3" d="M1221.25 398.27c-3.7,-2.82 -9.04,-4.23 -15.99,-4.23 -9.08,0 -16.61,4.23 -22.69,12.78 -6.04,8.5 -9.07,20.14 -9.07,34.85l0 67.36 -21.19 0 0 -132.17 21.19 0 0 27.23 0.52 0c3,-9.3 7.58,-16.52 13.79,-21.77 6.21,-5.2 13.13,-7.79 20.79,-7.79 5.51,0 9.69,0.61 12.64,1.8l0 21.94z"/>
  <path id="_3" class="fil3" d="M1422.86 448.23l-93.31 0c0.36,14.72 4.32,26.08 11.9,34.1 7.58,7.97 17.98,11.98 31.24,11.98 14.89,0 28.55,-4.89 41.06,-14.71l0 19.87c-11.63,8.46 -27.01,12.64 -46.08,12.64 -18.68,0 -33.35,-5.99 -44.01,-17.98 -10.71,-12.03 -16.04,-28.9 -16.04,-50.67 0,-20.57 5.86,-37.32 17.49,-50.27 11.67,-12.95 26.17,-19.43 43.44,-19.43 17.32,0 30.67,5.59 40.14,16.78 9.47,11.15 14.19,26.69 14.19,46.56l0 11.1zm-21.68 -17.93c-0.09,-12.21 -3.03,-21.72 -8.81,-28.55 -5.81,-6.79 -13.87,-10.18 -24.23,-10.18 -9.96,0 -18.46,3.57 -25.42,10.71 -6.96,7.14 -11.28,16.47 -12.91,28.02l71.37 0z"/>
  <path id="_4" class="fil3" d="M1564.63 509.03l-21.19 0 0 -75.38c0,-28.06 -10.22,-42.07 -30.71,-42.07 -10.57,0 -19.34,3.97 -26.26,11.94 -6.96,7.97 -10.4,18.02 -10.4,30.13l0 75.38 -21.19 0 0 -132.17 21.19 0 0 21.94 0.52 0c9.96,-16.7 24.41,-25.02 43.35,-25.02 14.45,0 25.51,4.66 33.18,14.01 7.66,9.3 11.5,22.82 11.5,40.44l0 80.8z"/>
  <path id="_5" class="fil3" d="M1800.06 323.95l-61.02 116.66 0 68.42 -21.72 0 0 -67.89 -59.48 -117.19 24.63 0 41.46 83.62c0.49,1.06 2.03,4.85 4.5,11.37l0.39 0c0.88,-2.91 2.52,-6.7 4.9,-11.37l43.39 -83.62 22.95 0z"/>
  <path id="_6" class="fil3" d="M1855.05 512.12c-19.52,0 -35.12,-6.17 -46.79,-18.5 -11.63,-12.34 -17.49,-28.73 -17.49,-49.12 0,-22.2 6.08,-39.52 18.2,-52.03 12.16,-12.47 28.54,-18.68 49.21,-18.68 19.69,0 35.07,6.03 46.13,18.2 11.06,12.11 16.56,28.94 16.56,50.44 0,21.11 -5.94,37.98 -17.84,50.67 -11.94,12.69 -27.93,19.03 -47.97,19.03zm1.54 -120.54c-13.58,0 -24.32,4.63 -32.25,13.88 -7.93,9.25 -11.9,21.98 -11.9,38.28 0,15.64 4.01,27.97 12.03,37 8.02,9.04 18.73,13.57 32.12,13.57 13.7,0 24.23,-4.45 31.58,-13.3 7.36,-8.85 11.01,-21.46 11.01,-37.8 0,-16.52 -3.65,-29.25 -11.01,-38.2 -7.36,-8.99 -17.88,-13.44 -31.58,-13.44z"/>
  <path id="_7" class="fil3" d="M2061.58 509.03l-21.15 0 0 -20.92 -0.53 0c-8.77,16.04 -22.38,24.01 -40.79,24.01 -31.5,0 -47.23,-18.73 -47.23,-56.26l0 -79 21.02 0 0 75.65c0,27.89 10.7,41.81 32.03,41.81 10.31,0 18.81,-3.78 25.51,-11.41 6.66,-7.62 10,-17.58 10,-29.92l0 -76.13 21.15 0 0 132.17z"/>
  <polygon id="_8" class="fil3" points="2216.61,343.56 2163.17,343.56 2163.17,509.03 2141.5,509.03 2141.5,343.56 2088.19,343.56 2088.19,323.95 2216.61,323.95 "/>
  <path id="_9" class="fil3" d="M2349.71 509.03l-21.15 0 0 -20.92 -0.53 0c-8.77,16.04 -22.38,24.01 -40.79,24.01 -31.5,0 -47.23,-18.73 -47.23,-56.26l0 -79 21.02 0 0 75.65c0,27.89 10.7,41.81 32.03,41.81 10.31,0 18.81,-3.78 25.51,-11.41 6.66,-7.62 10,-17.58 10,-29.92l0 -76.13 21.15 0 0 132.17z"/>
  <path id="_10" class="fil3" d="M2414.16 489.91l-0.52 0 0 19.12 -21.19 0 0 -195.65 21.19 0 0 86.7 0.52 0c10.4,-17.53 25.65,-26.3 45.69,-26.3 16.92,0 30.22,5.9 39.78,17.75 9.6,11.81 14.41,27.67 14.41,47.54 0,22.12 -5.38,39.83 -16.12,53.13 -10.75,13.26 -25.46,19.91 -44.15,19.91 -17.49,0 -30.66,-7.4 -39.61,-22.2zm-0.52 -53.31l0 18.46c0,10.93 3.52,20.22 10.66,27.84 7.09,7.62 16.08,11.41 27.01,11.41 12.82,0 22.87,-4.89 30.13,-14.71 7.27,-9.82 10.93,-23.44 10.93,-40.93 0,-14.71 -3.39,-26.21 -10.22,-34.58 -6.79,-8.33 -15.99,-12.51 -27.58,-12.51 -12.33,0 -22.2,4.27 -29.69,12.82 -7.49,8.59 -11.23,19.29 -11.23,32.21z"/>
  <path id="_11" class="fil3" d="M2654.05 448.23l-93.31 0c0.36,14.72 4.32,26.08 11.9,34.1 7.58,7.97 17.98,11.98 31.24,11.98 14.89,0 28.55,-4.89 41.06,-14.71l0 19.87c-11.63,8.46 -27.01,12.64 -46.08,12.64 -18.68,0 -33.35,-5.99 -44.01,-17.98 -10.71,-12.03 -16.04,-28.9 -16.04,-50.67 0,-20.57 5.86,-37.32 17.49,-50.27 11.67,-12.95 26.17,-19.43 43.44,-19.43 17.32,0 30.67,5.59 40.14,16.78 9.47,11.15 14.19,26.69 14.19,46.56l0 11.1zm-21.68 -17.93c-0.09,-12.21 -3.03,-21.72 -8.81,-28.55 -5.81,-6.79 -13.87,-10.18 -24.23,-10.18 -9.96,0 -18.46,3.57 -25.42,10.71 -6.96,7.14 -11.28,16.47 -12.91,28.02l71.37 0z"/>
 </g>
</svg>
