<?xml version="1.0" encoding="UTF-8"?>
<!DOCTYPE svg PUBLIC "-//W3C//DTD SVG 1.1//EN" "http://www.w3.org/Graphics/SVG/1.1/DTD/svg11.dtd">
<!-- Creator: CorelDRAW -->
<svg xmlns="http://www.w3.org/2000/svg" xml:space="preserve" width="60.1218mm" height="20.5991mm" version="1.1" style="shape-rendering:geometricPrecision; text-rendering:geometricPrecision; image-rendering:optimizeQuality; fill-rule:evenodd; clip-rule:evenodd"
viewBox="0 0 1503.27 515.05"
 xmlns:xlink="http://www.w3.org/1999/xlink"
 xmlns:xodm="http://www.corel.com/coreldraw/odm/2003">
 <defs>
  <style type="text/css">
   <![CDATA[
    .str0 {stroke:black;stroke-width:37.51;stroke-miterlimit:22.9256}
    .str1 {stroke:black;stroke-width:1.91;stroke-miterlimit:22.9256}
    .fil2 {fill:none;fill-rule:nonzero}
    .fil0 {fill:#F0F0F0}
    .fil1 {fill:black;fill-rule:nonzero}
   ]]>
  </style>
 </defs>
 <g id="Capa_x0020_1">
  <metadata id="CorelCorpID_0Corel-Layer"/>
  <rect class="fil0 str0" transform="matrix(1.19016 -0 -0.353958 0.950732 170.383 18.7504)" width="1126.15" height="502.3" rx="90.06" ry="90.06"/>
  <path class="fil1" d="M429.12 365.27l-30.5 0 -36.64 -61.31c-3.33,-5.67 -6.56,-10.51 -9.73,-14.57 -3.18,-4.01 -6.4,-7.29 -9.68,-9.79 -3.33,-2.55 -6.87,-4.42 -10.67,-5.57 -3.8,-1.2 -8.12,-1.77 -12.91,-1.77l-21.03 0 0 93.01 -25.61 0 0 -218.66 65.27 0c9.53,0 18.38,1.2 26.44,3.59 8.07,2.39 15.09,5.99 21.03,10.88 5.99,4.89 10.62,10.98 13.95,18.22 3.38,7.29 5.05,15.77 5.05,25.56 0,7.6 -1.15,14.62 -3.44,20.98 -2.29,6.35 -5.52,12.02 -9.73,16.97 -4.22,5 -9.32,9.26 -15.25,12.75 -5.99,3.49 -12.65,6.25 -20.09,8.17l0 0.57c3.7,1.67 6.87,3.49 9.58,5.57 2.66,2.13 5.26,4.58 7.65,7.44 2.45,2.81 4.89,6.04 7.29,9.68 2.39,3.59 5.05,7.76 7.96,12.54l41.07 65.74zm-131.16 -195.49l0 79.32 34.77 0c6.4,0 12.33,-0.99 17.75,-2.92 5.47,-1.93 10.15,-4.68 14.1,-8.33 3.96,-3.59 7.08,-8.02 9.32,-13.27 2.24,-5.2 3.33,-11.08 3.33,-17.59 0,-11.71 -3.75,-20.82 -11.35,-27.38 -7.55,-6.56 -18.53,-9.84 -32.84,-9.84l-35.08 0z"/>
  <path id="_1" class="fil1" d="M464.46 368.6c-4.68,0 -8.64,-1.67 -11.97,-5 -3.28,-3.38 -4.94,-7.39 -4.94,-12.08 0,-4.68 1.67,-8.69 4.94,-12.13 3.33,-3.38 7.29,-5.1 11.97,-5.1 4.79,0 8.85,1.72 12.23,5.1 3.33,3.44 5,7.44 5,12.13 0,4.69 -1.67,8.69 -5,12.08 -3.38,3.33 -7.44,5 -12.23,5z"/>
  <polygon id="_2" class="fil1" points="640.28,365.27 526.86,365.27 526.86,146.61 552.47,146.61 552.47,342.11 640.28,342.11 "/>
  <polygon id="_3" class="fil1" points="781.8,169.78 718.66,169.78 718.66,365.27 693.06,365.27 693.06,169.78 630.08,169.78 630.08,146.61 781.8,146.61 "/>
  <path id="_4" class="fil1" d="M1081.91 146.61l-61.73 218.66 -30.03 0 -45.02 -159.79c-1.93,-6.82 -3.07,-14.26 -3.49,-22.28l-0.63 0c-0.57,7.5 -1.93,14.83 -3.96,21.97l-45.28 160.1 -29.72 0 -64.07 -218.66 28.21 0 46.53 167.7c1.93,7.03 3.12,14.36 3.64,21.96l0.78 0c0.47,-5.36 2.08,-12.7 4.74,-21.96l48.3 -167.7 24.57 0 46.37 168.95c1.61,5.78 2.81,12.6 3.64,20.4l0.63 0c0.37,-5.26 1.77,-12.28 4.11,-21.03l44.66 -168.33 27.74 0z"/>
  <path id="_5" class="fil1" d="M1114.39 365.27l0 -218.66 62.2 0c18.9,0 33.94,4.63 44.97,13.84 11.09,9.26 16.65,21.34 16.65,36.17 0,12.39 -3.38,23.16 -10.1,32.32 -6.71,9.16 -15.92,15.67 -27.74,19.52l0 0.63c14.73,1.72 26.55,7.29 35.39,16.65 8.85,9.42 13.27,21.65 13.27,36.7 0,18.69 -6.72,33.83 -20.14,45.44 -13.43,11.61 -30.34,17.39 -50.8,17.39l-63.71 0zm25.61 -195.49l0 70.63 26.23 0c14,0 25.04,-3.38 33.1,-10.15 8.02,-6.77 12.02,-16.29 12.02,-28.63 0,-21.24 -13.95,-31.85 -41.95,-31.85l-29.41 0zm0 93.63l0 78.7 34.77 0c15.04,0 26.7,-3.59 34.98,-10.67 8.33,-7.13 12.44,-16.92 12.44,-29.3 0,-25.82 -17.59,-38.73 -52.78,-38.73l-29.41 0z"/>
  <g>
   <path id="_6" class="fil2 str1" d="M429.12 365.27l-30.5 0 -36.64 -61.31c-3.33,-5.67 -6.56,-10.51 -9.73,-14.57 -3.18,-4.01 -6.4,-7.29 -9.68,-9.79 -3.33,-2.55 -6.87,-4.42 -10.67,-5.57 -3.8,-1.2 -8.12,-1.77 -12.91,-1.77l-21.03 0 0 93.01 -25.61 0 0 -218.66 65.27 0c9.53,0 18.38,1.2 26.44,3.59 8.07,2.39 15.09,5.99 21.03,10.88 5.99,4.89 10.62,10.98 13.95,18.22 3.38,7.29 5.05,15.77 5.05,25.56 0,7.6 -1.15,14.62 -3.44,20.98 -2.29,6.35 -5.52,12.02 -9.73,16.97 -4.22,5 -9.32,9.26 -15.25,12.75 -5.99,3.49 -12.65,6.25 -20.09,8.17l0 0.57c3.7,1.67 6.87,3.49 9.58,5.57 2.66,2.13 5.26,4.58 7.65,7.44 2.45,2.81 4.89,6.04 7.29,9.68 2.39,3.59 5.05,7.76 7.96,12.54l41.07 65.74zm-131.16 -195.49l0 79.32 34.77 0c6.4,0 12.33,-0.99 17.75,-2.92 5.47,-1.93 10.15,-4.68 14.1,-8.33 3.96,-3.59 7.08,-8.02 9.32,-13.27 2.24,-5.2 3.33,-11.08 3.33,-17.59 0,-11.71 -3.75,-20.82 -11.35,-27.38 -7.55,-6.56 -18.53,-9.84 -32.84,-9.84l-35.08 0z"/>
  </g>
  <g>
   <path id="_7" class="fil2 str1" d="M464.46 368.6c-4.68,0 -8.64,-1.67 -11.97,-5 -3.28,-3.38 -4.94,-7.39 -4.94,-12.08 0,-4.68 1.67,-8.69 4.94,-12.13 3.33,-3.38 7.29,-5.1 11.97,-5.1 4.79,0 8.85,1.72 12.23,5.1 3.33,3.44 5,7.44 5,12.13 0,4.69 -1.67,8.69 -5,12.08 -3.38,3.33 -7.44,5 -12.23,5z"/>
  </g>
  <g>
   <polygon id="_8" class="fil2 str1" points="640.28,365.27 526.86,365.27 526.86,146.61 552.47,146.61 552.47,342.11 640.28,342.11 "/>
  </g>
  <g>
   <polygon id="_9" class="fil2 str1" points="781.8,169.78 718.66,169.78 718.66,365.27 693.06,365.27 693.06,169.78 630.08,169.78 630.08,146.61 781.8,146.61 "/>
  </g>
  <g>
   <path id="_10" class="fil2 str1" d="M1081.91 146.61l-61.73 218.66 -30.03 0 -45.02 -159.79c-1.93,-6.82 -3.07,-14.26 -3.49,-22.28l-0.63 0c-0.57,7.5 -1.93,14.83 -3.96,21.97l-45.28 160.1 -29.72 0 -64.07 -218.66 28.21 0 46.53 167.7c1.93,7.03 3.12,14.36 3.64,21.96l0.78 0c0.47,-5.36 2.08,-12.7 4.74,-21.96l48.3 -167.7 24.57 0 46.37 168.95c1.61,5.78 2.81,12.6 3.64,20.4l0.63 0c0.37,-5.26 1.77,-12.28 4.11,-21.03l44.66 -168.33 27.74 0z"/>
  </g>
  <g>
   <path id="_11" class="fil2 str1" d="M1114.39 365.27l0 -218.66 62.2 0c18.9,0 33.94,4.63 44.97,13.84 11.09,9.26 16.65,21.34 16.65,36.17 0,12.39 -3.38,23.16 -10.1,32.32 -6.71,9.16 -15.92,15.67 -27.74,19.52l0 0.63c14.73,1.72 26.55,7.29 35.39,16.65 8.85,9.42 13.27,21.65 13.27,36.7 0,18.69 -6.72,33.83 -20.14,45.44 -13.43,11.61 -30.34,17.39 -50.8,17.39l-63.71 0zm25.61 -195.49l0 70.63 26.23 0c14,0 25.04,-3.38 33.1,-10.15 8.02,-6.77 12.02,-16.29 12.02,-28.63 0,-21.24 -13.95,-31.85 -41.95,-31.85l-29.41 0zm0 93.63l0 78.7 34.77 0c15.04,0 26.7,-3.59 34.98,-10.67 8.33,-7.13 12.44,-16.92 12.44,-29.3 0,-25.82 -17.59,-38.73 -52.78,-38.73l-29.41 0z"/>
  </g>
 </g>
</svg>
