<?xml version="1.0" encoding="UTF-8"?>
<!DOCTYPE svg PUBLIC "-//W3C//DTD SVG 1.1//EN" "http://www.w3.org/Graphics/SVG/1.1/DTD/svg11.dtd">
<!-- Creator: CorelDRAW -->
<svg xmlns="http://www.w3.org/2000/svg" xml:space="preserve" width="122.42mm" height="69.08mm" version="1.1" style="shape-rendering:geometricPrecision; text-rendering:geometricPrecision; image-rendering:optimizeQuality; fill-rule:evenodd; clip-rule:evenodd"
viewBox="0 0 6823.42 3850.37"
 xmlns:xlink="http://www.w3.org/1999/xlink"
 xmlns:xodm="http://www.corel.com/coreldraw/odm/2003">
 <defs>
  <style type="text/css">
   <![CDATA[
    .str0 {stroke:black;stroke-width:27.87;stroke-miterlimit:22.9256}
    .str1 {stroke:white;stroke-width:11.15;stroke-miterlimit:22.9256}
    .fil2 {fill:#231F20}
    .fil0 {fill:#F0F0F0}
    .fil1 {fill:white}
   ]]>
  </style>
 </defs>
 <g id="Capa_x0020_1">
  <metadata id="CorelCorpID_0Corel-Layer"/>
  <rect class="fil0 str0" x="13.93" y="13.93" width="6795.56" height="3822.5" rx="262.49" ry="254.83"/>
  <circle class="fil1 str1" cx="3411.71" cy="1925.18" r="929.63"/>
  <path class="fil2" d="M3008.93 2571.53l0 -1299.28c0,-41 28.45,-77.95 72.76,-77.95 38.09,0 110.11,57.82 143.44,80.04 142.21,94.8 331.46,227.52 468.13,311.44l203.35 134.47c46.08,30.72 87.46,58.32 134.08,89.4 47.4,31.6 116.42,64.58 116.42,112.25 0,43.1 -20.82,55.79 -46.75,72.79 -25.31,16.59 -48.22,32.09 -74.87,49.86l-883.5 587.28c-28.73,19.34 -47.24,37.31 -88.07,19.6 -31.47,-13.64 -44.98,-37.33 -44.98,-79.89zm-795.16 -675.62c0,300.63 66.7,489.61 213.08,712 42.01,63.82 59.24,75.72 97.21,121.07 14.12,16.87 18.07,22.95 34.01,38.75 24.7,24.5 47.29,43.92 72.71,67.62 119.93,111.75 326.39,212.09 477.92,249.67 293.44,72.77 542.25,41.94 816.42,-75.43 92.63,-39.65 182.89,-108.69 261.35,-170 15.41,-12.04 23.68,-20.91 39.35,-33.41 13.78,-11 23.97,-22.99 36.91,-35.85l66.27 -74.05c11.4,-14.79 20.27,-23.39 32.68,-40.09 169.25,-227.77 247.96,-449.76 247.96,-760.28 0,-226.85 -70.53,-403.16 -161.1,-571.7 -30.1,-56 -82.02,-124.17 -123.14,-173.1 -109.13,-129.87 -266.87,-252 -424.01,-319.17 -322.93,-138.03 -652.69,-143.24 -975.76,-1.58 -209.13,91.7 -433.23,281.67 -547.19,487.03 -91.72,165.28 -164.67,356 -164.67,578.53z"/>
 </g>
</svg>
