<?xml version="1.0" encoding="UTF-8"?>
<!DOCTYPE svg PUBLIC "-//W3C//DTD SVG 1.1//EN" "http://www.w3.org/Graphics/SVG/1.1/DTD/svg11.dtd">
<!-- Creator: CorelDRAW -->
<svg xmlns="http://www.w3.org/2000/svg" xml:space="preserve" width="121.92mm" height="12.192mm" version="1.1" style="shape-rendering:geometricPrecision; text-rendering:geometricPrecision; image-rendering:optimizeQuality; fill-rule:evenodd; clip-rule:evenodd"
viewBox="0 0 17970.81 1797.08"
 xmlns:xlink="http://www.w3.org/1999/xlink"
 xmlns:xodm="http://www.corel.com/coreldraw/odm/2003">
 <defs>
  <style type="text/css">
   <![CDATA[
    .str0 {stroke:white;stroke-width:29.48;stroke-miterlimit:22.9256}
    .fil2 {fill:#231F20}
    .fil0 {fill:#F0F0F0}
    .fil1 {fill:white}
    .fil3 {fill:black;fill-rule:nonzero}
   ]]>
  </style>
 </defs>
 <g id="Capa_x0020_1">
  <metadata id="CorelCorpID_0Corel-Layer"/>
  <rect class="fil0" width="17970.81" height="1797.08" rx="773.86" ry="898.54"/>
  <ellipse class="fil1 str0" cx="914.69" cy="898.54" rx="613.34" ry="613.35"/>
  <path class="fil2" d="M648.95 1324.98l0 -857.22c0,-27.05 18.76,-51.43 48.01,-51.43 25.13,0 72.65,38.15 94.63,52.8 93.83,62.56 218.7,150.13 308.86,205.49l134.16 88.7c30.41,20.27 57.71,38.49 88.47,58.99 31.26,20.84 76.81,42.61 76.81,74.07 0,28.43 -13.75,36.81 -30.85,48.02 -16.7,10.94 -31.81,21.17 -49.39,32.88l-582.92 387.48c-18.96,12.75 -31.16,24.62 -58.1,12.93 -20.75,-8.99 -29.67,-24.62 -29.67,-52.71zm-524.62 -445.75c0,198.34 44,323.02 140.59,469.76 27.71,42.1 39.08,49.95 64.13,79.88 9.32,11.13 11.92,15.14 22.43,25.57 16.29,16.15 31.2,28.98 47.98,44.6 79.11,73.73 215.33,139.94 315.31,164.73 193.61,48.01 357.77,27.67 538.65,-49.78 61.11,-26.15 120.66,-71.71 172.44,-112.16 10.16,-7.94 15.62,-13.8 25.96,-22.05 9.09,-7.25 15.82,-15.17 24.35,-23.64l43.72 -48.86c7.53,-9.76 13.38,-15.43 21.56,-26.44 111.67,-150.27 163.6,-296.74 163.6,-501.61 0,-149.67 -46.53,-266 -106.29,-377.19 -19.85,-36.95 -54.11,-81.92 -81.25,-114.22 -72,-85.68 -176.07,-166.27 -279.75,-210.57 -213.06,-91.06 -430.62,-94.51 -643.79,-1.05 -137.98,60.49 -285.82,185.84 -361.02,321.33 -60.51,109.05 -108.63,234.88 -108.63,381.7z"/>
  <path class="fil3" d="M2504.64 619.07l-215.76 582.52 -75.16 0 -211.18 -582.52 75.98 0 161.27 461.89c5.13,14.83 9.01,32.03 11.78,51.57l1.53 0c2.21,-16.23 6.65,-33.7 13.44,-52.41l164.6 -461.05 73.49 0z"/>
  <path id="_1" class="fil3" d="M2860.86 1010.24l-293.69 0c1.12,46.31 13.59,82.09 37.44,107.32 23.85,25.1 56.57,37.72 98.31,37.72 46.87,0 89.85,-15.39 129.24,-46.31l0 62.54c-36.61,26.62 -85,39.8 -145.04,39.8 -58.8,0 -104.98,-18.87 -138.53,-56.59 -33.7,-37.85 -50.48,-90.96 -50.48,-159.46 0,-64.75 18.45,-117.45 55.05,-158.22 36.75,-40.77 82.37,-61.16 136.73,-61.16 54.49,0 96.5,17.61 126.32,52.84 29.8,35.08 44.65,84.03 44.65,146.56l0 34.95zm-68.22 -56.44c-0.28,-38.41 -9.57,-68.36 -27.74,-89.85 -18.31,-21.36 -43.67,-32.03 -76.26,-32.03 -31.34,0 -58.1,11.23 -80.01,33.7 -21.9,22.46 -35.49,51.85 -40.62,88.19l224.64 0z"/>
  <path id="_2" class="fil3" d="M3178.66 852.99c-11.64,-8.87 -28.42,-13.31 -50.32,-13.31 -28.57,0 -52.28,13.31 -71.41,40.21 -19,26.77 -28.57,63.37 -28.57,109.68l0 212.02 -66.7 0 0 -415.99 66.7 0 0 85.7 1.67 0c9.42,-29.26 23.85,-52 43.39,-68.5 19.56,-16.38 41.33,-24.56 65.46,-24.56 17.32,0 30.5,1.95 39.78,5.69l0 69.06z"/>
  <path id="_3" class="fil3" d="M3813.2 1010.24l-293.69 0c1.12,46.31 13.59,82.09 37.44,107.32 23.85,25.1 56.57,37.72 98.31,37.72 46.87,0 89.85,-15.39 129.24,-46.31l0 62.54c-36.61,26.62 -85,39.8 -145.04,39.8 -58.8,0 -104.98,-18.87 -138.53,-56.59 -33.7,-37.85 -50.48,-90.96 -50.48,-159.46 0,-64.75 18.45,-117.45 55.05,-158.22 36.75,-40.77 82.37,-61.16 136.73,-61.16 54.49,0 96.5,17.61 126.32,52.84 29.8,35.08 44.65,84.03 44.65,146.56l0 34.95zm-68.22 -56.44c-0.28,-38.41 -9.57,-68.36 -27.74,-89.85 -18.31,-21.36 -43.67,-32.03 -76.26,-32.03 -31.34,0 -58.1,11.23 -80.01,33.7 -21.9,22.46 -35.49,51.85 -40.62,88.19l224.64 0z"/>
  <path id="_4" class="fil3" d="M4259.42 1201.59l-66.7 0 0 -237.25c0,-88.32 -32.18,-132.42 -96.65,-132.42 -33.28,0 -60.88,12.48 -82.65,37.57 -21.9,25.1 -32.72,56.72 -32.72,94.85l0 237.25 -66.7 0 0 -415.99 66.7 0 0 69.06 1.67 0c31.34,-52.56 76.81,-78.77 136.45,-78.77 45.47,0 80.27,14.71 104.4,44.1 24.13,29.26 36.2,71.83 36.2,127.29l0 254.31z"/>
  <path id="_5" class="fil3" d="M4943.99 785.6l-191.35 482.55c-34.12,86.24 -82.1,129.22 -143.8,129.22 -17.33,0 -31.75,-1.8 -43.39,-5.26l0 -59.77c14.28,4.85 27.45,7.36 39.37,7.36 33.56,0 58.8,-19.97 75.57,-60.05l33.28 -78.89 -162.51 -415.16 73.91 0 112.6 320.18c1.39,4.01 4.16,14.55 8.45,31.6l2.51 0c1.39,-6.52 4.02,-16.77 8.03,-30.91l118.29 -320.87 69.06 0z"/>
  <path id="_6" class="fil3" d="M5189.28 1211.31c-61.44,0 -110.52,-19.43 -147.27,-58.25 -36.6,-38.82 -55.05,-90.4 -55.05,-154.61 0,-69.88 19.15,-124.37 57.28,-163.76 38.26,-39.24 89.85,-58.8 154.89,-58.8 61.98,0 110.37,19 145.17,57.28 34.8,38.13 52.13,91.09 52.13,158.76 0,66.42 -18.72,119.53 -56.16,159.47 -37.57,39.93 -87.91,59.9 -150.99,59.9zm4.85 -379.39c-42.7,0 -76.54,14.56 -101.5,43.67 -24.95,29.13 -37.44,69.2 -37.44,120.5 0,49.23 12.62,88.06 37.85,116.47 25.23,28.43 58.93,42.72 101.09,42.72 43.13,0 76.26,-14 99.42,-41.88 23.16,-27.87 34.67,-67.52 34.67,-118.98 0,-51.99 -11.51,-92.07 -34.67,-120.22 -23.16,-28.29 -56.29,-42.29 -99.42,-42.29z"/>
  <path id="_7" class="fil3" d="M5839.32 1201.59l-66.55 0 0 -65.86 -1.67 0c-27.59,50.47 -70.44,75.57 -128.4,75.57 -99.15,0 -148.65,-58.94 -148.65,-177.08l0 -248.62 66.14 0 0 238.08c0,87.78 33.7,131.6 100.81,131.6 32.46,0 59.21,-11.92 80.29,-35.92 20.95,-23.98 31.48,-55.32 31.48,-94.14l0 -239.61 66.55 0 0 415.99z"/>
  <path id="_8" class="fil3" d="M6166.84 1197.57c-15.67,8.59 -36.47,12.9 -62.13,12.9 -72.93,0 -109.25,-40.62 -109.25,-121.88l0 -246.13 -71.56 0 0 -56.85 71.56 0 0 -101.5 66.55 -21.64 0 123.14 104.83 0 0 56.85 -104.83 0 0 234.48c0,27.87 4.72,47.7 14.28,59.62 9.43,11.92 25.1,17.89 47.14,17.89 16.79,0 31.2,-4.58 43.41,-13.87l0 56.98z"/>
  <path id="_9" class="fil3" d="M6592.11 1201.59l-66.55 0 0 -65.86 -1.67 0c-27.59,50.47 -70.44,75.57 -128.4,75.57 -99.15,0 -148.65,-58.94 -148.65,-177.08l0 -248.62 66.14 0 0 238.08c0,87.78 33.7,131.6 100.81,131.6 32.46,0 59.21,-11.92 80.29,-35.92 20.95,-23.98 31.48,-55.32 31.48,-94.14l0 -239.61 66.55 0 0 415.99z"/>
  <path id="_10" class="fil3" d="M6794.98 1141.41l-1.67 0 0 60.18 -66.7 0 0 -615.8 66.7 0 0 272.89 1.67 0c32.72,-55.19 80.7,-82.79 143.79,-82.79 53.26,0 95.13,18.59 125.21,55.89 30.23,37.16 45.34,87.07 45.34,149.61 0,69.62 -16.91,125.35 -50.75,167.22 -33.83,41.74 -80.14,62.69 -138.94,62.69 -55.05,0 -96.52,-23.3 -124.65,-69.9zm-1.67 -167.78l0 58.1c0,34.39 11.08,63.65 33.55,87.63 22.33,24 50.62,35.92 85,35.92 40.36,0 71.97,-15.39 94.85,-46.31 22.88,-30.92 34.39,-73.77 34.39,-128.83 0,-46.31 -10.69,-82.5 -32.18,-108.84 -21.34,-26.21 -50.34,-39.38 -86.8,-39.38 -38.82,0 -69.88,13.46 -93.45,40.36 -23.57,27.03 -35.36,60.73 -35.36,101.35z"/>
  <path id="_11" class="fil3" d="M7550 1010.24l-293.69 0c1.12,46.31 13.59,82.09 37.44,107.32 23.85,25.1 56.57,37.72 98.31,37.72 46.87,0 89.85,-15.39 129.24,-46.31l0 62.54c-36.61,26.62 -85,39.8 -145.04,39.8 -58.8,0 -104.98,-18.87 -138.53,-56.59 -33.7,-37.85 -50.48,-90.96 -50.48,-159.46 0,-64.75 18.45,-117.45 55.05,-158.22 36.75,-40.77 82.37,-61.16 136.73,-61.16 54.49,0 96.5,17.61 126.32,52.84 29.8,35.08 44.65,84.03 44.65,146.56l0 34.95zm-68.22 -56.44c-0.28,-38.41 -9.57,-68.36 -27.74,-89.85 -18.31,-21.36 -43.67,-32.03 -76.26,-32.03 -31.34,0 -58.1,11.23 -80.01,33.7 -21.9,22.46 -35.49,51.85 -40.62,88.19l224.64 0z"/>
 </g>
</svg>
