<?xml version="1.0" encoding="UTF-8"?>
<!DOCTYPE svg PUBLIC "-//W3C//DTD SVG 1.1//EN" "http://www.w3.org/Graphics/SVG/1.1/DTD/svg11.dtd">
<!-- Creator: CorelDRAW -->
<svg xmlns="http://www.w3.org/2000/svg" xml:space="preserve" width="122.42mm" height="69.08mm" version="1.1" style="shape-rendering:geometricPrecision; text-rendering:geometricPrecision; image-rendering:optimizeQuality; fill-rule:evenodd; clip-rule:evenodd"
viewBox="0 0 56390.42 31820.37"
 xmlns:xlink="http://www.w3.org/1999/xlink"
 xmlns:xodm="http://www.corel.com/coreldraw/odm/2003">
 <defs>
  <style type="text/css">
   <![CDATA[
    .str0 {stroke:black;stroke-width:230.32;stroke-miterlimit:22.9256}
    .str1 {stroke:white;stroke-width:92.13;stroke-miterlimit:22.9256}
    .fil2 {fill:#231F20}
    .fil0 {fill:#F0F0F0}
    .fil1 {fill:white}
   ]]>
  </style>
 </defs>
 <g id="Capa_x0020_1">
  <metadata id="CorelCorpID_0Corel-Layer"/>
  <rect class="fil0 str0" x="115.13" y="115.16" width="56160.1" height="31590.06" rx="2169.26" ry="2105.99"/>
  <ellipse class="fil1 str1" cx="28195.21" cy="15910.19" rx="7682.67" ry="7682.69"/>
  <path class="fil2" d="M24866.55 21251.71l0 -10737.53c0,-338.79 235.11,-644.24 601.31,-644.24 314.75,0 909.98,477.86 1185.39,661.47 1175.25,783.49 2739.28,1880.29 3868.7,2573.77l1680.52 1111.27c380.85,253.85 722.78,481.96 1108.05,738.81 391.72,261.13 962.12,533.73 962.12,927.66 0,356.16 -172.09,461.09 -386.33,601.54 -209.17,137.13 -398.49,265.23 -618.72,412.08l-7301.46 4853.44c-237.41,159.79 -390.43,308.3 -727.84,162 -260.07,-112.76 -371.73,-308.48 -371.73,-660.27zm-6571.36 -5583.49c0,2484.5 551.24,4046.23 1760.95,5884.14 347.18,527.42 489.6,625.77 803.39,1000.54 116.72,139.39 149.34,189.69 281.03,320.28 204.11,202.45 390.8,362.98 600.89,558.79 991.09,923.56 2697.36,1752.79 3949.68,2063.35 2425.08,601.4 4481.25,346.62 6747.09,-623.37 765.48,-327.65 1511.47,-898.23 2159.9,-1404.92 127.36,-99.54 195.72,-172.78 325.21,-276.15 113.91,-90.93 198.12,-189.96 305.03,-296.28l547.64 -611.95c94.25,-122.25 167.53,-193.33 270.07,-331.29 1398.71,-1882.32 2049.16,-3716.92 2049.16,-6283.14 0,-1874.72 -582.88,-3331.83 -1331.36,-4724.64 -248.74,-462.8 -677.82,-1026.19 -1017.63,-1430.58 -901.87,-1073.32 -2205.45,-2082.6 -3504.11,-2637.71 -2668.76,-1140.71 -5393.99,-1183.78 -8063.94,-13.08 -1728.33,757.83 -3580.34,2327.8 -4522.15,4024.95 -758.01,1365.91 -1360.84,2942.09 -1360.84,4781.07z"/>
 </g>
</svg>
