<?xml version="1.0" encoding="UTF-8"?>
<!DOCTYPE svg PUBLIC "-//W3C//DTD SVG 1.1//EN" "http://www.w3.org/Graphics/SVG/1.1/DTD/svg11.dtd">
<!-- Creator: CorelDRAW 2021 (64-Bit) -->
<svg xmlns="http://www.w3.org/2000/svg" xml:space="preserve" width="60.1218mm" height="20.5991mm" version="1.1" style="shape-rendering:geometricPrecision; text-rendering:geometricPrecision; image-rendering:optimizeQuality; fill-rule:evenodd; clip-rule:evenodd"
viewBox="0 0 1526.32 522.95"
 xmlns:xlink="http://www.w3.org/1999/xlink"
 xmlns:xodm="http://www.corel.com/coreldraw/odm/2003">
 <defs>
  <style type="text/css">
   <![CDATA[
    .str0 {stroke:black;stroke-width:38.08;stroke-miterlimit:22.9256}
    .fil0 {fill:white}
    .fil1 {fill:black;fill-rule:nonzero}
   ]]>
  </style>
 </defs>
 <g id="Capa_x0020_1">
  <metadata id="CorelCorpID_0Corel-Layer"/>
  <rect class="fil0 str0" transform="matrix(1.19016 -0 -0.353958 0.950732 172.995 19.0379)" width="1143.41" height="510" rx="91.44" ry="91.44"/>
  <path class="fil1" d="M397.07 370.87l-33.4 -63.68c-3.33,-6.34 -6.5,-11.57 -9.62,-15.8 -3.06,-4.28 -6.29,-7.66 -9.56,-10.2 -3.28,-2.49 -6.82,-4.33 -10.57,-5.39 -3.8,-1.11 -7.98,-1.64 -12.63,-1.64l-24.41 0 0 96.71 -20.61 0 0 -221.96 63.89 0c8.35,0 16.44,1.22 24.25,3.7 7.77,2.48 14.69,6.13 20.77,10.99 6.08,4.86 10.99,10.94 14.64,18.23 3.65,7.34 5.5,15.85 5.5,25.52 0,7.82 -1.16,15.06 -3.54,21.67 -2.38,6.55 -5.76,12.42 -10.15,17.55 -4.39,5.07 -9.67,9.41 -15.91,12.95 -6.29,3.59 -13.32,6.24 -21.14,7.98l0 0.63c3.01,1.22 5.71,2.85 8.19,4.81 2.48,1.96 4.86,4.33 7.19,7.14 2.33,2.75 4.6,5.97 6.87,9.56 2.27,3.65 4.65,7.77 7.08,12.42l37.26 68.81 -24.1 0zm-100.2 -202.93l0 87.51 36.78 0c7.45,0 14.22,-1.06 20.4,-3.22 6.18,-2.17 11.47,-5.28 15.85,-9.3 4.39,-3.97 7.77,-8.83 10.2,-14.48 2.43,-5.65 3.65,-12.05 3.65,-19.13 0,-12.89 -4.12,-22.99 -12.42,-30.33 -8.3,-7.35 -20.29,-11.05 -35.99,-11.05l-38.47 0z"/>
  <path id="_1" class="fil1" d="M465.08 374.04c-4.12,0 -7.66,-1.43 -10.52,-4.33 -2.91,-2.85 -4.33,-6.4 -4.33,-10.52 0,-4.18 1.43,-7.77 4.23,-10.62 2.85,-2.91 6.4,-4.33 10.62,-4.33 2.06,0 3.96,0.37 5.76,1.16 1.8,0.79 3.38,1.79 4.7,3.06 1.37,1.32 2.43,2.85 3.27,4.7 0.79,1.9 1.22,3.91 1.22,6.02 0,2.06 -0.42,4.02 -1.22,5.81 -0.85,1.8 -1.9,3.38 -3.27,4.7 -1.32,1.32 -2.91,2.38 -4.7,3.17 -1.8,0.79 -3.7,1.16 -5.76,1.16z"/>
  <polygon id="_2" class="fil1" points="528.6,370.87 528.6,148.91 549.21,148.91 549.21,352.16 638.31,352.16 638.31,370.87 "/>
  <polygon id="_3" class="fil1" points="721.75,167.94 721.75,370.87 701.14,370.87 701.14,167.94 637.09,167.94 637.09,148.91 785.8,148.91 785.8,167.94 "/>
  <path id="_4" class="fil1" d="M1019.86 370.87l-21.51 0 -47.51 -164.51c-1.16,-3.96 -2.06,-7.72 -2.75,-11.31 -0.63,-3.65 -1.06,-7.13 -1.16,-10.52l-0.58 0c-0.42,5.97 -1.9,13.16 -4.49,21.51l-49.2 164.83 -21.51 0 -65.48 -221.96 22.88 0 48.93 174.13c1.11,3.81 2.01,7.45 2.7,10.89 0.69,3.49 1.22,6.82 1.64,9.99l0.58 0c0.63,-4.65 2.33,-11.57 5.13,-20.88l52 -174.13 16.22 0 48.78 174.76c0.9,3.49 1.74,6.92 2.48,10.3 0.69,3.33 1.27,6.61 1.69,9.78l0.63 0c0.16,-2.06 0.58,-4.39 1.22,-6.92 0.63,-2.59 1.32,-5.5 2.17,-8.67l48.57 -179.26 22.46 0 -63.89 221.96z"/>
  <path id="_5" class="fil1" d="M1118.47 370.87l0 -221.96 60.61 0c9.2,0 17.49,1.22 24.84,3.7 7.4,2.48 13.69,5.97 18.87,10.46 5.23,4.49 9.2,9.88 12,16.17 2.8,6.29 4.18,13.21 4.18,20.77 0,6.4 -0.9,12.37 -2.64,17.97 -1.74,5.55 -4.28,10.62 -7.56,15.22 -3.33,4.6 -7.34,8.62 -12.15,11.94 -4.81,3.38 -10.25,6.02 -16.33,7.98l0 0.63c7.45,0.69 14.27,2.48 20.4,5.39 6.08,2.91 11.36,6.66 15.69,11.31 4.33,4.65 7.72,10.09 10.09,16.33 2.38,6.24 3.59,13.05 3.59,20.51 0,9.35 -1.69,17.97 -5.13,25.74 -3.38,7.77 -8.19,14.48 -14.32,20.13 -6.13,5.6 -13.48,9.99 -21.93,13.05 -8.45,3.12 -17.81,4.65 -28.06,4.65l-62.15 0zm20.61 -202.93l0 78.64 28.8 0c7.5,0 14.32,-1.01 20.4,-2.96 6.13,-1.95 11.31,-4.76 15.64,-8.45 4.33,-3.7 7.66,-8.19 9.99,-13.48 2.33,-5.23 3.49,-11.15 3.49,-17.76 0,-23.99 -14.96,-35.99 -44.87,-35.99l-33.45 0zm0 97.34l0 86.88 38.26 0c16.44,0 29.07,-3.86 37.89,-11.52 8.83,-7.66 13.26,-18.55 13.26,-32.71 0,-28.43 -19.39,-42.65 -58.13,-42.65l-31.28 0z"/>
 </g>
</svg>
