<?xml version="1.0" encoding="UTF-8"?>
<!DOCTYPE svg PUBLIC "-//W3C//DTD SVG 1.1//EN" "http://www.w3.org/Graphics/SVG/1.1/DTD/svg11.dtd">
<!-- Creator: CorelDRAW -->
<svg xmlns="http://www.w3.org/2000/svg" xml:space="preserve" width="51.6494mm" height="12.192mm" version="1.1" style="shape-rendering:geometricPrecision; text-rendering:geometricPrecision; image-rendering:optimizeQuality; fill-rule:evenodd; clip-rule:evenodd"
viewBox="0 0 3225.14 761.3"
 xmlns:xlink="http://www.w3.org/1999/xlink"
 xmlns:xodm="http://www.corel.com/coreldraw/odm/2003">
 <defs>
  <style type="text/css">
   <![CDATA[
    .str0 {stroke:white;stroke-width:12.49;stroke-miterlimit:22.9256}
    .fil2 {fill:#231F20}
    .fil0 {fill:#F0F0F0}
    .fil1 {fill:white}
    .fil3 {fill:black;fill-rule:nonzero}
   ]]>
  </style>
 </defs>
 <g id="Capa_x0020_1">
  <metadata id="CorelCorpID_0Corel-Layer"/>
  <g id="_2039459972992">
   <path class="fil0" d="M380.65 0l2463.85 0c209.36,0 380.65,171.29 380.65,380.65l0 0.01c0,209.36 -171.29,380.65 -380.65,380.65l-2463.85 0c-209.36,0 -380.65,-171.29 -380.65,-380.65l0 -0.01c0,-209.36 171.29,-380.65 380.65,-380.65z"/>
   <circle class="fil1 str0" cx="387.49" cy="380.65" r="196.93"/>
   <path class="fil2" d="M302.17 517.57l0 -275.24c0,-8.68 6.03,-16.51 15.41,-16.51 8.07,0 23.33,12.25 30.38,16.95 30.12,20.08 70.22,48.2 99.17,65.98l43.08 28.48c9.76,6.51 18.53,12.36 28.4,18.94 10.04,6.69 24.66,13.68 24.66,23.78 0,9.13 -4.41,11.82 -9.9,15.42 -5.36,3.52 -10.22,6.79 -15.86,10.56l-187.16 124.41c-6.08,4.1 -10,7.9 -18.66,4.15 -6.66,-2.89 -9.52,-7.91 -9.52,-16.93zm-168.45 -143.12c0,63.69 14.13,103.72 45.14,150.83 8.9,13.52 12.54,16.04 20.59,25.65 2.99,3.57 3.83,4.86 7.2,8.21 5.23,5.18 10.02,9.3 15.4,14.32 25.4,23.68 69.14,44.93 101.24,52.89 62.17,15.42 114.87,8.89 172.95,-15.97 19.62,-8.4 38.74,-23.03 55.36,-36.02 3.27,-2.55 5.01,-4.43 8.34,-7.07 2.92,-2.34 5.08,-4.87 7.82,-7.6l14.04 -15.69c2.42,-3.13 4.3,-4.95 6.92,-8.49 35.85,-48.25 52.53,-95.28 52.53,-161.05 0,-48.06 -14.94,-85.4 -34.13,-121.11 -6.38,-11.86 -17.37,-26.31 -26.08,-36.67 -23.12,-27.51 -56.53,-53.38 -89.82,-67.61 -68.41,-29.24 -138.27,-30.35 -206.7,-0.34 -44.3,19.43 -91.78,59.67 -115.92,103.17 -19.43,35.01 -34.88,75.42 -34.88,122.56z"/>
  </g>
  <path class="fil3" d="M1101.08 314.06l-51.42 138.81 -17.91 0 -50.33 -138.81 18.11 0 38.43 110.06c1.22,3.53 2.14,7.64 2.8,12.3l0.37 0c0.52,-3.87 1.59,-8.03 3.2,-12.49l39.22 -109.86 17.52 0z"/>
  <path id="_1" class="fil3" d="M1127.02 328.56c-2.81,0 -5.26,-0.96 -7.24,-2.91 -2.02,-1.92 -3.01,-4.36 -3.01,-7.34 0,-2.97 0.99,-5.45 3.01,-7.4 1.98,-1.99 4.43,-2.97 7.24,-2.97 2.9,0 5.38,0.99 7.43,2.97 2.02,1.95 3.04,4.43 3.04,7.4 0,2.84 -1.02,5.26 -3.04,7.24 -2.05,2.02 -4.53,3.01 -7.43,3.01zm7.76 124.31l-15.89 0 0 -99.13 15.89 0 0 99.13z"/>
  <path id="_2" class="fil3" d="M1251.52 452.87l-15.9 0 0 -16.85 -0.36 0c-7.37,12.79 -18.73,19.16 -34.1,19.16 -12.42,0 -22.4,-4.43 -29.84,-13.31 -7.47,-8.85 -11.2,-20.95 -11.2,-36.25 0,-16.39 4.13,-29.51 12.39,-39.39 8.26,-9.88 19.26,-14.8 33.01,-14.8 13.61,0 23.52,5.35 29.74,16.05l0.36 0 0 -61.36 15.9 0 0 146.74zm-15.9 -44.81l0 -14.64c0,-7.99 -2.64,-14.77 -7.93,-20.32 -5.28,-5.55 -11.99,-8.33 -20.12,-8.33 -9.68,0 -17.32,3.54 -22.87,10.64 -5.55,7.11 -8.33,16.92 -8.33,29.44 0,11.43 2.68,20.42 8,27.06 5.32,6.61 12.49,9.92 21.44,9.92 8.86,0 16.03,-3.21 21.55,-9.58 5.51,-6.38 8.25,-14.47 8.25,-24.19z"/>
  <path id="_3" class="fil3" d="M1363.3 407.27l-69.99 0c0.27,11.04 3.24,19.56 8.92,25.58 5.68,5.98 13.48,8.99 23.43,8.99 11.16,0 21.41,-3.67 30.8,-11.04l0 14.91c-8.72,6.34 -20.26,9.48 -34.56,9.48 -14.01,0 -25.01,-4.49 -33.01,-13.48 -8.03,-9.02 -12.03,-21.67 -12.03,-38 0,-15.43 4.4,-27.99 13.12,-37.7 8.75,-9.72 19.63,-14.57 32.58,-14.57 12.99,0 23,4.2 30.1,12.59 7.11,8.35 10.64,20.02 10.64,34.92l0 8.32zm-16.26 -13.44c-0.06,-9.15 -2.28,-16.29 -6.61,-21.41 -4.36,-5.09 -10.41,-7.64 -18.17,-7.64 -7.47,0 -13.84,2.68 -19.07,8.03 -5.22,5.36 -8.45,12.36 -9.68,21.02l53.53 0z"/>
  <path id="_4" class="fil3" d="M1428.76 455.18c-14.64,0 -26.34,-4.62 -35.09,-13.87 -8.72,-9.25 -13.12,-21.54 -13.12,-36.84 0,-16.65 4.56,-29.64 13.64,-39.03 9.12,-9.35 21.41,-14.01 36.91,-14.01 14.77,0 26.3,4.53 34.6,13.64 8.29,9.09 12.42,21.71 12.42,37.83 0,15.83 -4.46,28.48 -13.38,38 -8.95,9.52 -20.95,14.27 -35.98,14.27zm1.16 -90.4c-10.18,0 -18.24,3.47 -24.19,10.41 -5.94,6.94 -8.92,16.49 -8.92,28.72 0,11.73 3.01,20.98 9.02,27.76 6.01,6.78 14.04,10.18 24.09,10.18 10.27,0 18.17,-3.34 23.69,-9.98 5.52,-6.64 8.26,-16.09 8.26,-28.35 0,-12.39 -2.74,-21.94 -8.26,-28.65 -5.52,-6.74 -13.42,-10.08 -23.69,-10.08z"/>
  <polygon id="_5" class="fil3" points="2232.83,328.76 2192.75,328.76 2192.75,452.87 2176.5,452.87 2176.5,328.76 2136.52,328.76 2136.52,314.06 2232.83,314.06 "/>
  <path id="_6" class="fil3" d="M2332.65 452.87l-15.86 0 0 -15.7 -0.39 0c-6.58,12.03 -16.78,18.01 -30.6,18.01 -23.63,0 -35.42,-14.04 -35.42,-42.19l0 -59.25 15.76 0 0 56.74c0,20.91 8.03,31.36 24.02,31.36 7.74,0 14.11,-2.85 19.13,-8.56 4.99,-5.71 7.5,-13.18 7.5,-22.44l0 -57.1 15.86 0 0 99.13z"/>
  <path id="_7" class="fil3" d="M2381 438.52l-0.4 0 0 14.34 -15.89 0 0 -146.74 15.89 0 0 65.03 0.4 0c7.79,-13.15 19.23,-19.73 34.26,-19.73 12.69,0 22.67,4.43 29.84,13.31 7.21,8.85 10.81,20.75 10.81,35.65 0,16.58 -4.03,29.87 -12.1,39.85 -8.06,9.94 -19.1,14.93 -33.11,14.93 -13.12,0 -23,-5.55 -29.7,-16.65zm-0.4 -39.98l0 13.85c0,8.19 2.64,15.17 8,20.88 5.32,5.71 12.06,8.56 20.25,8.56 9.62,0 17.15,-3.67 22.6,-11.04 5.45,-7.37 8.19,-17.58 8.19,-30.7 0,-11.03 -2.54,-19.66 -7.66,-25.94 -5.09,-6.24 -12,-9.39 -20.69,-9.39 -9.25,0 -16.65,3.21 -22.27,9.62 -5.61,6.44 -8.42,14.47 -8.42,24.15z"/>
  <path id="_8" class="fil3" d="M2560.92 407.27l-69.99 0c0.27,11.04 3.24,19.56 8.92,25.58 5.68,5.98 13.48,8.99 23.43,8.99 11.16,0 21.41,-3.67 30.8,-11.04l0 14.91c-8.72,6.34 -20.26,9.48 -34.56,9.48 -14.01,0 -25.01,-4.49 -33.01,-13.48 -8.03,-9.02 -12.03,-21.67 -12.03,-38 0,-15.43 4.4,-27.99 13.12,-37.7 8.75,-9.72 19.63,-14.57 32.58,-14.57 12.99,0 23,4.2 30.1,12.59 7.11,8.35 10.64,20.02 10.64,34.92l0 8.32zm-16.26 -13.44c-0.06,-9.15 -2.28,-16.29 -6.61,-21.41 -4.36,-5.09 -10.41,-7.64 -18.17,-7.64 -7.47,0 -13.84,2.68 -19.07,8.03 -5.22,5.36 -8.45,12.36 -9.68,21.02l53.53 0z"/>
  <path id="_9" class="fil3" d="M1637.5 407.27l-69.99 0c0.27,11.04 3.24,19.56 8.92,25.58 5.68,5.98 13.48,8.99 23.43,8.99 11.16,0 21.41,-3.67 30.8,-11.04l0 14.91c-8.72,6.34 -20.26,9.48 -34.56,9.48 -14.01,0 -25.01,-4.49 -33.01,-13.48 -8.03,-9.02 -12.03,-21.67 -12.03,-38 0,-15.43 4.4,-27.99 13.12,-37.7 8.75,-9.72 19.63,-14.57 32.58,-14.57 12.99,0 23,4.2 30.1,12.59 7.11,8.35 10.64,20.02 10.64,34.92l0 8.32zm-16.26 -13.44c-0.06,-9.15 -2.28,-16.29 -6.61,-21.41 -4.36,-5.09 -10.41,-7.64 -18.17,-7.64 -7.47,0 -13.84,2.68 -19.07,8.03 -5.22,5.36 -8.45,12.36 -9.68,21.02l53.53 0z"/>
  <path id="_10" class="fil3" d="M1743.82 452.87l-15.89 0 0 -56.54c0,-21.05 -7.67,-31.56 -23.03,-31.56 -7.93,0 -14.51,2.98 -19.69,8.95 -5.22,5.98 -7.8,13.52 -7.8,22.6l0 56.54 -15.89 0 0 -99.13 15.89 0 0 16.45 0.4 0c7.46,-12.52 18.3,-18.76 32.51,-18.76 10.83,0 19.13,3.5 24.88,10.5 5.75,6.97 8.62,17.12 8.62,30.33l0 60.6z"/>
  <path id="_11" class="fil3" d="M1920.41 314.06l-45.76 87.5 0 51.32 -16.29 0 0 -50.92 -44.61 -87.89 18.48 0 31.09 62.71c0.36,0.79 1.52,3.63 3.37,8.53l0.29 0c0.66,-2.19 1.89,-5.03 3.67,-8.53l32.55 -62.71 17.22 0z"/>
  <path id="_12" class="fil3" d="M1961.65 455.18c-14.64,0 -26.34,-4.62 -35.09,-13.87 -8.72,-9.25 -13.12,-21.54 -13.12,-36.84 0,-16.65 4.56,-29.64 13.64,-39.03 9.12,-9.35 21.41,-14.01 36.91,-14.01 14.77,0 26.3,4.53 34.6,13.64 8.29,9.09 12.42,21.71 12.42,37.83 0,15.83 -4.46,28.48 -13.38,38 -8.95,9.52 -20.95,14.27 -35.98,14.27zm1.16 -90.4c-10.18,0 -18.24,3.47 -24.19,10.41 -5.94,6.94 -8.92,16.49 -8.92,28.72 0,11.73 3.01,20.98 9.02,27.76 6.01,6.78 14.04,10.18 24.09,10.18 10.27,0 18.17,-3.34 23.69,-9.98 5.52,-6.64 8.26,-16.09 8.26,-28.35 0,-12.39 -2.74,-21.94 -8.26,-28.65 -5.52,-6.74 -13.42,-10.08 -23.69,-10.08z"/>
  <path id="_13" class="fil3" d="M2116.55 452.87l-15.86 0 0 -15.7 -0.39 0c-6.58,12.03 -16.78,18.01 -30.6,18.01 -23.63,0 -35.42,-14.04 -35.42,-42.19l0 -59.25 15.76 0 0 56.74c0,20.91 8.03,31.36 24.02,31.36 7.74,0 14.11,-2.85 19.13,-8.56 4.99,-5.71 7.5,-13.18 7.5,-22.44l0 -57.1 15.86 0 0 99.13z"/>
 </g>
</svg>
