<?xml version="1.0" encoding="UTF-8"?>
<!DOCTYPE svg PUBLIC "-//W3C//DTD SVG 1.1//EN" "http://www.w3.org/Graphics/SVG/1.1/DTD/svg11.dtd">
<!-- Creator: CorelDRAW -->
<svg xmlns="http://www.w3.org/2000/svg" xml:space="preserve" width="51.6494mm" height="12.192mm" version="1.1" style="shape-rendering:geometricPrecision; text-rendering:geometricPrecision; image-rendering:optimizeQuality; fill-rule:evenodd; clip-rule:evenodd"
viewBox="0 0 3225.14 761.3"
 xmlns:xlink="http://www.w3.org/1999/xlink"
 xmlns:xodm="http://www.corel.com/coreldraw/odm/2003">
 <defs>
  <style type="text/css">
   <![CDATA[
    .str0 {stroke:white;stroke-width:12.49;stroke-miterlimit:22.9256}
    .fil2 {fill:#231F20}
    .fil0 {fill:#F0F0F0}
    .fil1 {fill:white}
    .fil3 {fill:black;fill-rule:nonzero}
   ]]>
  </style>
 </defs>
 <g id="Capa_x0020_1">
  <metadata id="CorelCorpID_0Corel-Layer"/>
  <path class="fil0" d="M380.65 0l2463.85 0c209.36,0 380.65,171.29 380.65,380.65l0 0.01c0,209.36 -171.29,380.65 -380.65,380.65l-2463.85 0c-209.36,0 -380.65,-171.29 -380.65,-380.65l0 -0.01c0,-209.36 171.29,-380.65 380.65,-380.65z"/>
  <circle class="fil1 str0" cx="387.49" cy="380.65" r="259.83"/>
  <path class="fil2" d="M274.92 561.31l0 -363.15c0,-11.46 7.95,-21.79 20.34,-21.79 10.65,0 30.78,16.16 40.09,22.37 39.75,26.5 92.65,63.6 130.84,87.05l56.84 37.58c12.88,8.59 24.45,16.3 37.48,24.99 13.24,8.83 32.54,18.05 32.54,31.38 0,12.05 -5.83,15.59 -13.07,20.34 -7.07,4.63 -13.48,8.97 -20.92,13.93l-246.94 164.15c-8.03,5.4 -13.2,10.43 -24.61,5.48 -8.79,-3.81 -12.57,-10.43 -12.57,-22.33zm-222.25 -188.83c0,84.02 18.64,136.84 59.56,199.01 11.74,17.83 16.55,21.16 27.17,33.84 3.95,4.71 5.05,6.41 9.5,10.83 6.9,6.84 13.22,12.28 20.33,18.9 33.51,31.23 91.22,59.28 133.58,69.79 82.02,20.34 151.56,11.72 228.19,-21.09 25.89,-11.08 51.12,-30.38 73.05,-47.51 4.3,-3.37 6.62,-5.84 11,-9.34 3.85,-3.07 6.7,-6.43 10.32,-10.02l18.52 -20.7c3.19,-4.13 5.67,-6.54 9.14,-11.2 47.31,-63.66 69.31,-125.71 69.31,-212.5 0,-63.4 -19.71,-112.68 -45.03,-159.79 -8.41,-15.65 -22.92,-34.71 -34.42,-48.39 -30.5,-36.3 -74.59,-70.44 -118.51,-89.21 -90.26,-38.58 -182.43,-40.04 -272.73,-0.44 -58.45,25.63 -121.08,78.73 -152.94,136.13 -25.63,46.2 -46.02,99.5 -46.02,161.7z"/>
  <path class="fil3" d="M1059.42 354.8l-57.13 154.23 -19.9 0 -55.91 -154.23 20.12 0 42.7 122.29c1.36,3.93 2.39,8.48 3.12,13.66l0.4 0c0.59,-4.3 1.76,-8.92 3.57,-13.88l43.58 -122.07 19.46 0z"/>
  <path id="_1" class="fil3" d="M1153.73 458.37l-77.76 0c0.29,12.26 3.6,21.74 9.92,28.42 6.31,6.64 14.98,9.98 26.03,9.98 12.41,0 23.79,-4.07 34.22,-12.26l0 16.56c-9.69,7.05 -22.5,10.54 -38.4,10.54 -15.57,0 -27.79,-5 -36.68,-14.98 -8.92,-10.02 -13.36,-24.08 -13.36,-42.22 0,-17.15 4.88,-31.1 14.57,-41.89 9.73,-10.79 21.81,-16.19 36.2,-16.19 14.42,0 25.55,4.66 33.44,13.99 7.89,9.29 11.82,22.25 11.82,38.8l0 9.25zm-18.06 -14.94c-0.07,-10.17 -2.54,-18.1 -7.34,-23.79 -4.85,-5.65 -11.56,-8.48 -20.19,-8.48 -8.3,0 -15.39,2.97 -21.19,8.92 -5.8,5.94 -9.4,13.73 -10.75,23.35l59.48 0z"/>
  <path id="_2" class="fil3" d="M1237.88 416.74c-3.08,-2.35 -7.52,-3.53 -13.33,-3.53 -7.56,0 -13.84,3.53 -18.91,10.65 -5.03,7.09 -7.56,16.78 -7.56,29.04l0 56.14 -17.66 0 0 -110.14 17.66 0 0 22.69 0.44 0c2.5,-7.75 6.31,-13.77 11.5,-18.14 5.18,-4.33 10.94,-6.5 17.33,-6.5 4.59,0 8.07,0.52 10.53,1.5l0 18.29z"/>
  <path id="_3" class="fil3" d="M1405.88 458.37l-77.76 0c0.29,12.26 3.6,21.74 9.92,28.42 6.31,6.64 14.98,9.98 26.03,9.98 12.41,0 23.79,-4.07 34.22,-12.26l0 16.56c-9.69,7.05 -22.5,10.54 -38.4,10.54 -15.57,0 -27.79,-5 -36.68,-14.98 -8.92,-10.02 -13.36,-24.08 -13.36,-42.22 0,-17.15 4.88,-31.1 14.57,-41.89 9.73,-10.79 21.81,-16.19 36.2,-16.19 14.42,0 25.55,4.66 33.44,13.99 7.89,9.29 11.82,22.25 11.82,38.8l0 9.25zm-18.06 -14.94c-0.07,-10.17 -2.54,-18.1 -7.34,-23.79 -4.85,-5.65 -11.56,-8.48 -20.19,-8.48 -8.3,0 -15.39,2.97 -21.19,8.92 -5.8,5.94 -9.4,13.73 -10.75,23.35l59.48 0z"/>
  <path id="_4" class="fil3" d="M1524.03 509.03l-17.66 0 0 -62.82c0,-23.38 -8.52,-35.06 -25.59,-35.06 -8.82,0 -16.12,3.3 -21.89,9.95 -5.8,6.64 -8.66,15.02 -8.66,25.11l0 62.82 -17.66 0 0 -110.14 17.66 0 0 18.28 0.44 0c8.3,-13.91 20.34,-20.86 36.13,-20.86 12.04,0 21.26,3.9 27.64,11.68 6.39,7.75 9.58,19.02 9.58,33.71l0 67.33z"/>
  <path id="_5" class="fil3" d="M1720.23 354.8l-50.85 97.22 0 57.02 -18.1 0 0 -56.58 -49.56 -97.65 20.52 0 34.55 69.68c0.41,0.88 1.69,4.04 3.75,9.47l0.33 0c0.73,-2.42 2.09,-5.58 4.07,-9.47l36.17 -69.68 19.13 0z"/>
  <path id="_6" class="fil3" d="M1766.05 511.61c-16.27,0 -29.26,-5.15 -39,-15.42 -9.69,-10.28 -14.57,-23.93 -14.57,-40.94 0,-18.5 5.07,-32.93 15.16,-43.36 10.13,-10.39 23.8,-15.57 41.01,-15.57 16.41,0 29.22,5.03 38.44,15.17 9.22,10.1 13.81,24.12 13.81,42.04 0,17.58 -4.96,31.65 -14.87,42.22 -9.95,10.57 -23.28,15.86 -39.98,15.86zm1.28 -100.45c-11.31,0 -20.26,3.85 -26.88,11.56 -6.61,7.71 -9.91,18.32 -9.91,31.9 0,13.04 3.34,23.32 10.02,30.84 6.68,7.53 15.6,11.31 26.76,11.31 11.42,0 20.19,-3.71 26.33,-11.08 6.13,-7.38 9.18,-17.88 9.18,-31.5 0,-13.77 -3.05,-24.38 -9.18,-31.83 -6.13,-7.49 -14.91,-11.2 -26.33,-11.2z"/>
  <path id="_7" class="fil3" d="M1938.17 509.03l-17.63 0 0 -17.44 -0.44 0c-7.31,13.36 -18.65,20.01 -34,20.01 -26.25,0 -39.36,-15.6 -39.36,-46.89l0 -65.83 17.52 0 0 63.04c0,23.24 8.92,34.84 26.69,34.84 8.59,0 15.68,-3.15 21.26,-9.51 5.54,-6.35 8.33,-14.65 8.33,-24.93l0 -63.44 17.63 0 0 110.14z"/>
  <polygon id="_8" class="fil3" points="2067.36,371.14 2022.83,371.14 2022.83,509.03 2004.76,509.03 2004.76,371.14 1960.34,371.14 1960.34,354.8 2067.36,354.8 "/>
  <path id="_9" class="fil3" d="M2178.28 509.03l-17.63 0 0 -17.44 -0.44 0c-7.31,13.36 -18.65,20.01 -34,20.01 -26.25,0 -39.36,-15.6 -39.36,-46.89l0 -65.83 17.52 0 0 63.04c0,23.24 8.92,34.84 26.69,34.84 8.59,0 15.68,-3.15 21.26,-9.51 5.54,-6.35 8.33,-14.65 8.33,-24.93l0 -63.44 17.63 0 0 110.14z"/>
  <path id="_10" class="fil3" d="M2231.98 493.1l-0.44 0 0 15.94 -17.66 0 0 -163.05 17.66 0 0 72.26 0.44 0c8.67,-14.62 21.37,-21.92 38.07,-21.92 14.1,0 25.19,4.92 33.16,14.8 8.01,9.84 12,23.05 12,39.61 0,18.43 -4.48,33.19 -13.44,44.28 -8.95,11.05 -21.22,16.6 -36.79,16.6 -14.57,0 -25.55,-6.17 -33.01,-18.51zm-0.44 -44.42l0 15.38c0,9.11 2.93,16.85 8.89,23.2 5.91,6.36 13.4,9.51 22.5,9.51 10.68,0 19.05,-4.07 25.11,-12.26 6.06,-8.19 9.11,-19.53 9.11,-34.11 0,-12.26 -2.83,-21.84 -8.52,-28.82 -5.66,-6.94 -13.33,-10.43 -22.99,-10.43 -10.28,0 -18.51,3.56 -24.75,10.68 -6.24,7.16 -9.36,16.08 -9.36,26.84z"/>
  <path id="_11" class="fil3" d="M2431.9 458.37l-77.76 0c0.29,12.26 3.6,21.74 9.92,28.42 6.31,6.64 14.98,9.98 26.03,9.98 12.41,0 23.79,-4.07 34.22,-12.26l0 16.56c-9.69,7.05 -22.5,10.54 -38.4,10.54 -15.57,0 -27.79,-5 -36.68,-14.98 -8.92,-10.02 -13.36,-24.08 -13.36,-42.22 0,-17.15 4.88,-31.1 14.57,-41.89 9.73,-10.79 21.81,-16.19 36.2,-16.19 14.42,0 25.55,4.66 33.44,13.99 7.89,9.29 11.82,22.25 11.82,38.8l0 9.25zm-18.06 -14.94c-0.07,-10.17 -2.54,-18.1 -7.34,-23.79 -4.85,-5.65 -11.56,-8.48 -20.19,-8.48 -8.3,0 -15.39,2.97 -21.19,8.92 -5.8,5.94 -9.4,13.73 -10.75,23.35l59.48 0z"/>
 </g>
</svg>
