<?xml version="1.0" encoding="UTF-8" standalone="no"?>
<!DOCTYPE svg PUBLIC "-//W3C//DTD SVG 1.1//EN" "http://www.w3.org/Graphics/SVG/1.1/DTD/svg11.dtd">
<!-- Generated by Microsoft Visio, SVG Export Interpolation.svg Page-1 -->
<svg xmlns="http://www.w3.org/2000/svg" xmlns:xlink="http://www.w3.org/1999/xlink" xmlns:ev="http://www.w3.org/2001/xml-events"
		xmlns:v="http://schemas.microsoft.com/visio/2003/SVGExtensions/" width="5.70168in" height="3.62305in"
		viewBox="0 0 410.521 260.86" xml:space="preserve" color-interpolation-filters="sRGB" class="st15">
	<v:documentProperties v:langID="1033" v:metric="true" v:viewMarkup="false"/>

	<style type="text/css">
	<![CDATA[
		.st1 {fill:#f2f2f2;stroke:none;stroke-width:1.5}
		.st2 {fill:#fbbc0e;fill-opacity:1;stroke:#fbbc0e;stroke-opacity:1;stroke-width:0.37313432835821}
		.st3 {fill:#000000;font-family:Segoe UI;font-size:0.75em}
		.st4 {fill:#f2f2f2;stroke:#fbbc0e;stroke-width:1.5}
		.st5 {font-size:1em}
		.st6 {marker-end:url(#mrkr6-16);stroke:#7f7f7f;stroke-linecap:round;stroke-linejoin:round;stroke-width:0.5}
		.st7 {fill:#7f7f7f;fill-opacity:1;stroke:#7f7f7f;stroke-opacity:1;stroke-width:0.25773195876289}
		.st8 {fill:#f2f2f2;stroke:#696368;stroke-width:1.5}
		.st9 {fill:#696368;fill-opacity:1;stroke:#696368;stroke-opacity:1;stroke-width:0.37313432835821}
		.st10 {fill:#f2f2f2;stroke:#4c85f4;stroke-width:1.5}
		.st11 {fill:#4c85f4;fill-opacity:1;stroke:#4c85f4;stroke-opacity:1;stroke-width:0.37313432835821}
		.st12 {marker-end:url(#mrkr6-51);stroke:#7f7f7f;stroke-linecap:round;stroke-linejoin:round;stroke-width:0.5}
		.st13 {fill:#f2f2f2;stroke:#ea4d35;stroke-width:1.5}
		.st14 {fill:#ea4d35;fill-opacity:1;stroke:#ea4d35;stroke-opacity:1;stroke-width:0.37313432835821}
		.st15 {fill:none;fill-rule:evenodd;font-size:12px;overflow:visible;stroke-linecap:square;stroke-miterlimit:3}
	]]>
	</style>

	<defs id="Markers">
		<g id="lend6">
			<path d="M 2 1 L 0 0 L 2.01237 -1.00641 C 2.32921 -0.372876 2.32921 0.372869 2.01238 1.0064 " style="stroke:none"/>
		</g>
		<marker id="mrkr6-4" class="st2" v:arrowType="6" v:arrowSize="2" v:setback="6.03" refX="6.03" orient="auto"
				markerUnits="strokeWidth" overflow="visible">
			<use xlink:href="#lend6" transform="scale(2.68) "/>
		</marker>
		<marker id="mrkr6-16" class="st7" v:arrowType="6" v:arrowSize="0" v:setback="8.01" refX="-8.01" orient="auto"
				markerUnits="strokeWidth" overflow="visible">
			<use xlink:href="#lend6" transform="scale(-3.88,-3.88) "/>
		</marker>
		<marker id="mrkr6-29" class="st9" v:arrowType="6" v:arrowSize="2" v:setback="6.03" refX="6.03" orient="auto"
				markerUnits="strokeWidth" overflow="visible">
			<use xlink:href="#lend6" transform="scale(2.68) "/>
		</marker>
		<marker id="mrkr6-44" class="st11" v:arrowType="6" v:arrowSize="2" v:setback="6.03" refX="6.03" orient="auto"
				markerUnits="strokeWidth" overflow="visible">
			<use xlink:href="#lend6" transform="scale(2.68) "/>
		</marker>
		<marker id="mrkr6-51" class="st7" v:arrowType="6" v:arrowSize="0" v:setback="8.73" refX="-8.73" orient="auto"
				markerUnits="strokeWidth" overflow="visible">
			<use xlink:href="#lend6" transform="scale(-3.88,-3.88) "/>
		</marker>
		<marker id="mrkr6-55" class="st14" v:arrowType="6" v:arrowSize="2" v:setback="6.03" refX="6.03" orient="auto"
				markerUnits="strokeWidth" overflow="visible">
			<use xlink:href="#lend6" transform="scale(2.68) "/>
		</marker>
	</defs>
	<g v:mID="0" v:index="1" v:groupContext="foregroundPage">
		<title>Page-1</title>
		<v:pageProperties v:drawingScale="0.0393701" v:pageScale="0.0393701" v:drawingUnits="24" v:shadowOffsetX="8.50394"
				v:shadowOffsetY="-8.50394"/>
		<v:layer v:name="Connector" v:index="0"/>
		<g id="shape577-1" v:mID="577" v:groupContext="shape" transform="translate(142.898,-228.335)">
			<title>Rounded Rectangle.577</title>
			<desc>Start</desc>
			<v:userDefs>
				<v:ud v:nameU="CTypeTopLeftSnip" v:prompt="" v:val="VT0(0):5"/>
				<v:ud v:nameU="CTypeTopRightSnip" v:prompt="" v:val="VT0(0):5"/>
				<v:ud v:nameU="CTypeBotLeftSnip" v:prompt="" v:val="VT0(0):5"/>
				<v:ud v:nameU="CTypeBotRightSnip" v:prompt="" v:val="VT0(0):5"/>
				<v:ud v:nameU="CornerLockHoriz" v:prompt="" v:val="VT0(1):5"/>
				<v:ud v:nameU="CornerLockVert" v:prompt="" v:val="VT0(1):5"/>
				<v:ud v:nameU="CornerLockDiag" v:prompt="" v:val="VT0(0):5"/>
				<v:ud v:nameU="TopLeftOffset" v:prompt="" v:val="VT0(0.15748031496063):24"/>
				<v:ud v:nameU="TopRightOffset" v:prompt="" v:val="VT0(0.15748031496063):24"/>
				<v:ud v:nameU="BotLeftOffset" v:prompt="" v:val="VT0(0.15748031496063):24"/>
				<v:ud v:nameU="BotRightOffset" v:prompt="" v:val="VT0(0.15748031496063):24"/>
				<v:ud v:nameU="visVersion" v:prompt="" v:val="VT0(15):26"/>
			</v:userDefs>
			<v:textBlock v:margins="rect(4,4,4,4)" v:tabSpace="42.5197"/>
			<v:textRect cx="62.3622" cy="249.521" width="124.73" height="22.6772"/>
			<path d="M11.34 260.86 L113.39 260.86 A11.3384 11.3384 -180 0 0 124.72 249.52 A11.3384 11.3384 -180 0 0 113.39 238.18
						 L11.34 238.18 A11.3384 11.3384 -180 0 0 0 249.52 A11.3384 11.3384 -180 0 0 11.34 260.86 Z" class="st1"/>
			<text x="53.07" y="252.22" class="st3" v:langID="1033"><v:paragraph v:horizAlign="1"/><v:tabList/>Start</text>		</g>
		<g id="shape704-6" v:mID="704" v:groupContext="shape" transform="translate(275.949,-190.822)">
			<title>Rounded Rectangle.592</title>
			<desc>IDW parameters &#38; CRS system</desc>
			<v:userDefs>
				<v:ud v:nameU="CTypeTopLeftSnip" v:prompt="" v:val="VT0(0):5"/>
				<v:ud v:nameU="CTypeTopRightSnip" v:prompt="" v:val="VT0(0):5"/>
				<v:ud v:nameU="CTypeBotLeftSnip" v:prompt="" v:val="VT0(0):5"/>
				<v:ud v:nameU="CTypeBotRightSnip" v:prompt="" v:val="VT0(0):5"/>
				<v:ud v:nameU="CornerLockHoriz" v:prompt="" v:val="VT0(1):5"/>
				<v:ud v:nameU="CornerLockVert" v:prompt="" v:val="VT0(1):5"/>
				<v:ud v:nameU="CornerLockDiag" v:prompt="" v:val="VT0(0):5"/>
				<v:ud v:nameU="TopLeftOffset" v:prompt="" v:val="VT0(0.15748031496063):24"/>
				<v:ud v:nameU="TopRightOffset" v:prompt="" v:val="VT0(0.15748031496063):24"/>
				<v:ud v:nameU="BotLeftOffset" v:prompt="" v:val="VT0(0.15748031496063):24"/>
				<v:ud v:nameU="BotRightOffset" v:prompt="" v:val="VT0(0.15748031496063):24"/>
				<v:ud v:nameU="visVersion" v:prompt="" v:val="VT0(15):26"/>
			</v:userDefs>
			<v:textBlock v:margins="rect(4,4,4,4)" v:tabSpace="42.5197"/>
			<v:textRect cx="62.3622" cy="249.521" width="124.73" height="22.6772"/>
			<path d="M11.34 260.86 L113.39 260.86 A11.3384 11.3384 -180 0 0 124.72 249.52 A11.3384 11.3384 -180 0 0 113.39 238.18
						 L11.34 238.18 A11.3384 11.3384 -180 0 0 0 249.52 A11.3384 11.3384 -180 0 0 11.34 260.86 Z" class="st4"/>
			<text x="30.2" y="246.82" class="st3" v:langID="1033"><v:paragraph v:horizAlign="1"/><v:tabList/>IDW parameters <v:lf/><tspan
						x="34.68" dy="1.2em" class="st5">&#38; CRS system</tspan></text>		</g>
		<g id="shape705-11" v:mID="705" v:groupContext="shape" v:layerMember="0" transform="translate(205.26,-228.335)">
			<title>Dynamic connector.705</title>
			<v:userDefs>
				<v:ud v:nameU="visVersion" v:val="VT0(15):26"/>
			</v:userDefs>
			<path d="M0 260.86 C-0 266.17 13.33 266.17 24.66 266.17 C41.6 266.17 54.06 266.17 66.51 266.17 C78.97 266.17 91.41 266.17
						 108.29 266.17 C117.66 266.17 128.39 266.17 131.88 271.49 L131.98 271.84" class="st6"/>
		</g>
		<g id="shape742-17" v:mID="742" v:groupContext="shape" transform="translate(142.898,-9.84707)">
			<title>Rounded Rectangle.742</title>
			<desc>End</desc>
			<v:userDefs>
				<v:ud v:nameU="CTypeTopLeftSnip" v:prompt="" v:val="VT0(0):5"/>
				<v:ud v:nameU="CTypeTopRightSnip" v:prompt="" v:val="VT0(0):5"/>
				<v:ud v:nameU="CTypeBotLeftSnip" v:prompt="" v:val="VT0(0):5"/>
				<v:ud v:nameU="CTypeBotRightSnip" v:prompt="" v:val="VT0(0):5"/>
				<v:ud v:nameU="CornerLockHoriz" v:prompt="" v:val="VT0(1):5"/>
				<v:ud v:nameU="CornerLockVert" v:prompt="" v:val="VT0(1):5"/>
				<v:ud v:nameU="CornerLockDiag" v:prompt="" v:val="VT0(0):5"/>
				<v:ud v:nameU="TopLeftOffset" v:prompt="" v:val="VT0(0.15748031496063):24"/>
				<v:ud v:nameU="TopRightOffset" v:prompt="" v:val="VT0(0.15748031496063):24"/>
				<v:ud v:nameU="BotLeftOffset" v:prompt="" v:val="VT0(0.15748031496063):24"/>
				<v:ud v:nameU="BotRightOffset" v:prompt="" v:val="VT0(0.15748031496063):24"/>
				<v:ud v:nameU="visVersion" v:prompt="" v:val="VT0(15):26"/>
			</v:userDefs>
			<v:textBlock v:margins="rect(4,4,4,4)" v:tabSpace="42.5197"/>
			<v:textRect cx="62.3622" cy="249.521" width="124.73" height="22.6772"/>
			<path d="M11.34 260.86 L113.39 260.86 A11.3384 11.3384 -180 0 0 124.72 249.52 A11.3384 11.3384 -180 0 0 113.39 238.18
						 L11.34 238.18 A11.3384 11.3384 -180 0 0 0 249.52 A11.3384 11.3384 -180 0 0 11.34 260.86 Z" class="st1"/>
			<text x="54.89" y="252.22" class="st3" v:langID="1033"><v:paragraph v:horizAlign="1"/><v:tabList/>End</text>		</g>
		<g id="shape945-21" v:mID="945" v:groupContext="shape" v:layerMember="0" transform="translate(338.312,-190.822)">
			<title>Dynamic connector.945</title>
			<v:userDefs>
				<v:ud v:nameU="visVersion" v:val="VT0(15):26"/>
			</v:userDefs>
			<path d="M0 260.86 C-0 342.98 -32.79 342.98 -55.86 342.98 C-79.62 342.98 -93.08 342.98 -112.34 342.98 C-119.11 342.98
						 -126.61 342.98 -130.48 344.81 L-130.69 345.1" class="st6"/>
		</g>
		<g id="shape996-26" v:mID="996" v:groupContext="shape" transform="translate(9.84707,-191.264)">
			<title>Rounded Rectangle.996</title>
			<desc>Agg.csv</desc>
			<v:userDefs>
				<v:ud v:nameU="CTypeTopLeftSnip" v:prompt="" v:val="VT0(0):5"/>
				<v:ud v:nameU="CTypeTopRightSnip" v:prompt="" v:val="VT0(0):5"/>
				<v:ud v:nameU="CTypeBotLeftSnip" v:prompt="" v:val="VT0(0):5"/>
				<v:ud v:nameU="CTypeBotRightSnip" v:prompt="" v:val="VT0(0):5"/>
				<v:ud v:nameU="CornerLockHoriz" v:prompt="" v:val="VT0(1):5"/>
				<v:ud v:nameU="CornerLockVert" v:prompt="" v:val="VT0(1):5"/>
				<v:ud v:nameU="CornerLockDiag" v:prompt="" v:val="VT0(0):5"/>
				<v:ud v:nameU="TopLeftOffset" v:prompt="" v:val="VT0(0.15748031496063):24"/>
				<v:ud v:nameU="TopRightOffset" v:prompt="" v:val="VT0(0.15748031496063):24"/>
				<v:ud v:nameU="BotLeftOffset" v:prompt="" v:val="VT0(0.15748031496063):24"/>
				<v:ud v:nameU="BotRightOffset" v:prompt="" v:val="VT0(0.15748031496063):24"/>
				<v:ud v:nameU="visVersion" v:prompt="" v:val="VT0(15):26"/>
			</v:userDefs>
			<v:textBlock v:margins="rect(4,4,4,4)" v:tabSpace="42.5197"/>
			<v:textRect cx="62.3622" cy="249.521" width="124.73" height="22.6772"/>
			<path d="M11.34 260.86 L113.39 260.86 A11.3384 11.3384 -180 0 0 124.72 249.52 A11.3384 11.3384 -180 0 0 113.39 238.18
						 L11.34 238.18 A11.3384 11.3384 -180 0 0 0 249.52 A11.3384 11.3384 -180 0 0 11.34 260.86 Z" class="st8"/>
			<text x="47.04" y="252.22" class="st3" v:langID="1033"><v:paragraph v:horizAlign="1"/><v:tabList/>Agg.csv</text>		</g>
		<g id="shape997-31" v:mID="997" v:groupContext="shape" v:layerMember="0" transform="translate(205.26,-228.335)">
			<title>Dynamic connector.997</title>
			<v:userDefs>
				<v:ud v:nameU="visVersion" v:val="VT0(15):26"/>
			</v:userDefs>
			<path d="M0 260.86 C-0 266.17 -13.33 266.17 -24.66 266.17 C-41.6 266.17 -54.06 266.17 -66.52 266.17 C-78.97 266.17 -91.42
						 266.17 -108.31 266.17 C-117.56 266.17 -128.16 266.17 -131.77 271.08 L-131.87 271.43" class="st6"/>
		</g>
		<g id="shape998-36" v:mID="998" v:groupContext="shape" v:layerMember="0" transform="translate(72.2093,-191.264)">
			<title>Dynamic connector.998</title>
			<v:userDefs>
				<v:ud v:nameU="visVersion" v:val="VT0(15):26"/>
			</v:userDefs>
			<path d="M0 260.86 C0 266.17 13.32 266.17 24.65 266.17 C41.58 266.17 54.04 266.17 66.48 266.17 C78.92 266.17 91.34 266.17
						 108.17 266.17 C117.96 266.17 129.23 266.17 132.23 273.57 L132.29 273.92" class="st6"/>
		</g>
		<g id="shape999-41" v:mID="999" v:groupContext="shape" transform="translate(142.898,-191.264)">
			<title>Rounded Rectangle.999</title>
			<desc>CNE_IDEAM_OE_ZE.shp</desc>
			<v:userDefs>
				<v:ud v:nameU="CTypeTopLeftSnip" v:prompt="" v:val="VT0(0):5"/>
				<v:ud v:nameU="CTypeTopRightSnip" v:prompt="" v:val="VT0(0):5"/>
				<v:ud v:nameU="CTypeBotLeftSnip" v:prompt="" v:val="VT0(0):5"/>
				<v:ud v:nameU="CTypeBotRightSnip" v:prompt="" v:val="VT0(0):5"/>
				<v:ud v:nameU="CornerLockHoriz" v:prompt="" v:val="VT0(1):5"/>
				<v:ud v:nameU="CornerLockVert" v:prompt="" v:val="VT0(1):5"/>
				<v:ud v:nameU="CornerLockDiag" v:prompt="" v:val="VT0(0):5"/>
				<v:ud v:nameU="TopLeftOffset" v:prompt="" v:val="VT0(0.15748031496063):24"/>
				<v:ud v:nameU="TopRightOffset" v:prompt="" v:val="VT0(0.15748031496063):24"/>
				<v:ud v:nameU="BotLeftOffset" v:prompt="" v:val="VT0(0.15748031496063):24"/>
				<v:ud v:nameU="BotRightOffset" v:prompt="" v:val="VT0(0.15748031496063):24"/>
				<v:ud v:nameU="visVersion" v:prompt="" v:val="VT0(15):26"/>
			</v:userDefs>
			<v:textBlock v:margins="rect(4,4,4,4)" v:tabSpace="42.5197"/>
			<v:textRect cx="62.3622" cy="249.521" width="124.73" height="22.6772"/>
			<path d="M11.34 260.86 L113.39 260.86 A11.3384 11.3384 -180 0 0 124.72 249.52 A11.3384 11.3384 -180 0 0 113.39 238.18
						 L11.34 238.18 A11.3384 11.3384 -180 0 0 0 249.52 A11.3384 11.3384 -180 0 0 11.34 260.86 Z" class="st10"/>
			<text x="17.4" y="252.22" class="st3" v:langID="1033"><v:paragraph v:horizAlign="1"/><v:tabList/>CNE_IDEAM_OE_ZE.shp</text>		</g>
		<g id="shape1000-46" v:mID="1000" v:groupContext="shape" v:layerMember="0" transform="translate(198.174,-228.335)">
			<title>Dynamic connector.1000</title>
			<v:userDefs>
				<v:ud v:nameU="visVersion" v:val="VT0(15):26"/>
			</v:userDefs>
			<path d="M7.09 260.86 C7.09 263.3 7.09 267.39 7.09 270.89" class="st12"/>
		</g>
		<g id="shape1001-52" v:mID="1001" v:groupContext="shape" transform="translate(142.838,-80.7132)">
			<title>Rounded Rectangle.1001</title>
			<desc>IDW interpolation composite, Ni単o, Ni単a, Neutral</desc>
			<v:userDefs>
				<v:ud v:nameU="CTypeTopLeftSnip" v:prompt="" v:val="VT0(0):5"/>
				<v:ud v:nameU="CTypeTopRightSnip" v:prompt="" v:val="VT0(0):5"/>
				<v:ud v:nameU="CTypeBotLeftSnip" v:prompt="" v:val="VT0(0):5"/>
				<v:ud v:nameU="CTypeBotRightSnip" v:prompt="" v:val="VT0(0):5"/>
				<v:ud v:nameU="CornerLockHoriz" v:prompt="" v:val="VT0(1):5"/>
				<v:ud v:nameU="CornerLockVert" v:prompt="" v:val="VT0(1):5"/>
				<v:ud v:nameU="CornerLockDiag" v:prompt="" v:val="VT0(0):5"/>
				<v:ud v:nameU="TopLeftOffset" v:prompt="" v:val="VT0(0.15748031496063):24"/>
				<v:ud v:nameU="TopRightOffset" v:prompt="" v:val="VT0(0.15748031496063):24"/>
				<v:ud v:nameU="BotLeftOffset" v:prompt="" v:val="VT0(0.15748031496063):24"/>
				<v:ud v:nameU="BotRightOffset" v:prompt="" v:val="VT0(0.15748031496063):24"/>
				<v:ud v:nameU="visVersion" v:prompt="" v:val="VT0(15):26"/>
				<v:ud v:nameU="TopLeftOffset" v:prompt="" v:val="VT0(0.15748031969087):1"/>
				<v:ud v:nameU="TopRightOffset" v:prompt="" v:val="VT0(0.15748031969087):1"/>
				<v:ud v:nameU="BotLeftOffset" v:prompt="" v:val="VT0(0.15748031969087):1"/>
				<v:ud v:nameU="BotRightOffset" v:prompt="" v:val="VT0(0.15748031969087):1"/>
			</v:userDefs>
			<v:textBlock v:margins="rect(4,4,4,4)" v:tabSpace="42.5197"/>
			<v:textRect cx="62.3622" cy="249.521" width="124.73" height="22.6772"/>
			<path d="M11.34 260.86 L113.39 260.86 A11.3384 11.3384 -180 0 0 124.72 249.52 A11.3384 11.3384 -180 0 0 113.39 238.18
						 L11.34 238.18 A11.3384 11.3384 -180 0 0 -0 249.52 A11.3384 11.3384 -180 0 0 11.34 260.86 Z" class="st13"/>
			<text x="4.08" y="246.82" class="st3" v:langID="1033"><v:paragraph v:horizAlign="1"/><v:tabList/>IDW interpolation composite, <tspan
						x="24.28" dy="1.2em" class="st5">Ni単o, Ni単a, Neutral</tspan></text>		</g>
		<g id="shape1006-58" v:mID="1006" v:groupContext="shape" v:layerMember="0" transform="translate(198.114,-116.855)">
			<title>Dynamic connector.1006</title>
			<v:userDefs>
				<v:ud v:nameU="visVersion" v:val="VT0(15):26"/>
			</v:userDefs>
			<path d="M7.09 261.57 C7.09 263.61 7.09 266.97 7.09 269.96" class="st12"/>
		</g>
		<g id="shape1007-63" v:mID="1007" v:groupContext="shape" transform="translate(142.898,-45.2801)">
			<title>Rounded Rectangle.1007</title>
			<desc>Compare range values</desc>
			<v:userDefs>
				<v:ud v:nameU="CTypeTopLeftSnip" v:prompt="" v:val="VT0(0):5"/>
				<v:ud v:nameU="CTypeTopRightSnip" v:prompt="" v:val="VT0(0):5"/>
				<v:ud v:nameU="CTypeBotLeftSnip" v:prompt="" v:val="VT0(0):5"/>
				<v:ud v:nameU="CTypeBotRightSnip" v:prompt="" v:val="VT0(0):5"/>
				<v:ud v:nameU="CornerLockHoriz" v:prompt="" v:val="VT0(1):5"/>
				<v:ud v:nameU="CornerLockVert" v:prompt="" v:val="VT0(1):5"/>
				<v:ud v:nameU="CornerLockDiag" v:prompt="" v:val="VT0(0):5"/>
				<v:ud v:nameU="TopLeftOffset" v:prompt="" v:val="VT0(0.15748031496063):24"/>
				<v:ud v:nameU="TopRightOffset" v:prompt="" v:val="VT0(0.15748031496063):24"/>
				<v:ud v:nameU="BotLeftOffset" v:prompt="" v:val="VT0(0.15748031496063):24"/>
				<v:ud v:nameU="BotRightOffset" v:prompt="" v:val="VT0(0.15748031496063):24"/>
				<v:ud v:nameU="visVersion" v:prompt="" v:val="VT0(15):26"/>
				<v:ud v:nameU="TopLeftOffset" v:prompt="" v:val="VT0(0.15748031969087):1"/>
				<v:ud v:nameU="TopRightOffset" v:prompt="" v:val="VT0(0.15748031969087):1"/>
				<v:ud v:nameU="BotLeftOffset" v:prompt="" v:val="VT0(0.15748031969087):1"/>
				<v:ud v:nameU="BotRightOffset" v:prompt="" v:val="VT0(0.15748031969087):1"/>
			</v:userDefs>
			<v:textBlock v:margins="rect(4,4,4,4)" v:tabSpace="42.5197"/>
			<v:textRect cx="62.3622" cy="249.521" width="124.73" height="22.6772"/>
			<path d="M11.34 260.86 L113.39 260.86 A11.3384 11.3384 -180 0 0 124.72 249.52 A11.3384 11.3384 -180 0 0 113.39 238.18
						 L11.34 238.18 A11.3384 11.3384 -180 0 0 -0 249.52 A11.3384 11.3384 -180 0 0 11.34 260.86 Z" class="st4"/>
			<text x="18" y="252.22" class="st3" v:langID="1033"><v:paragraph v:horizAlign="1"/><v:tabList/>Compare range values</text>		</g>
		<g id="shape1008-67" v:mID="1008" v:groupContext="shape" v:layerMember="0" transform="translate(198.144,-81.4219)">
			<title>Dynamic connector.1008</title>
			<v:userDefs>
				<v:ud v:nameU="visVersion" v:val="VT0(15):26"/>
			</v:userDefs>
			<path d="M7.06 261.57 C7.06 264.23 7.06 265.11 7.06 265.83 C7.06 266.19 7.06 266.5 7.06 266.68 C7.07 266.88 7.09 266.88
						 7.1 267.07 C7.12 267.3 7.12 267.78 7.12 268.31 C7.12 268.76 7.12 269.25 7.12 269.96" class="st12"/>
		</g>
		<g id="shape1015-72" v:mID="1015" v:groupContext="shape" transform="translate(9.84707,-151.579)">
			<title>Rounded Rectangle.1015</title>
			<desc>Field statistics</desc>
			<v:userDefs>
				<v:ud v:nameU="CTypeTopLeftSnip" v:prompt="" v:val="VT0(0):5"/>
				<v:ud v:nameU="CTypeTopRightSnip" v:prompt="" v:val="VT0(0):5"/>
				<v:ud v:nameU="CTypeBotLeftSnip" v:prompt="" v:val="VT0(0):5"/>
				<v:ud v:nameU="CTypeBotRightSnip" v:prompt="" v:val="VT0(0):5"/>
				<v:ud v:nameU="CornerLockHoriz" v:prompt="" v:val="VT0(1):5"/>
				<v:ud v:nameU="CornerLockVert" v:prompt="" v:val="VT0(1):5"/>
				<v:ud v:nameU="CornerLockDiag" v:prompt="" v:val="VT0(0):5"/>
				<v:ud v:nameU="TopLeftOffset" v:prompt="" v:val="VT0(0.15748031496063):24"/>
				<v:ud v:nameU="TopRightOffset" v:prompt="" v:val="VT0(0.15748031496063):24"/>
				<v:ud v:nameU="BotLeftOffset" v:prompt="" v:val="VT0(0.15748031496063):24"/>
				<v:ud v:nameU="BotRightOffset" v:prompt="" v:val="VT0(0.15748031496063):24"/>
				<v:ud v:nameU="visVersion" v:prompt="" v:val="VT0(15):26"/>
				<v:ud v:nameU="TopLeftOffset" v:prompt="" v:val="VT0(0.15748031969087):1"/>
				<v:ud v:nameU="TopRightOffset" v:prompt="" v:val="VT0(0.15748031969087):1"/>
				<v:ud v:nameU="BotLeftOffset" v:prompt="" v:val="VT0(0.15748031969087):1"/>
				<v:ud v:nameU="BotRightOffset" v:prompt="" v:val="VT0(0.15748031969087):1"/>
			</v:userDefs>
			<v:textBlock v:margins="rect(4,4,4,4)" v:tabSpace="42.5197"/>
			<v:textRect cx="62.3622" cy="249.521" width="124.73" height="22.6772"/>
			<path d="M11.34 260.86 L113.39 260.86 A11.3384 11.3384 -180 0 0 124.72 249.52 A11.3384 11.3384 -180 0 0 113.39 238.18
						 L11.34 238.18 A11.3384 11.3384 -180 0 0 -0 249.52 A11.3384 11.3384 -180 0 0 11.34 260.86 Z" class="st13"/>
			<text x="34.9" y="252.22" class="st3" v:langID="1033"><v:paragraph v:horizAlign="1"/><v:tabList/>Field statistics</text>		</g>
		<g id="shape1016-76" v:mID="1016" v:groupContext="shape" v:layerMember="0" transform="translate(72.2093,-151.579)">
			<title>Dynamic connector.1016</title>
			<v:userDefs>
				<v:ud v:nameU="visVersion" v:val="VT0(15):26"/>
			</v:userDefs>
			<path d="M0 260.86 C-0 339.17 32.47 339.17 55.39 339.17 C79.44 339.17 92.99 339.17 112.27 339.17 C119.05 339.17 126.55
						 339.17 130.42 341 L130.63 341.29" class="st6"/>
		</g>
		<g id="shape1028-81" v:mID="1028" v:groupContext="shape" v:layerMember="0" transform="translate(198.174,-45.9888)">
			<title>Dynamic connector.1028</title>
			<v:userDefs>
				<v:ud v:nameU="visVersion" v:val="VT0(15):26"/>
			</v:userDefs>
			<path d="M7.09 261.57 C7.09 263.61 7.09 266.97 7.09 269.96" class="st12"/>
		</g>
		<g id="shape1030-86" v:mID="1030" v:groupContext="shape" transform="translate(142.838,-151.579)">
			<title>Rounded Rectangle.1030</title>
			<desc>Join</desc>
			<v:userDefs>
				<v:ud v:nameU="CTypeTopLeftSnip" v:prompt="" v:val="VT0(0):5"/>
				<v:ud v:nameU="CTypeTopRightSnip" v:prompt="" v:val="VT0(0):5"/>
				<v:ud v:nameU="CTypeBotLeftSnip" v:prompt="" v:val="VT0(0):5"/>
				<v:ud v:nameU="CTypeBotRightSnip" v:prompt="" v:val="VT0(0):5"/>
				<v:ud v:nameU="CornerLockHoriz" v:prompt="" v:val="VT0(1):5"/>
				<v:ud v:nameU="CornerLockVert" v:prompt="" v:val="VT0(1):5"/>
				<v:ud v:nameU="CornerLockDiag" v:prompt="" v:val="VT0(0):5"/>
				<v:ud v:nameU="TopLeftOffset" v:prompt="" v:val="VT0(0.15748031496063):24"/>
				<v:ud v:nameU="TopRightOffset" v:prompt="" v:val="VT0(0.15748031496063):24"/>
				<v:ud v:nameU="BotLeftOffset" v:prompt="" v:val="VT0(0.15748031496063):24"/>
				<v:ud v:nameU="BotRightOffset" v:prompt="" v:val="VT0(0.15748031496063):24"/>
				<v:ud v:nameU="visVersion" v:prompt="" v:val="VT0(15):26"/>
				<v:ud v:nameU="TopLeftOffset" v:prompt="" v:val="VT0(0.15748031969087):1"/>
				<v:ud v:nameU="TopRightOffset" v:prompt="" v:val="VT0(0.15748031969087):1"/>
				<v:ud v:nameU="BotLeftOffset" v:prompt="" v:val="VT0(0.15748031969087):1"/>
				<v:ud v:nameU="BotRightOffset" v:prompt="" v:val="VT0(0.15748031969087):1"/>
			</v:userDefs>
			<v:textBlock v:margins="rect(4,4,4,4)" v:tabSpace="42.5197"/>
			<v:textRect cx="62.3622" cy="249.521" width="124.73" height="22.6772"/>
			<path d="M11.34 260.86 L113.39 260.86 A11.3384 11.3384 -180 0 0 124.72 249.52 A11.3384 11.3384 -180 0 0 113.39 238.18
						 L11.34 238.18 A11.3384 11.3384 -180 0 0 -0 249.52 A11.3384 11.3384 -180 0 0 11.34 260.86 Z" class="st13"/>
			<text x="54.48" y="252.22" class="st3" v:langID="1033"><v:paragraph v:horizAlign="1"/><v:tabList/>Join</text>		</g>
		<g id="shape1031-90" v:mID="1031" v:groupContext="shape" v:layerMember="0" transform="translate(212.317,-191.264)">
			<title>Dynamic connector.1031</title>
			<v:userDefs>
				<v:ud v:nameU="visVersion" v:val="VT0(15):26"/>
			</v:userDefs>
			<path d="M-7.06 260.86 C-7.06 263.52 -7.06 264.4 -7.06 265.08 C-7.06 265.42 -7.06 265.71 -7.06 265.89 C-7.07 266.17 -7.09
						 266.17 -7.1 266.41 C-7.12 266.75 -7.12 267.53 -7.12 268.38 C-7.12 269.56 -7.12 270.86 -7.12 273.5"
					class="st12"/>
		</g>
		<g id="shape1032-95" v:mID="1032" v:groupContext="shape" transform="translate(142.838,-116.146)">
			<title>Rounded Rectangle.1032</title>
			<desc>Filter stations with rain values</desc>
			<v:userDefs>
				<v:ud v:nameU="CTypeTopLeftSnip" v:prompt="" v:val="VT0(0):5"/>
				<v:ud v:nameU="CTypeTopRightSnip" v:prompt="" v:val="VT0(0):5"/>
				<v:ud v:nameU="CTypeBotLeftSnip" v:prompt="" v:val="VT0(0):5"/>
				<v:ud v:nameU="CTypeBotRightSnip" v:prompt="" v:val="VT0(0):5"/>
				<v:ud v:nameU="CornerLockHoriz" v:prompt="" v:val="VT0(1):5"/>
				<v:ud v:nameU="CornerLockVert" v:prompt="" v:val="VT0(1):5"/>
				<v:ud v:nameU="CornerLockDiag" v:prompt="" v:val="VT0(0):5"/>
				<v:ud v:nameU="TopLeftOffset" v:prompt="" v:val="VT0(0.15748031496063):24"/>
				<v:ud v:nameU="TopRightOffset" v:prompt="" v:val="VT0(0.15748031496063):24"/>
				<v:ud v:nameU="BotLeftOffset" v:prompt="" v:val="VT0(0.15748031496063):24"/>
				<v:ud v:nameU="BotRightOffset" v:prompt="" v:val="VT0(0.15748031496063):24"/>
				<v:ud v:nameU="visVersion" v:prompt="" v:val="VT0(15):26"/>
				<v:ud v:nameU="TopLeftOffset" v:prompt="" v:val="VT0(0.15748031969087):1"/>
				<v:ud v:nameU="TopRightOffset" v:prompt="" v:val="VT0(0.15748031969087):1"/>
				<v:ud v:nameU="BotLeftOffset" v:prompt="" v:val="VT0(0.15748031969087):1"/>
				<v:ud v:nameU="BotRightOffset" v:prompt="" v:val="VT0(0.15748031969087):1"/>
			</v:userDefs>
			<v:textBlock v:margins="rect(4,4,4,4)" v:tabSpace="42.5197"/>
			<v:textRect cx="62.3622" cy="249.521" width="124.73" height="22.6772"/>
			<path d="M11.34 260.86 L113.39 260.86 A11.3384 11.3384 -180 0 0 124.72 249.52 A11.3384 11.3384 -180 0 0 113.39 238.18
						 L11.34 238.18 A11.3384 11.3384 -180 0 0 -0 249.52 A11.3384 11.3384 -180 0 0 11.34 260.86 Z" class="st13"/>
			<text x="17.51" y="246.82" class="st3" v:langID="1033"><v:paragraph v:horizAlign="1"/><v:tabList/>Filter stations with rain <tspan
						x="50.02" dy="1.2em" class="st5">values</tspan></text>		</g>
		<g id="shape1033-100" v:mID="1033" v:groupContext="shape" v:layerMember="0" transform="translate(198.114,-152.288)">
			<title>Dynamic connector.1033</title>
			<v:userDefs>
				<v:ud v:nameU="visVersion" v:val="VT0(15):26"/>
			</v:userDefs>
			<path d="M7.09 261.57 C7.09 263.61 7.09 266.97 7.09 269.96" class="st12"/>
		</g>
		<g id="shape1034-105" v:mID="1034" v:groupContext="shape" v:layerMember="0" transform="translate(65.1227,-191.264)">
			<title>Dynamic connector.1034</title>
			<v:userDefs>
				<v:ud v:nameU="visVersion" v:val="VT0(15):26"/>
			</v:userDefs>
			<path d="M7.09 260.86 C7.09 263.93 7.09 269.2 7.09 273.5" class="st12"/>
		</g>
	</g>
</svg>
