<?xml version="1.0" encoding="UTF-8" standalone="no"?>
<!DOCTYPE svg PUBLIC "-//W3C//DTD SVG 1.1//EN" "http://www.w3.org/Graphics/SVG/1.1/DTD/svg11.dtd">
<!-- Generated by Microsoft Visio, SVG Export FillDEMFlowchart.svg Page-1 -->
<svg xmlns="http://www.w3.org/2000/svg" xmlns:xlink="http://www.w3.org/1999/xlink" xmlns:ev="http://www.w3.org/2001/xml-events"
		xmlns:v="http://schemas.microsoft.com/visio/2003/SVGExtensions/" width="5.93118in" height="3.5068in"
		viewBox="0 0 427.045 252.489" xml:space="preserve" color-interpolation-filters="sRGB" class="st13">
	<v:documentProperties v:langID="1033" v:metric="true" v:viewMarkup="false"/>

	<style type="text/css">
	<![CDATA[
		.st1 {fill:#f2f2f2;stroke:#3ea853;stroke-width:1.5}
		.st2 {fill:#3ea853;fill-opacity:1;stroke:#3ea853;stroke-opacity:1;stroke-width:0.37313432835821}
		.st3 {fill:#000000;font-family:Segoe UI;font-size:0.75em}
		.st4 {fill:#f2f2f2;stroke:#ea4d35;stroke-width:1.5}
		.st5 {fill:#ea4d35;fill-opacity:1;stroke:#ea4d35;stroke-opacity:1;stroke-width:0.37313432835821}
		.st6 {marker-end:url(#mrkr6-40);stroke:#7f7f7f;stroke-linecap:round;stroke-linejoin:round;stroke-width:0.5}
		.st7 {fill:#7f7f7f;fill-opacity:1;stroke:#7f7f7f;stroke-opacity:1;stroke-width:0.25773195876289}
		.st8 {marker-end:url(#mrkr6-51);stroke:#7f7f7f;stroke-linecap:round;stroke-linejoin:round;stroke-width:0.5}
		.st9 {marker-end:url(#mrkr6-40);stroke:#7f7f7f;stroke-dasharray:3.5,2.5;stroke-linecap:round;stroke-linejoin:round;stroke-width:0.5}
		.st10 {marker-end:url(#mrkr6-51);stroke:#7f7f7f;stroke-dasharray:3.5,2.5;stroke-linecap:round;stroke-linejoin:round;stroke-width:0.5}
		.st11 {fill:#f2f2f2;stroke:#fbbc0e;stroke-width:1.5}
		.st12 {fill:#fbbc0e;fill-opacity:1;stroke:#fbbc0e;stroke-opacity:1;stroke-width:0.37313432835821}
		.st13 {fill:none;fill-rule:evenodd;font-size:12px;overflow:visible;stroke-linecap:square;stroke-miterlimit:3}
	]]>
	</style>

	<defs id="Markers">
		<g id="lend6">
			<path d="M 2 1 L 0 0 L 2.01237 -1.00641 C 2.32921 -0.372876 2.32921 0.372869 2.01238 1.0064 " style="stroke:none"/>
		</g>
		<marker id="mrkr6-4" class="st2" v:arrowType="6" v:arrowSize="2" v:setback="6.03" refX="6.03" orient="auto"
				markerUnits="strokeWidth" overflow="visible">
			<use xlink:href="#lend6" transform="scale(2.68) "/>
		</marker>
		<marker id="mrkr6-17" class="st5" v:arrowType="6" v:arrowSize="2" v:setback="6.03" refX="6.03" orient="auto"
				markerUnits="strokeWidth" overflow="visible">
			<use xlink:href="#lend6" transform="scale(2.68) "/>
		</marker>
		<marker id="mrkr6-40" class="st7" v:arrowType="6" v:arrowSize="0" v:setback="8.01" refX="-8.01" orient="auto"
				markerUnits="strokeWidth" overflow="visible">
			<use xlink:href="#lend6" transform="scale(-3.88,-3.88) "/>
		</marker>
		<marker id="mrkr6-51" class="st7" v:arrowType="6" v:arrowSize="0" v:setback="8.73" refX="-8.73" orient="auto"
				markerUnits="strokeWidth" overflow="visible">
			<use xlink:href="#lend6" transform="scale(-3.88,-3.88) "/>
		</marker>
		<marker id="mrkr6-89" class="st12" v:arrowType="6" v:arrowSize="2" v:setback="6.03" refX="6.03" orient="auto"
				markerUnits="strokeWidth" overflow="visible">
			<use xlink:href="#lend6" transform="scale(2.68) "/>
		</marker>
	</defs>
	<g v:mID="0" v:index="1" v:groupContext="foregroundPage">
		<title>Page-1</title>
		<v:pageProperties v:drawingScale="0.0393701" v:pageScale="0.0393701" v:drawingUnits="24" v:shadowOffsetX="8.50394"
				v:shadowOffsetY="-8.50394"/>
		<v:layer v:name="Connector" v:index="0"/>
		<g id="shape216-1" v:mID="216" v:groupContext="shape" transform="translate(25.6299,-219.965)">
			<title>Rounded Rectangle.216</title>
			<desc>ASTER AgreeDEM</desc>
			<v:userDefs>
				<v:ud v:nameU="CTypeTopLeftSnip" v:prompt="" v:val="VT0(0):5"/>
				<v:ud v:nameU="CTypeTopRightSnip" v:prompt="" v:val="VT0(0):5"/>
				<v:ud v:nameU="CTypeBotLeftSnip" v:prompt="" v:val="VT0(0):5"/>
				<v:ud v:nameU="CTypeBotRightSnip" v:prompt="" v:val="VT0(0):5"/>
				<v:ud v:nameU="CornerLockHoriz" v:prompt="" v:val="VT0(1):5"/>
				<v:ud v:nameU="CornerLockVert" v:prompt="" v:val="VT0(1):5"/>
				<v:ud v:nameU="CornerLockDiag" v:prompt="" v:val="VT0(0):5"/>
				<v:ud v:nameU="TopLeftOffset" v:prompt="" v:val="VT0(0.15748031496063):24"/>
				<v:ud v:nameU="TopRightOffset" v:prompt="" v:val="VT0(0.15748031496063):24"/>
				<v:ud v:nameU="BotLeftOffset" v:prompt="" v:val="VT0(0.15748031496063):24"/>
				<v:ud v:nameU="BotRightOffset" v:prompt="" v:val="VT0(0.15748031496063):24"/>
				<v:ud v:nameU="visVersion" v:prompt="" v:val="VT0(15):26"/>
			</v:userDefs>
			<v:textBlock v:margins="rect(4,4,4,4)" v:tabSpace="42.5197"/>
			<v:textRect cx="62.3622" cy="241.151" width="124.73" height="22.6772"/>
			<path d="M11.34 252.49 L113.39 252.49 A11.3384 11.3384 -180 0 0 124.72 241.15 A11.3384 11.3384 -180 0 0 113.39 229.81
						 L11.34 229.81 A11.3384 11.3384 -180 0 0 0 241.15 A11.3384 11.3384 -180 0 0 11.34 252.49 Z" class="st1"/>
			<text x="27.21" y="243.85" class="st3" v:langID="1033"><v:paragraph v:horizAlign="1"/><v:tabList/>ASTER AgreeDEM</text>		</g>
		<g id="shape217-6" v:mID="217" v:groupContext="shape" transform="translate(158.858,-219.965)">
			<title>Rounded Rectangle.217</title>
			<desc>SRTM AgreeDEM</desc>
			<v:userDefs>
				<v:ud v:nameU="CTypeTopLeftSnip" v:prompt="" v:val="VT0(0):5"/>
				<v:ud v:nameU="CTypeTopRightSnip" v:prompt="" v:val="VT0(0):5"/>
				<v:ud v:nameU="CTypeBotLeftSnip" v:prompt="" v:val="VT0(0):5"/>
				<v:ud v:nameU="CTypeBotRightSnip" v:prompt="" v:val="VT0(0):5"/>
				<v:ud v:nameU="CornerLockHoriz" v:prompt="" v:val="VT0(1):5"/>
				<v:ud v:nameU="CornerLockVert" v:prompt="" v:val="VT0(1):5"/>
				<v:ud v:nameU="CornerLockDiag" v:prompt="" v:val="VT0(0):5"/>
				<v:ud v:nameU="TopLeftOffset" v:prompt="" v:val="VT0(0.15748031496063):24"/>
				<v:ud v:nameU="TopRightOffset" v:prompt="" v:val="VT0(0.15748031496063):24"/>
				<v:ud v:nameU="BotLeftOffset" v:prompt="" v:val="VT0(0.15748031496063):24"/>
				<v:ud v:nameU="BotRightOffset" v:prompt="" v:val="VT0(0.15748031496063):24"/>
				<v:ud v:nameU="visVersion" v:prompt="" v:val="VT0(15):26"/>
			</v:userDefs>
			<v:textBlock v:margins="rect(4,4,4,4)" v:tabSpace="42.5197"/>
			<v:textRect cx="62.3622" cy="241.151" width="124.73" height="22.6772"/>
			<path d="M11.34 252.49 L113.39 252.49 A11.3384 11.3384 -180 0 0 124.72 241.15 A11.3384 11.3384 -180 0 0 113.39 229.81
						 L11.34 229.81 A11.3384 11.3384 -180 0 0 0 241.15 A11.3384 11.3384 -180 0 0 11.34 252.49 Z" class="st1"/>
			<text x="28.35" y="243.85" class="st3" v:langID="1033"><v:paragraph v:horizAlign="1"/><v:tabList/>SRTM AgreeDEM</text>		</g>
		<g id="shape218-10" v:mID="218" v:groupContext="shape" transform="translate(292.087,-219.965)">
			<title>Rounded Rectangle.218</title>
			<desc>ALOS AgreeDEM</desc>
			<v:userDefs>
				<v:ud v:nameU="CTypeTopLeftSnip" v:prompt="" v:val="VT0(0):5"/>
				<v:ud v:nameU="CTypeTopRightSnip" v:prompt="" v:val="VT0(0):5"/>
				<v:ud v:nameU="CTypeBotLeftSnip" v:prompt="" v:val="VT0(0):5"/>
				<v:ud v:nameU="CTypeBotRightSnip" v:prompt="" v:val="VT0(0):5"/>
				<v:ud v:nameU="CornerLockHoriz" v:prompt="" v:val="VT0(1):5"/>
				<v:ud v:nameU="CornerLockVert" v:prompt="" v:val="VT0(1):5"/>
				<v:ud v:nameU="CornerLockDiag" v:prompt="" v:val="VT0(0):5"/>
				<v:ud v:nameU="TopLeftOffset" v:prompt="" v:val="VT0(0.15748031496063):24"/>
				<v:ud v:nameU="TopRightOffset" v:prompt="" v:val="VT0(0.15748031496063):24"/>
				<v:ud v:nameU="BotLeftOffset" v:prompt="" v:val="VT0(0.15748031496063):24"/>
				<v:ud v:nameU="BotRightOffset" v:prompt="" v:val="VT0(0.15748031496063):24"/>
				<v:ud v:nameU="visVersion" v:prompt="" v:val="VT0(15):26"/>
			</v:userDefs>
			<v:textBlock v:margins="rect(4,4,4,4)" v:tabSpace="42.5197"/>
			<v:textRect cx="62.3622" cy="241.151" width="124.73" height="22.6772"/>
			<path d="M11.34 252.49 L113.39 252.49 A11.3384 11.3384 -180 0 0 124.72 241.15 A11.3384 11.3384 -180 0 0 113.39 229.81
						 L11.34 229.81 A11.3384 11.3384 -180 0 0 0 241.15 A11.3384 11.3384 -180 0 0 11.34 252.49 Z" class="st1"/>
			<text x="29.03" y="243.85" class="st3" v:langID="1033"><v:paragraph v:horizAlign="1"/><v:tabList/>ALOS AgreeDEM</text>		</g>
		<g id="shape219-14" v:mID="219" v:groupContext="shape" transform="translate(158.858,-168.41)">
			<title>Rounded Rectangle.219</title>
			<desc>Fill DEM</desc>
			<v:userDefs>
				<v:ud v:nameU="CTypeTopLeftSnip" v:prompt="" v:val="VT0(0):5"/>
				<v:ud v:nameU="CTypeTopRightSnip" v:prompt="" v:val="VT0(0):5"/>
				<v:ud v:nameU="CTypeBotLeftSnip" v:prompt="" v:val="VT0(0):5"/>
				<v:ud v:nameU="CTypeBotRightSnip" v:prompt="" v:val="VT0(0):5"/>
				<v:ud v:nameU="CornerLockHoriz" v:prompt="" v:val="VT0(1):5"/>
				<v:ud v:nameU="CornerLockVert" v:prompt="" v:val="VT0(1):5"/>
				<v:ud v:nameU="CornerLockDiag" v:prompt="" v:val="VT0(0):5"/>
				<v:ud v:nameU="TopLeftOffset" v:prompt="" v:val="VT0(0.15748031496063):24"/>
				<v:ud v:nameU="TopRightOffset" v:prompt="" v:val="VT0(0.15748031496063):24"/>
				<v:ud v:nameU="BotLeftOffset" v:prompt="" v:val="VT0(0.15748031496063):24"/>
				<v:ud v:nameU="BotRightOffset" v:prompt="" v:val="VT0(0.15748031496063):24"/>
				<v:ud v:nameU="visVersion" v:prompt="" v:val="VT0(15):26"/>
			</v:userDefs>
			<v:textBlock v:margins="rect(4,4,4,4)" v:tabSpace="42.5197"/>
			<v:textRect cx="62.3622" cy="241.151" width="124.73" height="22.6772"/>
			<path d="M11.34 252.49 L113.39 252.49 A11.3384 11.3384 -180 0 0 124.72 241.15 A11.3384 11.3384 -180 0 0 113.39 229.81
						 L11.34 229.81 A11.3384 11.3384 -180 0 0 0 241.15 A11.3384 11.3384 -180 0 0 11.34 252.49 Z" class="st4"/>
			<text x="46.19" y="243.85" class="st3" v:langID="1033"><v:paragraph v:horizAlign="1"/><v:tabList/>Fill DEM</text>		</g>
		<g id="shape220-19" v:mID="220" v:groupContext="shape" transform="translate(25.6299,-122.17)">
			<title>Rounded Rectangle.220</title>
			<desc>ASTER Fill DEM</desc>
			<v:userDefs>
				<v:ud v:nameU="CTypeTopLeftSnip" v:prompt="" v:val="VT0(0):5"/>
				<v:ud v:nameU="CTypeTopRightSnip" v:prompt="" v:val="VT0(0):5"/>
				<v:ud v:nameU="CTypeBotLeftSnip" v:prompt="" v:val="VT0(0):5"/>
				<v:ud v:nameU="CTypeBotRightSnip" v:prompt="" v:val="VT0(0):5"/>
				<v:ud v:nameU="CornerLockHoriz" v:prompt="" v:val="VT0(1):5"/>
				<v:ud v:nameU="CornerLockVert" v:prompt="" v:val="VT0(1):5"/>
				<v:ud v:nameU="CornerLockDiag" v:prompt="" v:val="VT0(0):5"/>
				<v:ud v:nameU="TopLeftOffset" v:prompt="" v:val="VT0(0.15748031496063):24"/>
				<v:ud v:nameU="TopRightOffset" v:prompt="" v:val="VT0(0.15748031496063):24"/>
				<v:ud v:nameU="BotLeftOffset" v:prompt="" v:val="VT0(0.15748031496063):24"/>
				<v:ud v:nameU="BotRightOffset" v:prompt="" v:val="VT0(0.15748031496063):24"/>
				<v:ud v:nameU="visVersion" v:prompt="" v:val="VT0(15):26"/>
			</v:userDefs>
			<v:textBlock v:margins="rect(4,4,4,4)" v:tabSpace="42.5197"/>
			<v:textRect cx="62.3622" cy="241.151" width="124.73" height="22.6772"/>
			<path d="M11.34 252.49 L113.39 252.49 A11.3384 11.3384 -180 0 0 124.72 241.15 A11.3384 11.3384 -180 0 0 113.39 229.81
						 L11.34 229.81 A11.3384 11.3384 -180 0 0 0 241.15 A11.3384 11.3384 -180 0 0 11.34 252.49 Z" class="st1"/>
			<text x="32.34" y="243.85" class="st3" v:langID="1033"><v:paragraph v:horizAlign="1"/><v:tabList/>ASTER Fill DEM</text>		</g>
		<g id="shape221-23" v:mID="221" v:groupContext="shape" transform="translate(158.858,-122.17)">
			<title>Rounded Rectangle.221</title>
			<desc>SRTM Fill DEM</desc>
			<v:userDefs>
				<v:ud v:nameU="CTypeTopLeftSnip" v:prompt="" v:val="VT0(0):5"/>
				<v:ud v:nameU="CTypeTopRightSnip" v:prompt="" v:val="VT0(0):5"/>
				<v:ud v:nameU="CTypeBotLeftSnip" v:prompt="" v:val="VT0(0):5"/>
				<v:ud v:nameU="CTypeBotRightSnip" v:prompt="" v:val="VT0(0):5"/>
				<v:ud v:nameU="CornerLockHoriz" v:prompt="" v:val="VT0(1):5"/>
				<v:ud v:nameU="CornerLockVert" v:prompt="" v:val="VT0(1):5"/>
				<v:ud v:nameU="CornerLockDiag" v:prompt="" v:val="VT0(0):5"/>
				<v:ud v:nameU="TopLeftOffset" v:prompt="" v:val="VT0(0.15748031496063):24"/>
				<v:ud v:nameU="TopRightOffset" v:prompt="" v:val="VT0(0.15748031496063):24"/>
				<v:ud v:nameU="BotLeftOffset" v:prompt="" v:val="VT0(0.15748031496063):24"/>
				<v:ud v:nameU="BotRightOffset" v:prompt="" v:val="VT0(0.15748031496063):24"/>
				<v:ud v:nameU="visVersion" v:prompt="" v:val="VT0(15):26"/>
			</v:userDefs>
			<v:textBlock v:margins="rect(4,4,4,4)" v:tabSpace="42.5197"/>
			<v:textRect cx="62.3622" cy="241.151" width="124.73" height="22.6772"/>
			<path d="M11.34 252.49 L113.39 252.49 A11.3384 11.3384 -180 0 0 124.72 241.15 A11.3384 11.3384 -180 0 0 113.39 229.81
						 L11.34 229.81 A11.3384 11.3384 -180 0 0 0 241.15 A11.3384 11.3384 -180 0 0 11.34 252.49 Z" class="st1"/>
			<text x="33.48" y="243.85" class="st3" v:langID="1033"><v:paragraph v:horizAlign="1"/><v:tabList/>SRTM Fill DEM</text>		</g>
		<g id="shape222-27" v:mID="222" v:groupContext="shape" transform="translate(292.473,-122.17)">
			<title>Rounded Rectangle.222</title>
			<desc>ALOS Fill DEM</desc>
			<v:userDefs>
				<v:ud v:nameU="CTypeTopLeftSnip" v:prompt="" v:val="VT0(0):5"/>
				<v:ud v:nameU="CTypeTopRightSnip" v:prompt="" v:val="VT0(0):5"/>
				<v:ud v:nameU="CTypeBotLeftSnip" v:prompt="" v:val="VT0(0):5"/>
				<v:ud v:nameU="CTypeBotRightSnip" v:prompt="" v:val="VT0(0):5"/>
				<v:ud v:nameU="CornerLockHoriz" v:prompt="" v:val="VT0(1):5"/>
				<v:ud v:nameU="CornerLockVert" v:prompt="" v:val="VT0(1):5"/>
				<v:ud v:nameU="CornerLockDiag" v:prompt="" v:val="VT0(0):5"/>
				<v:ud v:nameU="TopLeftOffset" v:prompt="" v:val="VT0(0.15748031496063):24"/>
				<v:ud v:nameU="TopRightOffset" v:prompt="" v:val="VT0(0.15748031496063):24"/>
				<v:ud v:nameU="BotLeftOffset" v:prompt="" v:val="VT0(0.15748031496063):24"/>
				<v:ud v:nameU="BotRightOffset" v:prompt="" v:val="VT0(0.15748031496063):24"/>
				<v:ud v:nameU="visVersion" v:prompt="" v:val="VT0(15):26"/>
			</v:userDefs>
			<v:textBlock v:margins="rect(4,4,4,4)" v:tabSpace="42.5197"/>
			<v:textRect cx="62.3622" cy="241.151" width="124.73" height="22.6772"/>
			<path d="M11.34 252.49 L113.39 252.49 A11.3384 11.3384 -180 0 0 124.72 241.15 A11.3384 11.3384 -180 0 0 113.39 229.81
						 L11.34 229.81 A11.3384 11.3384 -180 0 0 0 241.15 A11.3384 11.3384 -180 0 0 11.34 252.49 Z" class="st1"/>
			<text x="34.15" y="243.85" class="st3" v:langID="1033"><v:paragraph v:horizAlign="1"/><v:tabList/>ALOS Fill DEM</text>		</g>
		<g id="shape223-31" v:mID="223" v:groupContext="shape" transform="translate(25.63,-82.1305)">
			<title>Rounded Rectangle.223</title>
			<desc>Raster calculator: DEM – Fill</desc>
			<v:userDefs>
				<v:ud v:nameU="CTypeTopLeftSnip" v:prompt="" v:val="VT0(0):5"/>
				<v:ud v:nameU="CTypeTopRightSnip" v:prompt="" v:val="VT0(0):5"/>
				<v:ud v:nameU="CTypeBotLeftSnip" v:prompt="" v:val="VT0(0):5"/>
				<v:ud v:nameU="CTypeBotRightSnip" v:prompt="" v:val="VT0(0):5"/>
				<v:ud v:nameU="CornerLockHoriz" v:prompt="" v:val="VT0(1):5"/>
				<v:ud v:nameU="CornerLockVert" v:prompt="" v:val="VT0(1):5"/>
				<v:ud v:nameU="CornerLockDiag" v:prompt="" v:val="VT0(0):5"/>
				<v:ud v:nameU="TopLeftOffset" v:prompt="" v:val="VT0(0.15748031496063):24"/>
				<v:ud v:nameU="TopRightOffset" v:prompt="" v:val="VT0(0.15748031496063):24"/>
				<v:ud v:nameU="BotLeftOffset" v:prompt="" v:val="VT0(0.15748031496063):24"/>
				<v:ud v:nameU="BotRightOffset" v:prompt="" v:val="VT0(0.15748031496063):24"/>
				<v:ud v:nameU="visVersion" v:prompt="" v:val="VT0(15):26"/>
			</v:userDefs>
			<v:textBlock v:margins="rect(4,4,4,4)" v:tabSpace="42.5197"/>
			<v:textRect cx="62.3622" cy="241.151" width="124.73" height="22.6772"/>
			<path d="M11.34 252.49 L113.39 252.49 A11.3384 11.3384 -180 0 0 124.72 241.15 A11.3384 11.3384 -180 0 0 113.39 229.81
						 L11.34 229.81 A11.3384 11.3384 -180 0 0 0 241.15 A11.3384 11.3384 -180 0 0 11.34 252.49 Z" class="st4"/>
			<text x="7.74" y="243.85" class="st3" v:langID="1033"><v:paragraph v:horizAlign="1"/><v:tabList/>Raster calculator: DEM – Fill</text>		</g>
		<g id="shape226-35" v:mID="226" v:groupContext="shape" v:layerMember="0" transform="translate(87.9921,-219.965)">
			<title>Dynamic connector.226</title>
			<v:userDefs>
				<v:ud v:nameU="visVersion" v:val="VT0(15):26"/>
			</v:userDefs>
			<path d="M0 252.49 C-0 263.12 11.2 263.12 21.13 263.12 C40.74 263.12 55.42 263.12 83.22 263.12 C102.59 263.12 128.32
						 263.12 132.61 277.05 L132.66 277.4" class="st6"/>
		</g>
		<g id="shape227-41" v:mID="227" v:groupContext="shape" v:layerMember="0" transform="translate(354.449,-219.965)">
			<title>Dynamic connector.227</title>
			<v:userDefs>
				<v:ud v:nameU="visVersion" v:val="VT0(15):26"/>
			</v:userDefs>
			<path d="M0 252.49 C-0 263.12 -11.2 263.12 -21.13 263.12 C-40.74 263.12 -55.42 263.12 -83.22 263.12 C-102.59 263.12 -128.32
						 263.12 -132.61 277.05 L-132.66 277.4" class="st6"/>
		</g>
		<g id="shape228-46" v:mID="228" v:groupContext="shape" v:layerMember="0" transform="translate(214.134,-219.965)">
			<title>Dynamic connector.228</title>
			<v:userDefs>
				<v:ud v:nameU="visVersion" v:val="VT0(15):26"/>
			</v:userDefs>
			<path d="M7.09 252.49 C7.09 258.45 7.09 269.33 7.09 277" class="st8"/>
		</g>
		<g id="shape229-52" v:mID="229" v:groupContext="shape" v:layerMember="0" transform="translate(221.22,-168.41)">
			<title>Dynamic connector.229</title>
			<v:userDefs>
				<v:ud v:nameU="visVersion" v:val="VT0(15):26"/>
			</v:userDefs>
			<path d="M0 252.49 C-0 263.12 -13.42 263.12 -24.82 263.12 C-41.71 263.12 -54.16 263.12 -66.6 263.12 C-79.05 263.12 -91.48
						 263.12 -108.32 263.12 C-118.31 263.12 -129.85 263.12 -132.61 271.73 L-132.66 272.09" class="st6"/>
		</g>
		<g id="shape230-57" v:mID="230" v:groupContext="shape" v:layerMember="0" transform="translate(221.22,-168.41)">
			<title>Dynamic connector.230</title>
			<v:userDefs>
				<v:ud v:nameU="visVersion" v:val="VT0(15):26"/>
			</v:userDefs>
			<path d="M0 252.49 C0 263.12 13.46 263.12 24.9 263.12 C41.83 263.12 54.32 263.12 66.8 263.12 C79.28 263.12 91.74 263.12
						 108.64 263.12 C118.65 263.12 130.22 263.12 133 271.73 L133.05 272.09" class="st6"/>
		</g>
		<g id="shape231-62" v:mID="231" v:groupContext="shape" v:layerMember="0" transform="translate(214.134,-168.41)">
			<title>Dynamic connector.231</title>
			<v:userDefs>
				<v:ud v:nameU="visVersion" v:val="VT0(15):26"/>
			</v:userDefs>
			<path d="M7.09 252.49 C7.09 257.15 7.09 265.49 7.09 271.69" class="st8"/>
		</g>
		<g id="shape232-67" v:mID="232" v:groupContext="shape" v:layerMember="0" transform="translate(18.5433,-231.304)">
			<title>Dynamic connector.232</title>
			<v:userDefs>
				<v:ud v:nameU="visVersion" v:val="VT0(15):26"/>
			</v:userDefs>
			<path d="M7.09 252.49 C-3.54 252.49 -3.54 266.37 -3.54 278.16 C-3.54 295.64 -3.54 308.52 -3.54 321.41 C-3.54 334.29 -3.54
						 347.17 -3.54 364.65 C-3.54 374.59 -3.54 386.02 2.83 389.36 L3.18 389.44" class="st9"/>
		</g>
		<g id="shape233-72" v:mID="233" v:groupContext="shape" v:layerMember="0" transform="translate(80.9056,-122.17)">
			<title>Dynamic connector.233</title>
			<v:userDefs>
				<v:ud v:nameU="visVersion" v:val="VT0(15):26"/>
			</v:userDefs>
			<path d="M7.09 252.49 C7.09 255.15 7.09 256.03 7.09 256.71 C7.09 257.05 7.09 257.34 7.09 257.51 C7.09 257.8 7.09 257.8
						 7.09 258.05 C7.09 258.39 7.09 259.2 7.09 260.07 C7.09 261.31 7.09 262.67 7.09 265.49" class="st10"/>
		</g>
		<g id="shape234-77" v:mID="234" v:groupContext="shape" transform="translate(25.63,-45.9888)">
			<title>Rounded Rectangle.234</title>
			<desc>ASTER Sink locations</desc>
			<v:userDefs>
				<v:ud v:nameU="CTypeTopLeftSnip" v:prompt="" v:val="VT0(0):5"/>
				<v:ud v:nameU="CTypeTopRightSnip" v:prompt="" v:val="VT0(0):5"/>
				<v:ud v:nameU="CTypeBotLeftSnip" v:prompt="" v:val="VT0(0):5"/>
				<v:ud v:nameU="CTypeBotRightSnip" v:prompt="" v:val="VT0(0):5"/>
				<v:ud v:nameU="CornerLockHoriz" v:prompt="" v:val="VT0(1):5"/>
				<v:ud v:nameU="CornerLockVert" v:prompt="" v:val="VT0(1):5"/>
				<v:ud v:nameU="CornerLockDiag" v:prompt="" v:val="VT0(0):5"/>
				<v:ud v:nameU="TopLeftOffset" v:prompt="" v:val="VT0(0.15748031496063):24"/>
				<v:ud v:nameU="TopRightOffset" v:prompt="" v:val="VT0(0.15748031496063):24"/>
				<v:ud v:nameU="BotLeftOffset" v:prompt="" v:val="VT0(0.15748031496063):24"/>
				<v:ud v:nameU="BotRightOffset" v:prompt="" v:val="VT0(0.15748031496063):24"/>
				<v:ud v:nameU="visVersion" v:prompt="" v:val="VT0(15):26"/>
			</v:userDefs>
			<v:textBlock v:margins="rect(4,4,4,4)" v:tabSpace="42.5197"/>
			<v:textRect cx="62.3622" cy="241.151" width="124.73" height="22.6772"/>
			<path d="M11.34 252.49 L113.39 252.49 A11.3384 11.3384 -180 0 0 124.72 241.15 A11.3384 11.3384 -180 0 0 113.39 229.81
						 L11.34 229.81 A11.3384 11.3384 -180 0 0 0 241.15 A11.3384 11.3384 -180 0 0 11.34 252.49 Z" class="st1"/>
			<text x="21.21" y="243.85" class="st3" v:langID="1033"><v:paragraph v:horizAlign="1"/><v:tabList/>ASTER Sink locations</text>		</g>
		<g id="shape235-81" v:mID="235" v:groupContext="shape" v:layerMember="0" transform="translate(80.9056,-82.4848)">
			<title>Dynamic connector.235</title>
			<v:userDefs>
				<v:ud v:nameU="visVersion" v:val="VT0(15):26"/>
			</v:userDefs>
			<path d="M7.09 252.84 C7.09 255.06 7.09 258.73 7.09 261.94" class="st10"/>
		</g>
		<g id="shape236-86" v:mID="236" v:groupContext="shape" transform="translate(25.63,-9.84707)">
			<title>Rounded Rectangle.236</title>
			<desc>Graph bar fill count</desc>
			<v:userDefs>
				<v:ud v:nameU="CTypeTopLeftSnip" v:prompt="" v:val="VT0(0):5"/>
				<v:ud v:nameU="CTypeTopRightSnip" v:prompt="" v:val="VT0(0):5"/>
				<v:ud v:nameU="CTypeBotLeftSnip" v:prompt="" v:val="VT0(0):5"/>
				<v:ud v:nameU="CTypeBotRightSnip" v:prompt="" v:val="VT0(0):5"/>
				<v:ud v:nameU="CornerLockHoriz" v:prompt="" v:val="VT0(1):5"/>
				<v:ud v:nameU="CornerLockVert" v:prompt="" v:val="VT0(1):5"/>
				<v:ud v:nameU="CornerLockDiag" v:prompt="" v:val="VT0(0):5"/>
				<v:ud v:nameU="TopLeftOffset" v:prompt="" v:val="VT0(0.15748031496063):24"/>
				<v:ud v:nameU="TopRightOffset" v:prompt="" v:val="VT0(0.15748031496063):24"/>
				<v:ud v:nameU="BotLeftOffset" v:prompt="" v:val="VT0(0.15748031496063):24"/>
				<v:ud v:nameU="BotRightOffset" v:prompt="" v:val="VT0(0.15748031496063):24"/>
				<v:ud v:nameU="visVersion" v:prompt="" v:val="VT0(15):26"/>
			</v:userDefs>
			<v:textBlock v:margins="rect(4,4,4,4)" v:tabSpace="42.5197"/>
			<v:textRect cx="62.3622" cy="241.151" width="124.73" height="22.6772"/>
			<path d="M11.34 252.49 L113.39 252.49 A11.3384 11.3384 -180 0 0 124.72 241.15 A11.3384 11.3384 -180 0 0 113.39 229.81
						 L11.34 229.81 A11.3384 11.3384 -180 0 0 0 241.15 A11.3384 11.3384 -180 0 0 11.34 252.49 Z" class="st11"/>
			<text x="24.02" y="243.85" class="st3" v:langID="1033"><v:paragraph v:horizAlign="1"/><v:tabList/>Graph bar fill count</text>		</g>
		<g id="shape237-91" v:mID="237" v:groupContext="shape" v:layerMember="0" transform="translate(80.9056,-46.3431)">
			<title>Dynamic connector.237</title>
			<v:userDefs>
				<v:ud v:nameU="visVersion" v:val="VT0(15):26"/>
			</v:userDefs>
			<path d="M7.09 252.84 C7.09 255.06 7.09 258.73 7.09 261.94" class="st10"/>
		</g>
	</g>
</svg>
