<?xml version="1.0" encoding="UTF-8" standalone="no"?>
<!DOCTYPE svg PUBLIC "-//W3C//DTD SVG 1.1//EN" "http://www.w3.org/Graphics/SVG/1.1/DTD/svg11.dtd">
<!-- Generated by Microsoft Visio, SVG Export ETRBudyko.svg Page-1 -->
<svg xmlns="http://www.w3.org/2000/svg" xmlns:xlink="http://www.w3.org/1999/xlink" xmlns:ev="http://www.w3.org/2001/xml-events"
		xmlns:v="http://schemas.microsoft.com/visio/2003/SVGExtensions/" width="3.58308in" height="2.51544in"
		viewBox="0 0 257.982 181.111" xml:space="preserve" color-interpolation-filters="sRGB" class="st12">
	<v:documentProperties v:langID="1033" v:metric="true" v:viewMarkup="false"/>

	<style type="text/css">
	<![CDATA[
		.st1 {fill:#f2f2f2;stroke:none;stroke-width:1.5}
		.st2 {fill:#fbbc0e;fill-opacity:1;stroke:#fbbc0e;stroke-opacity:1;stroke-width:0.37313432835821}
		.st3 {fill:#000000;font-family:Segoe UI;font-size:0.75em}
		.st4 {marker-end:url(#mrkr6-15);stroke:#7f7f7f;stroke-linecap:round;stroke-linejoin:round;stroke-width:0.5}
		.st5 {fill:#7f7f7f;fill-opacity:1;stroke:#7f7f7f;stroke-opacity:1;stroke-width:0.25773195876289}
		.st6 {fill:#f2f2f2;stroke:#ea4d35;stroke-width:1.5}
		.st7 {fill:#ea4d35;fill-opacity:1;stroke:#ea4d35;stroke-opacity:1;stroke-width:0.37313432835821}
		.st8 {font-size:1em}
		.st9 {marker-end:url(#mrkr6-27);stroke:#7f7f7f;stroke-linecap:round;stroke-linejoin:round;stroke-width:0.5}
		.st10 {fill:#f2f2f2;stroke:#3ea853;stroke-width:1.5}
		.st11 {fill:#3ea853;fill-opacity:1;stroke:#3ea853;stroke-opacity:1;stroke-width:0.37313432835821}
		.st12 {fill:none;fill-rule:evenodd;font-size:12px;overflow:visible;stroke-linecap:square;stroke-miterlimit:3}
	]]>
	</style>

	<defs id="Markers">
		<g id="lend6">
			<path d="M 2 1 L 0 0 L 2.01237 -1.00641 C 2.32921 -0.372876 2.32921 0.372869 2.01238 1.0064 " style="stroke:none"/>
		</g>
		<marker id="mrkr6-4" class="st2" v:arrowType="6" v:arrowSize="2" v:setback="6.03" refX="6.03" orient="auto"
				markerUnits="strokeWidth" overflow="visible">
			<use xlink:href="#lend6" transform="scale(2.68) "/>
		</marker>
		<marker id="mrkr6-15" class="st5" v:arrowType="6" v:arrowSize="0" v:setback="8.01" refX="-8.01" orient="auto"
				markerUnits="strokeWidth" overflow="visible">
			<use xlink:href="#lend6" transform="scale(-3.88,-3.88) "/>
		</marker>
		<marker id="mrkr6-19" class="st7" v:arrowType="6" v:arrowSize="2" v:setback="6.03" refX="6.03" orient="auto"
				markerUnits="strokeWidth" overflow="visible">
			<use xlink:href="#lend6" transform="scale(2.68) "/>
		</marker>
		<marker id="mrkr6-27" class="st5" v:arrowType="6" v:arrowSize="0" v:setback="8.73" refX="-8.73" orient="auto"
				markerUnits="strokeWidth" overflow="visible">
			<use xlink:href="#lend6" transform="scale(-3.88,-3.88) "/>
		</marker>
		<marker id="mrkr6-31" class="st11" v:arrowType="6" v:arrowSize="2" v:setback="6.03" refX="6.03" orient="auto"
				markerUnits="strokeWidth" overflow="visible">
			<use xlink:href="#lend6" transform="scale(2.68) "/>
		</marker>
	</defs>
	<g v:mID="0" v:index="1" v:groupContext="foregroundPage">
		<title>Page-1</title>
		<v:pageProperties v:drawingScale="0.0393701" v:pageScale="0.0393701" v:drawingUnits="24" v:shadowOffsetX="8.50394"
				v:shadowOffsetY="-8.50394"/>
		<v:layer v:name="Connector" v:index="0"/>
		<g id="shape577-1" v:mID="577" v:groupContext="shape" transform="translate(71.848,-148.587)">
			<title>Rounded Rectangle.577</title>
			<desc>Start</desc>
			<v:userDefs>
				<v:ud v:nameU="CTypeTopLeftSnip" v:prompt="" v:val="VT0(0):5"/>
				<v:ud v:nameU="CTypeTopRightSnip" v:prompt="" v:val="VT0(0):5"/>
				<v:ud v:nameU="CTypeBotLeftSnip" v:prompt="" v:val="VT0(0):5"/>
				<v:ud v:nameU="CTypeBotRightSnip" v:prompt="" v:val="VT0(0):5"/>
				<v:ud v:nameU="CornerLockHoriz" v:prompt="" v:val="VT0(1):5"/>
				<v:ud v:nameU="CornerLockVert" v:prompt="" v:val="VT0(1):5"/>
				<v:ud v:nameU="CornerLockDiag" v:prompt="" v:val="VT0(0):5"/>
				<v:ud v:nameU="TopLeftOffset" v:prompt="" v:val="VT0(0.15748031496063):24"/>
				<v:ud v:nameU="TopRightOffset" v:prompt="" v:val="VT0(0.15748031496063):24"/>
				<v:ud v:nameU="BotLeftOffset" v:prompt="" v:val="VT0(0.15748031496063):24"/>
				<v:ud v:nameU="BotRightOffset" v:prompt="" v:val="VT0(0.15748031496063):24"/>
				<v:ud v:nameU="visVersion" v:prompt="" v:val="VT0(15):26"/>
			</v:userDefs>
			<v:textBlock v:margins="rect(4,4,4,4)" v:tabSpace="42.5197"/>
			<v:textRect cx="56.6929" cy="169.773" width="113.39" height="22.6772"/>
			<path d="M11.34 181.11 L102.05 181.11 A11.3384 11.3384 -180 0 0 113.39 169.77 A11.3384 11.3384 -180 0 0 102.05 158.43
						 L11.34 158.43 A11.3384 11.3384 -180 0 0 0 169.77 A11.3384 11.3384 -180 0 0 11.34 181.11 Z" class="st1"/>
			<text x="47.4" y="172.47" class="st3" v:langID="1033"><v:paragraph v:horizAlign="1"/><v:tabList/>Start</text>		</g>
		<g id="shape742-6" v:mID="742" v:groupContext="shape" transform="translate(71.848,-9.84707)">
			<title>Rounded Rectangle.742</title>
			<desc>End</desc>
			<v:userDefs>
				<v:ud v:nameU="CTypeTopLeftSnip" v:prompt="" v:val="VT0(0):5"/>
				<v:ud v:nameU="CTypeTopRightSnip" v:prompt="" v:val="VT0(0):5"/>
				<v:ud v:nameU="CTypeBotLeftSnip" v:prompt="" v:val="VT0(0):5"/>
				<v:ud v:nameU="CTypeBotRightSnip" v:prompt="" v:val="VT0(0):5"/>
				<v:ud v:nameU="CornerLockHoriz" v:prompt="" v:val="VT0(1):5"/>
				<v:ud v:nameU="CornerLockVert" v:prompt="" v:val="VT0(1):5"/>
				<v:ud v:nameU="CornerLockDiag" v:prompt="" v:val="VT0(0):5"/>
				<v:ud v:nameU="TopLeftOffset" v:prompt="" v:val="VT0(0.15748031496063):24"/>
				<v:ud v:nameU="TopRightOffset" v:prompt="" v:val="VT0(0.15748031496063):24"/>
				<v:ud v:nameU="BotLeftOffset" v:prompt="" v:val="VT0(0.15748031496063):24"/>
				<v:ud v:nameU="BotRightOffset" v:prompt="" v:val="VT0(0.15748031496063):24"/>
				<v:ud v:nameU="visVersion" v:prompt="" v:val="VT0(15):26"/>
			</v:userDefs>
			<v:textBlock v:margins="rect(4,4,4,4)" v:tabSpace="42.5197"/>
			<v:textRect cx="56.6929" cy="169.773" width="113.39" height="22.6772"/>
			<path d="M11.34 181.11 L102.05 181.11 A11.3384 11.3384 -180 0 0 113.39 169.77 A11.3384 11.3384 -180 0 0 102.05 158.43
						 L11.34 158.43 A11.3384 11.3384 -180 0 0 0 169.77 A11.3384 11.3384 -180 0 0 11.34 181.11 Z" class="st1"/>
			<text x="49.22" y="172.47" class="st3" v:langID="1033"><v:paragraph v:horizAlign="1"/><v:tabList/>End</text>		</g>
		<g id="shape997-10" v:mID="997" v:groupContext="shape" v:layerMember="0" transform="translate(128.541,-149.67)">
			<title>Dynamic connector.997</title>
			<v:userDefs>
				<v:ud v:nameU="visVersion" v:val="VT0(15):26"/>
			</v:userDefs>
			<path d="M0 182.19 C-0 187.51 -5.22 187.51 -9.85 187.51 C-18.97 187.51 -25.82 187.51 -38.8 187.51 C-46.24 187.51 -55.69
						 187.51 -59.86 190.4 L-60.03 190.71" class="st4"/>
		</g>
		<g id="shape1035-16" v:mID="1035" v:groupContext="shape" transform="translate(71.848,-79.2171)">
			<title>Rounded Rectangle.1035</title>
			<desc>Raster calculator ETR Budyko expression</desc>
			<v:userDefs>
				<v:ud v:nameU="CTypeTopLeftSnip" v:prompt="" v:val="VT0(0):5"/>
				<v:ud v:nameU="CTypeTopRightSnip" v:prompt="" v:val="VT0(0):5"/>
				<v:ud v:nameU="CTypeBotLeftSnip" v:prompt="" v:val="VT0(0):5"/>
				<v:ud v:nameU="CTypeBotRightSnip" v:prompt="" v:val="VT0(0):5"/>
				<v:ud v:nameU="CornerLockHoriz" v:prompt="" v:val="VT0(1):5"/>
				<v:ud v:nameU="CornerLockVert" v:prompt="" v:val="VT0(1):5"/>
				<v:ud v:nameU="CornerLockDiag" v:prompt="" v:val="VT0(0):5"/>
				<v:ud v:nameU="TopLeftOffset" v:prompt="" v:val="VT0(0.15748031496063):24"/>
				<v:ud v:nameU="TopRightOffset" v:prompt="" v:val="VT0(0.15748031496063):24"/>
				<v:ud v:nameU="BotLeftOffset" v:prompt="" v:val="VT0(0.15748031496063):24"/>
				<v:ud v:nameU="BotRightOffset" v:prompt="" v:val="VT0(0.15748031496063):24"/>
				<v:ud v:nameU="visVersion" v:prompt="" v:val="VT0(15):26"/>
				<v:ud v:nameU="TopLeftOffset" v:prompt="" v:val="VT0(0.15748031969087):1"/>
				<v:ud v:nameU="TopRightOffset" v:prompt="" v:val="VT0(0.15748031969087):1"/>
				<v:ud v:nameU="BotLeftOffset" v:prompt="" v:val="VT0(0.15748031969087):1"/>
				<v:ud v:nameU="BotRightOffset" v:prompt="" v:val="VT0(0.15748031969087):1"/>
			</v:userDefs>
			<v:textBlock v:margins="rect(4,4,4,4)" v:tabSpace="42.5197"/>
			<v:textRect cx="56.6929" cy="169.773" width="113.39" height="22.6772"/>
			<path d="M11.34 181.11 L102.05 181.11 A11.3384 11.3384 -180 0 0 113.39 169.77 A11.3384 11.3384 -180 0 0 102.05 158.43
						 L11.34 158.43 A11.3384 11.3384 -180 0 0 -0 169.77 A11.3384 11.3384 -180 0 0 11.34 181.11 Z" class="st6"/>
			<text x="23.94" y="167.07" class="st3" v:langID="1033"><v:paragraph v:horizAlign="1"/><v:tabList/>Raster calculator<v:newlineChar/><tspan
						x="11" dy="1.2em" class="st8">ETR Budyko expression</tspan></text>		</g>
		<g id="shape1042-22" v:mID="1042" v:groupContext="shape" v:layerMember="0" transform="translate(135.638,-45.6148)">
			<title>Dynamic connector.1042</title>
			<v:userDefs>
				<v:ud v:nameU="visVersion" v:val="VT0(15):26"/>
			</v:userDefs>
			<path d="M-7.08 182.19 C-7.08 184.85 -7.08 185.74 -7.08 186.46 C-7.08 186.82 -7.08 187.15 -7.08 187.32 C-7.08 187.51
						 -7.09 187.51 -7.09 187.69 C-7.1 187.89 -7.1 188.32 -7.1 188.8 C-7.1 189.1 -7.1 189.43 -7.1 189.84"
					class="st9"/>
		</g>
		<g id="shape1071-28" v:mID="1071" v:groupContext="shape" transform="translate(9.84707,-113.902)">
			<title>Rounded Rectangle.1071</title>
			<desc>ETP grids</desc>
			<v:userDefs>
				<v:ud v:nameU="CTypeTopLeftSnip" v:prompt="" v:val="VT0(0):5"/>
				<v:ud v:nameU="CTypeTopRightSnip" v:prompt="" v:val="VT0(0):5"/>
				<v:ud v:nameU="CTypeBotLeftSnip" v:prompt="" v:val="VT0(0):5"/>
				<v:ud v:nameU="CTypeBotRightSnip" v:prompt="" v:val="VT0(0):5"/>
				<v:ud v:nameU="CornerLockHoriz" v:prompt="" v:val="VT0(1):5"/>
				<v:ud v:nameU="CornerLockVert" v:prompt="" v:val="VT0(1):5"/>
				<v:ud v:nameU="CornerLockDiag" v:prompt="" v:val="VT0(0):5"/>
				<v:ud v:nameU="TopLeftOffset" v:prompt="" v:val="VT0(0.15748031496063):24"/>
				<v:ud v:nameU="TopRightOffset" v:prompt="" v:val="VT0(0.15748031496063):24"/>
				<v:ud v:nameU="BotLeftOffset" v:prompt="" v:val="VT0(0.15748031496063):24"/>
				<v:ud v:nameU="BotRightOffset" v:prompt="" v:val="VT0(0.15748031496063):24"/>
				<v:ud v:nameU="visVersion" v:prompt="" v:val="VT0(15):26"/>
			</v:userDefs>
			<v:textBlock v:margins="rect(4,4,4,4)" v:tabSpace="42.5197"/>
			<v:textRect cx="56.6929" cy="169.773" width="113.39" height="22.6772"/>
			<path d="M11.34 181.11 L102.05 181.11 A11.3384 11.3384 -180 0 0 113.39 169.77 A11.3384 11.3384 -180 0 0 102.05 158.43
						 L11.34 158.43 A11.3384 11.3384 -180 0 0 0 169.77 A11.3384 11.3384 -180 0 0 11.34 181.11 Z" class="st10"/>
			<text x="38.44" y="172.47" class="st3" v:langID="1033"><v:paragraph v:horizAlign="1"/><v:tabList/>ETP grids</text>		</g>
		<g id="shape1072-33" v:mID="1072" v:groupContext="shape" transform="translate(71.869,-44.5321)">
			<title>Rounded Rectangle.1072</title>
			<desc>ETRBudyko.tif</desc>
			<v:userDefs>
				<v:ud v:nameU="CTypeTopLeftSnip" v:prompt="" v:val="VT0(0):5"/>
				<v:ud v:nameU="CTypeTopRightSnip" v:prompt="" v:val="VT0(0):5"/>
				<v:ud v:nameU="CTypeBotLeftSnip" v:prompt="" v:val="VT0(0):5"/>
				<v:ud v:nameU="CTypeBotRightSnip" v:prompt="" v:val="VT0(0):5"/>
				<v:ud v:nameU="CornerLockHoriz" v:prompt="" v:val="VT0(1):5"/>
				<v:ud v:nameU="CornerLockVert" v:prompt="" v:val="VT0(1):5"/>
				<v:ud v:nameU="CornerLockDiag" v:prompt="" v:val="VT0(0):5"/>
				<v:ud v:nameU="TopLeftOffset" v:prompt="" v:val="VT0(0.15748031496063):24"/>
				<v:ud v:nameU="TopRightOffset" v:prompt="" v:val="VT0(0.15748031496063):24"/>
				<v:ud v:nameU="BotLeftOffset" v:prompt="" v:val="VT0(0.15748031496063):24"/>
				<v:ud v:nameU="BotRightOffset" v:prompt="" v:val="VT0(0.15748031496063):24"/>
				<v:ud v:nameU="visVersion" v:prompt="" v:val="VT0(15):26"/>
			</v:userDefs>
			<v:textBlock v:margins="rect(4,4,4,4)" v:tabSpace="42.5197"/>
			<v:textRect cx="56.6929" cy="169.773" width="113.39" height="22.6772"/>
			<path d="M11.34 181.11 L102.05 181.11 A11.3384 11.3384 -180 0 0 113.39 169.77 A11.3384 11.3384 -180 0 0 102.05 158.43
						 L11.34 158.43 A11.3384 11.3384 -180 0 0 0 169.77 A11.3384 11.3384 -180 0 0 11.34 181.11 Z" class="st10"/>
			<text x="29.54" y="172.47" class="st3" v:langID="1033"><v:paragraph v:horizAlign="1"/><v:tabList/>ETRBudyko.tif</text>		</g>
		<g id="shape1073-37" v:mID="1073" v:groupContext="shape" v:layerMember="0" transform="translate(66.54,-114.985)">
			<title>Dynamic connector.1073</title>
			<v:userDefs>
				<v:ud v:nameU="visVersion" v:val="VT0(15):26"/>
			</v:userDefs>
			<path d="M0 182.19 C-0 187.51 5.22 187.51 9.85 187.51 C18.97 187.51 25.82 187.51 38.8 187.51 C46.24 187.51 55.69 187.51
						 59.86 190.4 L60.03 190.71" class="st4"/>
		</g>
		<g id="shape1074-42" v:mID="1074" v:groupContext="shape" v:layerMember="0" transform="translate(121.465,-80.2998)">
			<title>Dynamic connector.1074</title>
			<v:userDefs>
				<v:ud v:nameU="visVersion" v:val="VT0(15):26"/>
			</v:userDefs>
			<path d="M7.08 182.19 C7.08 184.85 7.08 185.74 7.08 186.46 C7.08 186.82 7.08 187.15 7.08 187.32 C7.08 187.51 7.09 187.51
						 7.09 187.69 C7.1 187.89 7.1 188.32 7.1 188.8 C7.1 189.1 7.1 189.43 7.1 189.84" class="st9"/>
		</g>
		<g id="shape1075-47" v:mID="1075" v:groupContext="shape" transform="translate(134.749,-113.902)">
			<title>Rounded Rectangle.1075</title>
			<desc>P - rain grids</desc>
			<v:userDefs>
				<v:ud v:nameU="CTypeTopLeftSnip" v:prompt="" v:val="VT0(0):5"/>
				<v:ud v:nameU="CTypeTopRightSnip" v:prompt="" v:val="VT0(0):5"/>
				<v:ud v:nameU="CTypeBotLeftSnip" v:prompt="" v:val="VT0(0):5"/>
				<v:ud v:nameU="CTypeBotRightSnip" v:prompt="" v:val="VT0(0):5"/>
				<v:ud v:nameU="CornerLockHoriz" v:prompt="" v:val="VT0(1):5"/>
				<v:ud v:nameU="CornerLockVert" v:prompt="" v:val="VT0(1):5"/>
				<v:ud v:nameU="CornerLockDiag" v:prompt="" v:val="VT0(0):5"/>
				<v:ud v:nameU="TopLeftOffset" v:prompt="" v:val="VT0(0.15748031496063):24"/>
				<v:ud v:nameU="TopRightOffset" v:prompt="" v:val="VT0(0.15748031496063):24"/>
				<v:ud v:nameU="BotLeftOffset" v:prompt="" v:val="VT0(0.15748031496063):24"/>
				<v:ud v:nameU="BotRightOffset" v:prompt="" v:val="VT0(0.15748031496063):24"/>
				<v:ud v:nameU="visVersion" v:prompt="" v:val="VT0(15):26"/>
			</v:userDefs>
			<v:textBlock v:margins="rect(4,4,4,4)" v:tabSpace="42.5197"/>
			<v:textRect cx="56.6929" cy="169.773" width="113.39" height="22.6772"/>
			<path d="M11.34 181.11 L102.05 181.11 A11.3384 11.3384 -180 0 0 113.39 169.77 A11.3384 11.3384 -180 0 0 102.05 158.43
						 L11.34 158.43 A11.3384 11.3384 -180 0 0 0 169.77 A11.3384 11.3384 -180 0 0 11.34 181.11 Z" class="st10"/>
			<text x="31.32" y="172.47" class="st3" v:langID="1033"><v:paragraph v:horizAlign="1"/><v:tabList/>P - rain grids</text>		</g>
		<g id="shape1076-51" v:mID="1076" v:groupContext="shape" v:layerMember="0" transform="translate(128.541,-149.67)">
			<title>Dynamic connector.1076</title>
			<v:userDefs>
				<v:ud v:nameU="visVersion" v:val="VT0(15):26"/>
			</v:userDefs>
			<path d="M0 182.19 C0 187.51 5.29 187.51 9.99 187.51 C19.25 187.51 26.19 187.51 39.37 187.51 C46.92 187.51 56.52 187.51
						 60.74 190.41 L60.92 190.72" class="st4"/>
		</g>
		<g id="shape1077-56" v:mID="1077" v:groupContext="shape" v:layerMember="0" transform="translate(191.442,-114.985)">
			<title>Dynamic connector.1077</title>
			<v:userDefs>
				<v:ud v:nameU="visVersion" v:val="VT0(15):26"/>
			</v:userDefs>
			<path d="M0 182.19 C0 187.51 -5.29 187.51 -9.99 187.51 C-19.25 187.51 -26.19 187.51 -39.37 187.51 C-46.92 187.51 -56.52
						 187.51 -60.74 190.41 L-60.92 190.72" class="st4"/>
		</g>
	</g>
</svg>
