<?xml version="1.0" encoding="UTF-8" standalone="no"?>
<!DOCTYPE svg PUBLIC "-//W3C//DTD SVG 1.1//EN" "http://www.w3.org/Graphics/SVG/1.1/DTD/svg11.dtd">
<!-- Generated by Microsoft Visio, SVG Export ETRTurc.svg Page-1 -->
<svg xmlns="http://www.w3.org/2000/svg" xmlns:xlink="http://www.w3.org/1999/xlink" xmlns:ev="http://www.w3.org/2001/xml-events"
		xmlns:v="http://schemas.microsoft.com/visio/2003/SVGExtensions/" width="6.13967in" height="3.82694in"
		viewBox="0 0 442.056 275.54" xml:space="preserve" color-interpolation-filters="sRGB" class="st15">
	<v:documentProperties v:langID="1033" v:metric="true" v:viewMarkup="false"/>

	<style type="text/css">
	<![CDATA[
		.st1 {fill:#f2f2f2;stroke:none;stroke-width:1.5}
		.st2 {fill:#fbbc0e;fill-opacity:1;stroke:#fbbc0e;stroke-opacity:1;stroke-width:0.37313432835821}
		.st3 {fill:#000000;font-family:Segoe UI;font-size:0.75em}
		.st4 {marker-end:url(#mrkr6-15);stroke:#7f7f7f;stroke-linecap:round;stroke-linejoin:round;stroke-width:0.5}
		.st5 {fill:#7f7f7f;fill-opacity:1;stroke:#7f7f7f;stroke-opacity:1;stroke-width:0.25773195876289}
		.st6 {fill:#f2f2f2;stroke:#3ea853;stroke-width:1.5}
		.st7 {fill:#3ea853;fill-opacity:1;stroke:#3ea853;stroke-opacity:1;stroke-width:0.37313432835821}
		.st8 {fill:#f2f2f2;stroke:#ea4d35;stroke-dasharray:0.01,4.5;stroke-width:1.5}
		.st9 {fill:#ea4d35;fill-opacity:1;stroke:#ea4d35;stroke-opacity:1;stroke-width:0.37313432835821}
		.st10 {font-size:1em}
		.st11 {fill:#f2f2f2;stroke:#ea4d35;stroke-width:1.5}
		.st12 {fill:#ffffff;stroke:none;stroke-linecap:butt;stroke-width:7.2}
		.st13 {fill:#3d64ac;font-family:Segoe UI;font-size:0.75em}
		.st14 {marker-end:url(#mrkr6-83);stroke:#7f7f7f;stroke-linecap:round;stroke-linejoin:round;stroke-width:0.5}
		.st15 {fill:none;fill-rule:evenodd;font-size:12px;overflow:visible;stroke-linecap:square;stroke-miterlimit:3}
	]]>
	</style>

	<defs id="Markers">
		<g id="lend6">
			<path d="M 2 1 L 0 0 L 2.01237 -1.00641 C 2.32921 -0.372876 2.32921 0.372869 2.01238 1.0064 " style="stroke:none"/>
		</g>
		<marker id="mrkr6-4" class="st2" v:arrowType="6" v:arrowSize="2" v:setback="6.03" refX="6.03" orient="auto"
				markerUnits="strokeWidth" overflow="visible">
			<use xlink:href="#lend6" transform="scale(2.68) "/>
		</marker>
		<marker id="mrkr6-15" class="st5" v:arrowType="6" v:arrowSize="0" v:setback="8.73" refX="-8.73" orient="auto"
				markerUnits="strokeWidth" overflow="visible">
			<use xlink:href="#lend6" transform="scale(-3.88,-3.88) "/>
		</marker>
		<marker id="mrkr6-24" class="st7" v:arrowType="6" v:arrowSize="2" v:setback="6.03" refX="6.03" orient="auto"
				markerUnits="strokeWidth" overflow="visible">
			<use xlink:href="#lend6" transform="scale(2.68) "/>
		</marker>
		<marker id="mrkr6-42" class="st9" v:arrowType="6" v:arrowSize="2" v:setback="6.03" refX="6.03" orient="auto"
				markerUnits="strokeWidth" overflow="visible">
			<use xlink:href="#lend6" transform="scale(2.68) "/>
		</marker>
		<marker id="mrkr6-83" class="st5" v:arrowType="6" v:arrowSize="0" v:setback="8.01" refX="-8.01" orient="auto"
				markerUnits="strokeWidth" overflow="visible">
			<use xlink:href="#lend6" transform="scale(-3.88,-3.88) "/>
		</marker>
	</defs>
	<g v:mID="0" v:index="1" v:groupContext="foregroundPage">
		<title>Page-1</title>
		<v:pageProperties v:drawingScale="0.0393701" v:pageScale="0.0393701" v:drawingUnits="24" v:shadowOffsetX="8.50394"
				v:shadowOffsetY="-8.50394"/>
		<v:layer v:name="Connector" v:index="0"/>
		<v:layer v:name="Flowchart" v:index="1"/>
		<g id="shape1105-1" v:mID="1105" v:groupContext="shape" transform="translate(154.262,-243.016)">
			<title>Rounded Rectangle.1105</title>
			<desc>Start</desc>
			<v:userDefs>
				<v:ud v:nameU="CTypeTopLeftSnip" v:prompt="" v:val="VT0(0):5"/>
				<v:ud v:nameU="CTypeTopRightSnip" v:prompt="" v:val="VT0(0):5"/>
				<v:ud v:nameU="CTypeBotLeftSnip" v:prompt="" v:val="VT0(0):5"/>
				<v:ud v:nameU="CTypeBotRightSnip" v:prompt="" v:val="VT0(0):5"/>
				<v:ud v:nameU="CornerLockHoriz" v:prompt="" v:val="VT0(1):5"/>
				<v:ud v:nameU="CornerLockVert" v:prompt="" v:val="VT0(1):5"/>
				<v:ud v:nameU="CornerLockDiag" v:prompt="" v:val="VT0(0):5"/>
				<v:ud v:nameU="TopLeftOffset" v:prompt="" v:val="VT0(0.15748031496063):24"/>
				<v:ud v:nameU="TopRightOffset" v:prompt="" v:val="VT0(0.15748031496063):24"/>
				<v:ud v:nameU="BotLeftOffset" v:prompt="" v:val="VT0(0.15748031496063):24"/>
				<v:ud v:nameU="BotRightOffset" v:prompt="" v:val="VT0(0.15748031496063):24"/>
				<v:ud v:nameU="visVersion" v:prompt="" v:val="VT0(15):26"/>
			</v:userDefs>
			<v:textBlock v:margins="rect(4,4,4,4)" v:tabSpace="42.5197"/>
			<v:textRect cx="65.1969" cy="264.201" width="130.4" height="22.6772"/>
			<path d="M11.34 275.54 L119.06 275.54 A11.3384 11.3384 -180 0 0 130.39 264.2 A11.3384 11.3384 -180 0 0 119.06 252.86
						 L11.34 252.86 A11.3384 11.3384 -180 0 0 0 264.2 A11.3384 11.3384 -180 0 0 11.34 275.54 Z" class="st1"/>
			<text x="55.9" y="266.9" class="st3" v:langID="1033"><v:paragraph v:horizAlign="1"/><v:tabList/>Start</text>		</g>
		<g id="shape1107-6" v:mID="1107" v:groupContext="shape" transform="translate(154.094,-9.84707)">
			<title>Rounded Rectangle.1107</title>
			<desc>End</desc>
			<v:userDefs>
				<v:ud v:nameU="CTypeTopLeftSnip" v:prompt="" v:val="VT0(0):5"/>
				<v:ud v:nameU="CTypeTopRightSnip" v:prompt="" v:val="VT0(0):5"/>
				<v:ud v:nameU="CTypeBotLeftSnip" v:prompt="" v:val="VT0(0):5"/>
				<v:ud v:nameU="CTypeBotRightSnip" v:prompt="" v:val="VT0(0):5"/>
				<v:ud v:nameU="CornerLockHoriz" v:prompt="" v:val="VT0(1):5"/>
				<v:ud v:nameU="CornerLockVert" v:prompt="" v:val="VT0(1):5"/>
				<v:ud v:nameU="CornerLockDiag" v:prompt="" v:val="VT0(0):5"/>
				<v:ud v:nameU="TopLeftOffset" v:prompt="" v:val="VT0(0.15748031496063):24"/>
				<v:ud v:nameU="TopRightOffset" v:prompt="" v:val="VT0(0.15748031496063):24"/>
				<v:ud v:nameU="BotLeftOffset" v:prompt="" v:val="VT0(0.15748031496063):24"/>
				<v:ud v:nameU="BotRightOffset" v:prompt="" v:val="VT0(0.15748031496063):24"/>
				<v:ud v:nameU="visVersion" v:prompt="" v:val="VT0(15):26"/>
			</v:userDefs>
			<v:textBlock v:margins="rect(4,4,4,4)" v:tabSpace="42.5197"/>
			<v:textRect cx="65.1969" cy="264.201" width="130.4" height="22.6772"/>
			<path d="M11.34 275.54 L119.06 275.54 A11.3384 11.3384 -180 0 0 130.39 264.2 A11.3384 11.3384 -180 0 0 119.06 252.86
						 L11.34 252.86 A11.3384 11.3384 -180 0 0 0 264.2 A11.3384 11.3384 -180 0 0 11.34 275.54 Z" class="st1"/>
			<text x="57.72" y="266.9" class="st3" v:langID="1033"><v:paragraph v:horizAlign="1"/><v:tabList/>End</text>		</g>
		<g id="shape1108-10" v:mID="1108" v:groupContext="shape" v:layerMember="0" transform="translate(212.372,-244.098)">
			<title>Dynamic connector.1108</title>
			<v:userDefs>
				<v:ud v:nameU="visVersion" v:val="VT0(15):26"/>
			</v:userDefs>
			<path d="M7.09 276.62 C7.09 278.49 7.09 281.52 7.09 284.27" class="st4"/>
		</g>
		<g id="shape1110-16" v:mID="1110" v:groupContext="shape" v:layerMember="0" transform="translate(226.469,-45.6148)">
			<title>Dynamic connector.1110</title>
			<v:userDefs>
				<v:ud v:nameU="visVersion" v:val="VT0(15):26"/>
			</v:userDefs>
			<path d="M-7 276.62 C-7 279.28 -7 280.17 -7 280.89 C-7 281.25 -7 281.57 -7.02 281.74 C-7.05 281.94 -7.11 281.94 -7.14
						 282.12 C-7.18 282.32 -7.18 282.75 -7.18 283.23 C-7.18 283.53 -7.18 283.85 -7.18 284.27" class="st4"/>
		</g>
		<g id="shape1111-21" v:mID="1111" v:groupContext="shape" transform="translate(154.262,-208.331)">
			<title>Rounded Rectangle.1111</title>
			<desc>T - temperature grids</desc>
			<v:userDefs>
				<v:ud v:nameU="CTypeTopLeftSnip" v:prompt="" v:val="VT0(0):5"/>
				<v:ud v:nameU="CTypeTopRightSnip" v:prompt="" v:val="VT0(0):5"/>
				<v:ud v:nameU="CTypeBotLeftSnip" v:prompt="" v:val="VT0(0):5"/>
				<v:ud v:nameU="CTypeBotRightSnip" v:prompt="" v:val="VT0(0):5"/>
				<v:ud v:nameU="CornerLockHoriz" v:prompt="" v:val="VT0(1):5"/>
				<v:ud v:nameU="CornerLockVert" v:prompt="" v:val="VT0(1):5"/>
				<v:ud v:nameU="CornerLockDiag" v:prompt="" v:val="VT0(0):5"/>
				<v:ud v:nameU="TopLeftOffset" v:prompt="" v:val="VT0(0.15748031496063):24"/>
				<v:ud v:nameU="TopRightOffset" v:prompt="" v:val="VT0(0.15748031496063):24"/>
				<v:ud v:nameU="BotLeftOffset" v:prompt="" v:val="VT0(0.15748031496063):24"/>
				<v:ud v:nameU="BotRightOffset" v:prompt="" v:val="VT0(0.15748031496063):24"/>
				<v:ud v:nameU="visVersion" v:prompt="" v:val="VT0(15):26"/>
			</v:userDefs>
			<v:textBlock v:margins="rect(4,4,4,4)" v:tabSpace="42.5197"/>
			<v:textRect cx="65.1969" cy="264.201" width="130.4" height="22.6772"/>
			<path d="M11.34 275.54 L119.06 275.54 A11.3384 11.3384 -180 0 0 130.39 264.2 A11.3384 11.3384 -180 0 0 119.06 252.86
						 L11.34 252.86 A11.3384 11.3384 -180 0 0 0 264.2 A11.3384 11.3384 -180 0 0 11.34 275.54 Z" class="st6"/>
			<text x="22.88" y="266.9" class="st3" v:langID="1033"><v:paragraph v:horizAlign="1"/><v:tabList/>T - temperature grids</text>		</g>
		<g id="shape1112-26" v:mID="1112" v:groupContext="shape" transform="translate(154.277,-44.5321)">
			<title>Rounded Rectangle.1112</title>
			<desc>ETRTurc.tif</desc>
			<v:userDefs>
				<v:ud v:nameU="CTypeTopLeftSnip" v:prompt="" v:val="VT0(0):5"/>
				<v:ud v:nameU="CTypeTopRightSnip" v:prompt="" v:val="VT0(0):5"/>
				<v:ud v:nameU="CTypeBotLeftSnip" v:prompt="" v:val="VT0(0):5"/>
				<v:ud v:nameU="CTypeBotRightSnip" v:prompt="" v:val="VT0(0):5"/>
				<v:ud v:nameU="CornerLockHoriz" v:prompt="" v:val="VT0(1):5"/>
				<v:ud v:nameU="CornerLockVert" v:prompt="" v:val="VT0(1):5"/>
				<v:ud v:nameU="CornerLockDiag" v:prompt="" v:val="VT0(0):5"/>
				<v:ud v:nameU="TopLeftOffset" v:prompt="" v:val="VT0(0.15748031496063):24"/>
				<v:ud v:nameU="TopRightOffset" v:prompt="" v:val="VT0(0.15748031496063):24"/>
				<v:ud v:nameU="BotLeftOffset" v:prompt="" v:val="VT0(0.15748031496063):24"/>
				<v:ud v:nameU="BotRightOffset" v:prompt="" v:val="VT0(0.15748031496063):24"/>
				<v:ud v:nameU="visVersion" v:prompt="" v:val="VT0(15):26"/>
			</v:userDefs>
			<v:textBlock v:margins="rect(4,4,4,4)" v:tabSpace="42.5197"/>
			<v:textRect cx="65.1969" cy="264.201" width="130.4" height="22.6772"/>
			<path d="M11.34 275.54 L119.06 275.54 A11.3384 11.3384 -180 0 0 130.39 264.2 A11.3384 11.3384 -180 0 0 119.06 252.86
						 L11.34 252.86 A11.3384 11.3384 -180 0 0 0 264.2 A11.3384 11.3384 -180 0 0 11.34 275.54 Z" class="st6"/>
			<text x="44.33" y="266.9" class="st3" v:langID="1033"><v:paragraph v:horizAlign="1"/><v:tabList/>ETRTurc.tif</text>		</g>
		<g id="shape1113-30" v:mID="1113" v:groupContext="shape" v:layerMember="0" transform="translate(212.372,-209.413)">
			<title>Dynamic connector.1113</title>
			<v:userDefs>
				<v:ud v:nameU="visVersion" v:val="VT0(15):26"/>
			</v:userDefs>
			<path d="M7.09 276.62 C7.09 278.49 7.09 281.52 7.09 284.27" class="st4"/>
		</g>
		<g id="shape1115-35" v:mID="1115" v:groupContext="shape" transform="translate(9.84707,-208.331)">
			<title>Rounded Rectangle.1115</title>
			<desc>P - rain grids</desc>
			<v:userDefs>
				<v:ud v:nameU="CTypeTopLeftSnip" v:prompt="" v:val="VT0(0):5"/>
				<v:ud v:nameU="CTypeTopRightSnip" v:prompt="" v:val="VT0(0):5"/>
				<v:ud v:nameU="CTypeBotLeftSnip" v:prompt="" v:val="VT0(0):5"/>
				<v:ud v:nameU="CTypeBotRightSnip" v:prompt="" v:val="VT0(0):5"/>
				<v:ud v:nameU="CornerLockHoriz" v:prompt="" v:val="VT0(1):5"/>
				<v:ud v:nameU="CornerLockVert" v:prompt="" v:val="VT0(1):5"/>
				<v:ud v:nameU="CornerLockDiag" v:prompt="" v:val="VT0(0):5"/>
				<v:ud v:nameU="TopLeftOffset" v:prompt="" v:val="VT0(0.15748031496063):24"/>
				<v:ud v:nameU="TopRightOffset" v:prompt="" v:val="VT0(0.15748031496063):24"/>
				<v:ud v:nameU="BotLeftOffset" v:prompt="" v:val="VT0(0.15748031496063):24"/>
				<v:ud v:nameU="BotRightOffset" v:prompt="" v:val="VT0(0.15748031496063):24"/>
				<v:ud v:nameU="visVersion" v:prompt="" v:val="VT0(15):26"/>
			</v:userDefs>
			<v:textBlock v:margins="rect(4,4,4,4)" v:tabSpace="42.5197"/>
			<v:textRect cx="65.1969" cy="264.201" width="130.4" height="22.6772"/>
			<path d="M11.34 275.54 L119.06 275.54 A11.3384 11.3384 -180 0 0 130.39 264.2 A11.3384 11.3384 -180 0 0 119.06 252.86
						 L11.34 252.86 A11.3384 11.3384 -180 0 0 0 264.2 A11.3384 11.3384 -180 0 0 11.34 275.54 Z" class="st6"/>
			<text x="39.83" y="266.9" class="st3" v:langID="1033"><v:paragraph v:horizAlign="1"/><v:tabList/>P - rain grids</text>		</g>
		<g id="shape1118-39" v:mID="1118" v:groupContext="shape" transform="translate(154.262,-173.646)">
			<title>Rounded Rectangle.1118</title>
			<desc>Raster calculator P/L= P / (300 + 25T + 0.05T³)</desc>
			<v:userDefs>
				<v:ud v:nameU="CTypeTopLeftSnip" v:prompt="" v:val="VT0(0):5"/>
				<v:ud v:nameU="CTypeTopRightSnip" v:prompt="" v:val="VT0(0):5"/>
				<v:ud v:nameU="CTypeBotLeftSnip" v:prompt="" v:val="VT0(0):5"/>
				<v:ud v:nameU="CTypeBotRightSnip" v:prompt="" v:val="VT0(0):5"/>
				<v:ud v:nameU="CornerLockHoriz" v:prompt="" v:val="VT0(1):5"/>
				<v:ud v:nameU="CornerLockVert" v:prompt="" v:val="VT0(1):5"/>
				<v:ud v:nameU="CornerLockDiag" v:prompt="" v:val="VT0(0):5"/>
				<v:ud v:nameU="TopLeftOffset" v:prompt="" v:val="VT0(0.15748031496063):24"/>
				<v:ud v:nameU="TopRightOffset" v:prompt="" v:val="VT0(0.15748031496063):24"/>
				<v:ud v:nameU="BotLeftOffset" v:prompt="" v:val="VT0(0.15748031496063):24"/>
				<v:ud v:nameU="BotRightOffset" v:prompt="" v:val="VT0(0.15748031496063):24"/>
				<v:ud v:nameU="visVersion" v:prompt="" v:val="VT0(15):26"/>
				<v:ud v:nameU="TopLeftOffset" v:prompt="" v:val="VT0(0.15748031969087):1"/>
				<v:ud v:nameU="TopRightOffset" v:prompt="" v:val="VT0(0.15748031969087):1"/>
				<v:ud v:nameU="BotLeftOffset" v:prompt="" v:val="VT0(0.15748031969087):1"/>
				<v:ud v:nameU="BotRightOffset" v:prompt="" v:val="VT0(0.15748031969087):1"/>
			</v:userDefs>
			<v:textBlock v:margins="rect(4,4,4,4)" v:tabSpace="42.5197"/>
			<v:textRect cx="65.1969" cy="264.201" width="130.4" height="22.6772"/>
			<path d="M11.34 275.54 L119.06 275.54 A11.3384 11.3384 -180 0 0 130.39 264.2 A11.3384 11.3384 -180 0 0 119.06 252.86
						 L11.34 252.86 A11.3384 11.3384 -180 0 0 -0 264.2 A11.3384 11.3384 -180 0 0 11.34 275.54 Z" class="st8"/>
			<text x="32.44" y="261.5" class="st3" v:langID="1033"><v:paragraph v:horizAlign="1"/><v:tabList/>Raster calculator<v:newlineChar/><tspan
						x="7.21" dy="1.2em" class="st10">P/L= P / (300 + 25T + 0.05T</tspan>³)</text>		</g>
		<g id="shape1119-45" v:mID="1119" v:groupContext="shape" v:layerMember="1" transform="translate(180.482,-121.389)">
			<title>Decision 2.1119</title>
			<desc>P/L &#62; 0.316</desc>
			<v:custProps>
				<v:cp v:nameU="Cost" v:lbl="Cost" v:type="7" v:format="@" v:langID="1033"/>
				<v:cp v:nameU="Duration" v:lbl="Duration" v:type="2" v:langID="1033"/>
				<v:cp v:nameU="Resources" v:lbl="Resources" v:langID="1033"/>
			</v:custProps>
			<v:userDefs>
				<v:ud v:nameU="visVersion" v:val="VT0(15):26"/>
			</v:userDefs>
			<v:textBlock v:margins="rect(4,4,4,4)" v:tabSpace="42.5197"/>
			<v:textRect cx="38.9764" cy="255.416" width="58.47" height="35.2177"/>
			<path d="M0 255.42 L38.98 235.29 L77.95 255.42 L38.98 275.54 L0 255.42 Z" class="st8"/>
			<text x="16.36" y="258.12" class="st3" v:langID="1033"><v:paragraph v:horizAlign="1"/><v:tabList/>P/L &#62; 0.316</text>		</g>
		<g id="shape1120-49" v:mID="1120" v:groupContext="shape" v:layerMember="0" transform="translate(212.372,-174.728)">
			<title>Dynamic connector.1120</title>
			<v:userDefs>
				<v:ud v:nameU="visVersion" v:val="VT0(15):26"/>
			</v:userDefs>
			<path d="M7.09 276.62 C7.09 278.49 7.09 281.52 7.09 284.27" class="st4"/>
		</g>
		<g id="shape1121-54" v:mID="1121" v:groupContext="shape" transform="translate(154.262,-80.8504)">
			<title>Rounded Rectangle.1121</title>
			<desc>RC ETR=P/sqrt(0.9+(P²/(300+25T+0.05T³)²)</desc>
			<v:userDefs>
				<v:ud v:nameU="CTypeTopLeftSnip" v:prompt="" v:val="VT0(0):5"/>
				<v:ud v:nameU="CTypeTopRightSnip" v:prompt="" v:val="VT0(0):5"/>
				<v:ud v:nameU="CTypeBotLeftSnip" v:prompt="" v:val="VT0(0):5"/>
				<v:ud v:nameU="CTypeBotRightSnip" v:prompt="" v:val="VT0(0):5"/>
				<v:ud v:nameU="CornerLockHoriz" v:prompt="" v:val="VT0(1):5"/>
				<v:ud v:nameU="CornerLockVert" v:prompt="" v:val="VT0(1):5"/>
				<v:ud v:nameU="CornerLockDiag" v:prompt="" v:val="VT0(0):5"/>
				<v:ud v:nameU="TopLeftOffset" v:prompt="" v:val="VT0(0.15748031496063):24"/>
				<v:ud v:nameU="TopRightOffset" v:prompt="" v:val="VT0(0.15748031496063):24"/>
				<v:ud v:nameU="BotLeftOffset" v:prompt="" v:val="VT0(0.15748031496063):24"/>
				<v:ud v:nameU="BotRightOffset" v:prompt="" v:val="VT0(0.15748031496063):24"/>
				<v:ud v:nameU="visVersion" v:prompt="" v:val="VT0(15):26"/>
				<v:ud v:nameU="TopLeftOffset" v:prompt="" v:val="VT0(0.15748031969087):1"/>
				<v:ud v:nameU="TopRightOffset" v:prompt="" v:val="VT0(0.15748031969087):1"/>
				<v:ud v:nameU="BotLeftOffset" v:prompt="" v:val="VT0(0.15748031969087):1"/>
				<v:ud v:nameU="BotRightOffset" v:prompt="" v:val="VT0(0.15748031969087):1"/>
			</v:userDefs>
			<v:textBlock v:margins="rect(4,4,4,4)" v:tabSpace="42.5197"/>
			<v:textRect cx="65.1969" cy="264.201" width="130.4" height="22.6772"/>
			<path d="M11.34 275.54 L119.06 275.54 A11.3384 11.3384 -180 0 0 130.39 264.2 A11.3384 11.3384 -180 0 0 119.06 252.86
						 L11.34 252.86 A11.3384 11.3384 -180 0 0 -0 264.2 A11.3384 11.3384 -180 0 0 11.34 275.54 Z" class="st11"/>
			<text x="18.62" y="261.5" class="st3" v:langID="1033"><v:paragraph v:horizAlign="1"/><v:tabList/>RC ETR=P/sqrt(0.9+(P²/<tspan
						x="26.57" dy="1.2em" class="st10">(300+25T+0.05T</tspan>³)²)</text>		</g>
		<g id="shape1122-59" v:mID="1122" v:groupContext="shape" transform="translate(301.816,-130.175)">
			<title>Rounded Rectangle.1122</title>
			<desc>Raster calculator ETR = P</desc>
			<v:userDefs>
				<v:ud v:nameU="CTypeTopLeftSnip" v:prompt="" v:val="VT0(0):5"/>
				<v:ud v:nameU="CTypeTopRightSnip" v:prompt="" v:val="VT0(0):5"/>
				<v:ud v:nameU="CTypeBotLeftSnip" v:prompt="" v:val="VT0(0):5"/>
				<v:ud v:nameU="CTypeBotRightSnip" v:prompt="" v:val="VT0(0):5"/>
				<v:ud v:nameU="CornerLockHoriz" v:prompt="" v:val="VT0(1):5"/>
				<v:ud v:nameU="CornerLockVert" v:prompt="" v:val="VT0(1):5"/>
				<v:ud v:nameU="CornerLockDiag" v:prompt="" v:val="VT0(0):5"/>
				<v:ud v:nameU="TopLeftOffset" v:prompt="" v:val="VT0(0.15748031496063):24"/>
				<v:ud v:nameU="TopRightOffset" v:prompt="" v:val="VT0(0.15748031496063):24"/>
				<v:ud v:nameU="BotLeftOffset" v:prompt="" v:val="VT0(0.15748031496063):24"/>
				<v:ud v:nameU="BotRightOffset" v:prompt="" v:val="VT0(0.15748031496063):24"/>
				<v:ud v:nameU="visVersion" v:prompt="" v:val="VT0(15):26"/>
				<v:ud v:nameU="TopLeftOffset" v:prompt="" v:val="VT0(0.15748031969087):1"/>
				<v:ud v:nameU="TopRightOffset" v:prompt="" v:val="VT0(0.15748031969087):1"/>
				<v:ud v:nameU="BotLeftOffset" v:prompt="" v:val="VT0(0.15748031969087):1"/>
				<v:ud v:nameU="BotRightOffset" v:prompt="" v:val="VT0(0.15748031969087):1"/>
			</v:userDefs>
			<v:textBlock v:margins="rect(4,4,4,4)" v:tabSpace="42.5197"/>
			<v:textRect cx="65.1969" cy="264.201" width="130.4" height="22.6772"/>
			<path d="M11.34 275.54 L119.06 275.54 A11.3384 11.3384 -180 0 0 130.39 264.2 A11.3384 11.3384 -180 0 0 119.06 252.86
						 L11.34 252.86 A11.3384 11.3384 -180 0 0 -0 264.2 A11.3384 11.3384 -180 0 0 11.34 275.54 Z" class="st11"/>
			<text x="32.44" y="261.5" class="st3" v:langID="1033"><v:paragraph v:horizAlign="1"/><v:tabList/>Raster calculator<v:newlineChar/><tspan
						x="49.81" dy="1.2em" class="st10">ETR = P</tspan></text>		</g>
		<g id="shape1123-64" v:mID="1123" v:groupContext="shape" v:layerMember="0" transform="translate(212.372,-121.389)">
			<title>Dynamic connector.1123</title>
			<desc>S</desc>
			<v:userDefs>
				<v:ud v:nameU="visVersion" v:val="VT0(15):26"/>
			</v:userDefs>
			<v:textBlock v:margins="rect(4,4,4,4)" v:tabSpace="42.5197"/>
			<v:textRect cx="7.08661" cy="284.471" width="45" height="18.8036"/>
			<path d="M7.09 275.54 C7.09 278.81 7.09 284.48 7.09 289.04" class="st4"/>
			<rect v:rectContext="textBkgnd" x="4.69599" y="279.071" width="4.78125" height="10.7998" class="st12"/>
			<text x="4.7" y="287.17" class="st13" v:langID="1033"><v:paragraph v:horizAlign="1"/><v:tabList/>S</text>		</g>
		<g id="shape1124-71" v:mID="1124" v:groupContext="shape" v:layerMember="0" transform="translate(258.435,-134.427)">
			<title>Dynamic connector.1124</title>
			<desc>N</desc>
			<v:userDefs>
				<v:ud v:nameU="visVersion" v:val="VT0(15):26"/>
			</v:userDefs>
			<v:textBlock v:margins="rect(4,4,4,4)" v:tabSpace="42.5197"/>
			<v:textRect cx="21.6902" cy="268.453" width="45" height="18.8036"/>
			<path d="M0 268.45 C9.54 268.45 27.46 268.45 39.02 268.45" class="st4"/>
			<rect v:rectContext="textBkgnd" x="18.324" y="263.054" width="6.73242" height="10.7998" class="st12"/>
			<text x="18.32" y="271.15" class="st13" v:langID="1033"><v:paragraph v:horizAlign="1"/><v:tabList/>N</text>		</g>
		<g id="shape1129-78" v:mID="1129" v:groupContext="shape" v:layerMember="0" transform="translate(367.012,-130.175)">
			<title>Dynamic connector.1129</title>
			<v:userDefs>
				<v:ud v:nameU="visVersion" v:val="VT0(15):26"/>
			</v:userDefs>
			<path d="M0 275.54 C-0 333.19 -33.8 333.19 -58.2 333.19 C-87.06 333.19 -102.78 333.19 -124.39 333.19 C-132.1 333.19 -140.56
						 333.19 -144.8 335.11 L-145.03 335.39" class="st14"/>
		</g>
		<g id="shape1130-84" v:mID="1130" v:groupContext="shape" v:layerMember="0" transform="translate(212.38,-81.1164)">
			<title>Dynamic connector.1130</title>
			<v:userDefs>
				<v:ud v:nameU="visVersion" v:val="VT0(15):26"/>
			</v:userDefs>
			<path d="M7.08 275.81 C7.08 278.46 7.08 279.35 7.08 280.06 C7.08 280.41 7.08 280.72 7.08 280.9 C7.08 281.12 7.09 281.12
						 7.09 281.32 C7.09 281.57 7.09 282.11 7.09 282.71 C7.09 283.32 7.09 284 7.09 285.08" class="st4"/>
		</g>
		<g id="shape1131-89" v:mID="1131" v:groupContext="shape" v:layerMember="0" transform="translate(75.0439,-208.331)">
			<title>Dynamic connector.1131</title>
			<v:userDefs>
				<v:ud v:nameU="visVersion" v:val="VT0(15):26"/>
			</v:userDefs>
			<path d="M0 275.54 C0 304.58 -0 350.36 16.41 372.08 C30.17 390.28 55.45 391.58 74.85 391.67 L75.21 391.68" class="st14"/>
		</g>
		<g id="shape1132-94" v:mID="1132" v:groupContext="shape" v:layerMember="0" transform="translate(75.0439,-208.331)">
			<title>Dynamic connector.1132</title>
			<v:userDefs>
				<v:ud v:nameU="visVersion" v:val="VT0(15):26"/>
			</v:userDefs>
			<path d="M0 275.54 C0 281.38 -0 289.09 11.52 293.4 C25.13 298.5 54.83 298.86 74.85 298.88 L75.21 298.88" class="st14"/>
		</g>
	</g>
</svg>
