<?xml version="1.0" encoding="UTF-8" standalone="no"?>
<!DOCTYPE svg PUBLIC "-//W3C//DTD SVG 1.1//EN" "http://www.w3.org/Graphics/SVG/1.1/DTD/svg11.dtd">
<!-- Generated by Microsoft Visio, SVG Export DEMAsterFlowchart.svg Page-1 -->
<svg xmlns="http://www.w3.org/2000/svg" xmlns:xlink="http://www.w3.org/1999/xlink" xmlns:ev="http://www.w3.org/2001/xml-events"
		xmlns:v="http://schemas.microsoft.com/visio/2003/SVGExtensions/" width="6.32872in" height="5.23416in"
		viewBox="0 0 455.668 376.859" xml:space="preserve" color-interpolation-filters="sRGB" class="st16">
	<v:documentProperties v:langID="1033" v:metric="true" v:viewMarkup="false"/>

	<style type="text/css">
	<![CDATA[
		.st1 {fill:#f2f2f2;stroke:#fbbc0e;stroke-width:1.5}
		.st2 {fill:#fbbc0e;fill-opacity:1;stroke:#fbbc0e;stroke-opacity:1;stroke-width:0.37313432835821}
		.st3 {fill:#000000;font-family:Segoe UI;font-size:0.75em}
		.st4 {fill:#f2f2f2;stroke:#4c85f4;stroke-width:1.5}
		.st5 {fill:#4c85f4;fill-opacity:1;stroke:#4c85f4;stroke-opacity:1;stroke-width:0.37313432835821}
		.st6 {font-size:1em}
		.st7 {marker-end:url(#mrkr6-37);stroke:#7f7f7f;stroke-linecap:round;stroke-linejoin:round;stroke-width:0.5}
		.st8 {fill:#7f7f7f;fill-opacity:1;stroke:#7f7f7f;stroke-opacity:1;stroke-width:0.25773195876289}
		.st9 {marker-end:url(#mrkr6-43);stroke:#7f7f7f;stroke-dasharray:3.5,2.5;stroke-linecap:round;stroke-linejoin:round;stroke-width:0.5}
		.st10 {marker-end:url(#mrkr6-43);stroke:#7f7f7f;stroke-linecap:round;stroke-linejoin:round;stroke-width:0.5}
		.st11 {fill:#f2f2f2;stroke:#ea4d35;stroke-width:1.5}
		.st12 {fill:#ea4d35;fill-opacity:1;stroke:#ea4d35;stroke-opacity:1;stroke-width:0.37313432835821}
		.st13 {marker-end:url(#mrkr6-189);stroke:#7f7f7f;stroke-linecap:round;stroke-linejoin:round;stroke-width:0.5}
		.st14 {fill:#f2f2f2;stroke:#ea4d35;stroke-dasharray:0.01,4.5;stroke-width:1.5}
		.st15 {marker-end:url(#mrkr6-37);stroke:#7f7f7f;stroke-dasharray:3.5,2.5;stroke-linecap:round;stroke-linejoin:round;stroke-width:0.5}
		.st16 {fill:none;fill-rule:evenodd;font-size:12px;overflow:visible;stroke-linecap:square;stroke-miterlimit:3}
	]]>
	</style>

	<defs id="Markers">
		<g id="lend6">
			<path d="M 2 1 L 0 0 L 2.01237 -1.00641 C 2.32921 -0.372876 2.32921 0.372869 2.01238 1.0064 " style="stroke:none"/>
		</g>
		<marker id="mrkr6-4" class="st2" v:arrowType="6" v:arrowSize="2" v:setback="6.03" refX="6.03" orient="auto"
				markerUnits="strokeWidth" overflow="visible">
			<use xlink:href="#lend6" transform="scale(2.68) "/>
		</marker>
		<marker id="mrkr6-29" class="st5" v:arrowType="6" v:arrowSize="2" v:setback="6.03" refX="6.03" orient="auto"
				markerUnits="strokeWidth" overflow="visible">
			<use xlink:href="#lend6" transform="scale(2.68) "/>
		</marker>
		<marker id="mrkr6-37" class="st8" v:arrowType="6" v:arrowSize="0" v:setback="8.73" refX="-8.73" orient="auto"
				markerUnits="strokeWidth" overflow="visible">
			<use xlink:href="#lend6" transform="scale(-3.88,-3.88) "/>
		</marker>
		<marker id="mrkr6-43" class="st8" v:arrowType="6" v:arrowSize="0" v:setback="8.01" refX="-8.01" orient="auto"
				markerUnits="strokeWidth" overflow="visible">
			<use xlink:href="#lend6" transform="scale(-3.88,-3.88) "/>
		</marker>
		<marker id="mrkr6-135" class="st12" v:arrowType="6" v:arrowSize="2" v:setback="6.03" refX="6.03" orient="auto"
				markerUnits="strokeWidth" overflow="visible">
			<use xlink:href="#lend6" transform="scale(2.68) "/>
		</marker>
		<marker id="mrkr6-189" class="st8" v:arrowType="6" v:arrowSize="0" v:setback="0" refX="-0" orient="auto"
				markerUnits="strokeWidth" overflow="visible">
			<use xlink:href="#lend6" transform="scale(-3.88,-3.88) "/>
		</marker>
	</defs>
	<g v:mID="0" v:index="1" v:groupContext="foregroundPage">
		<title>Page-1</title>
		<v:pageProperties v:drawingScale="0.0393701" v:pageScale="0.0393701" v:drawingUnits="24" v:shadowOffsetX="8.50394"
				v:shadowOffsetY="-8.50394"/>
		<v:layer v:name="Connector" v:index="0"/>
		<g id="shape129-1" v:mID="129" v:groupContext="shape" transform="translate(154.66,-344.335)">
			<title>Rounded Rectangle.129</title>
			<desc>NASA Earthdata Login</desc>
			<v:userDefs>
				<v:ud v:nameU="CTypeTopLeftSnip" v:prompt="" v:val="VT0(0):5"/>
				<v:ud v:nameU="CTypeTopRightSnip" v:prompt="" v:val="VT0(0):5"/>
				<v:ud v:nameU="CTypeBotLeftSnip" v:prompt="" v:val="VT0(0):5"/>
				<v:ud v:nameU="CTypeBotRightSnip" v:prompt="" v:val="VT0(0):5"/>
				<v:ud v:nameU="CornerLockHoriz" v:prompt="" v:val="VT0(1):5"/>
				<v:ud v:nameU="CornerLockVert" v:prompt="" v:val="VT0(1):5"/>
				<v:ud v:nameU="CornerLockDiag" v:prompt="" v:val="VT0(0):5"/>
				<v:ud v:nameU="TopLeftOffset" v:prompt="" v:val="VT0(0.15748031496063):24"/>
				<v:ud v:nameU="TopRightOffset" v:prompt="" v:val="VT0(0.15748031496063):24"/>
				<v:ud v:nameU="BotLeftOffset" v:prompt="" v:val="VT0(0.15748031496063):24"/>
				<v:ud v:nameU="BotRightOffset" v:prompt="" v:val="VT0(0.15748031496063):24"/>
				<v:ud v:nameU="visVersion" v:prompt="" v:val="VT0(15):26"/>
			</v:userDefs>
			<v:textBlock v:margins="rect(4,4,4,4)" v:tabSpace="42.5197"/>
			<v:textRect cx="58.9117" cy="365.521" width="117.83" height="22.6772"/>
			<path d="M11.34 376.86 L106.48 376.86 A11.3384 11.3384 -180 0 0 117.82 365.52 A11.3384 11.3384 -180 0 0 106.48 354.18
						 L11.34 354.18 A11.3384 11.3384 -180 0 0 0 365.52 A11.3384 11.3384 -180 0 0 11.34 376.86 Z" class="st1"/>
			<text x="14.89" y="368.22" class="st3" v:langID="1033"><v:paragraph v:horizAlign="1"/><v:tabList/>NASA Earthdata Login</text>		</g>
		<g id="shape130-6" v:mID="130" v:groupContext="shape" transform="translate(154.56,-308.902)">
			<title>Rounded Rectangle.130</title>
			<desc>Delimitar zona descarga</desc>
			<v:userDefs>
				<v:ud v:nameU="CTypeTopLeftSnip" v:prompt="" v:val="VT0(0):5"/>
				<v:ud v:nameU="CTypeTopRightSnip" v:prompt="" v:val="VT0(0):5"/>
				<v:ud v:nameU="CTypeBotLeftSnip" v:prompt="" v:val="VT0(0):5"/>
				<v:ud v:nameU="CTypeBotRightSnip" v:prompt="" v:val="VT0(0):5"/>
				<v:ud v:nameU="CornerLockHoriz" v:prompt="" v:val="VT0(1):5"/>
				<v:ud v:nameU="CornerLockVert" v:prompt="" v:val="VT0(1):5"/>
				<v:ud v:nameU="CornerLockDiag" v:prompt="" v:val="VT0(0):5"/>
				<v:ud v:nameU="TopLeftOffset" v:prompt="" v:val="VT0(0.15748031496063):24"/>
				<v:ud v:nameU="TopRightOffset" v:prompt="" v:val="VT0(0.15748031496063):24"/>
				<v:ud v:nameU="BotLeftOffset" v:prompt="" v:val="VT0(0.15748031496063):24"/>
				<v:ud v:nameU="BotRightOffset" v:prompt="" v:val="VT0(0.15748031496063):24"/>
				<v:ud v:nameU="visVersion" v:prompt="" v:val="VT0(15):26"/>
			</v:userDefs>
			<v:textBlock v:margins="rect(4,4,4,4)" v:tabSpace="42.5197"/>
			<v:textRect cx="58.9117" cy="365.521" width="117.83" height="22.6772"/>
			<path d="M11.34 376.86 L106.48 376.86 A11.3384 11.3384 -180 0 0 117.82 365.52 A11.3384 11.3384 -180 0 0 106.48 354.18
						 L11.34 354.18 A11.3384 11.3384 -180 0 0 0 365.52 A11.3384 11.3384 -180 0 0 11.34 376.86 Z" class="st1"/>
			<text x="11.12" y="368.22" class="st3" v:langID="1033"><v:paragraph v:horizAlign="1"/><v:tabList/>Delimitar zona descarga</text>		</g>
		<g id="shape131-10" v:mID="131" v:groupContext="shape" transform="translate(9.84707,-264.965)">
			<title>Rounded Rectangle.131</title>
			<desc>Polygon</desc>
			<v:userDefs>
				<v:ud v:nameU="CTypeTopLeftSnip" v:prompt="" v:val="VT0(0):5"/>
				<v:ud v:nameU="CTypeTopRightSnip" v:prompt="" v:val="VT0(0):5"/>
				<v:ud v:nameU="CTypeBotLeftSnip" v:prompt="" v:val="VT0(0):5"/>
				<v:ud v:nameU="CTypeBotRightSnip" v:prompt="" v:val="VT0(0):5"/>
				<v:ud v:nameU="CornerLockHoriz" v:prompt="" v:val="VT0(1):5"/>
				<v:ud v:nameU="CornerLockVert" v:prompt="" v:val="VT0(1):5"/>
				<v:ud v:nameU="CornerLockDiag" v:prompt="" v:val="VT0(0):5"/>
				<v:ud v:nameU="TopLeftOffset" v:prompt="" v:val="VT0(0.15748031496063):24"/>
				<v:ud v:nameU="TopRightOffset" v:prompt="" v:val="VT0(0.15748031496063):24"/>
				<v:ud v:nameU="BotLeftOffset" v:prompt="" v:val="VT0(0.15748031496063):24"/>
				<v:ud v:nameU="BotRightOffset" v:prompt="" v:val="VT0(0.15748031496063):24"/>
				<v:ud v:nameU="visVersion" v:prompt="" v:val="VT0(15):26"/>
			</v:userDefs>
			<v:textBlock v:margins="rect(4,4,4,4)" v:tabSpace="42.5197"/>
			<v:textRect cx="28.3465" cy="365.521" width="56.7" height="22.6772"/>
			<path d="M11.34 376.86 L45.35 376.86 A11.3384 11.3384 -180 0 0 56.69 365.52 A11.3384 11.3384 -180 0 0 45.35 354.18 L11.34
						 354.18 A11.3384 11.3384 -180 0 0 0 365.52 A11.3384 11.3384 -180 0 0 11.34 376.86 Z" class="st1"/>
			<text x="12.09" y="368.22" class="st3" v:langID="1033"><v:paragraph v:horizAlign="1"/><v:tabList/>Polygon</text>		</g>
		<g id="shape132-14" v:mID="132" v:groupContext="shape" transform="translate(79.073,-264.965)">
			<title>Rounded Rectangle.132</title>
			<desc>Rectangle</desc>
			<v:userDefs>
				<v:ud v:nameU="CTypeTopLeftSnip" v:prompt="" v:val="VT0(0):5"/>
				<v:ud v:nameU="CTypeTopRightSnip" v:prompt="" v:val="VT0(0):5"/>
				<v:ud v:nameU="CTypeBotLeftSnip" v:prompt="" v:val="VT0(0):5"/>
				<v:ud v:nameU="CTypeBotRightSnip" v:prompt="" v:val="VT0(0):5"/>
				<v:ud v:nameU="CornerLockHoriz" v:prompt="" v:val="VT0(1):5"/>
				<v:ud v:nameU="CornerLockVert" v:prompt="" v:val="VT0(1):5"/>
				<v:ud v:nameU="CornerLockDiag" v:prompt="" v:val="VT0(0):5"/>
				<v:ud v:nameU="TopLeftOffset" v:prompt="" v:val="VT0(0.15748031496063):24"/>
				<v:ud v:nameU="TopRightOffset" v:prompt="" v:val="VT0(0.15748031496063):24"/>
				<v:ud v:nameU="BotLeftOffset" v:prompt="" v:val="VT0(0.15748031496063):24"/>
				<v:ud v:nameU="BotRightOffset" v:prompt="" v:val="VT0(0.15748031496063):24"/>
				<v:ud v:nameU="visVersion" v:prompt="" v:val="VT0(15):26"/>
			</v:userDefs>
			<v:textBlock v:margins="rect(4,4,4,4)" v:tabSpace="42.5197"/>
			<v:textRect cx="28.3465" cy="365.521" width="56.7" height="22.6772"/>
			<path d="M11.34 376.86 L45.35 376.86 A11.3384 11.3384 -180 0 0 56.69 365.52 A11.3384 11.3384 -180 0 0 45.35 354.18 L11.34
						 354.18 A11.3384 11.3384 -180 0 0 0 365.52 A11.3384 11.3384 -180 0 0 11.34 376.86 Z" class="st1"/>
			<text x="8.77" y="368.22" class="st3" v:langID="1033"><v:paragraph v:horizAlign="1"/><v:tabList/>Rectangle</text>		</g>
		<g id="shape133-18" v:mID="133" v:groupContext="shape" transform="translate(148.299,-264.965)">
			<title>Rounded Rectangle.133</title>
			<desc>Point</desc>
			<v:userDefs>
				<v:ud v:nameU="CTypeTopLeftSnip" v:prompt="" v:val="VT0(0):5"/>
				<v:ud v:nameU="CTypeTopRightSnip" v:prompt="" v:val="VT0(0):5"/>
				<v:ud v:nameU="CTypeBotLeftSnip" v:prompt="" v:val="VT0(0):5"/>
				<v:ud v:nameU="CTypeBotRightSnip" v:prompt="" v:val="VT0(0):5"/>
				<v:ud v:nameU="CornerLockHoriz" v:prompt="" v:val="VT0(1):5"/>
				<v:ud v:nameU="CornerLockVert" v:prompt="" v:val="VT0(1):5"/>
				<v:ud v:nameU="CornerLockDiag" v:prompt="" v:val="VT0(0):5"/>
				<v:ud v:nameU="TopLeftOffset" v:prompt="" v:val="VT0(0.15748031496063):24"/>
				<v:ud v:nameU="TopRightOffset" v:prompt="" v:val="VT0(0.15748031496063):24"/>
				<v:ud v:nameU="BotLeftOffset" v:prompt="" v:val="VT0(0.15748031496063):24"/>
				<v:ud v:nameU="BotRightOffset" v:prompt="" v:val="VT0(0.15748031496063):24"/>
				<v:ud v:nameU="visVersion" v:prompt="" v:val="VT0(15):26"/>
			</v:userDefs>
			<v:textBlock v:margins="rect(4,4,4,4)" v:tabSpace="42.5197"/>
			<v:textRect cx="28.3465" cy="365.521" width="56.7" height="22.6772"/>
			<path d="M11.34 376.86 L45.35 376.86 A11.3384 11.3384 -180 0 0 56.69 365.52 A11.3384 11.3384 -180 0 0 45.35 354.18 L11.34
						 354.18 A11.3384 11.3384 -180 0 0 0 365.52 A11.3384 11.3384 -180 0 0 11.34 376.86 Z" class="st1"/>
			<text x="18.03" y="368.22" class="st3" v:langID="1033"><v:paragraph v:horizAlign="1"/><v:tabList/>Point</text>		</g>
		<g id="shape134-22" v:mID="134" v:groupContext="shape" transform="translate(217.525,-264.965)">
			<title>Rounded Rectangle.134</title>
			<desc>Circle</desc>
			<v:userDefs>
				<v:ud v:nameU="CTypeTopLeftSnip" v:prompt="" v:val="VT0(0):5"/>
				<v:ud v:nameU="CTypeTopRightSnip" v:prompt="" v:val="VT0(0):5"/>
				<v:ud v:nameU="CTypeBotLeftSnip" v:prompt="" v:val="VT0(0):5"/>
				<v:ud v:nameU="CTypeBotRightSnip" v:prompt="" v:val="VT0(0):5"/>
				<v:ud v:nameU="CornerLockHoriz" v:prompt="" v:val="VT0(1):5"/>
				<v:ud v:nameU="CornerLockVert" v:prompt="" v:val="VT0(1):5"/>
				<v:ud v:nameU="CornerLockDiag" v:prompt="" v:val="VT0(0):5"/>
				<v:ud v:nameU="TopLeftOffset" v:prompt="" v:val="VT0(0.15748031496063):24"/>
				<v:ud v:nameU="TopRightOffset" v:prompt="" v:val="VT0(0.15748031496063):24"/>
				<v:ud v:nameU="BotLeftOffset" v:prompt="" v:val="VT0(0.15748031496063):24"/>
				<v:ud v:nameU="BotRightOffset" v:prompt="" v:val="VT0(0.15748031496063):24"/>
				<v:ud v:nameU="visVersion" v:prompt="" v:val="VT0(15):26"/>
			</v:userDefs>
			<v:textBlock v:margins="rect(4,4,4,4)" v:tabSpace="42.5197"/>
			<v:textRect cx="28.3465" cy="365.521" width="56.7" height="22.6772"/>
			<path d="M11.34 376.86 L45.35 376.86 A11.3384 11.3384 -180 0 0 56.69 365.52 A11.3384 11.3384 -180 0 0 45.35 354.18 L11.34
						 354.18 A11.3384 11.3384 -180 0 0 0 365.52 A11.3384 11.3384 -180 0 0 11.34 376.86 Z" class="st1"/>
			<text x="17.38" y="368.22" class="st3" v:langID="1033"><v:paragraph v:horizAlign="1"/><v:tabList/>Circle</text>		</g>
		<g id="shape135-26" v:mID="135" v:groupContext="shape" transform="translate(286.751,-264.965)">
			<title>Rounded Rectangle.135</title>
			<desc>File (.shp, .kml, .kmz, GeoJSON, Geo RSS)</desc>
			<v:userDefs>
				<v:ud v:nameU="CTypeTopLeftSnip" v:prompt="" v:val="VT0(0):5"/>
				<v:ud v:nameU="CTypeTopRightSnip" v:prompt="" v:val="VT0(0):5"/>
				<v:ud v:nameU="CTypeBotLeftSnip" v:prompt="" v:val="VT0(0):5"/>
				<v:ud v:nameU="CTypeBotRightSnip" v:prompt="" v:val="VT0(0):5"/>
				<v:ud v:nameU="CornerLockHoriz" v:prompt="" v:val="VT0(1):5"/>
				<v:ud v:nameU="CornerLockVert" v:prompt="" v:val="VT0(1):5"/>
				<v:ud v:nameU="CornerLockDiag" v:prompt="" v:val="VT0(0):5"/>
				<v:ud v:nameU="TopLeftOffset" v:prompt="" v:val="VT0(0.15748031496063):24"/>
				<v:ud v:nameU="TopRightOffset" v:prompt="" v:val="VT0(0.15748031496063):24"/>
				<v:ud v:nameU="BotLeftOffset" v:prompt="" v:val="VT0(0.15748031496063):24"/>
				<v:ud v:nameU="BotRightOffset" v:prompt="" v:val="VT0(0.15748031496063):24"/>
				<v:ud v:nameU="visVersion" v:prompt="" v:val="VT0(15):26"/>
			</v:userDefs>
			<v:textBlock v:margins="rect(4,4,4,4)" v:tabSpace="42.5197"/>
			<v:textRect cx="58.9117" cy="365.521" width="117.83" height="22.6772"/>
			<path d="M11.34 376.86 L106.48 376.86 A11.3384 11.3384 -180 0 0 117.82 365.52 A11.3384 11.3384 -180 0 0 106.48 354.18
						 L11.34 354.18 A11.3384 11.3384 -180 0 0 0 365.52 A11.3384 11.3384 -180 0 0 11.34 376.86 Z" class="st4"/>
			<text x="18.82" y="362.82" class="st3" v:langID="1033"><v:paragraph v:horizAlign="1"/><v:tabList/>File (.shp, .kml, .kmz, <tspan
						x="19.73" dy="1.2em" class="st6">GeoJSON, Geo RSS)</tspan></text>		</g>
		<g id="shape136-32" v:mID="136" v:groupContext="shape" v:layerMember="0" transform="translate(220.608,-345.044)">
			<title>Dynamic connector.136</title>
			<v:userDefs>
				<v:ud v:nameU="visVersion" v:val="VT0(15):26"/>
			</v:userDefs>
			<path d="M-7.04 377.57 L-7.1 385.96" class="st7"/>
		</g>
		<g id="shape137-38" v:mID="137" v:groupContext="shape" v:layerMember="0" transform="translate(154.56,-320.241)">
			<title>Dynamic connector.137</title>
			<v:userDefs>
				<v:ud v:nameU="visVersion" v:val="VT0(15):26"/>
			</v:userDefs>
			<path d="M0 376.86 C-29.09 376.86 -78.03 376.86 -99.52 384.55 C-113.49 389.54 -115.88 397.78 -116.28 405.09 L-116.29
						 405.45" class="st9"/>
		</g>
		<g id="shape138-44" v:mID="138" v:groupContext="shape" v:layerMember="0" transform="translate(154.56,-320.241)">
			<title>Dynamic connector.138</title>
			<v:userDefs>
				<v:ud v:nameU="visVersion" v:val="VT0(15):26"/>
			</v:userDefs>
			<path d="M0 376.86 C-11.79 376.86 -30.34 376.86 -39.16 383.59 C-45.8 388.66 -46.91 397.56 -47.1 405.09 L-47.11 405.45"
					class="st9"/>
		</g>
		<g id="shape139-49" v:mID="139" v:groupContext="shape" v:layerMember="0" transform="translate(213.471,-308.902)">
			<title>Dynamic connector.139</title>
			<v:userDefs>
				<v:ud v:nameU="visVersion" v:val="VT0(15):26"/>
			</v:userDefs>
			<path d="M0 376.86 C0 386 -27.24 387.28 -34.86 394.22 L-35.02 394.54" class="st9"/>
		</g>
		<g id="shape140-54" v:mID="140" v:groupContext="shape" v:layerMember="0" transform="translate(213.471,-308.902)">
			<title>Dynamic connector.140</title>
			<v:userDefs>
				<v:ud v:nameU="visVersion" v:val="VT0(15):26"/>
			</v:userDefs>
			<path d="M0 376.86 C0 385.97 23.78 387.27 30.6 394.14 L30.75 394.47" class="st9"/>
		</g>
		<g id="shape141-59" v:mID="141" v:groupContext="shape" v:layerMember="0" transform="translate(272.383,-320.241)">
			<title>Dynamic connector.141</title>
			<v:userDefs>
				<v:ud v:nameU="visVersion" v:val="VT0(15):26"/>
			</v:userDefs>
			<path d="M0 376.86 C18.32 376.86 48.4 376.86 62.02 384.18 C71.37 389.21 72.95 397.69 73.22 405.09 L73.23 405.45"
					class="st10"/>
		</g>
		<g id="shape142-64" v:mID="142" v:groupContext="shape" transform="translate(148.232,-216.776)">
			<title>Rounded Rectangle.142</title>
			<desc>Buscar: ASTER Global Digital Elevation Model V003</desc>
			<v:userDefs>
				<v:ud v:nameU="CTypeTopLeftSnip" v:prompt="" v:val="VT0(0):5"/>
				<v:ud v:nameU="CTypeTopRightSnip" v:prompt="" v:val="VT0(0):5"/>
				<v:ud v:nameU="CTypeBotLeftSnip" v:prompt="" v:val="VT0(0):5"/>
				<v:ud v:nameU="CTypeBotRightSnip" v:prompt="" v:val="VT0(0):5"/>
				<v:ud v:nameU="CornerLockHoriz" v:prompt="" v:val="VT0(1):5"/>
				<v:ud v:nameU="CornerLockVert" v:prompt="" v:val="VT0(1):5"/>
				<v:ud v:nameU="CornerLockDiag" v:prompt="" v:val="VT0(0):5"/>
				<v:ud v:nameU="TopLeftOffset" v:prompt="" v:val="VT0(0.15748031496063):24"/>
				<v:ud v:nameU="TopRightOffset" v:prompt="" v:val="VT0(0.15748031496063):24"/>
				<v:ud v:nameU="BotLeftOffset" v:prompt="" v:val="VT0(0.15748031496063):24"/>
				<v:ud v:nameU="BotRightOffset" v:prompt="" v:val="VT0(0.15748031496063):24"/>
				<v:ud v:nameU="visVersion" v:prompt="" v:val="VT0(15):26"/>
			</v:userDefs>
			<v:textBlock v:margins="rect(4,4,4,4)" v:tabSpace="42.5197"/>
			<v:textRect cx="65.1724" cy="365.521" width="130.35" height="22.6772"/>
			<path d="M11.34 376.86 L119.01 376.86 A11.3384 11.3384 -180 0 0 130.34 365.52 A11.3384 11.3384 -180 0 0 119.01 354.18
						 L11.34 354.18 A11.3384 11.3384 -180 0 0 0 365.52 A11.3384 11.3384 -180 0 0 11.34 376.86 Z" class="st1"/>
			<text x="9.18" y="362.82" class="st3" v:langID="1033"><v:paragraph v:horizAlign="1"/><v:tabList/>Buscar: ASTER Global Digital <tspan
						x="21.9" dy="1.2em" class="st6">Elevation Model V003</tspan></text>		</g>
		<g id="shape143-69" v:mID="143" v:groupContext="shape" v:layerMember="0" transform="translate(38.1935,-264.965)">
			<title>Dynamic connector.143</title>
			<v:userDefs>
				<v:ud v:nameU="visVersion" v:val="VT0(15):26"/>
			</v:userDefs>
			<path d="M0 376.86 C0 386.07 0 398.33 16.23 405.15 C35.55 413.27 77.89 413.69 105.67 413.71 L106.03 413.71" class="st9"/>
		</g>
		<g id="shape144-74" v:mID="144" v:groupContext="shape" v:layerMember="0" transform="translate(345.662,-264.965)">
			<title>Dynamic connector.144</title>
			<v:userDefs>
				<v:ud v:nameU="visVersion" v:val="VT0(15):26"/>
			</v:userDefs>
			<path d="M0 376.86 C-0 386.07 0 398.85 -10.75 405.72 C-22.22 413.05 -45.93 413.66 -62.72 413.71 L-63.08 413.71"
					class="st10"/>
		</g>
		<g id="shape145-79" v:mID="145" v:groupContext="shape" v:layerMember="0" transform="translate(107.419,-264.965)">
			<title>Dynamic connector.145</title>
			<v:userDefs>
				<v:ud v:nameU="visVersion" v:val="VT0(15):26"/>
			</v:userDefs>
			<path d="M0 376.86 C0 386.07 -0 399.69 7.44 406.6 C14.06 412.76 26.58 413.58 36.45 413.69 L36.81 413.69" class="st9"/>
		</g>
		<g id="shape146-84" v:mID="146" v:groupContext="shape" v:layerMember="0" transform="translate(176.645,-264.965)">
			<title>Dynamic connector.146</title>
			<v:userDefs>
				<v:ud v:nameU="visVersion" v:val="VT0(15):26"/>
			</v:userDefs>
			<path d="M0 376.86 C0 386.38 29.46 387.37 35.63 398.15 L35.73 398.5" class="st9"/>
		</g>
		<g id="shape147-89" v:mID="147" v:groupContext="shape" v:layerMember="0" transform="translate(245.871,-264.965)">
			<title>Dynamic connector.147</title>
			<v:userDefs>
				<v:ud v:nameU="visVersion" v:val="VT0(15):26"/>
			</v:userDefs>
			<path d="M0 376.86 C-0 386.37 -25.97 387.37 -31.46 398.12 L-31.54 398.47" class="st9"/>
		</g>
		<g id="shape148-94" v:mID="148" v:groupContext="shape" transform="translate(68.8618,-182.76)">
			<title>Rounded Rectangle.148</title>
			<desc>Verificar matching granules</desc>
			<v:userDefs>
				<v:ud v:nameU="CTypeTopLeftSnip" v:prompt="" v:val="VT0(0):5"/>
				<v:ud v:nameU="CTypeTopRightSnip" v:prompt="" v:val="VT0(0):5"/>
				<v:ud v:nameU="CTypeBotLeftSnip" v:prompt="" v:val="VT0(0):5"/>
				<v:ud v:nameU="CTypeBotRightSnip" v:prompt="" v:val="VT0(0):5"/>
				<v:ud v:nameU="CornerLockHoriz" v:prompt="" v:val="VT0(1):5"/>
				<v:ud v:nameU="CornerLockVert" v:prompt="" v:val="VT0(1):5"/>
				<v:ud v:nameU="CornerLockDiag" v:prompt="" v:val="VT0(0):5"/>
				<v:ud v:nameU="TopLeftOffset" v:prompt="" v:val="VT0(0.15748031496063):24"/>
				<v:ud v:nameU="TopRightOffset" v:prompt="" v:val="VT0(0.15748031496063):24"/>
				<v:ud v:nameU="BotLeftOffset" v:prompt="" v:val="VT0(0.15748031496063):24"/>
				<v:ud v:nameU="BotRightOffset" v:prompt="" v:val="VT0(0.15748031496063):24"/>
				<v:ud v:nameU="visVersion" v:prompt="" v:val="VT0(15):26"/>
			</v:userDefs>
			<v:textBlock v:margins="rect(4,4,4,4)" v:tabSpace="42.5197"/>
			<v:textRect cx="65.1724" cy="365.521" width="130.35" height="22.6772"/>
			<path d="M11.34 376.86 L119.01 376.86 A11.3384 11.3384 -180 0 0 130.34 365.52 A11.3384 11.3384 -180 0 0 119.01 354.18
						 L11.34 354.18 A11.3384 11.3384 -180 0 0 0 365.52 A11.3384 11.3384 -180 0 0 11.34 376.86 Z" class="st1"/>
			<text x="10.92" y="368.22" class="st3" v:langID="1033"><v:paragraph v:horizAlign="1"/><v:tabList/>Verificar matching granules</text>		</g>
		<g id="shape149-98" v:mID="149" v:groupContext="shape" v:layerMember="0" transform="translate(213.404,-218.194)">
			<title>Dynamic connector.149</title>
			<v:userDefs>
				<v:ud v:nameU="visVersion" v:val="VT0(15):26"/>
			</v:userDefs>
			<path d="M0 378.28 C0 383.59 -7.98 383.59 -14.76 383.59 C-24.84 383.59 -32.26 383.59 -39.68 383.59 C-47.1 383.59 -54.52
						 383.59 -64.59 383.59 C-69.36 383.59 -74.72 383.59 -77.49 385.68 L-77.64 386" class="st10"/>
		</g>
		<g id="shape150-103" v:mID="150" v:groupContext="shape" transform="translate(227.602,-182.76)">
			<title>Rounded Rectangle.150</title>
			<desc>Download All / Done / Download Data / _dem.tif</desc>
			<v:userDefs>
				<v:ud v:nameU="CTypeTopLeftSnip" v:prompt="" v:val="VT0(0):5"/>
				<v:ud v:nameU="CTypeTopRightSnip" v:prompt="" v:val="VT0(0):5"/>
				<v:ud v:nameU="CTypeBotLeftSnip" v:prompt="" v:val="VT0(0):5"/>
				<v:ud v:nameU="CTypeBotRightSnip" v:prompt="" v:val="VT0(0):5"/>
				<v:ud v:nameU="CornerLockHoriz" v:prompt="" v:val="VT0(1):5"/>
				<v:ud v:nameU="CornerLockVert" v:prompt="" v:val="VT0(1):5"/>
				<v:ud v:nameU="CornerLockDiag" v:prompt="" v:val="VT0(0):5"/>
				<v:ud v:nameU="TopLeftOffset" v:prompt="" v:val="VT0(0.15748031496063):24"/>
				<v:ud v:nameU="TopRightOffset" v:prompt="" v:val="VT0(0.15748031496063):24"/>
				<v:ud v:nameU="BotLeftOffset" v:prompt="" v:val="VT0(0.15748031496063):24"/>
				<v:ud v:nameU="BotRightOffset" v:prompt="" v:val="VT0(0.15748031496063):24"/>
				<v:ud v:nameU="visVersion" v:prompt="" v:val="VT0(15):26"/>
			</v:userDefs>
			<v:textBlock v:margins="rect(4,4,4,4)" v:tabSpace="42.5197"/>
			<v:textRect cx="65.1724" cy="365.521" width="130.35" height="22.6772"/>
			<path d="M11.34 376.86 L119.01 376.86 A11.3384 11.3384 -180 0 0 130.34 365.52 A11.3384 11.3384 -180 0 0 119.01 354.18
						 L11.34 354.18 A11.3384 11.3384 -180 0 0 0 365.52 A11.3384 11.3384 -180 0 0 11.34 376.86 Z" class="st1"/>
			<text x="20.7" y="362.82" class="st3" v:langID="1033"><v:paragraph v:horizAlign="1"/><v:tabList/>Download All / Done / <tspan
						x="14.46" dy="1.2em" class="st6">Download Data / _dem.tif</tspan></text>		</g>
		<g id="shape151-108" v:mID="151" v:groupContext="shape" v:layerMember="0" transform="translate(199.206,-187.012)">
			<title>Dynamic connector.151</title>
			<v:userDefs>
				<v:ud v:nameU="visVersion" v:val="VT0(15):26"/>
			</v:userDefs>
			<path d="M0 369.77 C5.84 369.77 16.49 369.77 24.03 369.77" class="st7"/>
		</g>
		<g id="shape152-113" v:mID="152" v:groupContext="shape" transform="translate(227.602,-111.894)">
			<title>Rounded Rectangle.152</title>
			<desc>Cargar grillas _dem.tif</desc>
			<v:userDefs>
				<v:ud v:nameU="CTypeTopLeftSnip" v:prompt="" v:val="VT0(0):5"/>
				<v:ud v:nameU="CTypeTopRightSnip" v:prompt="" v:val="VT0(0):5"/>
				<v:ud v:nameU="CTypeBotLeftSnip" v:prompt="" v:val="VT0(0):5"/>
				<v:ud v:nameU="CTypeBotRightSnip" v:prompt="" v:val="VT0(0):5"/>
				<v:ud v:nameU="CornerLockHoriz" v:prompt="" v:val="VT0(1):5"/>
				<v:ud v:nameU="CornerLockVert" v:prompt="" v:val="VT0(1):5"/>
				<v:ud v:nameU="CornerLockDiag" v:prompt="" v:val="VT0(0):5"/>
				<v:ud v:nameU="TopLeftOffset" v:prompt="" v:val="VT0(0.15748031496063):24"/>
				<v:ud v:nameU="TopRightOffset" v:prompt="" v:val="VT0(0.15748031496063):24"/>
				<v:ud v:nameU="BotLeftOffset" v:prompt="" v:val="VT0(0.15748031496063):24"/>
				<v:ud v:nameU="BotRightOffset" v:prompt="" v:val="VT0(0.15748031496063):24"/>
				<v:ud v:nameU="visVersion" v:prompt="" v:val="VT0(15):26"/>
			</v:userDefs>
			<v:textBlock v:margins="rect(4,4,4,4)" v:tabSpace="42.5197"/>
			<v:textRect cx="65.1724" cy="365.521" width="130.35" height="22.6772"/>
			<path d="M11.34 376.86 L119.01 376.86 A11.3384 11.3384 -180 0 0 130.34 365.52 A11.3384 11.3384 -180 0 0 119.01 354.18
						 L11.34 354.18 A11.3384 11.3384 -180 0 0 0 365.52 A11.3384 11.3384 -180 0 0 11.34 376.86 Z" class="st1"/>
			<text x="22.13" y="368.22" class="st3" v:langID="1033"><v:paragraph v:horizAlign="1"/><v:tabList/>Cargar grillas _dem.tif</text>		</g>
		<g id="shape153-117" v:mID="153" v:groupContext="shape" v:layerMember="0" transform="translate(350.86,-194.099)">
			<title>Dynamic connector.153</title>
			<v:userDefs>
				<v:ud v:nameU="visVersion" v:val="VT0(15):26"/>
			</v:userDefs>
			<path d="M7.09 376.86 C17.72 376.86 17.72 394.58 17.72 412.29 C17.72 427.28 17.72 442.26 11.28 446.53 L10.94 446.63"
					class="st10"/>
		</g>
		<g id="shape154-122" v:mID="154" v:groupContext="shape" transform="translate(68.8618,-111.894)">
			<title>Rounded Rectangle.154</title>
			<desc>Asignar CRS proyectado al mapa</desc>
			<v:userDefs>
				<v:ud v:nameU="CTypeTopLeftSnip" v:prompt="" v:val="VT0(0):5"/>
				<v:ud v:nameU="CTypeTopRightSnip" v:prompt="" v:val="VT0(0):5"/>
				<v:ud v:nameU="CTypeBotLeftSnip" v:prompt="" v:val="VT0(0):5"/>
				<v:ud v:nameU="CTypeBotRightSnip" v:prompt="" v:val="VT0(0):5"/>
				<v:ud v:nameU="CornerLockHoriz" v:prompt="" v:val="VT0(1):5"/>
				<v:ud v:nameU="CornerLockVert" v:prompt="" v:val="VT0(1):5"/>
				<v:ud v:nameU="CornerLockDiag" v:prompt="" v:val="VT0(0):5"/>
				<v:ud v:nameU="TopLeftOffset" v:prompt="" v:val="VT0(0.15748031496063):24"/>
				<v:ud v:nameU="TopRightOffset" v:prompt="" v:val="VT0(0.15748031496063):24"/>
				<v:ud v:nameU="BotLeftOffset" v:prompt="" v:val="VT0(0.15748031496063):24"/>
				<v:ud v:nameU="BotRightOffset" v:prompt="" v:val="VT0(0.15748031496063):24"/>
				<v:ud v:nameU="visVersion" v:prompt="" v:val="VT0(15):26"/>
			</v:userDefs>
			<v:textBlock v:margins="rect(4,4,4,4)" v:tabSpace="42.5197"/>
			<v:textRect cx="65.1724" cy="365.521" width="130.35" height="22.6772"/>
			<path d="M11.34 376.86 L119.01 376.86 A11.3384 11.3384 -180 0 0 130.34 365.52 A11.3384 11.3384 -180 0 0 119.01 354.18
						 L11.34 354.18 A11.3384 11.3384 -180 0 0 0 365.52 A11.3384 11.3384 -180 0 0 11.34 376.86 Z" class="st1"/>
			<text x="12.72" y="362.82" class="st3" v:langID="1033"><v:paragraph v:horizAlign="1"/><v:tabList/>Asignar CRS proyectado al <tspan
						x="54.07" dy="1.2em" class="st6">mapa</tspan></text>		</g>
		<g id="shape156-127" v:mID="156" v:groupContext="shape" v:layerMember="0" transform="translate(227.602,-116.146)">
			<title>Dynamic connector.156</title>
			<v:userDefs>
				<v:ud v:nameU="visVersion" v:val="VT0(15):26"/>
			</v:userDefs>
			<path d="M0 369.77 C-5.84 369.77 -16.49 369.77 -24.03 369.77" class="st7"/>
		</g>
		<g id="shape157-132" v:mID="157" v:groupContext="shape" transform="translate(68.8618,-77.535)">
			<title>Rounded Rectangle.157</title>
			<desc>Mosaic to New Raster / Reproyección</desc>
			<v:userDefs>
				<v:ud v:nameU="CTypeTopLeftSnip" v:prompt="" v:val="VT0(0):5"/>
				<v:ud v:nameU="CTypeTopRightSnip" v:prompt="" v:val="VT0(0):5"/>
				<v:ud v:nameU="CTypeBotLeftSnip" v:prompt="" v:val="VT0(0):5"/>
				<v:ud v:nameU="CTypeBotRightSnip" v:prompt="" v:val="VT0(0):5"/>
				<v:ud v:nameU="CornerLockHoriz" v:prompt="" v:val="VT0(1):5"/>
				<v:ud v:nameU="CornerLockVert" v:prompt="" v:val="VT0(1):5"/>
				<v:ud v:nameU="CornerLockDiag" v:prompt="" v:val="VT0(0):5"/>
				<v:ud v:nameU="TopLeftOffset" v:prompt="" v:val="VT0(0.15748031496063):24"/>
				<v:ud v:nameU="TopRightOffset" v:prompt="" v:val="VT0(0.15748031496063):24"/>
				<v:ud v:nameU="BotLeftOffset" v:prompt="" v:val="VT0(0.15748031496063):24"/>
				<v:ud v:nameU="BotRightOffset" v:prompt="" v:val="VT0(0.15748031496063):24"/>
				<v:ud v:nameU="visVersion" v:prompt="" v:val="VT0(15):26"/>
			</v:userDefs>
			<v:textBlock v:margins="rect(4,4,4,4)" v:tabSpace="42.5197"/>
			<v:textRect cx="65.1724" cy="365.521" width="130.35" height="22.6772"/>
			<path d="M11.34 376.86 L119.01 376.86 A11.3384 11.3384 -180 0 0 130.34 365.52 A11.3384 11.3384 -180 0 0 119.01 354.18
						 L11.34 354.18 A11.3384 11.3384 -180 0 0 0 365.52 A11.3384 11.3384 -180 0 0 11.34 376.86 Z" class="st11"/>
			<text x="18.98" y="362.82" class="st3" v:langID="1033"><v:paragraph v:horizAlign="1"/><v:tabList/>Mosaic to New Raster / <tspan
						x="38.32" dy="1.2em" class="st6">Reproyección</tspan></text>		</g>
		<g id="shape158-138" v:mID="158" v:groupContext="shape" v:layerMember="0" transform="translate(61.7752,-123.233)">
			<title>Dynamic connector.158</title>
			<v:userDefs>
				<v:ud v:nameU="visVersion" v:val="VT0(15):26"/>
			</v:userDefs>
			<path d="M7.09 376.86 C-2.02 376.86 -3.32 402.06 3.17 409.3 L3.49 409.46" class="st10"/>
		</g>
		<g id="shape159-143" v:mID="159" v:groupContext="shape" transform="translate(227.602,-77.535)">
			<title>Rounded Rectangle.159</title>
			<desc>Grilla mosaico</desc>
			<v:userDefs>
				<v:ud v:nameU="CTypeTopLeftSnip" v:prompt="" v:val="VT0(0):5"/>
				<v:ud v:nameU="CTypeTopRightSnip" v:prompt="" v:val="VT0(0):5"/>
				<v:ud v:nameU="CTypeBotLeftSnip" v:prompt="" v:val="VT0(0):5"/>
				<v:ud v:nameU="CTypeBotRightSnip" v:prompt="" v:val="VT0(0):5"/>
				<v:ud v:nameU="CornerLockHoriz" v:prompt="" v:val="VT0(1):5"/>
				<v:ud v:nameU="CornerLockVert" v:prompt="" v:val="VT0(1):5"/>
				<v:ud v:nameU="CornerLockDiag" v:prompt="" v:val="VT0(0):5"/>
				<v:ud v:nameU="TopLeftOffset" v:prompt="" v:val="VT0(0.15748031496063):24"/>
				<v:ud v:nameU="TopRightOffset" v:prompt="" v:val="VT0(0.15748031496063):24"/>
				<v:ud v:nameU="BotLeftOffset" v:prompt="" v:val="VT0(0.15748031496063):24"/>
				<v:ud v:nameU="BotRightOffset" v:prompt="" v:val="VT0(0.15748031496063):24"/>
				<v:ud v:nameU="visVersion" v:prompt="" v:val="VT0(15):26"/>
			</v:userDefs>
			<v:textBlock v:margins="rect(4,4,4,4)" v:tabSpace="42.5197"/>
			<v:textRect cx="65.1724" cy="365.521" width="130.35" height="22.6772"/>
			<path d="M11.34 376.86 L119.01 376.86 A11.3384 11.3384 -180 0 0 130.34 365.52 A11.3384 11.3384 -180 0 0 119.01 354.18
						 L11.34 354.18 A11.3384 11.3384 -180 0 0 0 365.52 A11.3384 11.3384 -180 0 0 11.34 376.86 Z" class="st1"/>
			<text x="37.21" y="368.22" class="st3" v:langID="1033"><v:paragraph v:horizAlign="1"/><v:tabList/>Grilla mosaico</text>		</g>
		<g id="shape160-147" v:mID="160" v:groupContext="shape" transform="translate(227.602,-43.1756)">
			<title>Rounded Rectangle.160</title>
			<desc>Evaluar por simbología Stretched / Histogram Eq.</desc>
			<v:userDefs>
				<v:ud v:nameU="CTypeTopLeftSnip" v:prompt="" v:val="VT0(0):5"/>
				<v:ud v:nameU="CTypeTopRightSnip" v:prompt="" v:val="VT0(0):5"/>
				<v:ud v:nameU="CTypeBotLeftSnip" v:prompt="" v:val="VT0(0):5"/>
				<v:ud v:nameU="CTypeBotRightSnip" v:prompt="" v:val="VT0(0):5"/>
				<v:ud v:nameU="CornerLockHoriz" v:prompt="" v:val="VT0(1):5"/>
				<v:ud v:nameU="CornerLockVert" v:prompt="" v:val="VT0(1):5"/>
				<v:ud v:nameU="CornerLockDiag" v:prompt="" v:val="VT0(0):5"/>
				<v:ud v:nameU="TopLeftOffset" v:prompt="" v:val="VT0(0.15748031496063):24"/>
				<v:ud v:nameU="TopRightOffset" v:prompt="" v:val="VT0(0.15748031496063):24"/>
				<v:ud v:nameU="BotLeftOffset" v:prompt="" v:val="VT0(0.15748031496063):24"/>
				<v:ud v:nameU="BotRightOffset" v:prompt="" v:val="VT0(0.15748031496063):24"/>
				<v:ud v:nameU="visVersion" v:prompt="" v:val="VT0(15):26"/>
			</v:userDefs>
			<v:textBlock v:margins="rect(4,4,4,4)" v:tabSpace="42.5197"/>
			<v:textRect cx="65.1724" cy="365.521" width="130.35" height="22.6772"/>
			<path d="M11.34 376.86 L119.01 376.86 A11.3384 11.3384 -180 0 0 130.34 365.52 A11.3384 11.3384 -180 0 0 119.01 354.18
						 L11.34 354.18 A11.3384 11.3384 -180 0 0 0 365.52 A11.3384 11.3384 -180 0 0 11.34 376.86 Z" class="st1"/>
			<text x="19.74" y="362.82" class="st3" v:langID="1033"><v:paragraph v:horizAlign="1"/><v:tabList/>Evaluar por simbología <tspan
						x="14.1" dy="1.2em" class="st6">Stretched / Histogram Eq.</tspan></text>		</g>
		<g id="shape161-152" v:mID="161" v:groupContext="shape" v:layerMember="0" transform="translate(199.206,-81.7869)">
			<title>Dynamic connector.161</title>
			<v:userDefs>
				<v:ud v:nameU="visVersion" v:val="VT0(15):26"/>
			</v:userDefs>
			<path d="M0 369.77 C5.84 369.77 16.49 369.77 24.03 369.77" class="st7"/>
		</g>
		<g id="shape162-157" v:mID="162" v:groupContext="shape" v:layerMember="0" transform="translate(350.86,-88.8735)">
			<title>Dynamic connector.162</title>
			<v:userDefs>
				<v:ud v:nameU="visVersion" v:val="VT0(15):26"/>
			</v:userDefs>
			<path d="M7.09 376.86 C16.19 376.86 17.5 402.06 11.01 409.3 L10.68 409.46" class="st10"/>
		</g>
		<g id="shape163-162" v:mID="163" v:groupContext="shape" transform="translate(68.8618,-43.1756)">
			<title>Rounded Rectangle.163</title>
			<desc>Visualizar perfil</desc>
			<v:userDefs>
				<v:ud v:nameU="CTypeTopLeftSnip" v:prompt="" v:val="VT0(0):5"/>
				<v:ud v:nameU="CTypeTopRightSnip" v:prompt="" v:val="VT0(0):5"/>
				<v:ud v:nameU="CTypeBotLeftSnip" v:prompt="" v:val="VT0(0):5"/>
				<v:ud v:nameU="CTypeBotRightSnip" v:prompt="" v:val="VT0(0):5"/>
				<v:ud v:nameU="CornerLockHoriz" v:prompt="" v:val="VT0(1):5"/>
				<v:ud v:nameU="CornerLockVert" v:prompt="" v:val="VT0(1):5"/>
				<v:ud v:nameU="CornerLockDiag" v:prompt="" v:val="VT0(0):5"/>
				<v:ud v:nameU="TopLeftOffset" v:prompt="" v:val="VT0(0.15748031496063):24"/>
				<v:ud v:nameU="TopRightOffset" v:prompt="" v:val="VT0(0.15748031496063):24"/>
				<v:ud v:nameU="BotLeftOffset" v:prompt="" v:val="VT0(0.15748031496063):24"/>
				<v:ud v:nameU="BotRightOffset" v:prompt="" v:val="VT0(0.15748031496063):24"/>
				<v:ud v:nameU="visVersion" v:prompt="" v:val="VT0(15):26"/>
			</v:userDefs>
			<v:textBlock v:margins="rect(4,4,4,4)" v:tabSpace="42.5197"/>
			<v:textRect cx="65.1724" cy="365.521" width="130.35" height="22.6772"/>
			<path d="M11.34 376.86 L119.01 376.86 A11.3384 11.3384 -180 0 0 130.34 365.52 A11.3384 11.3384 -180 0 0 119.01 354.18
						 L11.34 354.18 A11.3384 11.3384 -180 0 0 0 365.52 A11.3384 11.3384 -180 0 0 11.34 376.86 Z" class="st1"/>
			<text x="35.09" y="368.22" class="st3" v:langID="1033"><v:paragraph v:horizAlign="1"/><v:tabList/>Visualizar perfil</text>		</g>
		<g id="shape164-166" v:mID="164" v:groupContext="shape" transform="translate(148.232,-9.84707)">
			<title>Rounded Rectangle.164</title>
			<desc>Representar en escena 3D</desc>
			<v:userDefs>
				<v:ud v:nameU="CTypeTopLeftSnip" v:prompt="" v:val="VT0(0):5"/>
				<v:ud v:nameU="CTypeTopRightSnip" v:prompt="" v:val="VT0(0):5"/>
				<v:ud v:nameU="CTypeBotLeftSnip" v:prompt="" v:val="VT0(0):5"/>
				<v:ud v:nameU="CTypeBotRightSnip" v:prompt="" v:val="VT0(0):5"/>
				<v:ud v:nameU="CornerLockHoriz" v:prompt="" v:val="VT0(1):5"/>
				<v:ud v:nameU="CornerLockVert" v:prompt="" v:val="VT0(1):5"/>
				<v:ud v:nameU="CornerLockDiag" v:prompt="" v:val="VT0(0):5"/>
				<v:ud v:nameU="TopLeftOffset" v:prompt="" v:val="VT0(0.15748031496063):24"/>
				<v:ud v:nameU="TopRightOffset" v:prompt="" v:val="VT0(0.15748031496063):24"/>
				<v:ud v:nameU="BotLeftOffset" v:prompt="" v:val="VT0(0.15748031496063):24"/>
				<v:ud v:nameU="BotRightOffset" v:prompt="" v:val="VT0(0.15748031496063):24"/>
				<v:ud v:nameU="visVersion" v:prompt="" v:val="VT0(15):26"/>
			</v:userDefs>
			<v:textBlock v:margins="rect(4,4,4,4)" v:tabSpace="42.5197"/>
			<v:textRect cx="65.1724" cy="365.521" width="130.35" height="22.6772"/>
			<path d="M11.34 376.86 L119.01 376.86 A11.3384 11.3384 -180 0 0 130.34 365.52 A11.3384 11.3384 -180 0 0 119.01 354.18
						 L11.34 354.18 A11.3384 11.3384 -180 0 0 0 365.52 A11.3384 11.3384 -180 0 0 11.34 376.86 Z" class="st1"/>
			<text x="13.67" y="368.22" class="st3" v:langID="1033"><v:paragraph v:horizAlign="1"/><v:tabList/>Representar en escena 3D</text>		</g>
		<g id="shape165-170" v:mID="165" v:groupContext="shape" transform="translate(386.342,-43.1756)">
			<title>Rounded Rectangle.165</title>
			<desc>Hillshade</desc>
			<v:userDefs>
				<v:ud v:nameU="CTypeTopLeftSnip" v:prompt="" v:val="VT0(0):5"/>
				<v:ud v:nameU="CTypeTopRightSnip" v:prompt="" v:val="VT0(0):5"/>
				<v:ud v:nameU="CTypeBotLeftSnip" v:prompt="" v:val="VT0(0):5"/>
				<v:ud v:nameU="CTypeBotRightSnip" v:prompt="" v:val="VT0(0):5"/>
				<v:ud v:nameU="CornerLockHoriz" v:prompt="" v:val="VT0(1):5"/>
				<v:ud v:nameU="CornerLockVert" v:prompt="" v:val="VT0(1):5"/>
				<v:ud v:nameU="CornerLockDiag" v:prompt="" v:val="VT0(0):5"/>
				<v:ud v:nameU="TopLeftOffset" v:prompt="" v:val="VT0(0.15748031496063):24"/>
				<v:ud v:nameU="TopRightOffset" v:prompt="" v:val="VT0(0.15748031496063):24"/>
				<v:ud v:nameU="BotLeftOffset" v:prompt="" v:val="VT0(0.15748031496063):24"/>
				<v:ud v:nameU="BotRightOffset" v:prompt="" v:val="VT0(0.15748031496063):24"/>
				<v:ud v:nameU="visVersion" v:prompt="" v:val="VT0(15):26"/>
			</v:userDefs>
			<v:textBlock v:margins="rect(4,4,4,4)" v:tabSpace="42.5197"/>
			<v:textRect cx="29.7393" cy="365.521" width="59.48" height="22.6772"/>
			<path d="M11.34 376.86 L48.14 376.86 A11.3384 11.3384 -180 0 0 59.48 365.52 A11.3384 11.3384 -180 0 0 48.14 354.18 L11.34
						 354.18 A11.3384 11.3384 -180 0 0 0 365.52 A11.3384 11.3384 -180 0 0 11.34 376.86 Z" class="st11"/>
			<text x="11.53" y="368.22" class="st3" v:langID="1033"><v:paragraph v:horizAlign="1"/><v:tabList/>Hillshade</text>		</g>
		<g id="shape166-174" v:mID="166" v:groupContext="shape" v:layerMember="0" transform="translate(357.947,-88.8735)">
			<title>Dynamic connector.166</title>
			<v:userDefs>
				<v:ud v:nameU="visVersion" v:val="VT0(15):26"/>
			</v:userDefs>
			<path d="M0 376.86 C14.53 376.86 38.58 376.86 49.37 382.11 C56.05 385.37 57.64 390.64 58.02 395.52 L58.03 395.88"
					class="st10"/>
		</g>
		<g id="shape167-179" v:mID="167" v:groupContext="shape" v:layerMember="0" transform="translate(227.602,-47.4276)">
			<title>Dynamic connector.167</title>
			<v:userDefs>
				<v:ud v:nameU="visVersion" v:val="VT0(15):26"/>
			</v:userDefs>
			<path d="M0 369.77 C-5.84 369.77 -16.49 369.77 -24.03 369.77" class="st7"/>
		</g>
		<g id="shape169-184" v:mID="169" v:groupContext="shape" v:layerMember="0" transform="translate(68.8618,-54.5142)">
			<title>Dynamic connector.169</title>
			<v:userDefs>
				<v:ud v:nameU="visVersion" v:val="VT0(15):26"/>
			</v:userDefs>
			<path d="M0 376.86 C-10.63 376.86 -10.63 410.19 79.37 410.19" class="st13"/>
		</g>
		<g id="shape170-190" v:mID="170" v:groupContext="shape" transform="translate(227.602,-146.254)">
			<title>Rounded Rectangle.175</title>
			<desc>Descarga mediante script .sh</desc>
			<v:userDefs>
				<v:ud v:nameU="CTypeTopLeftSnip" v:prompt="" v:val="VT0(0):5"/>
				<v:ud v:nameU="CTypeTopRightSnip" v:prompt="" v:val="VT0(0):5"/>
				<v:ud v:nameU="CTypeBotLeftSnip" v:prompt="" v:val="VT0(0):5"/>
				<v:ud v:nameU="CTypeBotRightSnip" v:prompt="" v:val="VT0(0):5"/>
				<v:ud v:nameU="CornerLockHoriz" v:prompt="" v:val="VT0(1):5"/>
				<v:ud v:nameU="CornerLockVert" v:prompt="" v:val="VT0(1):5"/>
				<v:ud v:nameU="CornerLockDiag" v:prompt="" v:val="VT0(0):5"/>
				<v:ud v:nameU="TopLeftOffset" v:prompt="" v:val="VT0(0.15748031496063):24"/>
				<v:ud v:nameU="TopRightOffset" v:prompt="" v:val="VT0(0.15748031496063):24"/>
				<v:ud v:nameU="BotLeftOffset" v:prompt="" v:val="VT0(0.15748031496063):24"/>
				<v:ud v:nameU="BotRightOffset" v:prompt="" v:val="VT0(0.15748031496063):24"/>
				<v:ud v:nameU="visVersion" v:prompt="" v:val="VT0(15):26"/>
			</v:userDefs>
			<v:textBlock v:margins="rect(4,4,4,4)" v:tabSpace="42.5197"/>
			<v:textRect cx="65.1724" cy="365.521" width="130.35" height="22.6772"/>
			<path d="M11.34 376.86 L119.01 376.86 A11.3384 11.3384 -180 0 0 130.34 365.52 A11.3384 11.3384 -180 0 0 119.01 354.18
						 L11.34 354.18 A11.3384 11.3384 -180 0 0 0 365.52 A11.3384 11.3384 -180 0 0 11.34 376.86 Z" class="st14"/>
			<text x="8.26" y="368.22" class="st3" v:langID="1033"><v:paragraph v:horizAlign="1"/><v:tabList/>Descarga mediante script .sh</text>		</g>
		<g id="shape171-194" v:mID="171" v:groupContext="shape" v:layerMember="0" transform="translate(285.688,-182.932)">
			<title>Dynamic connector.176</title>
			<v:userDefs>
				<v:ud v:nameU="visVersion" v:val="VT0(15):26"/>
			</v:userDefs>
			<path d="M7.09 377.03 C7.09 379.33 7.09 383.17 7.09 386.5" class="st15"/>
		</g>
		<g id="shape172-199" v:mID="172" v:groupContext="shape" v:layerMember="0" transform="translate(285.688,-147.499)">
			<title>Dynamic connector.172</title>
			<v:userDefs>
				<v:ud v:nameU="visVersion" v:val="VT0(15):26"/>
			</v:userDefs>
			<path d="M7.09 378.1 C7.09 379.9 7.09 382.78 7.09 385.42" class="st15"/>
		</g>
	</g>
</svg>
