<?xml version="1.0" encoding="UTF-8" standalone="no"?>
<!DOCTYPE svg PUBLIC "-//W3C//DTD SVG 1.1//EN" "http://www.w3.org/Graphics/SVG/1.1/DTD/svg11.dtd">
<!-- Generated by Microsoft Visio, SVG Export RemoteSensing.svg Page-1 -->
<svg xmlns="http://www.w3.org/2000/svg" xmlns:xlink="http://www.w3.org/1999/xlink" xmlns:ev="http://www.w3.org/2001/xml-events"
		xmlns:v="http://schemas.microsoft.com/visio/2003/SVGExtensions/" width="4.32971in" height="8.14051in"
		viewBox="0 0 311.739 586.117" xml:space="preserve" color-interpolation-filters="sRGB" class="st16">
	<v:documentProperties v:langID="1033" v:metric="true" v:viewMarkup="false"/>

	<style type="text/css">
	<![CDATA[
		.st1 {fill:#f2f2f2;stroke:#ea4d35;stroke-dasharray:0.01,4.5;stroke-width:1.5}
		.st2 {fill:#ea4d35;fill-opacity:1;stroke:#ea4d35;stroke-opacity:1;stroke-width:0.37313432835821}
		.st3 {fill:#000000;font-family:Segoe UI;font-size:0.75em}
		.st4 {font-size:1em}
		.st5 {marker-end:url(#mrkr6-13);stroke:#7f7f7f;stroke-linecap:round;stroke-linejoin:round;stroke-width:0.5}
		.st6 {fill:#7f7f7f;fill-opacity:1;stroke:#7f7f7f;stroke-opacity:1;stroke-width:0.25773195876289}
		.st7 {fill:#ffffff;stroke:none;stroke-linecap:butt}
		.st8 {fill:#3d64ac;font-family:Segoe UI;font-size:0.499992em}
		.st9 {marker-end:url(#mrkr6-21);stroke:#7f7f7f;stroke-linecap:round;stroke-linejoin:round;stroke-width:0.5}
		.st10 {fill:#ffffff;stroke:none;stroke-linecap:butt;stroke-width:7.2}
		.st11 {fill:#f2f2f2;stroke:none;stroke-width:1.5}
		.st12 {fill:#fbbc0e;fill-opacity:1;stroke:#fbbc0e;stroke-opacity:1;stroke-width:0.37313432835821}
		.st13 {fill:#f2f2f2;stroke:#696368;stroke-width:1.5}
		.st14 {fill:#696368;fill-opacity:1;stroke:#696368;stroke-opacity:1;stroke-width:0.37313432835821}
		.st15 {fill:#f2f2f2;stroke:#fbbc0e;stroke-width:1.5}
		.st16 {fill:none;fill-rule:evenodd;font-size:12px;overflow:visible;stroke-linecap:square;stroke-miterlimit:3}
	]]>
	</style>

	<defs id="Markers">
		<g id="lend6">
			<path d="M 2 1 L 0 0 L 2.01237 -1.00641 C 2.32921 -0.372876 2.32921 0.372869 2.01238 1.0064 " style="stroke:none"/>
		</g>
		<marker id="mrkr6-4" class="st2" v:arrowType="6" v:arrowSize="2" v:setback="6.03" refX="6.03" orient="auto"
				markerUnits="strokeWidth" overflow="visible">
			<use xlink:href="#lend6" transform="scale(2.68) "/>
		</marker>
		<marker id="mrkr6-13" class="st6" v:arrowType="6" v:arrowSize="0" v:setback="8.73" refX="-8.73" orient="auto"
				markerUnits="strokeWidth" overflow="visible">
			<use xlink:href="#lend6" transform="scale(-3.88,-3.88) "/>
		</marker>
		<marker id="mrkr6-21" class="st6" v:arrowType="6" v:arrowSize="0" v:setback="8.01" refX="-8.01" orient="auto"
				markerUnits="strokeWidth" overflow="visible">
			<use xlink:href="#lend6" transform="scale(-3.88,-3.88) "/>
		</marker>
		<marker id="mrkr6-27" class="st12" v:arrowType="6" v:arrowSize="2" v:setback="6.03" refX="6.03" orient="auto"
				markerUnits="strokeWidth" overflow="visible">
			<use xlink:href="#lend6" transform="scale(2.68) "/>
		</marker>
		<marker id="mrkr6-37" class="st14" v:arrowType="6" v:arrowSize="2" v:setback="6.03" refX="6.03" orient="auto"
				markerUnits="strokeWidth" overflow="visible">
			<use xlink:href="#lend6" transform="scale(2.68) "/>
		</marker>
	</defs>
	<g v:mID="0" v:index="1" v:groupContext="foregroundPage">
		<title>Page-1</title>
		<v:pageProperties v:drawingScale="0.0393701" v:pageScale="0.0393701" v:drawingUnits="24" v:shadowOffsetX="8.50394"
				v:shadowOffsetY="-8.50394"/>
		<v:layer v:name="Flowchart" v:index="0"/>
		<v:layer v:name="Connector" v:index="1"/>
		<g id="shape555-1" v:mID="555" v:groupContext="shape" v:layerMember="0" transform="translate(100.484,-437.416)">
			<title>Decision 2.555</title>
			<desc>Year &#62;= Year start &#38; &#60;= Year end</desc>
			<v:custProps>
				<v:cp v:nameU="Cost" v:lbl="Cost" v:type="7" v:format="@" v:langID="1033"/>
				<v:cp v:nameU="Duration" v:lbl="Duration" v:type="2" v:langID="1033"/>
				<v:cp v:nameU="Resources" v:lbl="Resources" v:langID="1033"/>
			</v:custProps>
			<v:userDefs>
				<v:ud v:nameU="visVersion" v:val="VT0(15):26"/>
			</v:userDefs>
			<v:textBlock v:margins="rect(4,4,4,4)" v:tabSpace="42.5197"/>
			<v:textRect cx="52.689" cy="553.984" width="79.04" height="56.2314"/>
			<path d="M0 553.98 L52.69 521.85 L105.38 553.98 L52.69 586.12 L0 553.98 Z" class="st1"/>
			<text x="26.68" y="545.88" class="st3" v:langID="1033"><v:paragraph v:horizAlign="1"/><v:tabList/>Year &#62;= Year <tspan
						x="21.73" dy="1.2em" class="st4">start &#38; &#60;= Year </tspan><tspan x="45.14" dy="1.2em" class="st4">end</tspan></text>		</g>
		<g id="shape558-8" v:mID="558" v:groupContext="shape" v:layerMember="1" transform="translate(146.263,-437.416)">
			<title>Dynamic connector.558</title>
			<desc>S</desc>
			<v:userDefs>
				<v:ud v:nameU="visVersion" v:val="VT0(15):26"/>
			</v:userDefs>
			<v:textBlock v:margins="rect(4,4,4,4)" v:tabSpace="42.5197"/>
			<v:textRect cx="6.90992" cy="595.115" width="30" height="15.2035"/>
			<path d="M6.91 586.12 C6.91 591.43 6.91 593.2 6.91 594.71 C6.91 595.47 6.91 596.16 6.99 596.48 C7.05 596.75 7.17 596.75
						 7.22 597.04 C7.26 597.28 7.26 597.71 7.26 598.2 C7.26 598.61 7.26 599.05 7.26 599.69" class="st5"/>
			<rect v:rectContext="textBkgnd" x="5.31626" y="591.515" width="3.18741" height="7.20016" class="st7"/>
			<text x="5.32" y="596.92" class="st8" v:langID="1033"><v:paragraph v:horizAlign="1"/><v:tabList/>S</text>		</g>
		<g id="shape560-16" v:mID="560" v:groupContext="shape" v:layerMember="1" transform="translate(100.484,-469.548)">
			<title>Dynamic connector.560</title>
			<desc>N</desc>
			<v:userDefs>
				<v:ud v:nameU="visVersion" v:val="VT0(15):26"/>
			</v:userDefs>
			<v:textBlock v:margins="rect(4,4,4,4)" v:tabSpace="42.5197"/>
			<v:textRect cx="-85.7909" cy="681.88" width="30" height="15.2035"/>
			<path d="M0 586.12 C-85.79 586.12 -85.79 640.99 -85.79 680.75 C-85.79 728.68 -85.79 754.63 -85.79 790.13 C-85.79 805.24
						 -85.79 822.07 -79.32 826.85 L-78.98 826.96" class="st9"/>
			<rect v:rectContext="textBkgnd" x="-88.035" y="678.28" width="4.48819" height="7.20016" class="st10"/>
			<text x="-88.03" y="683.68" class="st8" v:langID="1033"><v:paragraph v:horizAlign="1"/><v:tabList/>N</text>		</g>
		<g id="shape577-24" v:mID="577" v:groupContext="shape" transform="translate(90.8104,-553.592)">
			<title>Rounded Rectangle.577</title>
			<desc>Start</desc>
			<v:userDefs>
				<v:ud v:nameU="CTypeTopLeftSnip" v:prompt="" v:val="VT0(0):5"/>
				<v:ud v:nameU="CTypeTopRightSnip" v:prompt="" v:val="VT0(0):5"/>
				<v:ud v:nameU="CTypeBotLeftSnip" v:prompt="" v:val="VT0(0):5"/>
				<v:ud v:nameU="CTypeBotRightSnip" v:prompt="" v:val="VT0(0):5"/>
				<v:ud v:nameU="CornerLockHoriz" v:prompt="" v:val="VT0(1):5"/>
				<v:ud v:nameU="CornerLockVert" v:prompt="" v:val="VT0(1):5"/>
				<v:ud v:nameU="CornerLockDiag" v:prompt="" v:val="VT0(0):5"/>
				<v:ud v:nameU="TopLeftOffset" v:prompt="" v:val="VT0(0.15748031496063):24"/>
				<v:ud v:nameU="TopRightOffset" v:prompt="" v:val="VT0(0.15748031496063):24"/>
				<v:ud v:nameU="BotLeftOffset" v:prompt="" v:val="VT0(0.15748031496063):24"/>
				<v:ud v:nameU="BotRightOffset" v:prompt="" v:val="VT0(0.15748031496063):24"/>
				<v:ud v:nameU="visVersion" v:prompt="" v:val="VT0(15):26"/>
			</v:userDefs>
			<v:textBlock v:margins="rect(4,4,4,4)" v:tabSpace="42.5197"/>
			<v:textRect cx="62.3622" cy="574.778" width="124.73" height="22.6772"/>
			<path d="M11.34 586.12 L113.39 586.12 A11.3384 11.3384 -180 0 0 124.72 574.78 A11.3384 11.3384 -180 0 0 113.39 563.44
						 L11.34 563.44 A11.3384 11.3384 -180 0 0 0 574.78 A11.3384 11.3384 -180 0 0 11.34 586.12 Z" class="st11"/>
			<text x="53.07" y="577.48" class="st3" v:langID="1033"><v:paragraph v:horizAlign="1"/><v:tabList/>Start</text>		</g>
		<g id="shape578-29" v:mID="578" v:groupContext="shape" v:layerMember="1" transform="translate(153.173,-553.592)">
			<title>Dynamic connector.578</title>
			<v:userDefs>
				<v:ud v:nameU="visVersion" v:val="VT0(15):26"/>
			</v:userDefs>
			<path d="M0 586.12 C-0 591.43 -5.95 591.43 -11.23 591.43 C-21.67 591.43 -29.48 591.43 -44.26 591.43 C-53.61 591.43 -65.74
						 591.43 -69.62 596.96 L-69.72 597.31" class="st9"/>
		</g>
		<g id="shape589-34" v:mID="589" v:groupContext="shape" transform="translate(19.9442,-515.888)">
			<title>Rounded Rectangle.589</title>
			<desc>IDEAMJoined.csv</desc>
			<v:userDefs>
				<v:ud v:nameU="CTypeTopLeftSnip" v:prompt="" v:val="VT0(0):5"/>
				<v:ud v:nameU="CTypeTopRightSnip" v:prompt="" v:val="VT0(0):5"/>
				<v:ud v:nameU="CTypeBotLeftSnip" v:prompt="" v:val="VT0(0):5"/>
				<v:ud v:nameU="CTypeBotRightSnip" v:prompt="" v:val="VT0(0):5"/>
				<v:ud v:nameU="CornerLockHoriz" v:prompt="" v:val="VT0(1):5"/>
				<v:ud v:nameU="CornerLockVert" v:prompt="" v:val="VT0(1):5"/>
				<v:ud v:nameU="CornerLockDiag" v:prompt="" v:val="VT0(0):5"/>
				<v:ud v:nameU="TopLeftOffset" v:prompt="" v:val="VT0(0.15748031496063):24"/>
				<v:ud v:nameU="TopRightOffset" v:prompt="" v:val="VT0(0.15748031496063):24"/>
				<v:ud v:nameU="BotLeftOffset" v:prompt="" v:val="VT0(0.15748031496063):24"/>
				<v:ud v:nameU="BotRightOffset" v:prompt="" v:val="VT0(0.15748031496063):24"/>
				<v:ud v:nameU="visVersion" v:prompt="" v:val="VT0(15):26"/>
			</v:userDefs>
			<v:textBlock v:margins="rect(4,4,4,4)" v:tabSpace="42.5197"/>
			<v:textRect cx="62.3622" cy="574.778" width="124.73" height="22.6772"/>
			<path d="M11.34 586.12 L113.39 586.12 A11.3384 11.3384 -180 0 0 124.72 574.78 A11.3384 11.3384 -180 0 0 113.39 563.44
						 L11.34 563.44 A11.3384 11.3384 -180 0 0 0 574.78 A11.3384 11.3384 -180 0 0 11.34 586.12 Z" class="st13"/>
			<text x="28.79" y="577.48" class="st3" v:langID="1033"><v:paragraph v:horizAlign="1"/><v:tabList/>IDEAMJoined.csv</text>		</g>
		<g id="shape592-39" v:mID="592" v:groupContext="shape" transform="translate(165.928,-515.888)">
			<title>Rounded Rectangle.592</title>
			<desc>Year start Year end</desc>
			<v:userDefs>
				<v:ud v:nameU="CTypeTopLeftSnip" v:prompt="" v:val="VT0(0):5"/>
				<v:ud v:nameU="CTypeTopRightSnip" v:prompt="" v:val="VT0(0):5"/>
				<v:ud v:nameU="CTypeBotLeftSnip" v:prompt="" v:val="VT0(0):5"/>
				<v:ud v:nameU="CTypeBotRightSnip" v:prompt="" v:val="VT0(0):5"/>
				<v:ud v:nameU="CornerLockHoriz" v:prompt="" v:val="VT0(1):5"/>
				<v:ud v:nameU="CornerLockVert" v:prompt="" v:val="VT0(1):5"/>
				<v:ud v:nameU="CornerLockDiag" v:prompt="" v:val="VT0(0):5"/>
				<v:ud v:nameU="TopLeftOffset" v:prompt="" v:val="VT0(0.15748031496063):24"/>
				<v:ud v:nameU="TopRightOffset" v:prompt="" v:val="VT0(0.15748031496063):24"/>
				<v:ud v:nameU="BotLeftOffset" v:prompt="" v:val="VT0(0.15748031496063):24"/>
				<v:ud v:nameU="BotRightOffset" v:prompt="" v:val="VT0(0.15748031496063):24"/>
				<v:ud v:nameU="visVersion" v:prompt="" v:val="VT0(15):26"/>
			</v:userDefs>
			<v:textBlock v:margins="rect(4,4,4,4)" v:tabSpace="42.5197"/>
			<v:textRect cx="62.3622" cy="574.778" width="124.73" height="22.6772"/>
			<path d="M11.34 586.12 L113.39 586.12 A11.3384 11.3384 -180 0 0 124.72 574.78 A11.3384 11.3384 -180 0 0 113.39 563.44
						 L11.34 563.44 A11.3384 11.3384 -180 0 0 0 574.78 A11.3384 11.3384 -180 0 0 11.34 586.12 Z" class="st15"/>
			<text x="43.62" y="572.08" class="st3" v:langID="1033"><v:paragraph v:horizAlign="1"/><v:tabList/>Year start<v:newlineChar/><tspan
						x="44.89" dy="1.2em" class="st4">Year end</tspan></text>		</g>
		<g id="shape593-44" v:mID="593" v:groupContext="shape" v:layerMember="1" transform="translate(153.173,-553.592)">
			<title>Dynamic connector.593</title>
			<v:userDefs>
				<v:ud v:nameU="visVersion" v:val="VT0(15):26"/>
			</v:userDefs>
			<path d="M0 586.12 C0 591.43 6.3 591.43 11.89 591.43 C22.96 591.43 31.25 591.43 46.94 591.43 C56.85 591.43 69.72 591.43
						 73.81 596.98 L73.92 597.32" class="st9"/>
		</g>
		<g id="shape594-49" v:mID="594" v:groupContext="shape" v:layerMember="0" transform="translate(100.838,-379.229)">
			<title>Decision 2.594</title>
			<desc>Month &#60;= 12</desc>
			<v:custProps>
				<v:cp v:nameU="Cost" v:lbl="Cost" v:type="7" v:format="@" v:langID="1033"/>
				<v:cp v:nameU="Duration" v:lbl="Duration" v:type="2" v:langID="1033"/>
				<v:cp v:nameU="Resources" v:lbl="Resources" v:langID="1033"/>
			</v:custProps>
			<v:userDefs>
				<v:ud v:nameU="visVersion" v:val="VT0(15):26"/>
			</v:userDefs>
			<v:textBlock v:margins="rect(4,4,4,4)" v:tabSpace="42.5197"/>
			<v:textRect cx="52.689" cy="565.992" width="79.04" height="35.2177"/>
			<path d="M0 565.99 L52.69 545.87 L105.38 565.99 L52.69 586.12 L0 565.99 Z" class="st1"/>
			<text x="25.92" y="568.69" class="st3" v:langID="1033"><v:paragraph v:horizAlign="1"/><v:tabList/>Month &#60;= 12</text>		</g>
		<g id="shape596-53" v:mID="596" v:groupContext="shape" transform="translate(25.3226,-344.215)">
			<title>Rounded Rectangle.596</title>
			<desc>Request CHIRPS file .gz</desc>
			<v:userDefs>
				<v:ud v:nameU="CTypeTopLeftSnip" v:prompt="" v:val="VT0(0):5"/>
				<v:ud v:nameU="CTypeTopRightSnip" v:prompt="" v:val="VT0(0):5"/>
				<v:ud v:nameU="CTypeBotLeftSnip" v:prompt="" v:val="VT0(0):5"/>
				<v:ud v:nameU="CTypeBotRightSnip" v:prompt="" v:val="VT0(0):5"/>
				<v:ud v:nameU="CornerLockHoriz" v:prompt="" v:val="VT0(1):5"/>
				<v:ud v:nameU="CornerLockVert" v:prompt="" v:val="VT0(1):5"/>
				<v:ud v:nameU="CornerLockDiag" v:prompt="" v:val="VT0(0):5"/>
				<v:ud v:nameU="TopLeftOffset" v:prompt="" v:val="VT0(0.15748031496063):24"/>
				<v:ud v:nameU="TopRightOffset" v:prompt="" v:val="VT0(0.15748031496063):24"/>
				<v:ud v:nameU="BotLeftOffset" v:prompt="" v:val="VT0(0.15748031496063):24"/>
				<v:ud v:nameU="BotRightOffset" v:prompt="" v:val="VT0(0.15748031496063):24"/>
				<v:ud v:nameU="visVersion" v:prompt="" v:val="VT0(15):26"/>
			</v:userDefs>
			<v:textBlock v:margins="rect(4,4,4,4)" v:tabSpace="42.5197"/>
			<v:textRect cx="62.3622" cy="574.778" width="124.73" height="22.6772"/>
			<path d="M11.34 586.12 L113.39 586.12 A11.3384 11.3384 -180 0 0 124.72 574.78 A11.3384 11.3384 -180 0 0 113.39 563.44
						 L11.34 563.44 A11.3384 11.3384 -180 0 0 0 574.78 A11.3384 11.3384 -180 0 0 11.34 586.12 Z" class="st1"/>
			<text x="16.25" y="577.48" class="st3" v:langID="1033"><v:paragraph v:horizAlign="1"/><v:tabList/>Request CHIRPS file .gz</text>		</g>
		<g id="shape597-57" v:mID="597" v:groupContext="shape" v:layerMember="1" transform="translate(82.3064,-515.888)">
			<title>Dynamic connector.597</title>
			<v:userDefs>
				<v:ud v:nameU="visVersion" v:val="VT0(15):26"/>
			</v:userDefs>
			<path d="M0 586.12 C0 591.43 5.95 591.43 11.23 591.43 C21.67 591.43 29.49 591.43 44.3 591.43 C53.46 591.43 65.29 591.43
						 69.39 596.22 L69.51 596.55" class="st9"/>
		</g>
		<g id="shape598-62" v:mID="598" v:groupContext="shape" v:layerMember="1" transform="translate(228.291,-515.888)">
			<title>Dynamic connector.598</title>
			<v:userDefs>
				<v:ud v:nameU="visVersion" v:val="VT0(15):26"/>
			</v:userDefs>
			<path d="M0 586.12 C-0 591.43 -6.3 591.43 -11.89 591.43 C-22.97 591.43 -31.26 591.43 -46.98 591.43 C-56.7 591.43 -69.26
						 591.43 -73.58 596.24 L-73.71 596.58" class="st9"/>
		</g>
		<g id="shape599-67" v:mID="599" v:groupContext="shape" v:layerMember="1" transform="translate(101.348,-399.353)">
			<title>Dynamic connector.599</title>
			<desc>S</desc>
			<v:userDefs>
				<v:ud v:nameU="visVersion" v:val="VT0(15):26"/>
			</v:userDefs>
			<v:textBlock v:margins="rect(4,4,4,4)" v:tabSpace="42.5197"/>
			<v:textRect cx="-12.7193" cy="598.646" width="30" height="15.2035"/>
			<path d="M-0.51 586.12 C-3.8 586.12 -8.23 586.12 -10.67 591.03 C-13.17 596.07 -13.58 606.26 -13.65 614.21 L-13.65 614.57"
					class="st9"/>
			<rect v:rectContext="textBkgnd" x="-14.3129" y="595.046" width="3.18741" height="7.20016" class="st10"/>
			<text x="-14.31" y="600.45" class="st8" v:langID="1033"><v:paragraph v:horizAlign="1"/><v:tabList/>S</text>		</g>
		<g id="shape600-74" v:mID="600" v:groupContext="shape" transform="translate(161.386,-344.215)">
			<title>Rounded Rectangle.600</title>
			<desc>Uncompress CHIRPS file .tif</desc>
			<v:userDefs>
				<v:ud v:nameU="CTypeTopLeftSnip" v:prompt="" v:val="VT0(0):5"/>
				<v:ud v:nameU="CTypeTopRightSnip" v:prompt="" v:val="VT0(0):5"/>
				<v:ud v:nameU="CTypeBotLeftSnip" v:prompt="" v:val="VT0(0):5"/>
				<v:ud v:nameU="CTypeBotRightSnip" v:prompt="" v:val="VT0(0):5"/>
				<v:ud v:nameU="CornerLockHoriz" v:prompt="" v:val="VT0(1):5"/>
				<v:ud v:nameU="CornerLockVert" v:prompt="" v:val="VT0(1):5"/>
				<v:ud v:nameU="CornerLockDiag" v:prompt="" v:val="VT0(0):5"/>
				<v:ud v:nameU="TopLeftOffset" v:prompt="" v:val="VT0(0.15748031496063):24"/>
				<v:ud v:nameU="TopRightOffset" v:prompt="" v:val="VT0(0.15748031496063):24"/>
				<v:ud v:nameU="BotLeftOffset" v:prompt="" v:val="VT0(0.15748031496063):24"/>
				<v:ud v:nameU="BotRightOffset" v:prompt="" v:val="VT0(0.15748031496063):24"/>
				<v:ud v:nameU="visVersion" v:prompt="" v:val="VT0(15):26"/>
			</v:userDefs>
			<v:textBlock v:margins="rect(4,4,4,4)" v:tabSpace="42.5197"/>
			<v:textRect cx="62.3622" cy="574.778" width="124.73" height="22.6772"/>
			<path d="M11.34 586.12 L113.39 586.12 A11.3384 11.3384 -180 0 0 124.72 574.78 A11.3384 11.3384 -180 0 0 113.39 563.44
						 L11.34 563.44 A11.3384 11.3384 -180 0 0 0 574.78 A11.3384 11.3384 -180 0 0 11.34 586.12 Z" class="st1"/>
			<text x="8.33" y="577.48" class="st3" v:langID="1033"><v:paragraph v:horizAlign="1"/><v:tabList/>Uncompress CHIRPS file .tif</text>		</g>
		<g id="shape601-78" v:mID="601" v:groupContext="shape" v:layerMember="1" transform="translate(148.63,-348.467)">
			<title>Dynamic connector.601</title>
			<v:userDefs>
				<v:ud v:nameU="visVersion" v:val="VT0(15):26"/>
			</v:userDefs>
			<path d="M1.42 579.03 C3.13 579.03 5.86 579.03 8.39 579.03" class="st5"/>
		</g>
		<g id="shape602-83" v:mID="602" v:groupContext="shape" transform="translate(161.386,-304.315)">
			<title>Rounded Rectangle.602</title>
			<desc>Slice IDEAM file by month per year</desc>
			<v:userDefs>
				<v:ud v:nameU="CTypeTopLeftSnip" v:prompt="" v:val="VT0(0):5"/>
				<v:ud v:nameU="CTypeTopRightSnip" v:prompt="" v:val="VT0(0):5"/>
				<v:ud v:nameU="CTypeBotLeftSnip" v:prompt="" v:val="VT0(0):5"/>
				<v:ud v:nameU="CTypeBotRightSnip" v:prompt="" v:val="VT0(0):5"/>
				<v:ud v:nameU="CornerLockHoriz" v:prompt="" v:val="VT0(1):5"/>
				<v:ud v:nameU="CornerLockVert" v:prompt="" v:val="VT0(1):5"/>
				<v:ud v:nameU="CornerLockDiag" v:prompt="" v:val="VT0(0):5"/>
				<v:ud v:nameU="TopLeftOffset" v:prompt="" v:val="VT0(0.15748031496063):24"/>
				<v:ud v:nameU="TopRightOffset" v:prompt="" v:val="VT0(0.15748031496063):24"/>
				<v:ud v:nameU="BotLeftOffset" v:prompt="" v:val="VT0(0.15748031496063):24"/>
				<v:ud v:nameU="BotRightOffset" v:prompt="" v:val="VT0(0.15748031496063):24"/>
				<v:ud v:nameU="visVersion" v:prompt="" v:val="VT0(15):26"/>
			</v:userDefs>
			<v:textBlock v:margins="rect(4,4,4,4)" v:tabSpace="42.5197"/>
			<v:textRect cx="62.3622" cy="574.778" width="124.73" height="22.6772"/>
			<path d="M11.34 586.12 L113.39 586.12 A11.3384 11.3384 -180 0 0 124.72 574.78 A11.3384 11.3384 -180 0 0 113.39 563.44
						 L11.34 563.44 A11.3384 11.3384 -180 0 0 0 574.78 A11.3384 11.3384 -180 0 0 11.34 586.12 Z" class="st1"/>
			<text x="10.96" y="572.08" class="st3" v:langID="1033"><v:paragraph v:horizAlign="1"/><v:tabList/>Slice IDEAM file by month <tspan
						x="46.18" dy="1.2em" class="st4">per year</tspan></text>		</g>
		<g id="shape603-88" v:mID="603" v:groupContext="shape" v:layerMember="1" transform="translate(216.661,-344.215)">
			<title>Dynamic connector.603</title>
			<v:userDefs>
				<v:ud v:nameU="visVersion" v:val="VT0(15):26"/>
			</v:userDefs>
			<path d="M7.09 586.12 C7.09 589.23 7.09 594.61 7.09 598.97" class="st5"/>
		</g>
		<g id="shape604-93" v:mID="604" v:groupContext="shape" transform="translate(25.3226,-304.315)">
			<title>Rounded Rectangle.604</title>
			<desc>Read CHIRPS values per station. Save as .csv</desc>
			<v:userDefs>
				<v:ud v:nameU="CTypeTopLeftSnip" v:prompt="" v:val="VT0(0):5"/>
				<v:ud v:nameU="CTypeTopRightSnip" v:prompt="" v:val="VT0(0):5"/>
				<v:ud v:nameU="CTypeBotLeftSnip" v:prompt="" v:val="VT0(0):5"/>
				<v:ud v:nameU="CTypeBotRightSnip" v:prompt="" v:val="VT0(0):5"/>
				<v:ud v:nameU="CornerLockHoriz" v:prompt="" v:val="VT0(1):5"/>
				<v:ud v:nameU="CornerLockVert" v:prompt="" v:val="VT0(1):5"/>
				<v:ud v:nameU="CornerLockDiag" v:prompt="" v:val="VT0(0):5"/>
				<v:ud v:nameU="TopLeftOffset" v:prompt="" v:val="VT0(0.15748031496063):24"/>
				<v:ud v:nameU="TopRightOffset" v:prompt="" v:val="VT0(0.15748031496063):24"/>
				<v:ud v:nameU="BotLeftOffset" v:prompt="" v:val="VT0(0.15748031496063):24"/>
				<v:ud v:nameU="BotRightOffset" v:prompt="" v:val="VT0(0.15748031496063):24"/>
				<v:ud v:nameU="visVersion" v:prompt="" v:val="VT0(15):26"/>
			</v:userDefs>
			<v:textBlock v:margins="rect(4,4,4,4)" v:tabSpace="42.5197"/>
			<v:textRect cx="62.3622" cy="574.778" width="124.73" height="22.6772"/>
			<path d="M11.34 586.12 L113.39 586.12 A11.3384 11.3384 -180 0 0 124.72 574.78 A11.3384 11.3384 -180 0 0 113.39 563.44
						 L11.34 563.44 A11.3384 11.3384 -180 0 0 0 574.78 A11.3384 11.3384 -180 0 0 11.34 586.12 Z" class="st1"/>
			<text x="14.99" y="572.08" class="st3" v:langID="1033"><v:paragraph v:horizAlign="1"/><v:tabList/>Read CHIRPS values per <tspan
						x="23.66" dy="1.2em" class="st4">station. Save as .csv</tspan></text>		</g>
		<g id="shape605-98" v:mID="605" v:groupContext="shape" v:layerMember="1" transform="translate(162.803,-308.567)">
			<title>Dynamic connector.605</title>
			<v:userDefs>
				<v:ud v:nameU="visVersion" v:val="VT0(15):26"/>
			</v:userDefs>
			<path d="M-1.42 579.03 C-3.13 579.03 -5.86 579.03 -8.39 579.03" class="st5"/>
		</g>
		<g id="shape607-103" v:mID="607" v:groupContext="shape" v:layerMember="1" transform="translate(213.125,-399.353)">
			<title>Dynamic connector.607</title>
			<desc>N</desc>
			<v:userDefs>
				<v:ud v:nameU="visVersion" v:val="VT0(15):26"/>
			</v:userDefs>
			<v:textBlock v:margins="rect(4,4,4,4)" v:tabSpace="42.5197"/>
			<v:textRect cx="3.72044" cy="550.905" width="30" height="15.2035"/>
			<path d="M-6.91 586.12 C3.72 586.12 3.72 568.57 3.72 551.03 C3.72 536.1 3.72 521.16 -3.04 517.04 L-3.39 516.94"
					class="st9"/>
			<rect v:rectContext="textBkgnd" x="1.4764" y="547.305" width="4.48819" height="7.20016" class="st10"/>
			<text x="1.48" y="552.71" class="st8" v:langID="1033"><v:paragraph v:horizAlign="1"/><v:tabList/>N</text>		</g>
		<g id="shape608-110" v:mID="608" v:groupContext="shape" transform="translate(25.3226,-261.506)">
			<title>Rounded Rectangle.608</title>
			<desc>Calculate correlations Pearson, Kendall, Spearman</desc>
			<v:userDefs>
				<v:ud v:nameU="CTypeTopLeftSnip" v:prompt="" v:val="VT0(0):5"/>
				<v:ud v:nameU="CTypeTopRightSnip" v:prompt="" v:val="VT0(0):5"/>
				<v:ud v:nameU="CTypeBotLeftSnip" v:prompt="" v:val="VT0(0):5"/>
				<v:ud v:nameU="CTypeBotRightSnip" v:prompt="" v:val="VT0(0):5"/>
				<v:ud v:nameU="CornerLockHoriz" v:prompt="" v:val="VT0(1):5"/>
				<v:ud v:nameU="CornerLockVert" v:prompt="" v:val="VT0(1):5"/>
				<v:ud v:nameU="CornerLockDiag" v:prompt="" v:val="VT0(0):5"/>
				<v:ud v:nameU="TopLeftOffset" v:prompt="" v:val="VT0(0.15748031496063):24"/>
				<v:ud v:nameU="TopRightOffset" v:prompt="" v:val="VT0(0.15748031496063):24"/>
				<v:ud v:nameU="BotLeftOffset" v:prompt="" v:val="VT0(0.15748031496063):24"/>
				<v:ud v:nameU="BotRightOffset" v:prompt="" v:val="VT0(0.15748031496063):24"/>
				<v:ud v:nameU="visVersion" v:prompt="" v:val="VT0(15):26"/>
			</v:userDefs>
			<v:textBlock v:margins="rect(4,4,4,4)" v:tabSpace="42.5197"/>
			<v:textRect cx="62.3622" cy="574.778" width="124.73" height="22.6772"/>
			<path d="M11.34 586.12 L113.39 586.12 A11.3384 11.3384 -180 0 0 124.72 574.78 A11.3384 11.3384 -180 0 0 113.39 563.44
						 L11.34 563.44 A11.3384 11.3384 -180 0 0 0 574.78 A11.3384 11.3384 -180 0 0 11.34 586.12 Z" class="st1"/>
			<text x="19.8" y="572.08" class="st3" v:langID="1033"><v:paragraph v:horizAlign="1"/><v:tabList/>Calculate correlations<v:lf/><tspan
						x="7.54" dy="1.2em" class="st4">Pearson, Kendall, Spearman</tspan></text>		</g>
		<g id="shape609-115" v:mID="609" v:groupContext="shape" v:layerMember="1" transform="translate(80.5982,-304.315)">
			<title>Dynamic connector.609</title>
			<v:userDefs>
				<v:ud v:nameU="visVersion" v:val="VT0(15):26"/>
			</v:userDefs>
			<path d="M7.09 586.12 C7.09 589.94 7.09 596.66 7.09 601.88" class="st5"/>
		</g>
		<g id="shape610-120" v:mID="610" v:groupContext="shape" transform="translate(161.386,-261.506)">
			<title>Rounded Rectangle.610</title>
			<desc>Concat correlations as pandas dataframe</desc>
			<v:userDefs>
				<v:ud v:nameU="CTypeTopLeftSnip" v:prompt="" v:val="VT0(0):5"/>
				<v:ud v:nameU="CTypeTopRightSnip" v:prompt="" v:val="VT0(0):5"/>
				<v:ud v:nameU="CTypeBotLeftSnip" v:prompt="" v:val="VT0(0):5"/>
				<v:ud v:nameU="CTypeBotRightSnip" v:prompt="" v:val="VT0(0):5"/>
				<v:ud v:nameU="CornerLockHoriz" v:prompt="" v:val="VT0(1):5"/>
				<v:ud v:nameU="CornerLockVert" v:prompt="" v:val="VT0(1):5"/>
				<v:ud v:nameU="CornerLockDiag" v:prompt="" v:val="VT0(0):5"/>
				<v:ud v:nameU="TopLeftOffset" v:prompt="" v:val="VT0(0.15748031496063):24"/>
				<v:ud v:nameU="TopRightOffset" v:prompt="" v:val="VT0(0.15748031496063):24"/>
				<v:ud v:nameU="BotLeftOffset" v:prompt="" v:val="VT0(0.15748031496063):24"/>
				<v:ud v:nameU="BotRightOffset" v:prompt="" v:val="VT0(0.15748031496063):24"/>
				<v:ud v:nameU="visVersion" v:prompt="" v:val="VT0(15):26"/>
			</v:userDefs>
			<v:textBlock v:margins="rect(4,4,4,4)" v:tabSpace="42.5197"/>
			<v:textRect cx="62.3622" cy="574.778" width="124.73" height="22.6772"/>
			<path d="M11.34 586.12 L113.39 586.12 A11.3384 11.3384 -180 0 0 124.72 574.78 A11.3384 11.3384 -180 0 0 113.39 563.44
						 L11.34 563.44 A11.3384 11.3384 -180 0 0 0 574.78 A11.3384 11.3384 -180 0 0 11.34 586.12 Z" class="st1"/>
			<text x="18.55" y="572.08" class="st3" v:langID="1033"><v:paragraph v:horizAlign="1"/><v:tabList/>Concat correlations as <tspan
						x="26.55" dy="1.2em" class="st4">pandas dataframe</tspan></text>		</g>
		<g id="shape611-125" v:mID="611" v:groupContext="shape" v:layerMember="1" transform="translate(148.63,-265.758)">
			<title>Dynamic connector.611</title>
			<v:userDefs>
				<v:ud v:nameU="visVersion" v:val="VT0(15):26"/>
			</v:userDefs>
			<path d="M1.42 579.03 C3.13 579.03 5.86 579.03 8.39 579.03" class="st5"/>
		</g>
		<g id="shape612-130" v:mID="612" v:groupContext="shape" v:layerMember="1" transform="translate(223.748,-261.506)">
			<title>Dynamic connector.612</title>
			<v:userDefs>
				<v:ud v:nameU="visVersion" v:val="VT0(15):26"/>
			</v:userDefs>
			<path d="M0 586.12 C-0 596.75 7.9 596.75 16.37 596.75 C27.46 596.75 39.51 596.75 48.11 596.75 C58.97 596.75 64.32 596.75
						 67.63 590.17 C72.99 579.5 72.99 551.53 72.99 524.37 C72.99 496.18 72.99 468.87 58.28 457.13 C47.55 448.56
						 29 448.28 -13.17 448.27 L-13.53 448.27" class="st9"/>
		</g>
		<g id="shape613-135" v:mID="613" v:groupContext="shape" transform="translate(93.6451,-9.84707)">
			<title>Rounded Rectangle.613</title>
			<desc>End</desc>
			<v:userDefs>
				<v:ud v:nameU="CTypeTopLeftSnip" v:prompt="" v:val="VT0(0):5"/>
				<v:ud v:nameU="CTypeTopRightSnip" v:prompt="" v:val="VT0(0):5"/>
				<v:ud v:nameU="CTypeBotLeftSnip" v:prompt="" v:val="VT0(0):5"/>
				<v:ud v:nameU="CTypeBotRightSnip" v:prompt="" v:val="VT0(0):5"/>
				<v:ud v:nameU="CornerLockHoriz" v:prompt="" v:val="VT0(1):5"/>
				<v:ud v:nameU="CornerLockVert" v:prompt="" v:val="VT0(1):5"/>
				<v:ud v:nameU="CornerLockDiag" v:prompt="" v:val="VT0(0):5"/>
				<v:ud v:nameU="TopLeftOffset" v:prompt="" v:val="VT0(0.15748031496063):24"/>
				<v:ud v:nameU="TopRightOffset" v:prompt="" v:val="VT0(0.15748031496063):24"/>
				<v:ud v:nameU="BotLeftOffset" v:prompt="" v:val="VT0(0.15748031496063):24"/>
				<v:ud v:nameU="BotRightOffset" v:prompt="" v:val="VT0(0.15748031496063):24"/>
				<v:ud v:nameU="visVersion" v:prompt="" v:val="VT0(15):26"/>
			</v:userDefs>
			<v:textBlock v:margins="rect(4,4,4,4)" v:tabSpace="42.5197"/>
			<v:textRect cx="62.3622" cy="574.778" width="124.73" height="22.6772"/>
			<path d="M11.34 586.12 L113.39 586.12 A11.3384 11.3384 -180 0 0 124.72 574.78 A11.3384 11.3384 -180 0 0 113.39 563.44
						 L11.34 563.44 A11.3384 11.3384 -180 0 0 0 574.78 A11.3384 11.3384 -180 0 0 11.34 586.12 Z" class="st11"/>
			<text x="54.89" y="577.48" class="st3" v:langID="1033"><v:paragraph v:horizAlign="1"/><v:tabList/>End</text>		</g>
		<g id="shape614-139" v:mID="614" v:groupContext="shape" transform="translate(25.3226,-216.151)">
			<title>Rounded Rectangle.614</title>
			<desc>Join .csv IDEAM CHIRPS files</desc>
			<v:userDefs>
				<v:ud v:nameU="CTypeTopLeftSnip" v:prompt="" v:val="VT0(0):5"/>
				<v:ud v:nameU="CTypeTopRightSnip" v:prompt="" v:val="VT0(0):5"/>
				<v:ud v:nameU="CTypeBotLeftSnip" v:prompt="" v:val="VT0(0):5"/>
				<v:ud v:nameU="CTypeBotRightSnip" v:prompt="" v:val="VT0(0):5"/>
				<v:ud v:nameU="CornerLockHoriz" v:prompt="" v:val="VT0(1):5"/>
				<v:ud v:nameU="CornerLockVert" v:prompt="" v:val="VT0(1):5"/>
				<v:ud v:nameU="CornerLockDiag" v:prompt="" v:val="VT0(0):5"/>
				<v:ud v:nameU="TopLeftOffset" v:prompt="" v:val="VT0(0.15748031496063):24"/>
				<v:ud v:nameU="TopRightOffset" v:prompt="" v:val="VT0(0.15748031496063):24"/>
				<v:ud v:nameU="BotLeftOffset" v:prompt="" v:val="VT0(0.15748031496063):24"/>
				<v:ud v:nameU="BotRightOffset" v:prompt="" v:val="VT0(0.15748031496063):24"/>
				<v:ud v:nameU="visVersion" v:prompt="" v:val="VT0(15):26"/>
			</v:userDefs>
			<v:textBlock v:margins="rect(4,4,4,4)" v:tabSpace="42.5197"/>
			<v:textRect cx="62.3622" cy="574.778" width="124.73" height="22.6772"/>
			<path d="M11.34 586.12 L113.39 586.12 A11.3384 11.3384 -180 0 0 124.72 574.78 A11.3384 11.3384 -180 0 0 113.39 563.44
						 L11.34 563.44 A11.3384 11.3384 -180 0 0 0 574.78 A11.3384 11.3384 -180 0 0 11.34 586.12 Z" class="st1"/>
			<text x="6.23" y="577.48" class="st3" v:langID="1033"><v:paragraph v:horizAlign="1"/><v:tabList/>Join .csv IDEAM CHIRPS files</text>		</g>
		<g id="shape616-143" v:mID="616" v:groupContext="shape" transform="translate(161.386,-216.151)">
			<title>Rounded Rectangle.616</title>
			<desc>PlotDateScatterIdeam Chirps.png</desc>
			<v:userDefs>
				<v:ud v:nameU="CTypeTopLeftSnip" v:prompt="" v:val="VT0(0):5"/>
				<v:ud v:nameU="CTypeTopRightSnip" v:prompt="" v:val="VT0(0):5"/>
				<v:ud v:nameU="CTypeBotLeftSnip" v:prompt="" v:val="VT0(0):5"/>
				<v:ud v:nameU="CTypeBotRightSnip" v:prompt="" v:val="VT0(0):5"/>
				<v:ud v:nameU="CornerLockHoriz" v:prompt="" v:val="VT0(1):5"/>
				<v:ud v:nameU="CornerLockVert" v:prompt="" v:val="VT0(1):5"/>
				<v:ud v:nameU="CornerLockDiag" v:prompt="" v:val="VT0(0):5"/>
				<v:ud v:nameU="TopLeftOffset" v:prompt="" v:val="VT0(0.15748031496063):24"/>
				<v:ud v:nameU="TopRightOffset" v:prompt="" v:val="VT0(0.15748031496063):24"/>
				<v:ud v:nameU="BotLeftOffset" v:prompt="" v:val="VT0(0.15748031496063):24"/>
				<v:ud v:nameU="BotRightOffset" v:prompt="" v:val="VT0(0.15748031496063):24"/>
				<v:ud v:nameU="visVersion" v:prompt="" v:val="VT0(15):26"/>
			</v:userDefs>
			<v:textBlock v:margins="rect(4,4,4,4)" v:tabSpace="42.5197"/>
			<v:textRect cx="62.3622" cy="574.778" width="124.73" height="22.6772"/>
			<path d="M11.34 586.12 L113.39 586.12 A11.3384 11.3384 -180 0 0 124.72 574.78 A11.3384 11.3384 -180 0 0 113.39 563.44
						 L11.34 563.44 A11.3384 11.3384 -180 0 0 0 574.78 A11.3384 11.3384 -180 0 0 11.34 586.12 Z" class="st1"/>
			<text x="19.17" y="572.08" class="st3" v:langID="1033"><v:paragraph v:horizAlign="1"/><v:tabList/>PlotDateScatterIdeam<v:lf/><tspan
						x="41" dy="1.2em" class="st4">Chirps.png</tspan></text>		</g>
		<g id="shape618-148" v:mID="618" v:groupContext="shape" v:layerMember="1" transform="translate(148.63,-220.403)">
			<title>Dynamic connector.618</title>
			<v:userDefs>
				<v:ud v:nameU="visVersion" v:val="VT0(15):26"/>
			</v:userDefs>
			<path d="M1.42 579.03 C3.13 579.03 5.86 579.03 8.39 579.03" class="st5"/>
		</g>
		<g id="shape619-153" v:mID="619" v:groupContext="shape" transform="translate(161.386,-175.914)">
			<title>Rounded Rectangle.619</title>
			<desc>PlotDateIdeamChirps Boxplot.png</desc>
			<v:userDefs>
				<v:ud v:nameU="CTypeTopLeftSnip" v:prompt="" v:val="VT0(0):5"/>
				<v:ud v:nameU="CTypeTopRightSnip" v:prompt="" v:val="VT0(0):5"/>
				<v:ud v:nameU="CTypeBotLeftSnip" v:prompt="" v:val="VT0(0):5"/>
				<v:ud v:nameU="CTypeBotRightSnip" v:prompt="" v:val="VT0(0):5"/>
				<v:ud v:nameU="CornerLockHoriz" v:prompt="" v:val="VT0(1):5"/>
				<v:ud v:nameU="CornerLockVert" v:prompt="" v:val="VT0(1):5"/>
				<v:ud v:nameU="CornerLockDiag" v:prompt="" v:val="VT0(0):5"/>
				<v:ud v:nameU="TopLeftOffset" v:prompt="" v:val="VT0(0.15748031496063):24"/>
				<v:ud v:nameU="TopRightOffset" v:prompt="" v:val="VT0(0.15748031496063):24"/>
				<v:ud v:nameU="BotLeftOffset" v:prompt="" v:val="VT0(0.15748031496063):24"/>
				<v:ud v:nameU="BotRightOffset" v:prompt="" v:val="VT0(0.15748031496063):24"/>
				<v:ud v:nameU="visVersion" v:prompt="" v:val="VT0(15):26"/>
			</v:userDefs>
			<v:textBlock v:margins="rect(4,4,4,4)" v:tabSpace="42.5197"/>
			<v:textRect cx="62.3622" cy="574.778" width="124.73" height="22.6772"/>
			<path d="M11.34 586.12 L113.39 586.12 A11.3384 11.3384 -180 0 0 124.72 574.78 A11.3384 11.3384 -180 0 0 113.39 563.44
						 L11.34 563.44 A11.3384 11.3384 -180 0 0 0 574.78 A11.3384 11.3384 -180 0 0 11.34 586.12 Z" class="st1"/>
			<text x="20.36" y="572.08" class="st3" v:langID="1033"><v:paragraph v:horizAlign="1"/><v:tabList/>PlotDateIdeamChirps<v:lf/><tspan
						x="38.37" dy="1.2em" class="st4">Boxplot.png</tspan></text>		</g>
		<g id="shape621-158" v:mID="621" v:groupContext="shape" v:layerMember="1" transform="translate(216.661,-216.151)">
			<title>Dynamic connector.621</title>
			<v:userDefs>
				<v:ud v:nameU="visVersion" v:val="VT0(15):26"/>
			</v:userDefs>
			<path d="M7.09 586.12 C7.09 589.32 7.09 594.85 7.09 599.31" class="st5"/>
		</g>
		<g id="shape622-163" v:mID="622" v:groupContext="shape" transform="translate(25.3226,-175.914)">
			<title>Rounded Rectangle.622</title>
			<desc>Correlations dataframe to .csv</desc>
			<v:userDefs>
				<v:ud v:nameU="CTypeTopLeftSnip" v:prompt="" v:val="VT0(0):5"/>
				<v:ud v:nameU="CTypeTopRightSnip" v:prompt="" v:val="VT0(0):5"/>
				<v:ud v:nameU="CTypeBotLeftSnip" v:prompt="" v:val="VT0(0):5"/>
				<v:ud v:nameU="CTypeBotRightSnip" v:prompt="" v:val="VT0(0):5"/>
				<v:ud v:nameU="CornerLockHoriz" v:prompt="" v:val="VT0(1):5"/>
				<v:ud v:nameU="CornerLockVert" v:prompt="" v:val="VT0(1):5"/>
				<v:ud v:nameU="CornerLockDiag" v:prompt="" v:val="VT0(0):5"/>
				<v:ud v:nameU="TopLeftOffset" v:prompt="" v:val="VT0(0.15748031496063):24"/>
				<v:ud v:nameU="TopRightOffset" v:prompt="" v:val="VT0(0.15748031496063):24"/>
				<v:ud v:nameU="BotLeftOffset" v:prompt="" v:val="VT0(0.15748031496063):24"/>
				<v:ud v:nameU="BotRightOffset" v:prompt="" v:val="VT0(0.15748031496063):24"/>
				<v:ud v:nameU="visVersion" v:prompt="" v:val="VT0(15):26"/>
			</v:userDefs>
			<v:textBlock v:margins="rect(4,4,4,4)" v:tabSpace="42.5197"/>
			<v:textRect cx="62.3622" cy="574.778" width="124.73" height="22.6772"/>
			<path d="M11.34 586.12 L113.39 586.12 A11.3384 11.3384 -180 0 0 124.72 574.78 A11.3384 11.3384 -180 0 0 113.39 563.44
						 L11.34 563.44 A11.3384 11.3384 -180 0 0 0 574.78 A11.3384 11.3384 -180 0 0 11.34 586.12 Z" class="st1"/>
			<text x="38.37" y="572.08" class="st3" v:langID="1033"><v:paragraph v:horizAlign="1"/><v:tabList/>Correlations<v:lf/><tspan
						x="28.37" dy="1.2em" class="st4">dataframe to .csv</tspan></text>		</g>
		<g id="shape623-168" v:mID="623" v:groupContext="shape" v:layerMember="1" transform="translate(162.803,-180.166)">
			<title>Dynamic connector.623</title>
			<v:userDefs>
				<v:ud v:nameU="visVersion" v:val="VT0(15):26"/>
			</v:userDefs>
			<path d="M-1.42 579.03 C-3.13 579.03 -5.86 579.03 -8.39 579.03" class="st5"/>
		</g>
		<g id="shape624-173" v:mID="624" v:groupContext="shape" transform="translate(25.3226,-135.676)">
			<title>Rounded Rectangle.624</title>
			<desc>PlotDateCorrelation TimeSerie.png</desc>
			<v:userDefs>
				<v:ud v:nameU="CTypeTopLeftSnip" v:prompt="" v:val="VT0(0):5"/>
				<v:ud v:nameU="CTypeTopRightSnip" v:prompt="" v:val="VT0(0):5"/>
				<v:ud v:nameU="CTypeBotLeftSnip" v:prompt="" v:val="VT0(0):5"/>
				<v:ud v:nameU="CTypeBotRightSnip" v:prompt="" v:val="VT0(0):5"/>
				<v:ud v:nameU="CornerLockHoriz" v:prompt="" v:val="VT0(1):5"/>
				<v:ud v:nameU="CornerLockVert" v:prompt="" v:val="VT0(1):5"/>
				<v:ud v:nameU="CornerLockDiag" v:prompt="" v:val="VT0(0):5"/>
				<v:ud v:nameU="TopLeftOffset" v:prompt="" v:val="VT0(0.15748031496063):24"/>
				<v:ud v:nameU="TopRightOffset" v:prompt="" v:val="VT0(0.15748031496063):24"/>
				<v:ud v:nameU="BotLeftOffset" v:prompt="" v:val="VT0(0.15748031496063):24"/>
				<v:ud v:nameU="BotRightOffset" v:prompt="" v:val="VT0(0.15748031496063):24"/>
				<v:ud v:nameU="visVersion" v:prompt="" v:val="VT0(15):26"/>
			</v:userDefs>
			<v:textBlock v:margins="rect(4,4,4,4)" v:tabSpace="42.5197"/>
			<v:textRect cx="62.3622" cy="574.778" width="124.73" height="22.6772"/>
			<path d="M11.34 586.12 L113.39 586.12 A11.3384 11.3384 -180 0 0 124.72 574.78 A11.3384 11.3384 -180 0 0 113.39 563.44
						 L11.34 563.44 A11.3384 11.3384 -180 0 0 0 574.78 A11.3384 11.3384 -180 0 0 11.34 586.12 Z" class="st1"/>
			<text x="23.18" y="572.08" class="st3" v:langID="1033"><v:paragraph v:horizAlign="1"/><v:tabList/>PlotDateCorrelation<v:lf/><tspan
						x="34.12" dy="1.2em" class="st4">TimeSerie.png</tspan></text>		</g>
		<g id="shape625-178" v:mID="625" v:groupContext="shape" v:layerMember="1" transform="translate(80.5982,-175.914)">
			<title>Dynamic connector.625</title>
			<v:userDefs>
				<v:ud v:nameU="visVersion" v:val="VT0(15):26"/>
			</v:userDefs>
			<path d="M7.09 586.12 C7.09 589.32 7.09 594.85 7.09 599.31" class="st5"/>
		</g>
		<g id="shape626-183" v:mID="626" v:groupContext="shape" transform="translate(161.386,-135.676)">
			<title>Rounded Rectangle.626</title>
			<desc>PlotDateCorrelation Boxplot.png</desc>
			<v:userDefs>
				<v:ud v:nameU="CTypeTopLeftSnip" v:prompt="" v:val="VT0(0):5"/>
				<v:ud v:nameU="CTypeTopRightSnip" v:prompt="" v:val="VT0(0):5"/>
				<v:ud v:nameU="CTypeBotLeftSnip" v:prompt="" v:val="VT0(0):5"/>
				<v:ud v:nameU="CTypeBotRightSnip" v:prompt="" v:val="VT0(0):5"/>
				<v:ud v:nameU="CornerLockHoriz" v:prompt="" v:val="VT0(1):5"/>
				<v:ud v:nameU="CornerLockVert" v:prompt="" v:val="VT0(1):5"/>
				<v:ud v:nameU="CornerLockDiag" v:prompt="" v:val="VT0(0):5"/>
				<v:ud v:nameU="TopLeftOffset" v:prompt="" v:val="VT0(0.15748031496063):24"/>
				<v:ud v:nameU="TopRightOffset" v:prompt="" v:val="VT0(0.15748031496063):24"/>
				<v:ud v:nameU="BotLeftOffset" v:prompt="" v:val="VT0(0.15748031496063):24"/>
				<v:ud v:nameU="BotRightOffset" v:prompt="" v:val="VT0(0.15748031496063):24"/>
				<v:ud v:nameU="visVersion" v:prompt="" v:val="VT0(15):26"/>
			</v:userDefs>
			<v:textBlock v:margins="rect(4,4,4,4)" v:tabSpace="42.5197"/>
			<v:textRect cx="62.3622" cy="574.778" width="124.73" height="22.6772"/>
			<path d="M11.34 586.12 L113.39 586.12 A11.3384 11.3384 -180 0 0 124.72 574.78 A11.3384 11.3384 -180 0 0 113.39 563.44
						 L11.34 563.44 A11.3384 11.3384 -180 0 0 0 574.78 A11.3384 11.3384 -180 0 0 11.34 586.12 Z" class="st1"/>
			<text x="23.18" y="572.08" class="st3" v:langID="1033"><v:paragraph v:horizAlign="1"/><v:tabList/>PlotDateCorrelation<v:lf/><tspan
						x="38.37" dy="1.2em" class="st4">Boxplot.png</tspan></text>		</g>
		<g id="shape627-188" v:mID="627" v:groupContext="shape" v:layerMember="1" transform="translate(148.63,-139.928)">
			<title>Dynamic connector.627</title>
			<v:userDefs>
				<v:ud v:nameU="visVersion" v:val="VT0(15):26"/>
			</v:userDefs>
			<path d="M1.42 579.03 C3.13 579.03 5.86 579.03 8.39 579.03" class="st5"/>
		</g>
		<g id="shape628-193" v:mID="628" v:groupContext="shape" transform="translate(161.386,-95.4389)">
			<title>Rounded Rectangle.628</title>
			<desc>Correlation group by year, mean. .csv file</desc>
			<v:userDefs>
				<v:ud v:nameU="CTypeTopLeftSnip" v:prompt="" v:val="VT0(0):5"/>
				<v:ud v:nameU="CTypeTopRightSnip" v:prompt="" v:val="VT0(0):5"/>
				<v:ud v:nameU="CTypeBotLeftSnip" v:prompt="" v:val="VT0(0):5"/>
				<v:ud v:nameU="CTypeBotRightSnip" v:prompt="" v:val="VT0(0):5"/>
				<v:ud v:nameU="CornerLockHoriz" v:prompt="" v:val="VT0(1):5"/>
				<v:ud v:nameU="CornerLockVert" v:prompt="" v:val="VT0(1):5"/>
				<v:ud v:nameU="CornerLockDiag" v:prompt="" v:val="VT0(0):5"/>
				<v:ud v:nameU="TopLeftOffset" v:prompt="" v:val="VT0(0.15748031496063):24"/>
				<v:ud v:nameU="TopRightOffset" v:prompt="" v:val="VT0(0.15748031496063):24"/>
				<v:ud v:nameU="BotLeftOffset" v:prompt="" v:val="VT0(0.15748031496063):24"/>
				<v:ud v:nameU="BotRightOffset" v:prompt="" v:val="VT0(0.15748031496063):24"/>
				<v:ud v:nameU="visVersion" v:prompt="" v:val="VT0(15):26"/>
			</v:userDefs>
			<v:textBlock v:margins="rect(4,4,4,4)" v:tabSpace="42.5197"/>
			<v:textRect cx="62.3622" cy="574.778" width="124.73" height="22.6772"/>
			<path d="M11.34 586.12 L113.39 586.12 A11.3384 11.3384 -180 0 0 124.72 574.78 A11.3384 11.3384 -180 0 0 113.39 563.44
						 L11.34 563.44 A11.3384 11.3384 -180 0 0 0 574.78 A11.3384 11.3384 -180 0 0 11.34 586.12 Z" class="st1"/>
			<text x="10.36" y="572.08" class="st3" v:langID="1033"><v:paragraph v:horizAlign="1"/><v:tabList/>Correlation group by year, <tspan
						x="34.8" dy="1.2em" class="st4">mean. .csv file</tspan></text>		</g>
		<g id="shape629-198" v:mID="629" v:groupContext="shape" v:layerMember="1" transform="translate(216.661,-135.676)">
			<title>Dynamic connector.629</title>
			<v:userDefs>
				<v:ud v:nameU="visVersion" v:val="VT0(15):26"/>
			</v:userDefs>
			<path d="M7.09 586.12 C7.09 589.32 7.09 594.85 7.09 599.31" class="st5"/>
		</g>
		<g id="shape630-203" v:mID="630" v:groupContext="shape" transform="translate(25.3226,-95.4389)">
			<title>Rounded Rectangle.630</title>
			<desc>PlotYearCorrelation TimeSerie.png</desc>
			<v:userDefs>
				<v:ud v:nameU="CTypeTopLeftSnip" v:prompt="" v:val="VT0(0):5"/>
				<v:ud v:nameU="CTypeTopRightSnip" v:prompt="" v:val="VT0(0):5"/>
				<v:ud v:nameU="CTypeBotLeftSnip" v:prompt="" v:val="VT0(0):5"/>
				<v:ud v:nameU="CTypeBotRightSnip" v:prompt="" v:val="VT0(0):5"/>
				<v:ud v:nameU="CornerLockHoriz" v:prompt="" v:val="VT0(1):5"/>
				<v:ud v:nameU="CornerLockVert" v:prompt="" v:val="VT0(1):5"/>
				<v:ud v:nameU="CornerLockDiag" v:prompt="" v:val="VT0(0):5"/>
				<v:ud v:nameU="TopLeftOffset" v:prompt="" v:val="VT0(0.15748031496063):24"/>
				<v:ud v:nameU="TopRightOffset" v:prompt="" v:val="VT0(0.15748031496063):24"/>
				<v:ud v:nameU="BotLeftOffset" v:prompt="" v:val="VT0(0.15748031496063):24"/>
				<v:ud v:nameU="BotRightOffset" v:prompt="" v:val="VT0(0.15748031496063):24"/>
				<v:ud v:nameU="visVersion" v:prompt="" v:val="VT0(15):26"/>
			</v:userDefs>
			<v:textBlock v:margins="rect(4,4,4,4)" v:tabSpace="42.5197"/>
			<v:textRect cx="62.3622" cy="574.778" width="124.73" height="22.6772"/>
			<path d="M11.34 586.12 L113.39 586.12 A11.3384 11.3384 -180 0 0 124.72 574.78 A11.3384 11.3384 -180 0 0 113.39 563.44
						 L11.34 563.44 A11.3384 11.3384 -180 0 0 0 574.78 A11.3384 11.3384 -180 0 0 11.34 586.12 Z" class="st1"/>
			<text x="23.81" y="572.08" class="st3" v:langID="1033"><v:paragraph v:horizAlign="1"/><v:tabList/>PlotYearCorrelation<v:lf/><tspan
						x="34.12" dy="1.2em" class="st4">TimeSerie.png</tspan></text>		</g>
		<g id="shape631-208" v:mID="631" v:groupContext="shape" v:layerMember="1" transform="translate(162.803,-99.6908)">
			<title>Dynamic connector.631</title>
			<v:userDefs>
				<v:ud v:nameU="visVersion" v:val="VT0(15):26"/>
			</v:userDefs>
			<path d="M-1.42 579.03 C-3.13 579.03 -5.86 579.03 -8.39 579.03" class="st5"/>
		</g>
		<g id="shape632-213" v:mID="632" v:groupContext="shape" transform="translate(25.3226,-55.2014)">
			<title>Rounded Rectangle.632</title>
			<desc>Correlation group by month, mean .csv file</desc>
			<v:userDefs>
				<v:ud v:nameU="CTypeTopLeftSnip" v:prompt="" v:val="VT0(0):5"/>
				<v:ud v:nameU="CTypeTopRightSnip" v:prompt="" v:val="VT0(0):5"/>
				<v:ud v:nameU="CTypeBotLeftSnip" v:prompt="" v:val="VT0(0):5"/>
				<v:ud v:nameU="CTypeBotRightSnip" v:prompt="" v:val="VT0(0):5"/>
				<v:ud v:nameU="CornerLockHoriz" v:prompt="" v:val="VT0(1):5"/>
				<v:ud v:nameU="CornerLockVert" v:prompt="" v:val="VT0(1):5"/>
				<v:ud v:nameU="CornerLockDiag" v:prompt="" v:val="VT0(0):5"/>
				<v:ud v:nameU="TopLeftOffset" v:prompt="" v:val="VT0(0.15748031496063):24"/>
				<v:ud v:nameU="TopRightOffset" v:prompt="" v:val="VT0(0.15748031496063):24"/>
				<v:ud v:nameU="BotLeftOffset" v:prompt="" v:val="VT0(0.15748031496063):24"/>
				<v:ud v:nameU="BotRightOffset" v:prompt="" v:val="VT0(0.15748031496063):24"/>
				<v:ud v:nameU="visVersion" v:prompt="" v:val="VT0(15):26"/>
			</v:userDefs>
			<v:textBlock v:margins="rect(4,4,4,4)" v:tabSpace="42.5197"/>
			<v:textRect cx="62.3622" cy="574.778" width="124.73" height="22.6772"/>
			<path d="M11.34 586.12 L113.39 586.12 A11.3384 11.3384 -180 0 0 124.72 574.78 A11.3384 11.3384 -180 0 0 113.39 563.44
						 L11.34 563.44 A11.3384 11.3384 -180 0 0 0 574.78 A11.3384 11.3384 -180 0 0 11.34 586.12 Z" class="st1"/>
			<text x="5.61" y="572.08" class="st3" v:langID="1033"><v:paragraph v:horizAlign="1"/><v:tabList/>Correlation group by month, <tspan
						x="35.77" dy="1.2em" class="st4">mean .csv file</tspan></text>		</g>
		<g id="shape633-218" v:mID="633" v:groupContext="shape" transform="translate(161.386,-55.2014)">
			<title>Rounded Rectangle.633</title>
			<desc>PlotMonthCorrelation TimeSerie.png</desc>
			<v:userDefs>
				<v:ud v:nameU="CTypeTopLeftSnip" v:prompt="" v:val="VT0(0):5"/>
				<v:ud v:nameU="CTypeTopRightSnip" v:prompt="" v:val="VT0(0):5"/>
				<v:ud v:nameU="CTypeBotLeftSnip" v:prompt="" v:val="VT0(0):5"/>
				<v:ud v:nameU="CTypeBotRightSnip" v:prompt="" v:val="VT0(0):5"/>
				<v:ud v:nameU="CornerLockHoriz" v:prompt="" v:val="VT0(1):5"/>
				<v:ud v:nameU="CornerLockVert" v:prompt="" v:val="VT0(1):5"/>
				<v:ud v:nameU="CornerLockDiag" v:prompt="" v:val="VT0(0):5"/>
				<v:ud v:nameU="TopLeftOffset" v:prompt="" v:val="VT0(0.15748031496063):24"/>
				<v:ud v:nameU="TopRightOffset" v:prompt="" v:val="VT0(0.15748031496063):24"/>
				<v:ud v:nameU="BotLeftOffset" v:prompt="" v:val="VT0(0.15748031496063):24"/>
				<v:ud v:nameU="BotRightOffset" v:prompt="" v:val="VT0(0.15748031496063):24"/>
				<v:ud v:nameU="visVersion" v:prompt="" v:val="VT0(15):26"/>
			</v:userDefs>
			<v:textBlock v:margins="rect(4,4,4,4)" v:tabSpace="42.5197"/>
			<v:textRect cx="62.3622" cy="574.778" width="124.73" height="22.6772"/>
			<path d="M11.34 586.12 L113.39 586.12 A11.3384 11.3384 -180 0 0 124.72 574.78 A11.3384 11.3384 -180 0 0 113.39 563.44
						 L11.34 563.44 A11.3384 11.3384 -180 0 0 0 574.78 A11.3384 11.3384 -180 0 0 11.34 586.12 Z" class="st1"/>
			<text x="19.21" y="572.08" class="st3" v:langID="1033"><v:paragraph v:horizAlign="1"/><v:tabList/>PlotMonthCorrelation<v:lf/><tspan
						x="34.12" dy="1.2em" class="st4">TimeSerie.png</tspan></text>		</g>
		<g id="shape634-223" v:mID="634" v:groupContext="shape" v:layerMember="1" transform="translate(80.5982,-95.4389)">
			<title>Dynamic connector.634</title>
			<v:userDefs>
				<v:ud v:nameU="visVersion" v:val="VT0(15):26"/>
			</v:userDefs>
			<path d="M7.09 586.12 C7.09 589.32 7.09 594.85 7.09 599.31" class="st5"/>
		</g>
		<g id="shape636-228" v:mID="636" v:groupContext="shape" v:layerMember="1" transform="translate(148.63,-59.4534)">
			<title>Dynamic connector.636</title>
			<v:userDefs>
				<v:ud v:nameU="visVersion" v:val="VT0(15):26"/>
			</v:userDefs>
			<path d="M1.42 579.03 C3.13 579.03 5.86 579.03 8.39 579.03" class="st5"/>
		</g>
		<g id="shape637-233" v:mID="637" v:groupContext="shape" v:layerMember="1" transform="translate(223.748,-55.2014)">
			<title>Dynamic connector.637</title>
			<v:userDefs>
				<v:ud v:nameU="visVersion" v:val="VT0(15):26"/>
			</v:userDefs>
			<path d="M0 586.12 C-0 596.75 -16.91 596.75 -33.81 596.75 C-48.47 596.75 -63.13 596.75 -66.84 604.52 L-66.92 604.87"
					class="st9"/>
		</g>
	</g>
</svg>
