<?xml version="1.0" encoding="UTF-8" standalone="no"?>
<!DOCTYPE svg PUBLIC "-//W3C//DTD SVG 1.1//EN" "http://www.w3.org/Graphics/SVG/1.1/DTD/svg11.dtd">
<!-- Generated by Microsoft Visio, SVG Export Agg.svg Page-1 -->
<svg xmlns="http://www.w3.org/2000/svg" xmlns:xlink="http://www.w3.org/1999/xlink" xmlns:ev="http://www.w3.org/2001/xml-events"
		xmlns:v="http://schemas.microsoft.com/visio/2003/SVGExtensions/" width="5.7632in" height="7.18604in"
		viewBox="0 0 414.95 517.395" xml:space="preserve" color-interpolation-filters="sRGB" class="st16">
	<v:documentProperties v:langID="1033" v:metric="true" v:viewMarkup="false"/>

	<style type="text/css">
	<![CDATA[
		.st1 {fill:#f2f2f2;stroke:none;stroke-width:1.5}
		.st2 {fill:#fbbc0e;fill-opacity:1;stroke:#fbbc0e;stroke-opacity:1;stroke-width:0.37313432835821}
		.st3 {fill:#000000;font-family:Segoe UI;font-size:0.75em}
		.st4 {fill:#f2f2f2;stroke:#fbbc0e;stroke-width:1.5}
		.st5 {marker-end:url(#mrkr6-15);stroke:#7f7f7f;stroke-linecap:round;stroke-linejoin:round;stroke-width:0.5}
		.st6 {fill:#7f7f7f;fill-opacity:1;stroke:#7f7f7f;stroke-opacity:1;stroke-width:0.25773195876289}
		.st7 {fill:#f2f2f2;stroke:#ea4d35;stroke-dasharray:0.01,4.5;stroke-width:1.5}
		.st8 {fill:#ea4d35;fill-opacity:1;stroke:#ea4d35;stroke-opacity:1;stroke-width:0.37313432835821}
		.st9 {font-size:1em}
		.st10 {fill:#f2f2f2;stroke:#696368;stroke-width:1.5}
		.st11 {fill:#696368;fill-opacity:1;stroke:#696368;stroke-opacity:1;stroke-width:0.37313432835821}
		.st12 {marker-end:url(#mrkr6-41);stroke:#7f7f7f;stroke-linecap:round;stroke-linejoin:round;stroke-width:0.5}
		.st13 {fill:#ffffff;stroke:none;stroke-linecap:butt}
		.st14 {fill:#3d64ac;font-family:Segoe UI;font-size:0.499992em}
		.st15 {fill:#ffffff;stroke:none;stroke-linecap:butt;stroke-width:7.2}
		.st16 {fill:none;fill-rule:evenodd;font-size:12px;overflow:visible;stroke-linecap:square;stroke-miterlimit:3}
	]]>
	</style>

	<defs id="Markers">
		<g id="lend6">
			<path d="M 2 1 L 0 0 L 2.01237 -1.00641 C 2.32921 -0.372876 2.32921 0.372869 2.01238 1.0064 " style="stroke:none"/>
		</g>
		<marker id="mrkr6-4" class="st2" v:arrowType="6" v:arrowSize="2" v:setback="6.03" refX="6.03" orient="auto"
				markerUnits="strokeWidth" overflow="visible">
			<use xlink:href="#lend6" transform="scale(2.68) "/>
		</marker>
		<marker id="mrkr6-15" class="st6" v:arrowType="6" v:arrowSize="0" v:setback="8.01" refX="-8.01" orient="auto"
				markerUnits="strokeWidth" overflow="visible">
			<use xlink:href="#lend6" transform="scale(-3.88,-3.88) "/>
		</marker>
		<marker id="mrkr6-28" class="st8" v:arrowType="6" v:arrowSize="2" v:setback="6.03" refX="6.03" orient="auto"
				markerUnits="strokeWidth" overflow="visible">
			<use xlink:href="#lend6" transform="scale(2.68) "/>
		</marker>
		<marker id="mrkr6-34" class="st11" v:arrowType="6" v:arrowSize="2" v:setback="6.03" refX="6.03" orient="auto"
				markerUnits="strokeWidth" overflow="visible">
			<use xlink:href="#lend6" transform="scale(2.68) "/>
		</marker>
		<marker id="mrkr6-41" class="st6" v:arrowType="6" v:arrowSize="0" v:setback="8.73" refX="-8.73" orient="auto"
				markerUnits="strokeWidth" overflow="visible">
			<use xlink:href="#lend6" transform="scale(-3.88,-3.88) "/>
		</marker>
	</defs>
	<g v:mID="0" v:index="1" v:groupContext="foregroundPage">
		<title>Page-1</title>
		<v:pageProperties v:drawingScale="0.0393701" v:pageScale="0.0393701" v:drawingUnits="24" v:shadowOffsetX="8.50394"
				v:shadowOffsetY="-8.50394"/>
		<v:layer v:name="Connector" v:index="0"/>
		<v:layer v:name="Flowchart" v:index="1"/>
		<g id="shape577-1" v:mID="577" v:groupContext="shape" transform="translate(146.087,-484.871)">
			<title>Rounded Rectangle.577</title>
			<desc>Start</desc>
			<v:userDefs>
				<v:ud v:nameU="CTypeTopLeftSnip" v:prompt="" v:val="VT0(0):5"/>
				<v:ud v:nameU="CTypeTopRightSnip" v:prompt="" v:val="VT0(0):5"/>
				<v:ud v:nameU="CTypeBotLeftSnip" v:prompt="" v:val="VT0(0):5"/>
				<v:ud v:nameU="CTypeBotRightSnip" v:prompt="" v:val="VT0(0):5"/>
				<v:ud v:nameU="CornerLockHoriz" v:prompt="" v:val="VT0(1):5"/>
				<v:ud v:nameU="CornerLockVert" v:prompt="" v:val="VT0(1):5"/>
				<v:ud v:nameU="CornerLockDiag" v:prompt="" v:val="VT0(0):5"/>
				<v:ud v:nameU="TopLeftOffset" v:prompt="" v:val="VT0(0.15748031496063):24"/>
				<v:ud v:nameU="TopRightOffset" v:prompt="" v:val="VT0(0.15748031496063):24"/>
				<v:ud v:nameU="BotLeftOffset" v:prompt="" v:val="VT0(0.15748031496063):24"/>
				<v:ud v:nameU="BotRightOffset" v:prompt="" v:val="VT0(0.15748031496063):24"/>
				<v:ud v:nameU="visVersion" v:prompt="" v:val="VT0(15):26"/>
			</v:userDefs>
			<v:textBlock v:margins="rect(4,4,4,4)" v:tabSpace="42.5197"/>
			<v:textRect cx="62.3622" cy="506.057" width="124.73" height="22.6772"/>
			<path d="M11.34 517.4 L113.39 517.4 A11.3384 11.3384 -180 0 0 124.72 506.06 A11.3384 11.3384 -180 0 0 113.39 494.72 L11.34
						 494.72 A11.3384 11.3384 -180 0 0 0 506.06 A11.3384 11.3384 -180 0 0 11.34 517.4 Z" class="st1"/>
			<text x="53.07" y="508.76" class="st3" v:langID="1033"><v:paragraph v:horizAlign="1"/><v:tabList/>Start</text>		</g>
		<g id="shape704-6" v:mID="704" v:groupContext="shape" transform="translate(279.138,-447.357)">
			<title>Rounded Rectangle.592</title>
			<desc>daily_serie, agg_func</desc>
			<v:userDefs>
				<v:ud v:nameU="CTypeTopLeftSnip" v:prompt="" v:val="VT0(0):5"/>
				<v:ud v:nameU="CTypeTopRightSnip" v:prompt="" v:val="VT0(0):5"/>
				<v:ud v:nameU="CTypeBotLeftSnip" v:prompt="" v:val="VT0(0):5"/>
				<v:ud v:nameU="CTypeBotRightSnip" v:prompt="" v:val="VT0(0):5"/>
				<v:ud v:nameU="CornerLockHoriz" v:prompt="" v:val="VT0(1):5"/>
				<v:ud v:nameU="CornerLockVert" v:prompt="" v:val="VT0(1):5"/>
				<v:ud v:nameU="CornerLockDiag" v:prompt="" v:val="VT0(0):5"/>
				<v:ud v:nameU="TopLeftOffset" v:prompt="" v:val="VT0(0.15748031496063):24"/>
				<v:ud v:nameU="TopRightOffset" v:prompt="" v:val="VT0(0.15748031496063):24"/>
				<v:ud v:nameU="BotLeftOffset" v:prompt="" v:val="VT0(0.15748031496063):24"/>
				<v:ud v:nameU="BotRightOffset" v:prompt="" v:val="VT0(0.15748031496063):24"/>
				<v:ud v:nameU="visVersion" v:prompt="" v:val="VT0(15):26"/>
			</v:userDefs>
			<v:textBlock v:margins="rect(4,4,4,4)" v:tabSpace="42.5197"/>
			<v:textRect cx="62.3622" cy="506.057" width="124.73" height="22.6772"/>
			<path d="M11.34 517.4 L113.39 517.4 A11.3384 11.3384 -180 0 0 124.72 506.06 A11.3384 11.3384 -180 0 0 113.39 494.72 L11.34
						 494.72 A11.3384 11.3384 -180 0 0 0 506.06 A11.3384 11.3384 -180 0 0 11.34 517.4 Z" class="st4"/>
			<text x="21.68" y="508.76" class="st3" v:langID="1033"><v:paragraph v:horizAlign="1"/><v:tabList/>daily_serie, agg_func</text>		</g>
		<g id="shape705-10" v:mID="705" v:groupContext="shape" v:layerMember="0" transform="translate(208.449,-484.871)">
			<title>Dynamic connector.705</title>
			<v:userDefs>
				<v:ud v:nameU="visVersion" v:val="VT0(15):26"/>
			</v:userDefs>
			<path d="M0 517.4 C0 522.71 13.33 522.71 24.66 522.71 C41.6 522.71 54.06 522.71 66.51 522.71 C78.97 522.71 91.41 522.71
						 108.29 522.71 C117.66 522.71 128.39 522.71 131.88 528.03 L131.98 528.37" class="st5"/>
		</g>
		<g id="shape742-16" v:mID="742" v:groupContext="shape" transform="translate(145.956,-9.84707)">
			<title>Rounded Rectangle.742</title>
			<desc>End</desc>
			<v:userDefs>
				<v:ud v:nameU="CTypeTopLeftSnip" v:prompt="" v:val="VT0(0):5"/>
				<v:ud v:nameU="CTypeTopRightSnip" v:prompt="" v:val="VT0(0):5"/>
				<v:ud v:nameU="CTypeBotLeftSnip" v:prompt="" v:val="VT0(0):5"/>
				<v:ud v:nameU="CTypeBotRightSnip" v:prompt="" v:val="VT0(0):5"/>
				<v:ud v:nameU="CornerLockHoriz" v:prompt="" v:val="VT0(1):5"/>
				<v:ud v:nameU="CornerLockVert" v:prompt="" v:val="VT0(1):5"/>
				<v:ud v:nameU="CornerLockDiag" v:prompt="" v:val="VT0(0):5"/>
				<v:ud v:nameU="TopLeftOffset" v:prompt="" v:val="VT0(0.15748031496063):24"/>
				<v:ud v:nameU="TopRightOffset" v:prompt="" v:val="VT0(0.15748031496063):24"/>
				<v:ud v:nameU="BotLeftOffset" v:prompt="" v:val="VT0(0.15748031496063):24"/>
				<v:ud v:nameU="BotRightOffset" v:prompt="" v:val="VT0(0.15748031496063):24"/>
				<v:ud v:nameU="visVersion" v:prompt="" v:val="VT0(15):26"/>
			</v:userDefs>
			<v:textBlock v:margins="rect(4,4,4,4)" v:tabSpace="42.5197"/>
			<v:textRect cx="62.3622" cy="506.057" width="124.73" height="22.6772"/>
			<path d="M11.34 517.4 L113.39 517.4 A11.3384 11.3384 -180 0 0 124.72 506.06 A11.3384 11.3384 -180 0 0 113.39 494.72 L11.34
						 494.72 A11.3384 11.3384 -180 0 0 0 506.06 A11.3384 11.3384 -180 0 0 11.34 517.4 Z" class="st1"/>
			<text x="54.89" y="508.76" class="st3" v:langID="1033"><v:paragraph v:horizAlign="1"/><v:tabList/>End</text>		</g>
		<g id="shape945-20" v:mID="945" v:groupContext="shape" v:layerMember="0" transform="translate(341.501,-447.357)">
			<title>Dynamic connector.945</title>
			<v:userDefs>
				<v:ud v:nameU="visVersion" v:val="VT0(15):26"/>
			</v:userDefs>
			<path d="M0 517.4 C0 522.71 -13.33 522.71 -24.66 522.71 C-41.6 522.71 -54.06 522.71 -66.51 522.71 C-78.97 522.71 -91.41
						 522.71 -108.29 522.71 C-117.66 522.71 -128.39 522.71 -131.88 528.03 L-131.98 528.37" class="st5"/>
		</g>
		<g id="shape989-25" v:mID="989" v:groupContext="shape" v:layerMember="1" transform="translate(157.78,-378.039)">
			<title>Decision 2.989</title>
			<desc>daily_serie = True</desc>
			<v:custProps>
				<v:cp v:nameU="Cost" v:lbl="Cost" v:type="7" v:format="@" v:langID="1033"/>
				<v:cp v:nameU="Duration" v:lbl="Duration" v:type="2" v:langID="1033"/>
				<v:cp v:nameU="Resources" v:lbl="Resources" v:langID="1033"/>
			</v:custProps>
			<v:userDefs>
				<v:ud v:nameU="visVersion" v:val="VT0(15):26"/>
			</v:userDefs>
			<v:textBlock v:margins="rect(4,4,4,4)" v:tabSpace="42.5197"/>
			<v:textRect cx="50.6693" cy="490.154" width="76.01" height="47.6717"/>
			<path d="M0 490.15 L50.67 462.91 L101.34 490.15 L50.67 517.4 L0 490.15 Z" class="st7"/>
			<text x="25.92" y="487.45" class="st3" v:langID="1033"><v:paragraph v:horizAlign="1" v:bulletSize="0.166667"/><v:tabList/>daily_serie = <tspan
						x="41.85" dy="1.2em" class="st9">True</tspan></text>		</g>
		<g id="shape991-31" v:mID="991" v:groupContext="shape" transform="translate(279.138,-393.942)">
			<title>Rounded Rectangle.991</title>
			<desc>Agg daily to monthly</desc>
			<v:userDefs>
				<v:ud v:nameU="CTypeTopLeftSnip" v:prompt="" v:val="VT0(0):5"/>
				<v:ud v:nameU="CTypeTopRightSnip" v:prompt="" v:val="VT0(0):5"/>
				<v:ud v:nameU="CTypeBotLeftSnip" v:prompt="" v:val="VT0(0):5"/>
				<v:ud v:nameU="CTypeBotRightSnip" v:prompt="" v:val="VT0(0):5"/>
				<v:ud v:nameU="CornerLockHoriz" v:prompt="" v:val="VT0(1):5"/>
				<v:ud v:nameU="CornerLockVert" v:prompt="" v:val="VT0(1):5"/>
				<v:ud v:nameU="CornerLockDiag" v:prompt="" v:val="VT0(0):5"/>
				<v:ud v:nameU="TopLeftOffset" v:prompt="" v:val="VT0(0.15748031496063):24"/>
				<v:ud v:nameU="TopRightOffset" v:prompt="" v:val="VT0(0.15748031496063):24"/>
				<v:ud v:nameU="BotLeftOffset" v:prompt="" v:val="VT0(0.15748031496063):24"/>
				<v:ud v:nameU="BotRightOffset" v:prompt="" v:val="VT0(0.15748031496063):24"/>
				<v:ud v:nameU="visVersion" v:prompt="" v:val="VT0(15):26"/>
			</v:userDefs>
			<v:textBlock v:margins="rect(4,4,4,4)" v:tabSpace="42.5197"/>
			<v:textRect cx="62.3622" cy="506.057" width="124.73" height="22.6772"/>
			<path d="M11.34 517.4 L113.39 517.4 A11.3384 11.3384 -180 0 0 124.72 506.06 A11.3384 11.3384 -180 0 0 113.39 494.72 L11.34
						 494.72 A11.3384 11.3384 -180 0 0 0 506.06 A11.3384 11.3384 -180 0 0 11.34 517.4 Z" class="st10"/>
			<text x="20.61" y="508.76" class="st3" v:langID="1033"><v:paragraph v:horizAlign="1"/><v:tabList/>Agg daily to monthly</text>		</g>
		<g id="shape995-36" v:mID="995" v:groupContext="shape" v:layerMember="0" transform="translate(259.119,-398.194)">
			<title>Dynamic connector.995</title>
			<desc>S</desc>
			<v:userDefs>
				<v:ud v:nameU="visVersion" v:val="VT0(15):26"/>
			</v:userDefs>
			<v:textBlock v:margins="rect(4,4,4,4)" v:tabSpace="42.5197"/>
			<v:textRect cx="10.0098" cy="510.309" width="30" height="15.2035"/>
			<path d="M0 510.31 C3.8 510.31 10.47 510.31 15.65 510.31" class="st12"/>
			<rect v:rectContext="textBkgnd" x="8.41619" y="506.709" width="3.18741" height="7.20016" class="st13"/>
			<text x="8.42" y="512.11" class="st14" v:langID="1033"><v:paragraph v:horizAlign="1"/><v:tabList/>S</text>		</g>
		<g id="shape996-44" v:mID="996" v:groupContext="shape" transform="translate(145.956,-447.8)">
			<title>Rounded Rectangle.996</title>
			<desc>Stations series file</desc>
			<v:userDefs>
				<v:ud v:nameU="CTypeTopLeftSnip" v:prompt="" v:val="VT0(0):5"/>
				<v:ud v:nameU="CTypeTopRightSnip" v:prompt="" v:val="VT0(0):5"/>
				<v:ud v:nameU="CTypeBotLeftSnip" v:prompt="" v:val="VT0(0):5"/>
				<v:ud v:nameU="CTypeBotRightSnip" v:prompt="" v:val="VT0(0):5"/>
				<v:ud v:nameU="CornerLockHoriz" v:prompt="" v:val="VT0(1):5"/>
				<v:ud v:nameU="CornerLockVert" v:prompt="" v:val="VT0(1):5"/>
				<v:ud v:nameU="CornerLockDiag" v:prompt="" v:val="VT0(0):5"/>
				<v:ud v:nameU="TopLeftOffset" v:prompt="" v:val="VT0(0.15748031496063):24"/>
				<v:ud v:nameU="TopRightOffset" v:prompt="" v:val="VT0(0.15748031496063):24"/>
				<v:ud v:nameU="BotLeftOffset" v:prompt="" v:val="VT0(0.15748031496063):24"/>
				<v:ud v:nameU="BotRightOffset" v:prompt="" v:val="VT0(0.15748031496063):24"/>
				<v:ud v:nameU="visVersion" v:prompt="" v:val="VT0(15):26"/>
			</v:userDefs>
			<v:textBlock v:margins="rect(4,4,4,4)" v:tabSpace="42.5197"/>
			<v:textRect cx="62.3622" cy="506.057" width="124.73" height="22.6772"/>
			<path d="M11.34 517.4 L113.39 517.4 A11.3384 11.3384 -180 0 0 124.72 506.06 A11.3384 11.3384 -180 0 0 113.39 494.72 L11.34
						 494.72 A11.3384 11.3384 -180 0 0 0 506.06 A11.3384 11.3384 -180 0 0 11.34 517.4 Z" class="st10"/>
			<text x="26.86" y="508.76" class="st3" v:langID="1033"><v:paragraph v:horizAlign="1"/><v:tabList/>Stations series file</text>		</g>
		<g id="shape997-48" v:mID="997" v:groupContext="shape" v:layerMember="0" transform="translate(215.47,-484.871)">
			<title>Dynamic connector.997</title>
			<v:userDefs>
				<v:ud v:nameU="visVersion" v:val="VT0(15):26"/>
			</v:userDefs>
			<path d="M-7.02 517.4 C-7.02 520.05 -7.02 520.94 -7.02 521.64 C-7.02 521.99 -7.02 522.3 -7.03 522.47 C-7.05 522.71 -7.1
						 522.71 -7.12 522.92 C-7.15 523.18 -7.15 523.78 -7.15 524.43 C-7.15 525.18 -7.15 526 -7.15 527.42"
					class="st12"/>
		</g>
		<g id="shape998-53" v:mID="998" v:groupContext="shape" v:layerMember="0" transform="translate(201.297,-447.8)">
			<title>Dynamic connector.998</title>
			<v:userDefs>
				<v:ud v:nameU="visVersion" v:val="VT0(15):26"/>
			</v:userDefs>
			<path d="M7.02 517.4 C7.02 520.05 7.02 520.94 7.02 521.63 C7.02 521.98 7.02 522.28 7.03 522.46 C7.05 522.71 7.1 522.71
						 7.12 522.93 C7.15 523.22 7.15 523.88 7.15 524.6 C7.15 525.49 7.15 526.48 7.15 528.31" class="st12"/>
		</g>
		<g id="shape999-58" v:mID="999" v:groupContext="shape" transform="translate(9.84707,-447.8)">
			<title>Rounded Rectangle.999</title>
			<desc>ENSO-ONI file with event_mark</desc>
			<v:userDefs>
				<v:ud v:nameU="CTypeTopLeftSnip" v:prompt="" v:val="VT0(0):5"/>
				<v:ud v:nameU="CTypeTopRightSnip" v:prompt="" v:val="VT0(0):5"/>
				<v:ud v:nameU="CTypeBotLeftSnip" v:prompt="" v:val="VT0(0):5"/>
				<v:ud v:nameU="CTypeBotRightSnip" v:prompt="" v:val="VT0(0):5"/>
				<v:ud v:nameU="CornerLockHoriz" v:prompt="" v:val="VT0(1):5"/>
				<v:ud v:nameU="CornerLockVert" v:prompt="" v:val="VT0(1):5"/>
				<v:ud v:nameU="CornerLockDiag" v:prompt="" v:val="VT0(0):5"/>
				<v:ud v:nameU="TopLeftOffset" v:prompt="" v:val="VT0(0.15748031496063):24"/>
				<v:ud v:nameU="TopRightOffset" v:prompt="" v:val="VT0(0.15748031496063):24"/>
				<v:ud v:nameU="BotLeftOffset" v:prompt="" v:val="VT0(0.15748031496063):24"/>
				<v:ud v:nameU="BotRightOffset" v:prompt="" v:val="VT0(0.15748031496063):24"/>
				<v:ud v:nameU="visVersion" v:prompt="" v:val="VT0(15):26"/>
			</v:userDefs>
			<v:textBlock v:margins="rect(4,4,4,4)" v:tabSpace="42.5197"/>
			<v:textRect cx="62.3622" cy="506.057" width="124.73" height="22.6772"/>
			<path d="M11.34 517.4 L113.39 517.4 A11.3384 11.3384 -180 0 0 124.72 506.06 A11.3384 11.3384 -180 0 0 113.39 494.72 L11.34
						 494.72 A11.3384 11.3384 -180 0 0 0 506.06 A11.3384 11.3384 -180 0 0 11.34 517.4 Z" class="st10"/>
			<text x="24.36" y="503.36" class="st3" v:langID="1033"><v:paragraph v:horizAlign="1"/><v:tabList/>ENSO-ONI file with <tspan
						x="39.59" dy="1.2em" class="st9">event_mark</tspan></text>		</g>
		<g id="shape1000-63" v:mID="1000" v:groupContext="shape" v:layerMember="0" transform="translate(208.449,-484.871)">
			<title>Dynamic connector.1000</title>
			<v:userDefs>
				<v:ud v:nameU="visVersion" v:val="VT0(15):26"/>
			</v:userDefs>
			<path d="M0 517.4 C0 522.71 -13.65 522.71 -25.25 522.71 C-42.59 522.71 -55.36 522.71 -68.11 522.71 C-80.86 522.71 -93.61
						 522.71 -110.91 522.71 C-120.39 522.71 -131.24 522.71 -134.93 527.62 L-135.04 527.97" class="st5"/>
		</g>
		<g id="shape1001-68" v:mID="1001" v:groupContext="shape" transform="translate(146.087,-332.997)">
			<title>Rounded Rectangle.1001</title>
			<desc>Composite agg_func &#38; std</desc>
			<v:userDefs>
				<v:ud v:nameU="CTypeTopLeftSnip" v:prompt="" v:val="VT0(0):5"/>
				<v:ud v:nameU="CTypeTopRightSnip" v:prompt="" v:val="VT0(0):5"/>
				<v:ud v:nameU="CTypeBotLeftSnip" v:prompt="" v:val="VT0(0):5"/>
				<v:ud v:nameU="CTypeBotRightSnip" v:prompt="" v:val="VT0(0):5"/>
				<v:ud v:nameU="CornerLockHoriz" v:prompt="" v:val="VT0(1):5"/>
				<v:ud v:nameU="CornerLockVert" v:prompt="" v:val="VT0(1):5"/>
				<v:ud v:nameU="CornerLockDiag" v:prompt="" v:val="VT0(0):5"/>
				<v:ud v:nameU="TopLeftOffset" v:prompt="" v:val="VT0(0.15748031496063):24"/>
				<v:ud v:nameU="TopRightOffset" v:prompt="" v:val="VT0(0.15748031496063):24"/>
				<v:ud v:nameU="BotLeftOffset" v:prompt="" v:val="VT0(0.15748031496063):24"/>
				<v:ud v:nameU="BotRightOffset" v:prompt="" v:val="VT0(0.15748031496063):24"/>
				<v:ud v:nameU="visVersion" v:prompt="" v:val="VT0(15):26"/>
				<v:ud v:nameU="TopLeftOffset" v:prompt="" v:val="VT0(0.15748031969087):1"/>
				<v:ud v:nameU="TopRightOffset" v:prompt="" v:val="VT0(0.15748031969087):1"/>
				<v:ud v:nameU="BotLeftOffset" v:prompt="" v:val="VT0(0.15748031969087):1"/>
				<v:ud v:nameU="BotRightOffset" v:prompt="" v:val="VT0(0.15748031969087):1"/>
			</v:userDefs>
			<v:textBlock v:margins="rect(4,4,4,4)" v:tabSpace="42.5197"/>
			<v:textRect cx="62.3622" cy="506.057" width="124.73" height="22.6772"/>
			<path d="M11.34 517.4 L113.39 517.4 A11.3384 11.3384 -180 0 0 124.72 506.06 A11.3384 11.3384 -180 0 0 113.39 494.72 L11.34
						 494.72 A11.3384 11.3384 -180 0 0 -0 506.06 A11.3384 11.3384 -180 0 0 11.34 517.4 Z" class="st7"/>
			<text x="9.48" y="508.76" class="st3" v:langID="1033"><v:paragraph v:horizAlign="1" v:bulletSize="0.166667"/><v:tabList/>Composite agg_func &#38; std</text>		</g>
		<g id="shape1002-72" v:mID="1002" v:groupContext="shape" v:layerMember="0" transform="translate(201.363,-378.039)">
			<title>Dynamic connector.1002</title>
			<desc>N</desc>
			<v:userDefs>
				<v:ud v:nameU="visVersion" v:val="VT0(15):26"/>
			</v:userDefs>
			<v:textBlock v:margins="rect(4,4,4,4)" v:tabSpace="42.5197"/>
			<v:textRect cx="7.08661" cy="528.578" width="30" height="15.2035"/>
			<path d="M7.09 517.4 C7.09 521.76 7.09 529.54 7.09 535.4" class="st12"/>
			<rect v:rectContext="textBkgnd" x="4.84257" y="524.978" width="4.48819" height="7.20016" class="st15"/>
			<text x="4.84" y="530.38" class="st14" v:langID="1033"><v:paragraph v:horizAlign="1"/><v:tabList/>N</text>		</g>
		<g id="shape1003-79" v:mID="1003" v:groupContext="shape" v:layerMember="0" transform="translate(341.501,-393.942)">
			<title>Dynamic connector.1003</title>
			<v:userDefs>
				<v:ud v:nameU="visVersion" v:val="VT0(15):26"/>
			</v:userDefs>
			<path d="M0 517.4 C-0 545.03 -29.11 545.03 -50.45 545.03 C-77.86 545.03 -92.42 545.03 -111.97 545.03 C-120.3 545.03 -129.54
						 545.03 -132.26 551.37 L-132.32 551.72" class="st5"/>
		</g>
		<g id="shape1005-84" v:mID="1005" v:groupContext="shape" v:layerMember="1" transform="translate(157.78,-183.554)">
			<title>Decision 2.1005</title>
			<desc>for event_mark (Ni単o, Ni単a, Neutro)</desc>
			<v:custProps>
				<v:cp v:nameU="Cost" v:lbl="Cost" v:type="7" v:format="@" v:langID="1033"/>
				<v:cp v:nameU="Duration" v:lbl="Duration" v:type="2" v:langID="1033"/>
				<v:cp v:nameU="Resources" v:lbl="Resources" v:langID="1033"/>
			</v:custProps>
			<v:userDefs>
				<v:ud v:nameU="visVersion" v:val="VT0(15):26"/>
			</v:userDefs>
			<v:textBlock v:margins="rect(4,4,4,4)" v:tabSpace="42.5197"/>
			<v:textRect cx="50.6693" cy="490.154" width="76.01" height="47.6717"/>
			<path d="M0 490.15 L50.67 462.91 L101.34 490.15 L50.67 517.4 L0 490.15 Z" class="st7"/>
			<text x="21.06" y="482.05" class="st3" v:langID="1033"><v:paragraph v:horizAlign="1" v:bulletSize="0.166667"/><v:tabList/>for event_mark <tspan
						x="27.2" dy="1.2em" class="st9">(Ni単o, Ni単a, </tspan><tspan x="35.32" dy="1.2em" class="st9">Neutro)</tspan></text>		</g>
		<g id="shape1006-90" v:mID="1006" v:groupContext="shape" v:layerMember="0" transform="translate(72.2093,-447.8)">
			<title>Dynamic connector.1006</title>
			<v:userDefs>
				<v:ud v:nameU="visVersion" v:val="VT0(15):26"/>
			</v:userDefs>
			<path d="M0 517.4 C0 716.53 42.34 716.53 69.41 716.53 C85.89 716.53 96.71 716.53 115.36 716.53 C123.3 716.53 132.67 716.53
						 135.43 722.87 L135.5 723.22" class="st5"/>
		</g>
		<g id="shape1007-95" v:mID="1007" v:groupContext="shape" transform="translate(146.087,-260.713)">
			<title>Rounded Rectangle.1007</title>
			<desc>Composite .csv, report, graph</desc>
			<v:userDefs>
				<v:ud v:nameU="CTypeTopLeftSnip" v:prompt="" v:val="VT0(0):5"/>
				<v:ud v:nameU="CTypeTopRightSnip" v:prompt="" v:val="VT0(0):5"/>
				<v:ud v:nameU="CTypeBotLeftSnip" v:prompt="" v:val="VT0(0):5"/>
				<v:ud v:nameU="CTypeBotRightSnip" v:prompt="" v:val="VT0(0):5"/>
				<v:ud v:nameU="CornerLockHoriz" v:prompt="" v:val="VT0(1):5"/>
				<v:ud v:nameU="CornerLockVert" v:prompt="" v:val="VT0(1):5"/>
				<v:ud v:nameU="CornerLockDiag" v:prompt="" v:val="VT0(0):5"/>
				<v:ud v:nameU="TopLeftOffset" v:prompt="" v:val="VT0(0.15748031496063):24"/>
				<v:ud v:nameU="TopRightOffset" v:prompt="" v:val="VT0(0.15748031496063):24"/>
				<v:ud v:nameU="BotLeftOffset" v:prompt="" v:val="VT0(0.15748031496063):24"/>
				<v:ud v:nameU="BotRightOffset" v:prompt="" v:val="VT0(0.15748031496063):24"/>
				<v:ud v:nameU="visVersion" v:prompt="" v:val="VT0(15):26"/>
				<v:ud v:nameU="TopLeftOffset" v:prompt="" v:val="VT0(0.15748031969087):1"/>
				<v:ud v:nameU="TopRightOffset" v:prompt="" v:val="VT0(0.15748031969087):1"/>
				<v:ud v:nameU="BotLeftOffset" v:prompt="" v:val="VT0(0.15748031969087):1"/>
				<v:ud v:nameU="BotRightOffset" v:prompt="" v:val="VT0(0.15748031969087):1"/>
			</v:userDefs>
			<v:textBlock v:margins="rect(4,4,4,4)" v:tabSpace="42.5197"/>
			<v:textRect cx="62.3622" cy="506.057" width="124.73" height="22.6772"/>
			<path d="M11.34 517.4 L113.39 517.4 A11.3384 11.3384 -180 0 0 124.72 506.06 A11.3384 11.3384 -180 0 0 113.39 494.72 L11.34
						 494.72 A11.3384 11.3384 -180 0 0 -0 506.06 A11.3384 11.3384 -180 0 0 11.34 517.4 Z" class="st7"/>
			<text x="4.15" y="508.76" class="st3" v:langID="1033"><v:paragraph v:horizAlign="1" v:bulletSize="0.166667"/><v:tabList/>Composite .csv, report, graph</text>		</g>
		<g id="shape1008-99" v:mID="1008" v:groupContext="shape" v:layerMember="0" transform="translate(201.363,-332.997)">
			<title>Dynamic connector.1008</title>
			<v:userDefs>
				<v:ud v:nameU="visVersion" v:val="VT0(15):26"/>
			</v:userDefs>
			<path d="M7.09 517.4 C7.09 519.78 7.09 523.77 7.09 527.2" class="st12"/>
		</g>
		<g id="shape1009-104" v:mID="1009" v:groupContext="shape" transform="translate(280.379,-199.485)">
			<title>Rounded Rectangle.1009</title>
			<desc>event_mark agg_func &#38; std</desc>
			<v:userDefs>
				<v:ud v:nameU="CTypeTopLeftSnip" v:prompt="" v:val="VT0(0):5"/>
				<v:ud v:nameU="CTypeTopRightSnip" v:prompt="" v:val="VT0(0):5"/>
				<v:ud v:nameU="CTypeBotLeftSnip" v:prompt="" v:val="VT0(0):5"/>
				<v:ud v:nameU="CTypeBotRightSnip" v:prompt="" v:val="VT0(0):5"/>
				<v:ud v:nameU="CornerLockHoriz" v:prompt="" v:val="VT0(1):5"/>
				<v:ud v:nameU="CornerLockVert" v:prompt="" v:val="VT0(1):5"/>
				<v:ud v:nameU="CornerLockDiag" v:prompt="" v:val="VT0(0):5"/>
				<v:ud v:nameU="TopLeftOffset" v:prompt="" v:val="VT0(0.15748031496063):24"/>
				<v:ud v:nameU="TopRightOffset" v:prompt="" v:val="VT0(0.15748031496063):24"/>
				<v:ud v:nameU="BotLeftOffset" v:prompt="" v:val="VT0(0.15748031496063):24"/>
				<v:ud v:nameU="BotRightOffset" v:prompt="" v:val="VT0(0.15748031496063):24"/>
				<v:ud v:nameU="visVersion" v:prompt="" v:val="VT0(15):26"/>
				<v:ud v:nameU="TopLeftOffset" v:prompt="" v:val="VT0(0.15748031969087):1"/>
				<v:ud v:nameU="TopRightOffset" v:prompt="" v:val="VT0(0.15748031969087):1"/>
				<v:ud v:nameU="BotLeftOffset" v:prompt="" v:val="VT0(0.15748031969087):1"/>
				<v:ud v:nameU="BotRightOffset" v:prompt="" v:val="VT0(0.15748031969087):1"/>
			</v:userDefs>
			<v:textBlock v:margins="rect(4,4,4,4)" v:tabSpace="42.5197"/>
			<v:textRect cx="62.3622" cy="506.057" width="124.73" height="22.6772"/>
			<path d="M11.34 517.4 L113.39 517.4 A11.3384 11.3384 -180 0 0 124.72 506.06 A11.3384 11.3384 -180 0 0 113.39 494.72 L11.34
						 494.72 A11.3384 11.3384 -180 0 0 -0 506.06 A11.3384 11.3384 -180 0 0 11.34 517.4 Z" class="st7"/>
			<text x="8.17" y="508.76" class="st3" v:langID="1033"><v:paragraph v:horizAlign="1" v:bulletSize="0.166667"/><v:tabList/>event_mark agg_func &#38; std</text>		</g>
		<g id="shape1010-108" v:mID="1010" v:groupContext="shape" v:layerMember="0" transform="translate(259.119,-203.723)">
			<title>Dynamic connector.1010</title>
			<desc>S</desc>
			<v:userDefs>
				<v:ud v:nameU="visVersion" v:val="VT0(15):26"/>
			</v:userDefs>
			<v:textBlock v:margins="rect(4,4,4,4)" v:tabSpace="42.5197"/>
			<v:textRect cx="10.6299" cy="510.309" width="30" height="15.2035"/>
			<path d="M0 510.32 C5.31 510.32 7.09 510.32 8.56 510.32 C9.3 510.32 9.97 510.32 10.3 510.32 C10.63 510.31 10.63 510.3
						 10.96 510.3 C11.29 510.29 11.96 510.29 12.7 510.29 C13.66 510.29 14.76 510.29 16.89 510.29" class="st12"/>
			<rect v:rectContext="textBkgnd" x="9.03627" y="506.709" width="3.18741" height="7.20016" class="st15"/>
			<text x="9.04" y="512.11" class="st14" v:langID="1033"><v:paragraph v:horizAlign="1"/><v:tabList/>S</text>		</g>
		<g id="shape1011-115" v:mID="1011" v:groupContext="shape" transform="translate(280.379,-124.083)">
			<title>Rounded Rectangle.1011</title>
			<desc>event_mark .csv, report, graph</desc>
			<v:userDefs>
				<v:ud v:nameU="CTypeTopLeftSnip" v:prompt="" v:val="VT0(0):5"/>
				<v:ud v:nameU="CTypeTopRightSnip" v:prompt="" v:val="VT0(0):5"/>
				<v:ud v:nameU="CTypeBotLeftSnip" v:prompt="" v:val="VT0(0):5"/>
				<v:ud v:nameU="CTypeBotRightSnip" v:prompt="" v:val="VT0(0):5"/>
				<v:ud v:nameU="CornerLockHoriz" v:prompt="" v:val="VT0(1):5"/>
				<v:ud v:nameU="CornerLockVert" v:prompt="" v:val="VT0(1):5"/>
				<v:ud v:nameU="CornerLockDiag" v:prompt="" v:val="VT0(0):5"/>
				<v:ud v:nameU="TopLeftOffset" v:prompt="" v:val="VT0(0.15748031496063):24"/>
				<v:ud v:nameU="TopRightOffset" v:prompt="" v:val="VT0(0.15748031496063):24"/>
				<v:ud v:nameU="BotLeftOffset" v:prompt="" v:val="VT0(0.15748031496063):24"/>
				<v:ud v:nameU="BotRightOffset" v:prompt="" v:val="VT0(0.15748031496063):24"/>
				<v:ud v:nameU="visVersion" v:prompt="" v:val="VT0(15):26"/>
				<v:ud v:nameU="TopLeftOffset" v:prompt="" v:val="VT0(0.15748031969087):1"/>
				<v:ud v:nameU="TopRightOffset" v:prompt="" v:val="VT0(0.15748031969087):1"/>
				<v:ud v:nameU="BotLeftOffset" v:prompt="" v:val="VT0(0.15748031969087):1"/>
				<v:ud v:nameU="BotRightOffset" v:prompt="" v:val="VT0(0.15748031969087):1"/>
			</v:userDefs>
			<v:textBlock v:margins="rect(4,4,4,4)" v:tabSpace="42.5197"/>
			<v:textRect cx="62.3622" cy="506.057" width="124.73" height="22.6772"/>
			<path d="M11.34 517.4 L113.39 517.4 A11.3384 11.3384 -180 0 0 124.72 506.06 A11.3384 11.3384 -180 0 0 113.39 494.72 L11.34
						 494.72 A11.3384 11.3384 -180 0 0 -0 506.06 A11.3384 11.3384 -180 0 0 11.34 517.4 Z" class="st7"/>
			<text x="15.77" y="503.36" class="st3" v:langID="1033"><v:paragraph v:horizAlign="1" v:bulletSize="0.166667"/><v:tabList/>event_mark .csv, report, <tspan
						x="50.67" dy="1.2em" class="st9">graph</tspan></text>		</g>
		<g id="shape1012-120" v:mID="1012" v:groupContext="shape" v:layerMember="0" transform="translate(335.654,-199.485)">
			<title>Dynamic connector.1012</title>
			<v:userDefs>
				<v:ud v:nameU="visVersion" v:val="VT0(15):26"/>
			</v:userDefs>
			<path d="M7.09 517.4 C7.09 519.98 7.09 524.36 7.09 528.05" class="st12"/>
		</g>
		<g id="shape1014-125" v:mID="1014" v:groupContext="shape" transform="translate(145.956,-77.8786)">
			<title>Rounded Rectangle.1014</title>
			<desc>Station matrix &#38; Zonal matrix</desc>
			<v:userDefs>
				<v:ud v:nameU="CTypeTopLeftSnip" v:prompt="" v:val="VT0(0):5"/>
				<v:ud v:nameU="CTypeTopRightSnip" v:prompt="" v:val="VT0(0):5"/>
				<v:ud v:nameU="CTypeBotLeftSnip" v:prompt="" v:val="VT0(0):5"/>
				<v:ud v:nameU="CTypeBotRightSnip" v:prompt="" v:val="VT0(0):5"/>
				<v:ud v:nameU="CornerLockHoriz" v:prompt="" v:val="VT0(1):5"/>
				<v:ud v:nameU="CornerLockVert" v:prompt="" v:val="VT0(1):5"/>
				<v:ud v:nameU="CornerLockDiag" v:prompt="" v:val="VT0(0):5"/>
				<v:ud v:nameU="TopLeftOffset" v:prompt="" v:val="VT0(0.15748031496063):24"/>
				<v:ud v:nameU="TopRightOffset" v:prompt="" v:val="VT0(0.15748031496063):24"/>
				<v:ud v:nameU="BotLeftOffset" v:prompt="" v:val="VT0(0.15748031496063):24"/>
				<v:ud v:nameU="BotRightOffset" v:prompt="" v:val="VT0(0.15748031496063):24"/>
				<v:ud v:nameU="visVersion" v:prompt="" v:val="VT0(15):26"/>
				<v:ud v:nameU="TopLeftOffset" v:prompt="" v:val="VT0(0.15748031969087):1"/>
				<v:ud v:nameU="TopRightOffset" v:prompt="" v:val="VT0(0.15748031969087):1"/>
				<v:ud v:nameU="BotLeftOffset" v:prompt="" v:val="VT0(0.15748031969087):1"/>
				<v:ud v:nameU="BotRightOffset" v:prompt="" v:val="VT0(0.15748031969087):1"/>
			</v:userDefs>
			<v:textBlock v:margins="rect(4,4,4,4)" v:tabSpace="42.5197"/>
			<v:textRect cx="62.3622" cy="506.057" width="124.73" height="22.6772"/>
			<path d="M11.34 517.4 L113.39 517.4 A11.3384 11.3384 -180 0 0 124.72 506.06 A11.3384 11.3384 -180 0 0 113.39 494.72 L11.34
						 494.72 A11.3384 11.3384 -180 0 0 -0 506.06 A11.3384 11.3384 -180 0 0 11.34 517.4 Z" class="st7"/>
			<text x="29.88" y="503.36" class="st3" v:langID="1033"><v:paragraph v:horizAlign="1" v:bulletSize="0.166667"/><v:tabList/>Station matrix &#38;<v:newlineChar/><tspan
						x="36.36" dy="1.2em" class="st9"> </tspan>Zonal matrix</text>		</g>
		<g id="shape1015-130" v:mID="1015" v:groupContext="shape" transform="translate(146.087,-296.146)">
			<title>Rounded Rectangle.1015</title>
			<desc>Composite zonal values</desc>
			<v:userDefs>
				<v:ud v:nameU="CTypeTopLeftSnip" v:prompt="" v:val="VT0(0):5"/>
				<v:ud v:nameU="CTypeTopRightSnip" v:prompt="" v:val="VT0(0):5"/>
				<v:ud v:nameU="CTypeBotLeftSnip" v:prompt="" v:val="VT0(0):5"/>
				<v:ud v:nameU="CTypeBotRightSnip" v:prompt="" v:val="VT0(0):5"/>
				<v:ud v:nameU="CornerLockHoriz" v:prompt="" v:val="VT0(1):5"/>
				<v:ud v:nameU="CornerLockVert" v:prompt="" v:val="VT0(1):5"/>
				<v:ud v:nameU="CornerLockDiag" v:prompt="" v:val="VT0(0):5"/>
				<v:ud v:nameU="TopLeftOffset" v:prompt="" v:val="VT0(0.15748031496063):24"/>
				<v:ud v:nameU="TopRightOffset" v:prompt="" v:val="VT0(0.15748031496063):24"/>
				<v:ud v:nameU="BotLeftOffset" v:prompt="" v:val="VT0(0.15748031496063):24"/>
				<v:ud v:nameU="BotRightOffset" v:prompt="" v:val="VT0(0.15748031496063):24"/>
				<v:ud v:nameU="visVersion" v:prompt="" v:val="VT0(15):26"/>
				<v:ud v:nameU="TopLeftOffset" v:prompt="" v:val="VT0(0.15748031969087):1"/>
				<v:ud v:nameU="TopRightOffset" v:prompt="" v:val="VT0(0.15748031969087):1"/>
				<v:ud v:nameU="BotLeftOffset" v:prompt="" v:val="VT0(0.15748031969087):1"/>
				<v:ud v:nameU="BotRightOffset" v:prompt="" v:val="VT0(0.15748031969087):1"/>
			</v:userDefs>
			<v:textBlock v:margins="rect(4,4,4,4)" v:tabSpace="42.5197"/>
			<v:textRect cx="62.3622" cy="506.057" width="124.73" height="22.6772"/>
			<path d="M11.34 517.4 L113.39 517.4 A11.3384 11.3384 -180 0 0 124.72 506.06 A11.3384 11.3384 -180 0 0 113.39 494.72 L11.34
						 494.72 A11.3384 11.3384 -180 0 0 -0 506.06 A11.3384 11.3384 -180 0 0 11.34 517.4 Z" class="st7"/>
			<text x="15.5" y="508.76" class="st3" v:langID="1033"><v:paragraph v:horizAlign="1" v:bulletSize="0.166667"/><v:tabList/>Composite zonal values</text>		</g>
		<g id="shape1016-134" v:mID="1016" v:groupContext="shape" v:layerMember="0" transform="translate(201.363,-296.855)">
			<title>Dynamic connector.1016</title>
			<v:userDefs>
				<v:ud v:nameU="visVersion" v:val="VT0(15):26"/>
			</v:userDefs>
			<path d="M7.09 518.1 C7.09 520.15 7.09 523.51 7.09 526.49" class="st12"/>
		</g>
		<g id="shape1017-139" v:mID="1017" v:groupContext="shape" transform="translate(280.379,-161.784)">
			<title>Rounded Rectangle.1017</title>
			<desc>event_mark zonal values</desc>
			<v:userDefs>
				<v:ud v:nameU="CTypeTopLeftSnip" v:prompt="" v:val="VT0(0):5"/>
				<v:ud v:nameU="CTypeTopRightSnip" v:prompt="" v:val="VT0(0):5"/>
				<v:ud v:nameU="CTypeBotLeftSnip" v:prompt="" v:val="VT0(0):5"/>
				<v:ud v:nameU="CTypeBotRightSnip" v:prompt="" v:val="VT0(0):5"/>
				<v:ud v:nameU="CornerLockHoriz" v:prompt="" v:val="VT0(1):5"/>
				<v:ud v:nameU="CornerLockVert" v:prompt="" v:val="VT0(1):5"/>
				<v:ud v:nameU="CornerLockDiag" v:prompt="" v:val="VT0(0):5"/>
				<v:ud v:nameU="TopLeftOffset" v:prompt="" v:val="VT0(0.15748031496063):24"/>
				<v:ud v:nameU="TopRightOffset" v:prompt="" v:val="VT0(0.15748031496063):24"/>
				<v:ud v:nameU="BotLeftOffset" v:prompt="" v:val="VT0(0.15748031496063):24"/>
				<v:ud v:nameU="BotRightOffset" v:prompt="" v:val="VT0(0.15748031496063):24"/>
				<v:ud v:nameU="visVersion" v:prompt="" v:val="VT0(15):26"/>
				<v:ud v:nameU="TopLeftOffset" v:prompt="" v:val="VT0(0.15748031969087):1"/>
				<v:ud v:nameU="TopRightOffset" v:prompt="" v:val="VT0(0.15748031969087):1"/>
				<v:ud v:nameU="BotLeftOffset" v:prompt="" v:val="VT0(0.15748031969087):1"/>
				<v:ud v:nameU="BotRightOffset" v:prompt="" v:val="VT0(0.15748031969087):1"/>
			</v:userDefs>
			<v:textBlock v:margins="rect(4,4,4,4)" v:tabSpace="42.5197"/>
			<v:textRect cx="62.3622" cy="506.057" width="124.73" height="22.6772"/>
			<path d="M11.34 517.4 L113.39 517.4 A11.3384 11.3384 -180 0 0 124.72 506.06 A11.3384 11.3384 -180 0 0 113.39 494.72 L11.34
						 494.72 A11.3384 11.3384 -180 0 0 -0 506.06 A11.3384 11.3384 -180 0 0 11.34 517.4 Z" class="st7"/>
			<text x="14.19" y="508.76" class="st3" v:langID="1033"><v:paragraph v:horizAlign="1" v:bulletSize="0.166667"/><v:tabList/>event_mark zonal values</text>		</g>
		<g id="shape1018-143" v:mID="1018" v:groupContext="shape" v:layerMember="0" transform="translate(335.654,-161.784)">
			<title>Dynamic connector.1018</title>
			<v:userDefs>
				<v:ud v:nameU="visVersion" v:val="VT0(15):26"/>
			</v:userDefs>
			<path d="M7.09 517.4 C7.09 519.98 7.09 524.36 7.09 528.05" class="st12"/>
		</g>
		<g id="shape1023-148" v:mID="1023" v:groupContext="shape" transform="translate(145.956,-43.8628)">
			<title>Rounded Rectangle.1023</title>
			<desc>Markdown report</desc>
			<v:userDefs>
				<v:ud v:nameU="CTypeTopLeftSnip" v:prompt="" v:val="VT0(0):5"/>
				<v:ud v:nameU="CTypeTopRightSnip" v:prompt="" v:val="VT0(0):5"/>
				<v:ud v:nameU="CTypeBotLeftSnip" v:prompt="" v:val="VT0(0):5"/>
				<v:ud v:nameU="CTypeBotRightSnip" v:prompt="" v:val="VT0(0):5"/>
				<v:ud v:nameU="CornerLockHoriz" v:prompt="" v:val="VT0(1):5"/>
				<v:ud v:nameU="CornerLockVert" v:prompt="" v:val="VT0(1):5"/>
				<v:ud v:nameU="CornerLockDiag" v:prompt="" v:val="VT0(0):5"/>
				<v:ud v:nameU="TopLeftOffset" v:prompt="" v:val="VT0(0.15748031496063):24"/>
				<v:ud v:nameU="TopRightOffset" v:prompt="" v:val="VT0(0.15748031496063):24"/>
				<v:ud v:nameU="BotLeftOffset" v:prompt="" v:val="VT0(0.15748031496063):24"/>
				<v:ud v:nameU="BotRightOffset" v:prompt="" v:val="VT0(0.15748031496063):24"/>
				<v:ud v:nameU="visVersion" v:prompt="" v:val="VT0(15):26"/>
				<v:ud v:nameU="TopLeftOffset" v:prompt="" v:val="VT0(0.15748031969087):1"/>
				<v:ud v:nameU="TopRightOffset" v:prompt="" v:val="VT0(0.15748031969087):1"/>
				<v:ud v:nameU="BotLeftOffset" v:prompt="" v:val="VT0(0.15748031969087):1"/>
				<v:ud v:nameU="BotRightOffset" v:prompt="" v:val="VT0(0.15748031969087):1"/>
			</v:userDefs>
			<v:textBlock v:margins="rect(4,4,4,4)" v:tabSpace="42.5197"/>
			<v:textRect cx="62.3622" cy="506.057" width="124.73" height="22.6772"/>
			<path d="M11.34 517.4 L113.39 517.4 A11.3384 11.3384 -180 0 0 124.72 506.06 A11.3384 11.3384 -180 0 0 113.39 494.72 L11.34
						 494.72 A11.3384 11.3384 -180 0 0 -0 506.06 A11.3384 11.3384 -180 0 0 11.34 517.4 Z" class="st7"/>
			<text x="27.62" y="508.76" class="st3" v:langID="1033"><v:paragraph v:horizAlign="1" v:bulletSize="0.166667"/><v:tabList/>Markdown report</text>		</g>
		<g id="shape1024-152" v:mID="1024" v:groupContext="shape" v:layerMember="0" transform="translate(215.47,-183.554)">
			<title>Dynamic connector.1024</title>
			<desc>N</desc>
			<v:userDefs>
				<v:ud v:nameU="visVersion" v:val="VT0(15):26"/>
			</v:userDefs>
			<v:textBlock v:margins="rect(4,4,4,4)" v:tabSpace="42.5197"/>
			<v:textRect cx="-7.15234" cy="558.893" width="30" height="15.2035"/>
			<path d="M-7.02 517.4 C-7.02 522.71 -7.02 524.48 -7.02 525.59 C-7.02 526.14 -7.02 526.52 -7.02 526.83 C-7.03 528.03 -7.08
						 528.03 -7.1 529.08 C-7.15 530.93 -7.15 535.99 -7.15 541.38 C-7.15 551.7 -7.15 563.21 -7.15 596.03"
					class="st12"/>
			<rect v:rectContext="textBkgnd" x="-9.39638" y="555.294" width="4.48819" height="7.20016" class="st13"/>
			<text x="-9.4" y="560.69" class="st14" v:langID="1033"><v:paragraph v:horizAlign="1"/><v:tabList/>N</text>		</g>
		<g id="shape1025-159" v:mID="1025" v:groupContext="shape" v:layerMember="0" transform="translate(342.741,-124.083)">
			<title>Dynamic connector.1025</title>
			<v:userDefs>
				<v:ud v:nameU="visVersion" v:val="VT0(15):26"/>
			</v:userDefs>
			<path d="M0 517.4 C-0 528.03 -13.54 528.03 -25.04 528.03 C-42.09 528.03 -54.65 528.03 -67.2 528.03 C-79.76 528.03 -92.3
						 528.03 -109.3 528.03 C-119.37 528.03 -131 528.03 -133.8 536.6 L-133.85 536.96" class="st5"/>
		</g>
		<g id="shape1026-164" v:mID="1026" v:groupContext="shape" v:layerMember="0" transform="translate(201.231,-79.2959)">
			<title>Dynamic connector.1026</title>
			<v:userDefs>
				<v:ud v:nameU="visVersion" v:val="VT0(15):26"/>
			</v:userDefs>
			<path d="M7.09 518.81 C7.09 520.52 7.09 523.26 7.09 525.79" class="st12"/>
		</g>
		<g id="shape1027-169" v:mID="1027" v:groupContext="shape" v:layerMember="0" transform="translate(201.231,-45.2801)">
			<title>Dynamic connector.1027</title>
			<v:userDefs>
				<v:ud v:nameU="visVersion" v:val="VT0(15):26"/>
			</v:userDefs>
			<path d="M7.09 518.81 C7.09 520.52 7.09 523.26 7.09 525.79" class="st12"/>
		</g>
		<g id="shape1028-174" v:mID="1028" v:groupContext="shape" v:layerMember="0" transform="translate(201.363,-260.713)">
			<title>Dynamic connector.1028</title>
			<v:userDefs>
				<v:ud v:nameU="visVersion" v:val="VT0(15):26"/>
			</v:userDefs>
			<path d="M7.09 517.4 C7.09 521.84 7.09 529.76 7.09 535.71" class="st12"/>
		</g>
	</g>
</svg>
