<?xml version="1.0" encoding="UTF-8" standalone="no"?>
<!DOCTYPE svg PUBLIC "-//W3C//DTD SVG 1.1//EN" "http://www.w3.org/Graphics/SVG/1.1/DTD/svg11.dtd">
<!-- Generated by Microsoft Visio, SVG Export LTWB.svg Page-1 -->
<svg xmlns="http://www.w3.org/2000/svg" xmlns:xlink="http://www.w3.org/1999/xlink" xmlns:ev="http://www.w3.org/2001/xml-events"
		xmlns:v="http://schemas.microsoft.com/visio/2003/SVGExtensions/" width="5.36014in" height="3.61069in"
		viewBox="0 0 385.93 259.97" xml:space="preserve" color-interpolation-filters="sRGB" class="st12">
	<v:documentProperties v:langID="1033" v:metric="true" v:viewMarkup="false"/>

	<style type="text/css">
	<![CDATA[
		.st1 {fill:#f2f2f2;stroke:none;stroke-width:1.5}
		.st2 {fill:#fbbc0e;fill-opacity:1;stroke:#fbbc0e;stroke-opacity:1;stroke-width:0.37313432835821}
		.st3 {fill:#000000;font-family:Segoe UI;font-size:0.75em}
		.st4 {marker-end:url(#mrkr6-15);stroke:#7f7f7f;stroke-linecap:round;stroke-linejoin:round;stroke-width:0.5}
		.st5 {fill:#7f7f7f;fill-opacity:1;stroke:#7f7f7f;stroke-opacity:1;stroke-width:0.25773195876289}
		.st6 {fill:#f2f2f2;stroke:#ea4d35;stroke-width:1.5}
		.st7 {fill:#ea4d35;fill-opacity:1;stroke:#ea4d35;stroke-opacity:1;stroke-width:0.37313432835821}
		.st8 {font-size:1em}
		.st9 {marker-end:url(#mrkr6-27);stroke:#7f7f7f;stroke-linecap:round;stroke-linejoin:round;stroke-width:0.5}
		.st10 {fill:#f2f2f2;stroke:#3ea853;stroke-width:1.5}
		.st11 {fill:#3ea853;fill-opacity:1;stroke:#3ea853;stroke-opacity:1;stroke-width:0.37313432835821}
		.st12 {fill:none;fill-rule:evenodd;font-size:12px;overflow:visible;stroke-linecap:square;stroke-miterlimit:3}
	]]>
	</style>

	<defs id="Markers">
		<g id="lend6">
			<path d="M 2 1 L 0 0 L 2.01237 -1.00641 C 2.32921 -0.372876 2.32921 0.372869 2.01238 1.0064 " style="stroke:none"/>
		</g>
		<marker id="mrkr6-4" class="st2" v:arrowType="6" v:arrowSize="2" v:setback="6.03" refX="6.03" orient="auto"
				markerUnits="strokeWidth" overflow="visible">
			<use xlink:href="#lend6" transform="scale(2.68) "/>
		</marker>
		<marker id="mrkr6-15" class="st5" v:arrowType="6" v:arrowSize="0" v:setback="8.01" refX="-8.01" orient="auto"
				markerUnits="strokeWidth" overflow="visible">
			<use xlink:href="#lend6" transform="scale(-3.88,-3.88) "/>
		</marker>
		<marker id="mrkr6-19" class="st7" v:arrowType="6" v:arrowSize="2" v:setback="6.03" refX="6.03" orient="auto"
				markerUnits="strokeWidth" overflow="visible">
			<use xlink:href="#lend6" transform="scale(2.68) "/>
		</marker>
		<marker id="mrkr6-27" class="st5" v:arrowType="6" v:arrowSize="0" v:setback="8.73" refX="-8.73" orient="auto"
				markerUnits="strokeWidth" overflow="visible">
			<use xlink:href="#lend6" transform="scale(-3.88,-3.88) "/>
		</marker>
		<marker id="mrkr6-31" class="st11" v:arrowType="6" v:arrowSize="2" v:setback="6.03" refX="6.03" orient="auto"
				markerUnits="strokeWidth" overflow="visible">
			<use xlink:href="#lend6" transform="scale(2.68) "/>
		</marker>
	</defs>
	<g v:mID="0" v:index="1" v:groupContext="foregroundPage">
		<title>Page-1</title>
		<v:pageProperties v:drawingScale="0.0393701" v:pageScale="0.0393701" v:drawingUnits="24" v:shadowOffsetX="8.50394"
				v:shadowOffsetY="-8.50394"/>
		<v:layer v:name="Connector" v:index="0"/>
		<g id="shape577-1" v:mID="577" v:groupContext="shape" transform="translate(134.21,-227.445)">
			<title>Rounded Rectangle.577</title>
			<desc>Start</desc>
			<v:userDefs>
				<v:ud v:nameU="CTypeTopLeftSnip" v:prompt="" v:val="VT0(0):5"/>
				<v:ud v:nameU="CTypeTopRightSnip" v:prompt="" v:val="VT0(0):5"/>
				<v:ud v:nameU="CTypeBotLeftSnip" v:prompt="" v:val="VT0(0):5"/>
				<v:ud v:nameU="CTypeBotRightSnip" v:prompt="" v:val="VT0(0):5"/>
				<v:ud v:nameU="CornerLockHoriz" v:prompt="" v:val="VT0(1):5"/>
				<v:ud v:nameU="CornerLockVert" v:prompt="" v:val="VT0(1):5"/>
				<v:ud v:nameU="CornerLockDiag" v:prompt="" v:val="VT0(0):5"/>
				<v:ud v:nameU="TopLeftOffset" v:prompt="" v:val="VT0(0.15748031496063):24"/>
				<v:ud v:nameU="TopRightOffset" v:prompt="" v:val="VT0(0.15748031496063):24"/>
				<v:ud v:nameU="BotLeftOffset" v:prompt="" v:val="VT0(0.15748031496063):24"/>
				<v:ud v:nameU="BotRightOffset" v:prompt="" v:val="VT0(0.15748031496063):24"/>
				<v:ud v:nameU="visVersion" v:prompt="" v:val="VT0(15):26"/>
			</v:userDefs>
			<v:textBlock v:margins="rect(4,4,4,4)" v:tabSpace="42.5197"/>
			<v:textRect cx="56.6929" cy="248.631" width="113.39" height="22.6772"/>
			<path d="M11.34 259.97 L102.05 259.97 A11.3384 11.3384 -180 0 0 113.39 248.63 A11.3384 11.3384 -180 0 0 102.05 237.29
						 L11.34 237.29 A11.3384 11.3384 -180 0 0 0 248.63 A11.3384 11.3384 -180 0 0 11.34 259.97 Z" class="st1"/>
			<text x="47.4" y="251.33" class="st3" v:langID="1033"><v:paragraph v:horizAlign="1"/><v:tabList/>Start</text>		</g>
		<g id="shape742-6" v:mID="742" v:groupContext="shape" transform="translate(134.21,-9.84707)">
			<title>Rounded Rectangle.742</title>
			<desc>End</desc>
			<v:userDefs>
				<v:ud v:nameU="CTypeTopLeftSnip" v:prompt="" v:val="VT0(0):5"/>
				<v:ud v:nameU="CTypeTopRightSnip" v:prompt="" v:val="VT0(0):5"/>
				<v:ud v:nameU="CTypeBotLeftSnip" v:prompt="" v:val="VT0(0):5"/>
				<v:ud v:nameU="CTypeBotRightSnip" v:prompt="" v:val="VT0(0):5"/>
				<v:ud v:nameU="CornerLockHoriz" v:prompt="" v:val="VT0(1):5"/>
				<v:ud v:nameU="CornerLockVert" v:prompt="" v:val="VT0(1):5"/>
				<v:ud v:nameU="CornerLockDiag" v:prompt="" v:val="VT0(0):5"/>
				<v:ud v:nameU="TopLeftOffset" v:prompt="" v:val="VT0(0.15748031496063):24"/>
				<v:ud v:nameU="TopRightOffset" v:prompt="" v:val="VT0(0.15748031496063):24"/>
				<v:ud v:nameU="BotLeftOffset" v:prompt="" v:val="VT0(0.15748031496063):24"/>
				<v:ud v:nameU="BotRightOffset" v:prompt="" v:val="VT0(0.15748031496063):24"/>
				<v:ud v:nameU="visVersion" v:prompt="" v:val="VT0(15):26"/>
			</v:userDefs>
			<v:textBlock v:margins="rect(4,4,4,4)" v:tabSpace="42.5197"/>
			<v:textRect cx="56.6929" cy="248.631" width="113.39" height="22.6772"/>
			<path d="M11.34 259.97 L102.05 259.97 A11.3384 11.3384 -180 0 0 113.39 248.63 A11.3384 11.3384 -180 0 0 102.05 237.29
						 L11.34 237.29 A11.3384 11.3384 -180 0 0 0 248.63 A11.3384 11.3384 -180 0 0 11.34 259.97 Z" class="st1"/>
			<text x="49.22" y="251.33" class="st3" v:langID="1033"><v:paragraph v:horizAlign="1"/><v:tabList/>End</text>		</g>
		<g id="shape997-10" v:mID="997" v:groupContext="shape" v:layerMember="0" transform="translate(190.903,-227.445)">
			<title>Dynamic connector.997</title>
			<v:userDefs>
				<v:ud v:nameU="visVersion" v:val="VT0(15):26"/>
			</v:userDefs>
			<path d="M0 259.97 C0 265.28 -12.46 265.28 -23.06 265.28 C-38.88 265.28 -50.53 265.28 -62.17 265.28 C-73.8 265.28 -85.42
						 265.28 -101.18 265.28 C-110.07 265.28 -120.28 265.28 -123.41 271.22 L-123.48 271.57" class="st4"/>
		</g>
		<g id="shape1035-16" v:mID="1035" v:groupContext="shape" transform="translate(134.21,-151.068)">
			<title>Rounded Rectangle.1035</title>
			<desc>Raster calculator RunoffP = (( P – E ) * A) / t</desc>
			<v:userDefs>
				<v:ud v:nameU="CTypeTopLeftSnip" v:prompt="" v:val="VT0(0):5"/>
				<v:ud v:nameU="CTypeTopRightSnip" v:prompt="" v:val="VT0(0):5"/>
				<v:ud v:nameU="CTypeBotLeftSnip" v:prompt="" v:val="VT0(0):5"/>
				<v:ud v:nameU="CTypeBotRightSnip" v:prompt="" v:val="VT0(0):5"/>
				<v:ud v:nameU="CornerLockHoriz" v:prompt="" v:val="VT0(1):5"/>
				<v:ud v:nameU="CornerLockVert" v:prompt="" v:val="VT0(1):5"/>
				<v:ud v:nameU="CornerLockDiag" v:prompt="" v:val="VT0(0):5"/>
				<v:ud v:nameU="TopLeftOffset" v:prompt="" v:val="VT0(0.15748031496063):24"/>
				<v:ud v:nameU="TopRightOffset" v:prompt="" v:val="VT0(0.15748031496063):24"/>
				<v:ud v:nameU="BotLeftOffset" v:prompt="" v:val="VT0(0.15748031496063):24"/>
				<v:ud v:nameU="BotRightOffset" v:prompt="" v:val="VT0(0.15748031496063):24"/>
				<v:ud v:nameU="visVersion" v:prompt="" v:val="VT0(15):26"/>
				<v:ud v:nameU="TopLeftOffset" v:prompt="" v:val="VT0(0.15748031969087):24"/>
				<v:ud v:nameU="TopRightOffset" v:prompt="" v:val="VT0(0.15748031969087):24"/>
				<v:ud v:nameU="BotLeftOffset" v:prompt="" v:val="VT0(0.15748031969087):24"/>
				<v:ud v:nameU="BotRightOffset" v:prompt="" v:val="VT0(0.15748031969087):24"/>
			</v:userDefs>
			<v:textBlock v:margins="rect(4,4,4,4)" v:tabSpace="42.5197"/>
			<v:textRect cx="56.6929" cy="248.631" width="113.39" height="22.6772"/>
			<path d="M11.34 259.97 L102.05 259.97 A11.3384 11.3384 -180 0 0 113.39 248.63 A11.3384 11.3384 -180 0 0 102.05 237.29
						 L11.34 237.29 A11.3384 11.3384 -180 0 0 -0 248.63 A11.3384 11.3384 -180 0 0 11.34 259.97 Z" class="st6"/>
			<text x="23.94" y="245.93" class="st3" v:langID="1033"><v:paragraph v:horizAlign="1"/><v:tabList/>Raster calculator<v:newlineChar/><tspan
						x="4.99" dy="1.2em" class="st8">RunoffP = (( P </tspan>– E ) * A) / t</text>		</g>
		<g id="shape1042-22" v:mID="1042" v:groupContext="shape" v:layerMember="0" transform="translate(183.817,-46.0282)">
			<title>Dynamic connector.1042</title>
			<v:userDefs>
				<v:ud v:nameU="visVersion" v:val="VT0(15):26"/>
			</v:userDefs>
			<path d="M7.09 260.64 C7.09 262.7 7.09 266.1 7.09 269.11" class="st9"/>
		</g>
		<g id="shape1071-28" v:mID="1071" v:groupContext="shape" transform="translate(9.84707,-189.256)">
			<title>Rounded Rectangle.1071</title>
			<desc>ETR grids</desc>
			<v:userDefs>
				<v:ud v:nameU="CTypeTopLeftSnip" v:prompt="" v:val="VT0(0):5"/>
				<v:ud v:nameU="CTypeTopRightSnip" v:prompt="" v:val="VT0(0):5"/>
				<v:ud v:nameU="CTypeBotLeftSnip" v:prompt="" v:val="VT0(0):5"/>
				<v:ud v:nameU="CTypeBotRightSnip" v:prompt="" v:val="VT0(0):5"/>
				<v:ud v:nameU="CornerLockHoriz" v:prompt="" v:val="VT0(1):5"/>
				<v:ud v:nameU="CornerLockVert" v:prompt="" v:val="VT0(1):5"/>
				<v:ud v:nameU="CornerLockDiag" v:prompt="" v:val="VT0(0):5"/>
				<v:ud v:nameU="TopLeftOffset" v:prompt="" v:val="VT0(0.15748031496063):24"/>
				<v:ud v:nameU="TopRightOffset" v:prompt="" v:val="VT0(0.15748031496063):24"/>
				<v:ud v:nameU="BotLeftOffset" v:prompt="" v:val="VT0(0.15748031496063):24"/>
				<v:ud v:nameU="BotRightOffset" v:prompt="" v:val="VT0(0.15748031496063):24"/>
				<v:ud v:nameU="visVersion" v:prompt="" v:val="VT0(15):26"/>
			</v:userDefs>
			<v:textBlock v:margins="rect(4,4,4,4)" v:tabSpace="42.5197"/>
			<v:textRect cx="56.6929" cy="248.631" width="113.39" height="22.6772"/>
			<path d="M11.34 259.97 L102.05 259.97 A11.3384 11.3384 -180 0 0 113.39 248.63 A11.3384 11.3384 -180 0 0 102.05 237.29
						 L11.34 237.29 A11.3384 11.3384 -180 0 0 0 248.63 A11.3384 11.3384 -180 0 0 11.34 259.97 Z" class="st10"/>
			<text x="38.27" y="251.33" class="st3" v:langID="1033"><v:paragraph v:horizAlign="1"/><v:tabList/>ETR grids</text>		</g>
		<g id="shape1072-33" v:mID="1072" v:groupContext="shape" transform="translate(134.21,-45.3589)">
			<title>Rounded Rectangle.1072</title>
			<desc>LTWB grids</desc>
			<v:userDefs>
				<v:ud v:nameU="CTypeTopLeftSnip" v:prompt="" v:val="VT0(0):5"/>
				<v:ud v:nameU="CTypeTopRightSnip" v:prompt="" v:val="VT0(0):5"/>
				<v:ud v:nameU="CTypeBotLeftSnip" v:prompt="" v:val="VT0(0):5"/>
				<v:ud v:nameU="CTypeBotRightSnip" v:prompt="" v:val="VT0(0):5"/>
				<v:ud v:nameU="CornerLockHoriz" v:prompt="" v:val="VT0(1):5"/>
				<v:ud v:nameU="CornerLockVert" v:prompt="" v:val="VT0(1):5"/>
				<v:ud v:nameU="CornerLockDiag" v:prompt="" v:val="VT0(0):5"/>
				<v:ud v:nameU="TopLeftOffset" v:prompt="" v:val="VT0(0.15748031496063):24"/>
				<v:ud v:nameU="TopRightOffset" v:prompt="" v:val="VT0(0.15748031496063):24"/>
				<v:ud v:nameU="BotLeftOffset" v:prompt="" v:val="VT0(0.15748031496063):24"/>
				<v:ud v:nameU="BotRightOffset" v:prompt="" v:val="VT0(0.15748031496063):24"/>
				<v:ud v:nameU="visVersion" v:prompt="" v:val="VT0(15):26"/>
			</v:userDefs>
			<v:textBlock v:margins="rect(4,4,4,4)" v:tabSpace="42.5197"/>
			<v:textRect cx="56.6929" cy="248.631" width="113.39" height="22.6772"/>
			<path d="M11.34 259.97 L102.05 259.97 A11.3384 11.3384 -180 0 0 113.39 248.63 A11.3384 11.3384 -180 0 0 102.05 237.29
						 L11.34 237.29 A11.3384 11.3384 -180 0 0 0 248.63 A11.3384 11.3384 -180 0 0 11.34 259.97 Z" class="st10"/>
			<text x="34.34" y="251.33" class="st3" v:langID="1033"><v:paragraph v:horizAlign="1"/><v:tabList/>LTWB grids</text>		</g>
		<g id="shape1073-37" v:mID="1073" v:groupContext="shape" v:layerMember="0" transform="translate(66.54,-189.256)">
			<title>Dynamic connector.1073</title>
			<v:userDefs>
				<v:ud v:nameU="visVersion" v:val="VT0(15):26"/>
			</v:userDefs>
			<path d="M0 259.97 C0 265.28 12.46 265.28 23.06 265.28 C38.88 265.28 50.53 265.28 62.17 265.28 C73.8 265.28 85.42 265.28
						 101.18 265.28 C110.07 265.28 120.28 265.28 123.41 271.22 L123.48 271.57" class="st4"/>
		</g>
		<g id="shape1074-42" v:mID="1074" v:groupContext="shape" v:layerMember="0" transform="translate(183.817,-152.15)">
			<title>Dynamic connector.1074</title>
			<v:userDefs>
				<v:ud v:nameU="visVersion" v:val="VT0(15):26"/>
			</v:userDefs>
			<path d="M7.09 261.05 C7.09 262.92 7.09 265.95 7.09 268.7" class="st9"/>
		</g>
		<g id="shape1075-47" v:mID="1075" v:groupContext="shape" transform="translate(134.21,-189.256)">
			<title>Rounded Rectangle.1075</title>
			<desc>P - rain grids</desc>
			<v:userDefs>
				<v:ud v:nameU="CTypeTopLeftSnip" v:prompt="" v:val="VT0(0):5"/>
				<v:ud v:nameU="CTypeTopRightSnip" v:prompt="" v:val="VT0(0):5"/>
				<v:ud v:nameU="CTypeBotLeftSnip" v:prompt="" v:val="VT0(0):5"/>
				<v:ud v:nameU="CTypeBotRightSnip" v:prompt="" v:val="VT0(0):5"/>
				<v:ud v:nameU="CornerLockHoriz" v:prompt="" v:val="VT0(1):5"/>
				<v:ud v:nameU="CornerLockVert" v:prompt="" v:val="VT0(1):5"/>
				<v:ud v:nameU="CornerLockDiag" v:prompt="" v:val="VT0(0):5"/>
				<v:ud v:nameU="TopLeftOffset" v:prompt="" v:val="VT0(0.15748031496063):24"/>
				<v:ud v:nameU="TopRightOffset" v:prompt="" v:val="VT0(0.15748031496063):24"/>
				<v:ud v:nameU="BotLeftOffset" v:prompt="" v:val="VT0(0.15748031496063):24"/>
				<v:ud v:nameU="BotRightOffset" v:prompt="" v:val="VT0(0.15748031496063):24"/>
				<v:ud v:nameU="visVersion" v:prompt="" v:val="VT0(15):26"/>
			</v:userDefs>
			<v:textBlock v:margins="rect(4,4,4,4)" v:tabSpace="42.5197"/>
			<v:textRect cx="56.6929" cy="248.631" width="113.39" height="22.6772"/>
			<path d="M11.34 259.97 L102.05 259.97 A11.3384 11.3384 -180 0 0 113.39 248.63 A11.3384 11.3384 -180 0 0 102.05 237.29
						 L11.34 237.29 A11.3384 11.3384 -180 0 0 0 248.63 A11.3384 11.3384 -180 0 0 11.34 259.97 Z" class="st10"/>
			<text x="31.32" y="251.33" class="st3" v:langID="1033"><v:paragraph v:horizAlign="1"/><v:tabList/>P - rain grids</text>		</g>
		<g id="shape1076-51" v:mID="1076" v:groupContext="shape" v:layerMember="0" transform="translate(197.99,-227.445)">
			<title>Dynamic connector.1076</title>
			<v:userDefs>
				<v:ud v:nameU="visVersion" v:val="VT0(15):26"/>
			</v:userDefs>
			<path d="M-7.09 259.97 C-7.09 262.68 -7.09 267.27 -7.09 271.12" class="st9"/>
		</g>
		<g id="shape1077-56" v:mID="1077" v:groupContext="shape" v:layerMember="0" transform="translate(183.817,-189.256)">
			<title>Dynamic connector.1077</title>
			<v:userDefs>
				<v:ud v:nameU="visVersion" v:val="VT0(15):26"/>
			</v:userDefs>
			<path d="M7.09 259.97 C7.09 262.68 7.09 267.27 7.09 271.12" class="st9"/>
		</g>
		<g id="shape1133-61" v:mID="1133" v:groupContext="shape" transform="translate(262.697,-189.256)">
			<title>Rounded Rectangle.1133</title>
			<desc>FDR</desc>
			<v:userDefs>
				<v:ud v:nameU="CTypeTopLeftSnip" v:prompt="" v:val="VT0(0):5"/>
				<v:ud v:nameU="CTypeTopRightSnip" v:prompt="" v:val="VT0(0):5"/>
				<v:ud v:nameU="CTypeBotLeftSnip" v:prompt="" v:val="VT0(0):5"/>
				<v:ud v:nameU="CTypeBotRightSnip" v:prompt="" v:val="VT0(0):5"/>
				<v:ud v:nameU="CornerLockHoriz" v:prompt="" v:val="VT0(1):5"/>
				<v:ud v:nameU="CornerLockVert" v:prompt="" v:val="VT0(1):5"/>
				<v:ud v:nameU="CornerLockDiag" v:prompt="" v:val="VT0(0):5"/>
				<v:ud v:nameU="TopLeftOffset" v:prompt="" v:val="VT0(0.15748031496063):24"/>
				<v:ud v:nameU="TopRightOffset" v:prompt="" v:val="VT0(0.15748031496063):24"/>
				<v:ud v:nameU="BotLeftOffset" v:prompt="" v:val="VT0(0.15748031496063):24"/>
				<v:ud v:nameU="BotRightOffset" v:prompt="" v:val="VT0(0.15748031496063):24"/>
				<v:ud v:nameU="visVersion" v:prompt="" v:val="VT0(15):26"/>
			</v:userDefs>
			<v:textBlock v:margins="rect(4,4,4,4)" v:tabSpace="42.5197"/>
			<v:textRect cx="56.6929" cy="248.631" width="113.39" height="22.6772"/>
			<path d="M11.34 259.97 L102.05 259.97 A11.3384 11.3384 -180 0 0 113.39 248.63 A11.3384 11.3384 -180 0 0 102.05 237.29
						 L11.34 237.29 A11.3384 11.3384 -180 0 0 0 248.63 A11.3384 11.3384 -180 0 0 11.34 259.97 Z" class="st10"/>
			<text x="48.65" y="251.33" class="st3" v:langID="1033"><v:paragraph v:horizAlign="1"/><v:tabList/>FDR</text>		</g>
		<g id="shape1134-65" v:mID="1134" v:groupContext="shape" transform="translate(134.21,-80.8707)">
			<title>Rounded Rectangle.1134</title>
			<desc>Spatial Analyst FAC</desc>
			<v:userDefs>
				<v:ud v:nameU="CTypeTopLeftSnip" v:prompt="" v:val="VT0(0):5"/>
				<v:ud v:nameU="CTypeTopRightSnip" v:prompt="" v:val="VT0(0):5"/>
				<v:ud v:nameU="CTypeBotLeftSnip" v:prompt="" v:val="VT0(0):5"/>
				<v:ud v:nameU="CTypeBotRightSnip" v:prompt="" v:val="VT0(0):5"/>
				<v:ud v:nameU="CornerLockHoriz" v:prompt="" v:val="VT0(1):5"/>
				<v:ud v:nameU="CornerLockVert" v:prompt="" v:val="VT0(1):5"/>
				<v:ud v:nameU="CornerLockDiag" v:prompt="" v:val="VT0(0):5"/>
				<v:ud v:nameU="TopLeftOffset" v:prompt="" v:val="VT0(0.15748031496063):24"/>
				<v:ud v:nameU="TopRightOffset" v:prompt="" v:val="VT0(0.15748031496063):24"/>
				<v:ud v:nameU="BotLeftOffset" v:prompt="" v:val="VT0(0.15748031496063):24"/>
				<v:ud v:nameU="BotRightOffset" v:prompt="" v:val="VT0(0.15748031496063):24"/>
				<v:ud v:nameU="visVersion" v:prompt="" v:val="VT0(15):26"/>
				<v:ud v:nameU="TopLeftOffset" v:prompt="" v:val="VT0(0.15748031969087):24"/>
				<v:ud v:nameU="TopRightOffset" v:prompt="" v:val="VT0(0.15748031969087):24"/>
				<v:ud v:nameU="BotLeftOffset" v:prompt="" v:val="VT0(0.15748031969087):24"/>
				<v:ud v:nameU="BotRightOffset" v:prompt="" v:val="VT0(0.15748031969087):24"/>
			</v:userDefs>
			<v:textBlock v:margins="rect(4,4,4,4)" v:tabSpace="42.5197"/>
			<v:textRect cx="56.6929" cy="248.631" width="113.39" height="22.6772"/>
			<path d="M11.34 259.97 L102.05 259.97 A11.3384 11.3384 -180 0 0 113.39 248.63 A11.3384 11.3384 -180 0 0 102.05 237.29
						 L11.34 237.29 A11.3384 11.3384 -180 0 0 -0 248.63 A11.3384 11.3384 -180 0 0 11.34 259.97 Z" class="st6"/>
			<text x="18.58" y="251.33" class="st3" v:langID="1033"><v:paragraph v:horizAlign="1"/><v:tabList/>Spatial Analyst FAC</text>		</g>
		<g id="shape1135-69" v:mID="1135" v:groupContext="shape" v:layerMember="0" transform="translate(319.39,-189.256)">
			<title>Dynamic connector.1135</title>
			<v:userDefs>
				<v:ud v:nameU="visVersion" v:val="VT0(15):26"/>
			</v:userDefs>
			<path d="M0 259.97 C0 284.23 -0 322.12 -14.59 340.28 C-26.97 355.7 -49.87 356.91 -67.43 357.01 L-67.79 357.01"
					class="st4"/>
		</g>
		<g id="shape1136-74" v:mID="1136" v:groupContext="shape" transform="translate(134.21,-116.382)">
			<title>Rounded Rectangle.1136</title>
			<desc>Runoff potential grids</desc>
			<v:userDefs>
				<v:ud v:nameU="CTypeTopLeftSnip" v:prompt="" v:val="VT0(0):5"/>
				<v:ud v:nameU="CTypeTopRightSnip" v:prompt="" v:val="VT0(0):5"/>
				<v:ud v:nameU="CTypeBotLeftSnip" v:prompt="" v:val="VT0(0):5"/>
				<v:ud v:nameU="CTypeBotRightSnip" v:prompt="" v:val="VT0(0):5"/>
				<v:ud v:nameU="CornerLockHoriz" v:prompt="" v:val="VT0(1):5"/>
				<v:ud v:nameU="CornerLockVert" v:prompt="" v:val="VT0(1):5"/>
				<v:ud v:nameU="CornerLockDiag" v:prompt="" v:val="VT0(0):5"/>
				<v:ud v:nameU="TopLeftOffset" v:prompt="" v:val="VT0(0.15748031496063):24"/>
				<v:ud v:nameU="TopRightOffset" v:prompt="" v:val="VT0(0.15748031496063):24"/>
				<v:ud v:nameU="BotLeftOffset" v:prompt="" v:val="VT0(0.15748031496063):24"/>
				<v:ud v:nameU="BotRightOffset" v:prompt="" v:val="VT0(0.15748031496063):24"/>
				<v:ud v:nameU="visVersion" v:prompt="" v:val="VT0(15):26"/>
			</v:userDefs>
			<v:textBlock v:margins="rect(4,4,4,4)" v:tabSpace="42.5197"/>
			<v:textRect cx="56.6929" cy="248.631" width="113.39" height="22.6772"/>
			<path d="M11.34 259.97 L102.05 259.97 A11.3384 11.3384 -180 0 0 113.39 248.63 A11.3384 11.3384 -180 0 0 102.05 237.29
						 L11.34 237.29 A11.3384 11.3384 -180 0 0 0 248.63 A11.3384 11.3384 -180 0 0 11.34 259.97 Z" class="st10"/>
			<text x="13.42" y="251.33" class="st3" v:langID="1033"><v:paragraph v:horizAlign="1"/><v:tabList/>Runoff potential grids</text>		</g>
		<g id="shape1137-78" v:mID="1137" v:groupContext="shape" v:layerMember="0" transform="translate(183.817,-117.052)">
			<title>Dynamic connector.1137</title>
			<v:userDefs>
				<v:ud v:nameU="visVersion" v:val="VT0(15):26"/>
			</v:userDefs>
			<path d="M7.09 260.64 C7.09 262.7 7.09 266.1 7.09 269.11" class="st9"/>
		</g>
		<g id="shape1138-83" v:mID="1138" v:groupContext="shape" v:layerMember="0" transform="translate(190.903,-227.445)">
			<title>Dynamic connector.1138</title>
			<v:userDefs>
				<v:ud v:nameU="visVersion" v:val="VT0(15):26"/>
			</v:userDefs>
			<path d="M0 259.97 C-0 265.28 12.88 265.28 23.82 265.28 C40.17 265.28 52.21 265.28 64.23 265.28 C76.25 265.28 88.26 265.28
						 104.55 265.28 C113.73 265.28 124.28 265.28 127.5 271.23 L127.58 271.58" class="st4"/>
		</g>
		<g id="shape1139-88" v:mID="1139" v:groupContext="shape" v:layerMember="0" transform="translate(183.817,-81.54)">
			<title>Dynamic connector.1139</title>
			<v:userDefs>
				<v:ud v:nameU="visVersion" v:val="VT0(15):26"/>
			</v:userDefs>
			<path d="M7.09 260.64 C7.09 262.7 7.09 266.1 7.09 269.11" class="st9"/>
		</g>
	</g>
</svg>
