<?xml version="1.0" encoding="UTF-8" standalone="no"?>
<!DOCTYPE svg PUBLIC "-//W3C//DTD SVG 1.1//EN" "http://www.w3.org/Graphics/SVG/1.1/DTD/svg11.dtd">
<!-- Generated by Microsoft Visio, SVG Export CNEStationCSVJoinFlowchart.svg Page-1 -->
<svg xmlns="http://www.w3.org/2000/svg" xmlns:xlink="http://www.w3.org/1999/xlink" xmlns:ev="http://www.w3.org/2001/xml-events"
		xmlns:v="http://schemas.microsoft.com/visio/2003/SVGExtensions/" width="3.76467in" height="6.23027in"
		viewBox="0 0 271.056 448.579" xml:space="preserve" color-interpolation-filters="sRGB" class="st13">
	<v:documentProperties v:langID="1033" v:metric="true" v:viewMarkup="false"/>

	<style type="text/css">
	<![CDATA[
		.st1 {fill:#f2f2f2;stroke:#fbbc0e;stroke-width:1.5}
		.st2 {fill:#fbbc0e;fill-opacity:1;stroke:#fbbc0e;stroke-opacity:1;stroke-width:0.37313432835821}
		.st3 {fill:#000000;font-family:Segoe UI;font-size:0.75em}
		.st4 {font-size:1em}
		.st5 {marker-end:url(#mrkr6-20);stroke:#7f7f7f;stroke-linecap:round;stroke-linejoin:round;stroke-width:0.5}
		.st6 {fill:#7f7f7f;fill-opacity:1;stroke:#7f7f7f;stroke-opacity:1;stroke-width:0.25773195876289}
		.st7 {fill:#ffffff;stroke:none;stroke-linecap:butt;stroke-width:7.2}
		.st8 {fill:#3d64ac;font-family:Segoe UI;font-size:0.499992em}
		.st9 {marker-end:url(#mrkr6-66);stroke:#7f7f7f;stroke-linecap:round;stroke-linejoin:round;stroke-width:0.5}
		.st10 {fill:#f2f2f2;stroke:#696368;stroke-width:1.5}
		.st11 {fill:#696368;fill-opacity:1;stroke:#696368;stroke-opacity:1;stroke-width:0.37313432835821}
		.st12 {fill:#ffffff;stroke:none;stroke-linecap:butt}
		.st13 {fill:none;fill-rule:evenodd;font-size:12px;overflow:visible;stroke-linecap:square;stroke-miterlimit:3}
	]]>
	</style>

	<defs id="Markers">
		<g id="lend6">
			<path d="M 2 1 L 0 0 L 2.01237 -1.00641 C 2.32921 -0.372876 2.32921 0.372869 2.01238 1.0064 " style="stroke:none"/>
		</g>
		<marker id="mrkr6-4" class="st2" v:arrowType="6" v:arrowSize="2" v:setback="6.03" refX="6.03" orient="auto"
				markerUnits="strokeWidth" overflow="visible">
			<use xlink:href="#lend6" transform="scale(2.68) "/>
		</marker>
		<marker id="mrkr6-20" class="st6" v:arrowType="6" v:arrowSize="0" v:setback="8.73" refX="-8.73" orient="auto"
				markerUnits="strokeWidth" overflow="visible">
			<use xlink:href="#lend6" transform="scale(-3.88,-3.88) "/>
		</marker>
		<marker id="mrkr6-66" class="st6" v:arrowType="6" v:arrowSize="0" v:setback="8.01" refX="-8.01" orient="auto"
				markerUnits="strokeWidth" overflow="visible">
			<use xlink:href="#lend6" transform="scale(-3.88,-3.88) "/>
		</marker>
		<marker id="mrkr6-74" class="st11" v:arrowType="6" v:arrowSize="2" v:setback="6.03" refX="6.03" orient="auto"
				markerUnits="strokeWidth" overflow="visible">
			<use xlink:href="#lend6" transform="scale(2.68) "/>
		</marker>
	</defs>
	<g v:mID="0" v:index="1" v:groupContext="foregroundPage">
		<title>Page-1</title>
		<v:pageProperties v:drawingScale="0.0393701" v:pageScale="0.0393701" v:drawingUnits="24" v:shadowOffsetX="8.50394"
				v:shadowOffsetY="-8.50394"/>
		<v:layer v:name="Flowchart" v:index="0"/>
		<v:layer v:name="Connector" v:index="1"/>
		<g id="shape554-1" v:mID="554" v:groupContext="shape" transform="translate(9.84707,-378.351)">
			<title>Rounded Rectangle.554</title>
			<desc>Zip files path</desc>
			<v:userDefs>
				<v:ud v:nameU="CTypeTopLeftSnip" v:prompt="" v:val="VT0(0):5"/>
				<v:ud v:nameU="CTypeTopRightSnip" v:prompt="" v:val="VT0(0):5"/>
				<v:ud v:nameU="CTypeBotLeftSnip" v:prompt="" v:val="VT0(0):5"/>
				<v:ud v:nameU="CTypeBotRightSnip" v:prompt="" v:val="VT0(0):5"/>
				<v:ud v:nameU="CornerLockHoriz" v:prompt="" v:val="VT0(1):5"/>
				<v:ud v:nameU="CornerLockVert" v:prompt="" v:val="VT0(1):5"/>
				<v:ud v:nameU="CornerLockDiag" v:prompt="" v:val="VT0(0):5"/>
				<v:ud v:nameU="TopLeftOffset" v:prompt="" v:val="VT0(0.15748031496063):24"/>
				<v:ud v:nameU="TopRightOffset" v:prompt="" v:val="VT0(0.15748031496063):24"/>
				<v:ud v:nameU="BotLeftOffset" v:prompt="" v:val="VT0(0.15748031496063):24"/>
				<v:ud v:nameU="BotRightOffset" v:prompt="" v:val="VT0(0.15748031496063):24"/>
				<v:ud v:nameU="visVersion" v:prompt="" v:val="VT0(15):26"/>
			</v:userDefs>
			<v:textBlock v:margins="rect(4,4,4,4)" v:tabSpace="42.5197"/>
			<v:textRect cx="62.3622" cy="437.241" width="124.73" height="22.6772"/>
			<path d="M11.34 448.58 L113.39 448.58 A11.3384 11.3384 -180 0 0 124.72 437.24 A11.3384 11.3384 -180 0 0 113.39 425.9
						 L11.34 425.9 A11.3384 11.3384 -180 0 0 0 437.24 A11.3384 11.3384 -180 0 0 11.34 448.58 Z" class="st1"/>
			<text x="36.74" y="439.94" class="st3" v:langID="1033"><v:paragraph v:horizAlign="1"/><v:tabList/>Zip files path</text>		</g>
		<g id="shape555-6" v:mID="555" v:groupContext="shape" v:layerMember="0" transform="translate(29.1936,-323.075)">
			<title>Decision 2.555</title>
			<desc>Joined.csv exist</desc>
			<v:custProps>
				<v:cp v:nameU="Cost" v:lbl="Cost" v:type="7" v:format="@" v:langID="1033"/>
				<v:cp v:nameU="Duration" v:lbl="Duration" v:type="2" v:langID="1033"/>
				<v:cp v:nameU="Resources" v:lbl="Resources" v:langID="1033"/>
			</v:custProps>
			<v:userDefs>
				<v:ud v:nameU="visVersion" v:val="VT0(15):26"/>
			</v:userDefs>
			<v:textBlock v:margins="rect(4,4,4,4)" v:tabSpace="42.5197"/>
			<v:textRect cx="43.0157" cy="428.455" width="64.53" height="35.2177"/>
			<path d="M0 428.45 L43.02 408.33 L86.03 428.45 L43.02 448.58 L0 428.45 Z" class="st1"/>
			<text x="23.01" y="425.76" class="st3" v:langID="1033"><v:paragraph v:horizAlign="1"/><v:tabList/>Joined.csv <tspan
						x="34.07" dy="1.2em" class="st4">exist</tspan></text>		</g>
		<g id="shape556-11" v:mID="556" v:groupContext="shape" transform="translate(136.485,-331.861)">
			<title>Rounded Rectangle.556</title>
			<desc>Delete file</desc>
			<v:userDefs>
				<v:ud v:nameU="CTypeTopLeftSnip" v:prompt="" v:val="VT0(0):5"/>
				<v:ud v:nameU="CTypeTopRightSnip" v:prompt="" v:val="VT0(0):5"/>
				<v:ud v:nameU="CTypeBotLeftSnip" v:prompt="" v:val="VT0(0):5"/>
				<v:ud v:nameU="CTypeBotRightSnip" v:prompt="" v:val="VT0(0):5"/>
				<v:ud v:nameU="CornerLockHoriz" v:prompt="" v:val="VT0(1):5"/>
				<v:ud v:nameU="CornerLockVert" v:prompt="" v:val="VT0(1):5"/>
				<v:ud v:nameU="CornerLockDiag" v:prompt="" v:val="VT0(0):5"/>
				<v:ud v:nameU="TopLeftOffset" v:prompt="" v:val="VT0(0.15748031496063):24"/>
				<v:ud v:nameU="TopRightOffset" v:prompt="" v:val="VT0(0.15748031496063):24"/>
				<v:ud v:nameU="BotLeftOffset" v:prompt="" v:val="VT0(0.15748031496063):24"/>
				<v:ud v:nameU="BotRightOffset" v:prompt="" v:val="VT0(0.15748031496063):24"/>
				<v:ud v:nameU="visVersion" v:prompt="" v:val="VT0(15):26"/>
			</v:userDefs>
			<v:textBlock v:margins="rect(4,4,4,4)" v:tabSpace="42.5197"/>
			<v:textRect cx="62.3622" cy="437.241" width="124.73" height="22.6772"/>
			<path d="M11.34 448.58 L113.39 448.58 A11.3384 11.3384 -180 0 0 124.72 437.24 A11.3384 11.3384 -180 0 0 113.39 425.9
						 L11.34 425.9 A11.3384 11.3384 -180 0 0 0 437.24 A11.3384 11.3384 -180 0 0 11.34 448.58 Z" class="st1"/>
			<text x="42.36" y="439.94" class="st3" v:langID="1033"><v:paragraph v:horizAlign="1"/><v:tabList/>Delete file</text>		</g>
		<g id="shape557-15" v:mID="557" v:groupContext="shape" v:layerMember="1" transform="translate(65.1227,-378.351)">
			<title>Dynamic connector.557</title>
			<v:userDefs>
				<v:ud v:nameU="visVersion" v:val="VT0(15):26"/>
			</v:userDefs>
			<path d="M7.09 448.58 C7.09 451.17 7.09 455.54 7.09 459.24" class="st5"/>
		</g>
		<g id="shape558-21" v:mID="558" v:groupContext="shape" v:layerMember="1" transform="translate(115.225,-336.113)">
			<title>Dynamic connector.558</title>
			<desc>S</desc>
			<v:userDefs>
				<v:ud v:nameU="visVersion" v:val="VT0(15):26"/>
			</v:userDefs>
			<v:textBlock v:margins="rect(4,4,4,4)" v:tabSpace="42.5197"/>
			<v:textRect cx="10.6299" cy="441.493" width="30" height="15.2035"/>
			<path d="M0 441.49 C4.1 441.49 11.35 441.49 16.89 441.49" class="st5"/>
			<rect v:rectContext="textBkgnd" x="9.03626" y="437.893" width="3.18741" height="7.20016" class="st7"/>
			<text x="9.04" y="443.29" class="st8" v:langID="1033"><v:paragraph v:horizAlign="1"/><v:tabList/>S</text>		</g>
		<g id="shape559-28" v:mID="559" v:groupContext="shape" transform="translate(9.84707,-279.138)">
			<title>Rounded Rectangle.559</title>
			<desc>.zip files list, n files</desc>
			<v:userDefs>
				<v:ud v:nameU="CTypeTopLeftSnip" v:prompt="" v:val="VT0(0):5"/>
				<v:ud v:nameU="CTypeTopRightSnip" v:prompt="" v:val="VT0(0):5"/>
				<v:ud v:nameU="CTypeBotLeftSnip" v:prompt="" v:val="VT0(0):5"/>
				<v:ud v:nameU="CTypeBotRightSnip" v:prompt="" v:val="VT0(0):5"/>
				<v:ud v:nameU="CornerLockHoriz" v:prompt="" v:val="VT0(1):5"/>
				<v:ud v:nameU="CornerLockVert" v:prompt="" v:val="VT0(1):5"/>
				<v:ud v:nameU="CornerLockDiag" v:prompt="" v:val="VT0(0):5"/>
				<v:ud v:nameU="TopLeftOffset" v:prompt="" v:val="VT0(0.15748031496063):24"/>
				<v:ud v:nameU="TopRightOffset" v:prompt="" v:val="VT0(0.15748031496063):24"/>
				<v:ud v:nameU="BotLeftOffset" v:prompt="" v:val="VT0(0.15748031496063):24"/>
				<v:ud v:nameU="BotRightOffset" v:prompt="" v:val="VT0(0.15748031496063):24"/>
				<v:ud v:nameU="visVersion" v:prompt="" v:val="VT0(15):26"/>
			</v:userDefs>
			<v:textBlock v:margins="rect(4,4,4,4)" v:tabSpace="42.5197"/>
			<v:textRect cx="62.3622" cy="437.241" width="124.73" height="22.6772"/>
			<path d="M11.34 448.58 L113.39 448.58 A11.3384 11.3384 -180 0 0 124.72 437.24 A11.3384 11.3384 -180 0 0 113.39 425.9
						 L11.34 425.9 A11.3384 11.3384 -180 0 0 0 437.24 A11.3384 11.3384 -180 0 0 11.34 448.58 Z" class="st1"/>
			<text x="38.71" y="434.54" class="st3" v:langID="1033"><v:paragraph v:horizAlign="1"/><v:tabList/>.zip files list,<v:newlineChar/><tspan
						x="50.73" dy="1.2em" class="st4">n files</tspan></text>		</g>
		<g id="shape560-33" v:mID="560" v:groupContext="shape" v:layerMember="1" transform="translate(65.1227,-323.075)">
			<title>Dynamic connector.560</title>
			<desc>N</desc>
			<v:userDefs>
				<v:ud v:nameU="visVersion" v:val="VT0(15):26"/>
			</v:userDefs>
			<v:textBlock v:margins="rect(4,4,4,4)" v:tabSpace="42.5197"/>
			<v:textRect cx="7.08661" cy="459.209" width="30" height="15.2035"/>
			<path d="M7.09 448.58 C7.09 452.68 7.09 459.93 7.09 465.47" class="st5"/>
			<rect v:rectContext="textBkgnd" x="4.84257" y="455.609" width="4.48819" height="7.20016" class="st7"/>
			<text x="4.84" y="461.01" class="st8" v:langID="1033"><v:paragraph v:horizAlign="1"/><v:tabList/>N</text>		</g>
		<g id="shape561-40" v:mID="561" v:groupContext="shape" v:layerMember="0" transform="translate(29.1936,-217.63)">
			<title>Decision 2.561</title>
			<desc># .zip file &#60;= n</desc>
			<v:custProps>
				<v:cp v:nameU="Cost" v:lbl="Cost" v:type="7" v:format="@" v:langID="1033"/>
				<v:cp v:nameU="Duration" v:lbl="Duration" v:type="2" v:langID="1033"/>
				<v:cp v:nameU="Resources" v:lbl="Resources" v:langID="1033"/>
			</v:custProps>
			<v:userDefs>
				<v:ud v:nameU="visVersion" v:val="VT0(15):26"/>
			</v:userDefs>
			<v:textBlock v:margins="rect(4,4,4,4)" v:tabSpace="42.5197"/>
			<v:textRect cx="43.0157" cy="428.455" width="64.53" height="35.2177"/>
			<path d="M0 428.45 L43.02 408.33 L86.03 428.45 L43.02 448.58 L0 428.45 Z" class="st1"/>
			<text x="25.2" y="425.76" class="st3" v:langID="1033"><v:paragraph v:horizAlign="1"/><v:tabList/># .zip file<v:newlineChar/><tspan
						x="33.08" dy="1.2em" class="st4">&#60;= n</tspan></text>		</g>
		<g id="shape562-45" v:mID="562" v:groupContext="shape" transform="translate(136.485,-226.416)">
			<title>Rounded Rectangle.562</title>
			<desc>Unzip &#38; rename</desc>
			<v:userDefs>
				<v:ud v:nameU="CTypeTopLeftSnip" v:prompt="" v:val="VT0(0):5"/>
				<v:ud v:nameU="CTypeTopRightSnip" v:prompt="" v:val="VT0(0):5"/>
				<v:ud v:nameU="CTypeBotLeftSnip" v:prompt="" v:val="VT0(0):5"/>
				<v:ud v:nameU="CTypeBotRightSnip" v:prompt="" v:val="VT0(0):5"/>
				<v:ud v:nameU="CornerLockHoriz" v:prompt="" v:val="VT0(1):5"/>
				<v:ud v:nameU="CornerLockVert" v:prompt="" v:val="VT0(1):5"/>
				<v:ud v:nameU="CornerLockDiag" v:prompt="" v:val="VT0(0):5"/>
				<v:ud v:nameU="TopLeftOffset" v:prompt="" v:val="VT0(0.15748031496063):24"/>
				<v:ud v:nameU="TopRightOffset" v:prompt="" v:val="VT0(0.15748031496063):24"/>
				<v:ud v:nameU="BotLeftOffset" v:prompt="" v:val="VT0(0.15748031496063):24"/>
				<v:ud v:nameU="BotRightOffset" v:prompt="" v:val="VT0(0.15748031496063):24"/>
				<v:ud v:nameU="visVersion" v:prompt="" v:val="VT0(15):26"/>
			</v:userDefs>
			<v:textBlock v:margins="rect(4,4,4,4)" v:tabSpace="42.5197"/>
			<v:textRect cx="62.3622" cy="437.241" width="124.73" height="22.6772"/>
			<path d="M11.34 448.58 L113.39 448.58 A11.3384 11.3384 -180 0 0 124.72 437.24 A11.3384 11.3384 -180 0 0 113.39 425.9
						 L11.34 425.9 A11.3384 11.3384 -180 0 0 0 437.24 A11.3384 11.3384 -180 0 0 11.34 448.58 Z" class="st1"/>
			<text x="29.9" y="439.94" class="st3" v:langID="1033"><v:paragraph v:horizAlign="1"/><v:tabList/>Unzip &#38; rename</text>		</g>
		<g id="shape563-49" v:mID="563" v:groupContext="shape" v:layerMember="1" transform="translate(115.225,-230.668)">
			<title>Dynamic connector.563</title>
			<desc>S</desc>
			<v:userDefs>
				<v:ud v:nameU="visVersion" v:val="VT0(15):26"/>
			</v:userDefs>
			<v:textBlock v:margins="rect(4,4,4,4)" v:tabSpace="42.5197"/>
			<v:textRect cx="10.6299" cy="441.493" width="30" height="15.2035"/>
			<path d="M0 441.49 C4.1 441.49 11.35 441.49 16.89 441.49" class="st5"/>
			<rect v:rectContext="textBkgnd" x="9.03626" y="437.893" width="3.18741" height="7.20016" class="st7"/>
			<text x="9.04" y="443.29" class="st8" v:langID="1033"><v:paragraph v:horizAlign="1"/><v:tabList/>S</text>		</g>
		<g id="shape564-56" v:mID="564" v:groupContext="shape" v:layerMember="1" transform="translate(65.1227,-279.138)">
			<title>Dynamic connector.564</title>
			<v:userDefs>
				<v:ud v:nameU="visVersion" v:val="VT0(15):26"/>
			</v:userDefs>
			<path d="M7.09 448.58 C7.09 452.68 7.09 459.93 7.09 465.47" class="st5"/>
		</g>
		<g id="shape565-61" v:mID="565" v:groupContext="shape" v:layerMember="1" transform="translate(198.847,-246.399)">
			<title>Dynamic connector.565</title>
			<v:userDefs>
				<v:ud v:nameU="visVersion" v:val="VT0(15):26"/>
			</v:userDefs>
			<path d="M0 445.89 C-0 426.47 -27.45 426.47 -47.63 426.47 C-73.98 426.47 -87.92 426.47 -106.54 426.47 C-114.49 426.47
						 -123.29 426.47 -125.88 432.8 L-125.94 433.16" class="st9"/>
		</g>
		<g id="shape566-67" v:mID="566" v:groupContext="shape" transform="translate(9.84707,-147.327)">
			<title>Rounded Rectangle.566</title>
			<desc>pandas.concat .csv list</desc>
			<v:userDefs>
				<v:ud v:nameU="CTypeTopLeftSnip" v:prompt="" v:val="VT0(0):5"/>
				<v:ud v:nameU="CTypeTopRightSnip" v:prompt="" v:val="VT0(0):5"/>
				<v:ud v:nameU="CTypeBotLeftSnip" v:prompt="" v:val="VT0(0):5"/>
				<v:ud v:nameU="CTypeBotRightSnip" v:prompt="" v:val="VT0(0):5"/>
				<v:ud v:nameU="CornerLockHoriz" v:prompt="" v:val="VT0(1):5"/>
				<v:ud v:nameU="CornerLockVert" v:prompt="" v:val="VT0(1):5"/>
				<v:ud v:nameU="CornerLockDiag" v:prompt="" v:val="VT0(0):5"/>
				<v:ud v:nameU="TopLeftOffset" v:prompt="" v:val="VT0(0.15748031496063):24"/>
				<v:ud v:nameU="TopRightOffset" v:prompt="" v:val="VT0(0.15748031496063):24"/>
				<v:ud v:nameU="BotLeftOffset" v:prompt="" v:val="VT0(0.15748031496063):24"/>
				<v:ud v:nameU="BotRightOffset" v:prompt="" v:val="VT0(0.15748031496063):24"/>
				<v:ud v:nameU="visVersion" v:prompt="" v:val="VT0(15):26"/>
			</v:userDefs>
			<v:textBlock v:margins="rect(4,4,4,4)" v:tabSpace="42.5197"/>
			<v:textRect cx="62.3622" cy="437.241" width="124.73" height="22.6772"/>
			<path d="M11.34 448.58 L113.39 448.58 A11.3384 11.3384 -180 0 0 124.72 437.24 A11.3384 11.3384 -180 0 0 113.39 425.9
						 L11.34 425.9 A11.3384 11.3384 -180 0 0 0 437.24 A11.3384 11.3384 -180 0 0 11.34 448.58 Z" class="st1"/>
			<text x="18.7" y="439.94" class="st3" v:langID="1033"><v:paragraph v:horizAlign="1"/><v:tabList/>pandas.concat .csv list</text>		</g>
		<g id="shape567-71" v:mID="567" v:groupContext="shape" transform="translate(9.84707,-112.458)">
			<title>Rounded Rectangle.567</title>
			<desc>pandas.to_csv join file</desc>
			<v:userDefs>
				<v:ud v:nameU="CTypeTopLeftSnip" v:prompt="" v:val="VT0(0):5"/>
				<v:ud v:nameU="CTypeTopRightSnip" v:prompt="" v:val="VT0(0):5"/>
				<v:ud v:nameU="CTypeBotLeftSnip" v:prompt="" v:val="VT0(0):5"/>
				<v:ud v:nameU="CTypeBotRightSnip" v:prompt="" v:val="VT0(0):5"/>
				<v:ud v:nameU="CornerLockHoriz" v:prompt="" v:val="VT0(1):5"/>
				<v:ud v:nameU="CornerLockVert" v:prompt="" v:val="VT0(1):5"/>
				<v:ud v:nameU="CornerLockDiag" v:prompt="" v:val="VT0(0):5"/>
				<v:ud v:nameU="TopLeftOffset" v:prompt="" v:val="VT0(0.15748031496063):24"/>
				<v:ud v:nameU="TopRightOffset" v:prompt="" v:val="VT0(0.15748031496063):24"/>
				<v:ud v:nameU="BotLeftOffset" v:prompt="" v:val="VT0(0.15748031496063):24"/>
				<v:ud v:nameU="BotRightOffset" v:prompt="" v:val="VT0(0.15748031496063):24"/>
				<v:ud v:nameU="visVersion" v:prompt="" v:val="VT0(15):26"/>
			</v:userDefs>
			<v:textBlock v:margins="rect(4,4,4,4)" v:tabSpace="42.5197"/>
			<v:textRect cx="62.3622" cy="437.241" width="124.73" height="22.6772"/>
			<path d="M11.34 448.58 L113.39 448.58 A11.3384 11.3384 -180 0 0 124.72 437.24 A11.3384 11.3384 -180 0 0 113.39 425.9
						 L11.34 425.9 A11.3384 11.3384 -180 0 0 0 437.24 A11.3384 11.3384 -180 0 0 11.34 448.58 Z" class="st10"/>
			<text x="19.11" y="439.94" class="st3" v:langID="1033"><v:paragraph v:horizAlign="1"/><v:tabList/>pandas.to_csv join file</text>		</g>
		<g id="shape568-76" v:mID="568" v:groupContext="shape" v:layerMember="1" transform="translate(65.1227,-218.338)">
			<title>Dynamic connector.568</title>
			<desc>N</desc>
			<v:userDefs>
				<v:ud v:nameU="visVersion" v:val="VT0(15):26"/>
			</v:userDefs>
			<v:textBlock v:margins="rect(4,4,4,4)" v:tabSpace="42.5197"/>
			<v:textRect cx="7.08661" cy="455.666" width="30" height="15.2035"/>
			<path d="M7.09 449.29 C7.09 451.33 7.09 454.69 7.09 457.68" class="st5"/>
			<rect v:rectContext="textBkgnd" x="4.84257" y="452.066" width="4.48819" height="7.20016" class="st12"/>
			<text x="4.84" y="457.47" class="st8" v:langID="1033"><v:paragraph v:horizAlign="1"/><v:tabList/>N</text>		</g>
		<g id="shape569-83" v:mID="569" v:groupContext="shape" v:layerMember="1" transform="translate(65.1227,-148.318)">
			<title>Dynamic connector.569</title>
			<v:userDefs>
				<v:ud v:nameU="visVersion" v:val="VT0(15):26"/>
			</v:userDefs>
			<path d="M7.09 449.57 C7.09 451.48 7.09 454.59 7.09 457.4" class="st5"/>
		</g>
		<g id="shape570-88" v:mID="570" v:groupContext="shape" v:layerMember="0" transform="translate(29.1936,-52.3668)">
			<title>Decision 2.570</title>
			<desc># .csv file &#60;= n</desc>
			<v:custProps>
				<v:cp v:nameU="Cost" v:lbl="Cost" v:type="7" v:format="@" v:langID="1033"/>
				<v:cp v:nameU="Duration" v:lbl="Duration" v:type="2" v:langID="1033"/>
				<v:cp v:nameU="Resources" v:lbl="Resources" v:langID="1033"/>
			</v:custProps>
			<v:userDefs>
				<v:ud v:nameU="visVersion" v:val="VT0(15):26"/>
			</v:userDefs>
			<v:textBlock v:margins="rect(4,4,4,4)" v:tabSpace="42.5197"/>
			<v:textRect cx="43.0157" cy="428.455" width="64.53" height="35.2177"/>
			<path d="M0 428.45 L43.02 408.33 L86.03 428.45 L43.02 448.58 L0 428.45 Z" class="st1"/>
			<text x="24.83" y="425.76" class="st3" v:langID="1033"><v:paragraph v:horizAlign="1"/><v:tabList/># .csv file<v:newlineChar/><tspan
						x="33.08" dy="1.2em" class="st4">&#60;= n</tspan></text>		</g>
		<g id="shape571-93" v:mID="571" v:groupContext="shape" transform="translate(136.485,-61.1525)">
			<title>Rounded Rectangle.571</title>
			<desc>Delete .csv file</desc>
			<v:userDefs>
				<v:ud v:nameU="CTypeTopLeftSnip" v:prompt="" v:val="VT0(0):5"/>
				<v:ud v:nameU="CTypeTopRightSnip" v:prompt="" v:val="VT0(0):5"/>
				<v:ud v:nameU="CTypeBotLeftSnip" v:prompt="" v:val="VT0(0):5"/>
				<v:ud v:nameU="CTypeBotRightSnip" v:prompt="" v:val="VT0(0):5"/>
				<v:ud v:nameU="CornerLockHoriz" v:prompt="" v:val="VT0(1):5"/>
				<v:ud v:nameU="CornerLockVert" v:prompt="" v:val="VT0(1):5"/>
				<v:ud v:nameU="CornerLockDiag" v:prompt="" v:val="VT0(0):5"/>
				<v:ud v:nameU="TopLeftOffset" v:prompt="" v:val="VT0(0.15748031496063):24"/>
				<v:ud v:nameU="TopRightOffset" v:prompt="" v:val="VT0(0.15748031496063):24"/>
				<v:ud v:nameU="BotLeftOffset" v:prompt="" v:val="VT0(0.15748031496063):24"/>
				<v:ud v:nameU="BotRightOffset" v:prompt="" v:val="VT0(0.15748031496063):24"/>
				<v:ud v:nameU="visVersion" v:prompt="" v:val="VT0(15):26"/>
			</v:userDefs>
			<v:textBlock v:margins="rect(4,4,4,4)" v:tabSpace="42.5197"/>
			<v:textRect cx="62.3622" cy="437.241" width="124.73" height="22.6772"/>
			<path d="M11.34 448.58 L113.39 448.58 A11.3384 11.3384 -180 0 0 124.72 437.24 A11.3384 11.3384 -180 0 0 113.39 425.9
						 L11.34 425.9 A11.3384 11.3384 -180 0 0 0 437.24 A11.3384 11.3384 -180 0 0 11.34 448.58 Z" class="st1"/>
			<text x="34.01" y="439.94" class="st3" v:langID="1033"><v:paragraph v:horizAlign="1"/><v:tabList/>Delete .csv file</text>		</g>
		<g id="shape572-97" v:mID="572" v:groupContext="shape" v:layerMember="1" transform="translate(198.847,-81.136)">
			<title>Dynamic connector.572</title>
			<v:userDefs>
				<v:ud v:nameU="visVersion" v:val="VT0(15):26"/>
			</v:userDefs>
			<path d="M0 445.89 C-0 426.47 -27.45 426.47 -47.63 426.47 C-73.98 426.47 -87.92 426.47 -106.54 426.47 C-114.49 426.47
						 -123.29 426.47 -125.88 432.8 L-125.94 433.16" class="st9"/>
		</g>
		<g id="shape573-102" v:mID="573" v:groupContext="shape" v:layerMember="1" transform="translate(79.2959,-112.458)">
			<title>Dynamic connector.573</title>
			<v:userDefs>
				<v:ud v:nameU="visVersion" v:val="VT0(15):26"/>
			</v:userDefs>
			<path d="M-7.09 448.58 C-7.09 452.33 -7.09 458.92 -7.09 464.06" class="st5"/>
		</g>
		<g id="shape574-107" v:mID="574" v:groupContext="shape" v:layerMember="1" transform="translate(115.225,-65.4045)">
			<title>Dynamic connector.574</title>
			<desc>S</desc>
			<v:userDefs>
				<v:ud v:nameU="visVersion" v:val="VT0(15):26"/>
			</v:userDefs>
			<v:textBlock v:margins="rect(4,4,4,4)" v:tabSpace="42.5197"/>
			<v:textRect cx="10.6299" cy="441.493" width="30" height="15.2035"/>
			<path d="M0 441.49 C4.1 441.49 11.35 441.49 16.89 441.49" class="st5"/>
			<rect v:rectContext="textBkgnd" x="9.03626" y="437.893" width="3.18741" height="7.20016" class="st7"/>
			<text x="9.04" y="443.29" class="st8" v:langID="1033"><v:paragraph v:horizAlign="1"/><v:tabList/>S</text>		</g>
		<g id="shape575-114" v:mID="575" v:groupContext="shape" transform="translate(9.84707,-9.84707)">
			<title>Rounded Rectangle.575</title>
			<desc>End</desc>
			<v:userDefs>
				<v:ud v:nameU="CTypeTopLeftSnip" v:prompt="" v:val="VT0(0):5"/>
				<v:ud v:nameU="CTypeTopRightSnip" v:prompt="" v:val="VT0(0):5"/>
				<v:ud v:nameU="CTypeBotLeftSnip" v:prompt="" v:val="VT0(0):5"/>
				<v:ud v:nameU="CTypeBotRightSnip" v:prompt="" v:val="VT0(0):5"/>
				<v:ud v:nameU="CornerLockHoriz" v:prompt="" v:val="VT0(1):5"/>
				<v:ud v:nameU="CornerLockVert" v:prompt="" v:val="VT0(1):5"/>
				<v:ud v:nameU="CornerLockDiag" v:prompt="" v:val="VT0(0):5"/>
				<v:ud v:nameU="TopLeftOffset" v:prompt="" v:val="VT0(0.15748031496063):24"/>
				<v:ud v:nameU="TopRightOffset" v:prompt="" v:val="VT0(0.15748031496063):24"/>
				<v:ud v:nameU="BotLeftOffset" v:prompt="" v:val="VT0(0.15748031496063):24"/>
				<v:ud v:nameU="BotRightOffset" v:prompt="" v:val="VT0(0.15748031496063):24"/>
				<v:ud v:nameU="visVersion" v:prompt="" v:val="VT0(15):26"/>
			</v:userDefs>
			<v:textBlock v:margins="rect(4,4,4,4)" v:tabSpace="42.5197"/>
			<v:textRect cx="62.3622" cy="437.241" width="124.73" height="22.6772"/>
			<path d="M11.34 448.58 L113.39 448.58 A11.3384 11.3384 -180 0 0 124.72 437.24 A11.3384 11.3384 -180 0 0 113.39 425.9
						 L11.34 425.9 A11.3384 11.3384 -180 0 0 0 437.24 A11.3384 11.3384 -180 0 0 11.34 448.58 Z" class="st1"/>
			<text x="54.89" y="439.94" class="st3" v:langID="1033"><v:paragraph v:horizAlign="1"/><v:tabList/>End</text>		</g>
		<g id="shape576-118" v:mID="576" v:groupContext="shape" v:layerMember="1" transform="translate(65.1227,-52.3668)">
			<title>Dynamic connector.576</title>
			<desc>N</desc>
			<v:userDefs>
				<v:ud v:nameU="visVersion" v:val="VT0(15):26"/>
			</v:userDefs>
			<v:textBlock v:margins="rect(4,4,4,4)" v:tabSpace="42.5197"/>
			<v:textRect cx="7.08661" cy="458.501" width="30" height="15.2035"/>
			<path d="M7.09 448.58 C7.09 452.33 7.09 458.92 7.09 464.06" class="st5"/>
			<rect v:rectContext="textBkgnd" x="4.84257" y="454.901" width="4.48819" height="7.20016" class="st12"/>
			<text x="4.84" y="460.3" class="st8" v:langID="1033"><v:paragraph v:horizAlign="1"/><v:tabList/>N</text>		</g>
		<g id="shape577-125" v:mID="577" v:groupContext="shape" transform="translate(9.84707,-416.055)">
			<title>Rounded Rectangle.577</title>
			<desc>Start</desc>
			<v:userDefs>
				<v:ud v:nameU="CTypeTopLeftSnip" v:prompt="" v:val="VT0(0):5"/>
				<v:ud v:nameU="CTypeTopRightSnip" v:prompt="" v:val="VT0(0):5"/>
				<v:ud v:nameU="CTypeBotLeftSnip" v:prompt="" v:val="VT0(0):5"/>
				<v:ud v:nameU="CTypeBotRightSnip" v:prompt="" v:val="VT0(0):5"/>
				<v:ud v:nameU="CornerLockHoriz" v:prompt="" v:val="VT0(1):5"/>
				<v:ud v:nameU="CornerLockVert" v:prompt="" v:val="VT0(1):5"/>
				<v:ud v:nameU="CornerLockDiag" v:prompt="" v:val="VT0(0):5"/>
				<v:ud v:nameU="TopLeftOffset" v:prompt="" v:val="VT0(0.15748031496063):24"/>
				<v:ud v:nameU="TopRightOffset" v:prompt="" v:val="VT0(0.15748031496063):24"/>
				<v:ud v:nameU="BotLeftOffset" v:prompt="" v:val="VT0(0.15748031496063):24"/>
				<v:ud v:nameU="BotRightOffset" v:prompt="" v:val="VT0(0.15748031496063):24"/>
				<v:ud v:nameU="visVersion" v:prompt="" v:val="VT0(15):26"/>
			</v:userDefs>
			<v:textBlock v:margins="rect(4,4,4,4)" v:tabSpace="42.5197"/>
			<v:textRect cx="62.3622" cy="437.241" width="124.73" height="22.6772"/>
			<path d="M11.34 448.58 L113.39 448.58 A11.3384 11.3384 -180 0 0 124.72 437.24 A11.3384 11.3384 -180 0 0 113.39 425.9
						 L11.34 425.9 A11.3384 11.3384 -180 0 0 0 437.24 A11.3384 11.3384 -180 0 0 11.34 448.58 Z" class="st1"/>
			<text x="53.07" y="439.94" class="st3" v:langID="1033"><v:paragraph v:horizAlign="1"/><v:tabList/>Start</text>		</g>
		<g id="shape578-129" v:mID="578" v:groupContext="shape" v:layerMember="1" transform="translate(65.1227,-416.055)">
			<title>Dynamic connector.578</title>
			<v:userDefs>
				<v:ud v:nameU="visVersion" v:val="VT0(15):26"/>
			</v:userDefs>
			<path d="M7.09 448.58 C7.09 451.17 7.09 455.54 7.09 459.24" class="st5"/>
		</g>
		<g id="shape579-134" v:mID="579" v:groupContext="shape" v:layerMember="1" transform="translate(198.847,-331.861)">
			<title>Dynamic connector.579</title>
			<v:userDefs>
				<v:ud v:nameU="visVersion" v:val="VT0(15):26"/>
			</v:userDefs>
			<path d="M0 448.58 C-0 467.99 -27.45 467.99 -47.63 467.99 C-73.98 467.99 -87.92 467.99 -106.54 467.99 C-114.49 467.99
						 -123.29 467.99 -125.88 474.33 L-125.94 474.68" class="st9"/>
		</g>
		<g id="shape580-139" v:mID="580" v:groupContext="shape" transform="translate(9.84707,-182.197)">
			<title>Rounded Rectangle.580</title>
			<desc>.csv files list, n files</desc>
			<v:userDefs>
				<v:ud v:nameU="CTypeTopLeftSnip" v:prompt="" v:val="VT0(0):5"/>
				<v:ud v:nameU="CTypeTopRightSnip" v:prompt="" v:val="VT0(0):5"/>
				<v:ud v:nameU="CTypeBotLeftSnip" v:prompt="" v:val="VT0(0):5"/>
				<v:ud v:nameU="CTypeBotRightSnip" v:prompt="" v:val="VT0(0):5"/>
				<v:ud v:nameU="CornerLockHoriz" v:prompt="" v:val="VT0(1):5"/>
				<v:ud v:nameU="CornerLockVert" v:prompt="" v:val="VT0(1):5"/>
				<v:ud v:nameU="CornerLockDiag" v:prompt="" v:val="VT0(0):5"/>
				<v:ud v:nameU="TopLeftOffset" v:prompt="" v:val="VT0(0.15748031496063):24"/>
				<v:ud v:nameU="TopRightOffset" v:prompt="" v:val="VT0(0.15748031496063):24"/>
				<v:ud v:nameU="BotLeftOffset" v:prompt="" v:val="VT0(0.15748031496063):24"/>
				<v:ud v:nameU="BotRightOffset" v:prompt="" v:val="VT0(0.15748031496063):24"/>
				<v:ud v:nameU="visVersion" v:prompt="" v:val="VT0(15):26"/>
			</v:userDefs>
			<v:textBlock v:margins="rect(4,4,4,4)" v:tabSpace="42.5197"/>
			<v:textRect cx="62.3622" cy="437.241" width="124.73" height="22.6772"/>
			<path d="M11.34 448.58 L113.39 448.58 A11.3384 11.3384 -180 0 0 124.72 437.24 A11.3384 11.3384 -180 0 0 113.39 425.9
						 L11.34 425.9 A11.3384 11.3384 -180 0 0 0 437.24 A11.3384 11.3384 -180 0 0 11.34 448.58 Z" class="st1"/>
			<text x="38.34" y="434.54" class="st3" v:langID="1033"><v:paragraph v:horizAlign="1"/><v:tabList/>.csv files list,<v:newlineChar/><tspan
						x="50.73" dy="1.2em" class="st4">n files</tspan></text>		</g>
		<g id="shape581-144" v:mID="581" v:groupContext="shape" v:layerMember="1" transform="translate(65.1227,-183.187)">
			<title>Dynamic connector.581</title>
			<v:userDefs>
				<v:ud v:nameU="visVersion" v:val="VT0(15):26"/>
			</v:userDefs>
			<path d="M7.09 449.57 C7.09 451.48 7.09 454.59 7.09 457.4" class="st5"/>
		</g>
	</g>
</svg>
