<?xml version="1.0" encoding="UTF-8" standalone="no"?>
<!DOCTYPE svg PUBLIC "-//W3C//DTD SVG 1.1//EN" "http://www.w3.org/Graphics/SVG/1.1/DTD/svg11.dtd">
<!-- Generated by Microsoft Visio, SVG Export CNEStationDatasetDownloadFlowchart.svg Page-1 -->
<svg xmlns="http://www.w3.org/2000/svg" xmlns:xlink="http://www.w3.org/1999/xlink" xmlns:ev="http://www.w3.org/2001/xml-events"
		xmlns:v="http://schemas.microsoft.com/visio/2003/SVGExtensions/" width="6.00455in" height="4.47628in"
		viewBox="0 0 432.327 322.293" xml:space="preserve" color-interpolation-filters="sRGB" class="st11">
	<v:documentProperties v:langID="1033" v:metric="true" v:viewMarkup="false"/>

	<style type="text/css">
	<![CDATA[
		.st1 {fill:#f2f2f2;stroke:#fbbc0e;stroke-width:1.5}
		.st2 {fill:#fbbc0e;fill-opacity:1;stroke:#fbbc0e;stroke-opacity:1;stroke-width:0.37313432835821}
		.st3 {fill:#000000;font-family:Segoe UI;font-size:0.75em}
		.st4 {font-size:1em}
		.st5 {marker-end:url(#mrkr6-34);stroke:#7f7f7f;stroke-linecap:round;stroke-linejoin:round;stroke-width:0.5}
		.st6 {fill:#7f7f7f;fill-opacity:1;stroke:#7f7f7f;stroke-opacity:1;stroke-width:0.25773195876289}
		.st7 {marker-end:url(#mrkr6-40);stroke:#7f7f7f;stroke-linecap:round;stroke-linejoin:round;stroke-width:0.5}
		.st8 {fill:#ffffff;stroke:none;stroke-linecap:butt;stroke-width:7.2}
		.st9 {fill:#3d64ac;font-family:Segoe UI;font-size:0.499992em}
		.st10 {fill:#ffffff;stroke:none;stroke-linecap:butt}
		.st11 {fill:none;fill-rule:evenodd;font-size:12px;overflow:visible;stroke-linecap:square;stroke-miterlimit:3}
	]]>
	</style>

	<defs id="Markers">
		<g id="lend6">
			<path d="M 2 1 L 0 0 L 2.01237 -1.00641 C 2.32921 -0.372876 2.32921 0.372869 2.01238 1.0064 " style="stroke:none"/>
		</g>
		<marker id="mrkr6-4" class="st2" v:arrowType="6" v:arrowSize="2" v:setback="6.03" refX="6.03" orient="auto"
				markerUnits="strokeWidth" overflow="visible">
			<use xlink:href="#lend6" transform="scale(2.68) "/>
		</marker>
		<marker id="mrkr6-34" class="st6" v:arrowType="6" v:arrowSize="0" v:setback="8.01" refX="-8.01" orient="auto"
				markerUnits="strokeWidth" overflow="visible">
			<use xlink:href="#lend6" transform="scale(-3.88,-3.88) "/>
		</marker>
		<marker id="mrkr6-40" class="st6" v:arrowType="6" v:arrowSize="0" v:setback="8.73" refX="-8.73" orient="auto"
				markerUnits="strokeWidth" overflow="visible">
			<use xlink:href="#lend6" transform="scale(-3.88,-3.88) "/>
		</marker>
	</defs>
	<g v:mID="0" v:index="1" v:groupContext="foregroundPage">
		<title>Page-1</title>
		<v:pageProperties v:drawingScale="0.0393701" v:pageScale="0.0393701" v:drawingUnits="24" v:shadowOffsetX="8.50394"
				v:shadowOffsetY="-8.50394"/>
		<v:layer v:name="Connector" v:index="0"/>
		<v:layer v:name="Flowchart" v:index="1"/>
		<g id="shape522-1" v:mID="522" v:groupContext="shape" transform="translate(161.693,-289.768)">
			<title>Rounded Rectangle.522</title>
			<desc>https://dhime.ideam.gov.co/</desc>
			<v:userDefs>
				<v:ud v:nameU="CTypeTopLeftSnip" v:prompt="" v:val="VT0(0):5"/>
				<v:ud v:nameU="CTypeTopRightSnip" v:prompt="" v:val="VT0(0):5"/>
				<v:ud v:nameU="CTypeBotLeftSnip" v:prompt="" v:val="VT0(0):5"/>
				<v:ud v:nameU="CTypeBotRightSnip" v:prompt="" v:val="VT0(0):5"/>
				<v:ud v:nameU="CornerLockHoriz" v:prompt="" v:val="VT0(1):5"/>
				<v:ud v:nameU="CornerLockVert" v:prompt="" v:val="VT0(1):5"/>
				<v:ud v:nameU="CornerLockDiag" v:prompt="" v:val="VT0(0):5"/>
				<v:ud v:nameU="TopLeftOffset" v:prompt="" v:val="VT0(0.15748031496063):24"/>
				<v:ud v:nameU="TopRightOffset" v:prompt="" v:val="VT0(0.15748031496063):24"/>
				<v:ud v:nameU="BotLeftOffset" v:prompt="" v:val="VT0(0.15748031496063):24"/>
				<v:ud v:nameU="BotRightOffset" v:prompt="" v:val="VT0(0.15748031496063):24"/>
				<v:ud v:nameU="visVersion" v:prompt="" v:val="VT0(15):26"/>
			</v:userDefs>
			<v:textBlock v:margins="rect(4,4,4,4)" v:tabSpace="42.5197"/>
			<v:textRect cx="62.3622" cy="310.954" width="124.73" height="22.6772"/>
			<path d="M11.34 322.29 L113.39 322.29 A11.3384 11.3384 -180 0 0 124.72 310.95 A11.3384 11.3384 -180 0 0 113.39 299.62
						 L11.34 299.62 A11.3384 11.3384 -180 0 0 0 310.95 A11.3384 11.3384 -180 0 0 11.34 322.29 Z" class="st1"/>
			<text x="6.12" y="313.65" class="st3" v:langID="1033"><v:paragraph v:horizAlign="1"/><v:tabList/>https://dhime.ideam.gov.co/</text>		</g>
		<g id="shape523-6" v:mID="523" v:groupContext="shape" transform="translate(25.6299,-257.17)">
			<title>Rounded Rectangle.523</title>
			<desc>Fecha inicial 31/12/1899</desc>
			<v:userDefs>
				<v:ud v:nameU="CTypeTopLeftSnip" v:prompt="" v:val="VT0(0):5"/>
				<v:ud v:nameU="CTypeTopRightSnip" v:prompt="" v:val="VT0(0):5"/>
				<v:ud v:nameU="CTypeBotLeftSnip" v:prompt="" v:val="VT0(0):5"/>
				<v:ud v:nameU="CTypeBotRightSnip" v:prompt="" v:val="VT0(0):5"/>
				<v:ud v:nameU="CornerLockHoriz" v:prompt="" v:val="VT0(1):5"/>
				<v:ud v:nameU="CornerLockVert" v:prompt="" v:val="VT0(1):5"/>
				<v:ud v:nameU="CornerLockDiag" v:prompt="" v:val="VT0(0):5"/>
				<v:ud v:nameU="TopLeftOffset" v:prompt="" v:val="VT0(0.15748031496063):24"/>
				<v:ud v:nameU="TopRightOffset" v:prompt="" v:val="VT0(0.15748031496063):24"/>
				<v:ud v:nameU="BotLeftOffset" v:prompt="" v:val="VT0(0.15748031496063):24"/>
				<v:ud v:nameU="BotRightOffset" v:prompt="" v:val="VT0(0.15748031496063):24"/>
				<v:ud v:nameU="visVersion" v:prompt="" v:val="VT0(15):26"/>
			</v:userDefs>
			<v:textBlock v:margins="rect(4,4,4,4)" v:tabSpace="42.5197"/>
			<v:textRect cx="62.3622" cy="310.954" width="124.73" height="22.6772"/>
			<path d="M11.34 322.29 L113.39 322.29 A11.3384 11.3384 -180 0 0 124.72 310.95 A11.3384 11.3384 -180 0 0 113.39 299.62
						 L11.34 299.62 A11.3384 11.3384 -180 0 0 0 310.95 A11.3384 11.3384 -180 0 0 11.34 322.29 Z" class="st1"/>
			<text x="38.39" y="308.25" class="st3" v:langID="1033"><v:paragraph v:horizAlign="1"/><v:tabList/>Fecha inicial<v:newlineChar/><tspan
						x="39.45" dy="1.2em" class="st4">31/12/1899</tspan></text>		</g>
		<g id="shape524-11" v:mID="524" v:groupContext="shape" transform="translate(161.693,-257.17)">
			<title>Rounded Rectangle.524</title>
			<desc>Fecha final 01/01/yyyy</desc>
			<v:userDefs>
				<v:ud v:nameU="CTypeTopLeftSnip" v:prompt="" v:val="VT0(0):5"/>
				<v:ud v:nameU="CTypeTopRightSnip" v:prompt="" v:val="VT0(0):5"/>
				<v:ud v:nameU="CTypeBotLeftSnip" v:prompt="" v:val="VT0(0):5"/>
				<v:ud v:nameU="CTypeBotRightSnip" v:prompt="" v:val="VT0(0):5"/>
				<v:ud v:nameU="CornerLockHoriz" v:prompt="" v:val="VT0(1):5"/>
				<v:ud v:nameU="CornerLockVert" v:prompt="" v:val="VT0(1):5"/>
				<v:ud v:nameU="CornerLockDiag" v:prompt="" v:val="VT0(0):5"/>
				<v:ud v:nameU="TopLeftOffset" v:prompt="" v:val="VT0(0.15748031496063):24"/>
				<v:ud v:nameU="TopRightOffset" v:prompt="" v:val="VT0(0.15748031496063):24"/>
				<v:ud v:nameU="BotLeftOffset" v:prompt="" v:val="VT0(0.15748031496063):24"/>
				<v:ud v:nameU="BotRightOffset" v:prompt="" v:val="VT0(0.15748031496063):24"/>
				<v:ud v:nameU="visVersion" v:prompt="" v:val="VT0(15):26"/>
			</v:userDefs>
			<v:textBlock v:margins="rect(4,4,4,4)" v:tabSpace="42.5197"/>
			<v:textRect cx="62.3622" cy="310.954" width="124.73" height="22.6772"/>
			<path d="M11.34 322.29 L113.39 322.29 A11.3384 11.3384 -180 0 0 124.72 310.95 A11.3384 11.3384 -180 0 0 113.39 299.62
						 L11.34 299.62 A11.3384 11.3384 -180 0 0 0 310.95 A11.3384 11.3384 -180 0 0 11.34 322.29 Z" class="st1"/>
			<text x="41.24" y="308.25" class="st3" v:langID="1033"><v:paragraph v:horizAlign="1"/><v:tabList/>Fecha final<v:newlineChar/><tspan
						x="40.44" dy="1.2em" class="st4">01/01/yyyy</tspan></text>		</g>
		<g id="shape525-16" v:mID="525" v:groupContext="shape" transform="translate(297.756,-257.17)">
			<title>Rounded Rectangle.525</title>
			<desc>Serie Estándar</desc>
			<v:userDefs>
				<v:ud v:nameU="CTypeTopLeftSnip" v:prompt="" v:val="VT0(0):5"/>
				<v:ud v:nameU="CTypeTopRightSnip" v:prompt="" v:val="VT0(0):5"/>
				<v:ud v:nameU="CTypeBotLeftSnip" v:prompt="" v:val="VT0(0):5"/>
				<v:ud v:nameU="CTypeBotRightSnip" v:prompt="" v:val="VT0(0):5"/>
				<v:ud v:nameU="CornerLockHoriz" v:prompt="" v:val="VT0(1):5"/>
				<v:ud v:nameU="CornerLockVert" v:prompt="" v:val="VT0(1):5"/>
				<v:ud v:nameU="CornerLockDiag" v:prompt="" v:val="VT0(0):5"/>
				<v:ud v:nameU="TopLeftOffset" v:prompt="" v:val="VT0(0.15748031496063):24"/>
				<v:ud v:nameU="TopRightOffset" v:prompt="" v:val="VT0(0.15748031496063):24"/>
				<v:ud v:nameU="BotLeftOffset" v:prompt="" v:val="VT0(0.15748031496063):24"/>
				<v:ud v:nameU="BotRightOffset" v:prompt="" v:val="VT0(0.15748031496063):24"/>
				<v:ud v:nameU="visVersion" v:prompt="" v:val="VT0(15):26"/>
			</v:userDefs>
			<v:textBlock v:margins="rect(4,4,4,4)" v:tabSpace="42.5197"/>
			<v:textRect cx="62.3622" cy="310.954" width="124.73" height="22.6772"/>
			<path d="M11.34 322.29 L113.39 322.29 A11.3384 11.3384 -180 0 0 124.72 310.95 A11.3384 11.3384 -180 0 0 113.39 299.62
						 L11.34 299.62 A11.3384 11.3384 -180 0 0 0 310.95 A11.3384 11.3384 -180 0 0 11.34 322.29 Z" class="st1"/>
			<text x="34.33" y="313.65" class="st3" v:langID="1033"><v:paragraph v:horizAlign="1"/><v:tabList/>Serie Estándar</text>		</g>
		<g id="shape526-20" v:mID="526" v:groupContext="shape" transform="translate(297.756,-225.28)">
			<title>Rounded Rectangle.526</title>
			<desc>Parámetro hidroclimatológico</desc>
			<v:userDefs>
				<v:ud v:nameU="CTypeTopLeftSnip" v:prompt="" v:val="VT0(0):5"/>
				<v:ud v:nameU="CTypeTopRightSnip" v:prompt="" v:val="VT0(0):5"/>
				<v:ud v:nameU="CTypeBotLeftSnip" v:prompt="" v:val="VT0(0):5"/>
				<v:ud v:nameU="CTypeBotRightSnip" v:prompt="" v:val="VT0(0):5"/>
				<v:ud v:nameU="CornerLockHoriz" v:prompt="" v:val="VT0(1):5"/>
				<v:ud v:nameU="CornerLockVert" v:prompt="" v:val="VT0(1):5"/>
				<v:ud v:nameU="CornerLockDiag" v:prompt="" v:val="VT0(0):5"/>
				<v:ud v:nameU="TopLeftOffset" v:prompt="" v:val="VT0(0.15748031496063):24"/>
				<v:ud v:nameU="TopRightOffset" v:prompt="" v:val="VT0(0.15748031496063):24"/>
				<v:ud v:nameU="BotLeftOffset" v:prompt="" v:val="VT0(0.15748031496063):24"/>
				<v:ud v:nameU="BotRightOffset" v:prompt="" v:val="VT0(0.15748031496063):24"/>
				<v:ud v:nameU="visVersion" v:prompt="" v:val="VT0(15):26"/>
			</v:userDefs>
			<v:textBlock v:margins="rect(4,4,4,4)" v:tabSpace="42.5197"/>
			<v:textRect cx="62.3622" cy="310.954" width="124.73" height="22.6772"/>
			<path d="M11.34 322.29 L113.39 322.29 A11.3384 11.3384 -180 0 0 124.72 310.95 A11.3384 11.3384 -180 0 0 113.39 299.62
						 L11.34 299.62 A11.3384 11.3384 -180 0 0 0 310.95 A11.3384 11.3384 -180 0 0 11.34 322.29 Z" class="st1"/>
			<text x="41.74" y="308.25" class="st3" v:langID="1033"><v:paragraph v:horizAlign="1"/><v:tabList/>Parámetro <tspan
						x="25.11" dy="1.2em" class="st4">hidroclimatológico</tspan></text>		</g>
		<g id="shape527-25" v:mID="527" v:groupContext="shape" transform="translate(161.693,-225.28)">
			<title>Rounded Rectangle.527</title>
			<desc>Variable / Lista completa</desc>
			<v:userDefs>
				<v:ud v:nameU="CTypeTopLeftSnip" v:prompt="" v:val="VT0(0):5"/>
				<v:ud v:nameU="CTypeTopRightSnip" v:prompt="" v:val="VT0(0):5"/>
				<v:ud v:nameU="CTypeBotLeftSnip" v:prompt="" v:val="VT0(0):5"/>
				<v:ud v:nameU="CTypeBotRightSnip" v:prompt="" v:val="VT0(0):5"/>
				<v:ud v:nameU="CornerLockHoriz" v:prompt="" v:val="VT0(1):5"/>
				<v:ud v:nameU="CornerLockVert" v:prompt="" v:val="VT0(1):5"/>
				<v:ud v:nameU="CornerLockDiag" v:prompt="" v:val="VT0(0):5"/>
				<v:ud v:nameU="TopLeftOffset" v:prompt="" v:val="VT0(0.15748031496063):24"/>
				<v:ud v:nameU="TopRightOffset" v:prompt="" v:val="VT0(0.15748031496063):24"/>
				<v:ud v:nameU="BotLeftOffset" v:prompt="" v:val="VT0(0.15748031496063):24"/>
				<v:ud v:nameU="BotRightOffset" v:prompt="" v:val="VT0(0.15748031496063):24"/>
				<v:ud v:nameU="visVersion" v:prompt="" v:val="VT0(15):26"/>
			</v:userDefs>
			<v:textBlock v:margins="rect(4,4,4,4)" v:tabSpace="42.5197"/>
			<v:textRect cx="62.3622" cy="310.954" width="124.73" height="22.6772"/>
			<path d="M11.34 322.29 L113.39 322.29 A11.3384 11.3384 -180 0 0 124.72 310.95 A11.3384 11.3384 -180 0 0 113.39 299.62
						 L11.34 299.62 A11.3384 11.3384 -180 0 0 0 310.95 A11.3384 11.3384 -180 0 0 11.34 322.29 Z" class="st1"/>
			<text x="13.37" y="313.65" class="st3" v:langID="1033"><v:paragraph v:horizAlign="1"/><v:tabList/>Variable / Lista completa</text>		</g>
		<g id="shape529-29" v:mID="529" v:groupContext="shape" v:layerMember="0" transform="translate(161.693,-301.107)">
			<title>Dynamic connector.529</title>
			<v:userDefs>
				<v:ud v:nameU="visVersion" v:val="VT0(15):26"/>
			</v:userDefs>
			<path d="M0 322.29 C-18.43 322.29 -49.39 322.29 -63 327.29 C-70.95 330.21 -72.99 334.83 -73.52 339.19 L-73.53 339.55"
					class="st5"/>
		</g>
		<g id="shape530-35" v:mID="530" v:groupContext="shape" v:layerMember="0" transform="translate(148.937,-261.422)">
			<title>Dynamic connector.530</title>
			<v:userDefs>
				<v:ud v:nameU="visVersion" v:val="VT0(15):26"/>
			</v:userDefs>
			<path d="M1.42 315.21 C3.13 315.21 5.86 315.21 8.39 315.21" class="st7"/>
		</g>
		<g id="shape531-41" v:mID="531" v:groupContext="shape" v:layerMember="0" transform="translate(285,-261.422)">
			<title>Dynamic connector.531</title>
			<v:userDefs>
				<v:ud v:nameU="visVersion" v:val="VT0(15):26"/>
			</v:userDefs>
			<path d="M1.42 315.21 C3.13 315.21 5.86 315.21 8.39 315.21" class="st7"/>
		</g>
		<g id="shape532-46" v:mID="532" v:groupContext="shape" v:layerMember="0" transform="translate(353.032,-259.65)">
			<title>Dynamic connector.532</title>
			<v:userDefs>
				<v:ud v:nameU="visVersion" v:val="VT0(15):26"/>
			</v:userDefs>
			<path d="M7.09 324.77 C7.09 325.98 7.09 327.81 7.09 329.62" class="st7"/>
		</g>
		<g id="shape533-51" v:mID="533" v:groupContext="shape" v:layerMember="0" transform="translate(299.173,-229.532)">
			<title>Dynamic connector.533</title>
			<v:userDefs>
				<v:ud v:nameU="visVersion" v:val="VT0(15):26"/>
			</v:userDefs>
			<path d="M-1.42 315.21 C-3.13 315.21 -5.86 315.21 -8.39 315.21" class="st7"/>
		</g>
		<g id="shape534-56" v:mID="534" v:groupContext="shape" transform="translate(25.6299,-225.28)">
			<title>Rounded Rectangle.534</title>
			<desc>Departamento</desc>
			<v:userDefs>
				<v:ud v:nameU="CTypeTopLeftSnip" v:prompt="" v:val="VT0(0):5"/>
				<v:ud v:nameU="CTypeTopRightSnip" v:prompt="" v:val="VT0(0):5"/>
				<v:ud v:nameU="CTypeBotLeftSnip" v:prompt="" v:val="VT0(0):5"/>
				<v:ud v:nameU="CTypeBotRightSnip" v:prompt="" v:val="VT0(0):5"/>
				<v:ud v:nameU="CornerLockHoriz" v:prompt="" v:val="VT0(1):5"/>
				<v:ud v:nameU="CornerLockVert" v:prompt="" v:val="VT0(1):5"/>
				<v:ud v:nameU="CornerLockDiag" v:prompt="" v:val="VT0(0):5"/>
				<v:ud v:nameU="TopLeftOffset" v:prompt="" v:val="VT0(0.15748031496063):24"/>
				<v:ud v:nameU="TopRightOffset" v:prompt="" v:val="VT0(0.15748031496063):24"/>
				<v:ud v:nameU="BotLeftOffset" v:prompt="" v:val="VT0(0.15748031496063):24"/>
				<v:ud v:nameU="BotRightOffset" v:prompt="" v:val="VT0(0.15748031496063):24"/>
				<v:ud v:nameU="visVersion" v:prompt="" v:val="VT0(15):26"/>
			</v:userDefs>
			<v:textBlock v:margins="rect(4,4,4,4)" v:tabSpace="42.5197"/>
			<v:textRect cx="62.3622" cy="310.954" width="124.73" height="22.6772"/>
			<path d="M11.34 322.29 L113.39 322.29 A11.3384 11.3384 -180 0 0 124.72 310.95 A11.3384 11.3384 -180 0 0 113.39 299.62
						 L11.34 299.62 A11.3384 11.3384 -180 0 0 0 310.95 A11.3384 11.3384 -180 0 0 11.34 322.29 Z" class="st1"/>
			<text x="33.6" y="313.65" class="st3" v:langID="1033"><v:paragraph v:horizAlign="1"/><v:tabList/>Departamento</text>		</g>
		<g id="shape535-60" v:mID="535" v:groupContext="shape" transform="translate(25.6299,-191.264)">
			<title>Rounded Rectangle.535</title>
			<desc>Municipio / Todo</desc>
			<v:userDefs>
				<v:ud v:nameU="CTypeTopLeftSnip" v:prompt="" v:val="VT0(0):5"/>
				<v:ud v:nameU="CTypeTopRightSnip" v:prompt="" v:val="VT0(0):5"/>
				<v:ud v:nameU="CTypeBotLeftSnip" v:prompt="" v:val="VT0(0):5"/>
				<v:ud v:nameU="CTypeBotRightSnip" v:prompt="" v:val="VT0(0):5"/>
				<v:ud v:nameU="CornerLockHoriz" v:prompt="" v:val="VT0(1):5"/>
				<v:ud v:nameU="CornerLockVert" v:prompt="" v:val="VT0(1):5"/>
				<v:ud v:nameU="CornerLockDiag" v:prompt="" v:val="VT0(0):5"/>
				<v:ud v:nameU="TopLeftOffset" v:prompt="" v:val="VT0(0.15748031496063):24"/>
				<v:ud v:nameU="TopRightOffset" v:prompt="" v:val="VT0(0.15748031496063):24"/>
				<v:ud v:nameU="BotLeftOffset" v:prompt="" v:val="VT0(0.15748031496063):24"/>
				<v:ud v:nameU="BotRightOffset" v:prompt="" v:val="VT0(0.15748031496063):24"/>
				<v:ud v:nameU="visVersion" v:prompt="" v:val="VT0(15):26"/>
			</v:userDefs>
			<v:textBlock v:margins="rect(4,4,4,4)" v:tabSpace="42.5197"/>
			<v:textRect cx="62.3622" cy="310.954" width="124.73" height="22.6772"/>
			<path d="M11.34 322.29 L113.39 322.29 A11.3384 11.3384 -180 0 0 124.72 310.95 A11.3384 11.3384 -180 0 0 113.39 299.62
						 L11.34 299.62 A11.3384 11.3384 -180 0 0 0 310.95 A11.3384 11.3384 -180 0 0 11.34 322.29 Z" class="st1"/>
			<text x="28.1" y="313.65" class="st3" v:langID="1033"><v:paragraph v:horizAlign="1"/><v:tabList/>Municipio / Todo</text>		</g>
		<g id="shape536-64" v:mID="536" v:groupContext="shape" v:layerMember="0" transform="translate(163.11,-229.532)">
			<title>Dynamic connector.536</title>
			<v:userDefs>
				<v:ud v:nameU="visVersion" v:val="VT0(15):26"/>
			</v:userDefs>
			<path d="M-1.42 315.21 C-3.13 315.21 -5.86 315.21 -8.39 315.21" class="st7"/>
		</g>
		<g id="shape537-69" v:mID="537" v:groupContext="shape" v:layerMember="0" transform="translate(80.9055,-226.697)">
			<title>Dynamic connector.537</title>
			<v:userDefs>
				<v:ud v:nameU="visVersion" v:val="VT0(15):26"/>
			</v:userDefs>
			<path d="M7.09 323.71 C7.09 325.42 7.09 328.16 7.09 330.68" class="st7"/>
		</g>
		<g id="shape538-74" v:mID="538" v:groupContext="shape" transform="translate(161.693,-191.264)">
			<title>Rounded Rectangle.538</title>
			<desc>Buscar / Seleccionar estación</desc>
			<v:userDefs>
				<v:ud v:nameU="CTypeTopLeftSnip" v:prompt="" v:val="VT0(0):5"/>
				<v:ud v:nameU="CTypeTopRightSnip" v:prompt="" v:val="VT0(0):5"/>
				<v:ud v:nameU="CTypeBotLeftSnip" v:prompt="" v:val="VT0(0):5"/>
				<v:ud v:nameU="CTypeBotRightSnip" v:prompt="" v:val="VT0(0):5"/>
				<v:ud v:nameU="CornerLockHoriz" v:prompt="" v:val="VT0(1):5"/>
				<v:ud v:nameU="CornerLockVert" v:prompt="" v:val="VT0(1):5"/>
				<v:ud v:nameU="CornerLockDiag" v:prompt="" v:val="VT0(0):5"/>
				<v:ud v:nameU="TopLeftOffset" v:prompt="" v:val="VT0(0.15748031496063):24"/>
				<v:ud v:nameU="TopRightOffset" v:prompt="" v:val="VT0(0.15748031496063):24"/>
				<v:ud v:nameU="BotLeftOffset" v:prompt="" v:val="VT0(0.15748031496063):24"/>
				<v:ud v:nameU="BotRightOffset" v:prompt="" v:val="VT0(0.15748031496063):24"/>
				<v:ud v:nameU="visVersion" v:prompt="" v:val="VT0(15):26"/>
			</v:userDefs>
			<v:textBlock v:margins="rect(4,4,4,4)" v:tabSpace="42.5197"/>
			<v:textRect cx="62.3622" cy="310.954" width="124.73" height="22.6772"/>
			<path d="M11.34 322.29 L113.39 322.29 A11.3384 11.3384 -180 0 0 124.72 310.95 A11.3384 11.3384 -180 0 0 113.39 299.62
						 L11.34 299.62 A11.3384 11.3384 -180 0 0 0 310.95 A11.3384 11.3384 -180 0 0 11.34 322.29 Z" class="st1"/>
			<text x="5.04" y="313.65" class="st3" v:langID="1033"><v:paragraph v:horizAlign="1"/><v:tabList/>Buscar / Seleccionar estación</text>		</g>
		<g id="shape539-78" v:mID="539" v:groupContext="shape" v:layerMember="0" transform="translate(148.937,-195.516)">
			<title>Dynamic connector.539</title>
			<v:userDefs>
				<v:ud v:nameU="visVersion" v:val="VT0(15):26"/>
			</v:userDefs>
			<path d="M1.42 315.21 C3.13 315.21 5.86 315.21 8.39 315.21" class="st7"/>
		</g>
		<g id="shape540-83" v:mID="540" v:groupContext="shape" v:layerMember="1" transform="translate(185.079,-85.3547)">
			<title>Decision 2.540</title>
			<desc>n &#60;= 10</desc>
			<v:custProps>
				<v:cp v:nameU="Cost" v:lbl="Cost" v:type="7" v:format="@" v:langID="1033"/>
				<v:cp v:nameU="Duration" v:lbl="Duration" v:type="2" v:langID="1033"/>
				<v:cp v:nameU="Resources" v:lbl="Resources" v:langID="1033"/>
			</v:custProps>
			<v:userDefs>
				<v:ud v:nameU="visVersion" v:val="VT0(15):26"/>
			</v:userDefs>
			<v:textBlock v:margins="rect(4,4,4,4)" v:tabSpace="42.5197"/>
			<v:textRect cx="38.9764" cy="302.168" width="58.47" height="35.2177"/>
			<path d="M0 302.17 L38.98 282.04 L77.95 302.17 L38.98 322.29 L0 302.17 Z" class="st1"/>
			<text x="22.96" y="304.87" class="st3" v:langID="1033"><v:paragraph v:horizAlign="1"/><v:tabList/>n &#60;= 10</text>		</g>
		<g id="shape541-87" v:mID="541" v:groupContext="shape" v:layerMember="0" transform="translate(216.969,-193.183)">
			<title>Dynamic connector.541</title>
			<v:userDefs>
				<v:ud v:nameU="visVersion" v:val="VT0(15):26"/>
			</v:userDefs>
			<path d="M7.09 324.21 C7.09 325.68 7.09 327.99 7.09 330.18" class="st7"/>
		</g>
		<g id="shape542-92" v:mID="542" v:groupContext="shape" v:layerMember="0" transform="translate(216.969,-85.3547)">
			<title>Dynamic connector.542</title>
			<desc>N</desc>
			<v:userDefs>
				<v:ud v:nameU="visVersion" v:val="VT0(15):26"/>
			</v:userDefs>
			<v:textBlock v:margins="rect(4,4,4,4)" v:tabSpace="42.5197"/>
			<v:textRect cx="7.08661" cy="329.831" width="30" height="15.2035"/>
			<path d="M7.09 322.29 C7.09 324.89 7.09 329.29 7.09 333" class="st7"/>
			<rect v:rectContext="textBkgnd" x="4.84257" y="326.231" width="4.48819" height="7.20016" class="st8"/>
			<text x="4.84" y="331.63" class="st9" v:langID="1033"><v:paragraph v:horizAlign="1"/><v:tabList/>N</text>		</g>
		<g id="shape543-99" v:mID="543" v:groupContext="shape" v:layerMember="1" transform="translate(185.079,-140.68)">
			<title>Decision 2.543</title>
			<desc>Mismo Depto.</desc>
			<v:custProps>
				<v:cp v:nameU="Cost" v:lbl="Cost" v:type="7" v:format="@" v:langID="1033"/>
				<v:cp v:nameU="Duration" v:lbl="Duration" v:type="2" v:langID="1033"/>
				<v:cp v:nameU="Resources" v:lbl="Resources" v:langID="1033"/>
			</v:custProps>
			<v:userDefs>
				<v:ud v:nameU="visVersion" v:val="VT0(15):26"/>
			</v:userDefs>
			<v:textBlock v:margins="rect(4,4,4,4)" v:tabSpace="42.5197"/>
			<v:textRect cx="38.9764" cy="302.168" width="58.47" height="35.2177"/>
			<path d="M0 302.17 L38.98 282.04 L77.95 302.17 L38.98 322.29 L0 302.17 Z" class="st1"/>
			<text x="25.42" y="299.47" class="st3" v:langID="1033"><v:paragraph v:horizAlign="1"/><v:tabList/>Mismo <tspan
						x="25.69" dy="1.2em" class="st4">Depto.</tspan></text>		</g>
		<g id="shape544-104" v:mID="544" v:groupContext="shape" v:layerMember="0" transform="translate(185.079,-153.718)">
			<title>Dynamic connector.544</title>
			<desc>N</desc>
			<v:userDefs>
				<v:ud v:nameU="visVersion" v:val="VT0(15):26"/>
			</v:userDefs>
			<v:textBlock v:margins="rect(4,4,4,4)" v:tabSpace="42.5197"/>
			<v:textRect cx="-17.3622" cy="315.206" width="30" height="15.2035"/>
			<path d="M0 315.21 C-7.4 315.21 -21.1 315.21 -30.36 315.21" class="st7"/>
			<rect v:rectContext="textBkgnd" x="-19.6063" y="311.606" width="4.48819" height="7.20016" class="st8"/>
			<text x="-19.61" y="317.01" class="st9" v:langID="1033"><v:paragraph v:horizAlign="1"/><v:tabList/>N</text>		</g>
		<g id="shape545-111" v:mID="545" v:groupContext="shape" v:layerMember="0" transform="translate(263.032,-105.479)">
			<title>Dynamic connector.545</title>
			<desc>S</desc>
			<v:userDefs>
				<v:ud v:nameU="visVersion" v:val="VT0(15):26"/>
			</v:userDefs>
			<v:textBlock v:margins="rect(4,4,4,4)" v:tabSpace="42.5197"/>
			<v:textRect cx="33.9451" cy="281.955" width="30" height="15.2035"/>
			<path d="M0 322.29 C34.02 322.29 34.02 297.38 34.02 272.47 C34.02 252.36 34.02 232.25 27.48 226.68 L27.14 226.55"
					class="st5"/>
			<rect v:rectContext="textBkgnd" x="32.3514" y="278.355" width="3.18741" height="7.20016" class="st8"/>
			<text x="32.35" y="283.76" class="st9" v:langID="1033"><v:paragraph v:horizAlign="1"/><v:tabList/>S</text>		</g>
		<g id="shape546-118" v:mID="546" v:groupContext="shape" v:layerMember="0" transform="translate(216.969,-140.68)">
			<title>Dynamic connector.546</title>
			<desc>S</desc>
			<v:userDefs>
				<v:ud v:nameU="visVersion" v:val="VT0(15):26"/>
			</v:userDefs>
			<v:textBlock v:margins="rect(4,4,4,4)" v:tabSpace="42.5197"/>
			<v:textRect cx="7.08661" cy="329.831" width="30" height="15.2035"/>
			<path d="M7.09 322.29 C7.09 324.89 7.09 329.29 7.09 333" class="st7"/>
			<rect v:rectContext="textBkgnd" x="5.49296" y="326.231" width="3.18741" height="7.20016" class="st10"/>
			<text x="5.49" y="331.63" class="st9" v:langID="1033"><v:paragraph v:horizAlign="1"/><v:tabList/>S</text>		</g>
		<g id="shape547-125" v:mID="547" v:groupContext="shape" transform="translate(161.693,-47.6009)">
			<title>Rounded Rectangle.547</title>
			<desc>Agregar a la consulta</desc>
			<v:userDefs>
				<v:ud v:nameU="CTypeTopLeftSnip" v:prompt="" v:val="VT0(0):5"/>
				<v:ud v:nameU="CTypeTopRightSnip" v:prompt="" v:val="VT0(0):5"/>
				<v:ud v:nameU="CTypeBotLeftSnip" v:prompt="" v:val="VT0(0):5"/>
				<v:ud v:nameU="CTypeBotRightSnip" v:prompt="" v:val="VT0(0):5"/>
				<v:ud v:nameU="CornerLockHoriz" v:prompt="" v:val="VT0(1):5"/>
				<v:ud v:nameU="CornerLockVert" v:prompt="" v:val="VT0(1):5"/>
				<v:ud v:nameU="CornerLockDiag" v:prompt="" v:val="VT0(0):5"/>
				<v:ud v:nameU="TopLeftOffset" v:prompt="" v:val="VT0(0.15748031496063):24"/>
				<v:ud v:nameU="TopRightOffset" v:prompt="" v:val="VT0(0.15748031496063):24"/>
				<v:ud v:nameU="BotLeftOffset" v:prompt="" v:val="VT0(0.15748031496063):24"/>
				<v:ud v:nameU="BotRightOffset" v:prompt="" v:val="VT0(0.15748031496063):24"/>
				<v:ud v:nameU="visVersion" v:prompt="" v:val="VT0(15):26"/>
			</v:userDefs>
			<v:textBlock v:margins="rect(4,4,4,4)" v:tabSpace="42.5197"/>
			<v:textRect cx="62.3622" cy="310.954" width="124.73" height="22.6772"/>
			<path d="M11.34 322.29 L113.39 322.29 A11.3384 11.3384 -180 0 0 124.72 310.95 A11.3384 11.3384 -180 0 0 113.39 299.62
						 L11.34 299.62 A11.3384 11.3384 -180 0 0 0 310.95 A11.3384 11.3384 -180 0 0 11.34 322.29 Z" class="st1"/>
			<text x="20.4" y="313.65" class="st3" v:langID="1033"><v:paragraph v:horizAlign="1"/><v:tabList/>Agregar a la consulta</text>		</g>
		<g id="shape548-129" v:mID="548" v:groupContext="shape" transform="translate(25.6299,-149.466)">
			<title>Rounded Rectangle.548</title>
			<desc>Agregar a la consulta</desc>
			<v:userDefs>
				<v:ud v:nameU="CTypeTopLeftSnip" v:prompt="" v:val="VT0(0):5"/>
				<v:ud v:nameU="CTypeTopRightSnip" v:prompt="" v:val="VT0(0):5"/>
				<v:ud v:nameU="CTypeBotLeftSnip" v:prompt="" v:val="VT0(0):5"/>
				<v:ud v:nameU="CTypeBotRightSnip" v:prompt="" v:val="VT0(0):5"/>
				<v:ud v:nameU="CornerLockHoriz" v:prompt="" v:val="VT0(1):5"/>
				<v:ud v:nameU="CornerLockVert" v:prompt="" v:val="VT0(1):5"/>
				<v:ud v:nameU="CornerLockDiag" v:prompt="" v:val="VT0(0):5"/>
				<v:ud v:nameU="TopLeftOffset" v:prompt="" v:val="VT0(0.15748031496063):24"/>
				<v:ud v:nameU="TopRightOffset" v:prompt="" v:val="VT0(0.15748031496063):24"/>
				<v:ud v:nameU="BotLeftOffset" v:prompt="" v:val="VT0(0.15748031496063):24"/>
				<v:ud v:nameU="BotRightOffset" v:prompt="" v:val="VT0(0.15748031496063):24"/>
				<v:ud v:nameU="visVersion" v:prompt="" v:val="VT0(15):26"/>
			</v:userDefs>
			<v:textBlock v:margins="rect(4,4,4,4)" v:tabSpace="42.5197"/>
			<v:textRect cx="62.3622" cy="310.954" width="124.73" height="22.6772"/>
			<path d="M11.34 322.29 L113.39 322.29 A11.3384 11.3384 -180 0 0 124.72 310.95 A11.3384 11.3384 -180 0 0 113.39 299.62
						 L11.34 299.62 A11.3384 11.3384 -180 0 0 0 310.95 A11.3384 11.3384 -180 0 0 11.34 322.29 Z" class="st1"/>
			<text x="20.4" y="313.65" class="st3" v:langID="1033"><v:paragraph v:horizAlign="1"/><v:tabList/>Agregar a la consulta</text>		</g>
		<g id="shape549-133" v:mID="549" v:groupContext="shape" v:layerMember="0" transform="translate(18.5433,-160.804)">
			<title>Dynamic connector.549</title>
			<v:userDefs>
				<v:ud v:nameU="visVersion" v:val="VT0(15):26"/>
			</v:userDefs>
			<path d="M7.09 322.29 C-3.54 322.29 -3.54 303.34 -3.54 284.39 C-3.54 268.34 -3.54 252.29 2.91 247.75 L3.25 247.64"
					class="st5"/>
		</g>
		<g id="shape550-138" v:mID="550" v:groupContext="shape" transform="translate(161.693,-9.84707)">
			<title>Rounded Rectangle.550</title>
			<desc>Descargar</desc>
			<v:userDefs>
				<v:ud v:nameU="CTypeTopLeftSnip" v:prompt="" v:val="VT0(0):5"/>
				<v:ud v:nameU="CTypeTopRightSnip" v:prompt="" v:val="VT0(0):5"/>
				<v:ud v:nameU="CTypeBotLeftSnip" v:prompt="" v:val="VT0(0):5"/>
				<v:ud v:nameU="CTypeBotRightSnip" v:prompt="" v:val="VT0(0):5"/>
				<v:ud v:nameU="CornerLockHoriz" v:prompt="" v:val="VT0(1):5"/>
				<v:ud v:nameU="CornerLockVert" v:prompt="" v:val="VT0(1):5"/>
				<v:ud v:nameU="CornerLockDiag" v:prompt="" v:val="VT0(0):5"/>
				<v:ud v:nameU="TopLeftOffset" v:prompt="" v:val="VT0(0.15748031496063):24"/>
				<v:ud v:nameU="TopRightOffset" v:prompt="" v:val="VT0(0.15748031496063):24"/>
				<v:ud v:nameU="BotLeftOffset" v:prompt="" v:val="VT0(0.15748031496063):24"/>
				<v:ud v:nameU="BotRightOffset" v:prompt="" v:val="VT0(0.15748031496063):24"/>
				<v:ud v:nameU="visVersion" v:prompt="" v:val="VT0(15):26"/>
			</v:userDefs>
			<v:textBlock v:margins="rect(4,4,4,4)" v:tabSpace="42.5197"/>
			<v:textRect cx="62.3622" cy="310.954" width="124.73" height="22.6772"/>
			<path d="M11.34 322.29 L113.39 322.29 A11.3384 11.3384 -180 0 0 124.72 310.95 A11.3384 11.3384 -180 0 0 113.39 299.62
						 L11.34 299.62 A11.3384 11.3384 -180 0 0 0 310.95 A11.3384 11.3384 -180 0 0 11.34 322.29 Z" class="st1"/>
			<text x="42.51" y="313.65" class="st3" v:langID="1033"><v:paragraph v:horizAlign="1"/><v:tabList/>Descargar</text>		</g>
		<g id="shape551-142" v:mID="551" v:groupContext="shape" v:layerMember="0" transform="translate(216.969,-47.6009)">
			<title>Dynamic connector.551</title>
			<v:userDefs>
				<v:ud v:nameU="visVersion" v:val="VT0(15):26"/>
			</v:userDefs>
			<path d="M7.09 322.29 C7.09 324.89 7.09 329.29 7.09 333" class="st7"/>
		</g>
	</g>
</svg>
