<?xml version="1.0" encoding="UTF-8" standalone="no"?>
<!DOCTYPE svg PUBLIC "-//W3C//DTD SVG 1.1//EN" "http://www.w3.org/Graphics/SVG/1.1/DTD/svg11.dtd">
<!-- Generated by Microsoft Visio, SVG Export CNEStationDatasetDownloadFlowchart.svg Page-1 -->
<svg xmlns="http://www.w3.org/2000/svg" xmlns:xlink="http://www.w3.org/1999/xlink" xmlns:ev="http://www.w3.org/2001/xml-events"
		xmlns:v="http://schemas.microsoft.com/visio/2003/SVGExtensions/" width="6.00455in" height="5.00064in"
		viewBox="0 0 432.327 360.046" xml:space="preserve" color-interpolation-filters="sRGB" class="st12">
	<v:documentProperties v:langID="1033" v:metric="true" v:viewMarkup="false"/>

	<style type="text/css">
	<![CDATA[
		.st1 {fill:#f2f2f2;stroke:#fbbc0e;stroke-width:1.5}
		.st2 {fill:#fbbc0e;fill-opacity:1;stroke:#fbbc0e;stroke-opacity:1;stroke-width:0.37313432835821}
		.st3 {fill:#000000;font-family:Segoe UI;font-size:0.75em}
		.st4 {font-size:1em}
		.st5 {marker-end:url(#mrkr6-34);stroke:#7f7f7f;stroke-linecap:round;stroke-linejoin:round;stroke-width:0.5}
		.st6 {fill:#7f7f7f;fill-opacity:1;stroke:#7f7f7f;stroke-opacity:1;stroke-width:0.25773195876289}
		.st7 {marker-end:url(#mrkr6-40);stroke:#7f7f7f;stroke-linecap:round;stroke-linejoin:round;stroke-width:0.5}
		.st8 {fill:#ffffff;stroke:none;stroke-linecap:butt;stroke-width:7.2}
		.st9 {fill:#3d64ac;font-family:Segoe UI;font-size:0.499992em}
		.st10 {fill:#f2f2f2;stroke:#696368;stroke-width:1.5}
		.st11 {fill:#696368;fill-opacity:1;stroke:#696368;stroke-opacity:1;stroke-width:0.37313432835821}
		.st12 {fill:none;fill-rule:evenodd;font-size:12px;overflow:visible;stroke-linecap:square;stroke-miterlimit:3}
	]]>
	</style>

	<defs id="Markers">
		<g id="lend6">
			<path d="M 2 1 L 0 0 L 2.01237 -1.00641 C 2.32921 -0.372876 2.32921 0.372869 2.01238 1.0064 " style="stroke:none"/>
		</g>
		<marker id="mrkr6-4" class="st2" v:arrowType="6" v:arrowSize="2" v:setback="6.03" refX="6.03" orient="auto"
				markerUnits="strokeWidth" overflow="visible">
			<use xlink:href="#lend6" transform="scale(2.68) "/>
		</marker>
		<marker id="mrkr6-34" class="st6" v:arrowType="6" v:arrowSize="0" v:setback="8.01" refX="-8.01" orient="auto"
				markerUnits="strokeWidth" overflow="visible">
			<use xlink:href="#lend6" transform="scale(-3.88,-3.88) "/>
		</marker>
		<marker id="mrkr6-40" class="st6" v:arrowType="6" v:arrowSize="0" v:setback="8.73" refX="-8.73" orient="auto"
				markerUnits="strokeWidth" overflow="visible">
			<use xlink:href="#lend6" transform="scale(-3.88,-3.88) "/>
		</marker>
		<marker id="mrkr6-150" class="st11" v:arrowType="6" v:arrowSize="2" v:setback="6.03" refX="6.03" orient="auto"
				markerUnits="strokeWidth" overflow="visible">
			<use xlink:href="#lend6" transform="scale(2.68) "/>
		</marker>
	</defs>
	<g v:mID="0" v:index="1" v:groupContext="foregroundPage">
		<title>Page-1</title>
		<v:pageProperties v:drawingScale="0.0393701" v:pageScale="0.0393701" v:drawingUnits="24" v:shadowOffsetX="8.50394"
				v:shadowOffsetY="-8.50394"/>
		<v:layer v:name="Connector" v:index="0"/>
		<v:layer v:name="Flowchart" v:index="1"/>
		<g id="shape522-1" v:mID="522" v:groupContext="shape" transform="translate(161.693,-327.522)">
			<title>Rounded Rectangle.522</title>
			<desc>https://dhime.ideam.gov.co/</desc>
			<v:userDefs>
				<v:ud v:nameU="CTypeTopLeftSnip" v:prompt="" v:val="VT0(0):5"/>
				<v:ud v:nameU="CTypeTopRightSnip" v:prompt="" v:val="VT0(0):5"/>
				<v:ud v:nameU="CTypeBotLeftSnip" v:prompt="" v:val="VT0(0):5"/>
				<v:ud v:nameU="CTypeBotRightSnip" v:prompt="" v:val="VT0(0):5"/>
				<v:ud v:nameU="CornerLockHoriz" v:prompt="" v:val="VT0(1):5"/>
				<v:ud v:nameU="CornerLockVert" v:prompt="" v:val="VT0(1):5"/>
				<v:ud v:nameU="CornerLockDiag" v:prompt="" v:val="VT0(0):5"/>
				<v:ud v:nameU="TopLeftOffset" v:prompt="" v:val="VT0(0.15748031496063):24"/>
				<v:ud v:nameU="TopRightOffset" v:prompt="" v:val="VT0(0.15748031496063):24"/>
				<v:ud v:nameU="BotLeftOffset" v:prompt="" v:val="VT0(0.15748031496063):24"/>
				<v:ud v:nameU="BotRightOffset" v:prompt="" v:val="VT0(0.15748031496063):24"/>
				<v:ud v:nameU="visVersion" v:prompt="" v:val="VT0(15):26"/>
			</v:userDefs>
			<v:textBlock v:margins="rect(4,4,4,4)" v:tabSpace="42.5197"/>
			<v:textRect cx="62.3622" cy="348.708" width="124.73" height="22.6772"/>
			<path d="M11.34 360.05 L113.39 360.05 A11.3384 11.3384 -180 0 0 124.72 348.71 A11.3384 11.3384 -180 0 0 113.39 337.37
						 L11.34 337.37 A11.3384 11.3384 -180 0 0 0 348.71 A11.3384 11.3384 -180 0 0 11.34 360.05 Z" class="st1"/>
			<text x="6.12" y="351.41" class="st3" v:langID="1033"><v:paragraph v:horizAlign="1"/><v:tabList/>https://dhime.ideam.gov.co/</text>		</g>
		<g id="shape523-6" v:mID="523" v:groupContext="shape" transform="translate(25.6299,-294.924)">
			<title>Rounded Rectangle.523</title>
			<desc>Fecha inicial 31/12/1899</desc>
			<v:userDefs>
				<v:ud v:nameU="CTypeTopLeftSnip" v:prompt="" v:val="VT0(0):5"/>
				<v:ud v:nameU="CTypeTopRightSnip" v:prompt="" v:val="VT0(0):5"/>
				<v:ud v:nameU="CTypeBotLeftSnip" v:prompt="" v:val="VT0(0):5"/>
				<v:ud v:nameU="CTypeBotRightSnip" v:prompt="" v:val="VT0(0):5"/>
				<v:ud v:nameU="CornerLockHoriz" v:prompt="" v:val="VT0(1):5"/>
				<v:ud v:nameU="CornerLockVert" v:prompt="" v:val="VT0(1):5"/>
				<v:ud v:nameU="CornerLockDiag" v:prompt="" v:val="VT0(0):5"/>
				<v:ud v:nameU="TopLeftOffset" v:prompt="" v:val="VT0(0.15748031496063):24"/>
				<v:ud v:nameU="TopRightOffset" v:prompt="" v:val="VT0(0.15748031496063):24"/>
				<v:ud v:nameU="BotLeftOffset" v:prompt="" v:val="VT0(0.15748031496063):24"/>
				<v:ud v:nameU="BotRightOffset" v:prompt="" v:val="VT0(0.15748031496063):24"/>
				<v:ud v:nameU="visVersion" v:prompt="" v:val="VT0(15):26"/>
			</v:userDefs>
			<v:textBlock v:margins="rect(4,4,4,4)" v:tabSpace="42.5197"/>
			<v:textRect cx="62.3622" cy="348.708" width="124.73" height="22.6772"/>
			<path d="M11.34 360.05 L113.39 360.05 A11.3384 11.3384 -180 0 0 124.72 348.71 A11.3384 11.3384 -180 0 0 113.39 337.37
						 L11.34 337.37 A11.3384 11.3384 -180 0 0 0 348.71 A11.3384 11.3384 -180 0 0 11.34 360.05 Z" class="st1"/>
			<text x="38.39" y="346.01" class="st3" v:langID="1033"><v:paragraph v:horizAlign="1"/><v:tabList/>Fecha inicial<v:newlineChar/><tspan
						x="39.45" dy="1.2em" class="st4">31/12/1899</tspan></text>		</g>
		<g id="shape524-11" v:mID="524" v:groupContext="shape" transform="translate(161.693,-294.924)">
			<title>Rounded Rectangle.524</title>
			<desc>Fecha final 01/01/yyyy</desc>
			<v:userDefs>
				<v:ud v:nameU="CTypeTopLeftSnip" v:prompt="" v:val="VT0(0):5"/>
				<v:ud v:nameU="CTypeTopRightSnip" v:prompt="" v:val="VT0(0):5"/>
				<v:ud v:nameU="CTypeBotLeftSnip" v:prompt="" v:val="VT0(0):5"/>
				<v:ud v:nameU="CTypeBotRightSnip" v:prompt="" v:val="VT0(0):5"/>
				<v:ud v:nameU="CornerLockHoriz" v:prompt="" v:val="VT0(1):5"/>
				<v:ud v:nameU="CornerLockVert" v:prompt="" v:val="VT0(1):5"/>
				<v:ud v:nameU="CornerLockDiag" v:prompt="" v:val="VT0(0):5"/>
				<v:ud v:nameU="TopLeftOffset" v:prompt="" v:val="VT0(0.15748031496063):24"/>
				<v:ud v:nameU="TopRightOffset" v:prompt="" v:val="VT0(0.15748031496063):24"/>
				<v:ud v:nameU="BotLeftOffset" v:prompt="" v:val="VT0(0.15748031496063):24"/>
				<v:ud v:nameU="BotRightOffset" v:prompt="" v:val="VT0(0.15748031496063):24"/>
				<v:ud v:nameU="visVersion" v:prompt="" v:val="VT0(15):26"/>
			</v:userDefs>
			<v:textBlock v:margins="rect(4,4,4,4)" v:tabSpace="42.5197"/>
			<v:textRect cx="62.3622" cy="348.708" width="124.73" height="22.6772"/>
			<path d="M11.34 360.05 L113.39 360.05 A11.3384 11.3384 -180 0 0 124.72 348.71 A11.3384 11.3384 -180 0 0 113.39 337.37
						 L11.34 337.37 A11.3384 11.3384 -180 0 0 0 348.71 A11.3384 11.3384 -180 0 0 11.34 360.05 Z" class="st1"/>
			<text x="41.24" y="346.01" class="st3" v:langID="1033"><v:paragraph v:horizAlign="1"/><v:tabList/>Fecha final<v:newlineChar/><tspan
						x="40.44" dy="1.2em" class="st4">01/01/yyyy</tspan></text>		</g>
		<g id="shape525-16" v:mID="525" v:groupContext="shape" transform="translate(297.756,-294.924)">
			<title>Rounded Rectangle.525</title>
			<desc>Serie Estándar</desc>
			<v:userDefs>
				<v:ud v:nameU="CTypeTopLeftSnip" v:prompt="" v:val="VT0(0):5"/>
				<v:ud v:nameU="CTypeTopRightSnip" v:prompt="" v:val="VT0(0):5"/>
				<v:ud v:nameU="CTypeBotLeftSnip" v:prompt="" v:val="VT0(0):5"/>
				<v:ud v:nameU="CTypeBotRightSnip" v:prompt="" v:val="VT0(0):5"/>
				<v:ud v:nameU="CornerLockHoriz" v:prompt="" v:val="VT0(1):5"/>
				<v:ud v:nameU="CornerLockVert" v:prompt="" v:val="VT0(1):5"/>
				<v:ud v:nameU="CornerLockDiag" v:prompt="" v:val="VT0(0):5"/>
				<v:ud v:nameU="TopLeftOffset" v:prompt="" v:val="VT0(0.15748031496063):24"/>
				<v:ud v:nameU="TopRightOffset" v:prompt="" v:val="VT0(0.15748031496063):24"/>
				<v:ud v:nameU="BotLeftOffset" v:prompt="" v:val="VT0(0.15748031496063):24"/>
				<v:ud v:nameU="BotRightOffset" v:prompt="" v:val="VT0(0.15748031496063):24"/>
				<v:ud v:nameU="visVersion" v:prompt="" v:val="VT0(15):26"/>
			</v:userDefs>
			<v:textBlock v:margins="rect(4,4,4,4)" v:tabSpace="42.5197"/>
			<v:textRect cx="62.3622" cy="348.708" width="124.73" height="22.6772"/>
			<path d="M11.34 360.05 L113.39 360.05 A11.3384 11.3384 -180 0 0 124.72 348.71 A11.3384 11.3384 -180 0 0 113.39 337.37
						 L11.34 337.37 A11.3384 11.3384 -180 0 0 0 348.71 A11.3384 11.3384 -180 0 0 11.34 360.05 Z" class="st1"/>
			<text x="34.33" y="351.41" class="st3" v:langID="1033"><v:paragraph v:horizAlign="1"/><v:tabList/>Serie Estándar</text>		</g>
		<g id="shape526-20" v:mID="526" v:groupContext="shape" transform="translate(297.756,-263.034)">
			<title>Rounded Rectangle.526</title>
			<desc>Parámetro hidroclimatológico</desc>
			<v:userDefs>
				<v:ud v:nameU="CTypeTopLeftSnip" v:prompt="" v:val="VT0(0):5"/>
				<v:ud v:nameU="CTypeTopRightSnip" v:prompt="" v:val="VT0(0):5"/>
				<v:ud v:nameU="CTypeBotLeftSnip" v:prompt="" v:val="VT0(0):5"/>
				<v:ud v:nameU="CTypeBotRightSnip" v:prompt="" v:val="VT0(0):5"/>
				<v:ud v:nameU="CornerLockHoriz" v:prompt="" v:val="VT0(1):5"/>
				<v:ud v:nameU="CornerLockVert" v:prompt="" v:val="VT0(1):5"/>
				<v:ud v:nameU="CornerLockDiag" v:prompt="" v:val="VT0(0):5"/>
				<v:ud v:nameU="TopLeftOffset" v:prompt="" v:val="VT0(0.15748031496063):24"/>
				<v:ud v:nameU="TopRightOffset" v:prompt="" v:val="VT0(0.15748031496063):24"/>
				<v:ud v:nameU="BotLeftOffset" v:prompt="" v:val="VT0(0.15748031496063):24"/>
				<v:ud v:nameU="BotRightOffset" v:prompt="" v:val="VT0(0.15748031496063):24"/>
				<v:ud v:nameU="visVersion" v:prompt="" v:val="VT0(15):26"/>
			</v:userDefs>
			<v:textBlock v:margins="rect(4,4,4,4)" v:tabSpace="42.5197"/>
			<v:textRect cx="62.3622" cy="348.708" width="124.73" height="22.6772"/>
			<path d="M11.34 360.05 L113.39 360.05 A11.3384 11.3384 -180 0 0 124.72 348.71 A11.3384 11.3384 -180 0 0 113.39 337.37
						 L11.34 337.37 A11.3384 11.3384 -180 0 0 0 348.71 A11.3384 11.3384 -180 0 0 11.34 360.05 Z" class="st1"/>
			<text x="41.74" y="346.01" class="st3" v:langID="1033"><v:paragraph v:horizAlign="1"/><v:tabList/>Parámetro <tspan
						x="25.11" dy="1.2em" class="st4">hidroclimatológico</tspan></text>		</g>
		<g id="shape527-25" v:mID="527" v:groupContext="shape" transform="translate(161.693,-263.034)">
			<title>Rounded Rectangle.527</title>
			<desc>Variable / Lista completa</desc>
			<v:userDefs>
				<v:ud v:nameU="CTypeTopLeftSnip" v:prompt="" v:val="VT0(0):5"/>
				<v:ud v:nameU="CTypeTopRightSnip" v:prompt="" v:val="VT0(0):5"/>
				<v:ud v:nameU="CTypeBotLeftSnip" v:prompt="" v:val="VT0(0):5"/>
				<v:ud v:nameU="CTypeBotRightSnip" v:prompt="" v:val="VT0(0):5"/>
				<v:ud v:nameU="CornerLockHoriz" v:prompt="" v:val="VT0(1):5"/>
				<v:ud v:nameU="CornerLockVert" v:prompt="" v:val="VT0(1):5"/>
				<v:ud v:nameU="CornerLockDiag" v:prompt="" v:val="VT0(0):5"/>
				<v:ud v:nameU="TopLeftOffset" v:prompt="" v:val="VT0(0.15748031496063):24"/>
				<v:ud v:nameU="TopRightOffset" v:prompt="" v:val="VT0(0.15748031496063):24"/>
				<v:ud v:nameU="BotLeftOffset" v:prompt="" v:val="VT0(0.15748031496063):24"/>
				<v:ud v:nameU="BotRightOffset" v:prompt="" v:val="VT0(0.15748031496063):24"/>
				<v:ud v:nameU="visVersion" v:prompt="" v:val="VT0(15):26"/>
			</v:userDefs>
			<v:textBlock v:margins="rect(4,4,4,4)" v:tabSpace="42.5197"/>
			<v:textRect cx="62.3622" cy="348.708" width="124.73" height="22.6772"/>
			<path d="M11.34 360.05 L113.39 360.05 A11.3384 11.3384 -180 0 0 124.72 348.71 A11.3384 11.3384 -180 0 0 113.39 337.37
						 L11.34 337.37 A11.3384 11.3384 -180 0 0 0 348.71 A11.3384 11.3384 -180 0 0 11.34 360.05 Z" class="st1"/>
			<text x="13.37" y="351.41" class="st3" v:langID="1033"><v:paragraph v:horizAlign="1"/><v:tabList/>Variable / Lista completa</text>		</g>
		<g id="shape529-29" v:mID="529" v:groupContext="shape" v:layerMember="0" transform="translate(161.693,-338.861)">
			<title>Dynamic connector.529</title>
			<v:userDefs>
				<v:ud v:nameU="visVersion" v:val="VT0(15):26"/>
			</v:userDefs>
			<path d="M0 360.05 C-18.43 360.05 -49.39 360.05 -63 365.05 C-70.95 367.97 -72.99 372.58 -73.52 376.94 L-73.53 377.3"
					class="st5"/>
		</g>
		<g id="shape530-35" v:mID="530" v:groupContext="shape" v:layerMember="0" transform="translate(148.937,-299.176)">
			<title>Dynamic connector.530</title>
			<v:userDefs>
				<v:ud v:nameU="visVersion" v:val="VT0(15):26"/>
			</v:userDefs>
			<path d="M1.42 352.96 C3.13 352.96 5.86 352.96 8.39 352.96" class="st7"/>
		</g>
		<g id="shape531-41" v:mID="531" v:groupContext="shape" v:layerMember="0" transform="translate(285,-299.176)">
			<title>Dynamic connector.531</title>
			<v:userDefs>
				<v:ud v:nameU="visVersion" v:val="VT0(15):26"/>
			</v:userDefs>
			<path d="M1.42 352.96 C3.13 352.96 5.86 352.96 8.39 352.96" class="st7"/>
		</g>
		<g id="shape532-46" v:mID="532" v:groupContext="shape" v:layerMember="0" transform="translate(353.032,-297.404)">
			<title>Dynamic connector.532</title>
			<v:userDefs>
				<v:ud v:nameU="visVersion" v:val="VT0(15):26"/>
			</v:userDefs>
			<path d="M7.09 362.53 C7.09 363.73 7.09 365.57 7.09 367.37" class="st7"/>
		</g>
		<g id="shape533-51" v:mID="533" v:groupContext="shape" v:layerMember="0" transform="translate(299.173,-267.286)">
			<title>Dynamic connector.533</title>
			<v:userDefs>
				<v:ud v:nameU="visVersion" v:val="VT0(15):26"/>
			</v:userDefs>
			<path d="M-1.42 352.96 C-3.13 352.96 -5.86 352.96 -8.39 352.96" class="st7"/>
		</g>
		<g id="shape534-56" v:mID="534" v:groupContext="shape" transform="translate(25.6299,-263.034)">
			<title>Rounded Rectangle.534</title>
			<desc>Departamento</desc>
			<v:userDefs>
				<v:ud v:nameU="CTypeTopLeftSnip" v:prompt="" v:val="VT0(0):5"/>
				<v:ud v:nameU="CTypeTopRightSnip" v:prompt="" v:val="VT0(0):5"/>
				<v:ud v:nameU="CTypeBotLeftSnip" v:prompt="" v:val="VT0(0):5"/>
				<v:ud v:nameU="CTypeBotRightSnip" v:prompt="" v:val="VT0(0):5"/>
				<v:ud v:nameU="CornerLockHoriz" v:prompt="" v:val="VT0(1):5"/>
				<v:ud v:nameU="CornerLockVert" v:prompt="" v:val="VT0(1):5"/>
				<v:ud v:nameU="CornerLockDiag" v:prompt="" v:val="VT0(0):5"/>
				<v:ud v:nameU="TopLeftOffset" v:prompt="" v:val="VT0(0.15748031496063):24"/>
				<v:ud v:nameU="TopRightOffset" v:prompt="" v:val="VT0(0.15748031496063):24"/>
				<v:ud v:nameU="BotLeftOffset" v:prompt="" v:val="VT0(0.15748031496063):24"/>
				<v:ud v:nameU="BotRightOffset" v:prompt="" v:val="VT0(0.15748031496063):24"/>
				<v:ud v:nameU="visVersion" v:prompt="" v:val="VT0(15):26"/>
			</v:userDefs>
			<v:textBlock v:margins="rect(4,4,4,4)" v:tabSpace="42.5197"/>
			<v:textRect cx="62.3622" cy="348.708" width="124.73" height="22.6772"/>
			<path d="M11.34 360.05 L113.39 360.05 A11.3384 11.3384 -180 0 0 124.72 348.71 A11.3384 11.3384 -180 0 0 113.39 337.37
						 L11.34 337.37 A11.3384 11.3384 -180 0 0 0 348.71 A11.3384 11.3384 -180 0 0 11.34 360.05 Z" class="st1"/>
			<text x="33.6" y="351.41" class="st3" v:langID="1033"><v:paragraph v:horizAlign="1"/><v:tabList/>Departamento</text>		</g>
		<g id="shape535-60" v:mID="535" v:groupContext="shape" transform="translate(25.6299,-229.018)">
			<title>Rounded Rectangle.535</title>
			<desc>Municipio / Todo</desc>
			<v:userDefs>
				<v:ud v:nameU="CTypeTopLeftSnip" v:prompt="" v:val="VT0(0):5"/>
				<v:ud v:nameU="CTypeTopRightSnip" v:prompt="" v:val="VT0(0):5"/>
				<v:ud v:nameU="CTypeBotLeftSnip" v:prompt="" v:val="VT0(0):5"/>
				<v:ud v:nameU="CTypeBotRightSnip" v:prompt="" v:val="VT0(0):5"/>
				<v:ud v:nameU="CornerLockHoriz" v:prompt="" v:val="VT0(1):5"/>
				<v:ud v:nameU="CornerLockVert" v:prompt="" v:val="VT0(1):5"/>
				<v:ud v:nameU="CornerLockDiag" v:prompt="" v:val="VT0(0):5"/>
				<v:ud v:nameU="TopLeftOffset" v:prompt="" v:val="VT0(0.15748031496063):24"/>
				<v:ud v:nameU="TopRightOffset" v:prompt="" v:val="VT0(0.15748031496063):24"/>
				<v:ud v:nameU="BotLeftOffset" v:prompt="" v:val="VT0(0.15748031496063):24"/>
				<v:ud v:nameU="BotRightOffset" v:prompt="" v:val="VT0(0.15748031496063):24"/>
				<v:ud v:nameU="visVersion" v:prompt="" v:val="VT0(15):26"/>
			</v:userDefs>
			<v:textBlock v:margins="rect(4,4,4,4)" v:tabSpace="42.5197"/>
			<v:textRect cx="62.3622" cy="348.708" width="124.73" height="22.6772"/>
			<path d="M11.34 360.05 L113.39 360.05 A11.3384 11.3384 -180 0 0 124.72 348.71 A11.3384 11.3384 -180 0 0 113.39 337.37
						 L11.34 337.37 A11.3384 11.3384 -180 0 0 0 348.71 A11.3384 11.3384 -180 0 0 11.34 360.05 Z" class="st1"/>
			<text x="28.1" y="351.41" class="st3" v:langID="1033"><v:paragraph v:horizAlign="1"/><v:tabList/>Municipio / Todo</text>		</g>
		<g id="shape536-64" v:mID="536" v:groupContext="shape" v:layerMember="0" transform="translate(163.11,-267.286)">
			<title>Dynamic connector.536</title>
			<v:userDefs>
				<v:ud v:nameU="visVersion" v:val="VT0(15):26"/>
			</v:userDefs>
			<path d="M-1.42 352.96 C-3.13 352.96 -5.86 352.96 -8.39 352.96" class="st7"/>
		</g>
		<g id="shape537-69" v:mID="537" v:groupContext="shape" v:layerMember="0" transform="translate(80.9055,-264.451)">
			<title>Dynamic connector.537</title>
			<v:userDefs>
				<v:ud v:nameU="visVersion" v:val="VT0(15):26"/>
			</v:userDefs>
			<path d="M7.09 361.46 C7.09 363.17 7.09 365.91 7.09 368.44" class="st7"/>
		</g>
		<g id="shape538-74" v:mID="538" v:groupContext="shape" transform="translate(161.693,-229.018)">
			<title>Rounded Rectangle.538</title>
			<desc>Buscar / Seleccionar estación</desc>
			<v:userDefs>
				<v:ud v:nameU="CTypeTopLeftSnip" v:prompt="" v:val="VT0(0):5"/>
				<v:ud v:nameU="CTypeTopRightSnip" v:prompt="" v:val="VT0(0):5"/>
				<v:ud v:nameU="CTypeBotLeftSnip" v:prompt="" v:val="VT0(0):5"/>
				<v:ud v:nameU="CTypeBotRightSnip" v:prompt="" v:val="VT0(0):5"/>
				<v:ud v:nameU="CornerLockHoriz" v:prompt="" v:val="VT0(1):5"/>
				<v:ud v:nameU="CornerLockVert" v:prompt="" v:val="VT0(1):5"/>
				<v:ud v:nameU="CornerLockDiag" v:prompt="" v:val="VT0(0):5"/>
				<v:ud v:nameU="TopLeftOffset" v:prompt="" v:val="VT0(0.15748031496063):24"/>
				<v:ud v:nameU="TopRightOffset" v:prompt="" v:val="VT0(0.15748031496063):24"/>
				<v:ud v:nameU="BotLeftOffset" v:prompt="" v:val="VT0(0.15748031496063):24"/>
				<v:ud v:nameU="BotRightOffset" v:prompt="" v:val="VT0(0.15748031496063):24"/>
				<v:ud v:nameU="visVersion" v:prompt="" v:val="VT0(15):26"/>
			</v:userDefs>
			<v:textBlock v:margins="rect(4,4,4,4)" v:tabSpace="42.5197"/>
			<v:textRect cx="62.3622" cy="348.708" width="124.73" height="22.6772"/>
			<path d="M11.34 360.05 L113.39 360.05 A11.3384 11.3384 -180 0 0 124.72 348.71 A11.3384 11.3384 -180 0 0 113.39 337.37
						 L11.34 337.37 A11.3384 11.3384 -180 0 0 0 348.71 A11.3384 11.3384 -180 0 0 11.34 360.05 Z" class="st1"/>
			<text x="5.04" y="351.41" class="st3" v:langID="1033"><v:paragraph v:horizAlign="1"/><v:tabList/>Buscar / Seleccionar estación</text>		</g>
		<g id="shape539-78" v:mID="539" v:groupContext="shape" v:layerMember="0" transform="translate(148.937,-233.27)">
			<title>Dynamic connector.539</title>
			<v:userDefs>
				<v:ud v:nameU="visVersion" v:val="VT0(15):26"/>
			</v:userDefs>
			<path d="M1.42 352.96 C3.13 352.96 5.86 352.96 8.39 352.96" class="st7"/>
		</g>
		<g id="shape540-83" v:mID="540" v:groupContext="shape" v:layerMember="1" transform="translate(185.079,-123.108)">
			<title>Decision 2.540</title>
			<desc>n &#60;= 10</desc>
			<v:custProps>
				<v:cp v:nameU="Cost" v:lbl="Cost" v:type="7" v:format="@" v:langID="1033"/>
				<v:cp v:nameU="Duration" v:lbl="Duration" v:type="2" v:langID="1033"/>
				<v:cp v:nameU="Resources" v:lbl="Resources" v:langID="1033"/>
			</v:custProps>
			<v:userDefs>
				<v:ud v:nameU="visVersion" v:val="VT0(15):26"/>
			</v:userDefs>
			<v:textBlock v:margins="rect(4,4,4,4)" v:tabSpace="42.5197"/>
			<v:textRect cx="38.9764" cy="339.922" width="58.47" height="35.2177"/>
			<path d="M0 339.92 L38.98 319.8 L77.95 339.92 L38.98 360.05 L0 339.92 Z" class="st1"/>
			<text x="22.96" y="342.62" class="st3" v:langID="1033"><v:paragraph v:horizAlign="1"/><v:tabList/>n &#60;= 10</text>		</g>
		<g id="shape541-87" v:mID="541" v:groupContext="shape" v:layerMember="0" transform="translate(216.969,-230.937)">
			<title>Dynamic connector.541</title>
			<v:userDefs>
				<v:ud v:nameU="visVersion" v:val="VT0(15):26"/>
			</v:userDefs>
			<path d="M7.09 361.97 C7.09 363.44 7.09 365.74 7.09 367.94" class="st7"/>
		</g>
		<g id="shape542-92" v:mID="542" v:groupContext="shape" v:layerMember="0" transform="translate(216.969,-123.108)">
			<title>Dynamic connector.542</title>
			<desc>N</desc>
			<v:userDefs>
				<v:ud v:nameU="visVersion" v:val="VT0(15):26"/>
			</v:userDefs>
			<v:textBlock v:margins="rect(4,4,4,4)" v:tabSpace="42.5197"/>
			<v:textRect cx="7.08661" cy="367.585" width="30" height="15.2035"/>
			<path d="M7.09 360.05 C7.09 362.65 7.09 367.04 7.09 370.76" class="st7"/>
			<rect v:rectContext="textBkgnd" x="4.84257" y="363.985" width="4.48819" height="7.20016" class="st8"/>
			<text x="4.84" y="369.39" class="st9" v:langID="1033"><v:paragraph v:horizAlign="1"/><v:tabList/>N</text>		</g>
		<g id="shape543-99" v:mID="543" v:groupContext="shape" v:layerMember="1" transform="translate(185.079,-178.434)">
			<title>Decision 2.543</title>
			<desc>Mismo Depto.</desc>
			<v:custProps>
				<v:cp v:nameU="Cost" v:lbl="Cost" v:type="7" v:format="@" v:langID="1033"/>
				<v:cp v:nameU="Duration" v:lbl="Duration" v:type="2" v:langID="1033"/>
				<v:cp v:nameU="Resources" v:lbl="Resources" v:langID="1033"/>
			</v:custProps>
			<v:userDefs>
				<v:ud v:nameU="visVersion" v:val="VT0(15):26"/>
			</v:userDefs>
			<v:textBlock v:margins="rect(4,4,4,4)" v:tabSpace="42.5197"/>
			<v:textRect cx="38.9764" cy="339.922" width="58.47" height="35.2177"/>
			<path d="M0 339.92 L38.98 319.8 L77.95 339.92 L38.98 360.05 L0 339.92 Z" class="st1"/>
			<text x="25.42" y="337.22" class="st3" v:langID="1033"><v:paragraph v:horizAlign="1"/><v:tabList/>Mismo <tspan
						x="25.69" dy="1.2em" class="st4">Depto.</tspan></text>		</g>
		<g id="shape544-104" v:mID="544" v:groupContext="shape" v:layerMember="0" transform="translate(185.079,-191.472)">
			<title>Dynamic connector.544</title>
			<desc>N</desc>
			<v:userDefs>
				<v:ud v:nameU="visVersion" v:val="VT0(15):26"/>
			</v:userDefs>
			<v:textBlock v:margins="rect(4,4,4,4)" v:tabSpace="42.5197"/>
			<v:textRect cx="-17.3622" cy="352.96" width="30" height="15.2035"/>
			<path d="M0 352.96 C-7.4 352.96 -21.1 352.96 -30.36 352.96" class="st7"/>
			<rect v:rectContext="textBkgnd" x="-19.6063" y="349.36" width="4.48819" height="7.20016" class="st8"/>
			<text x="-19.61" y="354.76" class="st9" v:langID="1033"><v:paragraph v:horizAlign="1"/><v:tabList/>N</text>		</g>
		<g id="shape545-111" v:mID="545" v:groupContext="shape" v:layerMember="0" transform="translate(263.032,-143.233)">
			<title>Dynamic connector.545</title>
			<desc>S</desc>
			<v:userDefs>
				<v:ud v:nameU="visVersion" v:val="VT0(15):26"/>
			</v:userDefs>
			<v:textBlock v:margins="rect(4,4,4,4)" v:tabSpace="42.5197"/>
			<v:textRect cx="33.9451" cy="319.709" width="30" height="15.2035"/>
			<path d="M0 360.05 C34.02 360.05 34.02 335.14 34.02 310.22 C34.02 290.11 34.02 270 27.48 264.43 L27.14 264.31"
					class="st5"/>
			<rect v:rectContext="textBkgnd" x="32.3514" y="316.109" width="3.18741" height="7.20016" class="st8"/>
			<text x="32.35" y="321.51" class="st9" v:langID="1033"><v:paragraph v:horizAlign="1"/><v:tabList/>S</text>		</g>
		<g id="shape546-118" v:mID="546" v:groupContext="shape" v:layerMember="0" transform="translate(216.969,-178.434)">
			<title>Dynamic connector.546</title>
			<desc>S</desc>
			<v:userDefs>
				<v:ud v:nameU="visVersion" v:val="VT0(15):26"/>
			</v:userDefs>
			<v:textBlock v:margins="rect(4,4,4,4)" v:tabSpace="42.5197"/>
			<v:textRect cx="7.08661" cy="367.585" width="30" height="15.2035"/>
			<path d="M7.09 360.05 C7.09 362.65 7.09 367.04 7.09 370.76" class="st7"/>
			<rect v:rectContext="textBkgnd" x="5.49296" y="363.985" width="3.18741" height="7.20016" class="st8"/>
			<text x="5.49" y="369.39" class="st9" v:langID="1033"><v:paragraph v:horizAlign="1"/><v:tabList/>S</text>		</g>
		<g id="shape547-125" v:mID="547" v:groupContext="shape" transform="translate(161.693,-85.3547)">
			<title>Rounded Rectangle.547</title>
			<desc>Agregar a la consulta</desc>
			<v:userDefs>
				<v:ud v:nameU="CTypeTopLeftSnip" v:prompt="" v:val="VT0(0):5"/>
				<v:ud v:nameU="CTypeTopRightSnip" v:prompt="" v:val="VT0(0):5"/>
				<v:ud v:nameU="CTypeBotLeftSnip" v:prompt="" v:val="VT0(0):5"/>
				<v:ud v:nameU="CTypeBotRightSnip" v:prompt="" v:val="VT0(0):5"/>
				<v:ud v:nameU="CornerLockHoriz" v:prompt="" v:val="VT0(1):5"/>
				<v:ud v:nameU="CornerLockVert" v:prompt="" v:val="VT0(1):5"/>
				<v:ud v:nameU="CornerLockDiag" v:prompt="" v:val="VT0(0):5"/>
				<v:ud v:nameU="TopLeftOffset" v:prompt="" v:val="VT0(0.15748031496063):24"/>
				<v:ud v:nameU="TopRightOffset" v:prompt="" v:val="VT0(0.15748031496063):24"/>
				<v:ud v:nameU="BotLeftOffset" v:prompt="" v:val="VT0(0.15748031496063):24"/>
				<v:ud v:nameU="BotRightOffset" v:prompt="" v:val="VT0(0.15748031496063):24"/>
				<v:ud v:nameU="visVersion" v:prompt="" v:val="VT0(15):26"/>
			</v:userDefs>
			<v:textBlock v:margins="rect(4,4,4,4)" v:tabSpace="42.5197"/>
			<v:textRect cx="62.3622" cy="348.708" width="124.73" height="22.6772"/>
			<path d="M11.34 360.05 L113.39 360.05 A11.3384 11.3384 -180 0 0 124.72 348.71 A11.3384 11.3384 -180 0 0 113.39 337.37
						 L11.34 337.37 A11.3384 11.3384 -180 0 0 0 348.71 A11.3384 11.3384 -180 0 0 11.34 360.05 Z" class="st1"/>
			<text x="20.4" y="351.41" class="st3" v:langID="1033"><v:paragraph v:horizAlign="1"/><v:tabList/>Agregar a la consulta</text>		</g>
		<g id="shape548-129" v:mID="548" v:groupContext="shape" transform="translate(25.6299,-187.22)">
			<title>Rounded Rectangle.548</title>
			<desc>Agregar a la consulta</desc>
			<v:userDefs>
				<v:ud v:nameU="CTypeTopLeftSnip" v:prompt="" v:val="VT0(0):5"/>
				<v:ud v:nameU="CTypeTopRightSnip" v:prompt="" v:val="VT0(0):5"/>
				<v:ud v:nameU="CTypeBotLeftSnip" v:prompt="" v:val="VT0(0):5"/>
				<v:ud v:nameU="CTypeBotRightSnip" v:prompt="" v:val="VT0(0):5"/>
				<v:ud v:nameU="CornerLockHoriz" v:prompt="" v:val="VT0(1):5"/>
				<v:ud v:nameU="CornerLockVert" v:prompt="" v:val="VT0(1):5"/>
				<v:ud v:nameU="CornerLockDiag" v:prompt="" v:val="VT0(0):5"/>
				<v:ud v:nameU="TopLeftOffset" v:prompt="" v:val="VT0(0.15748031496063):24"/>
				<v:ud v:nameU="TopRightOffset" v:prompt="" v:val="VT0(0.15748031496063):24"/>
				<v:ud v:nameU="BotLeftOffset" v:prompt="" v:val="VT0(0.15748031496063):24"/>
				<v:ud v:nameU="BotRightOffset" v:prompt="" v:val="VT0(0.15748031496063):24"/>
				<v:ud v:nameU="visVersion" v:prompt="" v:val="VT0(15):26"/>
			</v:userDefs>
			<v:textBlock v:margins="rect(4,4,4,4)" v:tabSpace="42.5197"/>
			<v:textRect cx="62.3622" cy="348.708" width="124.73" height="22.6772"/>
			<path d="M11.34 360.05 L113.39 360.05 A11.3384 11.3384 -180 0 0 124.72 348.71 A11.3384 11.3384 -180 0 0 113.39 337.37
						 L11.34 337.37 A11.3384 11.3384 -180 0 0 0 348.71 A11.3384 11.3384 -180 0 0 11.34 360.05 Z" class="st1"/>
			<text x="20.4" y="351.41" class="st3" v:langID="1033"><v:paragraph v:horizAlign="1"/><v:tabList/>Agregar a la consulta</text>		</g>
		<g id="shape549-133" v:mID="549" v:groupContext="shape" v:layerMember="0" transform="translate(18.5433,-198.558)">
			<title>Dynamic connector.549</title>
			<v:userDefs>
				<v:ud v:nameU="visVersion" v:val="VT0(15):26"/>
			</v:userDefs>
			<path d="M7.09 360.05 C-3.54 360.05 -3.54 341.09 -3.54 322.14 C-3.54 306.09 -3.54 290.04 2.91 285.5 L3.25 285.4"
					class="st5"/>
		</g>
		<g id="shape550-138" v:mID="550" v:groupContext="shape" transform="translate(161.693,-47.6009)">
			<title>Rounded Rectangle.550</title>
			<desc>Descargar</desc>
			<v:userDefs>
				<v:ud v:nameU="CTypeTopLeftSnip" v:prompt="" v:val="VT0(0):5"/>
				<v:ud v:nameU="CTypeTopRightSnip" v:prompt="" v:val="VT0(0):5"/>
				<v:ud v:nameU="CTypeBotLeftSnip" v:prompt="" v:val="VT0(0):5"/>
				<v:ud v:nameU="CTypeBotRightSnip" v:prompt="" v:val="VT0(0):5"/>
				<v:ud v:nameU="CornerLockHoriz" v:prompt="" v:val="VT0(1):5"/>
				<v:ud v:nameU="CornerLockVert" v:prompt="" v:val="VT0(1):5"/>
				<v:ud v:nameU="CornerLockDiag" v:prompt="" v:val="VT0(0):5"/>
				<v:ud v:nameU="TopLeftOffset" v:prompt="" v:val="VT0(0.15748031496063):24"/>
				<v:ud v:nameU="TopRightOffset" v:prompt="" v:val="VT0(0.15748031496063):24"/>
				<v:ud v:nameU="BotLeftOffset" v:prompt="" v:val="VT0(0.15748031496063):24"/>
				<v:ud v:nameU="BotRightOffset" v:prompt="" v:val="VT0(0.15748031496063):24"/>
				<v:ud v:nameU="visVersion" v:prompt="" v:val="VT0(15):26"/>
			</v:userDefs>
			<v:textBlock v:margins="rect(4,4,4,4)" v:tabSpace="42.5197"/>
			<v:textRect cx="62.3622" cy="348.708" width="124.73" height="22.6772"/>
			<path d="M11.34 360.05 L113.39 360.05 A11.3384 11.3384 -180 0 0 124.72 348.71 A11.3384 11.3384 -180 0 0 113.39 337.37
						 L11.34 337.37 A11.3384 11.3384 -180 0 0 0 348.71 A11.3384 11.3384 -180 0 0 11.34 360.05 Z" class="st1"/>
			<text x="42.51" y="351.41" class="st3" v:langID="1033"><v:paragraph v:horizAlign="1"/><v:tabList/>Descargar</text>		</g>
		<g id="shape551-142" v:mID="551" v:groupContext="shape" v:layerMember="0" transform="translate(216.969,-85.3547)">
			<title>Dynamic connector.551</title>
			<v:userDefs>
				<v:ud v:nameU="visVersion" v:val="VT0(15):26"/>
			</v:userDefs>
			<path d="M7.09 360.05 C7.09 362.65 7.09 367.04 7.09 370.76" class="st7"/>
		</g>
		<g id="shape582-147" v:mID="582" v:groupContext="shape" transform="translate(161.693,-9.84707)">
			<title>Rounded Rectangle.582</title>
			<desc>.zip file</desc>
			<v:userDefs>
				<v:ud v:nameU="CTypeTopLeftSnip" v:prompt="" v:val="VT0(0):5"/>
				<v:ud v:nameU="CTypeTopRightSnip" v:prompt="" v:val="VT0(0):5"/>
				<v:ud v:nameU="CTypeBotLeftSnip" v:prompt="" v:val="VT0(0):5"/>
				<v:ud v:nameU="CTypeBotRightSnip" v:prompt="" v:val="VT0(0):5"/>
				<v:ud v:nameU="CornerLockHoriz" v:prompt="" v:val="VT0(1):5"/>
				<v:ud v:nameU="CornerLockVert" v:prompt="" v:val="VT0(1):5"/>
				<v:ud v:nameU="CornerLockDiag" v:prompt="" v:val="VT0(0):5"/>
				<v:ud v:nameU="TopLeftOffset" v:prompt="" v:val="VT0(0.15748031496063):24"/>
				<v:ud v:nameU="TopRightOffset" v:prompt="" v:val="VT0(0.15748031496063):24"/>
				<v:ud v:nameU="BotLeftOffset" v:prompt="" v:val="VT0(0.15748031496063):24"/>
				<v:ud v:nameU="BotRightOffset" v:prompt="" v:val="VT0(0.15748031496063):24"/>
				<v:ud v:nameU="visVersion" v:prompt="" v:val="VT0(15):26"/>
			</v:userDefs>
			<v:textBlock v:margins="rect(4,4,4,4)" v:tabSpace="42.5197"/>
			<v:textRect cx="62.3622" cy="348.708" width="124.73" height="22.6772"/>
			<path d="M11.34 360.05 L113.39 360.05 A11.3384 11.3384 -180 0 0 124.72 348.71 A11.3384 11.3384 -180 0 0 113.39 337.37
						 L11.34 337.37 A11.3384 11.3384 -180 0 0 0 348.71 A11.3384 11.3384 -180 0 0 11.34 360.05 Z" class="st10"/>
			<text x="48.44" y="351.41" class="st3" v:langID="1033"><v:paragraph v:horizAlign="1"/><v:tabList/>.zip file</text>		</g>
		<g id="shape583-152" v:mID="583" v:groupContext="shape" v:layerMember="0" transform="translate(216.969,-47.6009)">
			<title>Dynamic connector.583</title>
			<v:userDefs>
				<v:ud v:nameU="visVersion" v:val="VT0(15):26"/>
			</v:userDefs>
			<path d="M7.09 360.05 C7.09 362.65 7.09 367.04 7.09 370.76" class="st7"/>
		</g>
	</g>
</svg>
