<?xml version="1.0" encoding="UTF-8" standalone="no"?>
<!DOCTYPE svg PUBLIC "-//W3C//DTD SVG 1.1//EN" "http://www.w3.org/Graphics/SVG/1.1/DTD/svg11.dtd">
<!-- Generated by Microsoft Visio, SVG Export FdrDEMFlowchart.svg Page-1 -->
<svg xmlns="http://www.w3.org/2000/svg" xmlns:xlink="http://www.w3.org/1999/xlink" xmlns:ev="http://www.w3.org/2001/xml-events"
		xmlns:v="http://schemas.microsoft.com/visio/2003/SVGExtensions/" width="5.78884in" height="4.38278in"
		viewBox="0 0 416.797 315.56" xml:space="preserve" color-interpolation-filters="sRGB" class="st14">
	<v:documentProperties v:langID="1033" v:metric="true" v:viewMarkup="false"/>

	<style type="text/css">
	<![CDATA[
		.st1 {fill:#f2f2f2;stroke:#3ea853;stroke-width:1.5}
		.st2 {fill:#3ea853;fill-opacity:1;stroke:#3ea853;stroke-opacity:1;stroke-width:0.37313432835821}
		.st3 {fill:#000000;font-family:Segoe UI;font-size:0.75em}
		.st4 {fill:#f2f2f2;stroke:#ea4d35;stroke-width:1.5}
		.st5 {fill:#ea4d35;fill-opacity:1;stroke:#ea4d35;stroke-opacity:1;stroke-width:0.37313432835821}
		.st6 {font-size:1em}
		.st7 {marker-end:url(#mrkr6-41);stroke:#7f7f7f;stroke-linecap:round;stroke-linejoin:round;stroke-width:0.5}
		.st8 {fill:#7f7f7f;fill-opacity:1;stroke:#7f7f7f;stroke-opacity:1;stroke-width:0.25773195876289}
		.st9 {marker-end:url(#mrkr6-52);stroke:#7f7f7f;stroke-linecap:round;stroke-linejoin:round;stroke-width:0.5}
		.st10 {marker-end:url(#mrkr6-41);stroke:#7f7f7f;stroke-dasharray:3.5,2.5;stroke-linecap:round;stroke-linejoin:round;stroke-width:0.5}
		.st11 {marker-end:url(#mrkr6-52);stroke:#7f7f7f;stroke-dasharray:3.5,2.5;stroke-linecap:round;stroke-linejoin:round;stroke-width:0.5}
		.st12 {fill:#f2f2f2;stroke:#fbbc0e;stroke-width:1.5}
		.st13 {fill:#fbbc0e;fill-opacity:1;stroke:#fbbc0e;stroke-opacity:1;stroke-width:0.37313432835821}
		.st14 {fill:none;fill-rule:evenodd;font-size:12px;overflow:visible;stroke-linecap:square;stroke-miterlimit:3}
	]]>
	</style>

	<defs id="Markers">
		<g id="lend6">
			<path d="M 2 1 L 0 0 L 2.01237 -1.00641 C 2.32921 -0.372876 2.32921 0.372869 2.01238 1.0064 " style="stroke:none"/>
		</g>
		<marker id="mrkr6-4" class="st2" v:arrowType="6" v:arrowSize="2" v:setback="6.03" refX="6.03" orient="auto"
				markerUnits="strokeWidth" overflow="visible">
			<use xlink:href="#lend6" transform="scale(2.68) "/>
		</marker>
		<marker id="mrkr6-17" class="st5" v:arrowType="6" v:arrowSize="2" v:setback="6.03" refX="6.03" orient="auto"
				markerUnits="strokeWidth" overflow="visible">
			<use xlink:href="#lend6" transform="scale(2.68) "/>
		</marker>
		<marker id="mrkr6-41" class="st8" v:arrowType="6" v:arrowSize="0" v:setback="8.01" refX="-8.01" orient="auto"
				markerUnits="strokeWidth" overflow="visible">
			<use xlink:href="#lend6" transform="scale(-3.88,-3.88) "/>
		</marker>
		<marker id="mrkr6-52" class="st8" v:arrowType="6" v:arrowSize="0" v:setback="8.73" refX="-8.73" orient="auto"
				markerUnits="strokeWidth" overflow="visible">
			<use xlink:href="#lend6" transform="scale(-3.88,-3.88) "/>
		</marker>
		<marker id="mrkr6-90" class="st13" v:arrowType="6" v:arrowSize="2" v:setback="6.03" refX="6.03" orient="auto"
				markerUnits="strokeWidth" overflow="visible">
			<use xlink:href="#lend6" transform="scale(2.68) "/>
		</marker>
	</defs>
	<g v:mID="0" v:index="1" v:groupContext="foregroundPage">
		<title>Page-1</title>
		<v:pageProperties v:drawingScale="0.0393701" v:pageScale="0.0393701" v:drawingUnits="24" v:shadowOffsetX="8.50394"
				v:shadowOffsetY="-8.50394"/>
		<v:layer v:name="Connector" v:index="0"/>
		<g id="shape216-1" v:mID="216" v:groupContext="shape" transform="translate(15.382,-283.036)">
			<title>Rounded Rectangle.216</title>
			<desc>ASTER FilDEM</desc>
			<v:userDefs>
				<v:ud v:nameU="CTypeTopLeftSnip" v:prompt="" v:val="VT0(0):5"/>
				<v:ud v:nameU="CTypeTopRightSnip" v:prompt="" v:val="VT0(0):5"/>
				<v:ud v:nameU="CTypeBotLeftSnip" v:prompt="" v:val="VT0(0):5"/>
				<v:ud v:nameU="CTypeBotRightSnip" v:prompt="" v:val="VT0(0):5"/>
				<v:ud v:nameU="CornerLockHoriz" v:prompt="" v:val="VT0(1):5"/>
				<v:ud v:nameU="CornerLockVert" v:prompt="" v:val="VT0(1):5"/>
				<v:ud v:nameU="CornerLockDiag" v:prompt="" v:val="VT0(0):5"/>
				<v:ud v:nameU="TopLeftOffset" v:prompt="" v:val="VT0(0.15748031496063):24"/>
				<v:ud v:nameU="TopRightOffset" v:prompt="" v:val="VT0(0.15748031496063):24"/>
				<v:ud v:nameU="BotLeftOffset" v:prompt="" v:val="VT0(0.15748031496063):24"/>
				<v:ud v:nameU="BotRightOffset" v:prompt="" v:val="VT0(0.15748031496063):24"/>
				<v:ud v:nameU="visVersion" v:prompt="" v:val="VT0(15):26"/>
			</v:userDefs>
			<v:textBlock v:margins="rect(4,4,4,4)" v:tabSpace="42.5197"/>
			<v:textRect cx="62.3622" cy="304.222" width="124.73" height="22.6772"/>
			<path d="M11.34 315.56 L113.39 315.56 A11.3384 11.3384 -180 0 0 124.72 304.22 A11.3384 11.3384 -180 0 0 113.39 292.88
						 L11.34 292.88 A11.3384 11.3384 -180 0 0 0 304.22 A11.3384 11.3384 -180 0 0 11.34 315.56 Z" class="st1"/>
			<text x="34.66" y="306.92" class="st3" v:langID="1033"><v:paragraph v:horizAlign="1"/><v:tabList/>ASTER FilDEM</text>		</g>
		<g id="shape217-6" v:mID="217" v:groupContext="shape" transform="translate(148.61,-283.036)">
			<title>Rounded Rectangle.217</title>
			<desc>SRTM FilDEM</desc>
			<v:userDefs>
				<v:ud v:nameU="CTypeTopLeftSnip" v:prompt="" v:val="VT0(0):5"/>
				<v:ud v:nameU="CTypeTopRightSnip" v:prompt="" v:val="VT0(0):5"/>
				<v:ud v:nameU="CTypeBotLeftSnip" v:prompt="" v:val="VT0(0):5"/>
				<v:ud v:nameU="CTypeBotRightSnip" v:prompt="" v:val="VT0(0):5"/>
				<v:ud v:nameU="CornerLockHoriz" v:prompt="" v:val="VT0(1):5"/>
				<v:ud v:nameU="CornerLockVert" v:prompt="" v:val="VT0(1):5"/>
				<v:ud v:nameU="CornerLockDiag" v:prompt="" v:val="VT0(0):5"/>
				<v:ud v:nameU="TopLeftOffset" v:prompt="" v:val="VT0(0.15748031496063):24"/>
				<v:ud v:nameU="TopRightOffset" v:prompt="" v:val="VT0(0.15748031496063):24"/>
				<v:ud v:nameU="BotLeftOffset" v:prompt="" v:val="VT0(0.15748031496063):24"/>
				<v:ud v:nameU="BotRightOffset" v:prompt="" v:val="VT0(0.15748031496063):24"/>
				<v:ud v:nameU="visVersion" v:prompt="" v:val="VT0(15):26"/>
			</v:userDefs>
			<v:textBlock v:margins="rect(4,4,4,4)" v:tabSpace="42.5197"/>
			<v:textRect cx="62.3622" cy="304.222" width="124.73" height="22.6772"/>
			<path d="M11.34 315.56 L113.39 315.56 A11.3384 11.3384 -180 0 0 124.72 304.22 A11.3384 11.3384 -180 0 0 113.39 292.88
						 L11.34 292.88 A11.3384 11.3384 -180 0 0 0 304.22 A11.3384 11.3384 -180 0 0 11.34 315.56 Z" class="st1"/>
			<text x="35.8" y="306.92" class="st3" v:langID="1033"><v:paragraph v:horizAlign="1"/><v:tabList/>SRTM FilDEM</text>		</g>
		<g id="shape218-10" v:mID="218" v:groupContext="shape" transform="translate(281.839,-283.036)">
			<title>Rounded Rectangle.218</title>
			<desc>ALOS FilDEM</desc>
			<v:userDefs>
				<v:ud v:nameU="CTypeTopLeftSnip" v:prompt="" v:val="VT0(0):5"/>
				<v:ud v:nameU="CTypeTopRightSnip" v:prompt="" v:val="VT0(0):5"/>
				<v:ud v:nameU="CTypeBotLeftSnip" v:prompt="" v:val="VT0(0):5"/>
				<v:ud v:nameU="CTypeBotRightSnip" v:prompt="" v:val="VT0(0):5"/>
				<v:ud v:nameU="CornerLockHoriz" v:prompt="" v:val="VT0(1):5"/>
				<v:ud v:nameU="CornerLockVert" v:prompt="" v:val="VT0(1):5"/>
				<v:ud v:nameU="CornerLockDiag" v:prompt="" v:val="VT0(0):5"/>
				<v:ud v:nameU="TopLeftOffset" v:prompt="" v:val="VT0(0.15748031496063):24"/>
				<v:ud v:nameU="TopRightOffset" v:prompt="" v:val="VT0(0.15748031496063):24"/>
				<v:ud v:nameU="BotLeftOffset" v:prompt="" v:val="VT0(0.15748031496063):24"/>
				<v:ud v:nameU="BotRightOffset" v:prompt="" v:val="VT0(0.15748031496063):24"/>
				<v:ud v:nameU="visVersion" v:prompt="" v:val="VT0(15):26"/>
			</v:userDefs>
			<v:textBlock v:margins="rect(4,4,4,4)" v:tabSpace="42.5197"/>
			<v:textRect cx="62.3622" cy="304.222" width="124.73" height="22.6772"/>
			<path d="M11.34 315.56 L113.39 315.56 A11.3384 11.3384 -180 0 0 124.72 304.22 A11.3384 11.3384 -180 0 0 113.39 292.88
						 L11.34 292.88 A11.3384 11.3384 -180 0 0 0 304.22 A11.3384 11.3384 -180 0 0 11.34 315.56 Z" class="st1"/>
			<text x="36.48" y="306.92" class="st3" v:langID="1033"><v:paragraph v:horizAlign="1"/><v:tabList/>ALOS FilDEM</text>		</g>
		<g id="shape219-14" v:mID="219" v:groupContext="shape" transform="translate(148.61,-231.481)">
			<title>Rounded Rectangle.219</title>
			<desc>Flow direction DEM</desc>
			<v:userDefs>
				<v:ud v:nameU="CTypeTopLeftSnip" v:prompt="" v:val="VT0(0):5"/>
				<v:ud v:nameU="CTypeTopRightSnip" v:prompt="" v:val="VT0(0):5"/>
				<v:ud v:nameU="CTypeBotLeftSnip" v:prompt="" v:val="VT0(0):5"/>
				<v:ud v:nameU="CTypeBotRightSnip" v:prompt="" v:val="VT0(0):5"/>
				<v:ud v:nameU="CornerLockHoriz" v:prompt="" v:val="VT0(1):5"/>
				<v:ud v:nameU="CornerLockVert" v:prompt="" v:val="VT0(1):5"/>
				<v:ud v:nameU="CornerLockDiag" v:prompt="" v:val="VT0(0):5"/>
				<v:ud v:nameU="TopLeftOffset" v:prompt="" v:val="VT0(0.15748031496063):24"/>
				<v:ud v:nameU="TopRightOffset" v:prompt="" v:val="VT0(0.15748031496063):24"/>
				<v:ud v:nameU="BotLeftOffset" v:prompt="" v:val="VT0(0.15748031496063):24"/>
				<v:ud v:nameU="BotRightOffset" v:prompt="" v:val="VT0(0.15748031496063):24"/>
				<v:ud v:nameU="visVersion" v:prompt="" v:val="VT0(15):26"/>
			</v:userDefs>
			<v:textBlock v:margins="rect(4,4,4,4)" v:tabSpace="42.5197"/>
			<v:textRect cx="62.3622" cy="304.222" width="124.73" height="22.6772"/>
			<path d="M11.34 315.56 L113.39 315.56 A11.3384 11.3384 -180 0 0 124.72 304.22 A11.3384 11.3384 -180 0 0 113.39 292.88
						 L11.34 292.88 A11.3384 11.3384 -180 0 0 0 304.22 A11.3384 11.3384 -180 0 0 11.34 315.56 Z" class="st4"/>
			<text x="23.71" y="306.92" class="st3" v:langID="1033"><v:paragraph v:horizAlign="1"/><v:tabList/>Flow direction DEM</text>		</g>
		<g id="shape220-19" v:mID="220" v:groupContext="shape" transform="translate(15.382,-185.241)">
			<title>Rounded Rectangle.220</title>
			<desc>ASTER Fdr DEM</desc>
			<v:userDefs>
				<v:ud v:nameU="CTypeTopLeftSnip" v:prompt="" v:val="VT0(0):5"/>
				<v:ud v:nameU="CTypeTopRightSnip" v:prompt="" v:val="VT0(0):5"/>
				<v:ud v:nameU="CTypeBotLeftSnip" v:prompt="" v:val="VT0(0):5"/>
				<v:ud v:nameU="CTypeBotRightSnip" v:prompt="" v:val="VT0(0):5"/>
				<v:ud v:nameU="CornerLockHoriz" v:prompt="" v:val="VT0(1):5"/>
				<v:ud v:nameU="CornerLockVert" v:prompt="" v:val="VT0(1):5"/>
				<v:ud v:nameU="CornerLockDiag" v:prompt="" v:val="VT0(0):5"/>
				<v:ud v:nameU="TopLeftOffset" v:prompt="" v:val="VT0(0.15748031496063):24"/>
				<v:ud v:nameU="TopRightOffset" v:prompt="" v:val="VT0(0.15748031496063):24"/>
				<v:ud v:nameU="BotLeftOffset" v:prompt="" v:val="VT0(0.15748031496063):24"/>
				<v:ud v:nameU="BotRightOffset" v:prompt="" v:val="VT0(0.15748031496063):24"/>
				<v:ud v:nameU="visVersion" v:prompt="" v:val="VT0(15):26"/>
			</v:userDefs>
			<v:textBlock v:margins="rect(4,4,4,4)" v:tabSpace="42.5197"/>
			<v:textRect cx="62.3622" cy="304.222" width="124.73" height="22.6772"/>
			<path d="M11.34 315.56 L113.39 315.56 A11.3384 11.3384 -180 0 0 124.72 304.22 A11.3384 11.3384 -180 0 0 113.39 292.88
						 L11.34 292.88 A11.3384 11.3384 -180 0 0 0 304.22 A11.3384 11.3384 -180 0 0 11.34 315.56 Z" class="st1"/>
			<text x="31.39" y="306.92" class="st3" v:langID="1033"><v:paragraph v:horizAlign="1"/><v:tabList/>ASTER Fdr DEM</text>		</g>
		<g id="shape221-23" v:mID="221" v:groupContext="shape" transform="translate(148.61,-185.241)">
			<title>Rounded Rectangle.221</title>
			<desc>SRTM Fdr DEM</desc>
			<v:userDefs>
				<v:ud v:nameU="CTypeTopLeftSnip" v:prompt="" v:val="VT0(0):5"/>
				<v:ud v:nameU="CTypeTopRightSnip" v:prompt="" v:val="VT0(0):5"/>
				<v:ud v:nameU="CTypeBotLeftSnip" v:prompt="" v:val="VT0(0):5"/>
				<v:ud v:nameU="CTypeBotRightSnip" v:prompt="" v:val="VT0(0):5"/>
				<v:ud v:nameU="CornerLockHoriz" v:prompt="" v:val="VT0(1):5"/>
				<v:ud v:nameU="CornerLockVert" v:prompt="" v:val="VT0(1):5"/>
				<v:ud v:nameU="CornerLockDiag" v:prompt="" v:val="VT0(0):5"/>
				<v:ud v:nameU="TopLeftOffset" v:prompt="" v:val="VT0(0.15748031496063):24"/>
				<v:ud v:nameU="TopRightOffset" v:prompt="" v:val="VT0(0.15748031496063):24"/>
				<v:ud v:nameU="BotLeftOffset" v:prompt="" v:val="VT0(0.15748031496063):24"/>
				<v:ud v:nameU="BotRightOffset" v:prompt="" v:val="VT0(0.15748031496063):24"/>
				<v:ud v:nameU="visVersion" v:prompt="" v:val="VT0(15):26"/>
			</v:userDefs>
			<v:textBlock v:margins="rect(4,4,4,4)" v:tabSpace="42.5197"/>
			<v:textRect cx="62.3622" cy="304.222" width="124.73" height="22.6772"/>
			<path d="M11.34 315.56 L113.39 315.56 A11.3384 11.3384 -180 0 0 124.72 304.22 A11.3384 11.3384 -180 0 0 113.39 292.88
						 L11.34 292.88 A11.3384 11.3384 -180 0 0 0 304.22 A11.3384 11.3384 -180 0 0 11.34 315.56 Z" class="st1"/>
			<text x="32.53" y="306.92" class="st3" v:langID="1033"><v:paragraph v:horizAlign="1"/><v:tabList/>SRTM Fdr DEM</text>		</g>
		<g id="shape222-27" v:mID="222" v:groupContext="shape" transform="translate(282.225,-185.241)">
			<title>Rounded Rectangle.222</title>
			<desc>ALOS Fdr DEM</desc>
			<v:userDefs>
				<v:ud v:nameU="CTypeTopLeftSnip" v:prompt="" v:val="VT0(0):5"/>
				<v:ud v:nameU="CTypeTopRightSnip" v:prompt="" v:val="VT0(0):5"/>
				<v:ud v:nameU="CTypeBotLeftSnip" v:prompt="" v:val="VT0(0):5"/>
				<v:ud v:nameU="CTypeBotRightSnip" v:prompt="" v:val="VT0(0):5"/>
				<v:ud v:nameU="CornerLockHoriz" v:prompt="" v:val="VT0(1):5"/>
				<v:ud v:nameU="CornerLockVert" v:prompt="" v:val="VT0(1):5"/>
				<v:ud v:nameU="CornerLockDiag" v:prompt="" v:val="VT0(0):5"/>
				<v:ud v:nameU="TopLeftOffset" v:prompt="" v:val="VT0(0.15748031496063):24"/>
				<v:ud v:nameU="TopRightOffset" v:prompt="" v:val="VT0(0.15748031496063):24"/>
				<v:ud v:nameU="BotLeftOffset" v:prompt="" v:val="VT0(0.15748031496063):24"/>
				<v:ud v:nameU="BotRightOffset" v:prompt="" v:val="VT0(0.15748031496063):24"/>
				<v:ud v:nameU="visVersion" v:prompt="" v:val="VT0(15):26"/>
			</v:userDefs>
			<v:textBlock v:margins="rect(4,4,4,4)" v:tabSpace="42.5197"/>
			<v:textRect cx="62.3622" cy="304.222" width="124.73" height="22.6772"/>
			<path d="M11.34 315.56 L113.39 315.56 A11.3384 11.3384 -180 0 0 124.72 304.22 A11.3384 11.3384 -180 0 0 113.39 292.88
						 L11.34 292.88 A11.3384 11.3384 -180 0 0 0 304.22 A11.3384 11.3384 -180 0 0 11.34 315.56 Z" class="st1"/>
			<text x="33.21" y="306.92" class="st3" v:langID="1033"><v:paragraph v:horizAlign="1"/><v:tabList/>ALOS Fdr DEM</text>		</g>
		<g id="shape223-31" v:mID="223" v:groupContext="shape" transform="translate(148.61,-150.162)">
			<title>Rounded Rectangle.223</title>
			<desc>Raster calculator, homologar rcfdtools</desc>
			<v:userDefs>
				<v:ud v:nameU="CTypeTopLeftSnip" v:prompt="" v:val="VT0(0):5"/>
				<v:ud v:nameU="CTypeTopRightSnip" v:prompt="" v:val="VT0(0):5"/>
				<v:ud v:nameU="CTypeBotLeftSnip" v:prompt="" v:val="VT0(0):5"/>
				<v:ud v:nameU="CTypeBotRightSnip" v:prompt="" v:val="VT0(0):5"/>
				<v:ud v:nameU="CornerLockHoriz" v:prompt="" v:val="VT0(1):5"/>
				<v:ud v:nameU="CornerLockVert" v:prompt="" v:val="VT0(1):5"/>
				<v:ud v:nameU="CornerLockDiag" v:prompt="" v:val="VT0(0):5"/>
				<v:ud v:nameU="TopLeftOffset" v:prompt="" v:val="VT0(0.15748031496063):24"/>
				<v:ud v:nameU="TopRightOffset" v:prompt="" v:val="VT0(0.15748031496063):24"/>
				<v:ud v:nameU="BotLeftOffset" v:prompt="" v:val="VT0(0.15748031496063):24"/>
				<v:ud v:nameU="BotRightOffset" v:prompt="" v:val="VT0(0.15748031496063):24"/>
				<v:ud v:nameU="visVersion" v:prompt="" v:val="VT0(15):26"/>
			</v:userDefs>
			<v:textBlock v:margins="rect(4,4,4,4)" v:tabSpace="42.5197"/>
			<v:textRect cx="62.3622" cy="304.222" width="124.73" height="22.6772"/>
			<path d="M11.34 315.56 L113.39 315.56 A11.3384 11.3384 -180 0 0 124.72 304.22 A11.3384 11.3384 -180 0 0 113.39 292.88
						 L11.34 292.88 A11.3384 11.3384 -180 0 0 0 304.22 A11.3384 11.3384 -180 0 0 11.34 315.56 Z" class="st4"/>
			<text x="28.63" y="301.52" class="st3" v:langID="1033"><v:paragraph v:horizAlign="1"/><v:tabList/>Raster calculator, <v:newlineChar/><tspan
						x="21.7" dy="1.2em" class="st6">homologar rcfdtools</tspan></text>		</g>
		<g id="shape226-36" v:mID="226" v:groupContext="shape" v:layerMember="0" transform="translate(77.7442,-283.036)">
			<title>Dynamic connector.226</title>
			<v:userDefs>
				<v:ud v:nameU="visVersion" v:val="VT0(15):26"/>
			</v:userDefs>
			<path d="M0 315.56 C-0 326.19 11.2 326.19 21.13 326.19 C40.74 326.19 55.42 326.19 83.22 326.19 C102.59 326.19 128.32
						 326.19 132.61 340.12 L132.66 340.47" class="st7"/>
		</g>
		<g id="shape227-42" v:mID="227" v:groupContext="shape" v:layerMember="0" transform="translate(344.201,-283.036)">
			<title>Dynamic connector.227</title>
			<v:userDefs>
				<v:ud v:nameU="visVersion" v:val="VT0(15):26"/>
			</v:userDefs>
			<path d="M0 315.56 C-0 326.19 -11.2 326.19 -21.13 326.19 C-40.74 326.19 -55.42 326.19 -83.22 326.19 C-102.59 326.19 -128.32
						 326.19 -132.61 340.12 L-132.66 340.47" class="st7"/>
		</g>
		<g id="shape228-47" v:mID="228" v:groupContext="shape" v:layerMember="0" transform="translate(203.886,-283.036)">
			<title>Dynamic connector.228</title>
			<v:userDefs>
				<v:ud v:nameU="visVersion" v:val="VT0(15):26"/>
			</v:userDefs>
			<path d="M7.09 315.56 C7.09 321.52 7.09 332.4 7.09 340.07" class="st9"/>
		</g>
		<g id="shape229-53" v:mID="229" v:groupContext="shape" v:layerMember="0" transform="translate(210.973,-231.481)">
			<title>Dynamic connector.229</title>
			<v:userDefs>
				<v:ud v:nameU="visVersion" v:val="VT0(15):26"/>
			</v:userDefs>
			<path d="M0 315.56 C-0 326.19 -13.42 326.19 -24.82 326.19 C-41.71 326.19 -54.16 326.19 -66.6 326.19 C-79.05 326.19 -91.48
						 326.19 -108.32 326.19 C-118.31 326.19 -129.85 326.19 -132.61 334.8 L-132.66 335.16" class="st7"/>
		</g>
		<g id="shape230-58" v:mID="230" v:groupContext="shape" v:layerMember="0" transform="translate(210.973,-231.481)">
			<title>Dynamic connector.230</title>
			<v:userDefs>
				<v:ud v:nameU="visVersion" v:val="VT0(15):26"/>
			</v:userDefs>
			<path d="M0 315.56 C0 326.19 13.46 326.19 24.9 326.19 C41.83 326.19 54.32 326.19 66.8 326.19 C79.28 326.19 91.74 326.19
						 108.64 326.19 C118.65 326.19 130.22 326.19 133 334.8 L133.05 335.16" class="st7"/>
		</g>
		<g id="shape231-63" v:mID="231" v:groupContext="shape" v:layerMember="0" transform="translate(203.886,-231.481)">
			<title>Dynamic connector.231</title>
			<v:userDefs>
				<v:ud v:nameU="visVersion" v:val="VT0(15):26"/>
			</v:userDefs>
			<path d="M7.09 315.56 C7.09 320.22 7.09 328.56 7.09 334.76" class="st9"/>
		</g>
		<g id="shape232-68" v:mID="232" v:groupContext="shape" v:layerMember="0" transform="translate(15.382,-294.375)">
			<title>Dynamic connector.232</title>
			<v:userDefs>
				<v:ud v:nameU="visVersion" v:val="VT0(15):26"/>
			</v:userDefs>
			<path d="M0 315.56 C-10.63 315.56 -10.63 329.84 -10.63 346.03 C-10.63 367.48 -10.63 392.28 -10.63 409.88 C-10.63 426.16
						 -10.63 436.28 4.21 441.8 C21.68 448.3 59.71 448.43 128.86 448.43 L129.22 448.43" class="st10"/>
		</g>
		<g id="shape233-73" v:mID="233" v:groupContext="shape" v:layerMember="0" transform="translate(77.7442,-185.241)">
			<title>Dynamic connector.233</title>
			<v:userDefs>
				<v:ud v:nameU="visVersion" v:val="VT0(15):26"/>
			</v:userDefs>
			<path d="M0 315.56 C0 321.5 -0 329.39 10.45 333.78 C22.54 338.87 48.62 339.27 66.5 339.3 L66.86 339.3" class="st10"/>
		</g>
		<g id="shape234-78" v:mID="234" v:groupContext="shape" transform="translate(148.61,-115.083)">
			<title>Rounded Rectangle.234</title>
			<desc>ASTER Fdr DEM rcfdtools</desc>
			<v:userDefs>
				<v:ud v:nameU="CTypeTopLeftSnip" v:prompt="" v:val="VT0(0):5"/>
				<v:ud v:nameU="CTypeTopRightSnip" v:prompt="" v:val="VT0(0):5"/>
				<v:ud v:nameU="CTypeBotLeftSnip" v:prompt="" v:val="VT0(0):5"/>
				<v:ud v:nameU="CTypeBotRightSnip" v:prompt="" v:val="VT0(0):5"/>
				<v:ud v:nameU="CornerLockHoriz" v:prompt="" v:val="VT0(1):5"/>
				<v:ud v:nameU="CornerLockVert" v:prompt="" v:val="VT0(1):5"/>
				<v:ud v:nameU="CornerLockDiag" v:prompt="" v:val="VT0(0):5"/>
				<v:ud v:nameU="TopLeftOffset" v:prompt="" v:val="VT0(0.15748031496063):24"/>
				<v:ud v:nameU="TopRightOffset" v:prompt="" v:val="VT0(0.15748031496063):24"/>
				<v:ud v:nameU="BotLeftOffset" v:prompt="" v:val="VT0(0.15748031496063):24"/>
				<v:ud v:nameU="BotRightOffset" v:prompt="" v:val="VT0(0.15748031496063):24"/>
				<v:ud v:nameU="visVersion" v:prompt="" v:val="VT0(15):26"/>
			</v:userDefs>
			<v:textBlock v:margins="rect(4,4,4,4)" v:tabSpace="42.5197"/>
			<v:textRect cx="62.3622" cy="304.222" width="124.73" height="22.6772"/>
			<path d="M11.34 315.56 L113.39 315.56 A11.3384 11.3384 -180 0 0 124.72 304.22 A11.3384 11.3384 -180 0 0 113.39 292.88
						 L11.34 292.88 A11.3384 11.3384 -180 0 0 0 304.22 A11.3384 11.3384 -180 0 0 11.34 315.56 Z" class="st1"/>
			<text x="12.66" y="306.92" class="st3" v:langID="1033"><v:paragraph v:horizAlign="1"/><v:tabList/>ASTER Fdr DEM rcfdtools</text>		</g>
		<g id="shape235-82" v:mID="235" v:groupContext="shape" v:layerMember="0" transform="translate(203.886,-151.048)">
			<title>Dynamic connector.235</title>
			<v:userDefs>
				<v:ud v:nameU="visVersion" v:val="VT0(15):26"/>
			</v:userDefs>
			<path d="M7.09 316.45 C7.09 318.41 7.09 321.61 7.09 324.48" class="st11"/>
		</g>
		<g id="shape236-87" v:mID="236" v:groupContext="shape" transform="translate(148.61,-9.84707)">
			<title>Rounded Rectangle.236</title>
			<desc>Graph bar fill count</desc>
			<v:userDefs>
				<v:ud v:nameU="CTypeTopLeftSnip" v:prompt="" v:val="VT0(0):5"/>
				<v:ud v:nameU="CTypeTopRightSnip" v:prompt="" v:val="VT0(0):5"/>
				<v:ud v:nameU="CTypeBotLeftSnip" v:prompt="" v:val="VT0(0):5"/>
				<v:ud v:nameU="CTypeBotRightSnip" v:prompt="" v:val="VT0(0):5"/>
				<v:ud v:nameU="CornerLockHoriz" v:prompt="" v:val="VT0(1):5"/>
				<v:ud v:nameU="CornerLockVert" v:prompt="" v:val="VT0(1):5"/>
				<v:ud v:nameU="CornerLockDiag" v:prompt="" v:val="VT0(0):5"/>
				<v:ud v:nameU="TopLeftOffset" v:prompt="" v:val="VT0(0.15748031496063):24"/>
				<v:ud v:nameU="TopRightOffset" v:prompt="" v:val="VT0(0.15748031496063):24"/>
				<v:ud v:nameU="BotLeftOffset" v:prompt="" v:val="VT0(0.15748031496063):24"/>
				<v:ud v:nameU="BotRightOffset" v:prompt="" v:val="VT0(0.15748031496063):24"/>
				<v:ud v:nameU="visVersion" v:prompt="" v:val="VT0(15):26"/>
			</v:userDefs>
			<v:textBlock v:margins="rect(4,4,4,4)" v:tabSpace="42.5197"/>
			<v:textRect cx="62.3622" cy="304.222" width="124.73" height="22.6772"/>
			<path d="M11.34 315.56 L113.39 315.56 A11.3384 11.3384 -180 0 0 124.72 304.22 A11.3384 11.3384 -180 0 0 113.39 292.88
						 L11.34 292.88 A11.3384 11.3384 -180 0 0 0 304.22 A11.3384 11.3384 -180 0 0 11.34 315.56 Z" class="st12"/>
			<text x="24.02" y="306.92" class="st3" v:langID="1033"><v:paragraph v:horizAlign="1"/><v:tabList/>Graph bar fill count</text>		</g>
		<g id="shape237-92" v:mID="237" v:groupContext="shape" v:layerMember="0" transform="translate(203.886,-115.969)">
			<title>Dynamic connector.237</title>
			<v:userDefs>
				<v:ud v:nameU="visVersion" v:val="VT0(15):26"/>
			</v:userDefs>
			<path d="M7.09 316.45 C7.09 318.41 7.09 321.61 7.09 324.48" class="st11"/>
		</g>
		<g id="shape238-97" v:mID="238" v:groupContext="shape" transform="translate(148.61,-80.0046)">
			<title>Rounded Rectangle.238</title>
			<desc>Raster calculator, homologar otro formato</desc>
			<v:userDefs>
				<v:ud v:nameU="CTypeTopLeftSnip" v:prompt="" v:val="VT0(0):5"/>
				<v:ud v:nameU="CTypeTopRightSnip" v:prompt="" v:val="VT0(0):5"/>
				<v:ud v:nameU="CTypeBotLeftSnip" v:prompt="" v:val="VT0(0):5"/>
				<v:ud v:nameU="CTypeBotRightSnip" v:prompt="" v:val="VT0(0):5"/>
				<v:ud v:nameU="CornerLockHoriz" v:prompt="" v:val="VT0(1):5"/>
				<v:ud v:nameU="CornerLockVert" v:prompt="" v:val="VT0(1):5"/>
				<v:ud v:nameU="CornerLockDiag" v:prompt="" v:val="VT0(0):5"/>
				<v:ud v:nameU="TopLeftOffset" v:prompt="" v:val="VT0(0.15748031496063):24"/>
				<v:ud v:nameU="TopRightOffset" v:prompt="" v:val="VT0(0.15748031496063):24"/>
				<v:ud v:nameU="BotLeftOffset" v:prompt="" v:val="VT0(0.15748031496063):24"/>
				<v:ud v:nameU="BotRightOffset" v:prompt="" v:val="VT0(0.15748031496063):24"/>
				<v:ud v:nameU="visVersion" v:prompt="" v:val="VT0(15):26"/>
			</v:userDefs>
			<v:textBlock v:margins="rect(4,4,4,4)" v:tabSpace="42.5197"/>
			<v:textRect cx="62.3622" cy="304.222" width="124.73" height="22.6772"/>
			<path d="M11.34 315.56 L113.39 315.56 A11.3384 11.3384 -180 0 0 124.72 304.22 A11.3384 11.3384 -180 0 0 113.39 292.88
						 L11.34 292.88 A11.3384 11.3384 -180 0 0 0 304.22 A11.3384 11.3384 -180 0 0 11.34 315.56 Z" class="st4"/>
			<text x="28.63" y="301.52" class="st3" v:langID="1033"><v:paragraph v:horizAlign="1"/><v:tabList/>Raster calculator, <v:newlineChar/><tspan
						x="13.67" dy="1.2em" class="st6">homologar otro formato</tspan></text>		</g>
		<g id="shape241-102" v:mID="241" v:groupContext="shape" transform="translate(148.61,-44.9258)">
			<title>Rounded Rectangle.241</title>
			<desc>ASTER Fdr DEM homologado</desc>
			<v:userDefs>
				<v:ud v:nameU="CTypeTopLeftSnip" v:prompt="" v:val="VT0(0):5"/>
				<v:ud v:nameU="CTypeTopRightSnip" v:prompt="" v:val="VT0(0):5"/>
				<v:ud v:nameU="CTypeBotLeftSnip" v:prompt="" v:val="VT0(0):5"/>
				<v:ud v:nameU="CTypeBotRightSnip" v:prompt="" v:val="VT0(0):5"/>
				<v:ud v:nameU="CornerLockHoriz" v:prompt="" v:val="VT0(1):5"/>
				<v:ud v:nameU="CornerLockVert" v:prompt="" v:val="VT0(1):5"/>
				<v:ud v:nameU="CornerLockDiag" v:prompt="" v:val="VT0(0):5"/>
				<v:ud v:nameU="TopLeftOffset" v:prompt="" v:val="VT0(0.15748031496063):24"/>
				<v:ud v:nameU="TopRightOffset" v:prompt="" v:val="VT0(0.15748031496063):24"/>
				<v:ud v:nameU="BotLeftOffset" v:prompt="" v:val="VT0(0.15748031496063):24"/>
				<v:ud v:nameU="BotRightOffset" v:prompt="" v:val="VT0(0.15748031496063):24"/>
				<v:ud v:nameU="visVersion" v:prompt="" v:val="VT0(15):26"/>
			</v:userDefs>
			<v:textBlock v:margins="rect(4,4,4,4)" v:tabSpace="42.5197"/>
			<v:textRect cx="62.3622" cy="304.222" width="124.73" height="22.6772"/>
			<path d="M11.34 315.56 L113.39 315.56 A11.3384 11.3384 -180 0 0 124.72 304.22 A11.3384 11.3384 -180 0 0 113.39 292.88
						 L11.34 292.88 A11.3384 11.3384 -180 0 0 0 304.22 A11.3384 11.3384 -180 0 0 11.34 315.56 Z" class="st1"/>
			<text x="4.51" y="306.92" class="st3" v:langID="1033"><v:paragraph v:horizAlign="1"/><v:tabList/>ASTER Fdr DEM homologado</text>		</g>
		<g id="shape242-106" v:mID="242" v:groupContext="shape" transform="translate(282.225,-44.9258)">
			<title>Rounded Rectangle.242</title>
			<desc>Delete</desc>
			<v:userDefs>
				<v:ud v:nameU="CTypeTopLeftSnip" v:prompt="" v:val="VT0(0):5"/>
				<v:ud v:nameU="CTypeTopRightSnip" v:prompt="" v:val="VT0(0):5"/>
				<v:ud v:nameU="CTypeBotLeftSnip" v:prompt="" v:val="VT0(0):5"/>
				<v:ud v:nameU="CTypeBotRightSnip" v:prompt="" v:val="VT0(0):5"/>
				<v:ud v:nameU="CornerLockHoriz" v:prompt="" v:val="VT0(1):5"/>
				<v:ud v:nameU="CornerLockVert" v:prompt="" v:val="VT0(1):5"/>
				<v:ud v:nameU="CornerLockDiag" v:prompt="" v:val="VT0(0):5"/>
				<v:ud v:nameU="TopLeftOffset" v:prompt="" v:val="VT0(0.15748031496063):24"/>
				<v:ud v:nameU="TopRightOffset" v:prompt="" v:val="VT0(0.15748031496063):24"/>
				<v:ud v:nameU="BotLeftOffset" v:prompt="" v:val="VT0(0.15748031496063):24"/>
				<v:ud v:nameU="BotRightOffset" v:prompt="" v:val="VT0(0.15748031496063):24"/>
				<v:ud v:nameU="visVersion" v:prompt="" v:val="VT0(15):26"/>
			</v:userDefs>
			<v:textBlock v:margins="rect(4,4,4,4)" v:tabSpace="42.5197"/>
			<v:textRect cx="62.3622" cy="304.222" width="124.73" height="22.6772"/>
			<path d="M11.34 315.56 L113.39 315.56 A11.3384 11.3384 -180 0 0 124.72 304.22 A11.3384 11.3384 -180 0 0 113.39 292.88
						 L11.34 292.88 A11.3384 11.3384 -180 0 0 0 304.22 A11.3384 11.3384 -180 0 0 11.34 315.56 Z" class="st4"/>
			<text x="49.53" y="306.92" class="st3" v:langID="1033"><v:paragraph v:horizAlign="1"/><v:tabList/>Delete</text>		</g>
		<g id="shape243-110" v:mID="243" v:groupContext="shape" v:layerMember="0" transform="translate(203.886,-80.8904)">
			<title>Dynamic connector.243</title>
			<v:userDefs>
				<v:ud v:nameU="visVersion" v:val="VT0(15):26"/>
			</v:userDefs>
			<path d="M7.09 316.45 C7.09 318.41 7.09 321.61 7.09 324.48" class="st11"/>
		</g>
		<g id="shape245-115" v:mID="245" v:groupContext="shape" v:layerMember="0" transform="translate(273.335,-126.422)">
			<title>Dynamic connector.245</title>
			<v:userDefs>
				<v:ud v:nameU="visVersion" v:val="VT0(15):26"/>
			</v:userDefs>
			<path d="M0 315.56 C17.81 315.56 45.24 315.56 58.59 327.18 C70.05 337.15 71.14 355.68 71.24 370.01 L71.24 370.37"
					class="st10"/>
		</g>
		<g id="shape246-120" v:mID="246" v:groupContext="shape" v:layerMember="0" transform="translate(203.886,-45.8116)">
			<title>Dynamic connector.246</title>
			<v:userDefs>
				<v:ud v:nameU="visVersion" v:val="VT0(15):26"/>
			</v:userDefs>
			<path d="M7.09 316.45 C7.09 318.41 7.09 321.61 7.09 324.48" class="st11"/>
		</g>
	</g>
</svg>
