<?xml version="1.0" encoding="UTF-8" standalone="no"?>
<!DOCTYPE svg PUBLIC "-//W3C//DTD SVG 1.1//EN" "http://www.w3.org/Graphics/SVG/1.1/DTD/svg11.dtd">
<!-- Generated by Microsoft Visio, SVG Export ENSOONI.svg Page-1 -->
<svg xmlns="http://www.w3.org/2000/svg" xmlns:xlink="http://www.w3.org/1999/xlink" xmlns:ev="http://www.w3.org/2001/xml-events"
		xmlns:v="http://schemas.microsoft.com/visio/2003/SVGExtensions/" width="6.29223in" height="7.46763in"
		viewBox="0 0 453.041 537.67" xml:space="preserve" color-interpolation-filters="sRGB" class="st20">
	<v:documentProperties v:langID="1033" v:metric="true" v:viewMarkup="false"/>

	<style type="text/css">
	<![CDATA[
		.st1 {fill:#f2f2f2;stroke:none;stroke-width:1.5}
		.st2 {fill:#fbbc0e;fill-opacity:1;stroke:#fbbc0e;stroke-opacity:1;stroke-width:0.37313432835821}
		.st3 {fill:#000000;font-family:Segoe UI;font-size:0.75em}
		.st4 {fill:#f2f2f2;stroke:#fbbc0e;stroke-width:1.5}
		.st5 {fill:#080808;font-family:Calibri;font-size:0.75em}
		.st6 {fill:#000000;font-family:Segoe UI;font-size:1em}
		.st7 {marker-end:url(#mrkr6-16);stroke:#7f7f7f;stroke-linecap:round;stroke-linejoin:round;stroke-width:0.5}
		.st8 {fill:#7f7f7f;fill-opacity:1;stroke:#7f7f7f;stroke-opacity:1;stroke-width:0.25773195876289}
		.st9 {fill:#f2f2f2;stroke:#ea4d35;stroke-dasharray:0.01,4.5;stroke-width:1.5}
		.st10 {fill:#ea4d35;fill-opacity:1;stroke:#ea4d35;stroke-opacity:1;stroke-width:0.37313432835821}
		.st11 {fill:#f2f2f2;stroke:#696368;stroke-width:1.5}
		.st12 {fill:#696368;fill-opacity:1;stroke:#696368;stroke-opacity:1;stroke-width:0.37313432835821}
		.st13 {font-size:1em}
		.st14 {fill:#080808;font-family:Calibri;font-size:1em}
		.st15 {fill:#ffffff;stroke:none;stroke-linecap:butt}
		.st16 {fill:#3d64ac;font-family:Segoe UI;font-size:0.499992em}
		.st17 {marker-end:url(#mrkr6-73);stroke:#7f7f7f;stroke-linecap:round;stroke-linejoin:round;stroke-width:0.5}
		.st18 {fill:#ffffff;stroke:none;stroke-linecap:butt;stroke-width:7.2}
		.st19 {fill:none;stroke:none;stroke-width:0.25}
		.st20 {fill:none;fill-rule:evenodd;font-size:12px;overflow:visible;stroke-linecap:square;stroke-miterlimit:3}
	]]>
	</style>

	<defs id="Markers">
		<g id="lend6">
			<path d="M 2 1 L 0 0 L 2.01237 -1.00641 C 2.32921 -0.372876 2.32921 0.372869 2.01238 1.0064 " style="stroke:none"/>
		</g>
		<marker id="mrkr6-4" class="st2" v:arrowType="6" v:arrowSize="2" v:setback="6.03" refX="6.03" orient="auto"
				markerUnits="strokeWidth" overflow="visible">
			<use xlink:href="#lend6" transform="scale(2.68) "/>
		</marker>
		<marker id="mrkr6-16" class="st8" v:arrowType="6" v:arrowSize="0" v:setback="8.73" refX="-8.73" orient="auto"
				markerUnits="strokeWidth" overflow="visible">
			<use xlink:href="#lend6" transform="scale(-3.88,-3.88) "/>
		</marker>
		<marker id="mrkr6-24" class="st10" v:arrowType="6" v:arrowSize="2" v:setback="6.03" refX="6.03" orient="auto"
				markerUnits="strokeWidth" overflow="visible">
			<use xlink:href="#lend6" transform="scale(2.68) "/>
		</marker>
		<marker id="mrkr6-29" class="st12" v:arrowType="6" v:arrowSize="2" v:setback="6.03" refX="6.03" orient="auto"
				markerUnits="strokeWidth" overflow="visible">
			<use xlink:href="#lend6" transform="scale(2.68) "/>
		</marker>
		<marker id="mrkr6-73" class="st8" v:arrowType="6" v:arrowSize="0" v:setback="8.01" refX="-8.01" orient="auto"
				markerUnits="strokeWidth" overflow="visible">
			<use xlink:href="#lend6" transform="scale(-3.88,-3.88) "/>
		</marker>
	</defs>
	<g v:mID="0" v:index="1" v:groupContext="foregroundPage">
		<title>Page-1</title>
		<v:pageProperties v:drawingScale="0.0393701" v:pageScale="0.0393701" v:drawingUnits="24" v:shadowOffsetX="8.50394"
				v:shadowOffsetY="-8.50394"/>
		<v:layer v:name="Connector" v:index="0"/>
		<v:layer v:name="Flowchart" v:index="1"/>
		<g id="shape577-1" v:mID="577" v:groupContext="shape" transform="translate(160.083,-493.375)">
			<title>Rounded Rectangle.577</title>
			<desc>Start</desc>
			<v:userDefs>
				<v:ud v:nameU="CTypeTopLeftSnip" v:prompt="" v:val="VT0(0):5"/>
				<v:ud v:nameU="CTypeTopRightSnip" v:prompt="" v:val="VT0(0):5"/>
				<v:ud v:nameU="CTypeBotLeftSnip" v:prompt="" v:val="VT0(0):5"/>
				<v:ud v:nameU="CTypeBotRightSnip" v:prompt="" v:val="VT0(0):5"/>
				<v:ud v:nameU="CornerLockHoriz" v:prompt="" v:val="VT0(1):5"/>
				<v:ud v:nameU="CornerLockVert" v:prompt="" v:val="VT0(1):5"/>
				<v:ud v:nameU="CornerLockDiag" v:prompt="" v:val="VT0(0):5"/>
				<v:ud v:nameU="TopLeftOffset" v:prompt="" v:val="VT0(0.15748031496063):24"/>
				<v:ud v:nameU="TopRightOffset" v:prompt="" v:val="VT0(0.15748031496063):24"/>
				<v:ud v:nameU="BotLeftOffset" v:prompt="" v:val="VT0(0.15748031496063):24"/>
				<v:ud v:nameU="BotRightOffset" v:prompt="" v:val="VT0(0.15748031496063):24"/>
				<v:ud v:nameU="visVersion" v:prompt="" v:val="VT0(15):26"/>
			</v:userDefs>
			<v:textBlock v:margins="rect(4,4,4,4)" v:tabSpace="42.5197"/>
			<v:textRect cx="62.3622" cy="526.331" width="124.73" height="22.6772"/>
			<path d="M11.34 537.67 L113.39 537.67 A11.3384 11.3384 -180 0 0 124.72 526.33 A11.3384 11.3384 -180 0 0 113.39 514.99
						 L11.34 514.99 A11.3384 11.3384 -180 0 0 0 526.33 A11.3384 11.3384 -180 0 0 11.34 537.67 Z" class="st1"/>
			<text x="53.07" y="529.03" class="st3" v:langID="1033"><v:paragraph v:horizAlign="1"/><v:tabList/>Start</text>		</g>
		<g id="shape704-6" v:mID="704" v:groupContext="shape" transform="translate(160.083,-455.371)">
			<title>Rounded Rectangle.592</title>
			<desc>threshold = 0.5 consecutive_event = 5</desc>
			<v:userDefs>
				<v:ud v:nameU="CTypeTopLeftSnip" v:prompt="" v:val="VT0(0):5"/>
				<v:ud v:nameU="CTypeTopRightSnip" v:prompt="" v:val="VT0(0):5"/>
				<v:ud v:nameU="CTypeBotLeftSnip" v:prompt="" v:val="VT0(0):5"/>
				<v:ud v:nameU="CTypeBotRightSnip" v:prompt="" v:val="VT0(0):5"/>
				<v:ud v:nameU="CornerLockHoriz" v:prompt="" v:val="VT0(1):5"/>
				<v:ud v:nameU="CornerLockVert" v:prompt="" v:val="VT0(1):5"/>
				<v:ud v:nameU="CornerLockDiag" v:prompt="" v:val="VT0(0):5"/>
				<v:ud v:nameU="TopLeftOffset" v:prompt="" v:val="VT0(0.15748031496063):24"/>
				<v:ud v:nameU="TopRightOffset" v:prompt="" v:val="VT0(0.15748031496063):24"/>
				<v:ud v:nameU="BotLeftOffset" v:prompt="" v:val="VT0(0.15748031496063):24"/>
				<v:ud v:nameU="BotRightOffset" v:prompt="" v:val="VT0(0.15748031496063):24"/>
				<v:ud v:nameU="visVersion" v:prompt="" v:val="VT0(15):26"/>
			</v:userDefs>
			<v:textBlock v:margins="rect(4,4,4,4)" v:tabSpace="42.5197"/>
			<v:textRect cx="62.3622" cy="526.331" width="124.73" height="22.6772"/>
			<path d="M11.34 537.67 L113.39 537.67 A11.3384 11.3384 -180 0 0 124.72 526.33 A11.3384 11.3384 -180 0 0 113.39 514.99
						 L11.34 514.99 A11.3384 11.3384 -180 0 0 0 526.33 A11.3384 11.3384 -180 0 0 11.34 537.67 Z" class="st4"/>
			<text x="34.82" y="523.63" class="st5" v:langID="1033"><v:paragraph v:horizAlign="1" v:bulletSize="0.166667"/><v:tabList/>threshold = 0.5<v:newlineChar/><tspan
						x="18.32" dy="1.2em" class="st6">consecutive_event = 5</tspan></text>		</g>
		<g id="shape705-11" v:mID="705" v:groupContext="shape" v:layerMember="0" transform="translate(215.359,-493.375)">
			<title>Dynamic connector.705</title>
			<v:userDefs>
				<v:ud v:nameU="visVersion" v:val="VT0(15):26"/>
			</v:userDefs>
			<path d="M7.09 537.67 C7.09 540.33 7.09 544.84 7.09 548.63" class="st7"/>
		</g>
		<g id="shape742-17" v:mID="742" v:groupContext="shape" transform="translate(160.083,-9.84707)">
			<title>Rounded Rectangle.742</title>
			<desc>End</desc>
			<v:userDefs>
				<v:ud v:nameU="CTypeTopLeftSnip" v:prompt="" v:val="VT0(0):5"/>
				<v:ud v:nameU="CTypeTopRightSnip" v:prompt="" v:val="VT0(0):5"/>
				<v:ud v:nameU="CTypeBotLeftSnip" v:prompt="" v:val="VT0(0):5"/>
				<v:ud v:nameU="CTypeBotRightSnip" v:prompt="" v:val="VT0(0):5"/>
				<v:ud v:nameU="CornerLockHoriz" v:prompt="" v:val="VT0(1):5"/>
				<v:ud v:nameU="CornerLockVert" v:prompt="" v:val="VT0(1):5"/>
				<v:ud v:nameU="CornerLockDiag" v:prompt="" v:val="VT0(0):5"/>
				<v:ud v:nameU="TopLeftOffset" v:prompt="" v:val="VT0(0.15748031496063):24"/>
				<v:ud v:nameU="TopRightOffset" v:prompt="" v:val="VT0(0.15748031496063):24"/>
				<v:ud v:nameU="BotLeftOffset" v:prompt="" v:val="VT0(0.15748031496063):24"/>
				<v:ud v:nameU="BotRightOffset" v:prompt="" v:val="VT0(0.15748031496063):24"/>
				<v:ud v:nameU="visVersion" v:prompt="" v:val="VT0(15):26"/>
			</v:userDefs>
			<v:textBlock v:margins="rect(4,4,4,4)" v:tabSpace="42.5197"/>
			<v:textRect cx="62.3622" cy="526.331" width="124.73" height="22.6772"/>
			<path d="M11.34 537.67 L113.39 537.67 A11.3384 11.3384 -180 0 0 124.72 526.33 A11.3384 11.3384 -180 0 0 113.39 514.99
						 L11.34 514.99 A11.3384 11.3384 -180 0 0 0 526.33 A11.3384 11.3384 -180 0 0 11.34 537.67 Z" class="st1"/>
			<text x="54.89" y="529.03" class="st3" v:langID="1033"><v:paragraph v:horizAlign="1"/><v:tabList/>End</text>		</g>
		<g id="shape939-21" v:mID="939" v:groupContext="shape" transform="translate(160.083,-417.367)">
			<title>Rounded Rectangle.939</title>
			<desc>Get NOAA file</desc>
			<v:userDefs>
				<v:ud v:nameU="CTypeTopLeftSnip" v:prompt="" v:val="VT0(0):5"/>
				<v:ud v:nameU="CTypeTopRightSnip" v:prompt="" v:val="VT0(0):5"/>
				<v:ud v:nameU="CTypeBotLeftSnip" v:prompt="" v:val="VT0(0):5"/>
				<v:ud v:nameU="CTypeBotRightSnip" v:prompt="" v:val="VT0(0):5"/>
				<v:ud v:nameU="CornerLockHoriz" v:prompt="" v:val="VT0(1):5"/>
				<v:ud v:nameU="CornerLockVert" v:prompt="" v:val="VT0(1):5"/>
				<v:ud v:nameU="CornerLockDiag" v:prompt="" v:val="VT0(0):5"/>
				<v:ud v:nameU="TopLeftOffset" v:prompt="" v:val="VT0(0.15748031496063):24"/>
				<v:ud v:nameU="TopRightOffset" v:prompt="" v:val="VT0(0.15748031496063):24"/>
				<v:ud v:nameU="BotLeftOffset" v:prompt="" v:val="VT0(0.15748031496063):24"/>
				<v:ud v:nameU="BotRightOffset" v:prompt="" v:val="VT0(0.15748031496063):24"/>
				<v:ud v:nameU="visVersion" v:prompt="" v:val="VT0(15):26"/>
				<v:ud v:nameU="TopLeftOffset" v:prompt="" v:val="VT0(0.15748031969087):1"/>
				<v:ud v:nameU="TopRightOffset" v:prompt="" v:val="VT0(0.15748031969087):1"/>
				<v:ud v:nameU="BotLeftOffset" v:prompt="" v:val="VT0(0.15748031969087):1"/>
				<v:ud v:nameU="BotRightOffset" v:prompt="" v:val="VT0(0.15748031969087):1"/>
			</v:userDefs>
			<v:textBlock v:margins="rect(4,4,4,4)" v:tabSpace="42.5197"/>
			<v:textRect cx="62.3622" cy="526.331" width="124.73" height="22.6772"/>
			<path d="M11.34 537.67 L113.39 537.67 A11.3384 11.3384 -180 0 0 124.72 526.33 A11.3384 11.3384 -180 0 0 113.39 514.99
						 L11.34 514.99 A11.3384 11.3384 -180 0 0 -0 526.33 A11.3384 11.3384 -180 0 0 11.34 537.67 Z" class="st9"/>
			<text x="34.43" y="529.03" class="st3" v:langID="1033"><v:paragraph v:horizAlign="1" v:bulletSize="0.166667"/><v:tabList/>Get NOAA file</text>		</g>
		<g id="shape943-26" v:mID="943" v:groupContext="shape" transform="translate(160.083,-379.362)">
			<title>Rounded Rectangle.943</title>
			<desc>oni.ascii.txt</desc>
			<v:userDefs>
				<v:ud v:nameU="CTypeTopLeftSnip" v:prompt="" v:val="VT0(0):5"/>
				<v:ud v:nameU="CTypeTopRightSnip" v:prompt="" v:val="VT0(0):5"/>
				<v:ud v:nameU="CTypeBotLeftSnip" v:prompt="" v:val="VT0(0):5"/>
				<v:ud v:nameU="CTypeBotRightSnip" v:prompt="" v:val="VT0(0):5"/>
				<v:ud v:nameU="CornerLockHoriz" v:prompt="" v:val="VT0(1):5"/>
				<v:ud v:nameU="CornerLockVert" v:prompt="" v:val="VT0(1):5"/>
				<v:ud v:nameU="CornerLockDiag" v:prompt="" v:val="VT0(0):5"/>
				<v:ud v:nameU="TopLeftOffset" v:prompt="" v:val="VT0(0.15748031496063):24"/>
				<v:ud v:nameU="TopRightOffset" v:prompt="" v:val="VT0(0.15748031496063):24"/>
				<v:ud v:nameU="BotLeftOffset" v:prompt="" v:val="VT0(0.15748031496063):24"/>
				<v:ud v:nameU="BotRightOffset" v:prompt="" v:val="VT0(0.15748031496063):24"/>
				<v:ud v:nameU="visVersion" v:prompt="" v:val="VT0(15):26"/>
			</v:userDefs>
			<v:textBlock v:margins="rect(4,4,4,4)" v:tabSpace="42.5197"/>
			<v:textRect cx="62.3622" cy="526.331" width="124.73" height="22.6772"/>
			<path d="M11.34 537.67 L113.39 537.67 A11.3384 11.3384 -180 0 0 124.72 526.33 A11.3384 11.3384 -180 0 0 113.39 514.99
						 L11.34 514.99 A11.3384 11.3384 -180 0 0 0 526.33 A11.3384 11.3384 -180 0 0 11.34 537.67 Z" class="st11"/>
			<text x="40.57" y="529.03" class="st3" v:langID="1033"><v:paragraph v:horizAlign="1"/><v:tabList/>oni.ascii.txt</text>		</g>
		<g id="shape944-31" v:mID="944" v:groupContext="shape" transform="translate(160.083,-341.358)">
			<title>Rounded Rectangle.944</title>
			<desc>Pandas dataframe Plot Historic &#38; Anomalies</desc>
			<v:userDefs>
				<v:ud v:nameU="CTypeTopLeftSnip" v:prompt="" v:val="VT0(0):5"/>
				<v:ud v:nameU="CTypeTopRightSnip" v:prompt="" v:val="VT0(0):5"/>
				<v:ud v:nameU="CTypeBotLeftSnip" v:prompt="" v:val="VT0(0):5"/>
				<v:ud v:nameU="CTypeBotRightSnip" v:prompt="" v:val="VT0(0):5"/>
				<v:ud v:nameU="CornerLockHoriz" v:prompt="" v:val="VT0(1):5"/>
				<v:ud v:nameU="CornerLockVert" v:prompt="" v:val="VT0(1):5"/>
				<v:ud v:nameU="CornerLockDiag" v:prompt="" v:val="VT0(0):5"/>
				<v:ud v:nameU="TopLeftOffset" v:prompt="" v:val="VT0(0.15748031496063):24"/>
				<v:ud v:nameU="TopRightOffset" v:prompt="" v:val="VT0(0.15748031496063):24"/>
				<v:ud v:nameU="BotLeftOffset" v:prompt="" v:val="VT0(0.15748031496063):24"/>
				<v:ud v:nameU="BotRightOffset" v:prompt="" v:val="VT0(0.15748031496063):24"/>
				<v:ud v:nameU="visVersion" v:prompt="" v:val="VT0(15):26"/>
				<v:ud v:nameU="TopLeftOffset" v:prompt="" v:val="VT0(0.15748031969087):1"/>
				<v:ud v:nameU="TopRightOffset" v:prompt="" v:val="VT0(0.15748031969087):1"/>
				<v:ud v:nameU="BotLeftOffset" v:prompt="" v:val="VT0(0.15748031969087):1"/>
				<v:ud v:nameU="BotRightOffset" v:prompt="" v:val="VT0(0.15748031969087):1"/>
			</v:userDefs>
			<v:textBlock v:margins="rect(4,4,4,4)" v:tabSpace="42.5197"/>
			<v:textRect cx="62.3622" cy="526.331" width="124.73" height="22.6772"/>
			<path d="M11.34 537.67 L113.39 537.67 A11.3384 11.3384 -180 0 0 124.72 526.33 A11.3384 11.3384 -180 0 0 113.39 514.99
						 L11.34 514.99 A11.3384 11.3384 -180 0 0 -0 526.33 A11.3384 11.3384 -180 0 0 11.34 537.67 Z" class="st9"/>
			<text x="26.68" y="523.63" class="st3" v:langID="1033"><v:paragraph v:horizAlign="1" v:bulletSize="0.166667"/><v:tabList/>Pandas dataframe<v:newlineChar/><tspan
						x="11.51" dy="1.2em" class="st13">Plot Historic &#38; Anomalies</tspan></text>		</g>
		<g id="shape945-36" v:mID="945" v:groupContext="shape" v:layerMember="0" transform="translate(215.359,-455.371)">
			<title>Dynamic connector.945</title>
			<v:userDefs>
				<v:ud v:nameU="visVersion" v:val="VT0(15):26"/>
			</v:userDefs>
			<path d="M7.09 537.67 C7.09 540.33 7.09 544.84 7.09 548.63" class="st7"/>
		</g>
		<g id="shape946-41" v:mID="946" v:groupContext="shape" v:layerMember="0" transform="translate(215.359,-417.367)">
			<title>Dynamic connector.946</title>
			<v:userDefs>
				<v:ud v:nameU="visVersion" v:val="VT0(15):26"/>
			</v:userDefs>
			<path d="M7.09 537.67 C7.09 540.33 7.09 544.84 7.09 548.63" class="st7"/>
		</g>
		<g id="shape947-46" v:mID="947" v:groupContext="shape" v:layerMember="0" transform="translate(215.359,-379.362)">
			<title>Dynamic connector.947</title>
			<v:userDefs>
				<v:ud v:nameU="visVersion" v:val="VT0(15):26"/>
			</v:userDefs>
			<path d="M7.09 537.67 C7.09 540.33 7.09 544.84 7.09 548.63" class="st7"/>
		</g>
		<g id="shape949-51" v:mID="949" v:groupContext="shape" v:layerMember="1" transform="translate(113.134,-267.347)">
			<title>Decision 2.949</title>
			<desc>Anom &#60;= - threshold each year</desc>
			<v:custProps>
				<v:cp v:nameU="Cost" v:lbl="Cost" v:type="7" v:format="@" v:langID="1033"/>
				<v:cp v:nameU="Duration" v:lbl="Duration" v:type="2" v:langID="1033"/>
				<v:cp v:nameU="Resources" v:lbl="Resources" v:langID="1033"/>
			</v:custProps>
			<v:userDefs>
				<v:ud v:nameU="visVersion" v:val="VT0(15):26"/>
			</v:userDefs>
			<v:textBlock v:margins="rect(4,4,4,4)" v:tabSpace="42.5197"/>
			<v:textRect cx="50.6693" cy="510.429" width="76.01" height="47.6717"/>
			<path d="M0 510.43 L50.67 483.19 L101.34 510.43 L50.67 537.67 L0 510.43 Z" class="st9"/>
			<text x="28.29" y="502.19" class="st3" v:langID="1033"><v:paragraph v:horizAlign="1" v:bulletSize="0.166667"/><v:tabList/>Anom &#60;= - <tspan
						x="23.42" dy="1.2em" class="st14">threshold each </tspan><tspan x="42.67" dy="1.223em" class="st14">year</tspan></text>		</g>
		<g id="shape951-57" v:mID="951" v:groupContext="shape" transform="translate(9.84707,-283.611)">
			<title>Rounded Rectangle.951</title>
			<desc>nina_count += 1</desc>
			<v:userDefs>
				<v:ud v:nameU="CTypeTopLeftSnip" v:prompt="" v:val="VT0(0):5"/>
				<v:ud v:nameU="CTypeTopRightSnip" v:prompt="" v:val="VT0(0):5"/>
				<v:ud v:nameU="CTypeBotLeftSnip" v:prompt="" v:val="VT0(0):5"/>
				<v:ud v:nameU="CTypeBotRightSnip" v:prompt="" v:val="VT0(0):5"/>
				<v:ud v:nameU="CornerLockHoriz" v:prompt="" v:val="VT0(1):5"/>
				<v:ud v:nameU="CornerLockVert" v:prompt="" v:val="VT0(1):5"/>
				<v:ud v:nameU="CornerLockDiag" v:prompt="" v:val="VT0(0):5"/>
				<v:ud v:nameU="TopLeftOffset" v:prompt="" v:val="VT0(0.15748031496063):24"/>
				<v:ud v:nameU="TopRightOffset" v:prompt="" v:val="VT0(0.15748031496063):24"/>
				<v:ud v:nameU="BotLeftOffset" v:prompt="" v:val="VT0(0.15748031496063):24"/>
				<v:ud v:nameU="BotRightOffset" v:prompt="" v:val="VT0(0.15748031496063):24"/>
				<v:ud v:nameU="visVersion" v:prompt="" v:val="VT0(15):26"/>
				<v:ud v:nameU="TopLeftOffset" v:prompt="" v:val="VT0(0.15748031969087):1"/>
				<v:ud v:nameU="TopRightOffset" v:prompt="" v:val="VT0(0.15748031969087):1"/>
				<v:ud v:nameU="BotLeftOffset" v:prompt="" v:val="VT0(0.15748031969087):1"/>
				<v:ud v:nameU="BotRightOffset" v:prompt="" v:val="VT0(0.15748031969087):1"/>
			</v:userDefs>
			<v:textBlock v:margins="rect(4,4,4,4)" v:tabSpace="42.5197"/>
			<v:textRect cx="42.5197" cy="526.331" width="85.04" height="22.6772"/>
			<path d="M11.34 537.67 L73.7 537.67 A11.3384 11.3384 -180 0 0 85.04 526.33 A11.3384 11.3384 -180 0 0 73.7 514.99 L11.34
						 514.99 A11.3384 11.3384 -180 0 0 -0 526.33 A11.3384 11.3384 -180 0 0 11.34 537.67 Z" class="st9"/>
			<text x="9.8" y="529.03" class="st3" v:langID="1033"><v:paragraph v:horizAlign="1" v:bulletSize="0.166667"/><v:tabList/>nina_count += 1</text>		</g>
		<g id="shape953-61" v:mID="953" v:groupContext="shape" v:layerMember="0" transform="translate(113.134,-287.682)">
			<title>Dynamic connector.953</title>
			<desc>S</desc>
			<v:userDefs>
				<v:ud v:nameU="visVersion" v:val="VT0(15):26"/>
			</v:userDefs>
			<v:textBlock v:margins="rect(4,4,4,4)" v:tabSpace="42.5197"/>
			<v:textRect cx="-9.15357" cy="530.763" width="30" height="15.2035"/>
			<path d="M0 530.76 C-5.31 530.76 -7.09 530.76 -8.59 530.76 C-9.35 530.76 -10.04 530.76 -10.36 530.69 C-10.63 530.62 -10.63
						 530.5 -10.93 530.45 C-11.17 530.4 -11.63 530.4 -12.14 530.4 C-12.61 530.4 -13.12 530.4 -13.88 530.4"
					class="st7"/>
			<rect v:rectContext="textBkgnd" x="-10.7472" y="527.163" width="3.18741" height="7.20016" class="st15"/>
			<text x="-10.75" y="532.56" class="st16" v:langID="1033"><v:paragraph v:horizAlign="1"/><v:tabList/>S</text>		</g>
		<g id="shape954-68" v:mID="954" v:groupContext="shape" v:layerMember="0" transform="translate(222.445,-341.358)">
			<title>Dynamic connector.954</title>
			<v:userDefs>
				<v:ud v:nameU="visVersion" v:val="VT0(15):26"/>
			</v:userDefs>
			<path d="M0 537.67 C0 548.3 -14.7 548.3 -29.39 548.3 C-41.28 548.3 -53.17 548.3 -57.2 553.08 L-57.32 553.42"
					class="st17"/>
		</g>
		<g id="shape955-74" v:mID="955" v:groupContext="shape" v:layerMember="1" transform="translate(232.721,-267.347)">
			<title>Decision 2.955</title>
			<desc>Anom &#62;= threshold each year</desc>
			<v:custProps>
				<v:cp v:nameU="Cost" v:lbl="Cost" v:type="7" v:format="@" v:langID="1033"/>
				<v:cp v:nameU="Duration" v:lbl="Duration" v:type="2" v:langID="1033"/>
				<v:cp v:nameU="Resources" v:lbl="Resources" v:langID="1033"/>
			</v:custProps>
			<v:userDefs>
				<v:ud v:nameU="visVersion" v:val="VT0(15):26"/>
			</v:userDefs>
			<v:textBlock v:margins="rect(4,4,4,4)" v:tabSpace="42.5197"/>
			<v:textRect cx="50.6693" cy="510.429" width="76.01" height="47.6717"/>
			<path d="M0 510.43 L50.67 483.19 L101.34 510.43 L50.67 537.67 L0 510.43 Z" class="st9"/>
			<text x="31.32" y="502.19" class="st3" v:langID="1033"><v:paragraph v:horizAlign="1" v:bulletSize="0.166667"/><v:tabList/>Anom &#62;= <tspan
						x="23.42" dy="1.2em" class="st14">threshold each </tspan><tspan x="42.67" dy="1.223em" class="st14">year</tspan></text>		</g>
		<g id="shape956-80" v:mID="956" v:groupContext="shape" transform="translate(352.308,-283.249)">
			<title>Rounded Rectangle.956</title>
			<desc>nino_count += 1</desc>
			<v:userDefs>
				<v:ud v:nameU="CTypeTopLeftSnip" v:prompt="" v:val="VT0(0):5"/>
				<v:ud v:nameU="CTypeTopRightSnip" v:prompt="" v:val="VT0(0):5"/>
				<v:ud v:nameU="CTypeBotLeftSnip" v:prompt="" v:val="VT0(0):5"/>
				<v:ud v:nameU="CTypeBotRightSnip" v:prompt="" v:val="VT0(0):5"/>
				<v:ud v:nameU="CornerLockHoriz" v:prompt="" v:val="VT0(1):5"/>
				<v:ud v:nameU="CornerLockVert" v:prompt="" v:val="VT0(1):5"/>
				<v:ud v:nameU="CornerLockDiag" v:prompt="" v:val="VT0(0):5"/>
				<v:ud v:nameU="TopLeftOffset" v:prompt="" v:val="VT0(0.15748031496063):24"/>
				<v:ud v:nameU="TopRightOffset" v:prompt="" v:val="VT0(0.15748031496063):24"/>
				<v:ud v:nameU="BotLeftOffset" v:prompt="" v:val="VT0(0.15748031496063):24"/>
				<v:ud v:nameU="BotRightOffset" v:prompt="" v:val="VT0(0.15748031496063):24"/>
				<v:ud v:nameU="visVersion" v:prompt="" v:val="VT0(15):26"/>
				<v:ud v:nameU="TopLeftOffset" v:prompt="" v:val="VT0(0.15748031969087):1"/>
				<v:ud v:nameU="TopRightOffset" v:prompt="" v:val="VT0(0.15748031969087):1"/>
				<v:ud v:nameU="BotLeftOffset" v:prompt="" v:val="VT0(0.15748031969087):1"/>
				<v:ud v:nameU="BotRightOffset" v:prompt="" v:val="VT0(0.15748031969087):1"/>
			</v:userDefs>
			<v:textBlock v:margins="rect(4,4,4,4)" v:tabSpace="42.5197"/>
			<v:textRect cx="42.5197" cy="526.331" width="85.04" height="22.6772"/>
			<path d="M11.34 537.67 L73.7 537.67 A11.3384 11.3384 -180 0 0 85.04 526.33 A11.3384 11.3384 -180 0 0 73.7 514.99 L11.34
						 514.99 A11.3384 11.3384 -180 0 0 -0 526.33 A11.3384 11.3384 -180 0 0 11.34 537.67 Z" class="st9"/>
			<text x="9.45" y="529.03" class="st3" v:langID="1033"><v:paragraph v:horizAlign="1" v:bulletSize="0.166667"/><v:tabList/>nino_count += 1</text>		</g>
		<g id="shape957-84" v:mID="957" v:groupContext="shape" v:layerMember="0" transform="translate(334.06,-287.501)">
			<title>Dynamic connector.957</title>
			<desc>S</desc>
			<v:userDefs>
				<v:ud v:nameU="visVersion" v:val="VT0(15):26"/>
			</v:userDefs>
			<v:textBlock v:margins="rect(4,4,4,4)" v:tabSpace="42.5197"/>
			<v:textRect cx="9.12402" cy="530.583" width="30" height="15.2035"/>
			<path d="M0 530.58 C3.37 530.58 9.21 530.58 13.88 530.58" class="st7"/>
			<rect v:rectContext="textBkgnd" x="7.53036" y="526.983" width="3.18741" height="7.20016" class="st15"/>
			<text x="7.53" y="532.38" class="st16" v:langID="1033"><v:paragraph v:horizAlign="1"/><v:tabList/>S</text>		</g>
		<g id="shape958-91" v:mID="958" v:groupContext="shape" v:layerMember="0" transform="translate(163.804,-267.347)">
			<title>Dynamic connector.958</title>
			<desc>N</desc>
			<v:userDefs>
				<v:ud v:nameU="visVersion" v:val="VT0(15):26"/>
			</v:userDefs>
			<v:textBlock v:margins="rect(4,4,4,4)" v:tabSpace="42.5197"/>
			<v:textRect cx="31.639" cy="548.303" width="30" height="15.2035"/>
			<path d="M0 537.67 C-0 548.3 14.48 548.3 28.96 548.3 C42.42 548.3 55.87 548.3 58.27 561.04 L58.3 561.4" class="st17"/>
			<rect v:rectContext="textBkgnd" x="29.395" y="544.704" width="4.48819" height="7.20016" class="st15"/>
			<text x="29.39" y="550.1" class="st16" v:langID="1033"><v:paragraph v:horizAlign="1"/><v:tabList/>N</text>		</g>
		<g id="shape959-98" v:mID="959" v:groupContext="shape" transform="translate(167.17,-216.947)">
			<title>Rounded Rectangle.959</title>
			<desc>neutral_count = 12 - nina_count - nino_count</desc>
			<v:userDefs>
				<v:ud v:nameU="CTypeTopLeftSnip" v:prompt="" v:val="VT0(0):5"/>
				<v:ud v:nameU="CTypeTopRightSnip" v:prompt="" v:val="VT0(0):5"/>
				<v:ud v:nameU="CTypeBotLeftSnip" v:prompt="" v:val="VT0(0):5"/>
				<v:ud v:nameU="CTypeBotRightSnip" v:prompt="" v:val="VT0(0):5"/>
				<v:ud v:nameU="CornerLockHoriz" v:prompt="" v:val="VT0(1):5"/>
				<v:ud v:nameU="CornerLockVert" v:prompt="" v:val="VT0(1):5"/>
				<v:ud v:nameU="CornerLockDiag" v:prompt="" v:val="VT0(0):5"/>
				<v:ud v:nameU="TopLeftOffset" v:prompt="" v:val="VT0(0.15748031496063):24"/>
				<v:ud v:nameU="TopRightOffset" v:prompt="" v:val="VT0(0.15748031496063):24"/>
				<v:ud v:nameU="BotLeftOffset" v:prompt="" v:val="VT0(0.15748031496063):24"/>
				<v:ud v:nameU="BotRightOffset" v:prompt="" v:val="VT0(0.15748031496063):24"/>
				<v:ud v:nameU="visVersion" v:prompt="" v:val="VT0(15):26"/>
				<v:ud v:nameU="TopLeftOffset" v:prompt="" v:val="VT0(0.15748031969087):1"/>
				<v:ud v:nameU="TopRightOffset" v:prompt="" v:val="VT0(0.15748031969087):1"/>
				<v:ud v:nameU="BotLeftOffset" v:prompt="" v:val="VT0(0.15748031969087):1"/>
				<v:ud v:nameU="BotRightOffset" v:prompt="" v:val="VT0(0.15748031969087):1"/>
			</v:userDefs>
			<v:textBlock v:margins="rect(4,4,4,4)" v:tabSpace="42.5197"/>
			<v:textRect cx="55.2756" cy="526.331" width="110.56" height="22.6772"/>
			<path d="M11.34 537.67 L99.21 537.67 A11.3384 11.3384 -180 0 0 110.55 526.33 A11.3384 11.3384 -180 0 0 99.21 514.99 L11.34
						 514.99 A11.3384 11.3384 -180 0 0 -0 526.33 A11.3384 11.3384 -180 0 0 11.34 537.67 Z" class="st9"/>
			<text x="14.73" y="523.63" class="st3" v:langID="1033"><v:paragraph v:horizAlign="1" v:bulletSize="0.166667"/><v:tabList/>neutral_count = 12 - <tspan
						x="7.32" dy="1.2em" class="st13">nina_count </tspan>- nino_count</text>		</g>
		<g id="shape960-103" v:mID="960" v:groupContext="shape" v:layerMember="0" transform="translate(283.39,-267.347)">
			<title>Dynamic connector.960</title>
			<desc>N</desc>
			<v:userDefs>
				<v:ud v:nameU="visVersion" v:val="VT0(15):26"/>
			</v:userDefs>
			<v:textBlock v:margins="rect(4,4,4,4)" v:tabSpace="42.5197"/>
			<v:textRect cx="-32.77" cy="548.303" width="30" height="15.2035"/>
			<path d="M0 537.67 C0 548.3 -15.06 548.3 -30.12 548.3 C-44.1 548.3 -58.07 548.3 -60.56 561.04 L-60.59 561.4"
					class="st17"/>
			<rect v:rectContext="textBkgnd" x="-35.014" y="544.703" width="4.48819" height="7.20016" class="st18"/>
			<text x="-35.01" y="550.1" class="st16" v:langID="1033"><v:paragraph v:horizAlign="1"/><v:tabList/>N</text>		</g>
		<g id="shape961-110" v:mID="961" v:groupContext="shape" v:layerMember="0" transform="translate(52.3668,-283.611)">
			<title>Dynamic connector.961</title>
			<v:userDefs>
				<v:ud v:nameU="visVersion" v:val="VT0(15):26"/>
			</v:userDefs>
			<path d="M0 537.67 C0 571.03 37.14 571.03 64.37 571.03 C99.5 571.03 118.16 571.03 143.21 571.03 C153.86 571.03 165.66
						 571.03 169.09 577.4 L169.17 577.76" class="st17"/>
		</g>
		<g id="shape962-115" v:mID="962" v:groupContext="shape" v:layerMember="0" transform="translate(394.827,-283.249)">
			<title>Dynamic connector.962</title>
			<v:userDefs>
				<v:ud v:nameU="visVersion" v:val="VT0(15):26"/>
			</v:userDefs>
			<path d="M0 537.67 C0 570.66 -37.61 570.66 -65.19 570.66 C-100.84 570.66 -119.75 570.66 -145.15 570.66 C-155.94 570.66
						 -167.9 570.66 -171.38 577.05 L-171.47 577.4" class="st17"/>
		</g>
		<g id="shape963-120" v:mID="963" v:groupContext="shape" transform="translate(160.083,-43.581)">
			<title>Rounded Rectangle.963</title>
			<desc>Dataframe to .csv Plot results</desc>
			<v:userDefs>
				<v:ud v:nameU="CTypeTopLeftSnip" v:prompt="" v:val="VT0(0):5"/>
				<v:ud v:nameU="CTypeTopRightSnip" v:prompt="" v:val="VT0(0):5"/>
				<v:ud v:nameU="CTypeBotLeftSnip" v:prompt="" v:val="VT0(0):5"/>
				<v:ud v:nameU="CTypeBotRightSnip" v:prompt="" v:val="VT0(0):5"/>
				<v:ud v:nameU="CornerLockHoriz" v:prompt="" v:val="VT0(1):5"/>
				<v:ud v:nameU="CornerLockVert" v:prompt="" v:val="VT0(1):5"/>
				<v:ud v:nameU="CornerLockDiag" v:prompt="" v:val="VT0(0):5"/>
				<v:ud v:nameU="TopLeftOffset" v:prompt="" v:val="VT0(0.15748031496063):24"/>
				<v:ud v:nameU="TopRightOffset" v:prompt="" v:val="VT0(0.15748031496063):24"/>
				<v:ud v:nameU="BotLeftOffset" v:prompt="" v:val="VT0(0.15748031496063):24"/>
				<v:ud v:nameU="BotRightOffset" v:prompt="" v:val="VT0(0.15748031496063):24"/>
				<v:ud v:nameU="visVersion" v:prompt="" v:val="VT0(15):26"/>
				<v:ud v:nameU="TopLeftOffset" v:prompt="" v:val="VT0(0.15748031969087):1"/>
				<v:ud v:nameU="TopRightOffset" v:prompt="" v:val="VT0(0.15748031969087):1"/>
				<v:ud v:nameU="BotLeftOffset" v:prompt="" v:val="VT0(0.15748031969087):1"/>
				<v:ud v:nameU="BotRightOffset" v:prompt="" v:val="VT0(0.15748031969087):1"/>
			</v:userDefs>
			<v:textBlock v:margins="rect(4,4,4,4)" v:tabSpace="42.5197"/>
			<v:textRect cx="62.3622" cy="526.331" width="124.73" height="22.6772"/>
			<path d="M11.34 537.67 L113.39 537.67 A11.3384 11.3384 -180 0 0 124.72 526.33 A11.3384 11.3384 -180 0 0 113.39 514.99
						 L11.34 514.99 A11.3384 11.3384 -180 0 0 -0 526.33 A11.3384 11.3384 -180 0 0 11.34 537.67 Z" class="st9"/>
			<text x="27.87" y="523.63" class="st3" v:langID="1033"><v:paragraph v:horizAlign="1" v:bulletSize="0.166667"/><v:tabList/>Dataframe to .csv<v:newlineChar/><tspan
						x="40.46" dy="1.2em" class="st13">Plot results</tspan></text>		</g>
		<g id="shape965-125" v:mID="965" v:groupContext="shape" v:layerMember="0" transform="translate(215.359,-45.1392)">
			<title>Dynamic connector.965</title>
			<v:userDefs>
				<v:ud v:nameU="visVersion" v:val="VT0(15):26"/>
			</v:userDefs>
			<path d="M7.09 539.23 C7.09 540.87 7.09 543.49 7.09 545.92" class="st7"/>
		</g>
		<g id="shape966-130" v:mID="966" v:groupContext="shape" transform="translate(141.038,-517.42)">
			<title>Sheet.966</title>
			<desc>Non-consecutive count analysis</desc>
			<v:textBlock v:margins="rect(4,4,4,4)" v:tabSpace="42.5197"/>
			<v:textRect cx="81.4075" cy="527.67" width="162.82" height="20"/>
			<rect x="0" y="517.67" width="162.815" height="20" class="st19"/>
			<text x="18.68" y="530.37" class="st3" v:langID="1033"><v:paragraph v:horizAlign="1"/><v:tabList/>Non-consecutive count analysis</text>		</g>
		<g id="shape967-133" v:mID="967" v:groupContext="shape" v:layerMember="1" transform="translate(236.619,-137.124)">
			<title>Decision 2.967</title>
			<desc>nino_count &#62;= consecutive_event per year</desc>
			<v:custProps>
				<v:cp v:nameU="Cost" v:lbl="Cost" v:type="7" v:format="@" v:langID="1033"/>
				<v:cp v:nameU="Duration" v:lbl="Duration" v:type="2" v:langID="1033"/>
				<v:cp v:nameU="Resources" v:lbl="Resources" v:langID="1033"/>
			</v:custProps>
			<v:userDefs>
				<v:ud v:nameU="visVersion" v:val="VT0(15):26"/>
			</v:userDefs>
			<v:textBlock v:margins="rect(4,4,4,4)" v:tabSpace="42.5197"/>
			<v:textRect cx="50.6693" cy="510.429" width="76.01" height="47.6717"/>
			<path d="M0 510.43 L50.67 483.19 L101.34 510.43 L50.67 537.67 L0 510.43 Z" class="st9"/>
			<text x="21.26" y="502.33" class="st3" v:langID="1033"><v:paragraph v:horizAlign="1" v:bulletSize="0.166667"/><v:tabList/>nino_count &#62;= <tspan
						x="18.67" dy="1.2em" class="st13">consecutive_eve</tspan><tspan x="29.18" dy="1.2em" class="st13">nt per year</tspan></text>		</g>
		<g id="shape970-139" v:mID="970" v:groupContext="shape" transform="translate(358.154,-153.027)">
			<title>Rounded Rectangle.970</title>
			<desc>Year = Ni単o</desc>
			<v:userDefs>
				<v:ud v:nameU="CTypeTopLeftSnip" v:prompt="" v:val="VT0(0):5"/>
				<v:ud v:nameU="CTypeTopRightSnip" v:prompt="" v:val="VT0(0):5"/>
				<v:ud v:nameU="CTypeBotLeftSnip" v:prompt="" v:val="VT0(0):5"/>
				<v:ud v:nameU="CTypeBotRightSnip" v:prompt="" v:val="VT0(0):5"/>
				<v:ud v:nameU="CornerLockHoriz" v:prompt="" v:val="VT0(1):5"/>
				<v:ud v:nameU="CornerLockVert" v:prompt="" v:val="VT0(1):5"/>
				<v:ud v:nameU="CornerLockDiag" v:prompt="" v:val="VT0(0):5"/>
				<v:ud v:nameU="TopLeftOffset" v:prompt="" v:val="VT0(0.15748031496063):24"/>
				<v:ud v:nameU="TopRightOffset" v:prompt="" v:val="VT0(0.15748031496063):24"/>
				<v:ud v:nameU="BotLeftOffset" v:prompt="" v:val="VT0(0.15748031496063):24"/>
				<v:ud v:nameU="BotRightOffset" v:prompt="" v:val="VT0(0.15748031496063):24"/>
				<v:ud v:nameU="visVersion" v:prompt="" v:val="VT0(15):26"/>
				<v:ud v:nameU="TopLeftOffset" v:prompt="" v:val="VT0(0.15748031969087):1"/>
				<v:ud v:nameU="TopRightOffset" v:prompt="" v:val="VT0(0.15748031969087):1"/>
				<v:ud v:nameU="BotLeftOffset" v:prompt="" v:val="VT0(0.15748031969087):1"/>
				<v:ud v:nameU="BotRightOffset" v:prompt="" v:val="VT0(0.15748031969087):1"/>
			</v:userDefs>
			<v:textBlock v:margins="rect(4,4,4,4)" v:tabSpace="42.5197"/>
			<v:textRect cx="42.5197" cy="526.331" width="85.04" height="22.6772"/>
			<path d="M11.34 537.67 L73.7 537.67 A11.3384 11.3384 -180 0 0 85.04 526.33 A11.3384 11.3384 -180 0 0 73.7 514.99 L11.34
						 514.99 A11.3384 11.3384 -180 0 0 -0 526.33 A11.3384 11.3384 -180 0 0 11.34 537.67 Z" class="st9"/>
			<text x="18.64" y="529.03" class="st3" v:langID="1033"><v:paragraph v:horizAlign="1" v:bulletSize="0.166667"/><v:tabList/>Year = Ni単o</text>		</g>
		<g id="shape971-143" v:mID="971" v:groupContext="shape" v:layerMember="0" transform="translate(337.957,-157.279)">
			<title>Dynamic connector.971</title>
			<desc>S</desc>
			<v:userDefs>
				<v:ud v:nameU="visVersion" v:val="VT0(15):26"/>
			</v:userDefs>
			<v:textBlock v:margins="rect(4,4,4,4)" v:tabSpace="42.5197"/>
			<v:textRect cx="10.0984" cy="530.583" width="30" height="15.2035"/>
			<path d="M0 530.58 C3.84 530.58 10.59 530.58 15.83 530.58" class="st7"/>
			<rect v:rectContext="textBkgnd" x="8.50477" y="526.983" width="3.18741" height="7.20016" class="st18"/>
			<text x="8.5" y="532.38" class="st16" v:langID="1033"><v:paragraph v:horizAlign="1"/><v:tabList/>S</text>		</g>
		<g id="shape972-150" v:mID="972" v:groupContext="shape" v:layerMember="0" transform="translate(222.445,-216.947)">
			<title>Dynamic connector.972</title>
			<v:userDefs>
				<v:ud v:nameU="visVersion" v:val="VT0(15):26"/>
			</v:userDefs>
			<path d="M0 537.67 C0 548.3 16.11 548.3 32.23 548.3 C46.75 548.3 61.27 548.3 64.28 558.68 L64.32 559.04" class="st17"/>
		</g>
		<g id="shape973-155" v:mID="973" v:groupContext="shape" v:layerMember="1" transform="translate(115.083,-137.124)">
			<title>Decision 2.973</title>
			<desc>nina_count &#62;= consecutive_event per year</desc>
			<v:custProps>
				<v:cp v:nameU="Cost" v:lbl="Cost" v:type="7" v:format="@" v:langID="1033"/>
				<v:cp v:nameU="Duration" v:lbl="Duration" v:type="2" v:langID="1033"/>
				<v:cp v:nameU="Resources" v:lbl="Resources" v:langID="1033"/>
			</v:custProps>
			<v:userDefs>
				<v:ud v:nameU="visVersion" v:val="VT0(15):26"/>
			</v:userDefs>
			<v:textBlock v:margins="rect(4,4,4,4)" v:tabSpace="42.5197"/>
			<v:textRect cx="50.6693" cy="510.429" width="76.01" height="47.6717"/>
			<path d="M0 510.43 L50.67 483.19 L101.34 510.43 L50.67 537.67 L0 510.43 Z" class="st9"/>
			<text x="21.61" y="502.33" class="st3" v:langID="1033"><v:paragraph v:horizAlign="1" v:bulletSize="0.166667"/><v:tabList/>nina_count &#62;= <tspan
						x="18.67" dy="1.2em" class="st13">consecutive_eve</tspan><tspan x="29.18" dy="1.2em" class="st13">nt per year</tspan></text>		</g>
		<g id="shape974-161" v:mID="974" v:groupContext="shape" transform="translate(9.84707,-153.027)">
			<title>Rounded Rectangle.974</title>
			<desc>Year = Ni単a</desc>
			<v:userDefs>
				<v:ud v:nameU="CTypeTopLeftSnip" v:prompt="" v:val="VT0(0):5"/>
				<v:ud v:nameU="CTypeTopRightSnip" v:prompt="" v:val="VT0(0):5"/>
				<v:ud v:nameU="CTypeBotLeftSnip" v:prompt="" v:val="VT0(0):5"/>
				<v:ud v:nameU="CTypeBotRightSnip" v:prompt="" v:val="VT0(0):5"/>
				<v:ud v:nameU="CornerLockHoriz" v:prompt="" v:val="VT0(1):5"/>
				<v:ud v:nameU="CornerLockVert" v:prompt="" v:val="VT0(1):5"/>
				<v:ud v:nameU="CornerLockDiag" v:prompt="" v:val="VT0(0):5"/>
				<v:ud v:nameU="TopLeftOffset" v:prompt="" v:val="VT0(0.15748031496063):24"/>
				<v:ud v:nameU="TopRightOffset" v:prompt="" v:val="VT0(0.15748031496063):24"/>
				<v:ud v:nameU="BotLeftOffset" v:prompt="" v:val="VT0(0.15748031496063):24"/>
				<v:ud v:nameU="BotRightOffset" v:prompt="" v:val="VT0(0.15748031496063):24"/>
				<v:ud v:nameU="visVersion" v:prompt="" v:val="VT0(15):26"/>
				<v:ud v:nameU="TopLeftOffset" v:prompt="" v:val="VT0(0.15748031969087):1"/>
				<v:ud v:nameU="TopRightOffset" v:prompt="" v:val="VT0(0.15748031969087):1"/>
				<v:ud v:nameU="BotLeftOffset" v:prompt="" v:val="VT0(0.15748031969087):1"/>
				<v:ud v:nameU="BotRightOffset" v:prompt="" v:val="VT0(0.15748031969087):1"/>
			</v:userDefs>
			<v:textBlock v:margins="rect(4,4,4,4)" v:tabSpace="42.5197"/>
			<v:textRect cx="42.5197" cy="526.331" width="85.04" height="22.6772"/>
			<path d="M11.34 537.67 L73.7 537.67 A11.3384 11.3384 -180 0 0 85.04 526.33 A11.3384 11.3384 -180 0 0 73.7 514.99 L11.34
						 514.99 A11.3384 11.3384 -180 0 0 -0 526.33 A11.3384 11.3384 -180 0 0 11.34 537.67 Z" class="st9"/>
			<text x="18.99" y="529.03" class="st3" v:langID="1033"><v:paragraph v:horizAlign="1" v:bulletSize="0.166667"/><v:tabList/>Year = Ni単a</text>		</g>
		<g id="shape975-165" v:mID="975" v:groupContext="shape" v:layerMember="0" transform="translate(222.445,-216.947)">
			<title>Dynamic connector.975</title>
			<v:userDefs>
				<v:ud v:nameU="visVersion" v:val="VT0(15):26"/>
			</v:userDefs>
			<path d="M0 537.67 C-0 548.3 -14.06 548.3 -28.13 548.3 C-40.84 548.3 -53.55 548.3 -56.19 558.67 L-56.24 559.03"
					class="st17"/>
		</g>
		<g id="shape976-170" v:mID="976" v:groupContext="shape" v:layerMember="0" transform="translate(222.445,-341.358)">
			<title>Dynamic connector.976</title>
			<v:userDefs>
				<v:ud v:nameU="visVersion" v:val="VT0(15):26"/>
			</v:userDefs>
			<path d="M0 537.67 C0 548.3 15.27 548.3 30.54 548.3 C42.91 548.3 55.28 548.3 59.46 553.09 L59.58 553.43" class="st17"/>
		</g>
		<g id="shape979-175" v:mID="979" v:groupContext="shape" v:layerMember="0" transform="translate(115.083,-157.279)">
			<title>Dynamic connector.979</title>
			<desc>S</desc>
			<v:userDefs>
				<v:ud v:nameU="visVersion" v:val="VT0(15):26"/>
			</v:userDefs>
			<v:textBlock v:margins="rect(4,4,4,4)" v:tabSpace="42.5197"/>
			<v:textRect cx="-10.0984" cy="530.583" width="30" height="15.2035"/>
			<path d="M0 530.58 C-3.84 530.58 -10.59 530.58 -15.83 530.58" class="st7"/>
			<rect v:rectContext="textBkgnd" x="-11.6921" y="526.983" width="3.18741" height="7.20016" class="st18"/>
			<text x="-11.69" y="532.38" class="st16" v:langID="1033"><v:paragraph v:horizAlign="1"/><v:tabList/>S</text>		</g>
		<g id="shape981-182" v:mID="981" v:groupContext="shape" v:layerMember="0" transform="translate(165.753,-137.124)">
			<title>Dynamic connector.981</title>
			<desc>N</desc>
			<v:userDefs>
				<v:ud v:nameU="visVersion" v:val="VT0(15):26"/>
			</v:userDefs>
			<v:textBlock v:margins="rect(4,4,4,4)" v:tabSpace="42.5197"/>
			<v:textRect cx="30.9193" cy="548.305" width="30" height="15.2035"/>
			<path d="M0 537.67 C0 548.3 13.97 548.3 27.93 548.3 C41.02 548.3 54.11 548.3 56.36 561.66 L56.38 562.02" class="st17"/>
			<rect v:rectContext="textBkgnd" x="28.6752" y="544.706" width="4.48819" height="7.20016" class="st18"/>
			<text x="28.68" y="550.11" class="st16" v:langID="1033"><v:paragraph v:horizAlign="1"/><v:tabList/>N</text>		</g>
		<g id="shape982-189" v:mID="982" v:groupContext="shape" transform="translate(179.926,-86.1006)">
			<title>Rounded Rectangle.982</title>
			<desc>Year = Neutral</desc>
			<v:userDefs>
				<v:ud v:nameU="CTypeTopLeftSnip" v:prompt="" v:val="VT0(0):5"/>
				<v:ud v:nameU="CTypeTopRightSnip" v:prompt="" v:val="VT0(0):5"/>
				<v:ud v:nameU="CTypeBotLeftSnip" v:prompt="" v:val="VT0(0):5"/>
				<v:ud v:nameU="CTypeBotRightSnip" v:prompt="" v:val="VT0(0):5"/>
				<v:ud v:nameU="CornerLockHoriz" v:prompt="" v:val="VT0(1):5"/>
				<v:ud v:nameU="CornerLockVert" v:prompt="" v:val="VT0(1):5"/>
				<v:ud v:nameU="CornerLockDiag" v:prompt="" v:val="VT0(0):5"/>
				<v:ud v:nameU="TopLeftOffset" v:prompt="" v:val="VT0(0.15748031496063):24"/>
				<v:ud v:nameU="TopRightOffset" v:prompt="" v:val="VT0(0.15748031496063):24"/>
				<v:ud v:nameU="BotLeftOffset" v:prompt="" v:val="VT0(0.15748031496063):24"/>
				<v:ud v:nameU="BotRightOffset" v:prompt="" v:val="VT0(0.15748031496063):24"/>
				<v:ud v:nameU="visVersion" v:prompt="" v:val="VT0(15):26"/>
				<v:ud v:nameU="TopLeftOffset" v:prompt="" v:val="VT0(0.15748031969087):1"/>
				<v:ud v:nameU="TopRightOffset" v:prompt="" v:val="VT0(0.15748031969087):1"/>
				<v:ud v:nameU="BotLeftOffset" v:prompt="" v:val="VT0(0.15748031969087):1"/>
				<v:ud v:nameU="BotRightOffset" v:prompt="" v:val="VT0(0.15748031969087):1"/>
			</v:userDefs>
			<v:textBlock v:margins="rect(4,4,4,4)" v:tabSpace="42.5197"/>
			<v:textRect cx="42.5197" cy="526.331" width="85.04" height="22.6772"/>
			<path d="M11.34 537.67 L73.7 537.67 A11.3384 11.3384 -180 0 0 85.04 526.33 A11.3384 11.3384 -180 0 0 73.7 514.99 L11.34
						 514.99 A11.3384 11.3384 -180 0 0 -0 526.33 A11.3384 11.3384 -180 0 0 11.34 537.67 Z" class="st9"/>
			<text x="13.55" y="529.03" class="st3" v:langID="1033"><v:paragraph v:horizAlign="1" v:bulletSize="0.166667"/><v:tabList/>Year = Neutral</text>		</g>
		<g id="shape983-193" v:mID="983" v:groupContext="shape" v:layerMember="0" transform="translate(287.288,-137.124)">
			<title>Dynamic connector.983</title>
			<desc>N</desc>
			<v:userDefs>
				<v:ud v:nameU="visVersion" v:val="VT0(15):26"/>
			</v:userDefs>
			<v:textBlock v:margins="rect(4,4,4,4)" v:tabSpace="42.5197"/>
			<v:textRect cx="-34.9156" cy="548.303" width="30" height="15.2035"/>
			<path d="M0 537.67 C-0 548.3 -16.03 548.3 -32.05 548.3 C-46.98 548.3 -61.9 548.3 -64.46 561.67 L-64.49 562.03"
					class="st17"/>
			<rect v:rectContext="textBkgnd" x="-37.1596" y="544.703" width="4.48819" height="7.20016" class="st18"/>
			<text x="-37.16" y="550.1" class="st16" v:langID="1033"><v:paragraph v:horizAlign="1"/><v:tabList/>N</text>		</g>
		<g id="shape984-200" v:mID="984" v:groupContext="shape" v:layerMember="0" transform="translate(52.3668,-153.027)">
			<title>Dynamic connector.984</title>
			<v:userDefs>
				<v:ud v:nameU="visVersion" v:val="VT0(15):26"/>
			</v:userDefs>
			<path d="M0 537.67 C0 571.29 37.15 571.29 64.39 571.29 C99.51 571.29 118.16 571.29 143.21 571.29 C153.86 571.29 165.66
						 571.29 169.09 577.67 L169.17 578.02" class="st17"/>
		</g>
		<g id="shape985-205" v:mID="985" v:groupContext="shape" v:layerMember="0" transform="translate(400.674,-153.027)">
			<title>Dynamic connector.985</title>
			<v:userDefs>
				<v:ud v:nameU="visVersion" v:val="VT0(15):26"/>
			</v:userDefs>
			<path d="M0 537.67 C-0 571.29 -38.86 571.29 -67.38 571.29 C-104.25 571.29 -123.82 571.29 -150.08 571.29 C-161.24 571.29
						 -173.61 571.29 -177.2 577.68 L-177.29 578.03" class="st17"/>
		</g>
		<g id="shape986-210" v:mID="986" v:groupContext="shape" v:layerMember="0" transform="translate(215.359,-86.1006)">
			<title>Dynamic connector.986</title>
			<v:userDefs>
				<v:ud v:nameU="visVersion" v:val="VT0(15):26"/>
			</v:userDefs>
			<path d="M7.09 537.67 C7.09 541.42 7.09 548.01 7.09 553.15" class="st7"/>
		</g>
	</g>
</svg>
