<?xml version="1.0" encoding="UTF-8" standalone="no"?>
<!DOCTYPE svg PUBLIC "-//W3C//DTD SVG 1.1//EN" "http://www.w3.org/Graphics/SVG/1.1/DTD/svg11.dtd">
<!-- Generated by Microsoft Visio, SVG Export CNEStationFlowchart.svg Page-1 -->
<svg xmlns="http://www.w3.org/2000/svg" xmlns:xlink="http://www.w3.org/1999/xlink" xmlns:ev="http://www.w3.org/2001/xml-events"
		xmlns:v="http://schemas.microsoft.com/visio/2003/SVGExtensions/" width="6.24323in" height="7.21843in"
		viewBox="0 0 449.512 519.727" xml:space="preserve" color-interpolation-filters="sRGB" class="st17">
	<v:documentProperties v:langID="1033" v:metric="true" v:viewMarkup="false"/>

	<style type="text/css">
	<![CDATA[
		.st1 {fill:#f2f2f2;stroke:#4c85f4;stroke-width:1.5}
		.st2 {fill:#4c85f4;fill-opacity:1;stroke:#4c85f4;stroke-opacity:1;stroke-width:0.37313432835821}
		.st3 {fill:#000000;font-family:Segoe UI;font-size:0.75em}
		.st4 {fill:#f2f2f2;stroke:#696368;stroke-width:1.5}
		.st5 {fill:#696368;fill-opacity:1;stroke:#696368;stroke-opacity:1;stroke-width:0.37313432835821}
		.st6 {fill:#f2f2f2;stroke:#fbbc0e;stroke-width:1.5}
		.st7 {fill:#fbbc0e;fill-opacity:1;stroke:#fbbc0e;stroke-opacity:1;stroke-width:0.37313432835821}
		.st8 {marker-end:url(#mrkr6-21);stroke:#7f7f7f;stroke-linecap:round;stroke-linejoin:round;stroke-width:0.5}
		.st9 {fill:#7f7f7f;fill-opacity:1;stroke:#7f7f7f;stroke-opacity:1;stroke-width:0.25773195876289}
		.st10 {fill:#f2f2f2;stroke:#ea4d35;stroke-width:1.5}
		.st11 {fill:#ea4d35;fill-opacity:1;stroke:#ea4d35;stroke-opacity:1;stroke-width:0.37313432835821}
		.st12 {marker-end:url(#mrkr6-41);stroke:#7f7f7f;stroke-linecap:round;stroke-linejoin:round;stroke-width:0.5}
		.st13 {font-size:1em}
		.st14 {fill:#ffffff;stroke:none;stroke-linecap:butt}
		.st15 {fill:#3d64ac;font-family:Segoe UI;font-size:0.499992em}
		.st16 {fill:#ffffff;stroke:none;stroke-linecap:butt;stroke-width:7.2}
		.st17 {fill:none;fill-rule:evenodd;font-size:12px;overflow:visible;stroke-linecap:square;stroke-miterlimit:3}
	]]>
	</style>

	<defs id="Markers">
		<g id="lend6">
			<path d="M 2 1 L 0 0 L 2.01237 -1.00641 C 2.32921 -0.372876 2.32921 0.372869 2.01238 1.0064 " style="stroke:none"/>
		</g>
		<marker id="mrkr6-4" class="st2" v:arrowType="6" v:arrowSize="2" v:setback="6.03" refX="6.03" orient="auto"
				markerUnits="strokeWidth" overflow="visible">
			<use xlink:href="#lend6" transform="scale(2.68) "/>
		</marker>
		<marker id="mrkr6-9" class="st5" v:arrowType="6" v:arrowSize="2" v:setback="6.03" refX="6.03" orient="auto"
				markerUnits="strokeWidth" overflow="visible">
			<use xlink:href="#lend6" transform="scale(2.68) "/>
		</marker>
		<marker id="mrkr6-14" class="st7" v:arrowType="6" v:arrowSize="2" v:setback="6.03" refX="6.03" orient="auto"
				markerUnits="strokeWidth" overflow="visible">
			<use xlink:href="#lend6" transform="scale(2.68) "/>
		</marker>
		<marker id="mrkr6-21" class="st9" v:arrowType="6" v:arrowSize="0" v:setback="8.01" refX="-8.01" orient="auto"
				markerUnits="strokeWidth" overflow="visible">
			<use xlink:href="#lend6" transform="scale(-3.88,-3.88) "/>
		</marker>
		<marker id="mrkr6-34" class="st11" v:arrowType="6" v:arrowSize="2" v:setback="6.03" refX="6.03" orient="auto"
				markerUnits="strokeWidth" overflow="visible">
			<use xlink:href="#lend6" transform="scale(2.68) "/>
		</marker>
		<marker id="mrkr6-41" class="st9" v:arrowType="6" v:arrowSize="0" v:setback="8.73" refX="-8.73" orient="auto"
				markerUnits="strokeWidth" overflow="visible">
			<use xlink:href="#lend6" transform="scale(-3.88,-3.88) "/>
		</marker>
	</defs>
	<g v:mID="0" v:index="1" v:groupContext="foregroundPage">
		<title>Page-1</title>
		<v:pageProperties v:drawingScale="0.0393701" v:pageScale="0.0393701" v:drawingUnits="24" v:shadowOffsetX="8.50394"
				v:shadowOffsetY="-8.50394"/>
		<v:layer v:name="Connector" v:index="0"/>
		<v:layer v:name="Flowchart" v:index="1"/>
		<g id="shape347-1" v:mID="347" v:groupContext="shape" transform="translate(22.9724,-441.849)">
			<title>Rounded Rectangle.347</title>
			<desc>CNE IDEAM</desc>
			<v:userDefs>
				<v:ud v:nameU="CTypeTopLeftSnip" v:prompt="" v:val="VT0(0):5"/>
				<v:ud v:nameU="CTypeTopRightSnip" v:prompt="" v:val="VT0(0):5"/>
				<v:ud v:nameU="CTypeBotLeftSnip" v:prompt="" v:val="VT0(0):5"/>
				<v:ud v:nameU="CTypeBotRightSnip" v:prompt="" v:val="VT0(0):5"/>
				<v:ud v:nameU="CornerLockHoriz" v:prompt="" v:val="VT0(1):5"/>
				<v:ud v:nameU="CornerLockVert" v:prompt="" v:val="VT0(1):5"/>
				<v:ud v:nameU="CornerLockDiag" v:prompt="" v:val="VT0(0):5"/>
				<v:ud v:nameU="TopLeftOffset" v:prompt="" v:val="VT0(0.15748031496063):24"/>
				<v:ud v:nameU="TopRightOffset" v:prompt="" v:val="VT0(0.15748031496063):24"/>
				<v:ud v:nameU="BotLeftOffset" v:prompt="" v:val="VT0(0.15748031496063):24"/>
				<v:ud v:nameU="BotRightOffset" v:prompt="" v:val="VT0(0.15748031496063):24"/>
				<v:ud v:nameU="visVersion" v:prompt="" v:val="VT0(15):26"/>
			</v:userDefs>
			<v:textBlock v:margins="rect(4,4,4,4)" v:tabSpace="42.5197"/>
			<v:textRect cx="62.3622" cy="508.389" width="124.73" height="22.6772"/>
			<path d="M11.34 519.73 L113.39 519.73 A11.3384 11.3384 -180 0 0 124.72 508.39 A11.3384 11.3384 -180 0 0 113.39 497.05
						 L11.34 497.05 A11.3384 11.3384 -180 0 0 0 508.39 A11.3384 11.3384 -180 0 0 11.34 519.73 Z" class="st1"/>
			<text x="39.13" y="511.09" class="st3" v:langID="1033"><v:paragraph v:horizAlign="1"/><v:tabList/>CNE IDEAM</text>		</g>
		<g id="shape348-6" v:mID="348" v:groupContext="shape" transform="translate(168.957,-441.849)">
			<title>Rounded Rectangle.348</title>
			<desc>CNE OE</desc>
			<v:userDefs>
				<v:ud v:nameU="CTypeTopLeftSnip" v:prompt="" v:val="VT0(0):5"/>
				<v:ud v:nameU="CTypeTopRightSnip" v:prompt="" v:val="VT0(0):5"/>
				<v:ud v:nameU="CTypeBotLeftSnip" v:prompt="" v:val="VT0(0):5"/>
				<v:ud v:nameU="CTypeBotRightSnip" v:prompt="" v:val="VT0(0):5"/>
				<v:ud v:nameU="CornerLockHoriz" v:prompt="" v:val="VT0(1):5"/>
				<v:ud v:nameU="CornerLockVert" v:prompt="" v:val="VT0(1):5"/>
				<v:ud v:nameU="CornerLockDiag" v:prompt="" v:val="VT0(0):5"/>
				<v:ud v:nameU="TopLeftOffset" v:prompt="" v:val="VT0(0.15748031496063):24"/>
				<v:ud v:nameU="TopRightOffset" v:prompt="" v:val="VT0(0.15748031496063):24"/>
				<v:ud v:nameU="BotLeftOffset" v:prompt="" v:val="VT0(0.15748031496063):24"/>
				<v:ud v:nameU="BotRightOffset" v:prompt="" v:val="VT0(0.15748031496063):24"/>
				<v:ud v:nameU="visVersion" v:prompt="" v:val="VT0(15):26"/>
			</v:userDefs>
			<v:textBlock v:margins="rect(4,4,4,4)" v:tabSpace="42.5197"/>
			<v:textRect cx="62.3622" cy="508.389" width="124.73" height="22.6772"/>
			<path d="M11.34 519.73 L113.39 519.73 A11.3384 11.3384 -180 0 0 124.72 508.39 A11.3384 11.3384 -180 0 0 113.39 497.05
						 L11.34 497.05 A11.3384 11.3384 -180 0 0 0 508.39 A11.3384 11.3384 -180 0 0 11.34 519.73 Z" class="st4"/>
			<text x="47.03" y="511.09" class="st3" v:langID="1033"><v:paragraph v:horizAlign="1"/><v:tabList/>CNE OE</text>		</g>
		<g id="shape349-11" v:mID="349" v:groupContext="shape" transform="translate(95.9646,-487.203)">
			<title>Rounded Rectangle.349</title>
			<desc>Descargar CNE</desc>
			<v:userDefs>
				<v:ud v:nameU="CTypeTopLeftSnip" v:prompt="" v:val="VT0(0):5"/>
				<v:ud v:nameU="CTypeTopRightSnip" v:prompt="" v:val="VT0(0):5"/>
				<v:ud v:nameU="CTypeBotLeftSnip" v:prompt="" v:val="VT0(0):5"/>
				<v:ud v:nameU="CTypeBotRightSnip" v:prompt="" v:val="VT0(0):5"/>
				<v:ud v:nameU="CornerLockHoriz" v:prompt="" v:val="VT0(1):5"/>
				<v:ud v:nameU="CornerLockVert" v:prompt="" v:val="VT0(1):5"/>
				<v:ud v:nameU="CornerLockDiag" v:prompt="" v:val="VT0(0):5"/>
				<v:ud v:nameU="TopLeftOffset" v:prompt="" v:val="VT0(0.15748031496063):24"/>
				<v:ud v:nameU="TopRightOffset" v:prompt="" v:val="VT0(0.15748031496063):24"/>
				<v:ud v:nameU="BotLeftOffset" v:prompt="" v:val="VT0(0.15748031496063):24"/>
				<v:ud v:nameU="BotRightOffset" v:prompt="" v:val="VT0(0.15748031496063):24"/>
				<v:ud v:nameU="visVersion" v:prompt="" v:val="VT0(15):26"/>
			</v:userDefs>
			<v:textBlock v:margins="rect(4,4,4,4)" v:tabSpace="42.5197"/>
			<v:textRect cx="62.3622" cy="508.389" width="124.73" height="22.6772"/>
			<path d="M11.34 519.73 L113.39 519.73 A11.3384 11.3384 -180 0 0 124.72 508.39 A11.3384 11.3384 -180 0 0 113.39 497.05
						 L11.34 497.05 A11.3384 11.3384 -180 0 0 0 508.39 A11.3384 11.3384 -180 0 0 11.34 519.73 Z" class="st6"/>
			<text x="32.85" y="511.09" class="st3" v:langID="1033"><v:paragraph v:horizAlign="1"/><v:tabList/>Descargar CNE</text>		</g>
		<g id="shape350-16" v:mID="350" v:groupContext="shape" v:layerMember="0" transform="translate(158.327,-487.203)">
			<title>Dynamic connector.350</title>
			<v:userDefs>
				<v:ud v:nameU="visVersion" v:val="VT0(15):26"/>
			</v:userDefs>
			<path d="M0 519.73 C-0 530.36 18.22 530.36 36.44 530.36 C52.24 530.36 68.05 530.36 72.03 538.15 L72.11 538.5"
					class="st8"/>
		</g>
		<g id="shape351-22" v:mID="351" v:groupContext="shape" v:layerMember="0" transform="translate(158.327,-487.203)">
			<title>Dynamic connector.351</title>
			<v:userDefs>
				<v:ud v:nameU="visVersion" v:val="VT0(15):26"/>
			</v:userDefs>
			<path d="M0 519.73 C0 530.36 -18.22 530.36 -36.44 530.36 C-52.24 530.36 -68.05 530.36 -72.03 538.15 L-72.11 538.5"
					class="st8"/>
		</g>
		<g id="shape353-27" v:mID="353" v:groupContext="shape" transform="translate(314.941,-441.849)">
			<title>Rounded Rectangle.353</title>
			<desc>Zona Estudio Envelope</desc>
			<v:userDefs>
				<v:ud v:nameU="CTypeTopLeftSnip" v:prompt="" v:val="VT0(0):5"/>
				<v:ud v:nameU="CTypeTopRightSnip" v:prompt="" v:val="VT0(0):5"/>
				<v:ud v:nameU="CTypeBotLeftSnip" v:prompt="" v:val="VT0(0):5"/>
				<v:ud v:nameU="CTypeBotRightSnip" v:prompt="" v:val="VT0(0):5"/>
				<v:ud v:nameU="CornerLockHoriz" v:prompt="" v:val="VT0(1):5"/>
				<v:ud v:nameU="CornerLockVert" v:prompt="" v:val="VT0(1):5"/>
				<v:ud v:nameU="CornerLockDiag" v:prompt="" v:val="VT0(0):5"/>
				<v:ud v:nameU="TopLeftOffset" v:prompt="" v:val="VT0(0.15748031496063):24"/>
				<v:ud v:nameU="TopRightOffset" v:prompt="" v:val="VT0(0.15748031496063):24"/>
				<v:ud v:nameU="BotLeftOffset" v:prompt="" v:val="VT0(0.15748031496063):24"/>
				<v:ud v:nameU="BotRightOffset" v:prompt="" v:val="VT0(0.15748031496063):24"/>
				<v:ud v:nameU="visVersion" v:prompt="" v:val="VT0(15):26"/>
			</v:userDefs>
			<v:textBlock v:margins="rect(4,4,4,4)" v:tabSpace="42.5197"/>
			<v:textRect cx="62.3622" cy="508.389" width="124.73" height="22.6772"/>
			<path d="M11.34 519.73 L113.39 519.73 A11.3384 11.3384 -180 0 0 124.72 508.39 A11.3384 11.3384 -180 0 0 113.39 497.05
						 L11.34 497.05 A11.3384 11.3384 -180 0 0 0 508.39 A11.3384 11.3384 -180 0 0 11.34 519.73 Z" class="st1"/>
			<text x="17.17" y="511.09" class="st3" v:langID="1033"><v:paragraph v:horizAlign="1"/><v:tabList/>Zona Estudio Envelope</text>		</g>
		<g id="shape354-31" v:mID="354" v:groupContext="shape" transform="translate(168.957,-402.164)">
			<title>Rounded Rectangle.354</title>
			<desc>Display XY Data</desc>
			<v:userDefs>
				<v:ud v:nameU="CTypeTopLeftSnip" v:prompt="" v:val="VT0(0):5"/>
				<v:ud v:nameU="CTypeTopRightSnip" v:prompt="" v:val="VT0(0):5"/>
				<v:ud v:nameU="CTypeBotLeftSnip" v:prompt="" v:val="VT0(0):5"/>
				<v:ud v:nameU="CTypeBotRightSnip" v:prompt="" v:val="VT0(0):5"/>
				<v:ud v:nameU="CornerLockHoriz" v:prompt="" v:val="VT0(1):5"/>
				<v:ud v:nameU="CornerLockVert" v:prompt="" v:val="VT0(1):5"/>
				<v:ud v:nameU="CornerLockDiag" v:prompt="" v:val="VT0(0):5"/>
				<v:ud v:nameU="TopLeftOffset" v:prompt="" v:val="VT0(0.15748031496063):24"/>
				<v:ud v:nameU="TopRightOffset" v:prompt="" v:val="VT0(0.15748031496063):24"/>
				<v:ud v:nameU="BotLeftOffset" v:prompt="" v:val="VT0(0.15748031496063):24"/>
				<v:ud v:nameU="BotRightOffset" v:prompt="" v:val="VT0(0.15748031496063):24"/>
				<v:ud v:nameU="visVersion" v:prompt="" v:val="VT0(15):26"/>
			</v:userDefs>
			<v:textBlock v:margins="rect(4,4,4,4)" v:tabSpace="42.5197"/>
			<v:textRect cx="62.3622" cy="508.389" width="124.73" height="22.6772"/>
			<path d="M11.34 519.73 L113.39 519.73 A11.3384 11.3384 -180 0 0 124.72 508.39 A11.3384 11.3384 -180 0 0 113.39 497.05
						 L11.34 497.05 A11.3384 11.3384 -180 0 0 0 508.39 A11.3384 11.3384 -180 0 0 11.34 519.73 Z" class="st10"/>
			<text x="31.14" y="511.09" class="st3" v:langID="1033"><v:paragraph v:horizAlign="1"/><v:tabList/>Display XY Data</text>		</g>
		<g id="shape355-36" v:mID="355" v:groupContext="shape" v:layerMember="0" transform="translate(224.232,-441.849)">
			<title>Dynamic connector.355</title>
			<v:userDefs>
				<v:ud v:nameU="visVersion" v:val="VT0(15):26"/>
			</v:userDefs>
			<path d="M7.09 519.73 C7.09 522.79 7.09 528.07 7.09 532.37" class="st12"/>
		</g>
		<g id="shape356-42" v:mID="356" v:groupContext="shape" transform="translate(168.957,-362.479)">
			<title>Rounded Rectangle.356</title>
			<desc>CNE OE XY event</desc>
			<v:userDefs>
				<v:ud v:nameU="CTypeTopLeftSnip" v:prompt="" v:val="VT0(0):5"/>
				<v:ud v:nameU="CTypeTopRightSnip" v:prompt="" v:val="VT0(0):5"/>
				<v:ud v:nameU="CTypeBotLeftSnip" v:prompt="" v:val="VT0(0):5"/>
				<v:ud v:nameU="CTypeBotRightSnip" v:prompt="" v:val="VT0(0):5"/>
				<v:ud v:nameU="CornerLockHoriz" v:prompt="" v:val="VT0(1):5"/>
				<v:ud v:nameU="CornerLockVert" v:prompt="" v:val="VT0(1):5"/>
				<v:ud v:nameU="CornerLockDiag" v:prompt="" v:val="VT0(0):5"/>
				<v:ud v:nameU="TopLeftOffset" v:prompt="" v:val="VT0(0.15748031496063):24"/>
				<v:ud v:nameU="TopRightOffset" v:prompt="" v:val="VT0(0.15748031496063):24"/>
				<v:ud v:nameU="BotLeftOffset" v:prompt="" v:val="VT0(0.15748031496063):24"/>
				<v:ud v:nameU="BotRightOffset" v:prompt="" v:val="VT0(0.15748031496063):24"/>
				<v:ud v:nameU="visVersion" v:prompt="" v:val="VT0(15):26"/>
			</v:userDefs>
			<v:textBlock v:margins="rect(4,4,4,4)" v:tabSpace="42.5197"/>
			<v:textRect cx="62.3622" cy="508.389" width="124.73" height="22.6772"/>
			<path d="M11.34 519.73 L113.39 519.73 A11.3384 11.3384 -180 0 0 124.72 508.39 A11.3384 11.3384 -180 0 0 113.39 497.05
						 L11.34 497.05 A11.3384 11.3384 -180 0 0 0 508.39 A11.3384 11.3384 -180 0 0 11.34 519.73 Z" class="st1"/>
			<text x="28.49" y="511.09" class="st3" v:langID="1033"><v:paragraph v:horizAlign="1"/><v:tabList/>CNE OE XY event</text>		</g>
		<g id="shape357-46" v:mID="357" v:groupContext="shape" transform="translate(314.941,-402.164)">
			<title>Rounded Rectangle.357</title>
			<desc>Buffer 1/20 less width or height</desc>
			<v:userDefs>
				<v:ud v:nameU="CTypeTopLeftSnip" v:prompt="" v:val="VT0(0):5"/>
				<v:ud v:nameU="CTypeTopRightSnip" v:prompt="" v:val="VT0(0):5"/>
				<v:ud v:nameU="CTypeBotLeftSnip" v:prompt="" v:val="VT0(0):5"/>
				<v:ud v:nameU="CTypeBotRightSnip" v:prompt="" v:val="VT0(0):5"/>
				<v:ud v:nameU="CornerLockHoriz" v:prompt="" v:val="VT0(1):5"/>
				<v:ud v:nameU="CornerLockVert" v:prompt="" v:val="VT0(1):5"/>
				<v:ud v:nameU="CornerLockDiag" v:prompt="" v:val="VT0(0):5"/>
				<v:ud v:nameU="TopLeftOffset" v:prompt="" v:val="VT0(0.15748031496063):24"/>
				<v:ud v:nameU="TopRightOffset" v:prompt="" v:val="VT0(0.15748031496063):24"/>
				<v:ud v:nameU="BotLeftOffset" v:prompt="" v:val="VT0(0.15748031496063):24"/>
				<v:ud v:nameU="BotRightOffset" v:prompt="" v:val="VT0(0.15748031496063):24"/>
				<v:ud v:nameU="visVersion" v:prompt="" v:val="VT0(15):26"/>
			</v:userDefs>
			<v:textBlock v:margins="rect(4,4,4,4)" v:tabSpace="42.5197"/>
			<v:textRect cx="62.3622" cy="508.389" width="124.73" height="22.6772"/>
			<path d="M11.34 519.73 L113.39 519.73 A11.3384 11.3384 -180 0 0 124.72 508.39 A11.3384 11.3384 -180 0 0 113.39 497.05
						 L11.34 497.05 A11.3384 11.3384 -180 0 0 0 508.39 A11.3384 11.3384 -180 0 0 11.34 519.73 Z" class="st10"/>
			<text x="40.24" y="505.69" class="st3" v:langID="1033"><v:paragraph v:horizAlign="1"/><v:tabList/>Buffer 1/20<v:newlineChar/><tspan
						x="23.43" dy="1.2em" class="st13">less width or height</tspan></text>		</g>
		<g id="shape358-51" v:mID="358" v:groupContext="shape" v:layerMember="0" transform="translate(370.217,-441.849)">
			<title>Dynamic connector.358</title>
			<v:userDefs>
				<v:ud v:nameU="visVersion" v:val="VT0(15):26"/>
			</v:userDefs>
			<path d="M7.09 519.73 C7.09 522.79 7.09 528.07 7.09 532.37" class="st12"/>
		</g>
		<g id="shape359-56" v:mID="359" v:groupContext="shape" transform="translate(314.941,-362.479)">
			<title>Rounded Rectangle.359</title>
			<desc>Zona Estudio Buffer</desc>
			<v:userDefs>
				<v:ud v:nameU="CTypeTopLeftSnip" v:prompt="" v:val="VT0(0):5"/>
				<v:ud v:nameU="CTypeTopRightSnip" v:prompt="" v:val="VT0(0):5"/>
				<v:ud v:nameU="CTypeBotLeftSnip" v:prompt="" v:val="VT0(0):5"/>
				<v:ud v:nameU="CTypeBotRightSnip" v:prompt="" v:val="VT0(0):5"/>
				<v:ud v:nameU="CornerLockHoriz" v:prompt="" v:val="VT0(1):5"/>
				<v:ud v:nameU="CornerLockVert" v:prompt="" v:val="VT0(1):5"/>
				<v:ud v:nameU="CornerLockDiag" v:prompt="" v:val="VT0(0):5"/>
				<v:ud v:nameU="TopLeftOffset" v:prompt="" v:val="VT0(0.15748031496063):24"/>
				<v:ud v:nameU="TopRightOffset" v:prompt="" v:val="VT0(0.15748031496063):24"/>
				<v:ud v:nameU="BotLeftOffset" v:prompt="" v:val="VT0(0.15748031496063):24"/>
				<v:ud v:nameU="BotRightOffset" v:prompt="" v:val="VT0(0.15748031496063):24"/>
				<v:ud v:nameU="visVersion" v:prompt="" v:val="VT0(15):26"/>
			</v:userDefs>
			<v:textBlock v:margins="rect(4,4,4,4)" v:tabSpace="42.5197"/>
			<v:textRect cx="62.3622" cy="508.389" width="124.73" height="22.6772"/>
			<path d="M11.34 519.73 L113.39 519.73 A11.3384 11.3384 -180 0 0 124.72 508.39 A11.3384 11.3384 -180 0 0 113.39 497.05
						 L11.34 497.05 A11.3384 11.3384 -180 0 0 0 508.39 A11.3384 11.3384 -180 0 0 11.34 519.73 Z" class="st1"/>
			<text x="23.36" y="511.09" class="st3" v:langID="1033"><v:paragraph v:horizAlign="1"/><v:tabList/>Zona Estudio Buffer</text>		</g>
		<g id="shape360-60" v:mID="360" v:groupContext="shape" v:layerMember="0" transform="translate(370.217,-402.164)">
			<title>Dynamic connector.360</title>
			<v:userDefs>
				<v:ud v:nameU="visVersion" v:val="VT0(15):26"/>
			</v:userDefs>
			<path d="M7.09 519.73 C7.09 522.79 7.09 528.07 7.09 532.37" class="st12"/>
		</g>
		<g id="shape362-65" v:mID="362" v:groupContext="shape" v:layerMember="0" transform="translate(224.232,-402.164)">
			<title>Dynamic connector.362</title>
			<v:userDefs>
				<v:ud v:nameU="visVersion" v:val="VT0(15):26"/>
			</v:userDefs>
			<path d="M7.09 519.73 C7.09 522.79 7.09 528.07 7.09 532.37" class="st12"/>
		</g>
		<g id="shape363-70" v:mID="363" v:groupContext="shape" transform="translate(168.957,-322.794)">
			<title>Rounded Rectangle.363</title>
			<desc>Select By Location - Intersect</desc>
			<v:userDefs>
				<v:ud v:nameU="CTypeTopLeftSnip" v:prompt="" v:val="VT0(0):5"/>
				<v:ud v:nameU="CTypeTopRightSnip" v:prompt="" v:val="VT0(0):5"/>
				<v:ud v:nameU="CTypeBotLeftSnip" v:prompt="" v:val="VT0(0):5"/>
				<v:ud v:nameU="CTypeBotRightSnip" v:prompt="" v:val="VT0(0):5"/>
				<v:ud v:nameU="CornerLockHoriz" v:prompt="" v:val="VT0(1):5"/>
				<v:ud v:nameU="CornerLockVert" v:prompt="" v:val="VT0(1):5"/>
				<v:ud v:nameU="CornerLockDiag" v:prompt="" v:val="VT0(0):5"/>
				<v:ud v:nameU="TopLeftOffset" v:prompt="" v:val="VT0(0.15748031496063):24"/>
				<v:ud v:nameU="TopRightOffset" v:prompt="" v:val="VT0(0.15748031496063):24"/>
				<v:ud v:nameU="BotLeftOffset" v:prompt="" v:val="VT0(0.15748031496063):24"/>
				<v:ud v:nameU="BotRightOffset" v:prompt="" v:val="VT0(0.15748031496063):24"/>
				<v:ud v:nameU="visVersion" v:prompt="" v:val="VT0(15):26"/>
			</v:userDefs>
			<v:textBlock v:margins="rect(4,4,4,4)" v:tabSpace="42.5197"/>
			<v:textRect cx="62.3622" cy="508.389" width="124.73" height="22.6772"/>
			<path d="M11.34 519.73 L113.39 519.73 A11.3384 11.3384 -180 0 0 124.72 508.39 A11.3384 11.3384 -180 0 0 113.39 497.05
						 L11.34 497.05 A11.3384 11.3384 -180 0 0 0 508.39 A11.3384 11.3384 -180 0 0 11.34 519.73 Z" class="st10"/>
			<text x="5.11" y="511.09" class="st3" v:langID="1033"><v:paragraph v:horizAlign="1"/><v:tabList/>Select By Location - Intersect</text>		</g>
		<g id="shape364-74" v:mID="364" v:groupContext="shape" v:layerMember="0" transform="translate(85.3346,-441.849)">
			<title>Dynamic connector.364</title>
			<v:userDefs>
				<v:ud v:nameU="visVersion" v:val="VT0(15):26"/>
			</v:userDefs>
			<path d="M0 519.73 C-0 610.79 36.04 610.79 61.39 610.79 C87.37 610.79 102.1 610.79 123.21 610.79 C130.73 610.79 139.06
						 610.79 143.26 612.7 L143.48 612.98" class="st8"/>
		</g>
		<g id="shape365-79" v:mID="365" v:groupContext="shape" v:layerMember="0" transform="translate(286.594,-373.817)">
			<title>Dynamic connector.365</title>
			<v:userDefs>
				<v:ud v:nameU="visVersion" v:val="VT0(15):26"/>
			</v:userDefs>
			<path d="M7.09 519.73 C16.23 519.73 17.51 549.12 10.91 557.31 L10.6 557.49" class="st8"/>
		</g>
		<g id="shape366-84" v:mID="366" v:groupContext="shape" transform="translate(22.9724,-322.794)">
			<title>Rounded Rectangle.366</title>
			<desc>Export Features</desc>
			<v:userDefs>
				<v:ud v:nameU="CTypeTopLeftSnip" v:prompt="" v:val="VT0(0):5"/>
				<v:ud v:nameU="CTypeTopRightSnip" v:prompt="" v:val="VT0(0):5"/>
				<v:ud v:nameU="CTypeBotLeftSnip" v:prompt="" v:val="VT0(0):5"/>
				<v:ud v:nameU="CTypeBotRightSnip" v:prompt="" v:val="VT0(0):5"/>
				<v:ud v:nameU="CornerLockHoriz" v:prompt="" v:val="VT0(1):5"/>
				<v:ud v:nameU="CornerLockVert" v:prompt="" v:val="VT0(1):5"/>
				<v:ud v:nameU="CornerLockDiag" v:prompt="" v:val="VT0(0):5"/>
				<v:ud v:nameU="TopLeftOffset" v:prompt="" v:val="VT0(0.15748031496063):24"/>
				<v:ud v:nameU="TopRightOffset" v:prompt="" v:val="VT0(0.15748031496063):24"/>
				<v:ud v:nameU="BotLeftOffset" v:prompt="" v:val="VT0(0.15748031496063):24"/>
				<v:ud v:nameU="BotRightOffset" v:prompt="" v:val="VT0(0.15748031496063):24"/>
				<v:ud v:nameU="visVersion" v:prompt="" v:val="VT0(15):26"/>
			</v:userDefs>
			<v:textBlock v:margins="rect(4,4,4,4)" v:tabSpace="42.5197"/>
			<v:textRect cx="62.3622" cy="508.389" width="124.73" height="22.6772"/>
			<path d="M11.34 519.73 L113.39 519.73 A11.3384 11.3384 -180 0 0 124.72 508.39 A11.3384 11.3384 -180 0 0 113.39 497.05
						 L11.34 497.05 A11.3384 11.3384 -180 0 0 0 508.39 A11.3384 11.3384 -180 0 0 11.34 519.73 Z" class="st10"/>
			<text x="31.68" y="511.09" class="st3" v:langID="1033"><v:paragraph v:horizAlign="1"/><v:tabList/>Export Features</text>		</g>
		<g id="shape367-88" v:mID="367" v:groupContext="shape" transform="translate(22.9724,-285.943)">
			<title>Rounded Rectangle.367</title>
			<desc>CNE IDEAM ZE</desc>
			<v:userDefs>
				<v:ud v:nameU="CTypeTopLeftSnip" v:prompt="" v:val="VT0(0):5"/>
				<v:ud v:nameU="CTypeTopRightSnip" v:prompt="" v:val="VT0(0):5"/>
				<v:ud v:nameU="CTypeBotLeftSnip" v:prompt="" v:val="VT0(0):5"/>
				<v:ud v:nameU="CTypeBotRightSnip" v:prompt="" v:val="VT0(0):5"/>
				<v:ud v:nameU="CornerLockHoriz" v:prompt="" v:val="VT0(1):5"/>
				<v:ud v:nameU="CornerLockVert" v:prompt="" v:val="VT0(1):5"/>
				<v:ud v:nameU="CornerLockDiag" v:prompt="" v:val="VT0(0):5"/>
				<v:ud v:nameU="TopLeftOffset" v:prompt="" v:val="VT0(0.15748031496063):24"/>
				<v:ud v:nameU="TopRightOffset" v:prompt="" v:val="VT0(0.15748031496063):24"/>
				<v:ud v:nameU="BotLeftOffset" v:prompt="" v:val="VT0(0.15748031496063):24"/>
				<v:ud v:nameU="BotRightOffset" v:prompt="" v:val="VT0(0.15748031496063):24"/>
				<v:ud v:nameU="visVersion" v:prompt="" v:val="VT0(15):26"/>
			</v:userDefs>
			<v:textBlock v:margins="rect(4,4,4,4)" v:tabSpace="42.5197"/>
			<v:textRect cx="62.3622" cy="508.389" width="124.73" height="22.6772"/>
			<path d="M11.34 519.73 L113.39 519.73 A11.3384 11.3384 -180 0 0 124.72 508.39 A11.3384 11.3384 -180 0 0 113.39 497.05
						 L11.34 497.05 A11.3384 11.3384 -180 0 0 0 508.39 A11.3384 11.3384 -180 0 0 11.34 519.73 Z" class="st1"/>
			<text x="33.05" y="511.09" class="st3" v:langID="1033"><v:paragraph v:horizAlign="1"/><v:tabList/>CNE IDEAM ZE</text>		</g>
		<g id="shape369-92" v:mID="369" v:groupContext="shape" transform="translate(168.957,-285.943)">
			<title>Rounded Rectangle.369</title>
			<desc>CNE OE ZE</desc>
			<v:userDefs>
				<v:ud v:nameU="CTypeTopLeftSnip" v:prompt="" v:val="VT0(0):5"/>
				<v:ud v:nameU="CTypeTopRightSnip" v:prompt="" v:val="VT0(0):5"/>
				<v:ud v:nameU="CTypeBotLeftSnip" v:prompt="" v:val="VT0(0):5"/>
				<v:ud v:nameU="CTypeBotRightSnip" v:prompt="" v:val="VT0(0):5"/>
				<v:ud v:nameU="CornerLockHoriz" v:prompt="" v:val="VT0(1):5"/>
				<v:ud v:nameU="CornerLockVert" v:prompt="" v:val="VT0(1):5"/>
				<v:ud v:nameU="CornerLockDiag" v:prompt="" v:val="VT0(0):5"/>
				<v:ud v:nameU="TopLeftOffset" v:prompt="" v:val="VT0(0.15748031496063):24"/>
				<v:ud v:nameU="TopRightOffset" v:prompt="" v:val="VT0(0.15748031496063):24"/>
				<v:ud v:nameU="BotLeftOffset" v:prompt="" v:val="VT0(0.15748031496063):24"/>
				<v:ud v:nameU="BotRightOffset" v:prompt="" v:val="VT0(0.15748031496063):24"/>
				<v:ud v:nameU="visVersion" v:prompt="" v:val="VT0(15):26"/>
			</v:userDefs>
			<v:textBlock v:margins="rect(4,4,4,4)" v:tabSpace="42.5197"/>
			<v:textRect cx="62.3622" cy="508.389" width="124.73" height="22.6772"/>
			<path d="M11.34 519.73 L113.39 519.73 A11.3384 11.3384 -180 0 0 124.72 508.39 A11.3384 11.3384 -180 0 0 113.39 497.05
						 L11.34 497.05 A11.3384 11.3384 -180 0 0 0 508.39 A11.3384 11.3384 -180 0 0 11.34 519.73 Z" class="st1"/>
			<text x="40.96" y="511.09" class="st3" v:langID="1033"><v:paragraph v:horizAlign="1"/><v:tabList/>CNE OE ZE</text>		</g>
		<g id="shape370-96" v:mID="370" v:groupContext="shape" v:layerMember="0" transform="translate(168.957,-327.046)">
			<title>Dynamic connector.370</title>
			<v:userDefs>
				<v:ud v:nameU="visVersion" v:val="VT0(15):26"/>
			</v:userDefs>
			<path d="M0 512.64 C-4.1 512.64 -11.35 512.64 -16.89 512.64" class="st12"/>
		</g>
		<g id="shape371-101" v:mID="371" v:groupContext="shape" v:layerMember="0" transform="translate(30.0591,-334.132)">
			<title>Dynamic connector.371</title>
			<v:userDefs>
				<v:ud v:nameU="visVersion" v:val="VT0(15):26"/>
			</v:userDefs>
			<path d="M-7.09 519.73 C-16.21 519.73 -17.5 546.88 -10.96 554.57 L-10.64 554.74" class="st8"/>
		</g>
		<g id="shape372-106" v:mID="372" v:groupContext="shape" v:layerMember="0" transform="translate(85.3346,-322.794)">
			<title>Dynamic connector.372</title>
			<v:userDefs>
				<v:ud v:nameU="visVersion" v:val="VT0(15):26"/>
			</v:userDefs>
			<path d="M0 519.73 C-0 525.04 14.62 525.04 27.05 525.04 C45.64 525.04 59.32 525.04 72.98 525.04 C86.65 525.04 100.31
						 525.04 118.86 525.04 C128.98 525.04 140.54 525.04 144.54 529.78 L144.66 530.12" class="st8"/>
		</g>
		<g id="shape373-111" v:mID="373" v:groupContext="shape" transform="translate(93.8386,-249.093)">
			<title>Rounded Rectangle.373</title>
			<desc>Merge</desc>
			<v:userDefs>
				<v:ud v:nameU="CTypeTopLeftSnip" v:prompt="" v:val="VT0(0):5"/>
				<v:ud v:nameU="CTypeTopRightSnip" v:prompt="" v:val="VT0(0):5"/>
				<v:ud v:nameU="CTypeBotLeftSnip" v:prompt="" v:val="VT0(0):5"/>
				<v:ud v:nameU="CTypeBotRightSnip" v:prompt="" v:val="VT0(0):5"/>
				<v:ud v:nameU="CornerLockHoriz" v:prompt="" v:val="VT0(1):5"/>
				<v:ud v:nameU="CornerLockVert" v:prompt="" v:val="VT0(1):5"/>
				<v:ud v:nameU="CornerLockDiag" v:prompt="" v:val="VT0(0):5"/>
				<v:ud v:nameU="TopLeftOffset" v:prompt="" v:val="VT0(0.15748031496063):24"/>
				<v:ud v:nameU="TopRightOffset" v:prompt="" v:val="VT0(0.15748031496063):24"/>
				<v:ud v:nameU="BotLeftOffset" v:prompt="" v:val="VT0(0.15748031496063):24"/>
				<v:ud v:nameU="BotRightOffset" v:prompt="" v:val="VT0(0.15748031496063):24"/>
				<v:ud v:nameU="visVersion" v:prompt="" v:val="VT0(15):26"/>
			</v:userDefs>
			<v:textBlock v:margins="rect(4,4,4,4)" v:tabSpace="42.5197"/>
			<v:textRect cx="62.3622" cy="508.389" width="124.73" height="22.6772"/>
			<path d="M11.34 519.73 L113.39 519.73 A11.3384 11.3384 -180 0 0 124.72 508.39 A11.3384 11.3384 -180 0 0 113.39 497.05
						 L11.34 497.05 A11.3384 11.3384 -180 0 0 0 508.39 A11.3384 11.3384 -180 0 0 11.34 519.73 Z" class="st10"/>
			<text x="49.4" y="511.09" class="st3" v:langID="1033"><v:paragraph v:horizAlign="1"/><v:tabList/>Merge</text>		</g>
		<g id="shape374-115" v:mID="374" v:groupContext="shape" v:layerMember="0" transform="translate(82.5,-285.943)">
			<title>Dynamic connector.374</title>
			<v:userDefs>
				<v:ud v:nameU="visVersion" v:val="VT0(15):26"/>
			</v:userDefs>
			<path d="M2.83 519.73 C2.83 526.11 2.83 536.76 4.81 541.48 C5.41 542.92 6.2 543.81 7.06 544.36 L7.42 544.43"
					class="st8"/>
		</g>
		<g id="shape375-120" v:mID="375" v:groupContext="shape" v:layerMember="0" transform="translate(232.028,-285.943)">
			<title>Dynamic connector.375</title>
			<v:userDefs>
				<v:ud v:nameU="visVersion" v:val="VT0(15):26"/>
			</v:userDefs>
			<path d="M-0.71 519.73 C-0.71 526.11 -0.71 536.48 -3.52 541.23 C-4.91 543.58 -6.99 544.55 -9.11 544.95 L-9.47 544.98"
					class="st8"/>
		</g>
		<g id="shape376-125" v:mID="376" v:groupContext="shape" transform="translate(93.8386,-209.408)">
			<title>Rounded Rectangle.376</title>
			<desc>CNE IDEAM OE ZE</desc>
			<v:userDefs>
				<v:ud v:nameU="CTypeTopLeftSnip" v:prompt="" v:val="VT0(0):5"/>
				<v:ud v:nameU="CTypeTopRightSnip" v:prompt="" v:val="VT0(0):5"/>
				<v:ud v:nameU="CTypeBotLeftSnip" v:prompt="" v:val="VT0(0):5"/>
				<v:ud v:nameU="CTypeBotRightSnip" v:prompt="" v:val="VT0(0):5"/>
				<v:ud v:nameU="CornerLockHoriz" v:prompt="" v:val="VT0(1):5"/>
				<v:ud v:nameU="CornerLockVert" v:prompt="" v:val="VT0(1):5"/>
				<v:ud v:nameU="CornerLockDiag" v:prompt="" v:val="VT0(0):5"/>
				<v:ud v:nameU="TopLeftOffset" v:prompt="" v:val="VT0(0.15748031496063):24"/>
				<v:ud v:nameU="TopRightOffset" v:prompt="" v:val="VT0(0.15748031496063):24"/>
				<v:ud v:nameU="BotLeftOffset" v:prompt="" v:val="VT0(0.15748031496063):24"/>
				<v:ud v:nameU="BotRightOffset" v:prompt="" v:val="VT0(0.15748031496063):24"/>
				<v:ud v:nameU="visVersion" v:prompt="" v:val="VT0(15):26"/>
			</v:userDefs>
			<v:textBlock v:margins="rect(4,4,4,4)" v:tabSpace="42.5197"/>
			<v:textRect cx="62.3622" cy="508.389" width="124.73" height="22.6772"/>
			<path d="M11.34 519.73 L113.39 519.73 A11.3384 11.3384 -180 0 0 124.72 508.39 A11.3384 11.3384 -180 0 0 113.39 497.05
						 L11.34 497.05 A11.3384 11.3384 -180 0 0 0 508.39 A11.3384 11.3384 -180 0 0 11.34 519.73 Z" class="st1"/>
			<text x="26.15" y="511.09" class="st3" v:langID="1033"><v:paragraph v:horizAlign="1"/><v:tabList/>CNE IDEAM OE ZE</text>		</g>
		<g id="shape377-129" v:mID="377" v:groupContext="shape" v:layerMember="0" transform="translate(149.114,-249.093)">
			<title>Dynamic connector.377</title>
			<v:userDefs>
				<v:ud v:nameU="visVersion" v:val="VT0(15):26"/>
			</v:userDefs>
			<path d="M7.09 519.73 C7.09 522.79 7.09 528.07 7.09 532.37" class="st12"/>
		</g>
		<g id="shape378-134" v:mID="378" v:groupContext="shape" v:layerMember="0" transform="translate(377.303,-362.479)">
			<title>Dynamic connector.378</title>
			<v:userDefs>
				<v:ud v:nameU="visVersion" v:val="VT0(15):26"/>
			</v:userDefs>
			<path d="M0 519.73 C-0 526.81 0 536.25 -12.35 541.5 C-26.8 547.63 -58.14 548.04 -79.26 548.07 L-79.62 548.07"
					class="st8"/>
		</g>
		<g id="shape379-139" v:mID="379" v:groupContext="shape" transform="translate(14.4685,-169.723)">
			<title>Rounded Rectangle.379</title>
			<desc>Add Field: LYearS, LYearSTW</desc>
			<v:userDefs>
				<v:ud v:nameU="CTypeTopLeftSnip" v:prompt="" v:val="VT0(0):5"/>
				<v:ud v:nameU="CTypeTopRightSnip" v:prompt="" v:val="VT0(0):5"/>
				<v:ud v:nameU="CTypeBotLeftSnip" v:prompt="" v:val="VT0(0):5"/>
				<v:ud v:nameU="CTypeBotRightSnip" v:prompt="" v:val="VT0(0):5"/>
				<v:ud v:nameU="CornerLockHoriz" v:prompt="" v:val="VT0(1):5"/>
				<v:ud v:nameU="CornerLockVert" v:prompt="" v:val="VT0(1):5"/>
				<v:ud v:nameU="CornerLockDiag" v:prompt="" v:val="VT0(0):5"/>
				<v:ud v:nameU="TopLeftOffset" v:prompt="" v:val="VT0(0.15748031496063):24"/>
				<v:ud v:nameU="TopRightOffset" v:prompt="" v:val="VT0(0.15748031496063):24"/>
				<v:ud v:nameU="BotLeftOffset" v:prompt="" v:val="VT0(0.15748031496063):24"/>
				<v:ud v:nameU="BotRightOffset" v:prompt="" v:val="VT0(0.15748031496063):24"/>
				<v:ud v:nameU="visVersion" v:prompt="" v:val="VT0(15):26"/>
			</v:userDefs>
			<v:textBlock v:margins="rect(4,4,4,4)" v:tabSpace="42.5197"/>
			<v:textRect cx="62.3622" cy="508.389" width="124.73" height="22.6772"/>
			<path d="M11.34 519.73 L113.39 519.73 A11.3384 11.3384 -180 0 0 124.72 508.39 A11.3384 11.3384 -180 0 0 113.39 497.05
						 L11.34 497.05 A11.3384 11.3384 -180 0 0 0 508.39 A11.3384 11.3384 -180 0 0 11.34 519.73 Z" class="st10"/>
			<text x="6.16" y="511.09" class="st3" v:langID="1033"><v:paragraph v:horizAlign="1"/><v:tabList/>Add Field: LYearS, LYearSTW</text>		</g>
		<g id="shape381-143" v:mID="381" v:groupContext="shape" v:layerMember="0" transform="translate(93.8386,-220.746)">
			<title>Dynamic connector.381</title>
			<v:userDefs>
				<v:ud v:nameU="visVersion" v:val="VT0(15):26"/>
			</v:userDefs>
			<path d="M0 519.73 C-4.25 519.73 -10.21 519.73 -13.38 524.36 C-16.33 528.66 -16.88 536.95 -16.98 543.71 L-16.99 544.07"
					class="st8"/>
		</g>
		<g id="shape382-148" v:mID="382" v:groupContext="shape" transform="translate(167.539,-169.723)">
			<title>Rounded Rectangle.382</title>
			<desc>Calculate Field: LYearS, LYearSTW - Python Script</desc>
			<v:userDefs>
				<v:ud v:nameU="CTypeTopLeftSnip" v:prompt="" v:val="VT0(0):5"/>
				<v:ud v:nameU="CTypeTopRightSnip" v:prompt="" v:val="VT0(0):5"/>
				<v:ud v:nameU="CTypeBotLeftSnip" v:prompt="" v:val="VT0(0):5"/>
				<v:ud v:nameU="CTypeBotRightSnip" v:prompt="" v:val="VT0(0):5"/>
				<v:ud v:nameU="CornerLockHoriz" v:prompt="" v:val="VT0(1):5"/>
				<v:ud v:nameU="CornerLockVert" v:prompt="" v:val="VT0(1):5"/>
				<v:ud v:nameU="CornerLockDiag" v:prompt="" v:val="VT0(0):5"/>
				<v:ud v:nameU="TopLeftOffset" v:prompt="" v:val="VT0(0.15748031496063):24"/>
				<v:ud v:nameU="TopRightOffset" v:prompt="" v:val="VT0(0.15748031496063):24"/>
				<v:ud v:nameU="BotLeftOffset" v:prompt="" v:val="VT0(0.15748031496063):24"/>
				<v:ud v:nameU="BotRightOffset" v:prompt="" v:val="VT0(0.15748031496063):24"/>
				<v:ud v:nameU="visVersion" v:prompt="" v:val="VT0(15):26"/>
			</v:userDefs>
			<v:textBlock v:margins="rect(4,4,4,4)" v:tabSpace="42.5197"/>
			<v:textRect cx="62.3622" cy="508.389" width="124.73" height="22.6772"/>
			<path d="M11.34 519.73 L113.39 519.73 A11.3384 11.3384 -180 0 0 124.72 508.39 A11.3384 11.3384 -180 0 0 113.39 497.05
						 L11.34 497.05 A11.3384 11.3384 -180 0 0 0 508.39 A11.3384 11.3384 -180 0 0 11.34 519.73 Z" class="st10"/>
			<text x="17.31" y="505.69" class="st3" v:langID="1033"><v:paragraph v:horizAlign="1"/><v:tabList/>Calculate Field: LYearS, <tspan
						x="11.85" dy="1.2em" class="st13">LYearSTW </tspan>- Python Script</text>		</g>
		<g id="shape383-153" v:mID="383" v:groupContext="shape" v:layerMember="0" transform="translate(139.193,-173.975)">
			<title>Dynamic connector.383</title>
			<v:userDefs>
				<v:ud v:nameU="visVersion" v:val="VT0(15):26"/>
			</v:userDefs>
			<path d="M0 512.64 C5.83 512.64 16.45 512.64 23.98 512.64" class="st12"/>
		</g>
		<g id="shape384-158" v:mID="384" v:groupContext="shape" transform="translate(167.539,-130.038)">
			<title>Rounded Rectangle.384</title>
			<desc>Definition Query LYearSTW &#62;= &#38; Categoria</desc>
			<v:userDefs>
				<v:ud v:nameU="CTypeTopLeftSnip" v:prompt="" v:val="VT0(0):5"/>
				<v:ud v:nameU="CTypeTopRightSnip" v:prompt="" v:val="VT0(0):5"/>
				<v:ud v:nameU="CTypeBotLeftSnip" v:prompt="" v:val="VT0(0):5"/>
				<v:ud v:nameU="CTypeBotRightSnip" v:prompt="" v:val="VT0(0):5"/>
				<v:ud v:nameU="CornerLockHoriz" v:prompt="" v:val="VT0(1):5"/>
				<v:ud v:nameU="CornerLockVert" v:prompt="" v:val="VT0(1):5"/>
				<v:ud v:nameU="CornerLockDiag" v:prompt="" v:val="VT0(0):5"/>
				<v:ud v:nameU="TopLeftOffset" v:prompt="" v:val="VT0(0.15748031496063):24"/>
				<v:ud v:nameU="TopRightOffset" v:prompt="" v:val="VT0(0.15748031496063):24"/>
				<v:ud v:nameU="BotLeftOffset" v:prompt="" v:val="VT0(0.15748031496063):24"/>
				<v:ud v:nameU="BotRightOffset" v:prompt="" v:val="VT0(0.15748031496063):24"/>
				<v:ud v:nameU="visVersion" v:prompt="" v:val="VT0(15):26"/>
			</v:userDefs>
			<v:textBlock v:margins="rect(4,4,4,4)" v:tabSpace="42.5197"/>
			<v:textRect cx="62.3622" cy="508.389" width="124.73" height="22.6772"/>
			<path d="M11.34 519.73 L113.39 519.73 A11.3384 11.3384 -180 0 0 124.72 508.39 A11.3384 11.3384 -180 0 0 113.39 497.05
						 L11.34 497.05 A11.3384 11.3384 -180 0 0 0 508.39 A11.3384 11.3384 -180 0 0 11.34 519.73 Z" class="st10"/>
			<text x="29.65" y="505.69" class="st3" v:langID="1033"><v:paragraph v:horizAlign="1"/><v:tabList/>Definition Query<v:newlineChar/><tspan
						x="9.96" dy="1.2em" class="st13">LYearSTW &#62;= &#38; Categoria</tspan></text>		</g>
		<g id="shape386-163" v:mID="386" v:groupContext="shape" transform="translate(14.4685,-130.038)">
			<title>Rounded Rectangle.386</title>
			<desc>CNE IDEAM OE ZE Filtro por observación</desc>
			<v:userDefs>
				<v:ud v:nameU="CTypeTopLeftSnip" v:prompt="" v:val="VT0(0):5"/>
				<v:ud v:nameU="CTypeTopRightSnip" v:prompt="" v:val="VT0(0):5"/>
				<v:ud v:nameU="CTypeBotLeftSnip" v:prompt="" v:val="VT0(0):5"/>
				<v:ud v:nameU="CTypeBotRightSnip" v:prompt="" v:val="VT0(0):5"/>
				<v:ud v:nameU="CornerLockHoriz" v:prompt="" v:val="VT0(1):5"/>
				<v:ud v:nameU="CornerLockVert" v:prompt="" v:val="VT0(1):5"/>
				<v:ud v:nameU="CornerLockDiag" v:prompt="" v:val="VT0(0):5"/>
				<v:ud v:nameU="TopLeftOffset" v:prompt="" v:val="VT0(0.15748031496063):24"/>
				<v:ud v:nameU="TopRightOffset" v:prompt="" v:val="VT0(0.15748031496063):24"/>
				<v:ud v:nameU="BotLeftOffset" v:prompt="" v:val="VT0(0.15748031496063):24"/>
				<v:ud v:nameU="BotRightOffset" v:prompt="" v:val="VT0(0.15748031496063):24"/>
				<v:ud v:nameU="visVersion" v:prompt="" v:val="VT0(15):26"/>
			</v:userDefs>
			<v:textBlock v:margins="rect(4,4,4,4)" v:tabSpace="42.5197"/>
			<v:textRect cx="62.3622" cy="508.389" width="124.73" height="22.6772"/>
			<path d="M11.34 519.73 L113.39 519.73 A11.3384 11.3384 -180 0 0 124.72 508.39 A11.3384 11.3384 -180 0 0 113.39 497.05
						 L11.34 497.05 A11.3384 11.3384 -180 0 0 0 508.39 A11.3384 11.3384 -180 0 0 11.34 519.73 Z" class="st1"/>
			<text x="26.15" y="505.69" class="st3" v:langID="1033"><v:paragraph v:horizAlign="1"/><v:tabList/>CNE IDEAM OE ZE <v:newlineChar/><tspan
						x="19.04" dy="1.2em" class="st13">Filtro por observación</tspan></text>		</g>
		<g id="shape387-168" v:mID="387" v:groupContext="shape" v:layerMember="0" transform="translate(222.815,-169.723)">
			<title>Dynamic connector.387</title>
			<v:userDefs>
				<v:ud v:nameU="visVersion" v:val="VT0(15):26"/>
			</v:userDefs>
			<path d="M7.09 519.73 C7.09 522.79 7.09 528.07 7.09 532.37" class="st12"/>
		</g>
		<g id="shape388-173" v:mID="388" v:groupContext="shape" v:layerMember="0" transform="translate(167.539,-134.29)">
			<title>Dynamic connector.388</title>
			<v:userDefs>
				<v:ud v:nameU="visVersion" v:val="VT0(15):26"/>
			</v:userDefs>
			<path d="M0 512.64 C-5.83 512.64 -16.45 512.64 -23.98 512.64" class="st12"/>
		</g>
		<g id="shape389-178" v:mID="389" v:groupContext="shape" transform="translate(88.8779,-46.4156)">
			<title>Rounded Rectangle.389</title>
			<desc>Table to Table</desc>
			<v:userDefs>
				<v:ud v:nameU="CTypeTopLeftSnip" v:prompt="" v:val="VT0(0):5"/>
				<v:ud v:nameU="CTypeTopRightSnip" v:prompt="" v:val="VT0(0):5"/>
				<v:ud v:nameU="CTypeBotLeftSnip" v:prompt="" v:val="VT0(0):5"/>
				<v:ud v:nameU="CTypeBotRightSnip" v:prompt="" v:val="VT0(0):5"/>
				<v:ud v:nameU="CornerLockHoriz" v:prompt="" v:val="VT0(1):5"/>
				<v:ud v:nameU="CornerLockVert" v:prompt="" v:val="VT0(1):5"/>
				<v:ud v:nameU="CornerLockDiag" v:prompt="" v:val="VT0(0):5"/>
				<v:ud v:nameU="TopLeftOffset" v:prompt="" v:val="VT0(0.15748031496063):24"/>
				<v:ud v:nameU="TopRightOffset" v:prompt="" v:val="VT0(0.15748031496063):24"/>
				<v:ud v:nameU="BotLeftOffset" v:prompt="" v:val="VT0(0.15748031496063):24"/>
				<v:ud v:nameU="BotRightOffset" v:prompt="" v:val="VT0(0.15748031496063):24"/>
				<v:ud v:nameU="visVersion" v:prompt="" v:val="VT0(15):26"/>
			</v:userDefs>
			<v:textBlock v:margins="rect(4,4,4,4)" v:tabSpace="42.5197"/>
			<v:textRect cx="62.3622" cy="508.389" width="124.73" height="22.6772"/>
			<path d="M11.34 519.73 L113.39 519.73 A11.3384 11.3384 -180 0 0 124.72 508.39 A11.3384 11.3384 -180 0 0 113.39 497.05
						 L11.34 497.05 A11.3384 11.3384 -180 0 0 0 508.39 A11.3384 11.3384 -180 0 0 11.34 519.73 Z" class="st10"/>
			<text x="34.26" y="511.09" class="st3" v:langID="1033"><v:paragraph v:horizAlign="1"/><v:tabList/>Table to Table</text>		</g>
		<g id="shape390-182" v:mID="390" v:groupContext="shape" v:layerMember="0" transform="translate(76.8307,-130.038)">
			<title>Dynamic connector.390</title>
			<v:userDefs>
				<v:ud v:nameU="visVersion" v:val="VT0(15):26"/>
			</v:userDefs>
			<path d="M0 519.73 C0 525.75 -0 534.32 5.98 538.83 C11.59 543.06 22.48 543.71 31.07 543.8 L31.43 543.81" class="st8"/>
		</g>
		<g id="shape391-187" v:mID="391" v:groupContext="shape" transform="translate(88.8779,-9.84707)">
			<title>Rounded Rectangle.391</title>
			<desc>CNE IDEAM OE ZE Tabla filtro estaciones</desc>
			<v:userDefs>
				<v:ud v:nameU="CTypeTopLeftSnip" v:prompt="" v:val="VT0(0):5"/>
				<v:ud v:nameU="CTypeTopRightSnip" v:prompt="" v:val="VT0(0):5"/>
				<v:ud v:nameU="CTypeBotLeftSnip" v:prompt="" v:val="VT0(0):5"/>
				<v:ud v:nameU="CTypeBotRightSnip" v:prompt="" v:val="VT0(0):5"/>
				<v:ud v:nameU="CornerLockHoriz" v:prompt="" v:val="VT0(1):5"/>
				<v:ud v:nameU="CornerLockVert" v:prompt="" v:val="VT0(1):5"/>
				<v:ud v:nameU="CornerLockDiag" v:prompt="" v:val="VT0(0):5"/>
				<v:ud v:nameU="TopLeftOffset" v:prompt="" v:val="VT0(0.15748031496063):24"/>
				<v:ud v:nameU="TopRightOffset" v:prompt="" v:val="VT0(0.15748031496063):24"/>
				<v:ud v:nameU="BotLeftOffset" v:prompt="" v:val="VT0(0.15748031496063):24"/>
				<v:ud v:nameU="BotRightOffset" v:prompt="" v:val="VT0(0.15748031496063):24"/>
				<v:ud v:nameU="visVersion" v:prompt="" v:val="VT0(15):26"/>
			</v:userDefs>
			<v:textBlock v:margins="rect(4,4,4,4)" v:tabSpace="42.5197"/>
			<v:textRect cx="62.3622" cy="508.389" width="124.73" height="22.6772"/>
			<path d="M11.34 519.73 L113.39 519.73 A11.3384 11.3384 -180 0 0 124.72 508.39 A11.3384 11.3384 -180 0 0 113.39 497.05
						 L11.34 497.05 A11.3384 11.3384 -180 0 0 0 508.39 A11.3384 11.3384 -180 0 0 11.34 519.73 Z" class="st4"/>
			<text x="26.15" y="505.69" class="st3" v:langID="1033"><v:paragraph v:horizAlign="1"/><v:tabList/>CNE IDEAM OE ZE<v:newlineChar/><tspan
						x="19.22" dy="1.2em" class="st13">Tabla filtro estaciones</tspan></text>		</g>
		<g id="shape392-192" v:mID="392" v:groupContext="shape" v:layerMember="0" transform="translate(144.154,-46.5565)">
			<title>Dynamic connector.392</title>
			<v:userDefs>
				<v:ud v:nameU="visVersion" v:val="VT0(15):26"/>
			</v:userDefs>
			<path d="M7.09 519.87 C7.09 522.19 7.09 526.05 7.09 529.39" class="st12"/>
		</g>
		<g id="shape393-197" v:mID="393" v:groupContext="shape" v:layerMember="1" transform="translate(112.264,-85.8188)">
			<title>Decision 2</title>
			<desc>Estaciones cubren ZE</desc>
			<v:custProps>
				<v:cp v:nameU="Cost" v:lbl="Cost" v:type="7" v:format="@" v:langID="1033"/>
				<v:cp v:nameU="Duration" v:lbl="Duration" v:type="2" v:langID="1033"/>
				<v:cp v:nameU="Resources" v:lbl="Resources" v:langID="1033"/>
			</v:custProps>
			<v:userDefs>
				<v:ud v:nameU="visVersion" v:val="VT0(15):26"/>
			</v:userDefs>
			<v:textBlock v:margins="rect(4,4,4,4)" v:tabSpace="42.5197"/>
			<v:textRect cx="38.9764" cy="499.603" width="58.47" height="35.2177"/>
			<path d="M0 499.6 L38.98 479.48 L77.95 499.6 L38.98 519.73 L0 499.6 Z" class="st6"/>
			<text x="18.36" y="496.9" class="st3" v:langID="1033"><v:paragraph v:horizAlign="1"/><v:tabList/>Estaciones <tspan
						x="19.17" dy="1.2em" class="st13">cubren ZE</tspan></text>		</g>
		<g id="shape394-202" v:mID="394" v:groupContext="shape" v:layerMember="0" transform="translate(144.154,-85.8188)">
			<title>Dynamic connector.394</title>
			<desc>S</desc>
			<v:userDefs>
				<v:ud v:nameU="visVersion" v:val="VT0(15):26"/>
			</v:userDefs>
			<v:textBlock v:margins="rect(4,4,4,4)" v:tabSpace="42.5197"/>
			<v:textRect cx="7.08661" cy="528.09" width="30" height="15.2035"/>
			<path d="M7.09 519.73 C7.09 522.73 7.09 527.87 7.09 532.09" class="st12"/>
			<rect v:rectContext="textBkgnd" x="5.49296" y="524.491" width="3.18741" height="7.20016" class="st14"/>
			<text x="5.49" y="529.89" class="st15" v:langID="1033"><v:paragraph v:horizAlign="1"/><v:tabList/>S</text>		</g>
		<g id="shape395-209" v:mID="395" v:groupContext="shape" v:layerMember="0" transform="translate(190.217,-105.943)">
			<title>Dynamic connector.395</title>
			<desc>N</desc>
			<v:userDefs>
				<v:ud v:nameU="visVersion" v:val="VT0(15):26"/>
			</v:userDefs>
			<v:textBlock v:margins="rect(4,4,4,4)" v:tabSpace="42.5197"/>
			<v:textRect cx="84.7999" cy="510.963" width="30" height="15.2035"/>
			<path d="M0 519.73 C112.68 519.73 112.68 495.65 112.68 471.58 C112.68 460.21 112.68 448.84 106.31 445.55 L105.96 445.48"
					class="st8"/>
			<rect v:rectContext="textBkgnd" x="82.5558" y="507.363" width="4.48819" height="7.20016" class="st16"/>
			<text x="82.56" y="512.76" class="st15" v:langID="1033"><v:paragraph v:horizAlign="1"/><v:tabList/>N</text>		</g>
	</g>
</svg>
