<?xml version="1.0" encoding="UTF-8" standalone="no"?>
<!DOCTYPE svg PUBLIC "-//W3C//DTD SVG 1.1//EN" "http://www.w3.org/Graphics/SVG/1.1/DTD/svg11.dtd">
<!-- Generated by Microsoft Visio, SVG Export FlowPerformance.svg Page-1 -->
<svg xmlns="http://www.w3.org/2000/svg" xmlns:xlink="http://www.w3.org/1999/xlink" xmlns:ev="http://www.w3.org/2001/xml-events"
		xmlns:v="http://schemas.microsoft.com/visio/2003/SVGExtensions/" width="5.29016in" height="4.09024in"
		viewBox="0 0 380.892 294.497" xml:space="preserve" color-interpolation-filters="sRGB" class="st15">
	<v:documentProperties v:langID="1033" v:metric="true" v:viewMarkup="false"/>

	<style type="text/css">
	<![CDATA[
		.st1 {fill:#f2f2f2;stroke:none;stroke-width:1.5}
		.st2 {fill:#fbbc0e;fill-opacity:1;stroke:#fbbc0e;stroke-opacity:1;stroke-width:0.37313432835821}
		.st3 {fill:#000000;font-family:Segoe UI;font-size:0.75em}
		.st4 {marker-end:url(#mrkr6-15);stroke:#7f7f7f;stroke-linecap:round;stroke-linejoin:round;stroke-width:0.5}
		.st5 {fill:#7f7f7f;fill-opacity:1;stroke:#7f7f7f;stroke-opacity:1;stroke-width:0.25773195876289}
		.st6 {fill:#f2f2f2;stroke:#ea4d35;stroke-width:1.5}
		.st7 {fill:#ea4d35;fill-opacity:1;stroke:#ea4d35;stroke-opacity:1;stroke-width:0.37313432835821}
		.st8 {font-size:1em}
		.st9 {marker-end:url(#mrkr6-27);stroke:#7f7f7f;stroke-linecap:round;stroke-linejoin:round;stroke-width:0.5}
		.st10 {fill:#f2f2f2;stroke:#3ea853;stroke-width:1.5}
		.st11 {fill:#3ea853;fill-opacity:1;stroke:#3ea853;stroke-opacity:1;stroke-width:0.37313432835821}
		.st12 {fill:#f2f2f2;stroke:#4c85f4;stroke-width:1.5}
		.st13 {fill:#4c85f4;fill-opacity:1;stroke:#4c85f4;stroke-opacity:1;stroke-width:0.37313432835821}
		.st14 {fill:#f2f2f2;stroke:#ea4d35;stroke-dasharray:0.01,4.5;stroke-width:1.5}
		.st15 {fill:none;fill-rule:evenodd;font-size:12px;overflow:visible;stroke-linecap:square;stroke-miterlimit:3}
	]]>
	</style>

	<defs id="Markers">
		<g id="lend6">
			<path d="M 2 1 L 0 0 L 2.01237 -1.00641 C 2.32921 -0.372876 2.32921 0.372869 2.01238 1.0064 " style="stroke:none"/>
		</g>
		<marker id="mrkr6-4" class="st2" v:arrowType="6" v:arrowSize="2" v:setback="6.03" refX="6.03" orient="auto"
				markerUnits="strokeWidth" overflow="visible">
			<use xlink:href="#lend6" transform="scale(2.68) "/>
		</marker>
		<marker id="mrkr6-15" class="st5" v:arrowType="6" v:arrowSize="0" v:setback="8.73" refX="-8.73" orient="auto"
				markerUnits="strokeWidth" overflow="visible">
			<use xlink:href="#lend6" transform="scale(-3.88,-3.88) "/>
		</marker>
		<marker id="mrkr6-19" class="st7" v:arrowType="6" v:arrowSize="2" v:setback="6.03" refX="6.03" orient="auto"
				markerUnits="strokeWidth" overflow="visible">
			<use xlink:href="#lend6" transform="scale(2.68) "/>
		</marker>
		<marker id="mrkr6-27" class="st5" v:arrowType="6" v:arrowSize="0" v:setback="8.01" refX="-8.01" orient="auto"
				markerUnits="strokeWidth" overflow="visible">
			<use xlink:href="#lend6" transform="scale(-3.88,-3.88) "/>
		</marker>
		<marker id="mrkr6-31" class="st11" v:arrowType="6" v:arrowSize="2" v:setback="6.03" refX="6.03" orient="auto"
				markerUnits="strokeWidth" overflow="visible">
			<use xlink:href="#lend6" transform="scale(2.68) "/>
		</marker>
		<marker id="mrkr6-36" class="st13" v:arrowType="6" v:arrowSize="2" v:setback="6.03" refX="6.03" orient="auto"
				markerUnits="strokeWidth" overflow="visible">
			<use xlink:href="#lend6" transform="scale(2.68) "/>
		</marker>
	</defs>
	<g v:mID="0" v:index="1" v:groupContext="foregroundPage">
		<title>Page-1</title>
		<v:pageProperties v:drawingScale="0.0393701" v:pageScale="0.0393701" v:drawingUnits="24" v:shadowOffsetX="8.50394"
				v:shadowOffsetY="-8.50394"/>
		<v:layer v:name="Connector" v:index="0"/>
		<g id="shape577-1" v:mID="577" v:groupContext="shape" transform="translate(134.21,-261.973)">
			<title>Rounded Rectangle.577</title>
			<desc>Start</desc>
			<v:userDefs>
				<v:ud v:nameU="CTypeTopLeftSnip" v:prompt="" v:val="VT0(0):5"/>
				<v:ud v:nameU="CTypeTopRightSnip" v:prompt="" v:val="VT0(0):5"/>
				<v:ud v:nameU="CTypeBotLeftSnip" v:prompt="" v:val="VT0(0):5"/>
				<v:ud v:nameU="CTypeBotRightSnip" v:prompt="" v:val="VT0(0):5"/>
				<v:ud v:nameU="CornerLockHoriz" v:prompt="" v:val="VT0(1):5"/>
				<v:ud v:nameU="CornerLockVert" v:prompt="" v:val="VT0(1):5"/>
				<v:ud v:nameU="CornerLockDiag" v:prompt="" v:val="VT0(0):5"/>
				<v:ud v:nameU="TopLeftOffset" v:prompt="" v:val="VT0(0.15748031496063):24"/>
				<v:ud v:nameU="TopRightOffset" v:prompt="" v:val="VT0(0.15748031496063):24"/>
				<v:ud v:nameU="BotLeftOffset" v:prompt="" v:val="VT0(0.15748031496063):24"/>
				<v:ud v:nameU="BotRightOffset" v:prompt="" v:val="VT0(0.15748031496063):24"/>
				<v:ud v:nameU="visVersion" v:prompt="" v:val="VT0(15):26"/>
			</v:userDefs>
			<v:textBlock v:margins="rect(4,4,4,4)" v:tabSpace="42.5197"/>
			<v:textRect cx="56.6929" cy="283.159" width="113.39" height="22.6772"/>
			<path d="M11.34 294.5 L102.05 294.5 A11.3384 11.3384 -180 0 0 113.39 283.16 A11.3384 11.3384 -180 0 0 102.05 271.82 L11.34
						 271.82 A11.3384 11.3384 -180 0 0 0 283.16 A11.3384 11.3384 -180 0 0 11.34 294.5 Z" class="st1"/>
			<text x="47.4" y="285.86" class="st3" v:langID="1033"><v:paragraph v:horizAlign="1"/><v:tabList/>Start</text>		</g>
		<g id="shape742-6" v:mID="742" v:groupContext="shape" transform="translate(138.101,-9.84707)">
			<title>Rounded Rectangle.742</title>
			<desc>End</desc>
			<v:userDefs>
				<v:ud v:nameU="CTypeTopLeftSnip" v:prompt="" v:val="VT0(0):5"/>
				<v:ud v:nameU="CTypeTopRightSnip" v:prompt="" v:val="VT0(0):5"/>
				<v:ud v:nameU="CTypeBotLeftSnip" v:prompt="" v:val="VT0(0):5"/>
				<v:ud v:nameU="CTypeBotRightSnip" v:prompt="" v:val="VT0(0):5"/>
				<v:ud v:nameU="CornerLockHoriz" v:prompt="" v:val="VT0(1):5"/>
				<v:ud v:nameU="CornerLockVert" v:prompt="" v:val="VT0(1):5"/>
				<v:ud v:nameU="CornerLockDiag" v:prompt="" v:val="VT0(0):5"/>
				<v:ud v:nameU="TopLeftOffset" v:prompt="" v:val="VT0(0.15748031496063):24"/>
				<v:ud v:nameU="TopRightOffset" v:prompt="" v:val="VT0(0.15748031496063):24"/>
				<v:ud v:nameU="BotLeftOffset" v:prompt="" v:val="VT0(0.15748031496063):24"/>
				<v:ud v:nameU="BotRightOffset" v:prompt="" v:val="VT0(0.15748031496063):24"/>
				<v:ud v:nameU="visVersion" v:prompt="" v:val="VT0(15):26"/>
			</v:userDefs>
			<v:textBlock v:margins="rect(4,4,4,4)" v:tabSpace="42.5197"/>
			<v:textRect cx="56.6929" cy="283.159" width="113.39" height="22.6772"/>
			<path d="M11.34 294.5 L102.05 294.5 A11.3384 11.3384 -180 0 0 113.39 283.16 A11.3384 11.3384 -180 0 0 102.05 271.82 L11.34
						 271.82 A11.3384 11.3384 -180 0 0 0 283.16 A11.3384 11.3384 -180 0 0 11.34 294.5 Z" class="st1"/>
			<text x="49.22" y="285.86" class="st3" v:langID="1033"><v:paragraph v:horizAlign="1"/><v:tabList/>End</text>		</g>
		<g id="shape997-10" v:mID="997" v:groupContext="shape" v:layerMember="0" transform="translate(183.817,-261.973)">
			<title>Dynamic connector.997</title>
			<v:userDefs>
				<v:ud v:nameU="visVersion" v:val="VT0(15):26"/>
			</v:userDefs>
			<path d="M7.09 294.5 C7.09 297.2 7.09 301.8 7.09 305.64" class="st4"/>
		</g>
		<g id="shape1035-16" v:mID="1035" v:groupContext="shape" transform="translate(257.527,-185.595)">
			<title>Rounded Rectangle.1035</title>
			<desc>Add fied Fp: FlowPerformance</desc>
			<v:userDefs>
				<v:ud v:nameU="CTypeTopLeftSnip" v:prompt="" v:val="VT0(0):5"/>
				<v:ud v:nameU="CTypeTopRightSnip" v:prompt="" v:val="VT0(0):5"/>
				<v:ud v:nameU="CTypeBotLeftSnip" v:prompt="" v:val="VT0(0):5"/>
				<v:ud v:nameU="CTypeBotRightSnip" v:prompt="" v:val="VT0(0):5"/>
				<v:ud v:nameU="CornerLockHoriz" v:prompt="" v:val="VT0(1):5"/>
				<v:ud v:nameU="CornerLockVert" v:prompt="" v:val="VT0(1):5"/>
				<v:ud v:nameU="CornerLockDiag" v:prompt="" v:val="VT0(0):5"/>
				<v:ud v:nameU="TopLeftOffset" v:prompt="" v:val="VT0(0.15748031496063):24"/>
				<v:ud v:nameU="TopRightOffset" v:prompt="" v:val="VT0(0.15748031496063):24"/>
				<v:ud v:nameU="BotLeftOffset" v:prompt="" v:val="VT0(0.15748031496063):24"/>
				<v:ud v:nameU="BotRightOffset" v:prompt="" v:val="VT0(0.15748031496063):24"/>
				<v:ud v:nameU="visVersion" v:prompt="" v:val="VT0(15):26"/>
				<v:ud v:nameU="TopLeftOffset" v:prompt="" v:val="VT0(0.15748031969087):24"/>
				<v:ud v:nameU="TopRightOffset" v:prompt="" v:val="VT0(0.15748031969087):24"/>
				<v:ud v:nameU="BotLeftOffset" v:prompt="" v:val="VT0(0.15748031969087):24"/>
				<v:ud v:nameU="BotRightOffset" v:prompt="" v:val="VT0(0.15748031969087):24"/>
			</v:userDefs>
			<v:textBlock v:margins="rect(4,4,4,4)" v:tabSpace="42.5197"/>
			<v:textRect cx="56.6929" cy="283.159" width="113.39" height="22.6772"/>
			<path d="M11.34 294.5 L102.05 294.5 A11.3384 11.3384 -180 0 0 113.39 283.16 A11.3384 11.3384 -180 0 0 102.05 271.82 L11.34
						 271.82 A11.3384 11.3384 -180 0 0 -0 283.16 A11.3384 11.3384 -180 0 0 11.34 294.5 Z" class="st6"/>
			<text x="39.76" y="280.46" class="st3" v:langID="1033"><v:paragraph v:horizAlign="1"/><v:tabList/>Add fied<v:newlineChar/><tspan
						x="15.27" dy="1.2em" class="st8">Fp: FlowPerformance</tspan></text>		</g>
		<g id="shape1042-22" v:mID="1042" v:groupContext="shape" v:layerMember="0" transform="translate(314.22,-116.986)">
			<title>Dynamic connector.1042</title>
			<v:userDefs>
				<v:ud v:nameU="visVersion" v:val="VT0(15):26"/>
			</v:userDefs>
			<path d="M0 295.26 C0 300.57 -11.97 300.57 -22.14 300.57 C-37.34 300.57 -48.53 300.57 -59.71 300.57 C-70.89 300.57 -82.06
						 300.57 -97.24 300.57 C-105.08 300.57 -113.98 300.57 -117.68 303.91 L-117.82 304.24" class="st9"/>
		</g>
		<g id="shape1071-28" v:mID="1071" v:groupContext="shape" transform="translate(134.21,-223.784)">
			<title>Rounded Rectangle.1071</title>
			<desc>LTWB flow grids</desc>
			<v:userDefs>
				<v:ud v:nameU="CTypeTopLeftSnip" v:prompt="" v:val="VT0(0):5"/>
				<v:ud v:nameU="CTypeTopRightSnip" v:prompt="" v:val="VT0(0):5"/>
				<v:ud v:nameU="CTypeBotLeftSnip" v:prompt="" v:val="VT0(0):5"/>
				<v:ud v:nameU="CTypeBotRightSnip" v:prompt="" v:val="VT0(0):5"/>
				<v:ud v:nameU="CornerLockHoriz" v:prompt="" v:val="VT0(1):5"/>
				<v:ud v:nameU="CornerLockVert" v:prompt="" v:val="VT0(1):5"/>
				<v:ud v:nameU="CornerLockDiag" v:prompt="" v:val="VT0(0):5"/>
				<v:ud v:nameU="TopLeftOffset" v:prompt="" v:val="VT0(0.15748031496063):24"/>
				<v:ud v:nameU="TopRightOffset" v:prompt="" v:val="VT0(0.15748031496063):24"/>
				<v:ud v:nameU="BotLeftOffset" v:prompt="" v:val="VT0(0.15748031496063):24"/>
				<v:ud v:nameU="BotRightOffset" v:prompt="" v:val="VT0(0.15748031496063):24"/>
				<v:ud v:nameU="visVersion" v:prompt="" v:val="VT0(15):26"/>
			</v:userDefs>
			<v:textBlock v:margins="rect(4,4,4,4)" v:tabSpace="42.5197"/>
			<v:textRect cx="56.6929" cy="283.159" width="113.39" height="22.6772"/>
			<path d="M11.34 294.5 L102.05 294.5 A11.3384 11.3384 -180 0 0 113.39 283.16 A11.3384 11.3384 -180 0 0 102.05 271.82 L11.34
						 271.82 A11.3384 11.3384 -180 0 0 0 283.16 A11.3384 11.3384 -180 0 0 11.34 294.5 Z" class="st10"/>
			<text x="24.72" y="285.86" class="st3" v:langID="1033"><v:paragraph v:horizAlign="1"/><v:tabList/>LTWB flow grids</text>		</g>
		<g id="shape1072-33" v:mID="1072" v:groupContext="shape" transform="translate(257.527,-116.225)">
			<title>Rounded Rectangle.1072</title>
			<desc>Drainage nodes with Fp values</desc>
			<v:userDefs>
				<v:ud v:nameU="CTypeTopLeftSnip" v:prompt="" v:val="VT0(0):5"/>
				<v:ud v:nameU="CTypeTopRightSnip" v:prompt="" v:val="VT0(0):5"/>
				<v:ud v:nameU="CTypeBotLeftSnip" v:prompt="" v:val="VT0(0):5"/>
				<v:ud v:nameU="CTypeBotRightSnip" v:prompt="" v:val="VT0(0):5"/>
				<v:ud v:nameU="CornerLockHoriz" v:prompt="" v:val="VT0(1):5"/>
				<v:ud v:nameU="CornerLockVert" v:prompt="" v:val="VT0(1):5"/>
				<v:ud v:nameU="CornerLockDiag" v:prompt="" v:val="VT0(0):5"/>
				<v:ud v:nameU="TopLeftOffset" v:prompt="" v:val="VT0(0.15748031496063):24"/>
				<v:ud v:nameU="TopRightOffset" v:prompt="" v:val="VT0(0.15748031496063):24"/>
				<v:ud v:nameU="BotLeftOffset" v:prompt="" v:val="VT0(0.15748031496063):24"/>
				<v:ud v:nameU="BotRightOffset" v:prompt="" v:val="VT0(0.15748031496063):24"/>
				<v:ud v:nameU="visVersion" v:prompt="" v:val="VT0(15):26"/>
			</v:userDefs>
			<v:textBlock v:margins="rect(4,4,4,4)" v:tabSpace="42.5197"/>
			<v:textRect cx="56.6929" cy="283.159" width="113.39" height="22.6772"/>
			<path d="M11.34 294.5 L102.05 294.5 A11.3384 11.3384 -180 0 0 113.39 283.16 A11.3384 11.3384 -180 0 0 102.05 271.82 L11.34
						 271.82 A11.3384 11.3384 -180 0 0 0 283.16 A11.3384 11.3384 -180 0 0 11.34 294.5 Z" class="st12"/>
			<text x="25.43" y="280.46" class="st3" v:langID="1033"><v:paragraph v:horizAlign="1"/><v:tabList/>Drainage nodes<v:newlineChar/><tspan
						x="28.63" dy="1.2em" class="st8">with Fp values</tspan></text>		</g>
		<g id="shape1074-39" v:mID="1074" v:groupContext="shape" v:layerMember="0" transform="translate(307.133,-186.678)">
			<title>Dynamic connector.1074</title>
			<v:userDefs>
				<v:ud v:nameU="visVersion" v:val="VT0(15):26"/>
			</v:userDefs>
			<path d="M7.09 295.58 C7.09 297.45 7.09 300.48 7.09 303.22" class="st4"/>
		</g>
		<g id="shape1075-44" v:mID="1075" v:groupContext="shape" transform="translate(257.659,-223.784)">
			<title>Rounded Rectangle.1075</title>
			<desc>Drainage nodes</desc>
			<v:userDefs>
				<v:ud v:nameU="CTypeTopLeftSnip" v:prompt="" v:val="VT0(0):5"/>
				<v:ud v:nameU="CTypeTopRightSnip" v:prompt="" v:val="VT0(0):5"/>
				<v:ud v:nameU="CTypeBotLeftSnip" v:prompt="" v:val="VT0(0):5"/>
				<v:ud v:nameU="CTypeBotRightSnip" v:prompt="" v:val="VT0(0):5"/>
				<v:ud v:nameU="CornerLockHoriz" v:prompt="" v:val="VT0(1):5"/>
				<v:ud v:nameU="CornerLockVert" v:prompt="" v:val="VT0(1):5"/>
				<v:ud v:nameU="CornerLockDiag" v:prompt="" v:val="VT0(0):5"/>
				<v:ud v:nameU="TopLeftOffset" v:prompt="" v:val="VT0(0.15748031496063):24"/>
				<v:ud v:nameU="TopRightOffset" v:prompt="" v:val="VT0(0.15748031496063):24"/>
				<v:ud v:nameU="BotLeftOffset" v:prompt="" v:val="VT0(0.15748031496063):24"/>
				<v:ud v:nameU="BotRightOffset" v:prompt="" v:val="VT0(0.15748031496063):24"/>
				<v:ud v:nameU="visVersion" v:prompt="" v:val="VT0(15):26"/>
			</v:userDefs>
			<v:textBlock v:margins="rect(4,4,4,4)" v:tabSpace="42.5197"/>
			<v:textRect cx="56.6929" cy="283.159" width="113.39" height="22.6772"/>
			<path d="M11.34 294.5 L102.05 294.5 A11.3384 11.3384 -180 0 0 113.39 283.16 A11.3384 11.3384 -180 0 0 102.05 271.82 L11.34
						 271.82 A11.3384 11.3384 -180 0 0 0 283.16 A11.3384 11.3384 -180 0 0 11.34 294.5 Z" class="st12"/>
			<text x="25.43" y="285.86" class="st3" v:langID="1033"><v:paragraph v:horizAlign="1"/><v:tabList/>Drainage nodes</text>		</g>
		<g id="shape1076-48" v:mID="1076" v:groupContext="shape" v:layerMember="0" transform="translate(190.903,-261.973)">
			<title>Dynamic connector.1076</title>
			<v:userDefs>
				<v:ud v:nameU="visVersion" v:val="VT0(15):26"/>
			</v:userDefs>
			<path d="M0 294.5 C0 299.81 12.37 299.81 22.89 299.81 C38.6 299.81 50.16 299.81 61.71 299.81 C73.26 299.81 84.79 299.81
						 100.43 299.81 C109.26 299.81 119.39 299.81 122.5 305.75 L122.58 306.1" class="st9"/>
		</g>
		<g id="shape1077-53" v:mID="1077" v:groupContext="shape" v:layerMember="0" transform="translate(321.373,-223.784)">
			<title>Dynamic connector.1077</title>
			<v:userDefs>
				<v:ud v:nameU="visVersion" v:val="VT0(15):26"/>
			</v:userDefs>
			<path d="M-7.02 294.5 C-7.02 297.15 -7.02 298.04 -7.02 298.73 C-7.02 299.08 -7.02 299.38 -7.03 299.55 C-7.05 299.81 -7.09
						 299.81 -7.12 300.04 C-7.15 300.33 -7.15 301.01 -7.15 301.74 C-7.15 302.68 -7.15 303.71 -7.15 305.64"
					class="st4"/>
		</g>
		<g id="shape1134-58" v:mID="1134" v:groupContext="shape" transform="translate(257.527,-150.91)">
			<title>Rounded Rectangle.1134</title>
			<desc>Field calculator Fp = F / A</desc>
			<v:userDefs>
				<v:ud v:nameU="CTypeTopLeftSnip" v:prompt="" v:val="VT0(0):5"/>
				<v:ud v:nameU="CTypeTopRightSnip" v:prompt="" v:val="VT0(0):5"/>
				<v:ud v:nameU="CTypeBotLeftSnip" v:prompt="" v:val="VT0(0):5"/>
				<v:ud v:nameU="CTypeBotRightSnip" v:prompt="" v:val="VT0(0):5"/>
				<v:ud v:nameU="CornerLockHoriz" v:prompt="" v:val="VT0(1):5"/>
				<v:ud v:nameU="CornerLockVert" v:prompt="" v:val="VT0(1):5"/>
				<v:ud v:nameU="CornerLockDiag" v:prompt="" v:val="VT0(0):5"/>
				<v:ud v:nameU="TopLeftOffset" v:prompt="" v:val="VT0(0.15748031496063):24"/>
				<v:ud v:nameU="TopRightOffset" v:prompt="" v:val="VT0(0.15748031496063):24"/>
				<v:ud v:nameU="BotLeftOffset" v:prompt="" v:val="VT0(0.15748031496063):24"/>
				<v:ud v:nameU="BotRightOffset" v:prompt="" v:val="VT0(0.15748031496063):24"/>
				<v:ud v:nameU="visVersion" v:prompt="" v:val="VT0(15):26"/>
				<v:ud v:nameU="TopLeftOffset" v:prompt="" v:val="VT0(0.15748031969087):24"/>
				<v:ud v:nameU="TopRightOffset" v:prompt="" v:val="VT0(0.15748031969087):24"/>
				<v:ud v:nameU="BotLeftOffset" v:prompt="" v:val="VT0(0.15748031969087):24"/>
				<v:ud v:nameU="BotRightOffset" v:prompt="" v:val="VT0(0.15748031969087):24"/>
			</v:userDefs>
			<v:textBlock v:margins="rect(4,4,4,4)" v:tabSpace="42.5197"/>
			<v:textRect cx="56.6929" cy="283.159" width="113.39" height="22.6772"/>
			<path d="M11.34 294.5 L102.05 294.5 A11.3384 11.3384 -180 0 0 113.39 283.16 A11.3384 11.3384 -180 0 0 102.05 271.82 L11.34
						 271.82 A11.3384 11.3384 -180 0 0 -0 283.16 A11.3384 11.3384 -180 0 0 11.34 294.5 Z" class="st6"/>
			<text x="26.89" y="280.46" class="st3" v:langID="1033"><v:paragraph v:horizAlign="1"/><v:tabList/>Field calculator<v:newlineChar/><tspan
						x="36.99" dy="1.2em" class="st8">Fp = F / A</tspan></text>		</g>
		<g id="shape1139-63" v:mID="1139" v:groupContext="shape" v:layerMember="0" transform="translate(307.133,-151.993)">
			<title>Dynamic connector.1139</title>
			<v:userDefs>
				<v:ud v:nameU="visVersion" v:val="VT0(15):26"/>
			</v:userDefs>
			<path d="M7.09 295.58 C7.09 297.45 7.09 300.48 7.09 303.22" class="st4"/>
		</g>
		<g id="shape1144-68" v:mID="1144" v:groupContext="shape" transform="translate(138.101,-80.8961)">
			<title>Rounded Rectangle.1144</title>
			<desc>Histogram Area vs. Fp</desc>
			<v:userDefs>
				<v:ud v:nameU="CTypeTopLeftSnip" v:prompt="" v:val="VT0(0):5"/>
				<v:ud v:nameU="CTypeTopRightSnip" v:prompt="" v:val="VT0(0):5"/>
				<v:ud v:nameU="CTypeBotLeftSnip" v:prompt="" v:val="VT0(0):5"/>
				<v:ud v:nameU="CTypeBotRightSnip" v:prompt="" v:val="VT0(0):5"/>
				<v:ud v:nameU="CornerLockHoriz" v:prompt="" v:val="VT0(1):5"/>
				<v:ud v:nameU="CornerLockVert" v:prompt="" v:val="VT0(1):5"/>
				<v:ud v:nameU="CornerLockDiag" v:prompt="" v:val="VT0(0):5"/>
				<v:ud v:nameU="TopLeftOffset" v:prompt="" v:val="VT0(0.15748031496063):24"/>
				<v:ud v:nameU="TopRightOffset" v:prompt="" v:val="VT0(0.15748031496063):24"/>
				<v:ud v:nameU="BotLeftOffset" v:prompt="" v:val="VT0(0.15748031496063):24"/>
				<v:ud v:nameU="BotRightOffset" v:prompt="" v:val="VT0(0.15748031496063):24"/>
				<v:ud v:nameU="visVersion" v:prompt="" v:val="VT0(15):26"/>
			</v:userDefs>
			<v:textBlock v:margins="rect(4,4,4,4)" v:tabSpace="42.5197"/>
			<v:textRect cx="56.6929" cy="283.159" width="113.39" height="22.6772"/>
			<path d="M11.34 294.5 L102.05 294.5 A11.3384 11.3384 -180 0 0 113.39 283.16 A11.3384 11.3384 -180 0 0 102.05 271.82 L11.34
						 271.82 A11.3384 11.3384 -180 0 0 0 283.16 A11.3384 11.3384 -180 0 0 11.34 294.5 Z" class="st14"/>
			<text x="35.96" y="280.46" class="st3" v:langID="1033"><v:paragraph v:horizAlign="1"/><v:tabList/>Histogram<v:newlineChar/><tspan
						x="35.23" dy="1.2em" class="st8">Area vs. Fp</tspan></text>		</g>
		<g id="shape1145-73" v:mID="1145" v:groupContext="shape" transform="translate(257.527,-80.8961)">
			<title>Rounded Rectangle.1145</title>
			<desc>Scatter plot Area vs. Fp</desc>
			<v:userDefs>
				<v:ud v:nameU="CTypeTopLeftSnip" v:prompt="" v:val="VT0(0):5"/>
				<v:ud v:nameU="CTypeTopRightSnip" v:prompt="" v:val="VT0(0):5"/>
				<v:ud v:nameU="CTypeBotLeftSnip" v:prompt="" v:val="VT0(0):5"/>
				<v:ud v:nameU="CTypeBotRightSnip" v:prompt="" v:val="VT0(0):5"/>
				<v:ud v:nameU="CornerLockHoriz" v:prompt="" v:val="VT0(1):5"/>
				<v:ud v:nameU="CornerLockVert" v:prompt="" v:val="VT0(1):5"/>
				<v:ud v:nameU="CornerLockDiag" v:prompt="" v:val="VT0(0):5"/>
				<v:ud v:nameU="TopLeftOffset" v:prompt="" v:val="VT0(0.15748031496063):24"/>
				<v:ud v:nameU="TopRightOffset" v:prompt="" v:val="VT0(0.15748031496063):24"/>
				<v:ud v:nameU="BotLeftOffset" v:prompt="" v:val="VT0(0.15748031496063):24"/>
				<v:ud v:nameU="BotRightOffset" v:prompt="" v:val="VT0(0.15748031496063):24"/>
				<v:ud v:nameU="visVersion" v:prompt="" v:val="VT0(15):26"/>
			</v:userDefs>
			<v:textBlock v:margins="rect(4,4,4,4)" v:tabSpace="42.5197"/>
			<v:textRect cx="56.6929" cy="283.159" width="113.39" height="22.6772"/>
			<path d="M11.34 294.5 L102.05 294.5 A11.3384 11.3384 -180 0 0 113.39 283.16 A11.3384 11.3384 -180 0 0 102.05 271.82 L11.34
						 271.82 A11.3384 11.3384 -180 0 0 0 283.16 A11.3384 11.3384 -180 0 0 11.34 294.5 Z" class="st14"/>
			<text x="33.84" y="280.46" class="st3" v:langID="1033"><v:paragraph v:horizAlign="1"/><v:tabList/>Scatter plot<v:newlineChar/><tspan
						x="35.23" dy="1.2em" class="st8">Area vs. Fp</tspan></text>		</g>
		<g id="shape1146-78" v:mID="1146" v:groupContext="shape" transform="translate(257.527,-45.5672)">
			<title>Rounded Rectangle.1146</title>
			<desc>Linear trend equations</desc>
			<v:userDefs>
				<v:ud v:nameU="CTypeTopLeftSnip" v:prompt="" v:val="VT0(0):5"/>
				<v:ud v:nameU="CTypeTopRightSnip" v:prompt="" v:val="VT0(0):5"/>
				<v:ud v:nameU="CTypeBotLeftSnip" v:prompt="" v:val="VT0(0):5"/>
				<v:ud v:nameU="CTypeBotRightSnip" v:prompt="" v:val="VT0(0):5"/>
				<v:ud v:nameU="CornerLockHoriz" v:prompt="" v:val="VT0(1):5"/>
				<v:ud v:nameU="CornerLockVert" v:prompt="" v:val="VT0(1):5"/>
				<v:ud v:nameU="CornerLockDiag" v:prompt="" v:val="VT0(0):5"/>
				<v:ud v:nameU="TopLeftOffset" v:prompt="" v:val="VT0(0.15748031496063):24"/>
				<v:ud v:nameU="TopRightOffset" v:prompt="" v:val="VT0(0.15748031496063):24"/>
				<v:ud v:nameU="BotLeftOffset" v:prompt="" v:val="VT0(0.15748031496063):24"/>
				<v:ud v:nameU="BotRightOffset" v:prompt="" v:val="VT0(0.15748031496063):24"/>
				<v:ud v:nameU="visVersion" v:prompt="" v:val="VT0(15):26"/>
			</v:userDefs>
			<v:textBlock v:margins="rect(4,4,4,4)" v:tabSpace="42.5197"/>
			<v:textRect cx="56.6929" cy="283.159" width="113.39" height="22.6772"/>
			<path d="M11.34 294.5 L102.05 294.5 A11.3384 11.3384 -180 0 0 113.39 283.16 A11.3384 11.3384 -180 0 0 102.05 271.82 L11.34
						 271.82 A11.3384 11.3384 -180 0 0 0 283.16 A11.3384 11.3384 -180 0 0 11.34 294.5 Z" class="st14"/>
			<text x="12.08" y="285.86" class="st3" v:langID="1033"><v:paragraph v:horizAlign="1"/><v:tabList/>Linear trend equations</text>		</g>
		<g id="shape1147-82" v:mID="1147" v:groupContext="shape" v:layerMember="0" transform="translate(307.133,-116.986)">
			<title>Dynamic connector.1147</title>
			<v:userDefs>
				<v:ud v:nameU="visVersion" v:val="VT0(15):26"/>
			</v:userDefs>
			<path d="M7.09 295.26 C7.09 297.28 7.09 300.59 7.09 303.54" class="st4"/>
		</g>
		<g id="shape1148-87" v:mID="1148" v:groupContext="shape" v:layerMember="0" transform="translate(307.133,-81.6568)">
			<title>Dynamic connector.1148</title>
			<v:userDefs>
				<v:ud v:nameU="visVersion" v:val="VT0(15):26"/>
			</v:userDefs>
			<path d="M7.09 295.26 C7.09 297.28 7.09 300.59 7.09 303.54" class="st4"/>
		</g>
		<g id="shape1149-92" v:mID="1149" v:groupContext="shape" v:layerMember="0" transform="translate(314.22,-46.1323)">
			<title>Dynamic connector.1149</title>
			<v:userDefs>
				<v:ud v:nameU="visVersion" v:val="VT0(15):26"/>
			</v:userDefs>
			<path d="M0 295.06 C-0 300.38 -11.97 300.38 -22.14 300.38 C-37.34 300.38 -48.53 300.38 -59.71 300.38 C-70.89 300.38 -82.06
						 300.38 -97.23 300.38 C-105.18 300.38 -114.23 300.38 -117.83 304.04 L-117.96 304.38" class="st9"/>
		</g>
		<g id="shape1150-97" v:mID="1150" v:groupContext="shape" v:layerMember="0" transform="translate(187.707,-80.8961)">
			<title>Dynamic connector.1150</title>
			<v:userDefs>
				<v:ud v:nameU="visVersion" v:val="VT0(15):26"/>
			</v:userDefs>
			<path d="M7.09 294.5 C7.09 305.27 7.09 325.64 7.09 338.5" class="st4"/>
		</g>
		<g id="shape1151-102" v:mID="1151" v:groupContext="shape" transform="translate(9.84707,-223.784)">
			<title>Rounded Rectangle.1151</title>
			<desc>FAC – Flow accumulation</desc>
			<v:userDefs>
				<v:ud v:nameU="CTypeTopLeftSnip" v:prompt="" v:val="VT0(0):5"/>
				<v:ud v:nameU="CTypeTopRightSnip" v:prompt="" v:val="VT0(0):5"/>
				<v:ud v:nameU="CTypeBotLeftSnip" v:prompt="" v:val="VT0(0):5"/>
				<v:ud v:nameU="CTypeBotRightSnip" v:prompt="" v:val="VT0(0):5"/>
				<v:ud v:nameU="CornerLockHoriz" v:prompt="" v:val="VT0(1):5"/>
				<v:ud v:nameU="CornerLockVert" v:prompt="" v:val="VT0(1):5"/>
				<v:ud v:nameU="CornerLockDiag" v:prompt="" v:val="VT0(0):5"/>
				<v:ud v:nameU="TopLeftOffset" v:prompt="" v:val="VT0(0.15748031496063):24"/>
				<v:ud v:nameU="TopRightOffset" v:prompt="" v:val="VT0(0.15748031496063):24"/>
				<v:ud v:nameU="BotLeftOffset" v:prompt="" v:val="VT0(0.15748031496063):24"/>
				<v:ud v:nameU="BotRightOffset" v:prompt="" v:val="VT0(0.15748031496063):24"/>
				<v:ud v:nameU="visVersion" v:prompt="" v:val="VT0(15):26"/>
			</v:userDefs>
			<v:textBlock v:margins="rect(4,4,4,4)" v:tabSpace="42.5197"/>
			<v:textRect cx="56.6929" cy="283.159" width="113.39" height="22.6772"/>
			<path d="M11.34 294.5 L102.05 294.5 A11.3384 11.3384 -180 0 0 113.39 283.16 A11.3384 11.3384 -180 0 0 102.05 271.82 L11.34
						 271.82 A11.3384 11.3384 -180 0 0 0 283.16 A11.3384 11.3384 -180 0 0 11.34 294.5 Z" class="st10"/>
			<text x="7.09" y="285.86" class="st3" v:langID="1033"><v:paragraph v:horizAlign="1"/><v:tabList/>FAC – Flow accumulation</text>		</g>
		<g id="shape1152-106" v:mID="1152" v:groupContext="shape" transform="translate(72.0286,-186.422)">
			<title>Rounded Rectangle.1152</title>
			<desc>Raster calculator Fp = F / A</desc>
			<v:userDefs>
				<v:ud v:nameU="CTypeTopLeftSnip" v:prompt="" v:val="VT0(0):5"/>
				<v:ud v:nameU="CTypeTopRightSnip" v:prompt="" v:val="VT0(0):5"/>
				<v:ud v:nameU="CTypeBotLeftSnip" v:prompt="" v:val="VT0(0):5"/>
				<v:ud v:nameU="CTypeBotRightSnip" v:prompt="" v:val="VT0(0):5"/>
				<v:ud v:nameU="CornerLockHoriz" v:prompt="" v:val="VT0(1):5"/>
				<v:ud v:nameU="CornerLockVert" v:prompt="" v:val="VT0(1):5"/>
				<v:ud v:nameU="CornerLockDiag" v:prompt="" v:val="VT0(0):5"/>
				<v:ud v:nameU="TopLeftOffset" v:prompt="" v:val="VT0(0.15748031496063):24"/>
				<v:ud v:nameU="TopRightOffset" v:prompt="" v:val="VT0(0.15748031496063):24"/>
				<v:ud v:nameU="BotLeftOffset" v:prompt="" v:val="VT0(0.15748031496063):24"/>
				<v:ud v:nameU="BotRightOffset" v:prompt="" v:val="VT0(0.15748031496063):24"/>
				<v:ud v:nameU="visVersion" v:prompt="" v:val="VT0(15):26"/>
				<v:ud v:nameU="TopLeftOffset" v:prompt="" v:val="VT0(0.15748031969087):24"/>
				<v:ud v:nameU="TopRightOffset" v:prompt="" v:val="VT0(0.15748031969087):24"/>
				<v:ud v:nameU="BotLeftOffset" v:prompt="" v:val="VT0(0.15748031969087):24"/>
				<v:ud v:nameU="BotRightOffset" v:prompt="" v:val="VT0(0.15748031969087):24"/>
			</v:userDefs>
			<v:textBlock v:margins="rect(4,4,4,4)" v:tabSpace="42.5197"/>
			<v:textRect cx="56.6929" cy="283.159" width="113.39" height="22.6772"/>
			<path d="M11.34 294.5 L102.05 294.5 A11.3384 11.3384 -180 0 0 113.39 283.16 A11.3384 11.3384 -180 0 0 102.05 271.82 L11.34
						 271.82 A11.3384 11.3384 -180 0 0 -0 283.16 A11.3384 11.3384 -180 0 0 11.34 294.5 Z" class="st6"/>
			<text x="23.94" y="280.46" class="st3" v:langID="1033"><v:paragraph v:horizAlign="1"/><v:tabList/>Raster calculator<v:newlineChar/><tspan
						x="36.99" dy="1.2em" class="st8">Fp = F / A</tspan></text>		</g>
		<g id="shape1153-111" v:mID="1153" v:groupContext="shape" v:layerMember="0" transform="translate(190.903,-261.973)">
			<title>Dynamic connector.1153</title>
			<v:userDefs>
				<v:ud v:nameU="visVersion" v:val="VT0(15):26"/>
			</v:userDefs>
			<path d="M0 294.5 C-0 299.81 -12.46 299.81 -23.06 299.81 C-38.88 299.81 -50.53 299.81 -62.17 299.81 C-73.8 299.81 -85.42
						 299.81 -101.18 299.81 C-110.07 299.81 -120.28 299.81 -123.41 305.75 L-123.48 306.1" class="st9"/>
		</g>
		<g id="shape1154-116" v:mID="1154" v:groupContext="shape" v:layerMember="0" transform="translate(66.54,-223.784)">
			<title>Dynamic connector.1154</title>
			<v:userDefs>
				<v:ud v:nameU="visVersion" v:val="VT0(15):26"/>
			</v:userDefs>
			<path d="M0 294.5 C0 299.81 5.23 299.81 9.87 299.81 C19.02 299.81 25.86 299.81 38.8 299.81 C46.93 299.81 57.46 299.81
						 60.98 304.99 L61.08 305.33" class="st9"/>
		</g>
		<g id="shape1155-121" v:mID="1155" v:groupContext="shape" v:layerMember="0" transform="translate(190.903,-223.784)">
			<title>Dynamic connector.1155</title>
			<v:userDefs>
				<v:ud v:nameU="visVersion" v:val="VT0(15):26"/>
			</v:userDefs>
			<path d="M0 294.5 C-0 299.81 -5.23 299.81 -9.87 299.81 C-19.02 299.81 -25.86 299.81 -38.8 299.81 C-46.93 299.81 -57.46
						 299.81 -60.98 304.99 L-61.08 305.33" class="st9"/>
		</g>
		<g id="shape1156-126" v:mID="1156" v:groupContext="shape" transform="translate(72.0286,-150.91)">
			<title>Rounded Rectangle.1156</title>
			<desc>Flow performance grid</desc>
			<v:userDefs>
				<v:ud v:nameU="CTypeTopLeftSnip" v:prompt="" v:val="VT0(0):5"/>
				<v:ud v:nameU="CTypeTopRightSnip" v:prompt="" v:val="VT0(0):5"/>
				<v:ud v:nameU="CTypeBotLeftSnip" v:prompt="" v:val="VT0(0):5"/>
				<v:ud v:nameU="CTypeBotRightSnip" v:prompt="" v:val="VT0(0):5"/>
				<v:ud v:nameU="CornerLockHoriz" v:prompt="" v:val="VT0(1):5"/>
				<v:ud v:nameU="CornerLockVert" v:prompt="" v:val="VT0(1):5"/>
				<v:ud v:nameU="CornerLockDiag" v:prompt="" v:val="VT0(0):5"/>
				<v:ud v:nameU="TopLeftOffset" v:prompt="" v:val="VT0(0.15748031496063):24"/>
				<v:ud v:nameU="TopRightOffset" v:prompt="" v:val="VT0(0.15748031496063):24"/>
				<v:ud v:nameU="BotLeftOffset" v:prompt="" v:val="VT0(0.15748031496063):24"/>
				<v:ud v:nameU="BotRightOffset" v:prompt="" v:val="VT0(0.15748031496063):24"/>
				<v:ud v:nameU="visVersion" v:prompt="" v:val="VT0(15):26"/>
			</v:userDefs>
			<v:textBlock v:margins="rect(4,4,4,4)" v:tabSpace="42.5197"/>
			<v:textRect cx="56.6929" cy="283.159" width="113.39" height="22.6772"/>
			<path d="M11.34 294.5 L102.05 294.5 A11.3384 11.3384 -180 0 0 113.39 283.16 A11.3384 11.3384 -180 0 0 102.05 271.82 L11.34
						 271.82 A11.3384 11.3384 -180 0 0 0 283.16 A11.3384 11.3384 -180 0 0 11.34 294.5 Z" class="st10"/>
			<text x="11.78" y="285.86" class="st3" v:langID="1033"><v:paragraph v:horizAlign="1"/><v:tabList/>Flow performance grid</text>		</g>
		<g id="shape1157-130" v:mID="1157" v:groupContext="shape" v:layerMember="0" transform="translate(121.635,-187.091)">
			<title>Dynamic connector.1157</title>
			<v:userDefs>
				<v:ud v:nameU="visVersion" v:val="VT0(15):26"/>
			</v:userDefs>
			<path d="M7.09 295.17 C7.09 297.23 7.09 300.62 7.09 303.64" class="st4"/>
		</g>
		<g id="shape1161-135" v:mID="1161" v:groupContext="shape" v:layerMember="0" transform="translate(128.722,-150.91)">
			<title>Dynamic connector.1161</title>
			<v:userDefs>
				<v:ud v:nameU="visVersion" v:val="VT0(15):26"/>
			</v:userDefs>
			<path d="M0 294.5 C0 402.25 21.6 402.25 43.2 402.25 C52.83 402.25 62.45 402.25 65.26 408.59 L65.33 408.95" class="st9"/>
		</g>
	</g>
</svg>
