<?xml version="1.0" encoding="UTF-8" standalone="no"?>
<!DOCTYPE svg PUBLIC "-//W3C//DTD SVG 1.1//EN" "http://www.w3.org/Graphics/SVG/1.1/DTD/svg11.dtd">
<!-- Generated by Microsoft Visio, SVG Export GDB100kFlowchart.svg Page-1 -->
<svg xmlns="http://www.w3.org/2000/svg" xmlns:xlink="http://www.w3.org/1999/xlink" xmlns:ev="http://www.w3.org/2001/xml-events"
		xmlns:v="http://schemas.microsoft.com/visio/2003/SVGExtensions/" width="7.42046in" height="6.1003in"
		viewBox="0 0 534.273 439.222" xml:space="preserve" color-interpolation-filters="sRGB" class="st13">
	<v:documentProperties v:langID="1033" v:metric="true" v:viewMarkup="false"/>

	<style type="text/css">
	<![CDATA[
		.st1 {fill:#f2f2f2;stroke:#4c85f4;stroke-width:1.5}
		.st2 {fill:#4c85f4;fill-opacity:1;stroke:#4c85f4;stroke-opacity:1;stroke-width:0.37313432835821}
		.st3 {fill:#000000;font-family:Segoe UI;font-size:0.75em}
		.st4 {fill:#f2f2f2;stroke:#fbbc0e;stroke-width:1.5}
		.st5 {fill:#fbbc0e;fill-opacity:1;stroke:#fbbc0e;stroke-opacity:1;stroke-width:0.37313432835821}
		.st6 {marker-end:url(#mrkr6-16);stroke:#7f7f7f;stroke-linecap:round;stroke-linejoin:round;stroke-width:0.5}
		.st7 {fill:#7f7f7f;fill-opacity:1;stroke:#7f7f7f;stroke-opacity:1;stroke-width:0.25773195876289}
		.st8 {marker-end:url(#mrkr6-26);stroke:#7f7f7f;stroke-linecap:round;stroke-linejoin:round;stroke-width:0.5}
		.st9 {fill:#f2f2f2;stroke:#ea4d35;stroke-width:1.5}
		.st10 {fill:#ea4d35;fill-opacity:1;stroke:#ea4d35;stroke-opacity:1;stroke-width:0.37313432835821}
		.st11 {marker-end:url(#mrkr6-26);stroke:#7f7f7f;stroke-dasharray:3.5,2.5;stroke-linecap:round;stroke-linejoin:round;stroke-width:0.5}
		.st12 {font-size:1em}
		.st13 {fill:none;fill-rule:evenodd;font-size:12px;overflow:visible;stroke-linecap:square;stroke-miterlimit:3}
	]]>
	</style>

	<defs id="Markers">
		<g id="lend6">
			<path d="M 2 1 L 0 0 L 2.01237 -1.00641 C 2.32921 -0.372876 2.32921 0.372869 2.01238 1.0064 " style="stroke:none"/>
		</g>
		<marker id="mrkr6-4" class="st2" v:arrowType="6" v:arrowSize="2" v:setback="6.03" refX="6.03" orient="auto"
				markerUnits="strokeWidth" overflow="visible">
			<use xlink:href="#lend6" transform="scale(2.68) "/>
		</marker>
		<marker id="mrkr6-9" class="st5" v:arrowType="6" v:arrowSize="2" v:setback="6.03" refX="6.03" orient="auto"
				markerUnits="strokeWidth" overflow="visible">
			<use xlink:href="#lend6" transform="scale(2.68) "/>
		</marker>
		<marker id="mrkr6-16" class="st7" v:arrowType="6" v:arrowSize="0" v:setback="8.73" refX="-8.73" orient="auto"
				markerUnits="strokeWidth" overflow="visible">
			<use xlink:href="#lend6" transform="scale(-3.88,-3.88) "/>
		</marker>
		<marker id="mrkr6-26" class="st7" v:arrowType="6" v:arrowSize="0" v:setback="8.01" refX="-8.01" orient="auto"
				markerUnits="strokeWidth" overflow="visible">
			<use xlink:href="#lend6" transform="scale(-3.88,-3.88) "/>
		</marker>
		<marker id="mrkr6-34" class="st10" v:arrowType="6" v:arrowSize="2" v:setback="6.03" refX="6.03" orient="auto"
				markerUnits="strokeWidth" overflow="visible">
			<use xlink:href="#lend6" transform="scale(2.68) "/>
		</marker>
	</defs>
	<g v:mID="0" v:index="1" v:groupContext="foregroundPage">
		<title>Page-1</title>
		<v:pageProperties v:drawingScale="0.0393701" v:pageScale="0.0393701" v:drawingUnits="24" v:shadowOffsetX="8.50394"
				v:shadowOffsetY="-8.50394"/>
		<v:layer v:name="Connector" v:index="0"/>
		<g id="shape83-1" v:mID="83" v:groupContext="shape" transform="translate(144.819,-406.697)">
			<title>Rounded Rectangle.83</title>
			<desc>GDB descarga</desc>
			<v:userDefs>
				<v:ud v:nameU="CTypeTopLeftSnip" v:prompt="" v:val="VT0(0):5"/>
				<v:ud v:nameU="CTypeTopRightSnip" v:prompt="" v:val="VT0(0):5"/>
				<v:ud v:nameU="CTypeBotLeftSnip" v:prompt="" v:val="VT0(0):5"/>
				<v:ud v:nameU="CTypeBotRightSnip" v:prompt="" v:val="VT0(0):5"/>
				<v:ud v:nameU="CornerLockHoriz" v:prompt="" v:val="VT0(1):5"/>
				<v:ud v:nameU="CornerLockVert" v:prompt="" v:val="VT0(1):5"/>
				<v:ud v:nameU="CornerLockDiag" v:prompt="" v:val="VT0(0):5"/>
				<v:ud v:nameU="TopLeftOffset" v:prompt="" v:val="VT0(0.15748031496063):24"/>
				<v:ud v:nameU="TopRightOffset" v:prompt="" v:val="VT0(0.15748031496063):24"/>
				<v:ud v:nameU="BotLeftOffset" v:prompt="" v:val="VT0(0.15748031496063):24"/>
				<v:ud v:nameU="BotRightOffset" v:prompt="" v:val="VT0(0.15748031496063):24"/>
				<v:ud v:nameU="visVersion" v:prompt="" v:val="VT0(15):26"/>
			</v:userDefs>
			<v:textBlock v:margins="rect(4,4,4,4)" v:tabSpace="42.5197"/>
			<v:textRect cx="58.9117" cy="427.883" width="117.83" height="22.6772"/>
			<path d="M11.34 439.22 L106.48 439.22 A11.3384 11.3384 -180 0 0 117.82 427.88 A11.3384 11.3384 -180 0 0 106.48 416.54
						 L11.34 416.54 A11.3384 11.3384 -180 0 0 0 427.88 A11.3384 11.3384 -180 0 0 11.34 439.22 Z" class="st1"/>
			<text x="31.07" y="430.58" class="st3" v:langID="1033"><v:paragraph v:horizAlign="1"/><v:tabList/>GDB descarga</text>		</g>
		<g id="shape84-6" v:mID="84" v:groupContext="shape" transform="translate(144.819,-369.847)">
			<title>Rounded Rectangle.84</title>
			<desc>Cargar clases de entidad</desc>
			<v:userDefs>
				<v:ud v:nameU="CTypeTopLeftSnip" v:prompt="" v:val="VT0(0):5"/>
				<v:ud v:nameU="CTypeTopRightSnip" v:prompt="" v:val="VT0(0):5"/>
				<v:ud v:nameU="CTypeBotLeftSnip" v:prompt="" v:val="VT0(0):5"/>
				<v:ud v:nameU="CTypeBotRightSnip" v:prompt="" v:val="VT0(0):5"/>
				<v:ud v:nameU="CornerLockHoriz" v:prompt="" v:val="VT0(1):5"/>
				<v:ud v:nameU="CornerLockVert" v:prompt="" v:val="VT0(1):5"/>
				<v:ud v:nameU="CornerLockDiag" v:prompt="" v:val="VT0(0):5"/>
				<v:ud v:nameU="TopLeftOffset" v:prompt="" v:val="VT0(0.15748031496063):24"/>
				<v:ud v:nameU="TopRightOffset" v:prompt="" v:val="VT0(0.15748031496063):24"/>
				<v:ud v:nameU="BotLeftOffset" v:prompt="" v:val="VT0(0.15748031496063):24"/>
				<v:ud v:nameU="BotRightOffset" v:prompt="" v:val="VT0(0.15748031496063):24"/>
				<v:ud v:nameU="visVersion" v:prompt="" v:val="VT0(15):26"/>
			</v:userDefs>
			<v:textBlock v:margins="rect(4,4,4,4)" v:tabSpace="42.5197"/>
			<v:textRect cx="58.9117" cy="427.883" width="117.83" height="22.6772"/>
			<path d="M11.34 439.22 L106.48 439.22 A11.3384 11.3384 -180 0 0 117.82 427.88 A11.3384 11.3384 -180 0 0 106.48 416.54
						 L11.34 416.54 A11.3384 11.3384 -180 0 0 0 427.88 A11.3384 11.3384 -180 0 0 11.34 439.22 Z" class="st4"/>
			<text x="10.33" y="430.58" class="st3" v:langID="1033"><v:paragraph v:horizAlign="1"/><v:tabList/>Cargar clases de entidad</text>		</g>
		<g id="shape85-11" v:mID="85" v:groupContext="shape" v:layerMember="0" transform="translate(196.644,-406.697)">
			<title>Dynamic connector.85</title>
			<v:userDefs>
				<v:ud v:nameU="visVersion" v:val="VT0(15):26"/>
			</v:userDefs>
			<path d="M7.09 439.22 C7.09 441.61 7.09 445.6 7.09 449.03" class="st6"/>
		</g>
		<g id="shape86-17" v:mID="86" v:groupContext="shape" transform="translate(9.84708,-325.91)">
			<title>Rounded Rectangle.86</title>
			<desc>Drenaje sencillo</desc>
			<v:userDefs>
				<v:ud v:nameU="CTypeTopLeftSnip" v:prompt="" v:val="VT0(0):5"/>
				<v:ud v:nameU="CTypeTopRightSnip" v:prompt="" v:val="VT0(0):5"/>
				<v:ud v:nameU="CTypeBotLeftSnip" v:prompt="" v:val="VT0(0):5"/>
				<v:ud v:nameU="CTypeBotRightSnip" v:prompt="" v:val="VT0(0):5"/>
				<v:ud v:nameU="CornerLockHoriz" v:prompt="" v:val="VT0(1):5"/>
				<v:ud v:nameU="CornerLockVert" v:prompt="" v:val="VT0(1):5"/>
				<v:ud v:nameU="CornerLockDiag" v:prompt="" v:val="VT0(0):5"/>
				<v:ud v:nameU="TopLeftOffset" v:prompt="" v:val="VT0(0.15748031496063):24"/>
				<v:ud v:nameU="TopRightOffset" v:prompt="" v:val="VT0(0.15748031496063):24"/>
				<v:ud v:nameU="BotLeftOffset" v:prompt="" v:val="VT0(0.15748031496063):24"/>
				<v:ud v:nameU="BotRightOffset" v:prompt="" v:val="VT0(0.15748031496063):24"/>
				<v:ud v:nameU="visVersion" v:prompt="" v:val="VT0(15):26"/>
			</v:userDefs>
			<v:textBlock v:margins="rect(4,4,4,4)" v:tabSpace="42.5197"/>
			<v:textRect cx="58.9117" cy="427.883" width="117.83" height="22.6772"/>
			<path d="M11.34 439.22 L106.48 439.22 A11.3384 11.3384 -180 0 0 117.82 427.88 A11.3384 11.3384 -180 0 0 106.48 416.54
						 L11.34 416.54 A11.3384 11.3384 -180 0 0 0 427.88 A11.3384 11.3384 -180 0 0 11.34 439.22 Z" class="st1"/>
			<text x="27.53" y="430.58" class="st3" v:langID="1033"><v:paragraph v:horizAlign="1"/><v:tabList/>Drenaje sencillo</text>		</g>
		<g id="shape87-21" v:mID="87" v:groupContext="shape" v:layerMember="0" transform="translate(203.73,-369.847)">
			<title>Dynamic connector.87</title>
			<v:userDefs>
				<v:ud v:nameU="visVersion" v:val="VT0(15):26"/>
			</v:userDefs>
			<path d="M0 439.22 C0 449.85 -13.6 449.85 -25.14 449.85 C-42.26 449.85 -54.87 449.85 -67.49 449.85 C-80.1 449.85 -92.72
						 449.85 -109.83 449.85 C-119.56 449.85 -130.75 449.85 -134.03 456.22 L-134.1 456.57" class="st8"/>
		</g>
		<g id="shape88-27" v:mID="88" v:groupContext="shape" transform="translate(144.773,-325.91)">
			<title>Rounded Rectangle.88</title>
			<desc>Drenaje doble</desc>
			<v:userDefs>
				<v:ud v:nameU="CTypeTopLeftSnip" v:prompt="" v:val="VT0(0):5"/>
				<v:ud v:nameU="CTypeTopRightSnip" v:prompt="" v:val="VT0(0):5"/>
				<v:ud v:nameU="CTypeBotLeftSnip" v:prompt="" v:val="VT0(0):5"/>
				<v:ud v:nameU="CTypeBotRightSnip" v:prompt="" v:val="VT0(0):5"/>
				<v:ud v:nameU="CornerLockHoriz" v:prompt="" v:val="VT0(1):5"/>
				<v:ud v:nameU="CornerLockVert" v:prompt="" v:val="VT0(1):5"/>
				<v:ud v:nameU="CornerLockDiag" v:prompt="" v:val="VT0(0):5"/>
				<v:ud v:nameU="TopLeftOffset" v:prompt="" v:val="VT0(0.15748031496063):24"/>
				<v:ud v:nameU="TopRightOffset" v:prompt="" v:val="VT0(0.15748031496063):24"/>
				<v:ud v:nameU="BotLeftOffset" v:prompt="" v:val="VT0(0.15748031496063):24"/>
				<v:ud v:nameU="BotRightOffset" v:prompt="" v:val="VT0(0.15748031496063):24"/>
				<v:ud v:nameU="visVersion" v:prompt="" v:val="VT0(15):26"/>
			</v:userDefs>
			<v:textBlock v:margins="rect(4,4,4,4)" v:tabSpace="42.5197"/>
			<v:textRect cx="58.9117" cy="427.883" width="117.83" height="22.6772"/>
			<path d="M11.34 439.22 L106.48 439.22 A11.3384 11.3384 -180 0 0 117.82 427.88 A11.3384 11.3384 -180 0 0 106.48 416.54
						 L11.34 416.54 A11.3384 11.3384 -180 0 0 0 427.88 A11.3384 11.3384 -180 0 0 11.34 439.22 Z" class="st1"/>
			<text x="30.95" y="430.58" class="st3" v:langID="1033"><v:paragraph v:horizAlign="1"/><v:tabList/>Drenaje doble</text>		</g>
		<g id="shape89-31" v:mID="89" v:groupContext="shape" transform="translate(144.773,-289.06)">
			<title>Rounded Rectangle.89</title>
			<desc>Clip</desc>
			<v:userDefs>
				<v:ud v:nameU="CTypeTopLeftSnip" v:prompt="" v:val="VT0(0):5"/>
				<v:ud v:nameU="CTypeTopRightSnip" v:prompt="" v:val="VT0(0):5"/>
				<v:ud v:nameU="CTypeBotLeftSnip" v:prompt="" v:val="VT0(0):5"/>
				<v:ud v:nameU="CTypeBotRightSnip" v:prompt="" v:val="VT0(0):5"/>
				<v:ud v:nameU="CornerLockHoriz" v:prompt="" v:val="VT0(1):5"/>
				<v:ud v:nameU="CornerLockVert" v:prompt="" v:val="VT0(1):5"/>
				<v:ud v:nameU="CornerLockDiag" v:prompt="" v:val="VT0(0):5"/>
				<v:ud v:nameU="TopLeftOffset" v:prompt="" v:val="VT0(0.15748031496063):24"/>
				<v:ud v:nameU="TopRightOffset" v:prompt="" v:val="VT0(0.15748031496063):24"/>
				<v:ud v:nameU="BotLeftOffset" v:prompt="" v:val="VT0(0.15748031496063):24"/>
				<v:ud v:nameU="BotRightOffset" v:prompt="" v:val="VT0(0.15748031496063):24"/>
				<v:ud v:nameU="visVersion" v:prompt="" v:val="VT0(15):26"/>
			</v:userDefs>
			<v:textBlock v:margins="rect(4,4,4,4)" v:tabSpace="42.5197"/>
			<v:textRect cx="58.9117" cy="427.883" width="117.83" height="22.6772"/>
			<path d="M11.34 439.22 L106.48 439.22 A11.3384 11.3384 -180 0 0 117.82 427.88 A11.3384 11.3384 -180 0 0 106.48 416.54
						 L11.34 416.54 A11.3384 11.3384 -180 0 0 0 427.88 A11.3384 11.3384 -180 0 0 11.34 439.22 Z" class="st9"/>
			<text x="51.3" y="430.58" class="st3" v:langID="1033"><v:paragraph v:horizAlign="1"/><v:tabList/>Clip</text>		</g>
		<g id="shape90-36" v:mID="90" v:groupContext="shape" transform="translate(275.688,-325.91)">
			<title>Rounded Rectangle.90</title>
			<desc>Otros drenajes</desc>
			<v:userDefs>
				<v:ud v:nameU="CTypeTopLeftSnip" v:prompt="" v:val="VT0(0):5"/>
				<v:ud v:nameU="CTypeTopRightSnip" v:prompt="" v:val="VT0(0):5"/>
				<v:ud v:nameU="CTypeBotLeftSnip" v:prompt="" v:val="VT0(0):5"/>
				<v:ud v:nameU="CTypeBotRightSnip" v:prompt="" v:val="VT0(0):5"/>
				<v:ud v:nameU="CornerLockHoriz" v:prompt="" v:val="VT0(1):5"/>
				<v:ud v:nameU="CornerLockVert" v:prompt="" v:val="VT0(1):5"/>
				<v:ud v:nameU="CornerLockDiag" v:prompt="" v:val="VT0(0):5"/>
				<v:ud v:nameU="TopLeftOffset" v:prompt="" v:val="VT0(0.15748031496063):24"/>
				<v:ud v:nameU="TopRightOffset" v:prompt="" v:val="VT0(0.15748031496063):24"/>
				<v:ud v:nameU="BotLeftOffset" v:prompt="" v:val="VT0(0.15748031496063):24"/>
				<v:ud v:nameU="BotRightOffset" v:prompt="" v:val="VT0(0.15748031496063):24"/>
				<v:ud v:nameU="visVersion" v:prompt="" v:val="VT0(15):26"/>
			</v:userDefs>
			<v:textBlock v:margins="rect(4,4,4,4)" v:tabSpace="42.5197"/>
			<v:textRect cx="58.9117" cy="427.883" width="117.83" height="22.6772"/>
			<path d="M11.34 439.22 L106.48 439.22 A11.3384 11.3384 -180 0 0 117.82 427.88 A11.3384 11.3384 -180 0 0 106.48 416.54
						 L11.34 416.54 A11.3384 11.3384 -180 0 0 0 427.88 A11.3384 11.3384 -180 0 0 11.34 439.22 Z" class="st1"/>
			<text x="29.89" y="430.58" class="st3" v:langID="1033"><v:paragraph v:horizAlign="1"/><v:tabList/>Otros drenajes</text>		</g>
		<g id="shape91-40" v:mID="91" v:groupContext="shape" v:layerMember="0" transform="translate(210.794,-369.847)">
			<title>Dynamic connector.91</title>
			<v:userDefs>
				<v:ud v:nameU="visVersion" v:val="VT0(15):26"/>
			</v:userDefs>
			<path d="M-7.06 439.22 C-7.06 444.54 -7.06 446.31 -7.06 447.78 C-7.06 448.52 -7.06 449.19 -7.07 449.52 C-7.08 449.85
						 -7.09 449.85 -7.1 450.18 C-7.11 450.52 -7.11 451.18 -7.11 451.92 C-7.11 452.89 -7.11 453.98 -7.11 456.12"
					class="st6"/>
		</g>
		<g id="shape92-45" v:mID="92" v:groupContext="shape" v:layerMember="0" transform="translate(203.73,-369.847)">
			<title>Dynamic connector.92</title>
			<v:userDefs>
				<v:ud v:nameU="visVersion" v:val="VT0(15):26"/>
			</v:userDefs>
			<path d="M0 439.22 C0 449.85 13.19 449.85 24.39 449.85 C40.98 449.85 53.21 449.85 65.43 449.85 C77.66 449.85 89.89 449.85
						 106.48 449.85 C115.92 449.85 126.77 449.85 129.95 456.21 L130.03 456.57" class="st11"/>
		</g>
		<g id="shape93-50" v:mID="93" v:groupContext="shape" transform="translate(406.603,-325.91)">
			<title>Rounded Rectangle.93</title>
			<desc>Envolvente zona estudio ZE</desc>
			<v:userDefs>
				<v:ud v:nameU="CTypeTopLeftSnip" v:prompt="" v:val="VT0(0):5"/>
				<v:ud v:nameU="CTypeTopRightSnip" v:prompt="" v:val="VT0(0):5"/>
				<v:ud v:nameU="CTypeBotLeftSnip" v:prompt="" v:val="VT0(0):5"/>
				<v:ud v:nameU="CTypeBotRightSnip" v:prompt="" v:val="VT0(0):5"/>
				<v:ud v:nameU="CornerLockHoriz" v:prompt="" v:val="VT0(1):5"/>
				<v:ud v:nameU="CornerLockVert" v:prompt="" v:val="VT0(1):5"/>
				<v:ud v:nameU="CornerLockDiag" v:prompt="" v:val="VT0(0):5"/>
				<v:ud v:nameU="TopLeftOffset" v:prompt="" v:val="VT0(0.15748031496063):24"/>
				<v:ud v:nameU="TopRightOffset" v:prompt="" v:val="VT0(0.15748031496063):24"/>
				<v:ud v:nameU="BotLeftOffset" v:prompt="" v:val="VT0(0.15748031496063):24"/>
				<v:ud v:nameU="BotRightOffset" v:prompt="" v:val="VT0(0.15748031496063):24"/>
				<v:ud v:nameU="visVersion" v:prompt="" v:val="VT0(15):26"/>
			</v:userDefs>
			<v:textBlock v:margins="rect(4,4,4,4)" v:tabSpace="42.5197"/>
			<v:textRect cx="58.9117" cy="427.883" width="117.83" height="22.6772"/>
			<path d="M11.34 439.22 L106.48 439.22 A11.3384 11.3384 -180 0 0 117.82 427.88 A11.3384 11.3384 -180 0 0 106.48 416.54
						 L11.34 416.54 A11.3384 11.3384 -180 0 0 0 427.88 A11.3384 11.3384 -180 0 0 11.34 439.22 Z" class="st1"/>
			<text x="4.51" y="430.58" class="st3" v:langID="1033"><v:paragraph v:horizAlign="1"/><v:tabList/>Envolvente zona estudio ZE  </text>		</g>
		<g id="shape94-54" v:mID="94" v:groupContext="shape" v:layerMember="0" transform="translate(196.598,-325.91)">
			<title>Dynamic connector.94</title>
			<v:userDefs>
				<v:ud v:nameU="visVersion" v:val="VT0(15):26"/>
			</v:userDefs>
			<path d="M7.09 439.22 C7.09 441.61 7.09 445.6 7.09 449.03" class="st6"/>
		</g>
		<g id="shape95-59" v:mID="95" v:groupContext="shape" v:layerMember="0" transform="translate(68.7587,-325.91)">
			<title>Dynamic connector.95</title>
			<v:userDefs>
				<v:ud v:nameU="visVersion" v:val="VT0(15):26"/>
			</v:userDefs>
			<path d="M0 439.22 C0 445.6 -0 454.08 11.21 458.81 C24.25 464.3 52.46 464.7 71.65 464.73 L72.01 464.73" class="st8"/>
		</g>
		<g id="shape96-64" v:mID="96" v:groupContext="shape" v:layerMember="0" transform="translate(334.6,-325.91)">
			<title>Dynamic connector.96</title>
			<v:userDefs>
				<v:ud v:nameU="visVersion" v:val="VT0(15):26"/>
			</v:userDefs>
			<path d="M0 439.22 C-0 445.6 0 454.11 -10.69 458.84 C-23 464.28 -49.48 464.7 -67.64 464.73 L-68 464.73" class="st11"/>
		</g>
		<g id="shape97-69" v:mID="97" v:groupContext="shape" v:layerMember="0" transform="translate(465.514,-325.91)">
			<title>Dynamic connector.97</title>
			<v:userDefs>
				<v:ud v:nameU="visVersion" v:val="VT0(15):26"/>
			</v:userDefs>
			<path d="M0 439.22 C-0 445.6 0 452.17 -4.81 456.49 C-13.99 464.73 -40.72 464.73 -70.05 464.73 C-107.73 464.73 -149.7
						 464.73 -198.55 464.73" class="st6"/>
		</g>
		<g id="shape98-74" v:mID="98" v:groupContext="shape" transform="translate(9.84708,-245.123)">
			<title>Rounded Rectangle.98</title>
			<desc>Drenaje sencillo ZE</desc>
			<v:userDefs>
				<v:ud v:nameU="CTypeTopLeftSnip" v:prompt="" v:val="VT0(0):5"/>
				<v:ud v:nameU="CTypeTopRightSnip" v:prompt="" v:val="VT0(0):5"/>
				<v:ud v:nameU="CTypeBotLeftSnip" v:prompt="" v:val="VT0(0):5"/>
				<v:ud v:nameU="CTypeBotRightSnip" v:prompt="" v:val="VT0(0):5"/>
				<v:ud v:nameU="CornerLockHoriz" v:prompt="" v:val="VT0(1):5"/>
				<v:ud v:nameU="CornerLockVert" v:prompt="" v:val="VT0(1):5"/>
				<v:ud v:nameU="CornerLockDiag" v:prompt="" v:val="VT0(0):5"/>
				<v:ud v:nameU="TopLeftOffset" v:prompt="" v:val="VT0(0.15748031496063):24"/>
				<v:ud v:nameU="TopRightOffset" v:prompt="" v:val="VT0(0.15748031496063):24"/>
				<v:ud v:nameU="BotLeftOffset" v:prompt="" v:val="VT0(0.15748031496063):24"/>
				<v:ud v:nameU="BotRightOffset" v:prompt="" v:val="VT0(0.15748031496063):24"/>
				<v:ud v:nameU="visVersion" v:prompt="" v:val="VT0(15):26"/>
			</v:userDefs>
			<v:textBlock v:margins="rect(4,4,4,4)" v:tabSpace="42.5197"/>
			<v:textRect cx="58.9117" cy="427.883" width="117.83" height="22.6772"/>
			<path d="M11.34 439.22 L106.48 439.22 A11.3384 11.3384 -180 0 0 117.82 427.88 A11.3384 11.3384 -180 0 0 106.48 416.54
						 L11.34 416.54 A11.3384 11.3384 -180 0 0 0 427.88 A11.3384 11.3384 -180 0 0 11.34 439.22 Z" class="st1"/>
			<text x="21.46" y="430.58" class="st3" v:langID="1033"><v:paragraph v:horizAlign="1"/><v:tabList/>Drenaje sencillo ZE</text>		</g>
		<g id="shape99-78" v:mID="99" v:groupContext="shape" transform="translate(144.773,-245.123)">
			<title>Rounded Rectangle.99</title>
			<desc>Drenaje doble ZE</desc>
			<v:userDefs>
				<v:ud v:nameU="CTypeTopLeftSnip" v:prompt="" v:val="VT0(0):5"/>
				<v:ud v:nameU="CTypeTopRightSnip" v:prompt="" v:val="VT0(0):5"/>
				<v:ud v:nameU="CTypeBotLeftSnip" v:prompt="" v:val="VT0(0):5"/>
				<v:ud v:nameU="CTypeBotRightSnip" v:prompt="" v:val="VT0(0):5"/>
				<v:ud v:nameU="CornerLockHoriz" v:prompt="" v:val="VT0(1):5"/>
				<v:ud v:nameU="CornerLockVert" v:prompt="" v:val="VT0(1):5"/>
				<v:ud v:nameU="CornerLockDiag" v:prompt="" v:val="VT0(0):5"/>
				<v:ud v:nameU="TopLeftOffset" v:prompt="" v:val="VT0(0.15748031496063):24"/>
				<v:ud v:nameU="TopRightOffset" v:prompt="" v:val="VT0(0.15748031496063):24"/>
				<v:ud v:nameU="BotLeftOffset" v:prompt="" v:val="VT0(0.15748031496063):24"/>
				<v:ud v:nameU="BotRightOffset" v:prompt="" v:val="VT0(0.15748031496063):24"/>
				<v:ud v:nameU="visVersion" v:prompt="" v:val="VT0(15):26"/>
			</v:userDefs>
			<v:textBlock v:margins="rect(4,4,4,4)" v:tabSpace="42.5197"/>
			<v:textRect cx="58.9117" cy="427.883" width="117.83" height="22.6772"/>
			<path d="M11.34 439.22 L106.48 439.22 A11.3384 11.3384 -180 0 0 117.82 427.88 A11.3384 11.3384 -180 0 0 106.48 416.54
						 L11.34 416.54 A11.3384 11.3384 -180 0 0 0 427.88 A11.3384 11.3384 -180 0 0 11.34 439.22 Z" class="st1"/>
			<text x="24.88" y="430.58" class="st3" v:langID="1033"><v:paragraph v:horizAlign="1"/><v:tabList/>Drenaje doble ZE</text>		</g>
		<g id="shape100-82" v:mID="100" v:groupContext="shape" transform="translate(275.688,-245.123)">
			<title>Rounded Rectangle.100</title>
			<desc>Otros drenajes ZE</desc>
			<v:userDefs>
				<v:ud v:nameU="CTypeTopLeftSnip" v:prompt="" v:val="VT0(0):5"/>
				<v:ud v:nameU="CTypeTopRightSnip" v:prompt="" v:val="VT0(0):5"/>
				<v:ud v:nameU="CTypeBotLeftSnip" v:prompt="" v:val="VT0(0):5"/>
				<v:ud v:nameU="CTypeBotRightSnip" v:prompt="" v:val="VT0(0):5"/>
				<v:ud v:nameU="CornerLockHoriz" v:prompt="" v:val="VT0(1):5"/>
				<v:ud v:nameU="CornerLockVert" v:prompt="" v:val="VT0(1):5"/>
				<v:ud v:nameU="CornerLockDiag" v:prompt="" v:val="VT0(0):5"/>
				<v:ud v:nameU="TopLeftOffset" v:prompt="" v:val="VT0(0.15748031496063):24"/>
				<v:ud v:nameU="TopRightOffset" v:prompt="" v:val="VT0(0.15748031496063):24"/>
				<v:ud v:nameU="BotLeftOffset" v:prompt="" v:val="VT0(0.15748031496063):24"/>
				<v:ud v:nameU="BotRightOffset" v:prompt="" v:val="VT0(0.15748031496063):24"/>
				<v:ud v:nameU="visVersion" v:prompt="" v:val="VT0(15):26"/>
			</v:userDefs>
			<v:textBlock v:margins="rect(4,4,4,4)" v:tabSpace="42.5197"/>
			<v:textRect cx="58.9117" cy="427.883" width="117.83" height="22.6772"/>
			<path d="M11.34 439.22 L106.48 439.22 A11.3384 11.3384 -180 0 0 117.82 427.88 A11.3384 11.3384 -180 0 0 106.48 416.54
						 L11.34 416.54 A11.3384 11.3384 -180 0 0 0 427.88 A11.3384 11.3384 -180 0 0 11.34 439.22 Z" class="st1"/>
			<text x="23.82" y="430.58" class="st3" v:langID="1033"><v:paragraph v:horizAlign="1"/><v:tabList/>Otros drenajes ZE</text>		</g>
		<g id="shape101-86" v:mID="101" v:groupContext="shape" v:layerMember="0" transform="translate(196.598,-289.06)">
			<title>Dynamic connector.101</title>
			<v:userDefs>
				<v:ud v:nameU="visVersion" v:val="VT0(15):26"/>
			</v:userDefs>
			<path d="M7.09 439.22 C7.09 443.32 7.09 450.57 7.09 456.12" class="st6"/>
		</g>
		<g id="shape102-91" v:mID="102" v:groupContext="shape" v:layerMember="0" transform="translate(203.685,-289.06)">
			<title>Dynamic connector.102</title>
			<v:userDefs>
				<v:ud v:nameU="visVersion" v:val="VT0(15):26"/>
			</v:userDefs>
			<path d="M0 439.22 C-0 449.85 -13.59 449.85 -25.14 449.85 C-42.24 449.85 -54.85 449.85 -67.46 449.85 C-80.07 449.85 -92.68
						 449.85 -109.79 449.85 C-119.52 449.85 -130.71 449.85 -133.98 456.22 L-134.06 456.57" class="st8"/>
		</g>
		<g id="shape103-96" v:mID="103" v:groupContext="shape" v:layerMember="0" transform="translate(203.685,-289.06)">
			<title>Dynamic connector.103</title>
			<v:userDefs>
				<v:ud v:nameU="visVersion" v:val="VT0(15):26"/>
			</v:userDefs>
			<path d="M0 439.22 C0 449.85 13.19 449.85 24.4 449.85 C40.99 449.85 53.22 449.85 65.46 449.85 C77.69 449.85 89.92 449.85
						 106.52 449.85 C115.96 449.85 126.81 449.85 130 456.21 L130.07 456.57" class="st11"/>
		</g>
		<g id="shape104-101" v:mID="104" v:groupContext="shape" transform="translate(144.773,-209.69)">
			<title>Rounded Rectangle.104</title>
			<desc>Center line</desc>
			<v:userDefs>
				<v:ud v:nameU="CTypeTopLeftSnip" v:prompt="" v:val="VT0(0):5"/>
				<v:ud v:nameU="CTypeTopRightSnip" v:prompt="" v:val="VT0(0):5"/>
				<v:ud v:nameU="CTypeBotLeftSnip" v:prompt="" v:val="VT0(0):5"/>
				<v:ud v:nameU="CTypeBotRightSnip" v:prompt="" v:val="VT0(0):5"/>
				<v:ud v:nameU="CornerLockHoriz" v:prompt="" v:val="VT0(1):5"/>
				<v:ud v:nameU="CornerLockVert" v:prompt="" v:val="VT0(1):5"/>
				<v:ud v:nameU="CornerLockDiag" v:prompt="" v:val="VT0(0):5"/>
				<v:ud v:nameU="TopLeftOffset" v:prompt="" v:val="VT0(0.15748031496063):24"/>
				<v:ud v:nameU="TopRightOffset" v:prompt="" v:val="VT0(0.15748031496063):24"/>
				<v:ud v:nameU="BotLeftOffset" v:prompt="" v:val="VT0(0.15748031496063):24"/>
				<v:ud v:nameU="BotRightOffset" v:prompt="" v:val="VT0(0.15748031496063):24"/>
				<v:ud v:nameU="visVersion" v:prompt="" v:val="VT0(15):26"/>
			</v:userDefs>
			<v:textBlock v:margins="rect(4,4,4,4)" v:tabSpace="42.5197"/>
			<v:textRect cx="58.9117" cy="427.883" width="117.83" height="22.6772"/>
			<path d="M11.34 439.22 L106.48 439.22 A11.3384 11.3384 -180 0 0 117.82 427.88 A11.3384 11.3384 -180 0 0 106.48 416.54
						 L11.34 416.54 A11.3384 11.3384 -180 0 0 0 427.88 A11.3384 11.3384 -180 0 0 11.34 439.22 Z" class="st9"/>
			<text x="37.47" y="430.58" class="st3" v:langID="1033"><v:paragraph v:horizAlign="1"/><v:tabList/>Center line</text>		</g>
		<g id="shape105-105" v:mID="105" v:groupContext="shape" v:layerMember="0" transform="translate(196.598,-245.831)">
			<title>Dynamic connector.105</title>
			<v:userDefs>
				<v:ud v:nameU="visVersion" v:val="VT0(15):26"/>
			</v:userDefs>
			<path d="M7.09 439.93 C7.09 441.98 7.09 445.33 7.09 448.32" class="st6"/>
		</g>
		<g id="shape106-110" v:mID="106" v:groupContext="shape" transform="translate(144.773,-135.989)">
			<title>Rounded Rectangle.106</title>
			<desc>Merge</desc>
			<v:userDefs>
				<v:ud v:nameU="CTypeTopLeftSnip" v:prompt="" v:val="VT0(0):5"/>
				<v:ud v:nameU="CTypeTopRightSnip" v:prompt="" v:val="VT0(0):5"/>
				<v:ud v:nameU="CTypeBotLeftSnip" v:prompt="" v:val="VT0(0):5"/>
				<v:ud v:nameU="CTypeBotRightSnip" v:prompt="" v:val="VT0(0):5"/>
				<v:ud v:nameU="CornerLockHoriz" v:prompt="" v:val="VT0(1):5"/>
				<v:ud v:nameU="CornerLockVert" v:prompt="" v:val="VT0(1):5"/>
				<v:ud v:nameU="CornerLockDiag" v:prompt="" v:val="VT0(0):5"/>
				<v:ud v:nameU="TopLeftOffset" v:prompt="" v:val="VT0(0.15748031496063):24"/>
				<v:ud v:nameU="TopRightOffset" v:prompt="" v:val="VT0(0.15748031496063):24"/>
				<v:ud v:nameU="BotLeftOffset" v:prompt="" v:val="VT0(0.15748031496063):24"/>
				<v:ud v:nameU="BotRightOffset" v:prompt="" v:val="VT0(0.15748031496063):24"/>
				<v:ud v:nameU="visVersion" v:prompt="" v:val="VT0(15):26"/>
			</v:userDefs>
			<v:textBlock v:margins="rect(4,4,4,4)" v:tabSpace="42.5197"/>
			<v:textRect cx="58.9117" cy="427.883" width="117.83" height="22.6772"/>
			<path d="M11.34 439.22 L106.48 439.22 A11.3384 11.3384 -180 0 0 117.82 427.88 A11.3384 11.3384 -180 0 0 106.48 416.54
						 L11.34 416.54 A11.3384 11.3384 -180 0 0 0 427.88 A11.3384 11.3384 -180 0 0 11.34 439.22 Z" class="st9"/>
			<text x="45.95" y="430.58" class="st3" v:langID="1033"><v:paragraph v:horizAlign="1"/><v:tabList/>Merge</text>		</g>
		<g id="shape107-114" v:mID="107" v:groupContext="shape" v:layerMember="0" transform="translate(68.7587,-245.123)">
			<title>Dynamic connector.107</title>
			<v:userDefs>
				<v:ud v:nameU="visVersion" v:val="VT0(15):26"/>
			</v:userDefs>
			<path d="M0 439.22 C0 463.67 -0 501.61 15.26 519.93 C28.43 535.75 53 536.92 71.65 537.01 L72.01 537.01" class="st8"/>
		</g>
		<g id="shape108-119" v:mID="108" v:groupContext="shape" v:layerMember="0" transform="translate(196.598,-210.398)">
			<title>Dynamic connector.108</title>
			<v:userDefs>
				<v:ud v:nameU="visVersion" v:val="VT0(15):26"/>
			</v:userDefs>
			<path d="M7.09 439.93 C7.09 441.98 7.09 445.33 7.09 448.32" class="st6"/>
		</g>
		<g id="shape109-124" v:mID="109" v:groupContext="shape" v:layerMember="0" transform="translate(334.6,-245.123)">
			<title>Dynamic connector.109</title>
			<v:userDefs>
				<v:ud v:nameU="visVersion" v:val="VT0(15):26"/>
			</v:userDefs>
			<path d="M0 439.22 C0 463.67 -0 501.87 -14.65 520.18 C-27.07 535.7 -50.02 536.91 -67.64 537.01 L-68 537.01"
					class="st11"/>
		</g>
		<g id="shape110-129" v:mID="110" v:groupContext="shape" transform="translate(9.84707,-55.2014)">
			<title>Rounded Rectangle.110</title>
			<desc>Extender a drenaje principal</desc>
			<v:userDefs>
				<v:ud v:nameU="CTypeTopLeftSnip" v:prompt="" v:val="VT0(0):5"/>
				<v:ud v:nameU="CTypeTopRightSnip" v:prompt="" v:val="VT0(0):5"/>
				<v:ud v:nameU="CTypeBotLeftSnip" v:prompt="" v:val="VT0(0):5"/>
				<v:ud v:nameU="CTypeBotRightSnip" v:prompt="" v:val="VT0(0):5"/>
				<v:ud v:nameU="CornerLockHoriz" v:prompt="" v:val="VT0(1):5"/>
				<v:ud v:nameU="CornerLockVert" v:prompt="" v:val="VT0(1):5"/>
				<v:ud v:nameU="CornerLockDiag" v:prompt="" v:val="VT0(0):5"/>
				<v:ud v:nameU="TopLeftOffset" v:prompt="" v:val="VT0(0.15748031496063):24"/>
				<v:ud v:nameU="TopRightOffset" v:prompt="" v:val="VT0(0.15748031496063):24"/>
				<v:ud v:nameU="BotLeftOffset" v:prompt="" v:val="VT0(0.15748031496063):24"/>
				<v:ud v:nameU="BotRightOffset" v:prompt="" v:val="VT0(0.15748031496063):24"/>
				<v:ud v:nameU="visVersion" v:prompt="" v:val="VT0(15):26"/>
			</v:userDefs>
			<v:textBlock v:margins="rect(4,4,4,4)" v:tabSpace="42.5197"/>
			<v:textRect cx="58.9117" cy="427.883" width="117.83" height="22.6772"/>
			<path d="M11.34 439.22 L106.48 439.22 A11.3384 11.3384 -180 0 0 117.82 427.88 A11.3384 11.3384 -180 0 0 106.48 416.54
						 L11.34 416.54 A11.3384 11.3384 -180 0 0 0 427.88 A11.3384 11.3384 -180 0 0 11.34 439.22 Z" class="st4"/>
			<text x="21.98" y="425.18" class="st3" v:langID="1033"><v:paragraph v:horizAlign="1"/><v:tabList/>Extender a drenaje <tspan
						x="41.87" dy="1.2em" class="st12">principal</tspan></text>		</g>
		<g id="shape111-134" v:mID="111" v:groupContext="shape" transform="translate(144.773,-100.556)">
			<title>Rounded Rectangle.111</title>
			<desc>Drenaje preliminar ZE</desc>
			<v:userDefs>
				<v:ud v:nameU="CTypeTopLeftSnip" v:prompt="" v:val="VT0(0):5"/>
				<v:ud v:nameU="CTypeTopRightSnip" v:prompt="" v:val="VT0(0):5"/>
				<v:ud v:nameU="CTypeBotLeftSnip" v:prompt="" v:val="VT0(0):5"/>
				<v:ud v:nameU="CTypeBotRightSnip" v:prompt="" v:val="VT0(0):5"/>
				<v:ud v:nameU="CornerLockHoriz" v:prompt="" v:val="VT0(1):5"/>
				<v:ud v:nameU="CornerLockVert" v:prompt="" v:val="VT0(1):5"/>
				<v:ud v:nameU="CornerLockDiag" v:prompt="" v:val="VT0(0):5"/>
				<v:ud v:nameU="TopLeftOffset" v:prompt="" v:val="VT0(0.15748031496063):24"/>
				<v:ud v:nameU="TopRightOffset" v:prompt="" v:val="VT0(0.15748031496063):24"/>
				<v:ud v:nameU="BotLeftOffset" v:prompt="" v:val="VT0(0.15748031496063):24"/>
				<v:ud v:nameU="BotRightOffset" v:prompt="" v:val="VT0(0.15748031496063):24"/>
				<v:ud v:nameU="visVersion" v:prompt="" v:val="VT0(15):26"/>
			</v:userDefs>
			<v:textBlock v:margins="rect(4,4,4,4)" v:tabSpace="42.5197"/>
			<v:textRect cx="58.9117" cy="427.883" width="117.83" height="22.6772"/>
			<path d="M11.34 439.22 L106.48 439.22 A11.3384 11.3384 -180 0 0 117.82 427.88 A11.3384 11.3384 -180 0 0 106.48 416.54
						 L11.34 416.54 A11.3384 11.3384 -180 0 0 0 427.88 A11.3384 11.3384 -180 0 0 11.34 439.22 Z" class="st1"/>
			<text x="16.14" y="430.58" class="st3" v:langID="1033"><v:paragraph v:horizAlign="1"/><v:tabList/>Drenaje preliminar ZE</text>		</g>
		<g id="shape112-138" v:mID="112" v:groupContext="shape" v:layerMember="0" transform="translate(196.598,-136.697)">
			<title>Dynamic connector.112</title>
			<v:userDefs>
				<v:ud v:nameU="visVersion" v:val="VT0(15):26"/>
			</v:userDefs>
			<path d="M7.09 439.93 C7.09 441.98 7.09 445.33 7.09 448.32" class="st6"/>
		</g>
		<g id="shape113-143" v:mID="113" v:groupContext="shape" transform="translate(144.773,-55.2014)">
			<title>Rounded Rectangle.113</title>
			<desc>Digitalizar faltantes</desc>
			<v:userDefs>
				<v:ud v:nameU="CTypeTopLeftSnip" v:prompt="" v:val="VT0(0):5"/>
				<v:ud v:nameU="CTypeTopRightSnip" v:prompt="" v:val="VT0(0):5"/>
				<v:ud v:nameU="CTypeBotLeftSnip" v:prompt="" v:val="VT0(0):5"/>
				<v:ud v:nameU="CTypeBotRightSnip" v:prompt="" v:val="VT0(0):5"/>
				<v:ud v:nameU="CornerLockHoriz" v:prompt="" v:val="VT0(1):5"/>
				<v:ud v:nameU="CornerLockVert" v:prompt="" v:val="VT0(1):5"/>
				<v:ud v:nameU="CornerLockDiag" v:prompt="" v:val="VT0(0):5"/>
				<v:ud v:nameU="TopLeftOffset" v:prompt="" v:val="VT0(0.15748031496063):24"/>
				<v:ud v:nameU="TopRightOffset" v:prompt="" v:val="VT0(0.15748031496063):24"/>
				<v:ud v:nameU="BotLeftOffset" v:prompt="" v:val="VT0(0.15748031496063):24"/>
				<v:ud v:nameU="BotRightOffset" v:prompt="" v:val="VT0(0.15748031496063):24"/>
				<v:ud v:nameU="visVersion" v:prompt="" v:val="VT0(15):26"/>
			</v:userDefs>
			<v:textBlock v:margins="rect(4,4,4,4)" v:tabSpace="42.5197"/>
			<v:textRect cx="58.9117" cy="427.883" width="117.83" height="22.6772"/>
			<path d="M11.34 439.22 L106.48 439.22 A11.3384 11.3384 -180 0 0 117.82 427.88 A11.3384 11.3384 -180 0 0 106.48 416.54
						 L11.34 416.54 A11.3384 11.3384 -180 0 0 0 427.88 A11.3384 11.3384 -180 0 0 11.34 439.22 Z" class="st4"/>
			<text x="20.87" y="430.58" class="st3" v:langID="1033"><v:paragraph v:horizAlign="1"/><v:tabList/>Digitalizar faltantes</text>		</g>
		<g id="shape114-147" v:mID="114" v:groupContext="shape" transform="translate(275.688,-55.2014)">
			<title>Rounded Rectangle.114</title>
			<desc>Ajustar conectividad</desc>
			<v:userDefs>
				<v:ud v:nameU="CTypeTopLeftSnip" v:prompt="" v:val="VT0(0):5"/>
				<v:ud v:nameU="CTypeTopRightSnip" v:prompt="" v:val="VT0(0):5"/>
				<v:ud v:nameU="CTypeBotLeftSnip" v:prompt="" v:val="VT0(0):5"/>
				<v:ud v:nameU="CTypeBotRightSnip" v:prompt="" v:val="VT0(0):5"/>
				<v:ud v:nameU="CornerLockHoriz" v:prompt="" v:val="VT0(1):5"/>
				<v:ud v:nameU="CornerLockVert" v:prompt="" v:val="VT0(1):5"/>
				<v:ud v:nameU="CornerLockDiag" v:prompt="" v:val="VT0(0):5"/>
				<v:ud v:nameU="TopLeftOffset" v:prompt="" v:val="VT0(0.15748031496063):24"/>
				<v:ud v:nameU="TopRightOffset" v:prompt="" v:val="VT0(0.15748031496063):24"/>
				<v:ud v:nameU="BotLeftOffset" v:prompt="" v:val="VT0(0.15748031496063):24"/>
				<v:ud v:nameU="BotRightOffset" v:prompt="" v:val="VT0(0.15748031496063):24"/>
				<v:ud v:nameU="visVersion" v:prompt="" v:val="VT0(15):26"/>
			</v:userDefs>
			<v:textBlock v:margins="rect(4,4,4,4)" v:tabSpace="42.5197"/>
			<v:textRect cx="58.9117" cy="427.883" width="117.83" height="22.6772"/>
			<path d="M11.34 439.22 L106.48 439.22 A11.3384 11.3384 -180 0 0 117.82 427.88 A11.3384 11.3384 -180 0 0 106.48 416.54
						 L11.34 416.54 A11.3384 11.3384 -180 0 0 0 427.88 A11.3384 11.3384 -180 0 0 11.34 439.22 Z" class="st4"/>
			<text x="18.71" y="430.58" class="st3" v:langID="1033"><v:paragraph v:horizAlign="1"/><v:tabList/>Ajustar conectividad</text>		</g>
		<g id="shape115-151" v:mID="115" v:groupContext="shape" transform="translate(406.603,-55.2014)">
			<title>Rounded Rectangle.115</title>
			<desc>Resolver bucles</desc>
			<v:userDefs>
				<v:ud v:nameU="CTypeTopLeftSnip" v:prompt="" v:val="VT0(0):5"/>
				<v:ud v:nameU="CTypeTopRightSnip" v:prompt="" v:val="VT0(0):5"/>
				<v:ud v:nameU="CTypeBotLeftSnip" v:prompt="" v:val="VT0(0):5"/>
				<v:ud v:nameU="CTypeBotRightSnip" v:prompt="" v:val="VT0(0):5"/>
				<v:ud v:nameU="CornerLockHoriz" v:prompt="" v:val="VT0(1):5"/>
				<v:ud v:nameU="CornerLockVert" v:prompt="" v:val="VT0(1):5"/>
				<v:ud v:nameU="CornerLockDiag" v:prompt="" v:val="VT0(0):5"/>
				<v:ud v:nameU="TopLeftOffset" v:prompt="" v:val="VT0(0.15748031496063):24"/>
				<v:ud v:nameU="TopRightOffset" v:prompt="" v:val="VT0(0.15748031496063):24"/>
				<v:ud v:nameU="BotLeftOffset" v:prompt="" v:val="VT0(0.15748031496063):24"/>
				<v:ud v:nameU="BotRightOffset" v:prompt="" v:val="VT0(0.15748031496063):24"/>
				<v:ud v:nameU="visVersion" v:prompt="" v:val="VT0(15):26"/>
			</v:userDefs>
			<v:textBlock v:margins="rect(4,4,4,4)" v:tabSpace="42.5197"/>
			<v:textRect cx="58.9117" cy="427.883" width="117.83" height="22.6772"/>
			<path d="M11.34 439.22 L106.48 439.22 A11.3384 11.3384 -180 0 0 117.82 427.88 A11.3384 11.3384 -180 0 0 106.48 416.54
						 L11.34 416.54 A11.3384 11.3384 -180 0 0 0 427.88 A11.3384 11.3384 -180 0 0 11.34 439.22 Z" class="st4"/>
			<text x="28.3" y="430.58" class="st3" v:langID="1033"><v:paragraph v:horizAlign="1"/><v:tabList/>Resolver bucles</text>		</g>
		<g id="shape116-155" v:mID="116" v:groupContext="shape" v:layerMember="0" transform="translate(196.598,-100.556)">
			<title>Dynamic connector.116</title>
			<v:userDefs>
				<v:ud v:nameU="visVersion" v:val="VT0(15):26"/>
			</v:userDefs>
			<path d="M7.09 439.22 C7.09 443.66 7.09 451.59 7.09 457.53" class="st6"/>
		</g>
		<g id="shape117-160" v:mID="117" v:groupContext="shape" v:layerMember="0" transform="translate(203.685,-100.556)">
			<title>Dynamic connector.117</title>
			<v:userDefs>
				<v:ud v:nameU="visVersion" v:val="VT0(15):26"/>
			</v:userDefs>
			<path d="M0 439.22 C0 449.85 -13.59 449.85 -25.14 449.85 C-42.24 449.85 -54.85 449.85 -67.46 449.85 C-80.06 449.85 -92.66
						 449.85 -109.74 449.85 C-119.72 449.85 -131.23 449.85 -134.2 457.59 L-134.26 457.95" class="st8"/>
		</g>
		<g id="shape118-165" v:mID="118" v:groupContext="shape" v:layerMember="0" transform="translate(203.685,-100.556)">
			<title>Dynamic connector.118</title>
			<v:userDefs>
				<v:ud v:nameU="visVersion" v:val="VT0(15):26"/>
			</v:userDefs>
			<path d="M0 439.22 C0 449.85 13.19 449.85 24.4 449.85 C40.99 449.85 53.22 449.85 65.45 449.85 C77.68 449.85 89.9 449.85
						 106.46 449.85 C116.15 449.85 127.33 449.85 130.21 457.59 L130.27 457.95" class="st8"/>
		</g>
		<g id="shape119-170" v:mID="119" v:groupContext="shape" v:layerMember="0" transform="translate(203.685,-100.556)">
			<title>Dynamic connector.119</title>
			<v:userDefs>
				<v:ud v:nameU="visVersion" v:val="VT0(15):26"/>
			</v:userDefs>
			<path d="M0 439.22 C0 449.85 26.23 449.85 48.53 449.85 C81.86 449.85 106.39 449.85 130.91 449.85 C155.44 449.85 179.96
						 449.85 213.27 449.85 C232.64 449.85 254.97 449.85 260.53 457.73 L260.64 458.08" class="st8"/>
		</g>
		<g id="shape120-175" v:mID="120" v:groupContext="shape" transform="translate(144.773,-9.84707)">
			<title>Rounded Rectangle.120</title>
			<desc>Drenaje definitivo ZE</desc>
			<v:userDefs>
				<v:ud v:nameU="CTypeTopLeftSnip" v:prompt="" v:val="VT0(0):5"/>
				<v:ud v:nameU="CTypeTopRightSnip" v:prompt="" v:val="VT0(0):5"/>
				<v:ud v:nameU="CTypeBotLeftSnip" v:prompt="" v:val="VT0(0):5"/>
				<v:ud v:nameU="CTypeBotRightSnip" v:prompt="" v:val="VT0(0):5"/>
				<v:ud v:nameU="CornerLockHoriz" v:prompt="" v:val="VT0(1):5"/>
				<v:ud v:nameU="CornerLockVert" v:prompt="" v:val="VT0(1):5"/>
				<v:ud v:nameU="CornerLockDiag" v:prompt="" v:val="VT0(0):5"/>
				<v:ud v:nameU="TopLeftOffset" v:prompt="" v:val="VT0(0.15748031496063):24"/>
				<v:ud v:nameU="TopRightOffset" v:prompt="" v:val="VT0(0.15748031496063):24"/>
				<v:ud v:nameU="BotLeftOffset" v:prompt="" v:val="VT0(0.15748031496063):24"/>
				<v:ud v:nameU="BotRightOffset" v:prompt="" v:val="VT0(0.15748031496063):24"/>
				<v:ud v:nameU="visVersion" v:prompt="" v:val="VT0(15):26"/>
			</v:userDefs>
			<v:textBlock v:margins="rect(4,4,4,4)" v:tabSpace="42.5197"/>
			<v:textRect cx="58.9117" cy="427.883" width="117.83" height="22.6772"/>
			<path d="M11.34 439.22 L106.48 439.22 A11.3384 11.3384 -180 0 0 117.82 427.88 A11.3384 11.3384 -180 0 0 106.48 416.54
						 L11.34 416.54 A11.3384 11.3384 -180 0 0 0 427.88 A11.3384 11.3384 -180 0 0 11.34 439.22 Z" class="st1"/>
			<text x="17.71" y="430.58" class="st3" v:langID="1033"><v:paragraph v:horizAlign="1"/><v:tabList/>Drenaje definitivo ZE</text>		</g>
		<g id="shape121-179" v:mID="121" v:groupContext="shape" v:layerMember="0" transform="translate(196.598,-55.2014)">
			<title>Dynamic connector.121</title>
			<v:userDefs>
				<v:ud v:nameU="visVersion" v:val="VT0(15):26"/>
			</v:userDefs>
			<path d="M7.09 439.22 C7.09 443.66 7.09 451.59 7.09 457.53" class="st6"/>
		</g>
		<g id="shape122-184" v:mID="122" v:groupContext="shape" v:layerMember="0" transform="translate(68.7587,-55.2014)">
			<title>Dynamic connector.122</title>
			<v:userDefs>
				<v:ud v:nameU="visVersion" v:val="VT0(15):26"/>
			</v:userDefs>
			<path d="M0 439.22 C-0 449.85 13.59 449.85 25.14 449.85 C42.24 449.85 54.85 449.85 67.46 449.85 C80.06 449.85 92.66 449.85
						 109.74 449.85 C119.72 449.85 131.23 449.85 134.2 457.59 L134.26 457.95" class="st8"/>
		</g>
		<g id="shape123-189" v:mID="123" v:groupContext="shape" v:layerMember="0" transform="translate(334.6,-55.2014)">
			<title>Dynamic connector.123</title>
			<v:userDefs>
				<v:ud v:nameU="visVersion" v:val="VT0(15):26"/>
			</v:userDefs>
			<path d="M0 439.22 C-0 449.85 -13.19 449.85 -24.4 449.85 C-40.99 449.85 -53.22 449.85 -65.45 449.85 C-77.68 449.85 -89.9
						 449.85 -106.46 449.85 C-116.15 449.85 -127.33 449.85 -130.21 457.59 L-130.27 457.95" class="st8"/>
		</g>
		<g id="shape124-194" v:mID="124" v:groupContext="shape" v:layerMember="0" transform="translate(465.514,-55.2014)">
			<title>Dynamic connector.124</title>
			<v:userDefs>
				<v:ud v:nameU="visVersion" v:val="VT0(15):26"/>
			</v:userDefs>
			<path d="M0 439.22 C-0 449.85 -26.23 449.85 -48.53 449.85 C-81.86 449.85 -106.39 449.85 -130.91 449.85 C-155.44 449.85
						 -179.96 449.85 -213.27 449.85 C-232.64 449.85 -254.97 449.85 -260.53 457.73 L-260.64 458.08" class="st8"/>
		</g>
		<g id="shape125-199" v:mID="125" v:groupContext="shape" transform="translate(144.773,-174.257)">
			<title>Rounded Rectangle.125</title>
			<desc>Drenaje doble centerline ZE</desc>
			<v:userDefs>
				<v:ud v:nameU="CTypeTopLeftSnip" v:prompt="" v:val="VT0(0):5"/>
				<v:ud v:nameU="CTypeTopRightSnip" v:prompt="" v:val="VT0(0):5"/>
				<v:ud v:nameU="CTypeBotLeftSnip" v:prompt="" v:val="VT0(0):5"/>
				<v:ud v:nameU="CTypeBotRightSnip" v:prompt="" v:val="VT0(0):5"/>
				<v:ud v:nameU="CornerLockHoriz" v:prompt="" v:val="VT0(1):5"/>
				<v:ud v:nameU="CornerLockVert" v:prompt="" v:val="VT0(1):5"/>
				<v:ud v:nameU="CornerLockDiag" v:prompt="" v:val="VT0(0):5"/>
				<v:ud v:nameU="TopLeftOffset" v:prompt="" v:val="VT0(0.15748031496063):24"/>
				<v:ud v:nameU="TopRightOffset" v:prompt="" v:val="VT0(0.15748031496063):24"/>
				<v:ud v:nameU="BotLeftOffset" v:prompt="" v:val="VT0(0.15748031496063):24"/>
				<v:ud v:nameU="BotRightOffset" v:prompt="" v:val="VT0(0.15748031496063):24"/>
				<v:ud v:nameU="visVersion" v:prompt="" v:val="VT0(15):26"/>
			</v:userDefs>
			<v:textBlock v:margins="rect(4,4,4,4)" v:tabSpace="42.5197"/>
			<v:textRect cx="58.9117" cy="427.883" width="117.83" height="22.6772"/>
			<path d="M11.34 439.22 L106.48 439.22 A11.3384 11.3384 -180 0 0 117.82 427.88 A11.3384 11.3384 -180 0 0 106.48 416.54
						 L11.34 416.54 A11.3384 11.3384 -180 0 0 0 427.88 A11.3384 11.3384 -180 0 0 11.34 439.22 Z" class="st1"/>
			<text x="4.14" y="430.58" class="st3" v:langID="1033"><v:paragraph v:horizAlign="1"/><v:tabList/>Drenaje doble centerline ZE</text>		</g>
		<g id="shape126-203" v:mID="126" v:groupContext="shape" v:layerMember="0" transform="translate(210.771,-174.257)">
			<title>Dynamic connector.126</title>
			<v:userDefs>
				<v:ud v:nameU="visVersion" v:val="VT0(15):26"/>
			</v:userDefs>
			<path d="M-7.09 439.22 C-7.09 441.95 -7.09 446.58 -7.09 450.45" class="st6"/>
		</g>
	</g>
</svg>
