<?xml version="1.0" encoding="UTF-8" standalone="no"?>
<!DOCTYPE svg PUBLIC "-//W3C//DTD SVG 1.1//EN" "http://www.w3.org/Graphics/SVG/1.1/DTD/svg11.dtd">
<!-- Generated by Microsoft Visio, SVG Export CaseStudyFlowchart.svg Page-1 -->
<svg xmlns="http://www.w3.org/2000/svg" xmlns:xlink="http://www.w3.org/1999/xlink" xmlns:ev="http://www.w3.org/2001/xml-events"
		xmlns:v="http://schemas.microsoft.com/visio/2003/SVGExtensions/" width="6.32468in" height="4.43214in"
		viewBox="0 0 455.377 319.114" xml:space="preserve" color-interpolation-filters="sRGB" class="st12">
	<v:documentProperties v:langID="1033" v:metric="true" v:viewMarkup="false"/>

	<style type="text/css">
	<![CDATA[
		.st1 {fill:#f2f2f2;stroke:#4c85f4;stroke-width:1.5}
		.st2 {fill:#4c85f4;fill-opacity:1;stroke:#4c85f4;stroke-opacity:1;stroke-width:0.37313432835821}
		.st3 {fill:#000000;font-family:Segoe UI Light;font-size:0.75em}
		.st4 {fill:#f2f2f2;stroke:#fbbc0e;stroke-width:1.5}
		.st5 {fill:#fbbc0e;fill-opacity:1;stroke:#fbbc0e;stroke-opacity:1;stroke-width:0.37313432835821}
		.st6 {marker-end:url(#mrkr6-16);stroke:#7f7f7f;stroke-linecap:round;stroke-linejoin:round;stroke-width:0.5}
		.st7 {fill:#7f7f7f;fill-opacity:1;stroke:#7f7f7f;stroke-opacity:1;stroke-width:0.25773195876289}
		.st8 {marker-end:url(#mrkr6-26);stroke:#7f7f7f;stroke-dasharray:3.5,2.5;stroke-linecap:round;stroke-linejoin:round;stroke-width:0.5}
		.st9 {fill:#f2f2f2;stroke:#ea4d35;stroke-width:1.5}
		.st10 {fill:#ea4d35;fill-opacity:1;stroke:#ea4d35;stroke-opacity:1;stroke-width:0.37313432835821}
		.st11 {marker-end:url(#mrkr6-26);stroke:#7f7f7f;stroke-linecap:round;stroke-linejoin:round;stroke-width:0.5}
		.st12 {fill:none;fill-rule:evenodd;font-size:12px;overflow:visible;stroke-linecap:square;stroke-miterlimit:3}
	]]>
	</style>

	<defs id="Markers">
		<g id="lend6">
			<path d="M 2 1 L 0 0 L 2.01237 -1.00641 C 2.32921 -0.372876 2.32921 0.372869 2.01238 1.0064 " style="stroke:none"/>
		</g>
		<marker id="mrkr6-4" class="st2" v:arrowType="6" v:arrowSize="2" v:setback="6.03" refX="6.03" orient="auto"
				markerUnits="strokeWidth" overflow="visible">
			<use xlink:href="#lend6" transform="scale(2.68) "/>
		</marker>
		<marker id="mrkr6-9" class="st5" v:arrowType="6" v:arrowSize="2" v:setback="6.03" refX="6.03" orient="auto"
				markerUnits="strokeWidth" overflow="visible">
			<use xlink:href="#lend6" transform="scale(2.68) "/>
		</marker>
		<marker id="mrkr6-16" class="st7" v:arrowType="6" v:arrowSize="0" v:setback="8.73" refX="-8.73" orient="auto"
				markerUnits="strokeWidth" overflow="visible">
			<use xlink:href="#lend6" transform="scale(-3.88,-3.88) "/>
		</marker>
		<marker id="mrkr6-26" class="st7" v:arrowType="6" v:arrowSize="0" v:setback="8.01" refX="-8.01" orient="auto"
				markerUnits="strokeWidth" overflow="visible">
			<use xlink:href="#lend6" transform="scale(-3.88,-3.88) "/>
		</marker>
		<marker id="mrkr6-34" class="st10" v:arrowType="6" v:arrowSize="2" v:setback="6.03" refX="6.03" orient="auto"
				markerUnits="strokeWidth" overflow="visible">
			<use xlink:href="#lend6" transform="scale(2.68) "/>
		</marker>
	</defs>
	<g v:mID="0" v:index="1" v:groupContext="foregroundPage">
		<title>Page-1</title>
		<v:pageProperties v:drawingScale="0.0393701" v:pageScale="0.0393701" v:drawingUnits="24" v:shadowOffsetX="8.50394"
				v:shadowOffsetY="-8.50394"/>
		<v:layer v:name="Connector" v:index="0"/>
		<g id="shape83-1" v:mID="83" v:groupContext="shape" transform="translate(156.868,-286.59)">
			<title>Rounded Rectangle.83</title>
			<desc>Zonificación hidrográfica</desc>
			<v:userDefs>
				<v:ud v:nameU="CTypeTopLeftSnip" v:prompt="" v:val="VT0(0):5"/>
				<v:ud v:nameU="CTypeTopRightSnip" v:prompt="" v:val="VT0(0):5"/>
				<v:ud v:nameU="CTypeBotLeftSnip" v:prompt="" v:val="VT0(0):5"/>
				<v:ud v:nameU="CTypeBotRightSnip" v:prompt="" v:val="VT0(0):5"/>
				<v:ud v:nameU="CornerLockHoriz" v:prompt="" v:val="VT0(1):5"/>
				<v:ud v:nameU="CornerLockVert" v:prompt="" v:val="VT0(1):5"/>
				<v:ud v:nameU="CornerLockDiag" v:prompt="" v:val="VT0(0):5"/>
				<v:ud v:nameU="TopLeftOffset" v:prompt="" v:val="VT0(0.15748031496063):24"/>
				<v:ud v:nameU="TopRightOffset" v:prompt="" v:val="VT0(0.15748031496063):24"/>
				<v:ud v:nameU="BotLeftOffset" v:prompt="" v:val="VT0(0.15748031496063):24"/>
				<v:ud v:nameU="BotRightOffset" v:prompt="" v:val="VT0(0.15748031496063):24"/>
				<v:ud v:nameU="visVersion" v:prompt="" v:val="VT0(15):26"/>
				<v:ud v:nameU="TopLeftOffset" v:prompt="" v:val="VT0(0.13834211119984):1"/>
				<v:ud v:nameU="TopRightOffset" v:prompt="" v:val="VT0(0.13834211119984):1"/>
				<v:ud v:nameU="BotLeftOffset" v:prompt="" v:val="VT0(0.13834211119984):1"/>
				<v:ud v:nameU="BotRightOffset" v:prompt="" v:val="VT0(0.13834211119984):1"/>
			</v:userDefs>
			<v:textBlock v:margins="rect(4,4,4,4)" v:tabSpace="42.5197"/>
			<v:textRect cx="70.8661" cy="307.776" width="141.74" height="22.6772"/>
			<path d="M9.96 319.11 L131.77 319.11 A9.96047 9.96047 -180 0 0 141.73 309.15 L141.73 306.4 A9.96047 9.96047 -180 0 0
						 131.77 296.44 L9.96 296.44 A9.96047 9.96047 -180 0 0 -0 306.4 L0 309.15 A9.96047 9.96047 -180 0 0 9.96 319.11
						 Z" class="st1"/>
			<text x="24.5" y="310.48" class="st3" v:langID="1033"><v:paragraph v:horizAlign="1"/><v:tabList/>Zonificación hidrográfica</text>		</g>
		<g id="shape84-6" v:mID="84" v:groupContext="shape" transform="translate(156.868,-253.466)">
			<title>Rounded Rectangle.84</title>
			<desc>Cargar clases de entidad</desc>
			<v:userDefs>
				<v:ud v:nameU="CTypeTopLeftSnip" v:prompt="" v:val="VT0(0):5"/>
				<v:ud v:nameU="CTypeTopRightSnip" v:prompt="" v:val="VT0(0):5"/>
				<v:ud v:nameU="CTypeBotLeftSnip" v:prompt="" v:val="VT0(0):5"/>
				<v:ud v:nameU="CTypeBotRightSnip" v:prompt="" v:val="VT0(0):5"/>
				<v:ud v:nameU="CornerLockHoriz" v:prompt="" v:val="VT0(1):5"/>
				<v:ud v:nameU="CornerLockVert" v:prompt="" v:val="VT0(1):5"/>
				<v:ud v:nameU="CornerLockDiag" v:prompt="" v:val="VT0(0):5"/>
				<v:ud v:nameU="TopLeftOffset" v:prompt="" v:val="VT0(0.15748031496063):24"/>
				<v:ud v:nameU="TopRightOffset" v:prompt="" v:val="VT0(0.15748031496063):24"/>
				<v:ud v:nameU="BotLeftOffset" v:prompt="" v:val="VT0(0.15748031496063):24"/>
				<v:ud v:nameU="BotRightOffset" v:prompt="" v:val="VT0(0.15748031496063):24"/>
				<v:ud v:nameU="visVersion" v:prompt="" v:val="VT0(15):26"/>
			</v:userDefs>
			<v:textBlock v:margins="rect(4,4,4,4)" v:tabSpace="42.5197"/>
			<v:textRect cx="70.8661" cy="307.776" width="141.74" height="22.6772"/>
			<path d="M11.34 319.11 L130.39 319.11 A11.3384 11.3384 -180 0 0 141.73 307.78 A11.3384 11.3384 -180 0 0 130.39 296.44
						 L11.34 296.44 A11.3384 11.3384 -180 0 0 0 307.78 A11.3384 11.3384 -180 0 0 11.34 319.11 Z" class="st4"/>
			<text x="24.53" y="310.48" class="st3" v:langID="1033"><v:paragraph v:horizAlign="1"/><v:tabList/>Cargar clases de entidad</text>		</g>
		<g id="shape85-11" v:mID="85" v:groupContext="shape" v:layerMember="0" transform="translate(220.648,-288.453)">
			<title>Dynamic connector.85</title>
			<v:userDefs>
				<v:ud v:nameU="visVersion" v:val="VT0(15):26"/>
			</v:userDefs>
			<path d="M7.09 320.98 C7.09 322.47 7.09 324.83 7.09 327.06" class="st6"/>
		</g>
		<g id="shape86-17" v:mID="86" v:groupContext="shape" transform="translate(9.84707,-185.96)">
			<title>Rounded Rectangle.86</title>
			<desc>Filtrar por area hid. - AH</desc>
			<v:userDefs>
				<v:ud v:nameU="CTypeTopLeftSnip" v:prompt="" v:val="VT0(0):5"/>
				<v:ud v:nameU="CTypeTopRightSnip" v:prompt="" v:val="VT0(0):5"/>
				<v:ud v:nameU="CTypeBotLeftSnip" v:prompt="" v:val="VT0(0):5"/>
				<v:ud v:nameU="CTypeBotRightSnip" v:prompt="" v:val="VT0(0):5"/>
				<v:ud v:nameU="CornerLockHoriz" v:prompt="" v:val="VT0(1):5"/>
				<v:ud v:nameU="CornerLockVert" v:prompt="" v:val="VT0(1):5"/>
				<v:ud v:nameU="CornerLockDiag" v:prompt="" v:val="VT0(0):5"/>
				<v:ud v:nameU="TopLeftOffset" v:prompt="" v:val="VT0(0.15748031496063):24"/>
				<v:ud v:nameU="TopRightOffset" v:prompt="" v:val="VT0(0.15748031496063):24"/>
				<v:ud v:nameU="BotLeftOffset" v:prompt="" v:val="VT0(0.15748031496063):24"/>
				<v:ud v:nameU="BotRightOffset" v:prompt="" v:val="VT0(0.15748031496063):24"/>
				<v:ud v:nameU="visVersion" v:prompt="" v:val="VT0(15):26"/>
			</v:userDefs>
			<v:textBlock v:margins="rect(4,4,4,4)" v:tabSpace="42.5197"/>
			<v:textRect cx="70.8661" cy="307.776" width="141.74" height="22.6772"/>
			<path d="M11.34 319.11 L130.39 319.11 A11.3384 11.3384 -180 0 0 141.73 307.78 A11.3384 11.3384 -180 0 0 130.39 296.44
						 L11.34 296.44 A11.3384 11.3384 -180 0 0 0 307.78 A11.3384 11.3384 -180 0 0 11.34 319.11 Z" class="st4"/>
			<text x="24.98" y="310.48" class="st3" v:langID="1033"><v:paragraph v:horizAlign="1"/><v:tabList/>Filtrar por area hid. - AH</text>		</g>
		<g id="shape87-21" v:mID="87" v:groupContext="shape" v:layerMember="0" transform="translate(156.822,-231.68)">
			<title>Dynamic connector.87</title>
			<v:userDefs>
				<v:ud v:nameU="visVersion" v:val="VT0(15):26"/>
			</v:userDefs>
			<path d="M0 319.11 C-19.03 319.11 -50.94 319.11 -65.01 324.52 C-73.47 327.76 -75.48 332.96 -75.96 337.79 L-75.97 338.15"
					class="st8"/>
		</g>
		<g id="shape88-27" v:mID="88" v:groupContext="shape" transform="translate(156.822,-185.96)">
			<title>Rounded Rectangle.88</title>
			<desc>Filtrar por zona hid. - ZH</desc>
			<v:userDefs>
				<v:ud v:nameU="CTypeTopLeftSnip" v:prompt="" v:val="VT0(0):5"/>
				<v:ud v:nameU="CTypeTopRightSnip" v:prompt="" v:val="VT0(0):5"/>
				<v:ud v:nameU="CTypeBotLeftSnip" v:prompt="" v:val="VT0(0):5"/>
				<v:ud v:nameU="CTypeBotRightSnip" v:prompt="" v:val="VT0(0):5"/>
				<v:ud v:nameU="CornerLockHoriz" v:prompt="" v:val="VT0(1):5"/>
				<v:ud v:nameU="CornerLockVert" v:prompt="" v:val="VT0(1):5"/>
				<v:ud v:nameU="CornerLockDiag" v:prompt="" v:val="VT0(0):5"/>
				<v:ud v:nameU="TopLeftOffset" v:prompt="" v:val="VT0(0.15748031496063):24"/>
				<v:ud v:nameU="TopRightOffset" v:prompt="" v:val="VT0(0.15748031496063):24"/>
				<v:ud v:nameU="BotLeftOffset" v:prompt="" v:val="VT0(0.15748031496063):24"/>
				<v:ud v:nameU="BotRightOffset" v:prompt="" v:val="VT0(0.15748031496063):24"/>
				<v:ud v:nameU="visVersion" v:prompt="" v:val="VT0(15):26"/>
			</v:userDefs>
			<v:textBlock v:margins="rect(4,4,4,4)" v:tabSpace="42.5197"/>
			<v:textRect cx="70.8661" cy="307.776" width="141.74" height="22.6772"/>
			<path d="M11.34 319.11 L130.39 319.11 A11.3384 11.3384 -180 0 0 141.73 307.78 A11.3384 11.3384 -180 0 0 130.39 296.44
						 L11.34 296.44 A11.3384 11.3384 -180 0 0 0 307.78 A11.3384 11.3384 -180 0 0 11.34 319.11 Z" class="st4"/>
			<text x="24.21" y="310.48" class="st3" v:langID="1033"><v:paragraph v:horizAlign="1"/><v:tabList/>Filtrar por zona hid. - ZH</text>		</g>
		<g id="shape89-31" v:mID="89" v:groupContext="shape" transform="translate(156.822,-150.871)">
			<title>Rounded Rectangle.89</title>
			<desc>Dissolve</desc>
			<v:userDefs>
				<v:ud v:nameU="CTypeTopLeftSnip" v:prompt="" v:val="VT0(0):5"/>
				<v:ud v:nameU="CTypeTopRightSnip" v:prompt="" v:val="VT0(0):5"/>
				<v:ud v:nameU="CTypeBotLeftSnip" v:prompt="" v:val="VT0(0):5"/>
				<v:ud v:nameU="CTypeBotRightSnip" v:prompt="" v:val="VT0(0):5"/>
				<v:ud v:nameU="CornerLockHoriz" v:prompt="" v:val="VT0(1):5"/>
				<v:ud v:nameU="CornerLockVert" v:prompt="" v:val="VT0(1):5"/>
				<v:ud v:nameU="CornerLockDiag" v:prompt="" v:val="VT0(0):5"/>
				<v:ud v:nameU="TopLeftOffset" v:prompt="" v:val="VT0(0.15748031496063):24"/>
				<v:ud v:nameU="TopRightOffset" v:prompt="" v:val="VT0(0.15748031496063):24"/>
				<v:ud v:nameU="BotLeftOffset" v:prompt="" v:val="VT0(0.15748031496063):24"/>
				<v:ud v:nameU="BotRightOffset" v:prompt="" v:val="VT0(0.15748031496063):24"/>
				<v:ud v:nameU="visVersion" v:prompt="" v:val="VT0(15):26"/>
			</v:userDefs>
			<v:textBlock v:margins="rect(4,4,4,4)" v:tabSpace="42.5197"/>
			<v:textRect cx="70.8661" cy="307.776" width="141.74" height="22.6772"/>
			<path d="M11.34 319.11 L130.39 319.11 A11.3384 11.3384 -180 0 0 141.73 307.78 A11.3384 11.3384 -180 0 0 130.39 296.44
						 L11.34 296.44 A11.3384 11.3384 -180 0 0 0 307.78 A11.3384 11.3384 -180 0 0 11.34 319.11 Z" class="st9"/>
			<text x="55.66" y="310.48" class="st3" v:langID="1033"><v:paragraph v:horizAlign="1"/><v:tabList/>Dissolve</text>		</g>
		<g id="shape90-36" v:mID="90" v:groupContext="shape" transform="translate(303.798,-185.96)">
			<title>Rounded Rectangle.90</title>
			<desc>Filtrar por subzona hid. - SZH</desc>
			<v:userDefs>
				<v:ud v:nameU="CTypeTopLeftSnip" v:prompt="" v:val="VT0(0):5"/>
				<v:ud v:nameU="CTypeTopRightSnip" v:prompt="" v:val="VT0(0):5"/>
				<v:ud v:nameU="CTypeBotLeftSnip" v:prompt="" v:val="VT0(0):5"/>
				<v:ud v:nameU="CTypeBotRightSnip" v:prompt="" v:val="VT0(0):5"/>
				<v:ud v:nameU="CornerLockHoriz" v:prompt="" v:val="VT0(1):5"/>
				<v:ud v:nameU="CornerLockVert" v:prompt="" v:val="VT0(1):5"/>
				<v:ud v:nameU="CornerLockDiag" v:prompt="" v:val="VT0(0):5"/>
				<v:ud v:nameU="TopLeftOffset" v:prompt="" v:val="VT0(0.15748031496063):24"/>
				<v:ud v:nameU="TopRightOffset" v:prompt="" v:val="VT0(0.15748031496063):24"/>
				<v:ud v:nameU="BotLeftOffset" v:prompt="" v:val="VT0(0.15748031496063):24"/>
				<v:ud v:nameU="BotRightOffset" v:prompt="" v:val="VT0(0.15748031496063):24"/>
				<v:ud v:nameU="visVersion" v:prompt="" v:val="VT0(15):26"/>
			</v:userDefs>
			<v:textBlock v:margins="rect(4,4,4,4)" v:tabSpace="42.5197"/>
			<v:textRect cx="70.8661" cy="307.776" width="141.74" height="22.6772"/>
			<path d="M11.34 319.11 L130.39 319.11 A11.3384 11.3384 -180 0 0 141.73 307.78 A11.3384 11.3384 -180 0 0 130.39 296.44
						 L11.34 296.44 A11.3384 11.3384 -180 0 0 0 307.78 A11.3384 11.3384 -180 0 0 11.34 319.11 Z" class="st4"/>
			<text x="15.3" y="310.48" class="st3" v:langID="1033"><v:paragraph v:horizAlign="1"/><v:tabList/>Filtrar por subzona hid. - SZH</text>		</g>
		<g id="shape91-40" v:mID="91" v:groupContext="shape" v:layerMember="0" transform="translate(220.602,-221.576)">
			<title>Dynamic connector.91</title>
			<v:userDefs>
				<v:ud v:nameU="visVersion" v:val="VT0(15):26"/>
			</v:userDefs>
			<path d="M7.09 320.35 C7.09 322.14 7.09 325.04 7.09 327.69" class="st6"/>
		</g>
		<g id="shape92-45" v:mID="92" v:groupContext="shape" v:layerMember="0" transform="translate(298.555,-231.68)">
			<title>Dynamic connector.92</title>
			<v:userDefs>
				<v:ud v:nameU="visVersion" v:val="VT0(15):26"/>
			</v:userDefs>
			<path d="M0 319.11 C19.03 319.11 50.94 319.11 65.01 324.52 C73.47 327.76 75.48 332.96 75.96 337.79 L75.97 338.15"
					class="st8"/>
		</g>
		<g id="shape94-50" v:mID="94" v:groupContext="shape" v:layerMember="0" transform="translate(220.602,-186.841)">
			<title>Dynamic connector.94</title>
			<v:userDefs>
				<v:ud v:nameU="visVersion" v:val="VT0(15):26"/>
			</v:userDefs>
			<path d="M7.09 319.99 C7.09 321.96 7.09 325.17 7.09 328.04" class="st6"/>
		</g>
		<g id="shape95-55" v:mID="95" v:groupContext="shape" v:layerMember="0" transform="translate(80.7132,-185.96)">
			<title>Dynamic connector.95</title>
			<v:userDefs>
				<v:ud v:nameU="visVersion" v:val="VT0(15):26"/>
			</v:userDefs>
			<path d="M0 319.11 C0 325.05 -0 332.92 11.13 337.31 C24.18 342.46 52.52 342.84 71.74 342.86 L72.1 342.86" class="st8"/>
		</g>
		<g id="shape96-60" v:mID="96" v:groupContext="shape" v:layerMember="0" transform="translate(374.664,-185.96)">
			<title>Dynamic connector.96</title>
			<v:userDefs>
				<v:ud v:nameU="visVersion" v:val="VT0(15):26"/>
			</v:userDefs>
			<path d="M0 319.11 C0 325.05 0 332.92 -11.13 337.31 C-24.18 342.46 -52.52 342.84 -71.74 342.86 L-72.1 342.86"
					class="st8"/>
		</g>
		<g id="shape98-65" v:mID="98" v:groupContext="shape" transform="translate(156.733,-116.146)">
			<title>Rounded Rectangle.98</title>
			<desc>Zona de estudio</desc>
			<v:userDefs>
				<v:ud v:nameU="CTypeTopLeftSnip" v:prompt="" v:val="VT0(0):5"/>
				<v:ud v:nameU="CTypeTopRightSnip" v:prompt="" v:val="VT0(0):5"/>
				<v:ud v:nameU="CTypeBotLeftSnip" v:prompt="" v:val="VT0(0):5"/>
				<v:ud v:nameU="CTypeBotRightSnip" v:prompt="" v:val="VT0(0):5"/>
				<v:ud v:nameU="CornerLockHoriz" v:prompt="" v:val="VT0(1):5"/>
				<v:ud v:nameU="CornerLockVert" v:prompt="" v:val="VT0(1):5"/>
				<v:ud v:nameU="CornerLockDiag" v:prompt="" v:val="VT0(0):5"/>
				<v:ud v:nameU="TopLeftOffset" v:prompt="" v:val="VT0(0.15748031496063):24"/>
				<v:ud v:nameU="TopRightOffset" v:prompt="" v:val="VT0(0.15748031496063):24"/>
				<v:ud v:nameU="BotLeftOffset" v:prompt="" v:val="VT0(0.15748031496063):24"/>
				<v:ud v:nameU="BotRightOffset" v:prompt="" v:val="VT0(0.15748031496063):24"/>
				<v:ud v:nameU="visVersion" v:prompt="" v:val="VT0(15):26"/>
			</v:userDefs>
			<v:textBlock v:margins="rect(4,4,4,4)" v:tabSpace="42.5197"/>
			<v:textRect cx="70.8661" cy="307.776" width="141.74" height="22.6772"/>
			<path d="M11.34 319.11 L130.39 319.11 A11.3384 11.3384 -180 0 0 141.73 307.78 A11.3384 11.3384 -180 0 0 130.39 296.44
						 L11.34 296.44 A11.3384 11.3384 -180 0 0 0 307.78 A11.3384 11.3384 -180 0 0 11.34 319.11 Z" class="st1"/>
			<text x="40.16" y="310.48" class="st3" v:langID="1033"><v:paragraph v:horizAlign="1"/><v:tabList/>Zona de estudio</text>		</g>
		<g id="shape99-69" v:mID="99" v:groupContext="shape" transform="translate(156.733,-80.7132)">
			<title>Rounded Rectangle.99</title>
			<desc>Asignar CRS proyectado al mapa</desc>
			<v:userDefs>
				<v:ud v:nameU="CTypeTopLeftSnip" v:prompt="" v:val="VT0(0):5"/>
				<v:ud v:nameU="CTypeTopRightSnip" v:prompt="" v:val="VT0(0):5"/>
				<v:ud v:nameU="CTypeBotLeftSnip" v:prompt="" v:val="VT0(0):5"/>
				<v:ud v:nameU="CTypeBotRightSnip" v:prompt="" v:val="VT0(0):5"/>
				<v:ud v:nameU="CornerLockHoriz" v:prompt="" v:val="VT0(1):5"/>
				<v:ud v:nameU="CornerLockVert" v:prompt="" v:val="VT0(1):5"/>
				<v:ud v:nameU="CornerLockDiag" v:prompt="" v:val="VT0(0):5"/>
				<v:ud v:nameU="TopLeftOffset" v:prompt="" v:val="VT0(0.15748031496063):24"/>
				<v:ud v:nameU="TopRightOffset" v:prompt="" v:val="VT0(0.15748031496063):24"/>
				<v:ud v:nameU="BotLeftOffset" v:prompt="" v:val="VT0(0.15748031496063):24"/>
				<v:ud v:nameU="BotRightOffset" v:prompt="" v:val="VT0(0.15748031496063):24"/>
				<v:ud v:nameU="visVersion" v:prompt="" v:val="VT0(15):26"/>
			</v:userDefs>
			<v:textBlock v:margins="rect(4,4,4,4)" v:tabSpace="42.5197"/>
			<v:textRect cx="70.8661" cy="307.776" width="141.74" height="22.6772"/>
			<path d="M11.34 319.11 L130.39 319.11 A11.3384 11.3384 -180 0 0 141.73 307.78 A11.3384 11.3384 -180 0 0 130.39 296.44
						 L11.34 296.44 A11.3384 11.3384 -180 0 0 0 307.78 A11.3384 11.3384 -180 0 0 11.34 319.11 Z" class="st4"/>
			<text x="9.01" y="310.48" class="st3" v:langID="1033"><v:paragraph v:horizAlign="1"/><v:tabList/>Asignar CRS proyectado al mapa</text>		</g>
		<g id="shape101-73" v:mID="101" v:groupContext="shape" v:layerMember="0" transform="translate(234.731,-151.934)">
			<title>Dynamic connector.101</title>
			<v:userDefs>
				<v:ud v:nameU="visVersion" v:val="VT0(15):26"/>
			</v:userDefs>
			<path d="M-7.04 320.18 C-7.04 322.83 -7.04 323.72 -7.04 324.44 C-7.04 324.81 -7.04 325.13 -7.05 325.3 C-7.07 325.49 -7.1
						 325.49 -7.11 325.67 C-7.13 325.88 -7.13 326.31 -7.13 326.79 C-7.13 327.1 -7.13 327.43 -7.13 327.86"
					class="st6"/>
		</g>
		<g id="shape104-78" v:mID="104" v:groupContext="shape" transform="translate(156.733,-45.2801)">
			<title>Rounded Rectangle.104</title>
			<desc>Feature Envelope to Polygon</desc>
			<v:userDefs>
				<v:ud v:nameU="CTypeTopLeftSnip" v:prompt="" v:val="VT0(0):5"/>
				<v:ud v:nameU="CTypeTopRightSnip" v:prompt="" v:val="VT0(0):5"/>
				<v:ud v:nameU="CTypeBotLeftSnip" v:prompt="" v:val="VT0(0):5"/>
				<v:ud v:nameU="CTypeBotRightSnip" v:prompt="" v:val="VT0(0):5"/>
				<v:ud v:nameU="CornerLockHoriz" v:prompt="" v:val="VT0(1):5"/>
				<v:ud v:nameU="CornerLockVert" v:prompt="" v:val="VT0(1):5"/>
				<v:ud v:nameU="CornerLockDiag" v:prompt="" v:val="VT0(0):5"/>
				<v:ud v:nameU="TopLeftOffset" v:prompt="" v:val="VT0(0.15748031496063):24"/>
				<v:ud v:nameU="TopRightOffset" v:prompt="" v:val="VT0(0.15748031496063):24"/>
				<v:ud v:nameU="BotLeftOffset" v:prompt="" v:val="VT0(0.15748031496063):24"/>
				<v:ud v:nameU="BotRightOffset" v:prompt="" v:val="VT0(0.15748031496063):24"/>
				<v:ud v:nameU="visVersion" v:prompt="" v:val="VT0(15):26"/>
			</v:userDefs>
			<v:textBlock v:margins="rect(4,4,4,4)" v:tabSpace="42.5197"/>
			<v:textRect cx="70.8661" cy="307.776" width="141.74" height="22.6772"/>
			<path d="M11.34 319.11 L130.39 319.11 A11.3384 11.3384 -180 0 0 141.73 307.78 A11.3384 11.3384 -180 0 0 130.39 296.44
						 L11.34 296.44 A11.3384 11.3384 -180 0 0 0 307.78 A11.3384 11.3384 -180 0 0 11.34 319.11 Z" class="st9"/>
			<text x="16.62" y="310.48" class="st3" v:langID="1033"><v:paragraph v:horizAlign="1"/><v:tabList/>Feature Envelope to Polygon</text>		</g>
		<g id="shape105-82" v:mID="105" v:groupContext="shape" v:layerMember="0" transform="translate(220.513,-81.4219)">
			<title>Dynamic connector.105</title>
			<v:userDefs>
				<v:ud v:nameU="visVersion" v:val="VT0(15):26"/>
			</v:userDefs>
			<path d="M7.09 319.82 C7.09 321.87 7.09 325.23 7.09 328.21" class="st6"/>
		</g>
		<g id="shape108-87" v:mID="108" v:groupContext="shape" v:layerMember="0" transform="translate(220.513,-45.9888)">
			<title>Dynamic connector.108</title>
			<v:userDefs>
				<v:ud v:nameU="visVersion" v:val="VT0(15):26"/>
			</v:userDefs>
			<path d="M7.09 319.82 C7.09 321.87 7.09 325.23 7.09 328.21" class="st6"/>
		</g>
		<g id="shape125-92" v:mID="125" v:groupContext="shape" transform="translate(156.733,-9.84707)">
			<title>Rounded Rectangle.125</title>
			<desc>Zona de estudio envelope</desc>
			<v:userDefs>
				<v:ud v:nameU="CTypeTopLeftSnip" v:prompt="" v:val="VT0(0):5"/>
				<v:ud v:nameU="CTypeTopRightSnip" v:prompt="" v:val="VT0(0):5"/>
				<v:ud v:nameU="CTypeBotLeftSnip" v:prompt="" v:val="VT0(0):5"/>
				<v:ud v:nameU="CTypeBotRightSnip" v:prompt="" v:val="VT0(0):5"/>
				<v:ud v:nameU="CornerLockHoriz" v:prompt="" v:val="VT0(1):5"/>
				<v:ud v:nameU="CornerLockVert" v:prompt="" v:val="VT0(1):5"/>
				<v:ud v:nameU="CornerLockDiag" v:prompt="" v:val="VT0(0):5"/>
				<v:ud v:nameU="TopLeftOffset" v:prompt="" v:val="VT0(0.15748031496063):24"/>
				<v:ud v:nameU="TopRightOffset" v:prompt="" v:val="VT0(0.15748031496063):24"/>
				<v:ud v:nameU="BotLeftOffset" v:prompt="" v:val="VT0(0.15748031496063):24"/>
				<v:ud v:nameU="BotRightOffset" v:prompt="" v:val="VT0(0.15748031496063):24"/>
				<v:ud v:nameU="visVersion" v:prompt="" v:val="VT0(15):26"/>
			</v:userDefs>
			<v:textBlock v:margins="rect(4,4,4,4)" v:tabSpace="42.5197"/>
			<v:textRect cx="70.8661" cy="307.776" width="141.74" height="22.6772"/>
			<path d="M11.34 319.11 L130.39 319.11 A11.3384 11.3384 -180 0 0 141.73 307.78 A11.3384 11.3384 -180 0 0 130.39 296.44
						 L11.34 296.44 A11.3384 11.3384 -180 0 0 0 307.78 A11.3384 11.3384 -180 0 0 11.34 319.11 Z" class="st1"/>
			<text x="21.69" y="310.48" class="st3" v:langID="1033"><v:paragraph v:horizAlign="1"/><v:tabList/>Zona de estudio envelope</text>		</g>
		<g id="shape133-96" v:mID="133" v:groupContext="shape" v:layerMember="0" transform="translate(220.513,-116.855)">
			<title>Dynamic connector.133</title>
			<v:userDefs>
				<v:ud v:nameU="visVersion" v:val="VT0(15):26"/>
			</v:userDefs>
			<path d="M7.09 319.82 C7.09 321.87 7.09 325.23 7.09 328.21" class="st6"/>
		</g>
		<g id="shape135-101" v:mID="135" v:groupContext="shape" transform="translate(156.822,-220.341)">
			<title>Rounded Rectangle.135</title>
			<desc>Analizar catálogo de objetos</desc>
			<v:userDefs>
				<v:ud v:nameU="CTypeTopLeftSnip" v:prompt="" v:val="VT0(0):5"/>
				<v:ud v:nameU="CTypeTopRightSnip" v:prompt="" v:val="VT0(0):5"/>
				<v:ud v:nameU="CTypeBotLeftSnip" v:prompt="" v:val="VT0(0):5"/>
				<v:ud v:nameU="CTypeBotRightSnip" v:prompt="" v:val="VT0(0):5"/>
				<v:ud v:nameU="CornerLockHoriz" v:prompt="" v:val="VT0(1):5"/>
				<v:ud v:nameU="CornerLockVert" v:prompt="" v:val="VT0(1):5"/>
				<v:ud v:nameU="CornerLockDiag" v:prompt="" v:val="VT0(0):5"/>
				<v:ud v:nameU="TopLeftOffset" v:prompt="" v:val="VT0(0.15748031496063):24"/>
				<v:ud v:nameU="TopRightOffset" v:prompt="" v:val="VT0(0.15748031496063):24"/>
				<v:ud v:nameU="BotLeftOffset" v:prompt="" v:val="VT0(0.15748031496063):24"/>
				<v:ud v:nameU="BotRightOffset" v:prompt="" v:val="VT0(0.15748031496063):24"/>
				<v:ud v:nameU="visVersion" v:prompt="" v:val="VT0(15):26"/>
			</v:userDefs>
			<v:textBlock v:margins="rect(4,4,4,4)" v:tabSpace="42.5197"/>
			<v:textRect cx="70.8661" cy="307.776" width="141.74" height="22.6772"/>
			<path d="M11.34 319.11 L130.39 319.11 A11.3384 11.3384 -180 0 0 141.73 307.78 A11.3384 11.3384 -180 0 0 130.39 296.44
						 L11.34 296.44 A11.3384 11.3384 -180 0 0 0 307.78 A11.3384 11.3384 -180 0 0 11.34 319.11 Z" class="st4"/>
			<text x="17.15" y="310.48" class="st3" v:langID="1033"><v:paragraph v:horizAlign="1"/><v:tabList/>Analizar catálogo de objetos</text>		</g>
		<g id="shape136-105" v:mID="136" v:groupContext="shape" v:layerMember="0" transform="translate(234.798,-255.328)">
			<title>Dynamic connector.136</title>
			<v:userDefs>
				<v:ud v:nameU="visVersion" v:val="VT0(15):26"/>
			</v:userDefs>
			<path d="M-7.06 320.98 C-7.06 323.54 -7.06 324.4 -7.06 325.11 C-7.06 325.47 -7.06 325.78 -7.07 325.95 C-7.08 326.11 -7.09
						 326.11 -7.1 326.27 C-7.11 326.43 -7.11 326.72 -7.11 327.06 L-7.11 327.42" class="st11"/>
		</g>
	</g>
</svg>
